<svg xmlns="http://www.w3.org/2000/svg" width="1088px" height="848px" viewBox="0 0 1088 848" class="a"><style>
.b {fill:#a5a5a5;fill-opacity:0.2;stroke:#105868;stroke-linecap:round;stroke-linejoin:round;stroke-width:2.25}
.c {fill:#a5a5a5;fill-opacity:0.2;stroke:#2080a0;stroke-dasharray:15.75,11.25;stroke-linecap:round;stroke-linejoin:round;stroke-width:2.25}
.d {fill:#a5a5a5;fill-opacity:0.2;stroke:#0050c0;stroke-dasharray:2.25,4.5;stroke-linecap:round;stroke-linejoin:round;stroke-width:2.25}
.e {fill:#a5a5a5;fill-opacity:0.2;stroke:#0070f7;stroke-dasharray:2.25,4.5;stroke-linecap:round;stroke-linejoin:round;stroke-width:2.25}
.f {fill:#0070f7;stroke:none;stroke-linecap:round;stroke-linejoin:round;stroke-width:0.25}
.g {fill:#ffffff;font-family:Arial;font-size:1.16666em;font-weight:bold}
.h {font-size:1em}
.i {baseline-shift:32.4943%;font-size:0.649886em}
.j {fill:#2080a0;stroke:none;stroke-linecap:round;stroke-linejoin:round;stroke-width:0.25}
.k {fill:#105868;stroke:none;stroke-linecap:round;stroke-linejoin:round;stroke-width:0.25}
.l {fill:#0050c0;stroke:none;stroke-linecap:round;stroke-linejoin:round;stroke-width:0.25}
.m {fill:#ffffff;font-family:Arial;font-size:1.08334em;font-weight:bold}
.n {fill:#105868;stroke:#105868;stroke-linecap:round;stroke-linejoin:round;stroke-width:2.25}
.o {fill:#ffffff;font-family:Arial;font-size:1.66667em;font-weight:bold}
.p {fill:#2080a0;stroke:#2080a0;stroke-linecap:round;stroke-linejoin:round;stroke-width:2.25}
.q {fill:none;stroke:none;stroke-linecap:round;stroke-linejoin:round;stroke-width:2.5}
.r {fill:#000000;font-family:Arial;font-size:1.16666em;font-weight:bold}
.a {fill:none;fill-rule:evenodd;font-size:12px;overflow:visible;stroke-linecap:square;stroke-miterlimit:3}
</style><g><g transform="translate(16,-16)"><rect x="0" y="32" width="1056" height="816" rx="8" ry="8" class="b"/></g><g transform="translate(48,-48)"><rect x="0" y="352" width="928" height="496" rx="8" ry="8" class="c"/></g><g transform="translate(128,-64)"><rect x="0" y="112" width="496" height="736" rx="8" ry="8" class="d"/></g><g transform="translate(144,-80)"><rect x="0" y="416" width="464" height="432" rx="8" ry="8" class="e"/></g><a target="_blank" aria-label="Azure AD Reports" href="https://docs.microsoft.com/azure/active-directory/reports-monitoring/" rel="noopener"><g transform="translate(160,-416)"><rect x="0" y="768" width="96" height="80" rx="8" ry="8" class="f"/><text x="14.55" y="787" class="g">Advanced <tspan x="20.38" dy="1.2em" class="h">Security </tspan><tspan x="14.55" dy="1.2em" class="h">Reports &amp; </tspan><tspan x="28.16" dy="1.2em" class="h">Alerts</tspan></text></g></a><a target="_blank" aria-label="Azure AD SSO" href="https://docs.microsoft.com/azure/active-directory/hybrid/how-to-connect-sso" rel="noopener"><g transform="translate(272,-128)"><rect x="0" y="768" width="96" height="80" rx="8" ry="8" class="f"/><text x="7.17" y="795.4" class="g">Single-Sign-<tspan x="10.28" dy="1.2em" class="h">On to other </tspan><tspan x="30.88" dy="1.2em" class="h">SaaS</tspan></text></g></a><a target="_blank" aria-label="Application Proxy" href="https://docs.microsoft.com/azure/active-directory/manage-apps/application-proxy" rel="noopener"><g transform="translate(272,-416)"><rect x="0" y="768" width="96" height="80" rx="8" ry="8" class="f"/><text x="11.05" y="795.4" class="g">App Proxy, <tspan x="16.89" dy="1.2em" class="h">including </tspan><tspan x="8.31" dy="1.2em" class="h">PingAccess</tspan></text></g></a><a target="_blank" aria-label="Azure Multi-Factor Authentication" href="https://docs.microsoft.com/azure/active-directory/authentication/concept-mfa-howitworks" rel="noopener"><g transform="translate(272,-224)"><rect x="0" y="768" width="96" height="80" rx="8" ry="8" class="f"/><text x="7.95" y="803.8" class="g">Multi-Factor <tspan x="10.29" dy="1.2em" class="h">Auth (MFA)</tspan></text></g></a><a target="_blank" aria-label="Azure AD Connect Health" href="https://docs.microsoft.com/azure/active-directory/hybrid/whatis-azure-ad-connect#what-is-azure-ad-connect-health" rel="noopener"><g transform="translate(384,-416)"><rect x="0" y="768" width="96" height="80" rx="8" ry="8" class="f"/><text x="16.5" y="795.4" class="g">Azure AD <tspan x="20" dy="1.2em" class="h">Connect </tspan><tspan x="26.61" dy="1.2em" class="h">Health</tspan></text></g></a><a target="_blank" aria-label="Cloud App Discovery" href="https://docs.microsoft.com/cloud-app-security/set-up-cloud-discovery" rel="noopener"><g transform="translate(272,-320)"><rect x="0" y="768" width="96" height="80" rx="8" ry="8" class="f"/><text x="12.62" y="803.8" class="g">Cloud App <tspan x="14.54" dy="1.2em" class="h">Discovery</tspan></text></g></a><a target="_blank" aria-label="Shared Accounts in Azure AD" href="https://docs.microsoft.com/azure/active-directory/users-groups-roles/users-sharing-accounts" rel="noopener"><g transform="translate(160,-128)"><rect x="0" y="768" width="96" height="80" rx="8" ry="8" class="f"/><text x="24.27" y="787" class="g">Shared <tspan x="20" dy="1.2em" class="h">Account </tspan><tspan x="14.93" dy="1.2em" class="h">Password </tspan><tspan x="16.49" dy="1.2em" class="h">Roll</tspan>-Over</text></g></a><a target="_blank" aria-label="SSPR" href="https://docs.microsoft.com/azure/active-directory/authentication/concept-sspr-howitworks" rel="noopener"><g transform="translate(383.111,-224)"><rect x="0" y="768" width="96" height="80" rx="8" ry="8" class="f"/><text x="7.92" y="795.4" class="g">Self-Service <tspan x="14.93" dy="1.2em" class="h">Password </tspan><tspan x="8.71" dy="1.2em" class="h">Reset in AD</tspan></text></g></a><a target="_blank" aria-label="Self-Service Group Management" href="https://docs.microsoft.com/azure/active-directory/users-groups-roles/groups-self-service-management" rel="noopener"><g transform="translate(496,-224)"><rect x="0" y="768" width="96" height="80" rx="8" ry="8" class="f"/><text x="7.92" y="795.4" class="g">Self-Service <tspan x="27" dy="1.2em" class="h">Group </tspan><tspan x="5.21" dy="1.2em" class="h">Management</tspan></text></g></a><a target="_blank" aria-label="Conditional Access" href="https://docs.microsoft.com/azure/active-directory/conditional-access/overview" rel="noopener"><g transform="translate(384,-320)"><rect x="0" y="768" width="96" height="80" rx="8" ry="8" class="f"/><text x="9.51" y="803.8" class="g">Conditional <tspan x="23.48" dy="1.2em" class="h">Access</tspan></text></g></a><a target="_blank" aria-label="Azure AD External Identities" href="https://docs.microsoft.com/azure/active-directory/external-identities/" rel="noopener"><g transform="translate(495.2,-416)"><rect x="0" y="768" width="96" height="80" rx="8" ry="8" class="f"/><text x="16.5" y="795.4" class="g">Azure AD <tspan x="20.38" dy="1.2em" class="h">External </tspan><tspan x="17.27" dy="1.2em" class="h">Identities</tspan></text></g></a><a target="_blank" aria-label="Enterprise State Roaming" href="https://docs.microsoft.com/azure/active-directory/devices/enterprise-state-roaming-overview" rel="noopener"><g transform="translate(496,-320)"><rect x="0" y="768" width="96" height="80" rx="8" ry="8" class="f"/><text x="13.38" y="795.4" class="g">Enterprise <tspan x="30.88" dy="1.2em" class="h">State </tspan><tspan x="18.06" dy="1.2em" class="h">Roaming</tspan></text></g></a><a target="_blank" aria-label="Terms of Use" href="https://docs.microsoft.com/azure/active-directory/governance/active-directory-tou" rel="noopener"><g transform="translate(384,-128)"><rect x="0" y="768" width="96" height="80" rx="8" ry="8" class="f"/><text x="18.44" y="803.8" class="g">Terms of <tspan x="35.16" dy="1.2em" class="h">Use</tspan></text></g></a><a target="_blank" aria-label="Azure AD Password Protection" href="https://docs.microsoft.com/azure/active-directory/authentication/concept-password-ban-bad" rel="noopener"><g transform="translate(160,-320)"><rect x="0" y="768" width="96" height="80" rx="8" ry="8" class="f"/><text x="16.5" y="795.4" class="g">Azure AD <tspan x="14.93" dy="1.2em" class="h">Password </tspan><tspan x="13.39" dy="1.2em" class="h">Protection</tspan></text></g></a><a target="_blank" aria-label="Microsoft Identity Manager" href="https://docs.microsoft.com/microsoft-identity-manager/" rel="noopener"><g transform="translate(160,-224)"><rect x="0" y="768" width="96" height="80" rx="8" ry="8" class="f"/><text x="16.5" y="795.4" class="g">Microsoft <tspan x="23.11" dy="1.2em" class="h">Identity </tspan><tspan x="19.21" dy="1.2em" class="h">Manager</tspan></text></g></a><a target="_blank" aria-label="3rd Party MFA Integration" href="https://docs.microsoft.com/azure/active-directory/conditional-access/controls#custom-controls-preview" rel="noopener"><g transform="translate(496,-128)"><rect x="0" y="768" width="96" height="80" rx="8" ry="8" class="f"/><text x="20.78" y="795.4" class="g">3<tspan dy="-0.235em" class="i">rd </tspan><tspan dy="0.153em" class="h">Party  </tspan><tspan x="32.84" dy="1.2em" class="h">MFA </tspan><tspan x="11.83" dy="1.2em" class="h">Integration</tspan></text></g></a><a target="_blank" aria-label="Advanced Threat Analytics" href="https://docs.microsoft.com/advanced-threat-analytics/" rel="noopener"><g transform="translate(752,-416)"><rect x="0" y="768" width="96" height="80" rx="8" ry="8" class="j"/><text x="14.55" y="787" class="g">Advanced <tspan x="26.61" dy="1.2em" class="h">Threat </tspan><tspan x="16.88" dy="1.2em" class="h">Analytics </tspan><tspan x="19.22" dy="1.2em" class="h">(retiring)</tspan></text></g></a><a target="_blank" aria-label="Intune Device Management &amp; Application Management" href="https://docs.microsoft.com/mem/intune/fundamentals/what-is-intune" rel="noopener"><g transform="translate(864,-320)"><rect x="0" y="768" width="96" height="80" rx="8" ry="8" class="j"/><text x="8.34" y="803.8" class="g">Intune MDM <tspan x="24.28" dy="1.2em" class="h">&amp; MAM</tspan></text></g></a><a target="_blank" aria-label="CALs" href="https://www.microsoft.com/en-us/licensing/product-licensing/client-access-license" rel="noopener"><g transform="translate(864,-224)"><rect x="0" y="768" width="96" height="80" rx="8" ry="8" class="j"/><text x="17.28" y="795.4" class="g">Windows <tspan x="9.87" dy="1.2em" class="h">Server CAL </tspan><tspan x="26.22" dy="1.2em" class="h">Rights</tspan></text></g></a><a target="_blank" aria-label="Microsoft Endpoint Configuration Manager" href="https://docs.microsoft.com/configmgr/core/understand/introduction" rel="noopener"><g transform="translate(640,-224)"><rect x="0" y="768" width="96" height="80" rx="8" ry="8" class="j"/><text x="16.5" y="787" class="g">Microsoft <tspan x="17.68" dy="1.2em" class="h">Endpoint </tspan><tspan x="25.84" dy="1.2em" class="h">Config </tspan><tspan x="19.21" dy="1.2em" class="h">Manager</tspan></text></g></a><a target="_blank" aria-label="SCEP" href="https://docs.microsoft.com/sccm/protect/deploy-use/endpoint-protection" rel="noopener"><g transform="translate(752,-224)"><rect x="0" y="768" width="96" height="80" rx="8" ry="8" class="j"/><text x="23.1" y="787" class="g">System <tspan x="25.83" dy="1.2em" class="h">Center </tspan><tspan x="17.68" dy="1.2em" class="h">Endpoint </tspan><tspan x="13.39" dy="1.2em" class="h">Protection</tspan></text></g></a><a target="_blank" aria-label="AD RMS" href="https://docs.microsoft.com/azure/information-protection/compare-on-premise" rel="noopener"><g transform="translate(640,-416)"><rect x="0" y="768" width="96" height="80" rx="8" ry="8" class="j"/><text x="26.99" y="795.4" class="g">Active <tspan x="17.27" dy="1.2em" class="h">Directory </tspan><tspan x="32.45" dy="1.2em" class="h">RMS</tspan></text></g></a><a target="_blank" aria-label="Azure RMS" href="https://docs.microsoft.com/azure/information-protection/what-is-azure-rms" rel="noopener"><g transform="translate(864,-416)"><rect x="0" y="768" width="96" height="80" rx="8" ry="8" class="j"/><text x="28.55" y="803.8" class="g">Azure <tspan x="32.45" dy="1.2em" class="h">RMS</tspan></text></g></a><a target="_blank" aria-label="Endpoint Analytics" href="https://docs.microsoft.com/mem/analytics/overview" rel="noopener"><g transform="translate(640,-320)"><rect x="0" y="768" width="96" height="80" rx="8" ry="8" class="j"/><text x="17.68" y="803.8" class="g">Endpoint <tspan x="16.88" dy="1.2em" class="h">Analytics</tspan></text></g></a><a target="_blank" aria-label="Microsoft Cloud App Security" href="https://docs.microsoft.com/cloud-app-security/what-is-cloud-app-security" rel="noopener"><g transform="translate(752,-576)"><rect x="0" y="768" width="96" height="80" rx="8" ry="8" class="k"/><text x="16.5" y="795.4" class="g">Microsoft <tspan x="12.62" dy="1.2em" class="h">Cloud App </tspan><tspan x="20.38" dy="1.2em" class="h">Security</tspan></text></g></a><a target="_blank" aria-label="Microsoft Defender for Identity" href="https://docs.microsoft.com/defender-for-identity/what-is" rel="noopener"><g transform="translate(640,-576)"><rect x="0" y="768" width="96" height="80" rx="8" ry="8" class="k"/><text x="16.5" y="795.4" class="g">Microsoft <tspan x="6.38" dy="1.2em" class="h">Defender for </tspan><tspan x="23.11" dy="1.2em" class="h">Identity</tspan></text></g></a><a target="_blank" aria-label="Azure Identity Protection" href="https://docs.microsoft.com/azure/active-directory/identity-protection/overview" rel="noopener"><g transform="translate(160,-576)"><rect x="0" y="768" width="96" height="80" rx="8" ry="8" class="l"/><text x="28.55" y="795.4" class="g">Azure <tspan x="23.11" dy="1.2em" class="h">Identity </tspan><tspan x="13.39" dy="1.2em" class="h">Protection</tspan></text></g></a><a target="_blank" aria-label="Privileged Identity Management" href="https://docs.microsoft.com/azure/active-directory/active-directory-privileged-identity-management-configure" rel="noopener"><g transform="translate(384,-576)"><rect x="0" y="768" width="96" height="80" rx="8" ry="8" class="l"/><text x="14.54" y="795.4" class="g">Privileged <tspan x="23.11" dy="1.2em" class="h">Identity </tspan><tspan x="5.21" dy="1.2em" class="h">Management</tspan></text></g></a><a target="_blank" aria-label="Access Reviews" href="https://docs.microsoft.com/en-us/azure/active-directory/active-directory-azure-ad-controls-access-reviews-overview" rel="noopener"><g transform="translate(160,-672)"><rect x="0" y="768" width="96" height="80" rx="8" ry="8" class="l"/><text x="23.48" y="803.8" class="g">Access <tspan x="19.98" dy="1.2em" class="h">Reviews</tspan></text></g></a><a target="_blank" aria-label="Risk-Based Conditional Access" href="https://docs.microsoft.com/azure/active-directory/active-directory-conditional-access-conditions#sign-in-risk" rel="noopener"><g transform="translate(496,-576)"><rect x="0" y="768" width="96" height="80" rx="8" ry="8" class="l"/><text x="9.87" y="795.4" class="g">Risk-Based <tspan x="9.51" dy="1.2em" class="h">Conditional </tspan><tspan x="23.48" dy="1.2em" class="h">Access</tspan></text></g></a><a target="_blank" aria-label="Entitlement Management" href="https://docs.microsoft.com/azure/active-directory/governance/entitlement-management-overview" rel="noopener"><g transform="translate(272,-576)"><rect x="0" y="768" width="96" height="80" rx="8" ry="8" class="l"/><text x="9.89" y="803.8" class="g">Entitlement <tspan x="5.21" dy="1.2em" class="h">Management</tspan></text></g></a><a target="_blank" aria-label="Information Protection" href="https://docs.microsoft.com/azure/information-protection/what-is-information-protection" rel="noopener"><g transform="translate(752,-320)"><rect x="0" y="768" width="96" height="80" rx="8" ry="8" class="j"/><text x="9.5" y="803.8" class="g">Information <tspan x="13.39" dy="1.2em" class="h">Protection</tspan></text></g></a><a target="_blank" aria-label="Rules-Based Classification for AIP Client and Scanner" href="https://docs.microsoft.com/azure/information-protection/deploy-aip-scanner" rel="noopener"><g transform="translate(864,-576)"><rect x="0" y="768" width="96" height="80" rx="8" ry="8" class="k"/><text x="8.63" y="788.5" class="m">Rules-Based <tspan x="5.74" dy="1.2em" class="h">Classification </tspan><tspan x="8.64" dy="1.2em" class="h">(AIP Client &amp; </tspan><tspan x="20.18" dy="1.2em" class="h">Scanner)</tspan></text></g></a><a target="_blank" aria-label="Enterprise Mobility + Security" href="https://www.microsoft.com/cloud-platform/enterprise-mobility-security" rel="noopener"><g transform="translate(224,832) rotate(-90)"><rect x="0" y="784" width="816" height="64" rx="8" ry="8" class="n"/><text x="252.12" y="810" class="o">Enterprise Mobility + Security E5<tspan x="364.66" dy="1.2em" class="h">(EMS E5)</tspan></text></g></a><a target="_blank" aria-label="Enterprise Mobility + Security" href="https://www.microsoft.com/cloud-platform/enterprise-mobility-security" rel="noopener"><g transform="translate(-736,800) rotate(-90)"><rect x="0" y="784" width="496" height="64" rx="8" ry="8" class="p"/><text x="92.12" y="810" class="o">Enterprise Mobility + Security E3<tspan x="204.66" dy="1.2em" class="h">(EMS E3)</tspan></text></g></a><a target="_blank" aria-label="Azure Active Directory Premium Plan 2" href="https://azure.microsoft.com/services/active-directory/" rel="noopener"><g transform="translate(128,-752)"><rect x="0" y="800" width="496" height="48" rx="8" ry="8" class="q"/><text x="162.03" y="828.2" class="r">Azure AD Premium Plan 2</text></g></a><a target="_blank" aria-label="Azure Active Directory Premium Plan 1" href="https://docs.microsoft.com/azure/active-directory/" rel="noopener"><g transform="translate(144,-80)"><rect x="0" y="800" width="464" height="48" rx="8" ry="8" class="q"/><text x="146.03" y="828.2" class="r">Azure AD Premium Plan 1</text></g></a></g></svg>