<svg xmlns="http://www.w3.org/2000/svg" width="864" height="656" viewBox="0 0 864 656" class="a"><style>
.b {fill:#a5a5a5;fill-opacity:0.2;stroke:#2080a0;stroke-linecap:round;stroke-linejoin:round;stroke-width:2.25}
.c {fill:#a5a5a5;fill-opacity:0.2;stroke:#0070f7;stroke-dasharray:2.25,4.5;stroke-linecap:round;stroke-linejoin:round;stroke-width:2.25}
.d {fill:#0070f7;stroke:none;stroke-linecap:round;stroke-linejoin:round;stroke-width:0.25}
.e {fill:#ffffff;font-family:Arial;font-size:1.16666em;font-weight:bold}
.f {font-size:1em}
.g {baseline-shift:32.4943%;font-size:0.649886em}
.h {fill:#2080a0;stroke:none;stroke-linecap:round;stroke-linejoin:round;stroke-width:0.25}
.i {fill:#2080a0;stroke:#2080a0;stroke-linecap:round;stroke-linejoin:round;stroke-width:2.25}
.j {fill:#ffffff;font-family:Arial;font-size:1.66667em;font-weight:bold}
.k {fill:none;stroke:none;stroke-linecap:round;stroke-linejoin:round;stroke-width:2.5}
.l {fill:#000000;font-family:Arial;font-size:1.16666em;font-weight:bold}
.a {fill:none;fill-rule:evenodd;font-size:12px;overflow:visible;stroke-linecap:square;stroke-miterlimit:3}
</style><g><g transform="translate(16,-16)"><rect x="0" y="32" width="832" height="624" rx="8" ry="8" class="b"/></g><g transform="translate(32,-32)"><rect x="0" y="320" width="800" height="336" rx="8" ry="8" class="c"/></g><a target="_blank" href="https://docs.microsoft.com/azure/active-directory/reports-monitoring/" rel="noopener"><g transform="translate(48,-272)"><rect x="0" y="576" width="96" height="80" rx="8" ry="8" class="d"/><text x="14.55" y="595" class="e">Advanced <tspan x="20.38" dy="1.2em" class="f">Security </tspan><tspan x="14.55" dy="1.2em" class="f">Reports &amp; </tspan><tspan x="28.16" dy="1.2em" class="f">Alerts</tspan></text></g></a><a target="_blank" href="https://docs.microsoft.com/azure/active-directory/hybrid/how-to-connect-sso" rel="noopener"><g transform="translate(720,-176)"><rect x="0" y="576" width="96" height="80" rx="8" ry="8" class="d"/><text x="7.17" y="603.4" class="e">Single-Sign-<tspan x="10.28" dy="1.2em" class="f">On to other </tspan><tspan x="30.88" dy="1.2em" class="f">SaaS</tspan></text></g></a><a target="_blank" href="https://docs.microsoft.com/azure/active-directory/manage-apps/application-proxy" rel="noopener"><g transform="translate(160,-272)"><rect x="0" y="576" width="96" height="80" rx="8" ry="8" class="d"/><text x="11.05" y="603.4" class="e">App Proxy, <tspan x="16.89" dy="1.2em" class="f">including </tspan><tspan x="8.31" dy="1.2em" class="f">PingAccess</tspan></text></g></a><a target="_blank" href="https://docs.microsoft.com/azure/active-directory/authentication/concept-mfa-howitworks" rel="noopener"><g transform="translate(272,-176)"><rect x="0" y="576" width="96" height="80" rx="8" ry="8" class="d"/><text x="7.95" y="611.8" class="e">Multi-Factor <tspan x="10.29" dy="1.2em" class="f">Auth (MFA)</tspan></text></g></a><a target="_blank" href="https://docs.microsoft.com/azure/active-directory/hybrid/whatis-azure-ad-connect#what-is-azure-ad-connect-health" rel="noopener"><g transform="translate(272,-272)"><rect x="0" y="576" width="96" height="80" rx="8" ry="8" class="d"/><text x="16.5" y="603.4" class="e">Azure AD <tspan x="20" dy="1.2em" class="f">Connect </tspan><tspan x="26.61" dy="1.2em" class="f">Health</tspan></text></g></a><a target="_blank" href="https://docs.microsoft.com/cloud-app-security/set-up-cloud-discovery" rel="noopener"><g transform="translate(608,-272)"><rect x="0" y="576" width="96" height="80" rx="8" ry="8" class="d"/><text x="12.62" y="611.8" class="e">Cloud App <tspan x="14.54" dy="1.2em" class="f">Discovery</tspan></text></g></a><a target="_blank" href="https://docs.microsoft.com/azure/active-directory/users-groups-roles/users-sharing-accounts" rel="noopener"><g transform="translate(608,-176)"><rect x="0" y="576" width="96" height="80" rx="8" ry="8" class="d"/><text x="24.27" y="595" class="e">Shared <tspan x="20" dy="1.2em" class="f">Account </tspan><tspan x="14.93" dy="1.2em" class="f">Password </tspan><tspan x="16.49" dy="1.2em" class="f">Roll</tspan>-Over</text></g></a><a target="_blank" href="https://docs.microsoft.com/azure/active-directory/authentication/concept-sspr-howitworks" rel="noopener"><g transform="translate(496,-176)"><rect x="0" y="576" width="96" height="80" rx="8" ry="8" class="d"/><text x="7.92" y="603.4" class="e">Self-Service <tspan x="14.93" dy="1.2em" class="f">Password </tspan><tspan x="8.71" dy="1.2em" class="f">Reset in AD</tspan></text></g></a><a target="_blank" href="https://docs.microsoft.com/azure/active-directory/users-groups-roles/groups-self-service-management" rel="noopener"><g transform="translate(384,-176)"><rect x="0" y="576" width="96" height="80" rx="8" ry="8" class="d"/><text x="7.92" y="603.4" class="e">Self-Service <tspan x="27" dy="1.2em" class="f">Group </tspan><tspan x="5.21" dy="1.2em" class="f">Management</tspan></text></g></a><a target="_blank" href="https://docs.microsoft.com/azure/active-directory/conditional-access/overview" rel="noopener"><g transform="translate(720,-272)"><rect x="0" y="576" width="96" height="80" rx="8" ry="8" class="d"/><text x="9.51" y="611.8" class="e">Conditional <tspan x="23.48" dy="1.2em" class="f">Access</tspan></text></g></a><a target="_blank" href="https://docs.microsoft.com/azure/active-directory/external-identities/" rel="noopener"><g transform="translate(383.2,-272)"><rect x="0" y="576" width="96" height="80" rx="8" ry="8" class="d"/><text x="16.5" y="603.4" class="e">Azure AD <tspan x="20.38" dy="1.2em" class="f">External </tspan><tspan x="17.27" dy="1.2em" class="f">Identities</tspan></text></g></a><a target="_blank" href="https://docs.microsoft.com/azure/active-directory/devices/enterprise-state-roaming-overview" rel="noopener"><g transform="translate(48,-176)"><rect x="0" y="576" width="96" height="80" rx="8" ry="8" class="d"/><text x="13.38" y="603.4" class="e">Enterprise <tspan x="30.88" dy="1.2em" class="f">State </tspan><tspan x="18.06" dy="1.2em" class="f">Roaming</tspan></text></g></a><a target="_blank" href="https://docs.microsoft.com/azure/active-directory/governance/active-directory-tou" rel="noopener"><g transform="translate(48,-80)"><rect x="0" y="576" width="96" height="80" rx="8" ry="8" class="d"/><text x="18.44" y="611.8" class="e">Terms of <tspan x="35.16" dy="1.2em" class="f">Use</tspan></text></g></a><a target="_blank" href="https://docs.microsoft.com/azure/active-directory/authentication/concept-password-ban-bad" rel="noopener"><g transform="translate(496,-272)"><rect x="0" y="576" width="96" height="80" rx="8" ry="8" class="d"/><text x="16.5" y="603.4" class="e">Azure AD <tspan x="14.93" dy="1.2em" class="f">Password </tspan><tspan x="13.39" dy="1.2em" class="f">Protection</tspan></text></g></a><a target="_blank" href="https://docs.microsoft.com/microsoft-identity-manager/" rel="noopener"><g transform="translate(160,-176)"><rect x="0" y="576" width="96" height="80" rx="8" ry="8" class="d"/><text x="16.5" y="603.4" class="e">Microsoft <tspan x="23.11" dy="1.2em" class="f">Identity </tspan><tspan x="19.21" dy="1.2em" class="f">Manager</tspan></text></g></a><a target="_blank" href="https://docs.microsoft.com/azure/active-directory/conditional-access/controls#custom-controls-preview" rel="noopener"><g transform="translate(160,-80)"><rect x="0" y="576" width="96" height="80" rx="8" ry="8" class="d"/><text x="20.78" y="603.4" class="e">3<tspan dy="-0.235em" class="g">rd </tspan><tspan dy="0.153em" class="f">Party  </tspan><tspan x="32.84" dy="1.2em" class="f">MFA </tspan><tspan x="11.83" dy="1.2em" class="f">Integration</tspan></text></g></a><a target="_blank" href="https://docs.microsoft.com/advanced-threat-analytics/" rel="noopener"><g transform="translate(160,-480)"><rect x="0" y="576" width="96" height="80" rx="8" ry="8" class="h"/><text x="14.55" y="595" class="e">Advanced <tspan x="26.61" dy="1.2em" class="f">Threat </tspan><tspan x="16.88" dy="1.2em" class="f">Analytics </tspan><tspan x="19.22" dy="1.2em" class="f">(retiring)</tspan></text></g></a><a target="_blank" href="https://docs.microsoft.com/mem/intune/fundamentals/what-is-intune" rel="noopener"><g transform="translate(608,-480)"><rect x="0" y="576" width="96" height="80" rx="8" ry="8" class="h"/><text x="8.34" y="611.8" class="e">Intune MDM <tspan x="24.28" dy="1.2em" class="f">&amp; MAM</tspan></text></g></a><a target="_blank" href="https://www.microsoft.com/licensing/product-licensing/client-access-license" rel="noopener"><g transform="translate(160,-384)"><rect x="0" y="576" width="96" height="80" rx="8" ry="8" class="h"/><text x="17.28" y="603.4" class="e">Windows <tspan x="9.87" dy="1.2em" class="f">Server CAL </tspan><tspan x="26.22" dy="1.2em" class="f">Rights</tspan></text></g></a><a target="_blank" href="https://docs.microsoft.com/configmgr/core/understand/introduction" rel="noopener"><g transform="translate(720,-480)"><rect x="0" y="576" width="96" height="80" rx="8" ry="8" class="h"/><text x="16.5" y="595" class="e">Microsoft <tspan x="17.68" dy="1.2em" class="f">Endpoint </tspan><tspan x="25.84" dy="1.2em" class="f">Config </tspan><tspan x="19.21" dy="1.2em" class="f">Manager</tspan></text></g></a><a target="_blank" href="https://docs.microsoft.com/sccm/protect/deploy-use/endpoint-protection" rel="noopener"><g transform="translate(48,-384)"><rect x="0" y="576" width="96" height="80" rx="8" ry="8" class="h"/><text x="23.1" y="595" class="e">System <tspan x="25.83" dy="1.2em" class="f">Center </tspan><tspan x="17.68" dy="1.2em" class="f">Endpoint </tspan><tspan x="13.39" dy="1.2em" class="f">Protection</tspan></text></g></a><a target="_blank" href="https://docs.microsoft.com/azure/information-protection/compare-on-premise" rel="noopener"><g transform="translate(48,-480)"><rect x="0" y="576" width="96" height="80" rx="8" ry="8" class="h"/><text x="26.99" y="603.4" class="e">Active <tspan x="17.27" dy="1.2em" class="f">Directory </tspan><tspan x="32.45" dy="1.2em" class="f">RMS</tspan></text></g></a><a target="_blank" href="https://docs.microsoft.com/azure/information-protection/what-is-azure-rms" rel="noopener"><g transform="translate(272,-480)"><rect x="0" y="576" width="96" height="80" rx="8" ry="8" class="h"/><text x="28.55" y="611.8" class="e">Azure <tspan x="32.45" dy="1.2em" class="f">RMS</tspan></text></g></a><a target="_blank" href="https://docs.microsoft.com/mem/analytics/overview" rel="noopener"><g transform="translate(384,-480)"><rect x="0" y="576" width="96" height="80" rx="8" ry="8" class="h"/><text x="17.68" y="611.8" class="e">Endpoint <tspan x="16.88" dy="1.2em" class="f">Analytics</tspan></text></g></a><a target="_blank" href="https://docs.microsoft.com/azure/information-protection/what-is-information-protection" rel="noopener"><g transform="translate(496,-480)"><rect x="0" y="576" width="96" height="80" rx="8" ry="8" class="h"/><text x="9.5" y="611.8" class="e">Information <tspan x="13.39" dy="1.2em" class="f">Protection</tspan></text></g></a><a target="_blank" href="https://www.microsoft.com/cloud-platform/enterprise-mobility-security" rel="noopener"><g transform="translate(16,-576)"><rect x="0" y="592" width="832" height="64" rx="8" ry="8" class="i"/><text x="260.12" y="618" class="j">Enterprise Mobility + Security E3<tspan x="372.66" dy="1.2em" class="f">(EMS E3)</tspan></text></g></a><a target="_blank" href="https://azure.microsoft.com/pricing/details/active-directory/" rel="noopener"><g transform="translate(30.6444,-32)"><rect x="0" y="608" width="800" height="48" rx="8" ry="8" class="k"/><text x="314.03" y="636.2" class="l">Azure AD Premium Plan 1</text></g></a></g></svg>