<svg xmlns="http://www.w3.org/2000/svg" width="752" height="752" viewBox="0 0 752 752" class="a"><style>
.b {fill:#a5a5a5;fill-opacity:0.2;stroke:#105868;stroke-linecap:round;stroke-linejoin:round;stroke-width:2.25}
.c {fill:#a5a5a5;fill-opacity:0.2;stroke:#0050c0;stroke-dasharray:2.25,4.5;stroke-linecap:round;stroke-linejoin:round;stroke-width:2.25}
.d {fill:#0070f7;stroke:none;stroke-linecap:round;stroke-linejoin:round;stroke-width:0.25}
.e {fill:#ffffff;font-family:Arial;font-size:1.16666em;font-weight:bold}
.f {font-size:1em}
.g {baseline-shift:32.4943%;font-size:0.649886em}
.h {fill:#2080a0;stroke:none;stroke-linecap:round;stroke-linejoin:round;stroke-width:0.25}
.i {fill:#105868;stroke:none;stroke-linecap:round;stroke-linejoin:round;stroke-width:0.25}
.j {fill:#0050c0;stroke:none;stroke-linecap:round;stroke-linejoin:round;stroke-width:0.25}
.k {fill:#ffffff;font-family:Arial;font-size:1.08334em;font-weight:bold}
.l {fill:#105868;stroke:#105868;stroke-linecap:round;stroke-linejoin:round;stroke-width:2.25}
.m {fill:#ffffff;font-family:Arial;font-size:1.66667em;font-weight:bold}
.n {fill:none;stroke:none;stroke-linecap:round;stroke-linejoin:round;stroke-width:2.5}
.o {fill:#000000;font-family:Arial;font-size:1.16666em;font-weight:bold}
.a {fill:none;fill-rule:evenodd;font-size:12px;overflow:visible;stroke-linecap:square;stroke-miterlimit:3}
</style><g><g transform="translate(16,-16)"><rect x="0" y="32" width="720" height="720" rx="8" ry="8" class="b"/></g><g transform="translate(32,-32)"><rect x="0" y="128" width="464" height="624" rx="8" ry="8" class="c"/></g><a target="_blank" href="https://docs.microsoft.com/azure/active-directory/reports-monitoring/" rel="noopener"><g transform="translate(48,-368)"><rect x="0" y="672" width="96" height="80" rx="8" ry="8" class="d"/><text x="14.55" y="691" class="e">Advanced <tspan x="20.38" dy="1.2em" class="f">Security </tspan><tspan x="14.55" dy="1.2em" class="f">Reports &amp; </tspan><tspan x="28.16" dy="1.2em" class="f">Alerts</tspan></text></g></a><a target="_blank" href="https://docs.microsoft.com/azure/active-directory/hybrid/how-to-connect-sso" rel="noopener"><g transform="translate(160,-80)"><rect x="0" y="672" width="96" height="80" rx="8" ry="8" class="d"/><text x="7.17" y="699.4" class="e">Single-Sign-<tspan x="10.28" dy="1.2em" class="f">On to other </tspan><tspan x="30.88" dy="1.2em" class="f">SaaS</tspan></text></g></a><a target="_blank" href="https://docs.microsoft.com/azure/active-directory/manage-apps/application-proxy" rel="noopener"><g transform="translate(160,-368)"><rect x="0" y="672" width="96" height="80" rx="8" ry="8" class="d"/><text x="11.05" y="699.4" class="e">App Proxy, <tspan x="16.89" dy="1.2em" class="f">including </tspan><tspan x="8.31" dy="1.2em" class="f">PingAccess</tspan></text></g></a><a target="_blank" href="https://docs.microsoft.com/azure/active-directory/authentication/concept-mfa-howitworks" rel="noopener"><g transform="translate(160,-176)"><rect x="0" y="672" width="96" height="80" rx="8" ry="8" class="d"/><text x="7.95" y="707.8" class="e">Multi-Factor <tspan x="10.29" dy="1.2em" class="f">Auth (MFA)</tspan></text></g></a><a target="_blank" href="https://docs.microsoft.com/azure/active-directory/hybrid/whatis-azure-ad-connect#what-is-azure-ad-connect-health" rel="noopener"><g transform="translate(272,-368)"><rect x="0" y="672" width="96" height="80" rx="8" ry="8" class="d"/><text x="16.5" y="699.4" class="e">Azure AD <tspan x="20" dy="1.2em" class="f">Connect </tspan><tspan x="26.61" dy="1.2em" class="f">Health</tspan></text></g></a><a target="_blank" href="https://docs.microsoft.com/cloud-app-security/set-up-cloud-discovery" rel="noopener"><g transform="translate(160,-272)"><rect x="0" y="672" width="96" height="80" rx="8" ry="8" class="d"/><text x="12.62" y="707.8" class="e">Cloud App <tspan x="14.54" dy="1.2em" class="f">Discovery</tspan></text></g></a><a target="_blank" href="https://docs.microsoft.com/azure/active-directory/users-groups-roles/users-sharing-accounts" rel="noopener"><g transform="translate(48,-80)"><rect x="0" y="672" width="96" height="80" rx="8" ry="8" class="d"/><text x="24.27" y="691" class="e">Shared <tspan x="20" dy="1.2em" class="f">Account </tspan><tspan x="14.93" dy="1.2em" class="f">Password </tspan><tspan x="16.49" dy="1.2em" class="f">Roll</tspan>-Over</text></g></a><a target="_blank" href="https://docs.microsoft.com/azure/active-directory/authentication/concept-sspr-howitworks" rel="noopener"><g transform="translate(384,-176)"><rect x="0" y="672" width="96" height="80" rx="8" ry="8" class="d"/><text x="7.92" y="699.4" class="e">Self-Service <tspan x="14.93" dy="1.2em" class="f">Password </tspan><tspan x="8.71" dy="1.2em" class="f">Reset in AD</tspan></text></g></a><a target="_blank" href="https://docs.microsoft.com/azure/active-directory/users-groups-roles/groups-self-service-management" rel="noopener"><g transform="translate(272,-176)"><rect x="0" y="672" width="96" height="80" rx="8" ry="8" class="d"/><text x="7.92" y="699.4" class="e">Self-Service <tspan x="27" dy="1.2em" class="f">Group </tspan><tspan x="5.21" dy="1.2em" class="f">Management</tspan></text></g></a><a target="_blank" href="https://docs.microsoft.com/azure/active-directory/conditional-access/overview" rel="noopener"><g transform="translate(272,-272)"><rect x="0" y="672" width="96" height="80" rx="8" ry="8" class="d"/><text x="9.51" y="707.8" class="e">Conditional <tspan x="23.48" dy="1.2em" class="f">Access</tspan></text></g></a><a target="_blank" href="https://docs.microsoft.com/azure/active-directory/external-identities/" rel="noopener"><g transform="translate(383.2,-368)"><rect x="0" y="672" width="96" height="80" rx="8" ry="8" class="d"/><text x="16.5" y="699.4" class="e">Azure AD <tspan x="20.38" dy="1.2em" class="f">External </tspan><tspan x="17.27" dy="1.2em" class="f">Identities</tspan></text></g></a><a target="_blank" href="https://docs.microsoft.com/azure/active-directory/devices/enterprise-state-roaming-overview" rel="noopener"><g transform="translate(384,-272)"><rect x="0" y="672" width="96" height="80" rx="8" ry="8" class="d"/><text x="13.38" y="699.4" class="e">Enterprise <tspan x="30.88" dy="1.2em" class="f">State </tspan><tspan x="18.06" dy="1.2em" class="f">Roaming</tspan></text></g></a><a target="_blank" href="https://docs.microsoft.com/azure/active-directory/governance/active-directory-tou" rel="noopener"><g transform="translate(272,-80)"><rect x="0" y="672" width="96" height="80" rx="8" ry="8" class="d"/><text x="18.44" y="707.8" class="e">Terms of <tspan x="35.16" dy="1.2em" class="f">Use</tspan></text></g></a><a target="_blank" href="https://docs.microsoft.com/azure/active-directory/authentication/concept-password-ban-bad" rel="noopener"><g transform="translate(48,-272)"><rect x="0" y="672" width="96" height="80" rx="8" ry="8" class="d"/><text x="16.5" y="699.4" class="e">Azure AD <tspan x="14.93" dy="1.2em" class="f">Password </tspan><tspan x="13.39" dy="1.2em" class="f">Protection</tspan></text></g></a><a target="_blank" href="https://docs.microsoft.com/microsoft-identity-manager/" rel="noopener"><g transform="translate(48,-176)"><rect x="0" y="672" width="96" height="80" rx="8" ry="8" class="d"/><text x="16.5" y="699.4" class="e">Microsoft <tspan x="23.11" dy="1.2em" class="f">Identity </tspan><tspan x="19.21" dy="1.2em" class="f">Manager</tspan></text></g></a><a target="_blank" href="https://docs.microsoft.com/azure/active-directory/conditional-access/controls#custom-controls-preview" rel="noopener"><g transform="translate(384,-80)"><rect x="0" y="672" width="96" height="80" rx="8" ry="8" class="d"/><text x="20.78" y="699.4" class="e">3<tspan dy="-0.235em" class="g">rd </tspan><tspan dy="0.153em" class="f">Party  </tspan><tspan x="32.84" dy="1.2em" class="f">MFA </tspan><tspan x="11.83" dy="1.2em" class="f">Integration</tspan></text></g></a><a target="_blank" href="https://docs.microsoft.com/advanced-threat-analytics/" rel="noopener"><g transform="translate(512,-368)"><rect x="0" y="672" width="96" height="80" rx="8" ry="8" class="h"/><text x="14.55" y="691" class="e">Advanced <tspan x="26.61" dy="1.2em" class="f">Threat </tspan><tspan x="16.88" dy="1.2em" class="f">Analytics </tspan><tspan x="19.22" dy="1.2em" class="f">(retiring)</tspan></text></g></a><a target="_blank" href="https://docs.microsoft.com/mem/intune/fundamentals/what-is-intune" rel="noopener"><g transform="translate(512,-176)"><rect x="0" y="672" width="96" height="80" rx="8" ry="8" class="h"/><text x="8.34" y="707.8" class="e">Intune MDM <tspan x="24.28" dy="1.2em" class="f">&amp; MAM</tspan></text></g></a><a target="_blank" href="https://www.microsoft.com/licensing/product-licensing/client-access-license" rel="noopener"><g transform="translate(624,-80)"><rect x="0" y="672" width="96" height="80" rx="8" ry="8" class="h"/><text x="17.28" y="699.4" class="e">Windows <tspan x="9.87" dy="1.2em" class="f">Server CAL </tspan><tspan x="26.22" dy="1.2em" class="f">Rights</tspan></text></g></a><a target="_blank" href="https://docs.microsoft.com/configmgr/core/understand/introduction" rel="noopener"><g transform="translate(624,-176)"><rect x="0" y="672" width="96" height="80" rx="8" ry="8" class="h"/><text x="16.5" y="691" class="e">Microsoft <tspan x="17.68" dy="1.2em" class="f">Endpoint </tspan><tspan x="25.84" dy="1.2em" class="f">Config </tspan><tspan x="19.21" dy="1.2em" class="f">Manager</tspan></text></g></a><a target="_blank" href="https://docs.microsoft.com/sccm/protect/deploy-use/endpoint-protection" rel="noopener"><g transform="translate(512,-80)"><rect x="0" y="672" width="96" height="80" rx="8" ry="8" class="h"/><text x="23.1" y="691" class="e">System <tspan x="25.83" dy="1.2em" class="f">Center </tspan><tspan x="17.68" dy="1.2em" class="f">Endpoint </tspan><tspan x="13.39" dy="1.2em" class="f">Protection</tspan></text></g></a><a target="_blank" href="https://docs.microsoft.com/azure/information-protection/compare-on-premise" rel="noopener"><g transform="translate(624,-464)"><rect x="0" y="672" width="96" height="80" rx="8" ry="8" class="h"/><text x="26.99" y="699.4" class="e">Active <tspan x="17.27" dy="1.2em" class="f">Directory </tspan><tspan x="32.45" dy="1.2em" class="f">RMS</tspan></text></g></a><a target="_blank" href="https://docs.microsoft.com/azure/information-protection/what-is-azure-rms" rel="noopener"><g transform="translate(624,-368)"><rect x="0" y="672" width="96" height="80" rx="8" ry="8" class="h"/><text x="28.55" y="707.8" class="e">Azure <tspan x="32.45" dy="1.2em" class="f">RMS</tspan></text></g></a><a target="_blank" href="https://docs.microsoft.com/mem/analytics/overview" rel="noopener"><g transform="translate(512,-272)"><rect x="0" y="672" width="96" height="80" rx="8" ry="8" class="h"/><text x="17.68" y="707.8" class="e">Endpoint <tspan x="16.88" dy="1.2em" class="f">Analytics</tspan></text></g></a><a target="_blank" href="https://docs.microsoft.com/cloud-app-security/what-is-cloud-app-security" rel="noopener"><g transform="translate(624,-560)"><rect x="0" y="672" width="96" height="80" rx="8" ry="8" class="i"/><text x="16.5" y="699.4" class="e">Microsoft <tspan x="12.62" dy="1.2em" class="f">Cloud App </tspan><tspan x="20.38" dy="1.2em" class="f">Security</tspan></text></g></a><a target="_blank" href="https://docs.microsoft.com/defender-for-identity/what-is" rel="noopener"><g transform="translate(512,-560)"><rect x="0" y="672" width="96" height="80" rx="8" ry="8" class="i"/><text x="16.5" y="699.4" class="e">Microsoft <tspan x="6.38" dy="1.2em" class="f">Defender for </tspan><tspan x="23.11" dy="1.2em" class="f">Identity</tspan></text></g></a><a target="_blank" href="https://docs.microsoft.com/azure/active-directory/identity-protection/overview" rel="noopener"><g transform="translate(48,-464)"><rect x="0" y="672" width="96" height="80" rx="8" ry="8" class="j"/><text x="28.55" y="699.4" class="e">Azure <tspan x="23.11" dy="1.2em" class="f">Identity </tspan><tspan x="13.39" dy="1.2em" class="f">Protection</tspan></text></g></a><a target="_blank" href="https://docs.microsoft.com/azure/active-directory/active-directory-privileged-identity-management-configure" rel="noopener"><g transform="translate(272,-464)"><rect x="0" y="672" width="96" height="80" rx="8" ry="8" class="j"/><text x="14.54" y="699.4" class="e">Privileged <tspan x="23.11" dy="1.2em" class="f">Identity </tspan><tspan x="5.21" dy="1.2em" class="f">Management</tspan></text></g></a><a target="_blank" href="https://docs.microsoft.com/azure/active-directory/governance/access-reviews-overview" rel="noopener"><g transform="translate(48,-560)"><rect x="0" y="672" width="96" height="80" rx="8" ry="8" class="j"/><text x="23.48" y="707.8" class="e">Access <tspan x="19.98" dy="1.2em" class="f">Reviews</tspan></text></g></a><a target="_blank" href="https://docs.microsoft.com/azure/active-directory/active-directory-conditional-access-conditions#sign-in-risk" rel="noopener"><g transform="translate(384,-464)"><rect x="0" y="672" width="96" height="80" rx="8" ry="8" class="j"/><text x="9.87" y="699.4" class="e">Risk-Based <tspan x="9.51" dy="1.2em" class="f">Conditional </tspan><tspan x="23.48" dy="1.2em" class="f">Access</tspan></text></g></a><a target="_blank" href="https://docs.microsoft.com/azure/active-directory/governance/entitlement-management-overview" rel="noopener"><g transform="translate(160,-464)"><rect x="0" y="672" width="96" height="80" rx="8" ry="8" class="j"/><text x="9.89" y="707.8" class="e">Entitlement <tspan x="5.21" dy="1.2em" class="f">Management</tspan></text></g></a><a target="_blank" href="https://docs.microsoft.com/azure/information-protection/what-is-information-protection" rel="noopener"><g transform="translate(624,-272)"><rect x="0" y="672" width="96" height="80" rx="8" ry="8" class="h"/><text x="9.5" y="707.8" class="e">Information <tspan x="13.39" dy="1.2em" class="f">Protection</tspan></text></g></a><a target="_blank" href="https://docs.microsoft.com/azure/information-protection/deploy-aip-scanner" rel="noopener"><g transform="translate(512,-464)"><rect x="0" y="672" width="96" height="80" rx="8" ry="8" class="i"/><text x="8.63" y="692.5" class="k">Rules-Based <tspan x="5.74" dy="1.2em" class="f">Classification </tspan><tspan x="8.64" dy="1.2em" class="f">(AIP Client &amp; </tspan><tspan x="20.18" dy="1.2em" class="f">Scanner)</tspan></text></g></a><a target="_blank" href="https://www.microsoft.com/cloud-platform/enterprise-mobility-security" rel="noopener"><g transform="translate(16,-672)"><rect x="0" y="688" width="720" height="64" rx="8" ry="8" class="l"/><text x="204.12" y="714" class="m">Enterprise Mobility + Security E5<tspan x="316.66" dy="1.2em" class="f">(EMS E5)</tspan></text></g></a><a target="_blank" href="https://azure.microsoft.com/pricing/details/active-directory/" rel="noopener"><g transform="translate(32,-32)"><rect x="0" y="704" width="464" height="48" rx="8" ry="8" class="n"/><text x="146.03" y="732.2" class="o">Azure AD Premium Plan 2</text></g></a></g></svg>