<?xml version="1.0" encoding="utf-8" standalone="no"?>
<!DOCTYPE svg PUBLIC "-//W3C//DTD SVG 1.1//EN" "http://www.w3.org/Graphics/SVG/1.1/DTD/svg11.dtd"[]>
<svg xmlns="http://www.w3.org/2000/svg"
xmlns:xlink="http://www.w3.org/1999/xlink"
xmlns:ev="http://www.w3.org/2001/xml-events" width="2.51969in" height="2.51969in" viewBox="0 0 181.417 181.417" xml:space="preserve" color-interpolation-filters="sRGB" class="st9">
<style type="text/css">
<![CDATA[
.st1 {fill:#c0c0c0;fill-opacity:0.5;stroke:none;stroke-linecap:round;stroke-linejoin:round;stroke-width:2.25}
.st2 {fill:#7030a0;stroke:#7030a0;stroke-linecap:round;stroke-linejoin:round;stroke-width:2.25}
.st3 {fill:#2080a0;stroke:#2080a0;stroke-linecap:round;stroke-linejoin:round;stroke-width:2.25}
.st4 {fill:#006600;stroke:#006600;stroke-linecap:round;stroke-linejoin:round;stroke-width:2.25}
.st5 {fill:#e82200;stroke:#e82200;stroke-linecap:round;stroke-linejoin:round;stroke-width:2.25}
.st6 {fill:#d04a00;stroke:#d04a00;stroke-linecap:round;stroke-linejoin:round;stroke-width:2.25}
.st7 {fill:#0050c0;stroke:#0050c0;stroke-linecap:round;stroke-linejoin:round;stroke-width:2.25}
.st8 {fill:#008800;stroke:#008800;stroke-linecap:round;stroke-linejoin:round;stroke-width:2.25}
.st9 {fill:none;fill-rule:evenodd;font-size:12px;overflow:visible;stroke-linecap:square;stroke-miterlimit:3}
]]>
</style>
<g>
<g id="shape1013-1" transform="translate(14.1732,-1.70079)">
<rect x="0" y="4.53544" width="73.7008" height="176.882" rx="8.50394" ry="8.50394" class="st1" />
</g>
<g id="shape1014-3" transform="translate(93.5433,-1.70079)">
<rect x="0" y="4.53544" width="73.7008" height="176.882" rx="8.50394" ry="8.50394" class="st1" />
</g>
<g id="shape1012-5" transform="translate(-2.26772,170.079) rotate(-90)">
<rect x="0" y="4.53544" width="48.1889" height="176.882" rx="8.50394" ry="8.50394" class="st1" />
</g>
<g id="shape1011-7" transform="translate(-2.26772,116.22) rotate(-90)">
<rect x="0" y="4.53544" width="48.1889" height="176.882" rx="8.50394" ry="8.50394" class="st1" />
</g>
<g id="shape1010-9" transform="translate(-1.70079,62.3622) rotate(-90)">
<rect x="0" y="4.53544" width="48.1889" height="176.882" rx="8.50394" ry="8.50394" class="st1" />
</g>
<g id="shape1000-11" transform="translate(14.1732,-172.913)">
<rect x="0" y="175.748" width="73.7008" height="5.66929" rx="2.83465" ry="2.83465" class="st2" />
</g>
<g id="shape1001-13" transform="translate(93.5433,-172.913)">
<rect x="0" y="175.748" width="73.7008" height="5.66929" rx="2.83465" ry="2.83465" class="st2" />
</g>
<g id="shape1002-15" transform="translate(14.1732,-2.83465)">
<rect x="0" y="175.748" width="73.7008" height="5.66929" rx="2.83465" ry="2.83465" class="st2" />
</g>
<g id="shape1003-17" transform="translate(93.5433,-2.83465)">
<rect x="0" y="175.748" width="73.7008" height="5.66929" rx="2.83465" ry="2.83465" class="st2" />
</g>
<g id="shape1004-19" transform="translate(-172.913,116.22) rotate(-90)">
<rect x="0" y="175.748" width="48.1889" height="5.66929" rx="2.83465" ry="2.83465" class="st3" />
</g>
<g id="shape1005-21" transform="translate(-172.913,170.079) rotate(-90)">
<rect x="0" y="175.748" width="48.1889" height="5.66929" rx="2.83465" ry="2.83465" class="st4" />
</g>
<g id="shape1006-23" transform="translate(-172.913,62.3622) rotate(-90)">
<rect x="0" y="175.748" width="48.1889" height="5.66929" rx="2.83465" ry="2.83465" class="st5" />
</g>
<g id="shape1007-25" transform="translate(-2.83465,116.22) rotate(-90)">
<rect x="0" y="175.748" width="48.1889" height="5.66929" rx="2.83465" ry="2.83465" class="st3" />
</g>
<g id="shape1008-27" transform="translate(-2.83465,170.079) rotate(-90)">
<rect x="0" y="175.748" width="48.1889" height="5.66929" rx="2.83465" ry="2.83465" class="st4" />
</g>
<g id="shape1009-29" transform="translate(-2.83465,62.3622) rotate(-90)">
<rect x="0" y="175.748" width="48.1889" height="5.66929" rx="2.83465" ry="2.83465" class="st5" />
</g>
<g id="shape1015-31" transform="translate(-155.906,22.6772) rotate(-90)">
<rect x="0" y="175.748" width="5.66929" height="5.66929" rx="2.83465" ry="2.83465" class="st5" />
</g>
<g id="shape1016-33" transform="translate(-144.567,22.6772) rotate(-90)">
<rect x="0" y="175.748" width="5.66929" height="5.66929" rx="2.83465" ry="2.83465" class="st5" />
</g>
<g id="shape1017-35" transform="translate(-133.228,22.6772) rotate(-90)">
<rect x="0" y="175.748" width="5.66929" height="5.66929" rx="2.83465" ry="2.83465" class="st5" />
</g>
<g id="shape1018-37" transform="translate(-121.89,22.6772) rotate(-90)">
<rect x="0" y="175.748" width="5.66929" height="5.66929" rx="2.83465" ry="2.83465" class="st5" />
</g>
<g id="shape1019-39" transform="translate(-110.551,22.6772) rotate(-90)">
<rect x="0" y="175.748" width="5.66929" height="5.66929" rx="2.83465" ry="2.83465" class="st5" />
</g>
<g id="shape1020-41" transform="translate(-99.2126,22.6772) rotate(-90)">
<rect x="0" y="175.748" width="5.66929" height="5.66929" rx="2.83465" ry="2.83465" class="st5" />
</g>
<g id="shape1021-43" transform="translate(-155.906,34.0158) rotate(-90)">
<rect x="0" y="175.748" width="5.66929" height="5.66929" rx="2.83465" ry="2.83465" class="st5" />
</g>
<g id="shape1022-45" transform="translate(-144.567,34.0158) rotate(-90)">
<rect x="0" y="175.748" width="5.66929" height="5.66929" rx="2.83465" ry="2.83465" class="st5" />
</g>
<g id="shape1023-47" transform="translate(-133.228,34.0158) rotate(-90)">
<rect x="0" y="175.748" width="5.66929" height="5.66929" rx="2.83465" ry="2.83465" class="st5" />
</g>
<g id="shape1024-49" transform="translate(-121.89,34.0158) rotate(-90)">
<rect x="0" y="175.748" width="5.66929" height="5.66929" rx="2.83465" ry="2.83465" class="st5" />
</g>
<g id="shape1025-51" transform="translate(-110.551,34.0158) rotate(-90)">
<rect x="0" y="175.748" width="5.66929" height="5.66929" rx="2.83465" ry="2.83465" class="st5" />
</g>
<g id="shape1026-53" transform="translate(-99.2126,34.0158) rotate(-90)">
<rect x="0" y="175.748" width="5.66929" height="5.66929" rx="2.83465" ry="2.83465" class="st5" />
</g>
<g id="shape1027-55" transform="translate(-155.906,45.3543) rotate(-90)">
<rect x="0" y="175.748" width="5.66929" height="5.66929" rx="2.83465" ry="2.83465" class="st5" />
</g>
<g id="shape1028-57" transform="translate(-144.567,45.3543) rotate(-90)">
<rect x="0" y="175.748" width="5.66929" height="5.66929" rx="2.83465" ry="2.83465" class="st5" />
</g>
<g id="shape1029-59" transform="translate(-133.228,45.3543) rotate(-90)">
<rect x="0" y="175.748" width="5.66929" height="5.66929" rx="2.83465" ry="2.83465" class="st5" />
</g>
<g id="shape1030-61" transform="translate(-121.89,45.3543) rotate(-90)">
<rect x="0" y="175.748" width="5.66929" height="5.66929" rx="2.83465" ry="2.83465" class="st5" />
</g>
<g id="shape1031-63" transform="translate(-110.551,45.3543) rotate(-90)">
<rect x="0" y="175.748" width="5.66929" height="5.66929" rx="2.83465" ry="2.83465" class="st5" />
</g>
<g id="shape1032-65" transform="translate(-99.2126,45.3543) rotate(-90)">
<rect x="0" y="175.748" width="5.66929" height="5.66929" rx="2.83465" ry="2.83465" class="st5" />
</g>
<g id="shape1033-67" transform="translate(-155.906,56.6929) rotate(-90)">
<rect x="0" y="175.748" width="5.66929" height="5.66929" rx="2.83465" ry="2.83465" class="st5" />
</g>
<g id="shape1034-69" transform="translate(-144.567,56.6929) rotate(-90)">
<rect x="0" y="175.748" width="5.66929" height="5.66929" rx="2.83465" ry="2.83465" class="st5" />
</g>
<g id="shape1035-71" transform="translate(-133.228,56.6929) rotate(-90)">
<rect x="0" y="175.748" width="5.66929" height="5.66929" rx="2.83465" ry="2.83465" class="st5" />
</g>
<g id="shape1036-73" transform="translate(-121.89,56.6929) rotate(-90)">
<rect x="0" y="175.748" width="5.66929" height="5.66929" rx="2.83465" ry="2.83465" class="st5" />
</g>
<g id="shape1037-75" transform="translate(-110.551,56.6929) rotate(-90)">
<rect x="0" y="175.748" width="5.66929" height="5.66929" rx="2.83465" ry="2.83465" class="st5" />
</g>
<g id="shape1038-77" transform="translate(-99.2126,56.6929) rotate(-90)">
<rect x="0" y="175.748" width="5.66929" height="5.66929" rx="2.83465" ry="2.83465" class="st5" />
</g>
<g id="shape1039-79" transform="translate(-76.5354,22.6772) rotate(-90)">
<rect x="0" y="175.748" width="5.66929" height="5.66929" rx="2.83465" ry="2.83465" class="st6" />
</g>
<g id="shape1040-81" transform="translate(-65.1969,22.6772) rotate(-90)">
<rect x="0" y="175.748" width="5.66929" height="5.66929" rx="2.83465" ry="2.83465" class="st6" />
</g>
<g id="shape1041-83" transform="translate(-53.8583,22.6772) rotate(-90)">
<rect x="0" y="175.748" width="5.66929" height="5.66929" rx="2.83465" ry="2.83465" class="st6" />
</g>
<g id="shape1042-85" transform="translate(-42.5197,22.6772) rotate(-90)">
<rect x="0" y="175.748" width="5.66929" height="5.66929" rx="2.83465" ry="2.83465" class="st6" />
</g>
<g id="shape1043-87" transform="translate(-31.1811,22.6772) rotate(-90)">
<rect x="0" y="175.748" width="5.66929" height="5.66929" rx="2.83465" ry="2.83465" class="st6" />
</g>
<g id="shape1044-89" transform="translate(-19.8425,22.6772) rotate(-90)">
<rect x="0" y="175.748" width="5.66929" height="5.66929" rx="2.83465" ry="2.83465" class="st6" />
</g>
<g id="shape1045-91" transform="translate(-76.5354,34.0158) rotate(-90)">
<rect x="0" y="175.748" width="5.66929" height="5.66929" rx="2.83465" ry="2.83465" class="st6" />
</g>
<g id="shape1046-93" transform="translate(-65.1969,34.0158) rotate(-90)">
<rect x="0" y="175.748" width="5.66929" height="5.66929" rx="2.83465" ry="2.83465" class="st6" />
</g>
<g id="shape1047-95" transform="translate(-53.8583,34.0158) rotate(-90)">
<rect x="0" y="175.748" width="5.66929" height="5.66929" rx="2.83465" ry="2.83465" class="st6" />
</g>
<g id="shape1048-97" transform="translate(-42.5197,34.0158) rotate(-90)">
<rect x="0" y="175.748" width="5.66929" height="5.66929" rx="2.83465" ry="2.83465" class="st6" />
</g>
<g id="shape1049-99" transform="translate(-31.1811,34.0158) rotate(-90)">
<rect x="0" y="175.748" width="5.66929" height="5.66929" rx="2.83465" ry="2.83465" class="st6" />
</g>
<g id="shape1050-101" transform="translate(-19.8425,34.0158) rotate(-90)">
<rect x="0" y="175.748" width="5.66929" height="5.66929" rx="2.83465" ry="2.83465" class="st6" />
</g>
<g id="shape1051-103" transform="translate(-76.5354,45.3543) rotate(-90)">
<rect x="0" y="175.748" width="5.66929" height="5.66929" rx="2.83465" ry="2.83465" class="st6" />
</g>
<g id="shape1052-105" transform="translate(-65.1969,45.3543) rotate(-90)">
<rect x="0" y="175.748" width="5.66929" height="5.66929" rx="2.83465" ry="2.83465" class="st6" />
</g>
<g id="shape1053-107" transform="translate(-53.8583,45.3543) rotate(-90)">
<rect x="0" y="175.748" width="5.66929" height="5.66929" rx="2.83465" ry="2.83465" class="st6" />
</g>
<g id="shape1054-109" transform="translate(-42.5197,45.3543) rotate(-90)">
<rect x="0" y="175.748" width="5.66929" height="5.66929" rx="2.83465" ry="2.83465" class="st6" />
</g>
<g id="shape1055-111" transform="translate(-31.1811,45.3543) rotate(-90)">
<rect x="0" y="175.748" width="5.66929" height="5.66929" rx="2.83465" ry="2.83465" class="st6" />
</g>
<g id="shape1056-113" transform="translate(-19.8425,45.3543) rotate(-90)">
<rect x="0" y="175.748" width="5.66929" height="5.66929" rx="2.83465" ry="2.83465" class="st6" />
</g>
<g id="shape1057-115" transform="translate(-76.5354,56.6929) rotate(-90)">
<rect x="0" y="175.748" width="5.66929" height="5.66929" rx="2.83465" ry="2.83465" class="st6" />
</g>
<g id="shape1058-117" transform="translate(-65.1969,56.6929) rotate(-90)">
<rect x="0" y="175.748" width="5.66929" height="5.66929" rx="2.83465" ry="2.83465" class="st6" />
</g>
<g id="shape1059-119" transform="translate(-53.8583,56.6929) rotate(-90)">
<rect x="0" y="175.748" width="5.66929" height="5.66929" rx="2.83465" ry="2.83465" class="st6" />
</g>
<g id="shape1060-121" transform="translate(-42.5197,56.6929) rotate(-90)">
<rect x="0" y="175.748" width="5.66929" height="5.66929" rx="2.83465" ry="2.83465" class="st6" />
</g>
<g id="shape1061-123" transform="translate(-31.1811,56.6929) rotate(-90)">
<rect x="0" y="175.748" width="5.66929" height="5.66929" rx="2.83465" ry="2.83465" class="st6" />
</g>
<g id="shape1062-125" transform="translate(-19.8425,56.6929) rotate(-90)">
<rect x="0" y="175.748" width="5.66929" height="5.66929" rx="2.83465" ry="2.83465" class="st6" />
</g>
<g id="shape1063-127" transform="translate(-155.906,76.5354) rotate(-90)">
<rect x="0" y="175.748" width="5.66929" height="5.66929" rx="2.83465" ry="2.83465" class="st7" />
</g>
<g id="shape1064-129" transform="translate(-144.567,76.5354) rotate(-90)">
<rect x="0" y="175.748" width="5.66929" height="5.66929" rx="2.83465" ry="2.83465" class="st7" />
</g>
<g id="shape1065-131" transform="translate(-133.228,76.5354) rotate(-90)">
<rect x="0" y="175.748" width="5.66929" height="5.66929" rx="2.83465" ry="2.83465" class="st7" />
</g>
<g id="shape1066-133" transform="translate(-121.89,76.5354) rotate(-90)">
<rect x="0" y="175.748" width="5.66929" height="5.66929" rx="2.83465" ry="2.83465" class="st7" />
</g>
<g id="shape1067-135" transform="translate(-110.551,76.5354) rotate(-90)">
<rect x="0" y="175.748" width="5.66929" height="5.66929" rx="2.83465" ry="2.83465" class="st7" />
</g>
<g id="shape1068-137" transform="translate(-99.2126,76.5354) rotate(-90)">
<rect x="0" y="175.748" width="5.66929" height="5.66929" rx="2.83465" ry="2.83465" class="st7" />
</g>
<g id="shape1069-139" transform="translate(-155.906,87.874) rotate(-90)">
<rect x="0" y="175.748" width="5.66929" height="5.66929" rx="2.83465" ry="2.83465" class="st7" />
</g>
<g id="shape1070-141" transform="translate(-144.567,87.874) rotate(-90)">
<rect x="0" y="175.748" width="5.66929" height="5.66929" rx="2.83465" ry="2.83465" class="st7" />
</g>
<g id="shape1071-143" transform="translate(-133.228,87.874) rotate(-90)">
<rect x="0" y="175.748" width="5.66929" height="5.66929" rx="2.83465" ry="2.83465" class="st7" />
</g>
<g id="shape1072-145" transform="translate(-121.89,87.874) rotate(-90)">
<rect x="0" y="175.748" width="5.66929" height="5.66929" rx="2.83465" ry="2.83465" class="st7" />
</g>
<g id="shape1073-147" transform="translate(-110.551,87.874) rotate(-90)">
<rect x="0" y="175.748" width="5.66929" height="5.66929" rx="2.83465" ry="2.83465" class="st7" />
</g>
<g id="shape1074-149" transform="translate(-99.2126,87.874) rotate(-90)">
<rect x="0" y="175.748" width="5.66929" height="5.66929" rx="2.83465" ry="2.83465" class="st7" />
</g>
<g id="shape1075-151" transform="translate(-155.906,99.2126) rotate(-90)">
<rect x="0" y="175.748" width="5.66929" height="5.66929" rx="2.83465" ry="2.83465" class="st7" />
</g>
<g id="shape1076-153" transform="translate(-144.567,99.2126) rotate(-90)">
<rect x="0" y="175.748" width="5.66929" height="5.66929" rx="2.83465" ry="2.83465" class="st7" />
</g>
<g id="shape1077-155" transform="translate(-133.228,99.2126) rotate(-90)">
<rect x="0" y="175.748" width="5.66929" height="5.66929" rx="2.83465" ry="2.83465" class="st7" />
</g>
<g id="shape1078-157" transform="translate(-121.89,99.2126) rotate(-90)">
<rect x="0" y="175.748" width="5.66929" height="5.66929" rx="2.83465" ry="2.83465" class="st7" />
</g>
<g id="shape1079-159" transform="translate(-110.551,99.2126) rotate(-90)">
<rect x="0" y="175.748" width="5.66929" height="5.66929" rx="2.83465" ry="2.83465" class="st7" />
</g>
<g id="shape1080-161" transform="translate(-99.2126,99.2126) rotate(-90)">
<rect x="0" y="175.748" width="5.66929" height="5.66929" rx="2.83465" ry="2.83465" class="st7" />
</g>
<g id="shape1081-163" transform="translate(-155.906,110.551) rotate(-90)">
<rect x="0" y="175.748" width="5.66929" height="5.66929" rx="2.83465" ry="2.83465" class="st7" />
</g>
<g id="shape1082-165" transform="translate(-144.567,110.551) rotate(-90)">
<rect x="0" y="175.748" width="5.66929" height="5.66929" rx="2.83465" ry="2.83465" class="st7" />
</g>
<g id="shape1083-167" transform="translate(-133.228,110.551) rotate(-90)">
<rect x="0" y="175.748" width="5.66929" height="5.66929" rx="2.83465" ry="2.83465" class="st7" />
</g>
<g id="shape1084-169" transform="translate(-121.89,110.551) rotate(-90)">
<rect x="0" y="175.748" width="5.66929" height="5.66929" rx="2.83465" ry="2.83465" class="st7" />
</g>
<g id="shape1085-171" transform="translate(-110.551,110.551) rotate(-90)">
<rect x="0" y="175.748" width="5.66929" height="5.66929" rx="2.83465" ry="2.83465" class="st7" />
</g>
<g id="shape1086-173" transform="translate(-99.2126,110.551) rotate(-90)">
<rect x="0" y="175.748" width="5.66929" height="5.66929" rx="2.83465" ry="2.83465" class="st7" />
</g>
<g id="shape1087-175" transform="translate(-76.5354,76.5354) rotate(-90)">
<rect x="0" y="175.748" width="5.66929" height="5.66929" rx="2.83465" ry="2.83465" class="st3" />
</g>
<g id="shape1088-177" transform="translate(-65.1969,76.5354) rotate(-90)">
<rect x="0" y="175.748" width="5.66929" height="5.66929" rx="2.83465" ry="2.83465" class="st3" />
</g>
<g id="shape1089-179" transform="translate(-53.8583,76.5354) rotate(-90)">
<rect x="0" y="175.748" width="5.66929" height="5.66929" rx="2.83465" ry="2.83465" class="st3" />
</g>
<g id="shape1090-181" transform="translate(-42.5197,76.5354) rotate(-90)">
<rect x="0" y="175.748" width="5.66929" height="5.66929" rx="2.83465" ry="2.83465" class="st3" />
</g>
<g id="shape1091-183" transform="translate(-31.1811,76.5354) rotate(-90)">
<rect x="0" y="175.748" width="5.66929" height="5.66929" rx="2.83465" ry="2.83465" class="st3" />
</g>
<g id="shape1092-185" transform="translate(-19.8425,76.5354) rotate(-90)">
<rect x="0" y="175.748" width="5.66929" height="5.66929" rx="2.83465" ry="2.83465" class="st3" />
</g>
<g id="shape1093-187" transform="translate(-76.5354,87.874) rotate(-90)">
<rect x="0" y="175.748" width="5.66929" height="5.66929" rx="2.83465" ry="2.83465" class="st3" />
</g>
<g id="shape1094-189" transform="translate(-65.1969,87.874) rotate(-90)">
<rect x="0" y="175.748" width="5.66929" height="5.66929" rx="2.83465" ry="2.83465" class="st3" />
</g>
<g id="shape1095-191" transform="translate(-53.8583,87.874) rotate(-90)">
<rect x="0" y="175.748" width="5.66929" height="5.66929" rx="2.83465" ry="2.83465" class="st3" />
</g>
<g id="shape1096-193" transform="translate(-42.5197,87.874) rotate(-90)">
<rect x="0" y="175.748" width="5.66929" height="5.66929" rx="2.83465" ry="2.83465" class="st3" />
</g>
<g id="shape1097-195" transform="translate(-31.1811,87.874) rotate(-90)">
<rect x="0" y="175.748" width="5.66929" height="5.66929" rx="2.83465" ry="2.83465" class="st3" />
</g>
<g id="shape1098-197" transform="translate(-19.8425,87.874) rotate(-90)">
<rect x="0" y="175.748" width="5.66929" height="5.66929" rx="2.83465" ry="2.83465" class="st3" />
</g>
<g id="shape1099-199" transform="translate(-76.5354,99.2126) rotate(-90)">
<rect x="0" y="175.748" width="5.66929" height="5.66929" rx="2.83465" ry="2.83465" class="st3" />
</g>
<g id="shape1100-201" transform="translate(-65.1969,99.2126) rotate(-90)">
<rect x="0" y="175.748" width="5.66929" height="5.66929" rx="2.83465" ry="2.83465" class="st3" />
</g>
<g id="shape1101-203" transform="translate(-53.8583,99.2126) rotate(-90)">
<rect x="0" y="175.748" width="5.66929" height="5.66929" rx="2.83465" ry="2.83465" class="st3" />
</g>
<g id="shape1102-205" transform="translate(-42.5197,99.2126) rotate(-90)">
<rect x="0" y="175.748" width="5.66929" height="5.66929" rx="2.83465" ry="2.83465" class="st3" />
</g>
<g id="shape1103-207" transform="translate(-31.1811,99.2126) rotate(-90)">
<rect x="0" y="175.748" width="5.66929" height="5.66929" rx="2.83465" ry="2.83465" class="st3" />
</g>
<g id="shape1104-209" transform="translate(-19.8425,99.2126) rotate(-90)">
<rect x="0" y="175.748" width="5.66929" height="5.66929" rx="2.83465" ry="2.83465" class="st3" />
</g>
<g id="shape1105-211" transform="translate(-76.5354,110.551) rotate(-90)">
<rect x="0" y="175.748" width="5.66929" height="5.66929" rx="2.83465" ry="2.83465" class="st3" />
</g>
<g id="shape1106-213" transform="translate(-65.1969,110.551) rotate(-90)">
<rect x="0" y="175.748" width="5.66929" height="5.66929" rx="2.83465" ry="2.83465" class="st3" />
</g>
<g id="shape1107-215" transform="translate(-53.8583,110.551) rotate(-90)">
<rect x="0" y="175.748" width="5.66929" height="5.66929" rx="2.83465" ry="2.83465" class="st3" />
</g>
<g id="shape1108-217" transform="translate(-42.5197,110.551) rotate(-90)">
<rect x="0" y="175.748" width="5.66929" height="5.66929" rx="2.83465" ry="2.83465" class="st3" />
</g>
<g id="shape1109-219" transform="translate(-31.1811,110.551) rotate(-90)">
<rect x="0" y="175.748" width="5.66929" height="5.66929" rx="2.83465" ry="2.83465" class="st3" />
</g>
<g id="shape1110-221" transform="translate(-19.8425,110.551) rotate(-90)">
<rect x="0" y="175.748" width="5.66929" height="5.66929" rx="2.83465" ry="2.83465" class="st3" />
</g>
<g id="shape1111-223" transform="translate(-155.906,130.394) rotate(-90)">
<rect x="0" y="175.748" width="5.66929" height="5.66929" rx="2.83465" ry="2.83465" class="st8" />
</g>
<g id="shape1112-225" transform="translate(-144.567,130.394) rotate(-90)">
<rect x="0" y="175.748" width="5.66929" height="5.66929" rx="2.83465" ry="2.83465" class="st8" />
</g>
<g id="shape1113-227" transform="translate(-133.228,130.394) rotate(-90)">
<rect x="0" y="175.748" width="5.66929" height="5.66929" rx="2.83465" ry="2.83465" class="st8" />
</g>
<g id="shape1114-229" transform="translate(-121.89,130.394) rotate(-90)">
<rect x="0" y="175.748" width="5.66929" height="5.66929" rx="2.83465" ry="2.83465" class="st8" />
</g>
<g id="shape1115-231" transform="translate(-110.551,130.394) rotate(-90)">
<rect x="0" y="175.748" width="5.66929" height="5.66929" rx="2.83465" ry="2.83465" class="st8" />
</g>
<g id="shape1116-233" transform="translate(-99.2126,130.394) rotate(-90)">
<rect x="0" y="175.748" width="5.66929" height="5.66929" rx="2.83465" ry="2.83465" class="st8" />
</g>
<g id="shape1117-235" transform="translate(-155.906,141.732) rotate(-90)">
<rect x="0" y="175.748" width="5.66929" height="5.66929" rx="2.83465" ry="2.83465" class="st8" />
</g>
<g id="shape1118-237" transform="translate(-144.567,141.732) rotate(-90)">
<rect x="0" y="175.748" width="5.66929" height="5.66929" rx="2.83465" ry="2.83465" class="st8" />
</g>
<g id="shape1119-239" transform="translate(-133.228,141.732) rotate(-90)">
<rect x="0" y="175.748" width="5.66929" height="5.66929" rx="2.83465" ry="2.83465" class="st8" />
</g>
<g id="shape1120-241" transform="translate(-121.89,141.732) rotate(-90)">
<rect x="0" y="175.748" width="5.66929" height="5.66929" rx="2.83465" ry="2.83465" class="st8" />
</g>
<g id="shape1121-243" transform="translate(-110.551,141.732) rotate(-90)">
<rect x="0" y="175.748" width="5.66929" height="5.66929" rx="2.83465" ry="2.83465" class="st8" />
</g>
<g id="shape1122-245" transform="translate(-99.2126,141.732) rotate(-90)">
<rect x="0" y="175.748" width="5.66929" height="5.66929" rx="2.83465" ry="2.83465" class="st8" />
</g>
<g id="shape1123-247" transform="translate(-155.906,153.071) rotate(-90)">
<rect x="0" y="175.748" width="5.66929" height="5.66929" rx="2.83465" ry="2.83465" class="st8" />
</g>
<g id="shape1124-249" transform="translate(-144.567,153.071) rotate(-90)">
<rect x="0" y="175.748" width="5.66929" height="5.66929" rx="2.83465" ry="2.83465" class="st8" />
</g>
<g id="shape1125-251" transform="translate(-133.228,153.071) rotate(-90)">
<rect x="0" y="175.748" width="5.66929" height="5.66929" rx="2.83465" ry="2.83465" class="st8" />
</g>
<g id="shape1126-253" transform="translate(-121.89,153.071) rotate(-90)">
<rect x="0" y="175.748" width="5.66929" height="5.66929" rx="2.83465" ry="2.83465" class="st8" />
</g>
<g id="shape1127-255" transform="translate(-110.551,153.071) rotate(-90)">
<rect x="0" y="175.748" width="5.66929" height="5.66929" rx="2.83465" ry="2.83465" class="st8" />
</g>
<g id="shape1128-257" transform="translate(-99.2126,153.071) rotate(-90)">
<rect x="0" y="175.748" width="5.66929" height="5.66929" rx="2.83465" ry="2.83465" class="st8" />
</g>
<g id="shape1129-259" transform="translate(-155.906,164.409) rotate(-90)">
<rect x="0" y="175.748" width="5.66929" height="5.66929" rx="2.83465" ry="2.83465" class="st8" />
</g>
<g id="shape1130-261" transform="translate(-144.567,164.409) rotate(-90)">
<rect x="0" y="175.748" width="5.66929" height="5.66929" rx="2.83465" ry="2.83465" class="st8" />
</g>
<g id="shape1131-263" transform="translate(-133.228,164.409) rotate(-90)">
<rect x="0" y="175.748" width="5.66929" height="5.66929" rx="2.83465" ry="2.83465" class="st8" />
</g>
<g id="shape1132-265" transform="translate(-121.89,164.409) rotate(-90)">
<rect x="0" y="175.748" width="5.66929" height="5.66929" rx="2.83465" ry="2.83465" class="st8" />
</g>
<g id="shape1133-267" transform="translate(-110.551,164.409) rotate(-90)">
<rect x="0" y="175.748" width="5.66929" height="5.66929" rx="2.83465" ry="2.83465" class="st8" />
</g>
<g id="shape1134-269" transform="translate(-99.2126,164.409) rotate(-90)">
<rect x="0" y="175.748" width="5.66929" height="5.66929" rx="2.83465" ry="2.83465" class="st8" />
</g>
<g id="shape1135-271" transform="translate(-76.5354,130.394) rotate(-90)">
<rect x="0" y="175.748" width="5.66929" height="5.66929" rx="2.83465" ry="2.83465" class="st4" />
</g>
<g id="shape1136-273" transform="translate(-65.1969,130.394) rotate(-90)">
<rect x="0" y="175.748" width="5.66929" height="5.66929" rx="2.83465" ry="2.83465" class="st4" />
</g>
<g id="shape1137-275" transform="translate(-53.8583,130.394) rotate(-90)">
<rect x="0" y="175.748" width="5.66929" height="5.66929" rx="2.83465" ry="2.83465" class="st4" />
</g>
<g id="shape1138-277" transform="translate(-42.5197,130.394) rotate(-90)">
<rect x="0" y="175.748" width="5.66929" height="5.66929" rx="2.83465" ry="2.83465" class="st4" />
</g>
<g id="shape1139-279" transform="translate(-31.1811,130.394) rotate(-90)">
<rect x="0" y="175.748" width="5.66929" height="5.66929" rx="2.83465" ry="2.83465" class="st4" />
</g>
<g id="shape1140-281" transform="translate(-19.8425,130.394) rotate(-90)">
<rect x="0" y="175.748" width="5.66929" height="5.66929" rx="2.83465" ry="2.83465" class="st4" />
</g>
<g id="shape1141-283" transform="translate(-76.5354,141.732) rotate(-90)">
<rect x="0" y="175.748" width="5.66929" height="5.66929" rx="2.83465" ry="2.83465" class="st4" />
</g>
<g id="shape1142-285" transform="translate(-65.1969,141.732) rotate(-90)">
<rect x="0" y="175.748" width="5.66929" height="5.66929" rx="2.83465" ry="2.83465" class="st4" />
</g>
<g id="shape1143-287" transform="translate(-53.8583,141.732) rotate(-90)">
<rect x="0" y="175.748" width="5.66929" height="5.66929" rx="2.83465" ry="2.83465" class="st4" />
</g>
<g id="shape1144-289" transform="translate(-42.5197,141.732) rotate(-90)">
<rect x="0" y="175.748" width="5.66929" height="5.66929" rx="2.83465" ry="2.83465" class="st4" />
</g>
<g id="shape1145-291" transform="translate(-31.1811,141.732) rotate(-90)">
<rect x="0" y="175.748" width="5.66929" height="5.66929" rx="2.83465" ry="2.83465" class="st4" />
</g>
<g id="shape1146-293" transform="translate(-19.8425,141.732) rotate(-90)">
<rect x="0" y="175.748" width="5.66929" height="5.66929" rx="2.83465" ry="2.83465" class="st4" />
</g>
<g id="shape1147-295" transform="translate(-76.5354,153.071) rotate(-90)">
<rect x="0" y="175.748" width="5.66929" height="5.66929" rx="2.83465" ry="2.83465" class="st4" />
</g>
<g id="shape1148-297" transform="translate(-65.1969,153.071) rotate(-90)">
<rect x="0" y="175.748" width="5.66929" height="5.66929" rx="2.83465" ry="2.83465" class="st4" />
</g>
<g id="shape1149-299" transform="translate(-53.8583,153.071) rotate(-90)">
<rect x="0" y="175.748" width="5.66929" height="5.66929" rx="2.83465" ry="2.83465" class="st4" />
</g>
<g id="shape1150-301" transform="translate(-42.5197,153.071) rotate(-90)">
<rect x="0" y="175.748" width="5.66929" height="5.66929" rx="2.83465" ry="2.83465" class="st4" />
</g>
<g id="shape1151-303" transform="translate(-31.1811,153.071) rotate(-90)">
<rect x="0" y="175.748" width="5.66929" height="5.66929" rx="2.83465" ry="2.83465" class="st4" />
</g>
<g id="shape1152-305" transform="translate(-19.8425,153.071) rotate(-90)">
<rect x="0" y="175.748" width="5.66929" height="5.66929" rx="2.83465" ry="2.83465" class="st4" />
</g>
<g id="shape1153-307" transform="translate(-76.5354,164.409) rotate(-90)">
<rect x="0" y="175.748" width="5.66929" height="5.66929" rx="2.83465" ry="2.83465" class="st4" />
</g>
<g id="shape1154-309" transform="translate(-65.1969,164.409) rotate(-90)">
<rect x="0" y="175.748" width="5.66929" height="5.66929" rx="2.83465" ry="2.83465" class="st4" />
</g>
<g id="shape1155-311" transform="translate(-53.8583,164.409) rotate(-90)">
<rect x="0" y="175.748" width="5.66929" height="5.66929" rx="2.83465" ry="2.83465" class="st4" />
</g>
<g id="shape1156-313" transform="translate(-42.5197,164.409) rotate(-90)">
<rect x="0" y="175.748" width="5.66929" height="5.66929" rx="2.83465" ry="2.83465" class="st4" />
</g>
<g id="shape1157-315" transform="translate(-31.1811,164.409) rotate(-90)">
<rect x="0" y="175.748" width="5.66929" height="5.66929" rx="2.83465" ry="2.83465" class="st4" />
</g>
<g id="shape1158-317" transform="translate(-19.8425,164.409) rotate(-90)">
<rect x="0" y="175.748" width="5.66929" height="5.66929" rx="2.83465" ry="2.83465" class="st4" />
</g>
</g>
</svg>