<?xml version="1.0" encoding="utf-8" standalone="no"?><!DOCTYPE svg PUBLIC "-//W3C//DTD SVG 1.1//EN" "http://www.w3.org/Graphics/SVG/1.1/DTD/svg11.dtd"[]><svg xmlns="http://www.w3.org/2000/svg" xmlns:xlink="http://www.w3.org/1999/xlink" xmlns:ev="http://www.w3.org/2001/xml-events" width="7.87402in" height="7.87402in" viewBox="0 0 566.929 566.929" color-interpolation-filters="sRGB" class="st14"><style type="text/css"><![CDATA[
.st1 {fill:#c0c0c0;fill-opacity:0.5;stroke:none;stroke-linecap:round;stroke-linejoin:round;stroke-width:0.75}
.st2 {fill:#7030a0;stroke:none;stroke-linecap:round;stroke-linejoin:round;stroke-width:2.25}
.st3 {fill:#ffffff;font-family:Arial;font-size:0.666664em}
.st4 {fill:#2080a0;stroke:none;stroke-linecap:round;stroke-linejoin:round;stroke-width:2.25}
.st5 {fill:#006600;stroke:none;stroke-linecap:round;stroke-linejoin:round;stroke-width:2.25}
.st6 {fill:#e82200;stroke:none;stroke-linecap:round;stroke-linejoin:round;stroke-width:2.25}
.st7 {fill:#d04a00;stroke:none;stroke-linecap:round;stroke-linejoin:round;stroke-width:2.25}
.st8 {fill:#0050c0;stroke:none;stroke-linecap:round;stroke-linejoin:round;stroke-width:2.25}
.st9 {fill:#008800;stroke:none;stroke-linecap:round;stroke-linejoin:round;stroke-width:2.25}
.st10 {fill:#504060;stroke:none;stroke-linecap:round;stroke-linejoin:round;stroke-width:2.25}
.st11 {stroke:#e82200;stroke-dasharray:2.25,4.5;stroke-linecap:round;stroke-linejoin:round;stroke-width:2.25}
.st12 {stroke:#2080a0;stroke-dasharray:2.25,4.5;stroke-linecap:round;stroke-linejoin:round;stroke-width:2.25}
.st13 {stroke:#006600;stroke-dasharray:2.25,4.5;stroke-linecap:round;stroke-linejoin:round;stroke-width:2.25}
.st14 {fill:none;fill-rule:evenodd;font-size:12px;overflow:visible;stroke-linecap:square;stroke-miterlimit:3}
]]></style><g><g transform="translate(297.638,-7.08661)"><rect x="0" y="14.1732" width="226.772" height="552.756" class="st1" /></g><g transform="translate(42.5197,-7.08661)"><rect x="0" y="14.1732" width="226.772" height="552.756" class="st1" /></g><g transform="translate(7.08661,-28.3465)"><rect x="0" y="418.11" width="552.756" height="148.819" class="st1" /></g><g transform="translate(7.08661,-191.339)"><rect x="0" y="418.11" width="552.756" height="148.819" class="st1" /></g><g transform="translate(7.08661,-354.331)"><rect x="0" y="418.11" width="552.756" height="148.819" class="st1" /></g><g transform="translate(42.5197,-545.669)"><rect x="0" y="545.669" width="226.772" height="21.2599" rx="8.50394" ry="8.50394" class="st2" /><text x="89.38" y="558.7" class="st3">Microsoft 365</text></g><g transform="translate(297.638,-545.669)"><rect x="0" y="545.669" width="226.772" height="21.2599" rx="8.50394" ry="8.50394" class="st2" /><text x="89.38" y="558.7" class="st3">Microsoft 365</text></g><g transform="translate(42.5197,0)"><rect x="0" y="545.669" width="226.772" height="21.2599" rx="8.50394" ry="8.50394" class="st2" /><text x="89.38" y="558.7" class="st3">Microsoft 365</text></g><g transform="translate(297.638,0)"><rect x="0" y="545.669" width="226.772" height="21.2599" rx="8.50394" ry="8.50394" class="st2" /><text x="89.38" y="558.7" class="st3">Microsoft 365</text></g><g transform="translate(-545.669,375.591) rotate(-90)"><rect x="0" y="545.669" width="148.819" height="21.2598" rx="8.50394" ry="8.50394" class="st4" /><text x="65.74" y="558.7" class="st3">EMS</text></g><g transform="translate(-545.669,538.583) rotate(-90)"><rect x="0" y="545.669" width="148.819" height="21.2598" rx="8.50394" ry="8.50394" class="st5" /><text x="58.18" y="558.7" class="st3">Windows</text></g><g transform="translate(-545.669,212.598) rotate(-90)"><rect x="0" y="545.669" width="148.819" height="21.2598" rx="8.50394" ry="8.50394" class="st6" /><text x="56.18" y="558.7" class="st3">Office 365</text></g><g transform="translate(0,375.591) rotate(-90)"><rect x="0" y="545.669" width="148.819" height="21.2598" rx="8.50394" ry="8.50394" class="st4" /><text x="65.74" y="558.7" class="st3">EMS</text></g><g transform="translate(0,538.583) rotate(-90)"><rect x="0" y="545.669" width="148.819" height="21.2598" rx="8.50394" ry="8.50394" class="st5" /><text x="58.18" y="558.7" class="st3">Windows</text></g><g transform="translate(0,212.598) rotate(-90)"><rect x="0" y="545.669" width="148.819" height="21.2598" rx="8.50394" ry="8.50394" class="st6" /><text x="56.18" y="558.7" class="st3">Office 365</text></g><g transform="translate(-481.89,99.2126) rotate(-90)"><rect x="0" y="538.583" width="28.3465" height="28.3465" rx="8.50394" ry="8.50394" class="st6" /></g><g transform="translate(-447.874,99.2126) rotate(-90)"><rect x="0" y="538.583" width="28.3465" height="28.3465" rx="8.50394" ry="8.50394" class="st6" /></g><g transform="translate(-413.858,99.2126) rotate(-90)"><rect x="0" y="538.583" width="28.3465" height="28.3465" rx="8.50394" ry="8.50394" class="st6" /></g><g transform="translate(-379.843,99.2126) rotate(-90)"><rect x="0" y="538.583" width="28.3465" height="28.3465" rx="8.50394" ry="8.50394" class="st6" /></g><g transform="translate(-345.827,99.2126) rotate(-90)"><rect x="0" y="538.583" width="28.3465" height="28.3465" rx="8.50394" ry="8.50394" class="st6" /></g><g transform="translate(-311.811,99.2126) rotate(-90)"><rect x="0" y="538.583" width="28.3465" height="28.3465" rx="8.50394" ry="8.50394" class="st6" /></g><g transform="translate(-481.89,134.646) rotate(-90)"><rect x="0" y="538.583" width="28.3465" height="28.3465" rx="8.50394" ry="8.50394" class="st6" /></g><g transform="translate(-447.874,134.646) rotate(-90)"><rect x="0" y="538.583" width="28.3465" height="28.3465" rx="8.50394" ry="8.50394" class="st6" /></g><g transform="translate(-413.858,134.646) rotate(-90)"><rect x="0" y="538.583" width="28.3465" height="28.3465" rx="8.50394" ry="8.50394" class="st6" /></g><g transform="translate(-379.843,134.646) rotate(-90)"><rect x="0" y="538.583" width="28.3465" height="28.3465" rx="8.50394" ry="8.50394" class="st6" /></g><g transform="translate(-345.827,134.646) rotate(-90)"><rect x="0" y="538.583" width="28.3465" height="28.3465" rx="8.50394" ry="8.50394" class="st6" /></g><g transform="translate(-311.811,134.646) rotate(-90)"><rect x="0" y="538.583" width="28.3465" height="28.3465" rx="8.50394" ry="8.50394" class="st6" /></g><g transform="translate(-481.89,170.079) rotate(-90)"><rect x="0" y="538.583" width="28.3465" height="28.3465" rx="8.50394" ry="8.50394" class="st6" /></g><g transform="translate(-447.874,170.079) rotate(-90)"><rect x="0" y="538.583" width="28.3465" height="28.3465" rx="8.50394" ry="8.50394" class="st6" /></g><g transform="translate(-413.858,170.079) rotate(-90)"><rect x="0" y="538.583" width="28.3465" height="28.3465" rx="8.50394" ry="8.50394" class="st6" /></g><g transform="translate(-379.843,170.079) rotate(-90)"><rect x="0" y="538.583" width="28.3465" height="28.3465" rx="8.50394" ry="8.50394" class="st6" /></g><g transform="translate(-345.827,170.079) rotate(-90)"><rect x="0" y="538.583" width="28.3465" height="28.3465" rx="8.50394" ry="8.50394" class="st6" /></g><g transform="translate(-311.811,170.079) rotate(-90)"><rect x="0" y="538.583" width="28.3465" height="28.3465" rx="8.50394" ry="8.50394" class="st6" /></g><g transform="translate(-481.89,205.512) rotate(-90)"><rect x="0" y="538.583" width="28.3465" height="28.3465" rx="8.50394" ry="8.50394" class="st6" /></g><g transform="translate(-447.874,205.512) rotate(-90)"><rect x="0" y="538.583" width="28.3465" height="28.3465" rx="8.50394" ry="8.50394" class="st6" /></g><g transform="translate(-413.858,205.512) rotate(-90)"><rect x="0" y="538.583" width="28.3465" height="28.3465" rx="8.50394" ry="8.50394" class="st6" /></g><g transform="translate(-379.843,205.512) rotate(-90)"><rect x="0" y="538.583" width="28.3465" height="28.3465" rx="8.50394" ry="8.50394" class="st6" /></g><g transform="translate(-345.827,205.512) rotate(-90)"><rect x="0" y="538.583" width="28.3465" height="28.3465" rx="8.50394" ry="8.50394" class="st6" /></g><g transform="translate(-226.772,99.2126) rotate(-90)"><rect x="0" y="538.583" width="28.3465" height="28.3465" rx="8.50394" ry="8.50394" class="st7" /></g><g transform="translate(-192.756,99.2126) rotate(-90)"><rect x="0" y="538.583" width="28.3465" height="28.3465" rx="8.50394" ry="8.50394" class="st7" /></g><g transform="translate(-158.74,99.2126) rotate(-90)"><rect x="0" y="538.583" width="28.3465" height="28.3465" rx="8.50394" ry="8.50394" class="st7" /></g><g transform="translate(-124.724,99.2126) rotate(-90)"><rect x="0" y="538.583" width="28.3465" height="28.3465" rx="8.50394" ry="8.50394" class="st7" /></g><g transform="translate(-90.7087,99.2126) rotate(-90)"><rect x="0" y="538.583" width="28.3465" height="28.3465" rx="8.50394" ry="8.50394" class="st7" /></g><g transform="translate(-56.6929,99.2126) rotate(-90)"><rect x="0" y="538.583" width="28.3465" height="28.3465" rx="8.50394" ry="8.50394" class="st7" /></g><g transform="translate(-226.772,134.646) rotate(-90)"><rect x="0" y="538.583" width="28.3465" height="28.3465" rx="8.50394" ry="8.50394" class="st7" /></g><g transform="translate(-192.756,134.646) rotate(-90)"><rect x="0" y="538.583" width="28.3465" height="28.3465" rx="8.50394" ry="8.50394" class="st7" /></g><g transform="translate(-158.74,134.646) rotate(-90)"><rect x="0" y="538.583" width="28.3465" height="28.3465" rx="8.50394" ry="8.50394" class="st7" /></g><g transform="translate(-124.724,134.646) rotate(-90)"><rect x="0" y="538.583" width="28.3465" height="28.3465" rx="8.50394" ry="8.50394" class="st7" /></g><g transform="translate(-90.7087,134.646) rotate(-90)"><rect x="0" y="538.583" width="28.3465" height="28.3465" rx="8.50394" ry="8.50394" class="st7" /></g><g transform="translate(-56.6929,134.646) rotate(-90)"><rect x="0" y="538.583" width="28.3465" height="28.3465" rx="8.50394" ry="8.50394" class="st7" /></g><g transform="translate(-226.772,170.079) rotate(-90)"><rect x="0" y="538.583" width="28.3465" height="28.3465" rx="8.50394" ry="8.50394" class="st7" /></g><g transform="translate(-192.756,170.079) rotate(-90)"><rect x="0" y="538.583" width="28.3465" height="28.3465" rx="8.50394" ry="8.50394" class="st7" /></g><g transform="translate(-158.74,170.079) rotate(-90)"><rect x="0" y="538.583" width="28.3465" height="28.3465" rx="8.50394" ry="8.50394" class="st7" /></g><g transform="translate(-124.724,170.079) rotate(-90)"><rect x="0" y="538.583" width="28.3465" height="28.3465" rx="8.50394" ry="8.50394" class="st7" /></g><g transform="translate(-90.7087,170.079) rotate(-90)"><rect x="0" y="538.583" width="28.3465" height="28.3465" rx="8.50394" ry="8.50394" class="st7" /></g><g transform="translate(-56.6929,170.079) rotate(-90)"><rect x="0" y="538.583" width="28.3465" height="28.3465" rx="8.50394" ry="8.50394" class="st7" /></g><g transform="translate(-226.772,205.512) rotate(-90)"><rect x="0" y="538.583" width="28.3465" height="28.3465" rx="8.50394" ry="8.50394" class="st7" /></g><g transform="translate(-192.756,205.512) rotate(-90)"><rect x="0" y="538.583" width="28.3465" height="28.3465" rx="8.50394" ry="8.50394" class="st7" /></g><g transform="translate(-158.74,205.512) rotate(-90)"><rect x="0" y="538.583" width="28.3465" height="28.3465" rx="8.50394" ry="8.50394" class="st7" /></g><g transform="translate(-124.724,205.512) rotate(-90)"><rect x="0" y="538.583" width="28.3465" height="28.3465" rx="8.50394" ry="8.50394" class="st7" /></g><g transform="translate(-56.6929,205.512) rotate(-90)"><rect x="0" y="538.583" width="28.3465" height="28.3465" rx="8.50394" ry="8.50394" class="st7" /></g><g transform="translate(-481.89,262.205) rotate(-90)"><rect x="0" y="538.583" width="28.3465" height="28.3465" rx="8.50394" ry="8.50394" class="st8" /></g><g transform="translate(-447.874,262.205) rotate(-90)"><rect x="0" y="538.583" width="28.3465" height="28.3465" rx="8.50394" ry="8.50394" class="st8" /></g><g transform="translate(-413.858,262.205) rotate(-90)"><rect x="0" y="538.583" width="28.3465" height="28.3465" rx="8.50394" ry="8.50394" class="st8" /></g><g transform="translate(-379.843,262.205) rotate(-90)"><rect x="0" y="538.583" width="28.3465" height="28.3465" rx="8.50394" ry="8.50394" class="st8" /></g><g transform="translate(-345.827,262.205) rotate(-90)"><rect x="0" y="538.583" width="28.3465" height="28.3465" rx="8.50394" ry="8.50394" class="st8" /></g><g transform="translate(-311.811,262.205) rotate(-90)"><rect x="0" y="538.583" width="28.3465" height="28.3465" rx="8.50394" ry="8.50394" class="st8" /></g><g transform="translate(-481.89,297.638) rotate(-90)"><rect x="0" y="538.583" width="28.3465" height="28.3465" rx="8.50394" ry="8.50394" class="st8" /></g><g transform="translate(-447.874,297.638) rotate(-90)"><rect x="0" y="538.583" width="28.3465" height="28.3465" rx="8.50394" ry="8.50394" class="st8" /></g><g transform="translate(-413.858,297.638) rotate(-90)"><rect x="0" y="538.583" width="28.3465" height="28.3465" rx="8.50394" ry="8.50394" class="st8" /></g><g transform="translate(-379.843,297.638) rotate(-90)"><rect x="0" y="538.583" width="28.3465" height="28.3465" rx="8.50394" ry="8.50394" class="st8" /></g><g transform="translate(-345.827,297.638) rotate(-90)"><rect x="0" y="538.583" width="28.3465" height="28.3465" rx="8.50394" ry="8.50394" class="st8" /></g><g transform="translate(-311.811,297.638) rotate(-90)"><rect x="0" y="538.583" width="28.3465" height="28.3465" rx="8.50394" ry="8.50394" class="st8" /></g><g transform="translate(-481.89,333.071) rotate(-90)"><rect x="0" y="538.583" width="28.3465" height="28.3465" rx="8.50394" ry="8.50394" class="st8" /></g><g transform="translate(-447.874,333.071) rotate(-90)"><rect x="0" y="538.583" width="28.3465" height="28.3465" rx="8.50394" ry="8.50394" class="st8" /></g><g transform="translate(-413.858,333.071) rotate(-90)"><rect x="0" y="538.583" width="28.3465" height="28.3465" rx="8.50394" ry="8.50394" class="st8" /></g><g transform="translate(-379.843,333.071) rotate(-90)"><rect x="0" y="538.583" width="28.3465" height="28.3465" rx="8.50394" ry="8.50394" class="st8" /></g><g transform="translate(-345.827,333.071) rotate(-90)"><rect x="0" y="538.583" width="28.3465" height="28.3465" rx="8.50394" ry="8.50394" class="st8" /></g><g transform="translate(-311.811,333.071) rotate(-90)"><rect x="0" y="538.583" width="28.3465" height="28.3465" rx="8.50394" ry="8.50394" class="st8" /></g><g transform="translate(-481.89,368.504) rotate(-90)"><rect x="0" y="538.583" width="28.3465" height="28.3465" rx="8.50394" ry="8.50394" class="st8" /></g><g transform="translate(-447.874,368.504) rotate(-90)"><rect x="0" y="538.583" width="28.3465" height="28.3465" rx="8.50394" ry="8.50394" class="st8" /></g><g transform="translate(-413.858,368.504) rotate(-90)"><rect x="0" y="538.583" width="28.3465" height="28.3465" rx="8.50394" ry="8.50394" class="st8" /></g><g transform="translate(-379.843,368.504) rotate(-90)"><rect x="0" y="538.583" width="28.3465" height="28.3465" rx="8.50394" ry="8.50394" class="st8" /></g><g transform="translate(-226.772,262.205) rotate(-90)"><rect x="0" y="538.583" width="28.3465" height="28.3465" rx="8.50394" ry="8.50394" class="st4" /></g><g transform="translate(-192.756,262.205) rotate(-90)"><rect x="0" y="538.583" width="28.3465" height="28.3465" rx="8.50394" ry="8.50394" class="st4" /></g><g transform="translate(-158.74,262.205) rotate(-90)"><rect x="0" y="538.583" width="28.3465" height="28.3465" rx="8.50394" ry="8.50394" class="st4" /></g><g transform="translate(-124.724,262.205) rotate(-90)"><rect x="0" y="538.583" width="28.3465" height="28.3465" rx="8.50394" ry="8.50394" class="st4" /></g><g transform="translate(-226.772,297.638) rotate(-90)"><rect x="0" y="538.583" width="28.3465" height="28.3465" rx="8.50394" ry="8.50394" class="st4" /></g><g transform="translate(-192.756,297.638) rotate(-90)"><rect x="0" y="538.583" width="28.3465" height="28.3465" rx="8.50394" ry="8.50394" class="st4" /></g><g transform="translate(-158.74,297.638) rotate(-90)"><rect x="0" y="538.583" width="28.3465" height="28.3465" rx="8.50394" ry="8.50394" class="st4" /></g><g transform="translate(-124.724,297.638) rotate(-90)"><rect x="0" y="538.583" width="28.3465" height="28.3465" rx="8.50394" ry="8.50394" class="st4" /></g><g transform="translate(-226.772,333.071) rotate(-90)"><rect x="0" y="538.583" width="28.3465" height="28.3465" rx="8.50394" ry="8.50394" class="st4" /></g><g transform="translate(-192.756,333.071) rotate(-90)"><rect x="0" y="538.583" width="28.3465" height="28.3465" rx="8.50394" ry="8.50394" class="st4" /></g><g transform="translate(-158.74,333.071) rotate(-90)"><rect x="0" y="538.583" width="28.3465" height="28.3465" rx="8.50394" ry="8.50394" class="st4" /></g><g transform="translate(-481.89,425.197) rotate(-90)"><rect x="0" y="538.583" width="28.3465" height="28.3465" rx="8.50394" ry="8.50394" class="st9" /></g><g transform="translate(-447.874,425.197) rotate(-90)"><rect x="0" y="538.583" width="28.3465" height="28.3465" rx="8.50394" ry="8.50394" class="st9" /></g><g transform="translate(-413.858,425.197) rotate(-90)"><rect x="0" y="538.583" width="28.3465" height="28.3465" rx="8.50394" ry="8.50394" class="st9" /></g><g transform="translate(-379.843,425.197) rotate(-90)"><rect x="0" y="538.583" width="28.3465" height="28.3465" rx="8.50394" ry="8.50394" class="st9" /></g><g transform="translate(-345.827,425.197) rotate(-90)"><rect x="0" y="538.583" width="28.3465" height="28.3465" rx="8.50394" ry="8.50394" class="st9" /></g><g transform="translate(-311.811,425.197) rotate(-90)"><rect x="0" y="538.583" width="28.3465" height="28.3465" rx="8.50394" ry="8.50394" class="st9" /></g><g transform="translate(-481.89,460.63) rotate(-90)"><rect x="0" y="538.583" width="28.3465" height="28.3465" rx="8.50394" ry="8.50394" class="st9" /></g><g transform="translate(-447.874,460.63) rotate(-90)"><rect x="0" y="538.583" width="28.3465" height="28.3465" rx="8.50394" ry="8.50394" class="st9" /></g><g transform="translate(-413.858,460.63) rotate(-90)"><rect x="0" y="538.583" width="28.3465" height="28.3465" rx="8.50394" ry="8.50394" class="st9" /></g><g transform="translate(-379.843,460.63) rotate(-90)"><rect x="0" y="538.583" width="28.3465" height="28.3465" rx="8.50394" ry="8.50394" class="st9" /></g><g transform="translate(-345.827,460.63) rotate(-90)"><rect x="0" y="538.583" width="28.3465" height="28.3465" rx="8.50394" ry="8.50394" class="st9" /></g><g transform="translate(-311.811,460.63) rotate(-90)"><rect x="0" y="538.583" width="28.3465" height="28.3465" rx="8.50394" ry="8.50394" class="st9" /></g><g transform="translate(-481.89,496.063) rotate(-90)"><rect x="0" y="538.583" width="28.3465" height="28.3465" rx="8.50394" ry="8.50394" class="st9" /></g><g transform="translate(-447.874,496.063) rotate(-90)"><rect x="0" y="538.583" width="28.3465" height="28.3465" rx="8.50394" ry="8.50394" class="st9" /></g><g transform="translate(-413.858,496.063) rotate(-90)"><rect x="0" y="538.583" width="28.3465" height="28.3465" rx="8.50394" ry="8.50394" class="st9" /></g><g transform="translate(-379.843,496.063) rotate(-90)"><rect x="0" y="538.583" width="28.3465" height="28.3465" rx="8.50394" ry="8.50394" class="st9" /></g><g transform="translate(-345.827,496.063) rotate(-90)"><rect x="0" y="538.583" width="28.3465" height="28.3465" rx="8.50394" ry="8.50394" class="st9" /></g><g transform="translate(-311.811,496.063) rotate(-90)"><rect x="0" y="538.583" width="28.3465" height="28.3465" rx="8.50394" ry="8.50394" class="st9" /></g><g transform="translate(-481.89,531.496) rotate(-90)"><rect x="0" y="538.583" width="28.3465" height="28.3465" rx="8.50394" ry="8.50394" class="st9" /></g><g transform="translate(-447.874,531.496) rotate(-90)"><rect x="0" y="538.583" width="28.3465" height="28.3465" rx="8.50394" ry="8.50394" class="st9" /></g><g transform="translate(-413.858,531.496) rotate(-90)"><rect x="0" y="538.583" width="28.3465" height="28.3465" rx="8.50394" ry="8.50394" class="st9" /></g><g transform="translate(-379.843,531.496) rotate(-90)"><rect x="0" y="538.583" width="28.3465" height="28.3465" rx="8.50394" ry="8.50394" class="st9" /></g><g transform="translate(-345.827,531.496) rotate(-90)"><rect x="0" y="538.583" width="28.3465" height="28.3465" rx="8.50394" ry="8.50394" class="st9" /></g><g transform="translate(-311.811,531.496) rotate(-90)"><rect x="0" y="538.583" width="28.3465" height="28.3465" rx="8.50394" ry="8.50394" class="st9" /></g><g transform="translate(-226.772,425.197) rotate(-90)"><rect x="0" y="538.583" width="28.3465" height="28.3465" rx="8.50394" ry="8.50394" class="st5" /></g><g transform="translate(-192.756,425.197) rotate(-90)"><rect x="0" y="538.583" width="28.3465" height="28.3465" rx="8.50394" ry="8.50394" class="st5" /></g><g transform="translate(-158.74,425.197) rotate(-90)"><rect x="0" y="538.583" width="28.3465" height="28.3465" rx="8.50394" ry="8.50394" class="st5" /></g><g transform="translate(-226.772,460.63) rotate(-90)"><rect x="0" y="538.583" width="28.3465" height="28.3465" rx="8.50394" ry="8.50394" class="st5" /></g><g transform="translate(-192.756,460.63) rotate(-90)"><rect x="0" y="538.583" width="28.3465" height="28.3465" rx="8.50394" ry="8.50394" class="st5" /></g><g transform="translate(-158.74,460.63) rotate(-90)"><rect x="0" y="538.583" width="28.3465" height="28.3465" rx="8.50394" ry="8.50394" class="st5" /></g><g transform="translate(-226.772,496.063) rotate(-90)"><rect x="0" y="538.583" width="28.3465" height="28.3465" rx="8.50394" ry="8.50394" class="st5" /></g><g transform="translate(-192.756,496.063) rotate(-90)"><rect x="0" y="538.583" width="28.3465" height="28.3465" rx="8.50394" ry="8.50394" class="st5" /></g><g transform="translate(-158.74,496.063) rotate(-90)"><rect x="0" y="538.583" width="28.3465" height="28.3465" rx="8.50394" ry="8.50394" class="st5" /></g><g transform="translate(-226.772,531.496) rotate(-90)"><rect x="0" y="538.583" width="28.3465" height="28.3465" rx="8.50394" ry="8.50394" class="st5" /></g><g transform="translate(-192.756,531.496) rotate(-90)"><rect x="0" y="538.583" width="28.3465" height="28.3465" rx="8.50394" ry="8.50394" class="st5" /></g><g transform="translate(-158.74,531.496) rotate(-90)"><rect x="0" y="538.583" width="28.3465" height="28.3465" rx="8.50394" ry="8.50394" class="st5" /></g><g transform="translate(-226.772,56.6929) rotate(-90)"><rect x="0" y="538.583" width="28.3465" height="28.3465" rx="8.50394" ry="8.50394" class="st10" /></g><g transform="translate(-192.756,56.6929) rotate(-90)"><rect x="0" y="538.583" width="28.3465" height="28.3465" rx="8.50394" ry="8.50394" class="st10" /></g><g transform="translate(-158.74,56.6929) rotate(-90)"><rect x="0" y="538.583" width="28.3465" height="28.3465" rx="8.50394" ry="8.50394" class="st10" /></g><g transform="translate(-124.724,56.6929) rotate(-90)"><rect x="0" y="538.583" width="28.3465" height="28.3465" rx="8.50394" ry="8.50394" class="st10" /></g><g transform="translate(-90.7087,56.6929) rotate(-90)"><rect x="0" y="538.583" width="28.3465" height="28.3465" rx="8.50394" ry="8.50394" class="st10" /></g><g transform="translate(276.378,-354.331)"><path d="M7.09 566.93 L7.09 418.11" class="st11" /></g><g transform="translate(276.378,-191.339)"><path d="M7.09 566.93 L7.09 418.11" class="st12" /></g><g transform="translate(276.378,-28.3465)"><path d="M7.09 566.93 L7.09 418.11" class="st13" /></g></g></svg>