<svg xmlns="http://www.w3.org/2000/svg" width="2176" height="1104" viewBox="0 0 2176 1104" class="a"><style>
.b {fill:#a5a5a5;fill-opacity:0.2;stroke:#7030a0;stroke-linecap:round;stroke-linejoin:round;stroke-width:2.25}
.c {fill:#a5a5a5;fill-opacity:0.2;stroke:#e82200;stroke-dasharray:33.75,20.25;stroke-linecap:round;stroke-linejoin:round;stroke-width:2.25}
.d {fill:#a5a5a5;fill-opacity:0.2;stroke:#006600;stroke-dasharray:33.75,20.25;stroke-linecap:round;stroke-linejoin:round;stroke-width:2.25}
.e {fill:#a5a5a5;fill-opacity:0.2;stroke:#2080a0;stroke-dasharray:33.75,20.25;stroke-linecap:round;stroke-linejoin:round;stroke-width:2.25}
.f {fill:#a5a5a5;fill-opacity:0.2;stroke:#0070f7;stroke-dasharray:2.25,4.5;stroke-linecap:round;stroke-linejoin:round;stroke-width:2.25}
.g {fill:#7030a0;stroke:#7030a0;stroke-linecap:round;stroke-linejoin:round;stroke-width:2.25}
.h {fill:#ffffff;font-family:Arial;font-size:1.66667em;font-weight:bold}
.i {fill:#e82200;stroke:#e82200;stroke-linecap:round;stroke-linejoin:round;stroke-width:2.25}
.j {fill:#006600;stroke:#006600;stroke-linecap:round;stroke-linejoin:round;stroke-width:2.25}
.k {fill:#2080a0;stroke:#2080a0;stroke-linecap:round;stroke-linejoin:round;stroke-width:2.25}
.l {font-size:1em}
.m {fill:none;stroke:none;stroke-linecap:round;stroke-linejoin:round;stroke-width:1}
.n {fill:#000000;font-family:Arial;font-size:1.16666em;font-weight:bold}
.o {fill:#0070f7;stroke:none;stroke-linecap:round;stroke-linejoin:round;stroke-width:1}
.p {fill:#ffffff;font-family:Arial;font-size:1.16666em;font-weight:bold}
.q {baseline-shift:32.4943%;font-size:0.649886em}
.r {fill:#2080a0;stroke:none;stroke-linecap:round;stroke-linejoin:round;stroke-width:1}
.s {font-size:0.928588em}
.t {fill:#0070f7;font-family:Arial;font-size:4.00001em;font-weight:bold}
.u {fill:#0070f7;font-family:Arial;font-size:2.50001em;font-weight:bold}
.v {fill:#0070f7;font-family:Arial;font-size:1.5em;font-weight:bold}
.w {fill:#006600;stroke:none;stroke-linecap:round;stroke-linejoin:round;stroke-width:1}
.x {fill:#ffffff;font-family:Arial;font-size:1.08334em;font-weight:bold}
.y {fill:#ffffff;font-family:Arial;font-size:1.00001em;font-weight:bold}
.z {fill:#e82200;stroke:none;stroke-linecap:round;stroke-linejoin:round;stroke-width:1}
.ba {fill:#a5a5a5;fill-opacity:0.2;stroke:#006600;stroke-dasharray:2.25,4.5;stroke-linecap:round;stroke-linejoin:round;stroke-width:2.25}
.a {fill:none;fill-rule:evenodd;font-size:12px;overflow:visible;stroke-linecap:square;stroke-miterlimit:3}
</style><g><g transform="translate(1056,992) rotate(-90)"><rect x="0" y="-1040" width="720" height="2144" rx="8" ry="8" class="b"/></g><g transform="translate(112,-16)"><rect x="0" y="192" width="608" height="912" rx="8" ry="8" class="c"/></g><g transform="translate(1280,-16)"><rect x="0" y="192" width="608" height="912" rx="8" ry="8" class="d"/></g><g transform="translate(752,-16)"><rect x="0" y="192" width="496" height="912" rx="8" ry="8" class="e"/></g><g transform="translate(768,-176)"><rect x="0" y="672" width="464" height="432" rx="8" ry="8" class="f"/></g><a target="_blank" href="https://www.microsoft.com/microsoft-365/compare-all-microsoft-365-plans" rel="noopener"><g transform="translate(-1024,992) rotate(-90)"><rect x="0" y="1040" width="720" height="64" rx="8" ry="8" class="g"/><text x="280.53" y="1078" class="h">Microsoft 365 E3</text></g></a><a target="_blank" href="https://www.microsoft.com/microsoft-365/compare-all-microsoft-365-plans" rel="noopener"><g transform="translate(1056,992) rotate(-90)"><rect x="0" y="1040" width="720" height="64" rx="8" ry="8" class="g"/><text x="280.53" y="1078" class="h">Microsoft 365 E3</text></g></a><a target="_blank" href="https://docs.microsoft.com/office365/enterprise/" rel="noopener"><g transform="translate(112,-864)"><rect x="0" y="1040" width="608" height="64" rx="8" ry="8" class="i"/><text x="241.19" y="1078" class="h">Office 365 E3</text></g></a><a target="_blank" href="https://www.microsoft.com/windowsforbusiness" rel="noopener"><g transform="translate(1280,-864)"><rect x="0" y="1040" width="608" height="64" rx="8" ry="8" class="j"/><text x="192.87" y="1078" class="h">Windows Enterprise E3</text></g></a><a target="_blank" href="https://www.microsoft.com/cloud-platform/enterprise-mobility-security" rel="noopener"><g transform="translate(752,-864)"><rect x="0" y="1040" width="496" height="64" rx="8" ry="8" class="k"/><text x="92.12" y="1066" class="h">Enterprise Mobility + Security E3<tspan x="204.66" dy="1.2em" class="l">(EMS E3)</tspan></text></g></a><a target="_blank" href="https://docs.microsoft.com/office365/enterprise/" rel="noopener"><g transform="translate(112,-16)"><rect x="0" y="1040" width="608" height="64" rx="8" ry="8" class="i"/><text x="241.19" y="1078" class="h">Office 365 E3</text></g></a><a target="_blank" href="https://www.microsoft.com/windowsforbusiness" rel="noopener"><g transform="translate(1280,-16)"><rect x="0" y="1040" width="608" height="64" rx="8" ry="8" class="j"/><text x="192.87" y="1078" class="h">Windows Enterprise E3</text></g></a><a target="_blank" href="https://www.microsoft.com/cloud-platform/enterprise-mobility-security" rel="noopener"><g transform="translate(752,-16)"><rect x="0" y="1040" width="496" height="64" rx="8" ry="8" class="k"/><text x="92.12" y="1066" class="h">Enterprise Mobility + Security E3<tspan x="204.66" dy="1.2em" class="l">(EMS E3)</tspan></text></g></a><a target="_blank" href="https://azure.microsoft.com/pricing/details/active-directory/" rel="noopener"><g transform="translate(768,-176)"><rect x="0" y="1056" width="464" height="48" rx="8" ry="8" class="m"/><text x="146.03" y="1084.2" class="n">Azure AD Premium Plan 1</text></g></a><a target="_blank" href="https://docs.microsoft.com/azure/active-directory/reports-monitoring/" rel="noopener"><g transform="translate(784,-512)"><rect x="0" y="1024" width="96" height="80" rx="8" ry="8" class="o"/><text x="14.55" y="1043" class="p">Advanced <tspan x="20.38" dy="1.2em" class="l">Security </tspan><tspan x="14.55" dy="1.2em" class="l">Reports &amp; </tspan><tspan x="28.16" dy="1.2em" class="l">Alerts</tspan></text></g></a><a target="_blank" href="https://docs.microsoft.com/azure/active-directory/hybrid/how-to-connect-sso" rel="noopener"><g transform="translate(896,-224)"><rect x="0" y="1024" width="96" height="80" rx="8" ry="8" class="o"/><text x="7.17" y="1051.4" class="p">Single-Sign-<tspan x="10.28" dy="1.2em" class="l">On to other </tspan><tspan x="30.88" dy="1.2em" class="l">SaaS</tspan></text></g></a><a target="_blank" href="https://docs.microsoft.com/azure/active-directory/manage-apps/application-proxy" rel="noopener"><g transform="translate(896,-512)"><rect x="0" y="1024" width="96" height="80" rx="8" ry="8" class="o"/><text x="11.05" y="1051.4" class="p">App Proxy, <tspan x="16.89" dy="1.2em" class="l">including </tspan><tspan x="8.31" dy="1.2em" class="l">PingAccess</tspan></text></g></a><a target="_blank" href="https://docs.microsoft.com/azure/active-directory/authentication/concept-mfa-howitworks" rel="noopener"><g transform="translate(896,-320)"><rect x="0" y="1024" width="96" height="80" rx="8" ry="8" class="o"/><text x="7.95" y="1059.8" class="p">Multi-Factor <tspan x="10.29" dy="1.2em" class="l">Auth (MFA)</tspan></text></g></a><a target="_blank" href="https://docs.microsoft.com/azure/active-directory/hybrid/whatis-azure-ad-connect#what-is-azure-ad-connect-health" rel="noopener"><g transform="translate(1008,-512)"><rect x="0" y="1024" width="96" height="80" rx="8" ry="8" class="o"/><text x="16.5" y="1051.4" class="p">Azure AD <tspan x="20" dy="1.2em" class="l">Connect </tspan><tspan x="26.61" dy="1.2em" class="l">Health</tspan></text></g></a><a target="_blank" href="https://docs.microsoft.com/cloud-app-security/set-up-cloud-discovery" rel="noopener"><g transform="translate(896,-416)"><rect x="0" y="1024" width="96" height="80" rx="8" ry="8" class="o"/><text x="12.62" y="1059.8" class="p">Cloud App <tspan x="14.54" dy="1.2em" class="l">Discovery</tspan></text></g></a><a target="_blank" href="https://docs.microsoft.com/azure/active-directory/users-groups-roles/users-sharing-accounts" rel="noopener"><g transform="translate(784,-224)"><rect x="0" y="1024" width="96" height="80" rx="8" ry="8" class="o"/><text x="24.27" y="1043" class="p">Shared <tspan x="20" dy="1.2em" class="l">Account </tspan><tspan x="14.93" dy="1.2em" class="l">Password </tspan><tspan x="16.49" dy="1.2em" class="l">Roll</tspan>-Over</text></g></a><a target="_blank" href="https://docs.microsoft.com/azure/active-directory/authentication/concept-sspr-howitworks" rel="noopener"><g transform="translate(1120,-320)"><rect x="0" y="1024" width="96" height="80" rx="8" ry="8" class="o"/><text x="7.92" y="1051.4" class="p">Self-Service <tspan x="14.93" dy="1.2em" class="l">Password </tspan><tspan x="8.71" dy="1.2em" class="l">Reset in AD</tspan></text></g></a><a target="_blank" href="https://docs.microsoft.com/azure/active-directory/users-groups-roles/groups-self-service-management" rel="noopener"><g transform="translate(1008,-320)"><rect x="0" y="1024" width="96" height="80" rx="8" ry="8" class="o"/><text x="7.92" y="1051.4" class="p">Self-Service <tspan x="27" dy="1.2em" class="l">Group </tspan><tspan x="5.21" dy="1.2em" class="l">Management</tspan></text></g></a><a target="_blank" href="https://docs.microsoft.com/azure/active-directory/conditional-access/overview" rel="noopener"><g transform="translate(1008,-416)"><rect x="0" y="1024" width="96" height="80" rx="8" ry="8" class="o"/><text x="9.51" y="1059.8" class="p">Conditional <tspan x="23.48" dy="1.2em" class="l">Access</tspan></text></g></a><a target="_blank" href="https://docs.microsoft.com/azure/active-directory/external-identities/" rel="noopener"><g transform="translate(1120,-512)"><rect x="0" y="1024" width="96" height="80" rx="8" ry="8" class="o"/><text x="16.5" y="1051.4" class="p">Azure AD <tspan x="20.38" dy="1.2em" class="l">External </tspan><tspan x="17.27" dy="1.2em" class="l">Identities</tspan></text></g></a><a target="_blank" href="https://docs.microsoft.com/azure/active-directory/devices/enterprise-state-roaming-overview" rel="noopener"><g transform="translate(1120,-416)"><rect x="0" y="1024" width="96" height="80" rx="8" ry="8" class="o"/><text x="13.38" y="1051.4" class="p">Enterprise <tspan x="30.88" dy="1.2em" class="l">State </tspan><tspan x="18.06" dy="1.2em" class="l">Roaming</tspan></text></g></a><a target="_blank" href="https://docs.microsoft.com/azure/active-directory/governance/active-directory-tou" rel="noopener"><g transform="translate(1008,-224)"><rect x="0" y="1024" width="96" height="80" rx="8" ry="8" class="o"/><text x="18.44" y="1059.8" class="p">Terms of <tspan x="35.16" dy="1.2em" class="l">Use</tspan></text></g></a><a target="_blank" href="https://docs.microsoft.com/azure/active-directory/authentication/concept-password-ban-bad" rel="noopener"><g transform="translate(784,-416)"><rect x="0" y="1024" width="96" height="80" rx="8" ry="8" class="o"/><text x="16.5" y="1051.4" class="p">Azure AD <tspan x="14.93" dy="1.2em" class="l">Password </tspan><tspan x="13.39" dy="1.2em" class="l">Protection</tspan></text></g></a><a target="_blank" href="https://docs.microsoft.com/microsoft-identity-manager/" rel="noopener"><g transform="translate(784,-320)"><rect x="0" y="1024" width="96" height="80" rx="8" ry="8" class="o"/><text x="16.5" y="1051.4" class="p">Microsoft <tspan x="23.11" dy="1.2em" class="l">Identity </tspan><tspan x="19.21" dy="1.2em" class="l">Manager</tspan></text></g></a><a target="_blank" href="https://docs.microsoft.com/azure/active-directory/conditional-access/controls#custom-controls-preview" rel="noopener"><g transform="translate(1120,-224)"><rect x="0" y="1024" width="96" height="80" rx="8" ry="8" class="o"/><text x="20.78" y="1051.4" class="p">3<tspan dy="-0.235em" class="q">rd </tspan><tspan dy="0.153em" class="l">Party  </tspan><tspan x="32.84" dy="1.2em" class="l">MFA </tspan><tspan x="11.83" dy="1.2em" class="l">Integration</tspan></text></g></a><a target="_blank" href="https://docs.microsoft.com/mem/intune/fundamentals/what-is-intune" rel="noopener"><g transform="translate(784,-624)"><rect x="0" y="1024" width="96" height="80" rx="8" ry="8" class="r"/><text x="8.34" y="1059.8" class="p">Intune MDM <tspan x="24.28" dy="1.2em" class="l">&amp; MAM</tspan></text></g></a><a target="_blank" href="https://www.microsoft.com/licensing/product-licensing/client-access-license" rel="noopener"><g transform="translate(1120,-624)"><rect x="0" y="1024" width="96" height="80" rx="8" ry="8" class="r"/><text x="17.28" y="1051.4" class="p">Windows <tspan x="9.87" dy="1.2em" class="l">Server CAL </tspan><tspan x="26.22" dy="1.2em" class="l">Rights</tspan></text></g></a><a target="_blank" href="https://docs.microsoft.com/configmgr/core/understand/introduction" rel="noopener"><g transform="translate(896,-624)"><rect x="0" y="1024" width="96" height="80" rx="8" ry="8" class="r"/><text x="16.5" y="1043" class="p">Microsoft <tspan x="17.68" dy="1.2em" class="l">Endpoint </tspan><tspan x="25.84" dy="1.2em" class="l">Config </tspan><tspan x="19.21" dy="1.2em" class="l">Manager</tspan></text></g></a><a target="_blank" href="https://docs.microsoft.com/sccm/protect/deploy-use/endpoint-protection" rel="noopener"><g transform="translate(1008,-624)"><rect x="0" y="1024" width="96" height="80" rx="8" ry="8" class="r"/><text x="23.1" y="1043" class="p">System <tspan x="25.83" dy="1.2em" class="l">Center </tspan><tspan x="17.68" dy="1.2em" class="l">Endpoint </tspan><tspan x="13.39" dy="1.2em" class="l">Protection</tspan></text></g></a><a target="_blank" href="https://docs.microsoft.com/azure/information-protection/what-is-azure-rms" rel="noopener"><g transform="translate(784,-720)"><rect x="0" y="1024" width="96" height="80" rx="8" ry="8" class="r"/><text x="26.99" y="1043" class="p">Active <tspan x="10.27" dy="1.2em" class="l">Directory &amp; </tspan><tspan x="16.5" dy="1.2em" class="l">Azure AD </tspan><tspan x="32.45" dy="1.2em" class="l">RMS</tspan></text></g></a><a target="_blank" href="https://docs.microsoft.com/mem/analytics/overview" rel="noopener"><g transform="translate(1008,-720)"><rect x="0" y="1024" width="96" height="80" rx="8" ry="8" class="r"/><text x="17.68" y="1059.8" class="p">Endpoint <tspan x="16.88" dy="1.2em" class="l">Analytics</tspan></text></g></a><a target="_blank" href="https://docs.microsoft.com/advanced-threat-analytics/" rel="noopener"><g transform="translate(896,-720)"><rect x="0" y="1024" width="96" height="80" rx="8" ry="8" class="r"/><text x="14.55" y="1043" class="p">Advanced <tspan x="26.61" dy="1.2em" class="l">Threat </tspan><tspan x="16.88" dy="1.2em" class="l">Analytics </tspan><tspan x="21.28" dy="1.292em" class="s">(retiring)</tspan></text></g></a><a target="_blank" href="https://m365maps.com/" rel="noopener"><g transform="translate(16,-1024)"><rect x="0" y="1040" width="2144" height="64" rx="8" ry="8" class="m"/><text x="881.27" y="1086.4" class="t">Microsoft 365 E3</text></g></a><g transform="translate(16,-992)"><rect x="0" y="1072" width="2144" height="32" class="m"/><text x="976.95" y="1097" class="u">October 2021</text></g><a target="_blank" href="https://m365maps.com/" rel="noopener"><g transform="translate(16,-960)"><rect x="0" y="1072" width="2144" height="32" rx="8" ry="8" class="m"/><text x="1004.46" y="1093.4" class="v">m365maps.com</text></g></a><a target="_blank" href="https://docs.microsoft.com/windows/security/threat-protection/microsoft-defender-atp/attack-surface-reduction" rel="noopener"><g transform="translate(1424,-624)"><rect x="0" y="1024" width="96" height="80" rx="8" ry="8" class="w"/><text x="26.6" y="1051.4" class="p">Attack <tspan x="22.32" dy="1.2em" class="l">Surface </tspan><tspan x="13.78" dy="1.2em" class="l">Reduction</tspan></text></g></a><a target="_blank" href="https://docs.microsoft.com/microsoft-store/microsoft-store-for-business-overview" rel="noopener"><g transform="translate(1424,-336)"><rect x="0" y="1024" width="96" height="80" rx="8" ry="8" class="w"/><text x="16.5" y="1051.4" class="p">Microsoft <tspan x="18.83" dy="1.2em" class="l">Store for </tspan><tspan x="16.88" dy="1.2em" class="l">Business</tspan></text></g></a><a target="_blank" href="https://docs.microsoft.com/windows-server/identity/ad-fs/operations/configure-device-based-conditional-access-on-premises" rel="noopener"><g transform="translate(1312,-144)"><rect x="0" y="1024" width="96" height="80" rx="8" ry="8" class="w"/><text x="17.28" y="1051.4" class="p">Windows <tspan x="9.51" dy="1.2em" class="l">Conditional </tspan><tspan x="23.48" dy="1.2em" class="l">Access</tspan></text></g></a><a target="_blank" href="https://docs.microsoft.com/windows/security/information-protection/windows-information-protection/protect-enterprise-data-using-wip" rel="noopener"><g transform="translate(1648,-144)"><rect x="0" y="1024" width="96" height="80" rx="8" ry="8" class="w"/><text x="17.28" y="1051.4" class="p">Windows <tspan x="9.5" dy="1.2em" class="l">Information </tspan><tspan x="13.39" dy="1.2em" class="l">Protection</tspan></text></g></a><a target="_blank" href="https://docs.microsoft.com/windows/deployment/update/waas-manage-updates-wufb" rel="noopener"><g transform="translate(1760,-144)"><rect x="0" y="1024" width="96" height="80" rx="8" ry="8" class="w"/><text x="17.28" y="1051.4" class="p">Windows <tspan x="13" dy="1.2em" class="l">Update for </tspan><tspan x="16.88" dy="1.2em" class="l">Business</tspan></text></g></a><a target="_blank" href="https://docs.microsoft.com/windows/security/identity-protection/hello-for-business/hello-identity-verification" rel="noopener"><g transform="translate(1536,-144)"><rect x="0" y="1024" width="96" height="80" rx="8" ry="8" class="w"/><text x="17.28" y="1051.4" class="p">Windows <tspan x="19.61" dy="1.2em" class="l">Hello for </tspan><tspan x="16.88" dy="1.2em" class="l">Business</tspan></text></g></a><a target="_blank" href="https://www.microsoft.com/edge/business" rel="noopener"><g transform="translate(1424,-432)"><rect x="0" y="1024" width="96" height="80" rx="8" ry="8" class="w"/><text x="19.61" y="1059.8" class="p">Edge for <tspan x="16.88" dy="1.2em" class="l">Business</tspan></text></g></a><a target="_blank" href="https://support.microsoft.com/help/17214/windows-10-what-is" rel="noopener"><g transform="translate(1424,-528)"><rect x="0" y="1024" width="96" height="80" rx="8" ry="8" class="w"/><text x="21.55" y="1068.2" class="p">Cortana</text></g></a><a target="_blank" href="https://docs.microsoft.com/windows/security/threat-protection/windows-defender-application-guard/wd-app-guard-overview" rel="noopener"><g transform="translate(1536,-720)"><rect x="0" y="1024" width="96" height="80" rx="8" ry="8" class="w"/><text x="9.89" y="1059.8" class="p">Application <tspan x="27.39" dy="1.2em" class="l">Guard</tspan></text></g></a><a target="_blank" href="https://docs.microsoft.com/azure/active-directory/devices/concept-azure-ad-join" rel="noopener"><g transform="translate(1536,-624)"><rect x="0" y="1024" width="96" height="80" rx="8" ry="8" class="w"/><text x="16.5" y="1051.4" class="p">Azure AD<tspan x="15.33" dy="1.2em" class="l">&amp; Domain </tspan><tspan x="33.61" dy="1.2em" class="l">Join</tspan></text></g></a><a target="_blank" href="https://docs.microsoft.com/mem/configmgr/desktop-analytics/overview" rel="noopener"><g transform="translate(1648,-528)"><rect x="0" y="1024" width="96" height="80" rx="8" ry="8" class="w"/><text x="20.38" y="1059.8" class="p">Desktop <tspan x="16.88" dy="1.2em" class="l">Analytics</tspan></text></g></a><a target="_blank" href="https://www.microsoft.com/windows/comprehensive-security" rel="noopener"><g transform="translate(1312,-336)"><rect x="0" y="1024" width="96" height="80" rx="8" ry="8" class="w"/><text x="16.5" y="1051.4" class="p">Microsoft <tspan x="17.66" dy="1.2em" class="l">Defender </tspan><tspan x="17.66" dy="1.2em" class="l">Antivirus</tspan></text></g></a><a target="_blank" href="https://docs.microsoft.com/microsoft-desktop-optimization-pack/appv-v5/" rel="noopener"><g transform="translate(1312,-624)"><rect x="0" y="1024" width="96" height="80" rx="8" ry="8" class="w"/><text x="27.39" y="1068.2" class="p">App-V</text></g></a><a target="_blank" href="https://docs.microsoft.com/windows/security/threat-protection/windows-defender-application-control/applocker/applocker-overview" rel="noopener"><g transform="translate(1648,-720)"><rect x="0" y="1024" width="96" height="80" rx="8" ry="8" class="w"/><text x="11.44" y="1068.2" class="p">AppLocker</text></g></a><a target="_blank" href="https://www.microsoft.com/cloud-platform/desktop-virtualization" rel="noopener"><g transform="translate(1648,-624)"><rect x="0" y="1024" width="96" height="80" rx="8" ry="8" class="w"/><text x="4.82" y="1059.8" class="p">Azure Virtual <tspan x="20.38" dy="1.2em" class="l">Desktop</tspan></text></g></a><a target="_blank" href="https://docs.microsoft.com/windows-server/remote/remote-access/directaccess/directaccess" rel="noopener"><g transform="translate(1312,-432)"><rect x="0" y="1024" width="96" height="80" rx="8" ry="8" class="w"/><text x="6.81" y="1067.9" class="x">DirectAccess</text></g></a><a target="_blank" href="https://docs.microsoft.com/windows/security/threat-protection/device-guard/introduction-to-device-guard-virtualization-based-security-and-windows-defender-application-control" rel="noopener"><g transform="translate(1760,-528)"><rect x="0" y="1024" width="96" height="80" rx="8" ry="8" class="w"/><text x="25.43" y="1059.8" class="p">Device <tspan x="27.39" dy="1.2em" class="l">Guard</tspan></text></g></a><a target="_blank" href="https://docs.microsoft.com/windows-server/networking/branchcache/branchcache" rel="noopener"><g transform="translate(1312,-528)"><rect x="0" y="1024" width="96" height="80" rx="8" ry="8" class="w"/><text x="6.1" y="1067.9" class="x">BranchCache</text></g></a><a target="_blank" href="https://docs.microsoft.com/microsoft-desktop-optimization-pack/" rel="noopener"><g transform="translate(1760,-432)"><rect x="0" y="1024" width="96" height="80" rx="8" ry="8" class="w"/><text x="27" y="1068.2" class="p">MDOP</text></g></a><a target="_blank" href="https://docs.microsoft.com/windows/security/identity-protection/credential-guard/credential-guard" rel="noopener"><g transform="translate(1536,-528)"><rect x="0" y="1024" width="96" height="80" rx="8" ry="8" class="w"/><text x="13.77" y="1059.8" class="p">Credential <tspan x="27.39" dy="1.2em" class="l">Guard</tspan></text></g></a><a target="_blank" href="https://docs.microsoft.com/windows/configuration/ue-v/uev-for-windows" rel="noopener"><g transform="translate(1648,-240)"><rect x="0" y="1024" width="96" height="80" rx="8" ry="8" class="w"/><text x="33.55" y="1052.3" class="x">User <tspan x="13.31" dy="1.2em" class="l">Experience </tspan><tspan x="6.83" dy="1.2em" class="l">Virtualisation</tspan></text></g></a><a target="_blank" href="https://docs.microsoft.com/windows/deployment/update/waas-overview#long-term-servicing-channel" rel="noopener"><g transform="translate(1536,-432)"><rect x="0" y="1024" width="96" height="80" rx="8" ry="8" class="w"/><text x="11.83" y="1051.4" class="p">Long Term <tspan x="16.49" dy="1.2em" class="l">Servicing </tspan><tspan x="20.39" dy="1.2em" class="l">Channel</tspan></text></g></a><a target="_blank" href="https://docs.microsoft.com/windows-server/remote/remote-access/vpn/always-on-vpn/" rel="noopener"><g transform="translate(1312,-720)"><rect x="0" y="1024" width="96" height="80" rx="8" ry="8" class="w"/><text x="12.21" y="1059.8" class="p">Always On <tspan x="33.61" dy="1.2em" class="l">VPN</tspan></text></g></a><a target="_blank" href="https://docs.microsoft.com/universal-print/" rel="noopener"><g transform="translate(1536,-240)"><rect x="0" y="1024" width="96" height="80" rx="8" ry="8" class="w"/><text x="16.48" y="1059.8" class="p">Universal <tspan x="32.06" dy="1.2em" class="l">Print</tspan></text></g></a><a target="_blank" href="https://docs.microsoft.com/fasttrack/products-and-capabilities#app-assure" rel="noopener"><g transform="translate(1760,-720)"><rect x="0" y="1024" width="96" height="80" rx="8" ry="8" class="w"/><text x="8.71" y="1068.2" class="p">App Assure</text></g></a><a target="_blank" href="https://docs.microsoft.com/windows/deployment/windows-autopilot/windows-autopilot" rel="noopener"><g transform="translate(1760,-240)"><rect x="0" y="1024" width="96" height="80" rx="8" ry="8" class="w"/><text x="17.28" y="1059.8" class="p">Windows <tspan x="17.29" dy="1.2em" class="l">Autopilot</tspan></text></g></a><a target="_blank" href="https://docs.microsoft.com/windows/security/information-protection/bitlocker/bitlocker-overview" rel="noopener"><g transform="translate(1760,-624)"><rect x="0" y="1024" width="96" height="80" rx="8" ry="8" class="w"/><text x="8.71" y="1051.4" class="p">BitLocker &amp; <tspan x="7.16" dy="1.2em" class="l">BitLocker to </tspan><tspan x="38.28" dy="1.2em" class="l">Go</tspan></text></g></a><a target="_blank" href="https://docs.microsoft.com/windows/security/threat-protection/windows-firewall/windows-firewall-with-advanced-security" rel="noopener"><g transform="translate(1424,-144)"><rect x="0" y="1024" width="96" height="80" rx="8" ry="8" class="w"/><text x="17.28" y="1059.8" class="p">Windows <tspan x="21.93" dy="1.2em" class="l">Firewall</tspan></text></g></a><a target="_blank" href="https://docs.microsoft.com/windows/security/threat-protection/windows-defender-application-control/windows-defender-application-control" rel="noopener"><g transform="translate(1424,-720)"><rect x="0" y="1024" width="96" height="80" rx="8" ry="8" class="w"/><text x="9.89" y="1059.8" class="p">Application <tspan x="23.12" dy="1.2em" class="l">Control</tspan></text></g></a><a target="_blank" href="https://docs.microsoft.com/windows-server/storage/refs/refs-overview" rel="noopener"><g transform="translate(1760,-336)"><rect x="0" y="1024" width="96" height="80" rx="8" ry="8" class="w"/><text x="4.82" y="1051.4" class="p">Resilient File <tspan x="23.1" dy="1.2em" class="l">System </tspan><tspan x="25.45" dy="1.2em" class="l">(ReFS)</tspan></text></g></a><a target="_blank" href="https://docs.microsoft.com/windows-server/storage/file-server/smb-direct" rel="noopener"><g transform="translate(1312,-240)"><rect x="0" y="1024" width="96" height="80" rx="8" ry="8" class="w"/><text x="10.66" y="1068.2" class="p">SMB Direct</text></g></a><a target="_blank" href="https://docs.microsoft.com/windows-hardware/customize/enterprise/unified-write-filter" rel="noopener"><g transform="translate(1424,-240)"><rect x="0" y="1024" width="96" height="80" rx="8" ry="8" class="w"/><text x="4.83" y="1059.8" class="p">Unified Write <tspan x="30.89" dy="1.2em" class="l">Filter</tspan></text></g></a><a target="_blank" href="https://docs.microsoft.com/windows-server/storage/storage-spaces/deploy-pmem" rel="noopener"><g transform="translate(1536,-336)"><rect x="0" y="1024" width="96" height="80" rx="8" ry="8" class="w"/><text x="14.15" y="1059.8" class="p">Persistent <tspan x="21.16" dy="1.2em" class="l">Memory</tspan></text></g></a><a target="_blank" href="https://docs.microsoft.com/windows/client-management/mdm/" rel="noopener"><g transform="translate(1648,-432)"><rect x="0" y="1024" width="96" height="80" rx="8" ry="8" class="w"/><text x="11.82" y="1059.8" class="p">Manage by <tspan x="31.28" dy="1.2em" class="l">MDM</tspan></text></g></a><a target="_blank" href="https://docs.microsoft.com/azure/information-protection/what-is-information-protection" rel="noopener"><g transform="translate(1120,-720)"><rect x="0" y="1024" width="96" height="80" rx="8" ry="8" class="r"/><text x="9.5" y="1059.8" class="p">Information <tspan x="13.39" dy="1.2em" class="l">Protection</tspan></text></g></a><a target="_blank" href="https://go.microsoft.com/fwlink/?linkid=2085130" rel="noopener"><g transform="translate(1648,-336)"><rect x="0" y="1024" width="96" height="80" rx="8" ry="8" class="w"/><text x="29.99" y="1046" class="y">Power <tspan x="20.33" dy="1.2em" class="l">Automate </tspan><tspan x="22" dy="1.2em" class="l">Attended </tspan><tspan x="5.66" dy="1.2em" class="l">Desktop Flows</tspan></text></g></a><a target="_blank" href="https://www.microsoft.com/microsoft-365/business/microsoft-365-apps-for-enterprise-product" rel="noopener"><g transform="translate(256,-432)"><rect x="0" y="1024" width="96" height="80" rx="8" ry="8" class="z"/><text x="16.5" y="1051.4" class="p">Microsoft <tspan x="5.6" dy="1.2em" class="l">365 Apps for </tspan><tspan x="13.38" dy="1.2em" class="l">Enterprise</tspan></text></g></a><a target="_blank" href="https://products.office.com/business/task-management-software" rel="noopener"><g transform="translate(256,-240)"><rect x="0" y="1024" width="96" height="80" rx="8" ry="8" class="z"/><text x="22.32" y="1068.2" class="p">Planner</text></g></a><a target="_blank" href="https://docs.microsoft.com/microsoftteams/teams-live-events/what-are-teams-live-events" rel="noopener"><g transform="translate(144,-432)"><rect x="0" y="1024" width="96" height="80" rx="8" ry="8" class="z"/><text x="9.09" y="1059.8" class="p">Live Events <tspan x="9.49" dy="1.2em" class="l">&amp; Webinars</tspan></text></g></a><a target="_blank" href="https://products.office.com/business/myanalytics-personal-analytics" rel="noopener"><g transform="translate(480,-528)"><rect x="0" y="1024" width="96" height="80" rx="8" ry="8" class="z"/><text x="11.05" y="1059.8" class="p">Insights by <tspan x="7.15" dy="1.2em" class="l">MyAnalytics</tspan></text></g></a><a target="_blank" href="https://products.office.com/yammer/yammer-overview" rel="noopener"><g transform="translate(592,-144)"><rect x="0" y="1024" width="96" height="80" rx="8" ry="8" class="z"/><text x="20.37" y="1059.8" class="p">Yammer <tspan x="13.38" dy="1.2em" class="l">Enterprise</tspan></text></g></a><a target="_blank" href="https://products.office.com/microsoft-teams/" rel="noopener"><g transform="translate(144,-336)"><rect x="0" y="1024" width="96" height="80" rx="8" ry="8" class="z"/><text x="16.5" y="1059.8" class="p">Microsoft <tspan x="25.82" dy="1.2em" class="l">Teams</tspan></text></g></a><a target="_blank" href="https://docs.microsoft.com/stream/" rel="noopener"><g transform="translate(368,-144)"><rect x="0" y="1024" width="96" height="80" rx="8" ry="8" class="z"/><text x="12.99" y="1059.8" class="p">Stream for <tspan x="14.54" dy="1.2em" class="l">Office 365</tspan></text></g></a><a target="_blank" href="https://docs.microsoft.com/sharepoint/introduction" rel="noopener"><g transform="translate(256,-144)"><rect x="0" y="1024" width="96" height="80" rx="8" ry="8" class="z"/><text x="11.05" y="1051.4" class="p">SharePoint <tspan x="26.22" dy="1.2em" class="l">Online </tspan><tspan x="27.38" dy="1.2em" class="l">Plan 2</tspan></text></g></a><a target="_blank" href="https://docs.microsoft.com/office365/servicedescriptions/onedrive-for-business-service-description" rel="noopener"><g transform="translate(144,-240)"><rect x="0" y="1024" width="96" height="80" rx="8" ry="8" class="z"/><text x="5.6" y="1051.4" class="p">OneDrive for <tspan x="16.88" dy="1.2em" class="l">Business </tspan><tspan x="27.38" dy="1.2em" class="l">Plan 2</tspan></text></g></a><a target="_blank" href="https://powerapps.microsoft.com/" rel="noopener"><g transform="translate(368,-240)"><rect x="0" y="1024" width="96" height="80" rx="8" ry="8" class="z"/><text x="7.55" y="1051.4" class="p">Power Apps<tspan x="38.67" dy="1.2em" class="l">for</tspan><tspan x="14.54" dy="1.2em" class="l">Office 365</tspan></text></g></a><a target="_blank" href="https://support.office.com/sway" rel="noopener"><g transform="translate(480,-144)"><rect x="0" y="1024" width="96" height="80" rx="8" ry="8" class="z"/><text x="30.1" y="1068.2" class="p">Sway</text></g></a><a target="_blank" href="https://support.office.com/forms" rel="noopener"><g transform="translate(480,-432)"><rect x="0" y="1024" width="96" height="80" rx="8" ry="8" class="z"/><text x="16.5" y="1059.8" class="p">Microsoft <tspan x="26.61" dy="1.2em" class="l">Forms</tspan></text></g></a><a target="_blank" href="https://support.microsoft.com/office/1315665a-c6af-4409-a28d-49f8916878ca" rel="noopener"><g transform="translate(368,-624)"><rect x="0" y="1024" width="96" height="80" rx="8" ry="8" class="z"/><text x="29.32" y="1068.2" class="p">Delve</text></g></a><a target="_blank" href="https://powerautomate.microsoft.com/" rel="noopener"><g transform="translate(480,-240)"><rect x="0" y="1024" width="96" height="80" rx="8" ry="8" class="z"/><text x="26.99" y="1051.4" class="p">Power <tspan x="4.45" dy="1.2em" class="l">Automate for</tspan><tspan x="14.54" dy="1.2em" class="l">Office 365</tspan></text></g></a><a target="_blank" href="https://docs.microsoft.com/office365/securitycompliance/data-loss-prevention-policies" rel="noopener"><g transform="translate(256,-624)"><rect x="0" y="1024" width="96" height="80" rx="8" ry="8" class="z"/><text x="14.55" y="1059.8" class="p">Data Loss <tspan x="11.82" dy="1.2em" class="l">Prevention</tspan></text></g></a><a target="_blank" href="https://docs.microsoft.com/microsoft-365/compliance/retention" rel="noopener"><g transform="translate(144,-144)"><rect x="0" y="1024" width="96" height="80" rx="8" ry="8" class="z"/><text x="15.72" y="1051.4" class="p">Retention <tspan x="18.82" dy="1.2em" class="l">Labels &amp; </tspan><tspan x="21.54" dy="1.2em" class="l">Policies</tspan></text></g></a><a target="_blank" href="https://www.microsoft.com/microsoft-365/exchange/exchange-email-security-spam-protection" rel="noopener"><g transform="translate(144,-528)"><rect x="0" y="1024" width="96" height="80" rx="8" ry="8" class="z"/><text x="14.93" y="1051.4" class="p">Exchange <tspan x="26.22" dy="1.2em" class="l">Online </tspan><tspan x="13.39" dy="1.2em" class="l">Protection</tspan></text></g></a><a target="_blank" href="https://docs.microsoft.com/office365/securitycompliance/ediscovery-cases" rel="noopener"><g transform="translate(480,-624)"><rect x="0" y="1024" width="96" height="80" rx="8" ry="8" class="z"/><text x="10.64" y="1068.2" class="p">eDiscovery</text></g></a><a target="_blank" href="https://products.office.com/en/business/microsoft-kaizala" rel="noopener"><g transform="translate(592,-528)"><rect x="0" y="1024" width="96" height="80" rx="8" ry="8" class="z"/><text x="10.26" y="1059.8" class="p">Kaizala Pro<tspan x="21.28" dy="1.292em" class="s">(retiring)</tspan></text></g></a><a target="_blank" href="https://docs.microsoft.com/office365/servicedescriptions/exchange-online-service-description/exchange-online-service-description#feature-availability-across-exchange-online-standalone-plans" rel="noopener"><g transform="translate(592,-624)"><rect x="0" y="1024" width="96" height="80" rx="8" ry="8" class="z"/><text x="14.93" y="1051.4" class="p">Exchange <tspan x="26.22" dy="1.2em" class="l">Online </tspan><tspan x="27.38" dy="1.2em" class="l">Plan 2</tspan></text></g></a><a target="_blank" href="https://docs.microsoft.com/powerapps/teams/overview-data-platform" rel="noopener"><g transform="translate(368,-432)"><rect x="0" y="1024" width="96" height="80" rx="8" ry="8" class="z"/><text x="16.5" y="1051.4" class="p">Microsoft <tspan x="14.53" dy="1.2em" class="l">Dataverse </tspan><tspan x="14.55" dy="1.2em" class="l">for Teams</tspan></text></g></a><a target="_blank" href="https://www.microsoft.com/microsoft-365/microsoft-lists" rel="noopener"><g transform="translate(592,-432)"><rect x="0" y="1024" width="96" height="80" rx="8" ry="8" class="z"/><text x="16.5" y="1059.8" class="p">Microsoft <tspan x="31.66" dy="1.2em" class="l">Lists</tspan></text></g></a><a target="_blank" href="https://docs.microsoft.com/microsoft-365/bookings/bookings-overview" rel="noopener"><g transform="translate(144,-624)"><rect x="0" y="1024" width="96" height="80" rx="8" ry="8" class="z"/><text x="16.11" y="1068.2" class="p">Bookings</text></g></a><a target="_blank" href="https://www.microsoft.com/download/details.aspx?id=48734" rel="noopener"><g transform="translate(256,-528)"><rect x="0" y="1024" width="96" height="80" rx="8" ry="8" class="z"/><text x="20" y="1059.8" class="p">InfoPath<tspan x="34.39" dy="1.2em" class="l">App</tspan></text></g></a><a target="_blank" href="https://docs.microsoft.com/office365/securitycompliance/search-the-audit-log-in-security-and-compliance" rel="noopener"><g transform="translate(368,-720)"><rect x="0" y="1024" width="96" height="80" rx="8" ry="8" class="z"/><text x="30.12" y="1059.8" class="p">Audit <tspan x="20.4" dy="1.2em" class="l">Logging</tspan></text></g></a><a target="_blank" href="https://docs.microsoft.com/microsoft-365/compliance/alert-policies" rel="noopener"><g transform="translate(144,-720)"><rect x="0" y="1024" width="96" height="80" rx="8" ry="8" class="z"/><text x="32.05" y="1059.8" class="p">Alert <tspan x="21.54" dy="1.2em" class="l">Policies</tspan></text></g></a><a target="_blank" href="https://support.microsoft.com/office/d236aef8-fcdf-4b5e-b5d7-7f157461e920" rel="noopener"><g transform="translate(368,-336)"><rect x="0" y="1024" width="96" height="80" rx="8" ry="8" class="z"/><text x="16.5" y="1059.8" class="p">Microsoft <tspan x="9.5" dy="1.2em" class="l">Whiteboard</tspan></text></g></a><a target="_blank" href="https://www.microsoft.com/microsoft-365/microsoft-to-do-list-app" rel="noopener"><g transform="translate(256,-336)"><rect x="0" y="1024" width="96" height="80" rx="8" ry="8" class="z"/><text x="16.5" y="1059.8" class="p">Microsoft <tspan x="27.79" dy="1.2em" class="l">To</tspan>-Do</text></g></a><a target="_blank" href="https://docs.microsoft.com/power-virtual-agents/teams/fundamentals-what-is-power-virtual-agents-teams" rel="noopener"><g transform="translate(592,-240)"><rect x="0" y="1024" width="96" height="80" rx="8" ry="8" class="z"/><text x="6.46" y="1052.3" class="x">Power Virtual <tspan x="15.5" dy="1.2em" class="l">Agents for </tspan><tspan x="27.4" dy="1.2em" class="l">Teams</tspan></text></g></a><a target="_blank" href="https://products.office.com/mobile/office" rel="noopener"><g transform="translate(592,-336)"><rect x="0" y="1024" width="96" height="80" rx="8" ry="8" class="z"/><text x="28.16" y="1059.8" class="p">Office<tspan x="6.39" dy="1.2em" class="l">Mobile Apps</tspan></text></g></a><a target="_blank" href="https://docs.microsoft.com/office365/servicedescriptions/office-online-service-description/office-online-service-description" rel="noopener"><g transform="translate(480,-336)"><rect x="0" y="1024" width="96" height="80" rx="8" ry="8" class="z"/><text x="28.16" y="1051.4" class="p">Office<tspan x="9.5" dy="1.2em" class="l">for the Web</tspan><tspan x="12.61" dy="1.2em" class="l">(incl Visio)</tspan></text></g></a><a target="_blank" href="https://docs.microsoft.com/microsoft-365/admin/basic-mobility-security/capabilities" rel="noopener"><g transform="translate(592,-720)"><rect x="0" y="1024" width="96" height="80" rx="8" ry="8" class="z"/><text x="29.32" y="1051.4" class="p">Basic <tspan x="14.56" dy="1.2em" class="l">Mobility &amp; </tspan><tspan x="20.38" dy="1.2em" class="l">Security</tspan></text></g></a><a target="_blank" href="https://azure.microsoft.com/pricing/details/active-directory/" rel="noopener"><g transform="translate(480,-720)"><rect x="0" y="1024" width="96" height="80" rx="8" ry="8" class="z"/><text x="5.22" y="1059.8" class="p">Azure AD for <tspan x="14.54" dy="1.2em" class="l">Office 365</tspan></text></g></a><a target="_blank" href="https://docs.microsoft.com/microsoft-365/compliance/sensitivity-labels" rel="noopener"><g transform="translate(368,-528)"><rect x="0" y="1024" width="96" height="80" rx="8" ry="8" class="z"/><text x="9.5" y="1051.4" class="p">Information <tspan x="13.39" dy="1.2em" class="l">Protection</tspan><tspan x="19.21" dy="1.2em" class="l">for M365</tspan></text></g></a><a target="_blank" href="https://docs.microsoft.com/microsoftteams/audio-conferencing-in-office-365" rel="noopener"><g transform="translate(256,-720)"><rect x="0" y="1024" width="96" height="80" rx="8" ry="8" class="z"/><text x="29.59" y="1052.3" class="x">Audio <tspan x="6.11" dy="1.2em" class="l">Conferencing </tspan><tspan x="7.91" dy="1.2em" class="l">(Dial In Only)</tspan></text></g></a><g transform="translate(1904,-128)"><rect x="0" y="416" width="160" height="688" rx="8" ry="8" class="ba"/></g><a target="_blank" href="https://docs.microsoft.com/windows/security/threat-protection/microsoft-defender-atp/overview-attack-surface-reduction" rel="noopener"><g transform="translate(1952,-336)"><rect x="0" y="1024" width="96" height="80" rx="8" ry="8" class="w"/><text x="14.55" y="1059.8" class="p">Enhanced <tspan x="33.22" dy="1.2em" class="l">ASR</tspan></text></g></a><a target="_blank" href="https://docs.microsoft.com/windows/security/threat-protection/microsoft-defender-atp/microsoft-defender-atp-mac" rel="noopener"><g transform="translate(1952,-528)"><rect x="0" y="1024" width="96" height="80" rx="8" ry="8" class="w"/><text x="6.38" y="1051.4" class="p">Defender for <tspan x="17.68" dy="1.2em" class="l">Endpoint </tspan><tspan x="29.72" dy="1.2em" class="l">(Mac)</tspan></text></g></a><a target="_blank" href="https://docs.microsoft.com/microsoft-365/security/defender-endpoint/non-windows" rel="noopener"><g transform="translate(1952,-432)"><rect x="0" y="1024" width="96" height="80" rx="8" ry="8" class="w"/><text x="6.38" y="1051.4" class="p">Defender for <tspan x="17.68" dy="1.2em" class="l">Endpoint </tspan><tspan x="21.17" dy="1.2em" class="l">(Mobile)</tspan></text></g></a><a target="_blank" href="https://techcommunity.microsoft.com/t5/microsoft-defender-for-endpoint/introducing-microsoft-defender-for-endpoint-plan-1/ba-p/2636641" rel="noopener"><g transform="translate(848,976) rotate(-90)"><rect x="0" y="1056" width="688" height="48" rx="8" ry="8" class="m"/><text x="181.43" y="1084.2" class="n">Microsoft Defender for Endpoint Plan 1 (preview)</text></g></a><a target="_blank" href="https://docs.microsoft.com/windows/security/threat-protection/microsoft-defender-antivirus/prevent-changes-to-security-settings-with-tamper-protection" rel="noopener"><g transform="translate(1952,-240)"><rect x="0" y="1024" width="96" height="80" rx="8" ry="8" class="w"/><text x="22.71" y="1059.8" class="p">Tamper <tspan x="13.39" dy="1.2em" class="l">Protection</tspan></text></g></a><a target="_blank" href="https://docs.microsoft.com/windows/security/threat-protection/microsoft-defender-antivirus/configure-block-at-first-sight-microsoft-defender-antivirus" rel="noopener"><g transform="translate(1952,-720)"><rect x="0" y="1024" width="96" height="80" rx="8" ry="8" class="w"/><text x="20.77" y="1059.8" class="p">Block at <tspan x="13.39" dy="1.2em" class="l">First Sight</tspan></text></g></a><a target="_blank" href="https://docs.microsoft.com/windows/security/threat-protection/microsoft-defender-atp/web-content-filtering" rel="noopener"><g transform="translate(1952,-144)"><rect x="0" y="1024" width="96" height="80" rx="8" ry="8" class="w"/><text x="4.84" y="1059.8" class="p">Web Content <tspan x="20.39" dy="1.2em" class="l">Filtering</tspan></text></g></a><a target="_blank" href="https://docs.microsoft.com/windows/security/threat-protection/microsoft-defender-atp/microsoft-cloud-app-security-integration" rel="noopener"><g transform="translate(1952,-624)"><rect x="0" y="1024" width="96" height="80" rx="8" ry="8" class="w"/><text x="12.62" y="1051.4" class="p">Cloud App <tspan x="20.38" dy="1.2em" class="l">Security </tspan><tspan x="11.83" dy="1.2em" class="l">Integration</tspan></text></g></a></g></svg>