<svg xmlns="http://www.w3.org/2000/svg" width="1824" height="912" viewBox="0 0 1824 912" class="a"><style>
.b {fill:#a5a5a5;fill-opacity:0.2;stroke:#7030a0;stroke-linecap:round;stroke-linejoin:round;stroke-width:2.25}
.c {fill:#a5a5a5;fill-opacity:0.2;stroke:#2080a0;stroke-dasharray:33.75,20.25;stroke-linecap:round;stroke-linejoin:round;stroke-width:2.25}
.d {fill:#a5a5a5;fill-opacity:0.2;stroke:#0070f7;stroke-dasharray:2.25,4.5;stroke-linecap:round;stroke-linejoin:round;stroke-width:2.25}
.e {fill:#a5a5a5;fill-opacity:0.2;stroke:#a41500;stroke-dasharray:33.75,20.25;stroke-linecap:round;stroke-linejoin:round;stroke-width:2.25}
.f {fill:#a5a5a5;fill-opacity:0.2;stroke:#008800;stroke-dasharray:33.75,20.25;stroke-linecap:round;stroke-linejoin:round;stroke-width:2.25}
.g {fill:#2080a0;stroke:#2080a0;stroke-linecap:round;stroke-linejoin:round;stroke-width:2.25}
.h {fill:#ffffff;font-family:Arial;font-size:1.66667em;font-weight:bold}
.i {fill:#008800;stroke:#008800;stroke-linecap:round;stroke-linejoin:round;stroke-width:2.25}
.j {fill:#a41500;stroke:#a41500;stroke-linecap:round;stroke-linejoin:round;stroke-width:2.25}
.k {fill:#2080a0;stroke:none;stroke-linecap:round;stroke-linejoin:round;stroke-width:0.24}
.l {fill:#ffffff;font-family:Arial;font-size:1.16666em;font-weight:bold}
.m {font-size:1em}
.n {fill:#7030a0;stroke:#7030a0;stroke-linecap:round;stroke-linejoin:round;stroke-width:2.25}
.o {fill:none;stroke:none;stroke-linecap:round;stroke-linejoin:round;stroke-width:0.75}
.p {fill:#0070f7;font-family:Arial;font-size:3em;font-weight:bold}
.q {fill:#0070f7;font-family:Arial;font-size:2.50001em;font-weight:bold}
.r {fill:#0070f7;font-family:Arial;font-size:1.5em;font-weight:bold}
.s {fill:#008800;stroke:none;stroke-linecap:round;stroke-linejoin:round;stroke-width:2.25}
.t {fill:#008800;stroke:none;stroke-linecap:round;stroke-linejoin:round;stroke-width:0.24}
.u {fill:#0070f7;stroke:none;stroke-linecap:round;stroke-linejoin:round;stroke-width:0.24}
.v {fill:none;stroke:none;stroke-linecap:round;stroke-linejoin:round;stroke-width:1}
.w {fill:#000000;font-family:Arial;font-size:1.16666em;font-weight:bold}
.x {baseline-shift:32.4943%;font-size:0.649886em}
.y {fill:#008800;stroke:none;stroke-linecap:round;stroke-linejoin:round;stroke-width:2}
.z {fill:#ffffff;font-family:Arial;font-size:1.00001em;font-weight:bold}
.ba {fill:#a41500;stroke:none;stroke-linecap:round;stroke-linejoin:round;stroke-width:1}
.bb {font-size:0.785725em}
.bc {fill:#ffffff;font-family:Arial;font-size:1.08334em;font-weight:bold}
.bd {font-size:0.928588em}
.a {fill:none;fill-rule:evenodd;font-size:12px;overflow:visible;stroke-linecap:square;stroke-miterlimit:3}
</style><g><g transform="translate(16,-80)"><rect x="0" y="288" width="1792" height="624" rx="8" ry="8" class="b"/></g><g transform="translate(720,-16)"><rect x="0" y="160" width="496" height="752" rx="8" ry="8" class="c"/></g><g transform="translate(736,-144)"><rect x="0" y="480" width="464" height="432" rx="8" ry="8" class="d"/></g><g transform="translate(80,-16)"><rect x="0" y="160" width="608" height="752" rx="8" ry="8" class="e"/></g><g transform="translate(1248,-16)"><rect x="0" y="160" width="496" height="752" rx="8" ry="8" class="f"/></g><a target="_blank" href="https://www.microsoft.com/cloud-platform/enterprise-mobility-security" rel="noopener"><g transform="translate(720,-736)"><rect x="0" y="880" width="496" height="32" rx="8" ry="8" class="g"/><text x="107.13" y="902" class="h">Enterprise Mobility + Security</text></g></a><a target="_blank" href="https://www.microsoft.com/windowsforbusiness" rel="noopener"><g transform="translate(1248,-736)"><rect x="0" y="880" width="496" height="32" rx="8" ry="8" class="i"/><text x="204.12" y="902" class="h">Windows</text></g></a><a target="_blank" href="https://products.office.com/business/" rel="noopener"><g transform="translate(80,-736)"><rect x="0" y="880" width="608" height="32" rx="8" ry="8" class="j"/><text x="256.2" y="902" class="h">Office 365</text></g></a><a target="_blank" href="https://docs.microsoft.com/mem/intune/fundamentals/what-is-intune" rel="noopener"><g transform="translate(976,-592)"><rect x="0" y="832" width="96" height="80" rx="8" ry="8" class="k"/><text x="8.34" y="867.8" class="l">Intune MDM <tspan x="24.28" dy="1.2em" class="m">&amp; MAM</tspan></text></g></a><a target="_blank" href="https://www.microsoft.com/microsoft-365/business/microsoft-365-business-premium" rel="noopener"><g transform="translate(-864,832) rotate(-90)"><rect x="0" y="880" width="624" height="32" rx="8" ry="8" class="n"/><text x="154.72" y="902" class="h">Microsoft 365 Business Premium</text></g></a><a target="_blank" href="https://m365maps.com/" rel="noopener"><g transform="translate(16,-848)"><rect x="0" y="864" width="1792" height="48" class="o"/><text x="612.9" y="898.8" class="p">Microsoft 365 Business Premium</text></g></a><g transform="translate(16,-816)"><rect x="0" y="880" width="1792" height="32" class="o"/><text x="800.95" y="905" class="q">October 2021</text></g><a target="_blank" href="https://m365maps.com/" rel="noopener"><g transform="translate(16,-784)"><rect x="0" y="880" width="1792" height="32" class="o"/><text x="828.46" y="901.4" class="r">m365maps.com</text></g></a><a target="_blank" href="https://support.microsoft.com/help/17209/windows-10-use-touch-with-windows" rel="noopener"><g transform="translate(1280,-304)"><rect x="0" y="832" width="96" height="80" rx="8" ry="8" class="s"/><text x="10.65" y="859.4" class="l">Voice, Pen, <tspan x="11.06" dy="1.2em" class="m">Touch, Ink, </tspan><tspan x="7.16" dy="1.2em" class="m">and Gesture</tspan></text></g></a><a target="_blank" href="https://docs.microsoft.com/microsoft-store/microsoft-store-for-business-overview" rel="noopener"><g transform="translate(1392,-400)"><rect x="0" y="832" width="96" height="80" rx="8" ry="8" class="s"/><text x="16.5" y="859.4" class="l">Microsoft <tspan x="18.83" dy="1.2em" class="m">Store for </tspan><tspan x="16.88" dy="1.2em" class="m">Business</tspan></text></g></a><a target="_blank" href="https://docs.microsoft.com/windows-server/identity/ad-fs/operations/configure-device-based-conditional-access-on-premises" rel="noopener"><g transform="translate(1504,-304)"><rect x="0" y="832" width="96" height="80" rx="8" ry="8" class="s"/><text x="17.28" y="859.4" class="l">Windows <tspan x="9.51" dy="1.2em" class="m">Conditional </tspan><tspan x="23.48" dy="1.2em" class="m">Access</tspan></text></g></a><a target="_blank" href="https://docs.microsoft.com/windows/security/information-protection/windows-information-protection/protect-enterprise-data-using-wip" rel="noopener"><g transform="translate(1392,-208)"><rect x="0" y="832" width="96" height="80" rx="8" ry="8" class="s"/><text x="17.28" y="859.4" class="l">Windows <tspan x="9.5" dy="1.2em" class="m">Information </tspan><tspan x="13.39" dy="1.2em" class="m">Protection</tspan></text></g></a><a target="_blank" href="https://docs.microsoft.com/windows/deployment/update/waas-manage-updates-wufb" rel="noopener"><g transform="translate(1504,-208)"><rect x="0" y="832" width="96" height="80" rx="8" ry="8" class="s"/><text x="17.28" y="859.4" class="l">Windows <tspan x="13" dy="1.2em" class="m">Update for </tspan><tspan x="16.88" dy="1.2em" class="m">Business</tspan></text></g></a><a target="_blank" href="https://docs.microsoft.com/windows/security/identity-protection/hello-for-business/hello-identity-verification" rel="noopener"><g transform="translate(1280,-208)"><rect x="0" y="832" width="96" height="80" rx="8" ry="8" class="s"/><text x="17.28" y="859.4" class="l">Windows <tspan x="19.61" dy="1.2em" class="m">Hello for </tspan><tspan x="16.88" dy="1.2em" class="m">Business</tspan></text></g></a><a target="_blank" href="https://www.microsoft.com/edge/business" rel="noopener"><g transform="translate(1504,-496)"><rect x="0" y="832" width="96" height="80" rx="8" ry="8" class="s"/><text x="19.61" y="867.8" class="l">Edge for <tspan x="16.88" dy="1.2em" class="m">Business</tspan></text></g></a><a target="_blank" href="https://support.microsoft.com/help/17214/windows-10-what-is" rel="noopener"><g transform="translate(1392,-496)"><rect x="0" y="832" width="96" height="80" rx="8" ry="8" class="s"/><text x="21.55" y="876.2" class="l">Cortana</text></g></a><a target="_blank" href="https://docs.microsoft.com/windows/security/threat-protection/windows-defender-application-guard/wd-app-guard-overview" rel="noopener"><g transform="translate(1392,-592)"><rect x="0" y="832" width="96" height="80" rx="8" ry="8" class="t"/><text x="9.89" y="867.8" class="l">Application <tspan x="27.39" dy="1.2em" class="m">Guard</tspan></text></g></a><a target="_blank" href="https://docs.microsoft.com/azure/active-directory/devices/concept-azure-ad-join" rel="noopener"><g transform="translate(1504,-592)"><rect x="0" y="832" width="96" height="80" rx="8" ry="8" class="t"/><text x="16.5" y="859.4" class="l">Azure AD<tspan x="15.33" dy="1.2em" class="m">&amp; Domain </tspan><tspan x="33.61" dy="1.2em" class="m">Join</tspan></text></g></a><a target="_blank" href="https://www.microsoft.com/windows/comprehensive-security" rel="noopener"><g transform="translate(1280,-400)"><rect x="0" y="832" width="96" height="80" rx="8" ry="8" class="t"/><text x="16.5" y="859.4" class="l">Microsoft <tspan x="17.66" dy="1.2em" class="m">Defender </tspan><tspan x="17.66" dy="1.2em" class="m">Antivirus</tspan></text></g></a><a target="_blank" href="https://docs.microsoft.com/windows/deployment/windows-autopilot/windows-autopilot" rel="noopener"><g transform="translate(1392,-304)"><rect x="0" y="832" width="96" height="80" rx="8" ry="8" class="s"/><text x="17.28" y="867.8" class="l">Windows <tspan x="17.29" dy="1.2em" class="m">Autopilot</tspan></text></g></a><a target="_blank" href="https://docs.microsoft.com/windows/security/information-protection/bitlocker/bitlocker-overview" rel="noopener"><g transform="translate(1280,-496)"><rect x="0" y="832" width="96" height="80" rx="8" ry="8" class="t"/><text x="8.71" y="859.4" class="l">BitLocker &amp; <tspan x="7.16" dy="1.2em" class="m">BitLocker to </tspan><tspan x="38.28" dy="1.2em" class="m">Go</tspan></text></g></a><a target="_blank" href="https://docs.microsoft.com/windows/security/threat-protection/windows-firewall/windows-firewall-with-advanced-security" rel="noopener"><g transform="translate(1616,-304)"><rect x="0" y="832" width="96" height="80" rx="8" ry="8" class="s"/><text x="17.28" y="867.8" class="l">Windows <tspan x="21.93" dy="1.2em" class="m">Firewall</tspan></text></g></a><a target="_blank" href="https://docs.microsoft.com/windows/security/threat-protection/windows-defender-application-control/windows-defender-application-control" rel="noopener"><g transform="translate(1280,-592)"><rect x="0" y="832" width="96" height="80" rx="8" ry="8" class="s"/><text x="9.89" y="867.8" class="l">Application <tspan x="23.12" dy="1.2em" class="m">Control</tspan></text></g></a><a target="_blank" href="https://www.microsoft.com/cloud-platform/desktop-virtualization" rel="noopener"><g transform="translate(1616,-592)"><rect x="0" y="832" width="96" height="80" rx="8" ry="8" class="t"/><text x="4.82" y="867.8" class="l">Azure Virtual <tspan x="20.38" dy="1.2em" class="m">Desktop</tspan></text></g></a><a target="_blank" href="https://docs.microsoft.com/windows/client-management/mdm/" rel="noopener"><g transform="translate(1616,-496)"><rect x="0" y="832" width="96" height="80" rx="8" ry="8" class="s"/><text x="11.82" y="867.8" class="l">Manage by <tspan x="31.28" dy="1.2em" class="m">MDM</tspan></text></g></a><a target="_blank" href="https://docs.microsoft.com/azure/active-directory/reports-monitoring/" rel="noopener"><g transform="translate(752,-480)"><rect x="0" y="832" width="96" height="80" rx="8" ry="8" class="u"/><text x="14.55" y="851" class="l">Advanced <tspan x="20.38" dy="1.2em" class="m">Security </tspan><tspan x="14.55" dy="1.2em" class="m">Reports &amp; </tspan><tspan x="28.16" dy="1.2em" class="m">Alerts</tspan></text></g></a><a target="_blank" href="https://docs.microsoft.com/azure/active-directory/hybrid/how-to-connect-sso" rel="noopener"><g transform="translate(864,-192)"><rect x="0" y="832" width="96" height="80" rx="8" ry="8" class="u"/><text x="7.17" y="859.4" class="l">Single-Sign-<tspan x="10.28" dy="1.2em" class="m">On to other </tspan><tspan x="30.88" dy="1.2em" class="m">SaaS</tspan></text></g></a><a target="_blank" href="https://docs.microsoft.com/azure/active-directory/manage-apps/application-proxy" rel="noopener"><g transform="translate(864,-480)"><rect x="0" y="832" width="96" height="80" rx="8" ry="8" class="u"/><text x="11.05" y="859.4" class="l">App Proxy, <tspan x="16.89" dy="1.2em" class="m">including </tspan><tspan x="8.31" dy="1.2em" class="m">PingAccess</tspan></text></g></a><a target="_blank" href="https://docs.microsoft.com/azure/active-directory/authentication/concept-mfa-howitworks" rel="noopener"><g transform="translate(864,-288)"><rect x="0" y="832" width="96" height="80" rx="8" ry="8" class="u"/><text x="7.95" y="867.8" class="l">Multi-Factor <tspan x="10.29" dy="1.2em" class="m">Auth (MFA)</tspan></text></g></a><a target="_blank" href="https://docs.microsoft.com/azure/active-directory/hybrid/whatis-azure-ad-connect#what-is-azure-ad-connect-health" rel="noopener"><g transform="translate(976,-480)"><rect x="0" y="832" width="96" height="80" rx="8" ry="8" class="u"/><text x="16.5" y="859.4" class="l">Azure AD <tspan x="20" dy="1.2em" class="m">Connect </tspan><tspan x="26.61" dy="1.2em" class="m">Health</tspan></text></g></a><a target="_blank" href="https://docs.microsoft.com/cloud-app-security/set-up-cloud-discovery" rel="noopener"><g transform="translate(864,-384)"><rect x="0" y="832" width="96" height="80" rx="8" ry="8" class="u"/><text x="12.62" y="867.8" class="l">Cloud App <tspan x="14.54" dy="1.2em" class="m">Discovery</tspan></text></g></a><a target="_blank" href="https://docs.microsoft.com/azure/active-directory/users-groups-roles/users-sharing-accounts" rel="noopener"><g transform="translate(752,-192)"><rect x="0" y="832" width="96" height="80" rx="8" ry="8" class="u"/><text x="24.27" y="851" class="l">Shared <tspan x="20" dy="1.2em" class="m">Account </tspan><tspan x="14.93" dy="1.2em" class="m">Password </tspan><tspan x="16.49" dy="1.2em" class="m">Roll</tspan>-Over</text></g></a><a target="_blank" href="https://docs.microsoft.com/azure/active-directory/authentication/concept-sspr-howitworks" rel="noopener"><g transform="translate(1088,-288)"><rect x="0" y="832" width="96" height="80" rx="8" ry="8" class="u"/><text x="7.92" y="859.4" class="l">Self-Service <tspan x="14.93" dy="1.2em" class="m">Password </tspan><tspan x="8.71" dy="1.2em" class="m">Reset in AD</tspan></text></g></a><a target="_blank" href="https://docs.microsoft.com/azure/active-directory/users-groups-roles/groups-self-service-management" rel="noopener"><g transform="translate(976,-288)"><rect x="0" y="832" width="96" height="80" rx="8" ry="8" class="u"/><text x="7.92" y="859.4" class="l">Self-Service <tspan x="27" dy="1.2em" class="m">Group </tspan><tspan x="5.21" dy="1.2em" class="m">Management</tspan></text></g></a><a target="_blank" href="https://docs.microsoft.com/azure/active-directory/conditional-access/overview" rel="noopener"><g transform="translate(976,-384)"><rect x="0" y="832" width="96" height="80" rx="8" ry="8" class="u"/><text x="9.51" y="867.8" class="l">Conditional <tspan x="23.48" dy="1.2em" class="m">Access</tspan></text></g></a><a target="_blank" href="https://azure.microsoft.com/pricing/details/active-directory/" rel="noopener"><g transform="translate(736,-144)"><rect x="0" y="864" width="464" height="48" rx="8" ry="8" class="v"/><text x="146.03" y="892.2" class="w">Azure AD Premium Plan 1</text></g></a><a target="_blank" href="https://docs.microsoft.com/azure/active-directory/external-identities/" rel="noopener"><g transform="translate(1088,-480)"><rect x="0" y="832" width="96" height="80" rx="8" ry="8" class="u"/><text x="16.5" y="859.4" class="l">Azure AD <tspan x="20.38" dy="1.2em" class="m">External </tspan><tspan x="17.27" dy="1.2em" class="m">Identities</tspan></text></g></a><a target="_blank" href="https://docs.microsoft.com/azure/active-directory/devices/enterprise-state-roaming-overview" rel="noopener"><g transform="translate(1088,-384)"><rect x="0" y="832" width="96" height="80" rx="8" ry="8" class="u"/><text x="13.38" y="859.4" class="l">Enterprise <tspan x="30.88" dy="1.2em" class="m">State </tspan><tspan x="18.06" dy="1.2em" class="m">Roaming</tspan></text></g></a><a target="_blank" href="https://docs.microsoft.com/azure/active-directory/governance/active-directory-tou" rel="noopener"><g transform="translate(976,-192)"><rect x="0" y="832" width="96" height="80" rx="8" ry="8" class="u"/><text x="18.44" y="867.8" class="l">Terms of <tspan x="35.16" dy="1.2em" class="m">Use</tspan></text></g></a><a target="_blank" href="https://docs.microsoft.com/azure/active-directory/authentication/concept-password-ban-bad" rel="noopener"><g transform="translate(752,-384)"><rect x="0" y="832" width="96" height="80" rx="8" ry="8" class="u"/><text x="16.5" y="859.4" class="l">Azure AD <tspan x="14.93" dy="1.2em" class="m">Password </tspan><tspan x="13.39" dy="1.2em" class="m">Protection</tspan></text></g></a><a target="_blank" href="https://docs.microsoft.com/microsoft-identity-manager/" rel="noopener"><g transform="translate(752,-288)"><rect x="0" y="832" width="96" height="80" rx="8" ry="8" class="u"/><text x="16.5" y="859.4" class="l">Microsoft <tspan x="23.11" dy="1.2em" class="m">Identity </tspan><tspan x="19.21" dy="1.2em" class="m">Manager</tspan></text></g></a><a target="_blank" href="https://docs.microsoft.com/azure/active-directory/conditional-access/controls#custom-controls-preview" rel="noopener"><g transform="translate(1088,-192)"><rect x="0" y="832" width="96" height="80" rx="8" ry="8" class="u"/><text x="20.78" y="859.4" class="l">3<tspan dy="-0.235em" class="x">rd </tspan><tspan dy="0.153em" class="m">Party  </tspan><tspan x="32.84" dy="1.2em" class="m">MFA </tspan><tspan x="11.83" dy="1.2em" class="m">Integration</tspan></text></g></a><a target="_blank" href="https://docs.microsoft.com/mem/analytics/overview" rel="noopener"><g transform="translate(752,-592)"><rect x="0" y="832" width="96" height="80" rx="8" ry="8" class="k"/><text x="17.68" y="867.8" class="l">Endpoint <tspan x="16.88" dy="1.2em" class="m">Analytics</tspan></text></g></a><a target="_blank" href="https://docs.microsoft.com/azure/information-protection/what-is-information-protection" rel="noopener"><g transform="translate(864,-592)"><rect x="0" y="832" width="96" height="80" rx="8" ry="8" class="k"/><text x="9.5" y="867.8" class="l">Information <tspan x="13.39" dy="1.2em" class="m">Protection</tspan></text></g></a><a target="_blank" href="https://docs.microsoft.com/universal-print/" rel="noopener"><g transform="translate(1616,-400)"><rect x="0" y="832" width="96" height="80" rx="8" ry="8" class="s"/><text x="16.48" y="867.8" class="l">Universal <tspan x="32.06" dy="1.2em" class="m">Print</tspan></text></g></a><a target="_blank" href="https://go.microsoft.com/fwlink/?linkid=2085130" rel="noopener"><g transform="translate(1504,-400)"><rect x="0" y="832" width="96" height="80" rx="8" ry="8" class="y"/><text x="29.99" y="854" class="z">Power <tspan x="20.33" dy="1.2em" class="m">Automate </tspan><tspan x="22" dy="1.2em" class="m">Attended </tspan><tspan x="5.66" dy="1.2em" class="m">Desktop Flows</tspan></text></g></a><a target="_blank" href="https://products.office.com/business/" rel="noopener"><g transform="translate(80,-16)"><rect x="0" y="880" width="608" height="32" rx="8" ry="8" class="j"/><text x="256.2" y="902" class="h">Office 365</text></g></a><a target="_blank" href="https://www.microsoft.com/microsoft-365/business/microsoft-365-business-premium" rel="noopener"><g transform="translate(896,832) rotate(-90)"><rect x="0" y="880" width="624" height="32" rx="8" ry="8" class="n"/><text x="154.72" y="902" class="h">Microsoft 365 Business Premium</text></g></a><a target="_blank" href="https://www.microsoft.com/cloud-platform/enterprise-mobility-security" rel="noopener"><g transform="translate(720,-16)"><rect x="0" y="880" width="496" height="32" rx="8" ry="8" class="g"/><text x="107.13" y="902" class="h">Enterprise Mobility + Security</text></g></a><a target="_blank" href="https://www.microsoft.com/windowsforbusiness" rel="noopener"><g transform="translate(1248,-16)"><rect x="0" y="880" width="496" height="32" rx="8" ry="8" class="i"/><text x="204.12" y="902" class="h">Windows</text></g></a><a target="_blank" href="https://docs.microsoft.com/office365/servicedescriptions/exchange-online-service-description/exchange-online-service-description#feature-availability-across-exchange-online-standalone-plans" rel="noopener"><g transform="translate(224,-496)"><rect x="0" y="832" width="96" height="80" rx="8" ry="8" class="ba"/><text x="14.93" y="859.4" class="l">Exchange <tspan x="26.22" dy="1.2em" class="m">Online </tspan><tspan x="27.38" dy="1.2em" class="m">Plan 1</tspan></text></g></a><a target="_blank" href="https://docs.microsoft.com/sharepoint/introduction" rel="noopener"><g transform="translate(112,-112)"><rect x="0" y="832" width="96" height="80" rx="8" ry="8" class="ba"/><text x="11.05" y="859.4" class="l">SharePoint <tspan x="26.22" dy="1.2em" class="m">Online</tspan><tspan x="27.38" dy="1.2em" class="m">Plan 1</tspan></text></g></a><a target="_blank" href="https://docs.microsoft.com/office365/servicedescriptions/onedrive-for-business-service-description" rel="noopener"><g transform="translate(112,-208)"><rect x="0" y="832" width="96" height="80" rx="8" ry="8" class="ba"/><text x="5.6" y="859.4" class="l">OneDrive for <tspan x="16.88" dy="1.2em" class="m">Business </tspan><tspan x="27.38" dy="1.2em" class="m">Plan 1</tspan></text></g></a><a target="_blank" href="https://products.office.com/yammer/yammer-overview" rel="noopener"><g transform="translate(448,-112)"><rect x="0" y="832" width="96" height="80" rx="8" ry="8" class="ba"/><text x="20.37" y="867.8" class="l">Yammer <tspan x="13.38" dy="1.2em" class="m">Enterprise</tspan></text></g></a><a target="_blank" href="https://products.office.com/business/task-management-software" rel="noopener"><g transform="translate(224,-208)"><rect x="0" y="832" width="96" height="80" rx="8" ry="8" class="ba"/><text x="22.32" y="876.2" class="l">Planner</text></g></a><a target="_blank" href="https://products.office.com/microsoft-teams/" rel="noopener"><g transform="translate(112,-304)"><rect x="0" y="832" width="96" height="80" rx="8" ry="8" class="ba"/><text x="16.5" y="867.8" class="l">Microsoft <tspan x="25.82" dy="1.2em" class="m">Teams</tspan></text></g></a><a target="_blank" href="https://docs.microsoft.com/stream/" rel="noopener"><g transform="translate(224,-112)"><rect x="0" y="832" width="96" height="80" rx="8" ry="8" class="ba"/><text x="12.99" y="867.8" class="l">Stream for <tspan x="14.54" dy="1.2em" class="m">Office 365</tspan></text></g></a><a target="_blank" href="https://products.office.com/business/myanalytics-personal-analytics" rel="noopener"><g transform="translate(448,-496)"><rect x="0" y="832" width="96" height="80" rx="8" ry="8" class="ba"/><text x="11.05" y="867.8" class="l">Insights by <tspan x="7.15" dy="1.2em" class="m">MyAnalytics</tspan></text></g></a><a target="_blank" href="https://powerapps.microsoft.com/" rel="noopener"><g transform="translate(336,-208)"><rect x="0" y="832" width="96" height="80" rx="8" ry="8" class="ba"/><text x="7.55" y="859.4" class="l">Power Apps<tspan x="38.67" dy="1.2em" class="m">for</tspan><tspan x="14.54" dy="1.2em" class="m">Office 365</tspan></text></g></a><a target="_blank" href="https://powerautomate.microsoft.com/" rel="noopener"><g transform="translate(448,-208)"><rect x="0" y="832" width="96" height="80" rx="8" ry="8" class="ba"/><text x="26.99" y="859.4" class="l">Power <tspan x="4.45" dy="1.2em" class="m">Automate for</tspan><tspan x="14.54" dy="1.2em" class="m">Office 365</tspan></text></g></a><a target="_blank" href="https://support.office.com/sway" rel="noopener"><g transform="translate(336,-112)"><rect x="0" y="832" width="96" height="80" rx="8" ry="8" class="ba"/><text x="30.1" y="876.2" class="l">Sway</text></g></a><a target="_blank" href="https://support.office.com/forms" rel="noopener"><g transform="translate(448,-400)"><rect x="0" y="832" width="96" height="80" rx="8" ry="8" class="ba"/><text x="16.5" y="867.8" class="l">Microsoft <tspan x="26.61" dy="1.2em" class="m">Forms</tspan></text></g></a><a target="_blank" href="https://docs.microsoft.com/microsoft-365/bookings/bookings-overview" rel="noopener"><g transform="translate(448,-592)"><rect x="0" y="832" width="96" height="80" rx="8" ry="8" class="ba"/><text x="16.11" y="876.2" class="l">Bookings</text></g></a><a target="_blank" href="https://www.microsoft.com/microsoft-365/business/microsoft-365-apps-for-business" rel="noopener"><g transform="translate(112,-400)"><rect x="0" y="832" width="96" height="80" rx="8" ry="8" class="ba"/><text x="16.5" y="851" class="l">Microsoft <tspan x="5.6" dy="1.2em" class="m">365 Apps for </tspan><tspan x="16.88" dy="1.2em" class="m">Business </tspan><tspan x="20.2" dy="1.527em" class="bb">(with SCA)</tspan></text></g></a><a target="_blank" href="https://docs.microsoft.com/microsoft-365/security/office-365-security/office-365-atp" rel="noopener"><g transform="translate(336,-400)"><rect x="0" y="832" width="96" height="80" rx="8" ry="8" class="ba"/><text x="16.5" y="851" class="l">Microsoft <tspan x="6.38" dy="1.2em" class="m">Defender for </tspan><tspan x="14.54" dy="1.2em" class="m">Office 365 </tspan><tspan x="27.38" dy="1.2em" class="m">Plan 1</tspan></text></g></a><a target="_blank" href="https://docs.microsoft.com/office365/servicedescriptions/exchange-online-archiving-service-description/exchange-online-archiving-service-description" rel="noopener"><g transform="translate(112,-496)"><rect x="0" y="832" width="96" height="80" rx="8" ry="8" class="ba"/><text x="14.93" y="859.4" class="l">Exchange <tspan x="26.22" dy="1.2em" class="m">Online </tspan><tspan x="15.72" dy="1.2em" class="m">Archiving</tspan></text></g></a><a target="_blank" href="https://docs.microsoft.com/office365/securitycompliance/data-loss-prevention-policies" rel="noopener"><g transform="translate(560,-592)"><rect x="0" y="832" width="96" height="80" rx="8" ry="8" class="ba"/><text x="14.55" y="867.8" class="l">Data Loss <tspan x="11.82" dy="1.2em" class="m">Prevention</tspan></text></g></a><a target="_blank" href="https://docs.microsoft.com/office365/securitycompliance/ediscovery-cases" rel="noopener"><g transform="translate(560,-496)"><rect x="0" y="832" width="96" height="80" rx="8" ry="8" class="ba"/><text x="16.51" y="859.4" class="l">Litigation <tspan x="25.45" dy="1.2em" class="m">Hold &amp; </tspan><tspan x="10.64" dy="1.2em" class="m">eDiscovery</tspan></text></g></a><a target="_blank" href="https://docs.microsoft.com/powerapps/teams/overview-data-platform" rel="noopener"><g transform="translate(224,-400)"><rect x="0" y="832" width="96" height="80" rx="8" ry="8" class="ba"/><text x="16.5" y="859.4" class="l">Microsoft <tspan x="14.53" dy="1.2em" class="m">Dataverse </tspan><tspan x="14.55" dy="1.2em" class="m">for Teams</tspan></text></g></a><a target="_blank" href="https://docs.microsoft.com/power-virtual-agents/teams/fundamentals-what-is-power-virtual-agents-teams" rel="noopener"><g transform="translate(560,-208)"><rect x="0" y="832" width="96" height="80" rx="8" ry="8" class="ba"/><text x="6.46" y="860.3" class="bc">Power Virtual <tspan x="15.5" dy="1.2em" class="m">Agents for </tspan><tspan x="27.4" dy="1.2em" class="m">Teams</tspan></text></g></a><a target="_blank" href="https://support.microsoft.com/office/d236aef8-fcdf-4b5e-b5d7-7f157461e920" rel="noopener"><g transform="translate(336,-304)"><rect x="0" y="832" width="96" height="80" rx="8" ry="8" class="ba"/><text x="16.5" y="867.8" class="l">Microsoft <tspan x="9.5" dy="1.2em" class="m">Whiteboard</tspan></text></g></a><a target="_blank" href="https://www.microsoft.com/microsoft-365/microsoft-to-do-list-app" rel="noopener"><g transform="translate(224,-304)"><rect x="0" y="832" width="96" height="80" rx="8" ry="8" class="ba"/><text x="16.5" y="867.8" class="l">Microsoft <tspan x="27.79" dy="1.2em" class="m">To</tspan>-Do</text></g></a><a target="_blank" href="https://www.microsoft.com/microsoft-365/microsoft-lists" rel="noopener"><g transform="translate(560,-400)"><rect x="0" y="832" width="96" height="80" rx="8" ry="8" class="ba"/><text x="16.5" y="867.8" class="l">Microsoft <tspan x="31.66" dy="1.2em" class="m">Lists</tspan></text></g></a><a target="_blank" href="https://docs.microsoft.com/microsoft-365/admin/basic-mobility-security/capabilities" rel="noopener"><g transform="translate(336,-592)"><rect x="0" y="832" width="96" height="80" rx="8" ry="8" class="ba"/><text x="29.32" y="859.4" class="l">Basic <tspan x="14.56" dy="1.2em" class="m">Mobility &amp; </tspan><tspan x="20.38" dy="1.2em" class="m">Security</tspan></text></g></a><a target="_blank" href="https://docs.microsoft.com/office365/servicedescriptions/office-online-service-description/office-online-service-description" rel="noopener"><g transform="translate(448,-304)"><rect x="0" y="832" width="96" height="80" rx="8" ry="8" class="ba"/><text x="28.16" y="859.4" class="l">Office<tspan x="9.5" dy="1.2em" class="m">for the Web</tspan><tspan x="12.61" dy="1.2em" class="m">(incl Visio)</tspan></text></g></a><a target="_blank" href="https://products.office.com/mobile/office" rel="noopener"><g transform="translate(560,-304)"><rect x="0" y="832" width="96" height="80" rx="8" ry="8" class="ba"/><text x="28.16" y="867.8" class="l">Office<tspan x="6.39" dy="1.2em" class="m">Mobile Apps</tspan></text></g></a><a target="_blank" href="https://docs.microsoft.com/microsoft-365/compliance/sensitivity-labels" rel="noopener"><g transform="translate(336,-496)"><rect x="0" y="832" width="96" height="80" rx="8" ry="8" class="ba"/><text x="9.5" y="859.4" class="l">Information <tspan x="13.39" dy="1.2em" class="m">Protection</tspan><tspan x="19.21" dy="1.2em" class="m">for M365</tspan></text></g></a><a target="_blank" href="https://docs.microsoft.com/microsoftteams/audio-conferencing-in-office-365" rel="noopener"><g transform="translate(112,-592)"><rect x="0" y="832" width="96" height="80" rx="8" ry="8" class="ba"/><text x="28.17" y="860.6" class="l">Audio <tspan x="6.11" dy="1.223em" class="bd">Conferencing </tspan><tspan x="7.91" dy="1.2em" class="bd">(Dial In Only)</tspan></text></g></a><a target="_blank" href="https://docs.microsoft.com/office365/securitycompliance/search-the-audit-log-in-security-and-compliance" rel="noopener"><g transform="translate(224,-592)"><rect x="0" y="832" width="96" height="80" rx="8" ry="8" class="ba"/><text x="30.12" y="859.4" class="l">Audit <tspan x="13.4" dy="1.2em" class="m">Logging &amp; </tspan><tspan x="21.56" dy="1.2em" class="m">Alerting</tspan></text></g></a></g></svg>