<svg xmlns="http://www.w3.org/2000/svg" width="592px" height="800px" viewBox="0 0 592 800" class="a"><style>
.b {fill:#a5a5a5;fill-opacity:0.2;stroke:#303040;stroke-linecap:round;stroke-linejoin:round;stroke-width:2.25}
.c {fill:#a5a5a5;fill-opacity:0.2;stroke:#403050;stroke-dasharray:15.75,11.25;stroke-linecap:round;stroke-linejoin:round;stroke-width:2.25}
.d {fill:#d8d8d8;fill-opacity:0.6;stroke:#002060;stroke-linecap:round;stroke-linejoin:round;stroke-width:2.25}
.e {fill:#9050d0;stroke:none;stroke-linecap:round;stroke-linejoin:round;stroke-width:0.5}
.f {fill:#ffffff;font-family:Arial;font-size:1.16666em;font-weight:bold}
.g {font-size:1em}
.h {fill:#ffffff;font-family:Arial;font-size:1.08334em;font-weight:bold}
.i {font-size:0.928588em}
.j {fill:#7030a0;stroke:none;stroke-linecap:round;stroke-linejoin:round;stroke-width:0.5}
.k {fill:#002060;stroke:#002060;stroke-linecap:round;stroke-linejoin:round;stroke-width:2.25}
.l {fill:#ffffff;font-family:Arial;font-size:1.66667em;font-weight:bold}
.m {fill:#ffffff;fill-opacity:0.75;stroke:none;stroke-linecap:round;stroke-linejoin:round;stroke-width:0.5}
.n {fill:#000000;font-family:Arial;font-size:1.16666em}
.o {fill:#e00080;stroke:none;stroke-linecap:round;stroke-linejoin:round;stroke-width:0.5}
.p {fill:#403050;stroke:#403050;stroke-linecap:round;stroke-linejoin:round;stroke-width:2.25}
.q {fill:#303040;stroke:#303040;stroke-linecap:round;stroke-linejoin:round;stroke-width:2.25}
.a {fill:none;fill-rule:evenodd;font-size:12px;overflow:visible;stroke-linecap:square;stroke-miterlimit:3}
</style><g><g transform="translate(16,-192)"><rect x="0" y="208" width="560" height="592" rx="8" ry="8" class="b"/></g><g transform="translate(48,-224)"><rect x="0" y="272" width="208" height="528" rx="8" ry="8" class="c"/></g><g transform="translate(16,-16)"><rect x="0" y="656" width="560" height="144" rx="8" ry="8" class="d"/></g><a target="_blank" href="https://docs.microsoft.com/MicrosoftTeams/what-is-phone-system-in-office-365" rel="noopener"><g transform="translate(128,-352)"><rect x="0" y="720" width="96" height="80" rx="8" ry="8" class="e"/><text x="26.61" y="755.8" class="f">Phone <tspan x="23.1" dy="1.2em" class="g">System</tspan></text></g></a><a target="_blank" href="https://docs.microsoft.com/microsoftteams/audio-conferencing-in-office-365" rel="noopener"><g transform="translate(128,-640)"><rect x="0" y="720" width="96" height="80" rx="8" ry="8" class="e"/><text x="29.59" y="756.1" class="h">Audio <tspan x="6.11" dy="1.2em" class="g">Conferencing</tspan></text></g></a><a target="_blank" href="https://products.office.com/microsoft-teams/" rel="noopener"><g transform="translate(128,-448)"><rect x="0" y="720" width="96" height="80" rx="8" ry="8" class="e"/><text x="16.5" y="755.8" class="f">Microsoft <tspan x="25.82" dy="1.2em" class="g">Teams</tspan></text></g></a><a target="_blank" href="https://docs.microsoft.com/office365/servicedescriptions/skype-for-business-online-service-description/skype-for-business-online-service-description" rel="noopener"><g transform="translate(128,-256)"><rect x="0" y="720" width="96" height="80" rx="8" ry="8" class="e"/><text x="16.1" y="739" class="f">Skype for <tspan x="16.88" dy="1.2em" class="g">Business </tspan><tspan x="27.38" dy="1.2em" class="g">Plan 2</tspan><tspan x="21.28" dy="1.292em" class="i">(retiring)</tspan></text></g></a><a target="_blank" href="https://docs.microsoft.com/microsoftteams/rooms/microsoft-teams-rooms-premium#service-capabilities" rel="noopener"><g transform="translate(400,-352)"><rect x="0" y="720" width="96" height="80" rx="8" ry="8" class="j"/><text x="28.17" y="747.4" class="f">Room <tspan x="11.45" dy="1.2em" class="g">Planning &amp; </tspan><tspan x="23.9" dy="1.2em" class="g">Rollout</tspan></text></g></a><a target="_blank" href="https://docs.microsoft.com/microsoftteams/rooms/microsoft-teams-rooms-premium#service-features" rel="noopener"><g transform="translate(288,-448)"><rect x="0" y="720" width="96" height="80" rx="8" ry="8" class="j"/><text x="11.84" y="747.4" class="f">Monitoring <tspan x="5.61" dy="1.2em" class="g">and Trouble</tspan>-<tspan x="18.45" dy="1.2em" class="g">shooting</tspan></text></g></a><a target="_blank" href="https://docs.microsoft.com/microsoftteams/rooms/microsoft-teams-rooms-premium#service-features" rel="noopener"><g transform="translate(288,-256)"><rect x="0" y="720" width="96" height="80" rx="8" ry="8" class="j"/><text x="20.38" y="747.4" class="f">Security <tspan x="24.28" dy="1.2em" class="g">Update </tspan><tspan x="5.21" dy="1.2em" class="g">Management</tspan></text></g></a><a target="_blank" href="https://docs.microsoft.com/microsoftteams/rooms/microsoft-teams-rooms-premium#service-features" rel="noopener"><g transform="translate(288,-544)"><rect x="0" y="720" width="96" height="80" rx="8" ry="8" class="j"/><text x="6.78" y="755.8" class="f">Insights and <tspan x="6" dy="1.2em" class="g">Suggestions</tspan></text></g></a><a target="_blank" href="https://docs.microsoft.com/microsoftteams/rooms/microsoft-teams-rooms-premium#customer-support" rel="noopener"><g transform="translate(288,-640)"><rect x="0" y="720" width="96" height="80" rx="8" ry="8" class="j"/><text x="15.33" y="755.8" class="f">Customer <tspan x="21.17" dy="1.2em" class="g">Support</tspan></text></g></a><a target="_blank" href="https://docs.microsoft.com/mem/intune/fundamentals/what-is-intune" rel="noopener"><g transform="translate(128,-544)"><rect x="0" y="720" width="96" height="80" rx="8" ry="8" class="e"/><text x="16.5" y="755.8" class="f">Microsoft <tspan x="27" dy="1.2em" class="g">Intune</tspan></text></g></a><a target="_blank" href="https://docs.microsoft.com/microsoftteams/rooms/microsoft-teams-rooms-premium#service-capabilities" rel="noopener"><g transform="translate(400,-256)"><rect x="0" y="720" width="96" height="80" rx="8" ry="8" class="j"/><text x="4.41" y="755.8" class="f">Service Desk <tspan x="11.83" dy="1.2em" class="g">Integration</tspan></text></g></a><a target="_blank" href="https://docs.microsoft.com/microsoftteams/rooms/microsoft-teams-rooms-premium#service-features" rel="noopener"><g transform="translate(400,-544)"><rect x="0" y="720" width="96" height="80" rx="8" ry="8" class="j"/><text x="16.49" y="755.8" class="f">Inventory <tspan x="5.21" dy="1.2em" class="g">Management</tspan></text></g></a><a target="_blank" href="https://docs.microsoft.com/microsoftteams/rooms/microsoft-teams-rooms-premium#service-features" rel="noopener"><g transform="translate(288,-352)"><rect x="0" y="720" width="96" height="80" rx="8" ry="8" class="j"/><text x="28.17" y="755.8" class="f">Room <tspan x="13.39" dy="1.2em" class="g">Enrolment</tspan></text></g></a><a target="_blank" href="https://docs.microsoft.com/microsoftteams/rooms/microsoft-teams-rooms-premium#service-features" rel="noopener"><g transform="translate(400,-448)"><rect x="0" y="720" width="96" height="80" rx="8" ry="8" class="j"/><text x="4.45" y="764.2" class="f">Room Admin</text></g></a><a target="_blank" href="https://docs.microsoft.com/microsoftteams/rooms/microsoft-teams-rooms-premium#service-features" rel="noopener"><g transform="translate(400,-640)"><rect x="0" y="720" width="96" height="80" rx="8" ry="8" class="j"/><text x="25.43" y="747.4" class="f">Device <tspan x="24.28" dy="1.2em" class="g">Update </tspan><tspan x="5.21" dy="1.2em" class="g">Management</tspan></text></g></a><g transform="translate(16,-128)"><rect x="0" y="768" width="560" height="32" rx="8" ry="8" class="k"/><text x="199.95" y="790" class="l">Related Services</text></g><g transform="translate(304,-32)"><rect x="0" y="720" width="256" height="80" rx="8" ry="8" class="m"/><text x="117.39" y="755.8" class="n">PSTN telephony <tspan x="117.39" dy="1.2em" class="g">calling plans</tspan></text></g><g transform="translate(32,-32)"><rect x="0" y="720" width="256" height="80" rx="8" ry="8" class="m"/><text x="117.39" y="747.4" class="n">Branding, monitoring, <tspan x="117.39" dy="1.2em" class="g">and meetings </tspan><tspan x="117.39" dy="1.2em" class="g">analysis</tspan></text></g><a target="_blank" href="https://products.office.com/microsoft-teams/voice-calling" rel="noopener"><g transform="translate(304,-32)"><rect x="0" y="720" width="96" height="80" rx="8" ry="8" class="o"/><text x="24.67" y="755.8" class="f">Calling <tspan x="29.32" dy="1.2em" class="g">Plans</tspan></text></g></a><a target="_blank" href="https://docs.microsoft.com/microsoftteams/teams-add-on-licensing/advanced-communications" rel="noopener"><g transform="translate(32,-32)"><rect x="0" y="720" width="96" height="80" rx="8" ry="8" class="o"/><text x="14.55" y="755.8" class="f">Advanced <tspan x="22.33" dy="1.2em" class="g">Comms</tspan></text></g></a><a target="_blank" href="https://docs.microsoft.com/microsoftteams/rooms/" rel="noopener"><g transform="translate(-704,576) rotate(-90)"><rect x="0" y="752" width="528" height="48" rx="8" ry="8" class="p"/><text x="101.75" y="782" class="l">Microsoft Teams Rooms Standard</text></g></a><a target="_blank" href="https://docs.microsoft.com/microsoftteams/rooms/" rel="noopener"><g transform="translate(-224,608) rotate(-90)"><rect x="0" y="752" width="592" height="48" rx="8" ry="8" class="q"/><text x="134.3" y="782" class="l">Microsoft Teams Rooms Premium</text></g></a></g></svg>