<svg xmlns="http://www.w3.org/2000/svg" width="768px" height="1776px" viewBox="0 0 768 1776" class="a"><style>
.b {fill:#a5a5a5;fill-opacity:0.2;stroke:#7030a0;stroke-linecap:round;stroke-linejoin:round;stroke-width:2.25}
.c {fill:#a5a5a5;fill-opacity:0.2;stroke:#2080a0;stroke-dasharray:33.75,20.25;stroke-linecap:round;stroke-linejoin:round;stroke-width:2.25}
.d {fill:#a5a5a5;fill-opacity:0.2;stroke:#0070f7;stroke-dasharray:2.25,4.5;stroke-linecap:round;stroke-linejoin:round;stroke-width:2.25}
.e {fill:#a5a5a5;fill-opacity:0.2;stroke:#a41500;stroke-dasharray:33.75,20.25;stroke-linecap:round;stroke-linejoin:round;stroke-width:2.25}
.f {fill:#a5a5a5;fill-opacity:0.2;stroke:#008800;stroke-dasharray:33.75,20.25;stroke-linecap:round;stroke-linejoin:round;stroke-width:2.25}
.g {fill:#2080a0;stroke:#2080a0;stroke-linecap:round;stroke-linejoin:round;stroke-width:2.25}
.h {fill:#ffffff;font-family:Arial;font-size:1.66667em;font-weight:bold}
.i {fill:#008800;stroke:#008800;stroke-linecap:round;stroke-linejoin:round;stroke-width:2.25}
.j {fill:#a41500;stroke:#a41500;stroke-linecap:round;stroke-linejoin:round;stroke-width:2.25}
.k {fill:#2080a0;stroke:none;stroke-linecap:round;stroke-linejoin:round;stroke-width:0.24}
.l {fill:#ffffff;font-family:Arial;font-size:1.16666em;font-weight:bold}
.m {font-size:1em}
.n {fill:#7030a0;stroke:#7030a0;stroke-linecap:round;stroke-linejoin:round;stroke-width:2.25}
.o {fill:none;stroke:none;stroke-linecap:round;stroke-linejoin:round;stroke-width:0.75}
.p {fill:#0070f7;font-family:Arial;font-size:3em;font-weight:bold}
.q {fill:#0070f7;font-family:Arial;font-size:2.50001em;font-weight:bold}
.r {fill:#0070f7;font-family:Arial;font-size:1.5em;font-weight:bold}
.s {fill:#008800;stroke:none;stroke-linecap:round;stroke-linejoin:round;stroke-width:2.25}
.t {fill:#008800;stroke:none;stroke-linecap:round;stroke-linejoin:round;stroke-width:0.24}
.u {fill:#a41500;stroke:none;stroke-linecap:round;stroke-linejoin:round;stroke-width:0.24}
.v {font-size:0.785725em}
.w {fill:#ffffff;font-family:Arial;font-size:1.08334em;font-weight:bold}
.x {fill:#0070f7;stroke:none;stroke-linecap:round;stroke-linejoin:round;stroke-width:0.24}
.y {fill:none;stroke:none;stroke-linecap:round;stroke-linejoin:round;stroke-width:1}
.z {fill:#000000;font-family:Arial;font-size:1.16666em;font-weight:bold}
.ba {baseline-shift:32.4943%;font-size:0.649886em}
.a {fill:none;fill-rule:evenodd;font-size:12px;overflow:visible;stroke-linecap:square;stroke-miterlimit:3}
</style><g><g transform="translate(80,-16)"><rect x="0" y="160" width="608" height="1616" rx="8" ry="8" class="b"/></g><g transform="translate(16,-544)"><rect x="0" y="1312" width="736" height="464" rx="8" ry="8" class="c"/></g><g transform="translate(96,-560)"><rect x="0" y="1344" width="464" height="432" rx="8" ry="8" class="d"/></g><g transform="translate(16,-1040)"><rect x="0" y="1248" width="736" height="528" rx="8" ry="8" class="e"/></g><g transform="translate(16,-80)"><rect x="0" y="1344" width="736" height="432" rx="8" ry="8" class="f"/></g><a target="_blank" aria-label="Enterprise Mobility + Security" href="https://www.microsoft.com/cloud-platform/enterprise-mobility-security" rel="noopener"><g transform="translate(-1728,1232) rotate(-90)"><rect x="0" y="1744" width="464" height="32" rx="8" ry="8" class="g"/><text x="91.13" y="1766" class="h">Enterprise Mobility + Security</text></g></a><a target="_blank" aria-label="Windows 10" href="https://www.microsoft.com/windowsforbusiness" rel="noopener"><g transform="translate(-1728,1696) rotate(-90)"><rect x="0" y="1744" width="432" height="32" rx="8" ry="8" class="i"/><text x="158.22" y="1766" class="h">Windows 10</text></g></a><a target="_blank" aria-label="Office 365 Business" href="https://products.office.com/business/" rel="noopener"><g transform="translate(-1024,736) rotate(-90)"><rect x="0" y="1744" width="528" height="32" rx="8" ry="8" class="j"/><text x="216.2" y="1766" class="h">Office 365</text></g></a><a target="_blank" aria-label="Enterprise Mobility + Security" href="https://www.microsoft.com/cloud-platform/enterprise-mobility-security" rel="noopener"><g transform="translate(-1024,1232) rotate(-90)"><rect x="0" y="1744" width="464" height="32" rx="8" ry="8" class="g"/><text x="91.13" y="1766" class="h">Enterprise Mobility + Security</text></g></a><a target="_blank" aria-label="Windows 10" href="https://www.microsoft.com/windowsforbusiness" rel="noopener"><g transform="translate(-1024,1696) rotate(-90)"><rect x="0" y="1744" width="432" height="32" rx="8" ry="8" class="i"/><text x="158.22" y="1766" class="h">Windows 10</text></g></a><a target="_blank" aria-label="Office 365 Business" href="https://products.office.com/business/" rel="noopener"><g transform="translate(-1728,736) rotate(-90)"><rect x="0" y="1744" width="528" height="32" rx="8" ry="8" class="j"/><text x="216.2" y="1766" class="h">Office 365</text></g></a><a target="_blank" aria-label="Intune Device Management" href="https://docs.microsoft.com/mem/intune/fundamentals/what-is-intune" rel="noopener"><g transform="translate(576,-704)"><rect x="0" y="1696" width="96" height="80" rx="8" ry="8" class="k"/><text x="8.34" y="1731.8" class="l">Intune MDM <tspan x="24.28" dy="1.2em" class="m">&amp; MAM</tspan></text></g></a><a target="_blank" aria-label="Microsoft 365 Business Premium" href="https://www.microsoft.com/microsoft-365/business/microsoft-365-business-premium" rel="noopener"><g transform="translate(80,-1600)"><rect x="0" y="1744" width="608" height="32" rx="8" ry="8" class="n"/><text x="146.72" y="1766" class="h">Microsoft 365 Business Premium</text></g></a><a target="_blank" aria-label="m365maps.com" href="https://m365maps.com/" rel="noopener"><g transform="translate(16,-1712)"><rect x="0" y="1728" width="736" height="48" class="o"/><text x="84.9" y="1762.8" class="p">Microsoft 365 Business Premium</text></g></a><g transform="translate(16,-1680)"><rect x="0" y="1744" width="736" height="32" class="o"/><text x="286.28" y="1769" class="q">March 2021</text></g><a target="_blank" aria-label="m365maps.com" href="https://m365maps.com/" rel="noopener"><g transform="translate(16,-1648)"><rect x="0" y="1744" width="736" height="32" class="o"/><text x="300.46" y="1765.4" class="r">m365maps.com</text></g></a><a target="_blank" aria-label="Use Touch with Windows 10" href="https://support.microsoft.com/help/17209/windows-10-use-touch-with-windows" rel="noopener"><g transform="translate(112,-208)"><rect x="0" y="1696" width="96" height="80" rx="8" ry="8" class="s"/><text x="10.65" y="1723.4" class="l">Voice, Pen, <tspan x="11.06" dy="1.2em" class="m">Touch, Ink, </tspan><tspan x="7.16" dy="1.2em" class="m">and Gesture</tspan></text></g></a><a target="_blank" aria-label="Microsoft Store for Business" href="https://docs.microsoft.com/microsoft-store/microsoft-store-for-business-overview" rel="noopener"><g transform="translate(448,-304)"><rect x="0" y="1696" width="96" height="80" rx="8" ry="8" class="s"/><text x="16.5" y="1723.4" class="l">Microsoft <tspan x="18.83" dy="1.2em" class="m">Store for </tspan><tspan x="16.88" dy="1.2em" class="m">Business</tspan></text></g></a><a target="_blank" aria-label="On-Premises Conditional Access" href="https://docs.microsoft.com/windows-server/identity/ad-fs/operations/configure-device-based-conditional-access-on-premises" rel="noopener"><g transform="translate(336,-208)"><rect x="0" y="1696" width="96" height="80" rx="8" ry="8" class="s"/><text x="17.28" y="1723.4" class="l">Windows <tspan x="9.51" dy="1.2em" class="m">Conditional </tspan><tspan x="23.48" dy="1.2em" class="m">Access</tspan></text></g></a><a target="_blank" aria-label="Windows Information Protection" href="https://docs.microsoft.com/windows/security/information-protection/windows-information-protection/protect-enterprise-data-using-wip" rel="noopener"><g transform="translate(112,-112)"><rect x="0" y="1696" width="96" height="80" rx="8" ry="8" class="s"/><text x="17.28" y="1723.4" class="l">Windows <tspan x="9.5" dy="1.2em" class="m">Information </tspan><tspan x="13.39" dy="1.2em" class="m">Protection</tspan></text></g></a><a target="_blank" aria-label="Windows Update for Business" href="https://docs.microsoft.com/windows/deployment/update/waas-manage-updates-wufb" rel="noopener"><g transform="translate(224,-112)"><rect x="0" y="1696" width="96" height="80" rx="8" ry="8" class="s"/><text x="17.28" y="1723.4" class="l">Windows <tspan x="13" dy="1.2em" class="m">Update for </tspan><tspan x="16.88" dy="1.2em" class="m">Business</tspan></text></g></a><a target="_blank" aria-label="Windows Hello for Business" href="https://docs.microsoft.com/windows/security/identity-protection/hello-for-business/hello-identity-verification" rel="noopener"><g transform="translate(560,-208)"><rect x="0" y="1696" width="96" height="80" rx="8" ry="8" class="s"/><text x="17.28" y="1723.4" class="l">Windows <tspan x="19.61" dy="1.2em" class="m">Hello for </tspan><tspan x="16.88" dy="1.2em" class="m">Business</tspan></text></g></a><a target="_blank" aria-label="Edge for Business" href="https://www.microsoft.com/edge/business" rel="noopener"><g transform="translate(112,-304)"><rect x="0" y="1696" width="96" height="80" rx="8" ry="8" class="s"/><text x="19.61" y="1731.8" class="l">Edge for <tspan x="16.88" dy="1.2em" class="m">Business</tspan></text></g></a><a target="_blank" aria-label="Cortana" href="https://support.microsoft.com/help/17214/windows-10-what-is" rel="noopener"><g transform="translate(560,-400)"><rect x="0" y="1696" width="96" height="80" rx="8" ry="8" class="s"/><text x="21.55" y="1740.2" class="l">Cortana</text></g></a><a target="_blank" aria-label="Application Guard" href="https://docs.microsoft.com/windows/security/threat-protection/windows-defender-application-guard/wd-app-guard-overview" rel="noopener"><g transform="translate(224,-400)"><rect x="0" y="1696" width="96" height="80" rx="8" ry="8" class="t"/><text x="9.89" y="1731.8" class="l">Application <tspan x="27.39" dy="1.2em" class="m">Guard</tspan></text></g></a><a target="_blank" aria-label="Azure AD Join" href="https://docs.microsoft.com/azure/active-directory/devices/azuread-joined-devices-frx" rel="noopener"><g transform="translate(336,-400)"><rect x="0" y="1696" width="96" height="80" rx="8" ry="8" class="t"/><text x="16.5" y="1723.4" class="l">Azure AD<tspan x="15.33" dy="1.2em" class="m">&amp; Domain </tspan><tspan x="33.61" dy="1.2em" class="m">Join</tspan></text></g></a><a target="_blank" aria-label="Microsoft Defender Antivirus" href="https://www.microsoft.com/windows/comprehensive-security" rel="noopener"><g transform="translate(336,-304)"><rect x="0" y="1696" width="96" height="80" rx="8" ry="8" class="t"/><text x="16.5" y="1723.4" class="l">Microsoft <tspan x="17.66" dy="1.2em" class="m">Defender </tspan><tspan x="17.66" dy="1.2em" class="m">Antivirus</tspan></text></g></a><a target="_blank" aria-label="Windows Autopilot" href="https://docs.microsoft.com/windows/deployment/windows-autopilot/windows-autopilot" rel="noopener"><g transform="translate(224,-208)"><rect x="0" y="1696" width="96" height="80" rx="8" ry="8" class="s"/><text x="17.28" y="1731.8" class="l">Windows <tspan x="17.29" dy="1.2em" class="m">Autopilot</tspan></text></g></a><a target="_blank" aria-label="BitLocker" href="https://docs.microsoft.com/windows/security/information-protection/bitlocker/bitlocker-overview" rel="noopener"><g transform="translate(448,-400)"><rect x="0" y="1696" width="96" height="80" rx="8" ry="8" class="t"/><text x="8.71" y="1723.4" class="l">BitLocker &amp; <tspan x="7.16" dy="1.2em" class="m">BitLocker to </tspan><tspan x="38.28" dy="1.2em" class="m">Go</tspan></text></g></a><a target="_blank" aria-label="Windows Firewall" href="https://docs.microsoft.com/windows/security/threat-protection/windows-firewall/windows-firewall-with-advanced-security" rel="noopener"><g transform="translate(448,-208)"><rect x="0" y="1696" width="96" height="80" rx="8" ry="8" class="s"/><text x="17.28" y="1731.8" class="l">Windows <tspan x="21.93" dy="1.2em" class="m">Firewall</tspan></text></g></a><a target="_blank" aria-label="Application Control" href="https://docs.microsoft.com/windows/security/threat-protection/windows-defender-application-control/windows-defender-application-control" rel="noopener"><g transform="translate(112,-400)"><rect x="0" y="1696" width="96" height="80" rx="8" ry="8" class="s"/><text x="9.89" y="1731.8" class="l">Application <tspan x="23.12" dy="1.2em" class="m">Control</tspan></text></g></a><a target="_blank" aria-label="Windows Virtual Desktop" href="https://www.microsoft.com/cloud-platform/desktop-virtualization" rel="noopener"><g transform="translate(336,-112)"><rect x="0" y="1696" width="96" height="80" rx="8" ry="8" class="t"/><text x="17.28" y="1723.4" class="l">Windows <tspan x="26.22" dy="1.2em" class="m">Virtual </tspan><tspan x="20.38" dy="1.2em" class="m">Desktop</tspan></text></g></a><a target="_blank" aria-label="Exchange Online" href="https://docs.microsoft.com/office365/servicedescriptions/exchange-online-service-description/exchange-online-service-description#feature-availability-across-exchange-online-standalone-plans" rel="noopener"><g transform="translate(448,-1456)"><rect x="0" y="1696" width="96" height="80" rx="8" ry="8" class="u"/><text x="14.93" y="1723.4" class="l">Exchange <tspan x="26.22" dy="1.2em" class="m">Online </tspan><tspan x="27.38" dy="1.2em" class="m">Plan 1</tspan></text></g></a><a target="_blank" aria-label="SharePoint Online" href="https://docs.microsoft.com/sharepoint/introduction" rel="noopener"><g transform="translate(224,-1072)"><rect x="0" y="1696" width="96" height="80" rx="8" ry="8" class="u"/><text x="11.05" y="1731.8" class="l">SharePoint <tspan x="26.22" dy="1.2em" class="m">Online</tspan></text></g></a><a target="_blank" aria-label="OneDrive for Business" href="https://docs.microsoft.com/office365/servicedescriptions/onedrive-for-business-service-description" rel="noopener"><g transform="translate(224,-1168)"><rect x="0" y="1696" width="96" height="80" rx="8" ry="8" class="u"/><text x="5.6" y="1723.4" class="l">OneDrive for <tspan x="16.88" dy="1.2em" class="m">Business </tspan><tspan x="27.38" dy="1.2em" class="m">Plan 1</tspan></text></g></a><a target="_blank" aria-label="Yammer" href="https://products.office.com/yammer/yammer-overview" rel="noopener"><g transform="translate(560,-1072)"><rect x="0" y="1696" width="96" height="80" rx="8" ry="8" class="u"/><text x="20.37" y="1731.8" class="l">Yammer <tspan x="13.38" dy="1.2em" class="m">Enterprise</tspan></text></g></a><a target="_blank" aria-label="Planner" href="https://products.office.com/business/task-management-software" rel="noopener"><g transform="translate(336,-1168)"><rect x="0" y="1696" width="96" height="80" rx="8" ry="8" class="u"/><text x="22.32" y="1740.2" class="l">Planner</text></g></a><a target="_blank" aria-label="Microsoft Teams" href="https://products.office.com/microsoft-teams/" rel="noopener"><g transform="translate(224,-1264)"><rect x="0" y="1696" width="96" height="80" rx="8" ry="8" class="u"/><text x="16.5" y="1731.8" class="l">Microsoft <tspan x="25.82" dy="1.2em" class="m">Teams</tspan></text></g></a><a target="_blank" aria-label="Stream" href="https://docs.microsoft.com/stream/" rel="noopener"><g transform="translate(336,-1072)"><rect x="0" y="1696" width="96" height="80" rx="8" ry="8" class="u"/><text x="12.99" y="1731.8" class="l">Stream for <tspan x="14.54" dy="1.2em" class="m">Office 365</tspan></text></g></a><a target="_blank" aria-label="MyAnalytics" href="https://products.office.com/business/myanalytics-personal-analytics" rel="noopener"><g transform="translate(560,-1456)"><rect x="0" y="1696" width="96" height="80" rx="8" ry="8" class="u"/><text x="11.05" y="1731.8" class="l">Insights by <tspan x="7.15" dy="1.2em" class="m">MyAnalytics</tspan></text></g></a><a target="_blank" aria-label="Power Apps" href="https://powerapps.microsoft.com/" rel="noopener"><g transform="translate(448,-1168)"><rect x="0" y="1696" width="96" height="80" rx="8" ry="8" class="u"/><text x="7.55" y="1723.4" class="l">Power Apps<tspan x="38.67" dy="1.2em" class="m">for </tspan><tspan x="14.54" dy="1.2em" class="m">Office 365</tspan></text></g></a><a target="_blank" aria-label="Power Automate" href="https://powerautomate.microsoft.com/" rel="noopener"><g transform="translate(560,-1168)"><rect x="0" y="1696" width="96" height="80" rx="8" ry="8" class="u"/><text x="26.99" y="1723.4" class="l">Power <tspan x="4.45" dy="1.2em" class="m">Automate for</tspan><tspan x="14.54" dy="1.2em" class="m">Office 365</tspan></text></g></a><a target="_blank" aria-label="Sway" href="https://support.office.com/sway" rel="noopener"><g transform="translate(448,-1072)"><rect x="0" y="1696" width="96" height="80" rx="8" ry="8" class="u"/><text x="30.1" y="1740.2" class="l">Sway</text></g></a><a target="_blank" aria-label="Microsoft Forms" href="https://support.office.com/forms" rel="noopener"><g transform="translate(560,-1360)"><rect x="0" y="1696" width="96" height="80" rx="8" ry="8" class="u"/><text x="16.5" y="1731.8" class="l">Microsoft <tspan x="26.61" dy="1.2em" class="m">Forms</tspan></text></g></a><a target="_blank" aria-label="MileIQ" href="https://www.mileiq.com/office365/" rel="noopener"><g transform="translate(560,-1264)"><rect x="0" y="1696" width="96" height="80" rx="8" ry="8" class="u"/><text x="27" y="1733.6" class="l">MileIQ <tspan x="5.83" dy="1.282em" class="v">(US/UK/Canada)</tspan></text></g></a><a target="_blank" aria-label="Bookings" href="https://products.office.com/business/scheduling-and-booking-app" rel="noopener"><g transform="translate(112,-1456)"><rect x="0" y="1696" width="96" height="80" rx="8" ry="8" class="u"/><text x="16.11" y="1740.2" class="l">Bookings</text></g></a><a target="_blank" aria-label="Microsoft 365 Apps for Business" href="https://www.microsoft.com/microsoft-365/business/microsoft-365-apps-for-business" rel="noopener"><g transform="translate(224,-1360)"><rect x="0" y="1696" width="96" height="80" rx="8" ry="8" class="u"/><text x="16.5" y="1723.4" class="l">Microsoft <tspan x="5.6" dy="1.2em" class="m">365 Apps for </tspan><tspan x="16.88" dy="1.2em" class="m">Business</tspan></text></g></a><a target="_blank" aria-label="Office 365 Advanced Threat Protection" href="https://docs.microsoft.com/microsoft-365/security/office-365-security/office-365-atp" rel="noopener"><g transform="translate(448,-1360)"><rect x="0" y="1696" width="96" height="80" rx="8" ry="8" class="u"/><text x="16.5" y="1715" class="l">Microsoft <tspan x="6.38" dy="1.2em" class="m">Defender for </tspan><tspan x="14.54" dy="1.2em" class="m">Office 365 </tspan><tspan x="27.38" dy="1.2em" class="m">Plan 1</tspan></text></g></a><a target="_blank" aria-label="Exchange Online Archiving" href="https://docs.microsoft.com/office365/servicedescriptions/exchange-online-archiving-service-description/exchange-online-archiving-service-description" rel="noopener"><g transform="translate(336,-1456)"><rect x="0" y="1696" width="96" height="80" rx="8" ry="8" class="u"/><text x="14.93" y="1723.4" class="l">Exchange <tspan x="26.22" dy="1.2em" class="m">Online </tspan><tspan x="15.72" dy="1.2em" class="m">Archiving</tspan></text></g></a><a target="_blank" aria-label="Data Loss Prevention" href="https://docs.microsoft.com/office365/securitycompliance/data-loss-prevention-policies" rel="noopener"><g transform="translate(224,-1456)"><rect x="0" y="1696" width="96" height="80" rx="8" ry="8" class="u"/><text x="14.55" y="1731.8" class="l">Data Loss <tspan x="11.82" dy="1.2em" class="m">Prevention</tspan></text></g></a><a target="_blank" aria-label="eDiscovery" href="https://docs.microsoft.com/office365/securitycompliance/ediscovery-cases" rel="noopener"><g transform="translate(112,-1360)"><rect x="0" y="1696" width="96" height="80" rx="8" ry="8" class="u"/><text x="16.51" y="1723.4" class="l">Litigation <tspan x="25.45" dy="1.2em" class="m">Hold &amp; </tspan><tspan x="10.64" dy="1.2em" class="m">eDiscovery</tspan></text></g></a><a target="_blank" aria-label="Microsoft Dataverse for Teams" href="https://docs.microsoft.com/powerapps/teams/overview-data-platform" rel="noopener"><g transform="translate(336,-1360)"><rect x="0" y="1696" width="96" height="80" rx="8" ry="8" class="u"/><text x="16.5" y="1723.4" class="l">Microsoft <tspan x="14.53" dy="1.2em" class="m">Dataverse </tspan><tspan x="14.55" dy="1.2em" class="m">for Teams</tspan></text></g></a><a target="_blank" aria-label="Power Virtual Agents for Teams" href="https://docs.microsoft.com/power-virtual-agents/teams/fundamentals-what-is-power-virtual-agents-teams" rel="noopener"><g transform="translate(112,-1072)"><rect x="0" y="1696" width="96" height="80" rx="8" ry="8" class="u"/><text x="6.46" y="1724.3" class="w">Power Virtual <tspan x="15.5" dy="1.2em" class="m">Agents for </tspan><tspan x="27.4" dy="1.2em" class="m">Teams</tspan></text></g></a><a target="_blank" aria-label="Microsoft Whiteboard" href="https://support.microsoft.com/office/d236aef8-fcdf-4b5e-b5d7-7f157461e920" rel="noopener"><g transform="translate(448,-1264)"><rect x="0" y="1696" width="96" height="80" rx="8" ry="8" class="u"/><text x="16.5" y="1731.8" class="l">Microsoft <tspan x="9.5" dy="1.2em" class="m">Whiteboard</tspan></text></g></a><a target="_blank" aria-label="Microsoft To-Do" href="https://www.microsoft.com/microsoft-365/microsoft-to-do-list-app" rel="noopener"><g transform="translate(336,-1264)"><rect x="0" y="1696" width="96" height="80" rx="8" ry="8" class="u"/><text x="16.5" y="1731.8" class="l">Microsoft <tspan x="27.79" dy="1.2em" class="m">To</tspan>-Do</text></g></a><a target="_blank" aria-label="Office Mobile" href="https://products.office.com/mobile/office" rel="noopener"><g transform="translate(112,-1168)"><rect x="0" y="1696" width="96" height="80" rx="8" ry="8" class="u"/><text x="4.44" y="1731.8" class="l">Office Web &amp; <tspan x="6.39" dy="1.2em" class="m">Mobile Apps</tspan></text></g></a><a target="_blank" aria-label="Microsoft Lists" href="https://www.microsoft.com/microsoft-365/microsoft-lists" rel="noopener"><g transform="translate(112,-1264)"><rect x="0" y="1696" width="96" height="80" rx="8" ry="8" class="u"/><text x="16.5" y="1731.8" class="l">Microsoft <tspan x="31.66" dy="1.2em" class="m">Lists</tspan></text></g></a><a target="_blank" aria-label="MDM" href="https://docs.microsoft.com/windows/client-management/mdm/" rel="noopener"><g transform="translate(224,-304)"><rect x="0" y="1696" width="96" height="80" rx="8" ry="8" class="s"/><text x="31.28" y="1740.2" class="l">MDM</text></g></a><a target="_blank" aria-label="Azure AD Reports" href="https://docs.microsoft.com/azure/active-directory/reports-monitoring/" rel="noopener"><g transform="translate(112,-896)"><rect x="0" y="1696" width="96" height="80" rx="8" ry="8" class="x"/><text x="14.55" y="1715" class="l">Advanced <tspan x="20.38" dy="1.2em" class="m">Security </tspan><tspan x="14.55" dy="1.2em" class="m">Reports &amp; </tspan><tspan x="28.16" dy="1.2em" class="m">Alerts</tspan></text></g></a><a target="_blank" aria-label="Azure AD SSO" href="https://docs.microsoft.com/azure/active-directory/hybrid/how-to-connect-sso" rel="noopener"><g transform="translate(224,-608)"><rect x="0" y="1696" width="96" height="80" rx="8" ry="8" class="x"/><text x="7.17" y="1723.4" class="l">Single-Sign-<tspan x="10.28" dy="1.2em" class="m">On to other </tspan><tspan x="30.88" dy="1.2em" class="m">SaaS</tspan></text></g></a><a target="_blank" aria-label="Application Proxy" href="https://docs.microsoft.com/azure/active-directory/manage-apps/application-proxy" rel="noopener"><g transform="translate(224,-896)"><rect x="0" y="1696" width="96" height="80" rx="8" ry="8" class="x"/><text x="11.05" y="1723.4" class="l">App Proxy, <tspan x="16.89" dy="1.2em" class="m">including </tspan><tspan x="8.31" dy="1.2em" class="m">PingAccess</tspan></text></g></a><a target="_blank" aria-label="Azure Multi-Factor Authentication" href="https://docs.microsoft.com/azure/active-directory/authentication/concept-mfa-howitworks" rel="noopener"><g transform="translate(224,-704)"><rect x="0" y="1696" width="96" height="80" rx="8" ry="8" class="x"/><text x="7.95" y="1731.8" class="l">Multi-Factor <tspan x="10.29" dy="1.2em" class="m">Auth (MFA)</tspan></text></g></a><a target="_blank" aria-label="Azure AD Connect Health" href="https://docs.microsoft.com/azure/active-directory/hybrid/whatis-azure-ad-connect#what-is-azure-ad-connect-health" rel="noopener"><g transform="translate(336,-896)"><rect x="0" y="1696" width="96" height="80" rx="8" ry="8" class="x"/><text x="16.5" y="1723.4" class="l">Azure AD <tspan x="20" dy="1.2em" class="m">Connect </tspan><tspan x="26.61" dy="1.2em" class="m">Health</tspan></text></g></a><a target="_blank" aria-label="Cloud App Discovery" href="https://docs.microsoft.com/cloud-app-security/set-up-cloud-discovery" rel="noopener"><g transform="translate(224,-800)"><rect x="0" y="1696" width="96" height="80" rx="8" ry="8" class="x"/><text x="12.62" y="1731.8" class="l">Cloud App <tspan x="14.54" dy="1.2em" class="m">Discovery</tspan></text></g></a><a target="_blank" aria-label="Shared Accounts in Azure AD" href="https://docs.microsoft.com/azure/active-directory/users-groups-roles/users-sharing-accounts" rel="noopener"><g transform="translate(112,-608)"><rect x="0" y="1696" width="96" height="80" rx="8" ry="8" class="x"/><text x="24.27" y="1715" class="l">Shared <tspan x="20" dy="1.2em" class="m">Account </tspan><tspan x="14.93" dy="1.2em" class="m">Password </tspan><tspan x="16.49" dy="1.2em" class="m">Roll</tspan>-Over</text></g></a><a target="_blank" aria-label="SSPR" href="https://docs.microsoft.com/azure/active-directory/authentication/concept-sspr-howitworks" rel="noopener"><g transform="translate(336,-704)"><rect x="0" y="1696" width="96" height="80" rx="8" ry="8" class="x"/><text x="7.92" y="1723.4" class="l">Self-Service <tspan x="14.93" dy="1.2em" class="m">Password </tspan><tspan x="8.71" dy="1.2em" class="m">Reset in AD</tspan></text></g></a><a target="_blank" aria-label="Self-Service Group Management" href="https://docs.microsoft.com/azure/active-directory/users-groups-roles/groups-self-service-management" rel="noopener"><g transform="translate(448,-704)"><rect x="0" y="1696" width="96" height="80" rx="8" ry="8" class="x"/><text x="7.92" y="1723.4" class="l">Self-Service <tspan x="27" dy="1.2em" class="m">Group </tspan><tspan x="5.21" dy="1.2em" class="m">Management</tspan></text></g></a><a target="_blank" aria-label="Conditional Access" href="https://docs.microsoft.com/azure/active-directory/conditional-access/overview" rel="noopener"><g transform="translate(336,-800)"><rect x="0" y="1696" width="96" height="80" rx="8" ry="8" class="x"/><text x="9.51" y="1731.8" class="l">Conditional <tspan x="23.48" dy="1.2em" class="m">Access</tspan></text></g></a><a target="_blank" aria-label="Azure Active Directory Premium Plan 1" href="https://docs.microsoft.com/azure/active-directory/" rel="noopener"><g transform="translate(96,-560)"><rect x="0" y="1728" width="464" height="48" rx="8" ry="8" class="y"/><text x="146.03" y="1756.2" class="z">Azure AD Premium Plan 1</text></g></a><a target="_blank" aria-label="Azure AD External Identities" href="https://docs.microsoft.com/azure/active-directory/external-identities/" rel="noopener"><g transform="translate(448,-896)"><rect x="0" y="1696" width="96" height="80" rx="8" ry="8" class="x"/><text x="16.5" y="1723.4" class="l">Azure AD <tspan x="20.38" dy="1.2em" class="m">External </tspan><tspan x="17.27" dy="1.2em" class="m">Identities</tspan></text></g></a><a target="_blank" aria-label="Enterprise State Roaming" href="https://docs.microsoft.com/azure/active-directory/devices/enterprise-state-roaming-overview" rel="noopener"><g transform="translate(448,-800)"><rect x="0" y="1696" width="96" height="80" rx="8" ry="8" class="x"/><text x="13.38" y="1723.4" class="l">Enterprise <tspan x="30.88" dy="1.2em" class="m">State </tspan><tspan x="18.06" dy="1.2em" class="m">Roaming</tspan></text></g></a><a target="_blank" aria-label="Terms of Use" href="https://docs.microsoft.com/azure/active-directory/governance/active-directory-tou" rel="noopener"><g transform="translate(336,-608)"><rect x="0" y="1696" width="96" height="80" rx="8" ry="8" class="x"/><text x="18.44" y="1731.8" class="l">Terms of <tspan x="35.16" dy="1.2em" class="m">Use</tspan></text></g></a><a target="_blank" aria-label="Azure AD Password Protection" href="https://docs.microsoft.com/azure/active-directory/authentication/concept-password-ban-bad" rel="noopener"><g transform="translate(112,-800)"><rect x="0" y="1696" width="96" height="80" rx="8" ry="8" class="x"/><text x="16.5" y="1723.4" class="l">Azure AD <tspan x="14.93" dy="1.2em" class="m">Password </tspan><tspan x="13.39" dy="1.2em" class="m">Protection</tspan></text></g></a><a target="_blank" aria-label="Microsoft Identity Manager" href="https://docs.microsoft.com/microsoft-identity-manager/" rel="noopener"><g transform="translate(112,-704)"><rect x="0" y="1696" width="96" height="80" rx="8" ry="8" class="x"/><text x="16.5" y="1723.4" class="l">Microsoft <tspan x="23.11" dy="1.2em" class="m">Identity </tspan><tspan x="19.21" dy="1.2em" class="m">Manager</tspan></text></g></a><a target="_blank" aria-label="3rd Party MFA Integration" href="https://docs.microsoft.com/azure/active-directory/conditional-access/controls#custom-controls-preview" rel="noopener"><g transform="translate(448,-608)"><rect x="0" y="1696" width="96" height="80" rx="8" ry="8" class="x"/><text x="20.78" y="1723.4" class="l">3<tspan dy="-0.235em" class="ba">rd </tspan><tspan dy="0.153em" class="m">Party  </tspan><tspan x="32.84" dy="1.2em" class="m">MFA </tspan><tspan x="11.83" dy="1.2em" class="m">Integration</tspan></text></g></a><a target="_blank" aria-label="Endpoint Analytics" href="https://docs.microsoft.com/mem/analytics/overview" rel="noopener"><g transform="translate(576,-896)"><rect x="0" y="1696" width="96" height="80" rx="8" ry="8" class="k"/><text x="17.68" y="1731.8" class="l">Endpoint <tspan x="16.88" dy="1.2em" class="m">Analytics</tspan></text></g></a><a target="_blank" aria-label="Information Protection" href="https://docs.microsoft.com/azure/information-protection/what-is-information-protection" rel="noopener"><g transform="translate(576,-800)"><rect x="0" y="1696" width="96" height="80" rx="8" ry="8" class="k"/><text x="9.5" y="1731.8" class="l">Information <tspan x="13.39" dy="1.2em" class="m">Protection</tspan></text></g></a><a target="_blank" aria-label="Universal Print" href="https://docs.microsoft.com/universal-print/" rel="noopener"><g transform="translate(560,-304)"><rect x="0" y="1696" width="96" height="80" rx="8" ry="8" class="s"/><text x="16.48" y="1731.8" class="l">Universal <tspan x="32.06" dy="1.2em" class="m">Print</tspan></text></g></a><a target="_blank" aria-label="Microsoft 365 Business Premium" href="https://www.microsoft.com/microsoft-365/business/microsoft-365-business-premium" rel="noopener"><g transform="translate(80,-16)"><rect x="0" y="1744" width="608" height="32" rx="8" ry="8" class="n"/><text x="146.72" y="1766" class="h">Microsoft 365 Business Premium</text></g></a></g></svg>