<svg xmlns="http://www.w3.org/2000/svg" width="1776px" height="1072px" viewBox="0 0 1776 1072" class="a"><style>
.b {fill:#a5a5a5;fill-opacity:0.2;stroke:#a058c0;stroke-linecap:round;stroke-linejoin:round;stroke-width:2.25}
.c {fill:#a5a5a5;fill-opacity:0.2;stroke:#a41500;stroke-dasharray:33.75,20.25;stroke-linecap:round;stroke-linejoin:round;stroke-width:2.25}
.d {fill:#a5a5a5;fill-opacity:0.2;stroke:#006600;stroke-dasharray:33.75,20.25;stroke-linecap:round;stroke-linejoin:round;stroke-width:2.25}
.e {fill:#a5a5a5;fill-opacity:0.2;stroke:#2080a0;stroke-dasharray:33.75,20.25;stroke-linecap:round;stroke-linejoin:round;stroke-width:2.25}
.f {fill:#a5a5a5;fill-opacity:0.2;stroke:#0070f7;stroke-dasharray:2.25,4.5;stroke-linecap:round;stroke-linejoin:round;stroke-width:2.25}
.g {fill:#a058c0;stroke:#a058c0;stroke-linecap:round;stroke-linejoin:round;stroke-width:2.25}
.h {fill:#ffffff;font-family:Arial;font-size:1.66667em;font-weight:bold}
.i {fill:#a41500;stroke:#a41500;stroke-linecap:round;stroke-linejoin:round;stroke-width:2.25}
.j {fill:#006600;stroke:#006600;stroke-linecap:round;stroke-linejoin:round;stroke-width:2.25}
.k {fill:#2080a0;stroke:#2080a0;stroke-linecap:round;stroke-linejoin:round;stroke-width:2.25}
.l {font-size:1em}
.m {fill:none;stroke:none;stroke-linecap:round;stroke-linejoin:round;stroke-width:1}
.n {fill:#000000;font-family:Arial;font-size:1.99999em;font-style:italic;font-weight:bold}
.o {font-size:1em;font-style:normal;font-weight:normal}
.p {font-size:1em;font-weight:normal}
.q {fill:#000000;font-family:Arial;font-size:1.99999em}
.r {font-family:Symbol;font-size:0.750003em}
.s {font-size:0.750003em}
.t {fill:#000000;font-family:Arial;font-size:1.16666em;font-weight:bold}
.u {fill:#0070f7;stroke:none;stroke-linecap:round;stroke-linejoin:round;stroke-width:1}
.v {fill:#ffffff;font-family:Arial;font-size:1.16666em;font-weight:bold}
.w {baseline-shift:32.4943%;font-size:0.649886em}
.x {fill:#2080a0;stroke:none;stroke-linecap:round;stroke-linejoin:round;stroke-width:1}
.y {fill:#a41500;stroke:none;stroke-linecap:round;stroke-linejoin:round;stroke-width:1}
.z {font-size:0.928588em}
.ba {fill:none;stroke:none;stroke-linecap:round;stroke-linejoin:round;stroke-width:0.75}
.bb {fill:#0070f7;font-family:Arial;font-size:4.00001em;font-weight:bold}
.bc {fill:#0070f7;font-family:Arial;font-size:2.50001em;font-weight:bold}
.bd {fill:#0070f7;font-family:Arial;font-size:1.5em;font-weight:bold}
.a {fill:none;fill-rule:evenodd;font-size:12px;overflow:visible;stroke-linecap:square;stroke-miterlimit:3}
</style><g><g transform="translate(688,960) rotate(-90)"><rect x="0" y="-672" width="688" height="1744" rx="8" ry="8" class="b"/></g><g transform="translate(112,-16)"><rect x="0" y="192" width="496" height="880" rx="8" ry="8" class="c"/></g><g transform="translate(1168,-16)"><rect x="0" y="192" width="496" height="880" rx="8" ry="8" class="d"/></g><g transform="translate(640,-16)"><rect x="0" y="192" width="496" height="880" rx="8" ry="8" class="e"/></g><g transform="translate(656,-144)"><rect x="0" y="640" width="464" height="432" rx="8" ry="8" class="f"/></g><a target="_blank" aria-label="Microsoft 365 Plans" href="https://www.microsoft.com/microsoft-365/compare-all-microsoft-365-plans" rel="noopener"><g transform="translate(-992,960) rotate(-90)"><rect x="0" y="1008" width="688" height="64" rx="8" ry="8" class="g"/><text x="265.09" y="1046" class="h">Microsoft 365 F1</text></g></a><a target="_blank" aria-label="Microsoft 365 Plans" href="https://www.microsoft.com/microsoft-365/compare-all-microsoft-365-plans" rel="noopener"><g transform="translate(688,960) rotate(-90)"><rect x="0" y="1008" width="688" height="64" rx="8" ry="8" class="g"/><text x="265.09" y="1046" class="h">Microsoft 365 F1</text></g></a><a target="_blank" aria-label="Office 365 Enterprise" href="https://docs.microsoft.com/office365/enterprise/" rel="noopener"><g transform="translate(112,-832)"><rect x="0" y="1008" width="496" height="64" rx="8" ry="8" class="i"/><text x="102.4" y="1046" class="h">Office 365 for Microsoft 365 F1</text></g></a><a target="_blank" aria-label="Windows 10" href="https://www.microsoft.com/windowsforbusiness" rel="noopener"><g transform="translate(1168,-832)"><rect x="0" y="1008" width="496" height="64" rx="8" ry="8" class="j"/><text x="204.12" y="1046" class="h">Windows</text></g></a><a target="_blank" aria-label="Office 365 Enterprise" href="https://docs.microsoft.com/office365/enterprise/" rel="noopener"><g transform="translate(112,-16)"><rect x="0" y="1008" width="496" height="64" rx="8" ry="8" class="i"/><text x="102.4" y="1046" class="h">Office 365 for Microsoft 365 F1</text></g></a><a target="_blank" aria-label="Windows 10" href="https://www.microsoft.com/windowsforbusiness" rel="noopener"><g transform="translate(1168,-16)"><rect x="0" y="1008" width="496" height="64" rx="8" ry="8" class="j"/><text x="204.12" y="1046" class="h">Windows</text></g></a><a target="_blank" aria-label="Enterprise Mobility + Security" href="https://www.microsoft.com/cloud-platform/enterprise-mobility-security" rel="noopener"><g transform="translate(640,-832)"><rect x="0" y="1008" width="496" height="64" rx="8" ry="8" class="k"/><text x="92.12" y="1034" class="h">Enterprise Mobility + Security E3<tspan x="204.66" dy="1.2em" class="l">(EMS E3)</tspan></text></g></a><a target="_blank" aria-label="Enterprise Mobility + Security" href="https://www.microsoft.com/cloud-platform/enterprise-mobility-security" rel="noopener"><g transform="translate(640,-16)"><rect x="0" y="1008" width="496" height="64" rx="8" ry="8" class="k"/><text x="92.12" y="1034" class="h">Enterprise Mobility + Security E3<tspan x="204.66" dy="1.2em" class="l">(EMS E3)</tspan></text></g></a><g transform="translate(1200,-144)"><rect x="0" y="448" width="432" height="624" rx="8" ry="8" class="m"/><text x="4" y="749.22" class="n">Microsoft 365 F1 <tspan class="o">does </tspan><tspan class="p">not</tspan><tspan class="o"></tspan><tspan class="o">include </tspan><tspan x="4" dy="1.426em" class="l">Windows</tspan><tspan class="o">.</tspan></text></g><g transform="translate(144,-144)"><rect x="0" y="736" width="432" height="336" rx="8" ry="8" class="m"/><text x="4" y="761.6" class="q">Limitations: <tspan x="18.17" dy="1.312em" class="r">路</tspan><tspan class="r"></tspan><tspan class="s">Users cannot be administrators. </tspan><tspan x="18.17" dy="1.216em" class="r">路</tspan><tspan class="r"></tspan><tspan class="s">No Skype desktop or app sharing. </tspan><tspan x="18.17" dy="1.216em" class="r">路</tspan><tspan class="r"></tspan><tspan class="s">Cannot schedule Skype meetings. </tspan><tspan x="18.17" dy="1.216em" class="r">路</tspan><tspan class="r"></tspan><tspan class="s">No access to productivity servers.</tspan></text></g><a target="_blank" aria-label="Azure Active Directory Premium Plan 1" href="https://docs.microsoft.com/azure/active-directory/" rel="noopener"><g transform="translate(656,-144)"><rect x="0" y="1024" width="464" height="48" class="m"/><text x="146.03" y="1052.2" class="t">Azure AD Premium Plan 1</text></g></a><a target="_blank" aria-label="Azure AD Reports" href="https://docs.microsoft.com/azure/active-directory/reports-monitoring/" rel="noopener"><g transform="translate(672,-480.494)"><rect x="0" y="992" width="96" height="80" rx="8" ry="8" class="u"/><text x="14.55" y="1011" class="v">Advanced <tspan x="20.38" dy="1.2em" class="l">Security </tspan><tspan x="14.55" dy="1.2em" class="l">Reports &amp; </tspan><tspan x="28.16" dy="1.2em" class="l">Alerts</tspan></text></g></a><a target="_blank" aria-label="Azure AD SSO" href="https://docs.microsoft.com/azure/active-directory/hybrid/how-to-connect-sso" rel="noopener"><g transform="translate(784,-192)"><rect x="0" y="992" width="96" height="80" rx="8" ry="8" class="u"/><text x="7.17" y="1019.4" class="v">Single-Sign-<tspan x="10.28" dy="1.2em" class="l">On to other </tspan><tspan x="30.88" dy="1.2em" class="l">SaaS</tspan></text></g></a><a target="_blank" aria-label="Application Proxy" href="https://docs.microsoft.com/azure/active-directory/manage-apps/application-proxy" rel="noopener"><g transform="translate(784,-480.494)"><rect x="0" y="992" width="96" height="80" rx="8" ry="8" class="u"/><text x="11.05" y="1019.4" class="v">App Proxy, <tspan x="16.89" dy="1.2em" class="l">including </tspan><tspan x="8.31" dy="1.2em" class="l">PingAccess</tspan></text></g></a><a target="_blank" aria-label="Azure Multi-Factor Authentication" href="https://docs.microsoft.com/azure/active-directory/authentication/concept-mfa-howitworks" rel="noopener"><g transform="translate(784,-288)"><rect x="0" y="992" width="96" height="80" rx="8" ry="8" class="u"/><text x="7.95" y="1027.8" class="v">Multi-Factor <tspan x="10.29" dy="1.2em" class="l">Auth (MFA)</tspan></text></g></a><a target="_blank" aria-label="Azure AD Connect Health" href="https://docs.microsoft.com/azure/active-directory/hybrid/whatis-azure-ad-connect#what-is-azure-ad-connect-health" rel="noopener"><g transform="translate(896,-480.494)"><rect x="0" y="992" width="96" height="80" rx="8" ry="8" class="u"/><text x="16.5" y="1019.4" class="v">Azure AD <tspan x="20" dy="1.2em" class="l">Connect </tspan><tspan x="26.61" dy="1.2em" class="l">Health</tspan></text></g></a><a target="_blank" aria-label="Cloud App Discovery" href="https://docs.microsoft.com/cloud-app-security/set-up-cloud-discovery" rel="noopener"><g transform="translate(784,-384)"><rect x="0" y="992" width="96" height="80" rx="8" ry="8" class="u"/><text x="12.62" y="1027.8" class="v">Cloud App <tspan x="14.54" dy="1.2em" class="l">Discovery</tspan></text></g></a><a target="_blank" aria-label="Shared Accounts in Azure AD" href="https://docs.microsoft.com/azure/active-directory/users-groups-roles/users-sharing-accounts" rel="noopener"><g transform="translate(672,-192)"><rect x="0" y="992" width="96" height="80" rx="8" ry="8" class="u"/><text x="24.27" y="1011" class="v">Shared <tspan x="20" dy="1.2em" class="l">Account </tspan><tspan x="14.93" dy="1.2em" class="l">Password </tspan><tspan x="16.49" dy="1.2em" class="l">Roll</tspan>-Over</text></g></a><a target="_blank" aria-label="SSPR" href="https://docs.microsoft.com/azure/active-directory/authentication/concept-sspr-howitworks" rel="noopener"><g transform="translate(896,-288)"><rect x="0" y="992" width="96" height="80" rx="8" ry="8" class="u"/><text x="7.92" y="1019.4" class="v">Self-Service <tspan x="14.93" dy="1.2em" class="l">Password </tspan><tspan x="8.71" dy="1.2em" class="l">Reset in AD</tspan></text></g></a><a target="_blank" aria-label="Self-Service Group Management" href="https://docs.microsoft.com/azure/active-directory/users-groups-roles/groups-self-service-management" rel="noopener"><g transform="translate(1008,-288)"><rect x="0" y="992" width="96" height="80" rx="8" ry="8" class="u"/><text x="7.92" y="1019.4" class="v">Self-Service <tspan x="27" dy="1.2em" class="l">Group </tspan><tspan x="5.21" dy="1.2em" class="l">Management</tspan></text></g></a><a target="_blank" aria-label="Conditional Access" href="https://docs.microsoft.com/azure/active-directory/conditional-access/overview" rel="noopener"><g transform="translate(896,-384)"><rect x="0" y="992" width="96" height="80" rx="8" ry="8" class="u"/><text x="9.51" y="1027.8" class="v">Conditional <tspan x="23.48" dy="1.2em" class="l">Access</tspan></text></g></a><a target="_blank" aria-label="Azure AD External Identities" href="https://docs.microsoft.com/azure/active-directory/external-identities/" rel="noopener"><g transform="translate(1008,-480.494)"><rect x="0" y="992" width="96" height="80" rx="8" ry="8" class="u"/><text x="16.5" y="1019.4" class="v">Azure AD <tspan x="20.38" dy="1.2em" class="l">External </tspan><tspan x="17.27" dy="1.2em" class="l">Identities</tspan></text></g></a><a target="_blank" aria-label="Enterprise State Roaming" href="https://docs.microsoft.com/azure/active-directory/devices/enterprise-state-roaming-overview" rel="noopener"><g transform="translate(1008,-384)"><rect x="0" y="992" width="96" height="80" rx="8" ry="8" class="u"/><text x="13.38" y="1019.4" class="v">Enterprise <tspan x="30.88" dy="1.2em" class="l">State </tspan><tspan x="18.06" dy="1.2em" class="l">Roaming</tspan></text></g></a><a target="_blank" aria-label="Terms of Use" href="https://docs.microsoft.com/azure/active-directory/governance/active-directory-tou" rel="noopener"><g transform="translate(896,-192)"><rect x="0" y="992" width="96" height="80" rx="8" ry="8" class="u"/><text x="18.44" y="1027.8" class="v">Terms of <tspan x="35.16" dy="1.2em" class="l">Use</tspan></text></g></a><a target="_blank" aria-label="Azure AD Password Protection" href="https://docs.microsoft.com/azure/active-directory/authentication/concept-password-ban-bad" rel="noopener"><g transform="translate(672,-384)"><rect x="0" y="992" width="96" height="80" rx="8" ry="8" class="u"/><text x="16.5" y="1019.4" class="v">Azure AD <tspan x="14.93" dy="1.2em" class="l">Password </tspan><tspan x="13.39" dy="1.2em" class="l">Protection</tspan></text></g></a><a target="_blank" aria-label="Microsoft Identity Manager" href="https://docs.microsoft.com/microsoft-identity-manager/" rel="noopener"><g transform="translate(672,-288)"><rect x="0" y="992" width="96" height="80" rx="8" ry="8" class="u"/><text x="16.5" y="1019.4" class="v">Microsoft <tspan x="23.11" dy="1.2em" class="l">Identity </tspan><tspan x="19.21" dy="1.2em" class="l">Manager</tspan></text></g></a><a target="_blank" aria-label="3rd Party MFA Integration" href="https://docs.microsoft.com/azure/active-directory/conditional-access/controls#custom-controls-preview" rel="noopener"><g transform="translate(1008,-192)"><rect x="0" y="992" width="96" height="80" rx="8" ry="8" class="u"/><text x="20.78" y="1019.4" class="v">3<tspan dy="-0.235em" class="w">rd </tspan><tspan dy="0.153em" class="l">Party  </tspan><tspan x="32.84" dy="1.2em" class="l">MFA </tspan><tspan x="11.83" dy="1.2em" class="l">Integration</tspan></text></g></a><a target="_blank" aria-label="Intune Device Management &amp; Application Management" href="https://docs.microsoft.com/mem/intune/fundamentals/what-is-intune" rel="noopener"><g transform="translate(672,-592)"><rect x="0" y="992" width="96" height="80" rx="8" ry="8" class="x"/><text x="8.34" y="1027.8" class="v">Intune MDM <tspan x="24.28" dy="1.2em" class="l">&amp; MAM</tspan></text></g></a><a target="_blank" aria-label="CALs" href="https://www.microsoft.com/en-us/licensing/product-licensing/client-access-license" rel="noopener"><g transform="translate(1008,-592)"><rect x="0" y="992" width="96" height="80" rx="8" ry="8" class="x"/><text x="17.28" y="1019.4" class="v">Windows <tspan x="9.87" dy="1.2em" class="l">Server CAL </tspan><tspan x="26.22" dy="1.2em" class="l">Rights</tspan></text></g></a><a target="_blank" aria-label="Microsoft Endpoint Configuration Manager" href="https://docs.microsoft.com/configmgr/core/understand/introduction" rel="noopener"><g transform="translate(784,-592)"><rect x="0" y="992" width="96" height="80" rx="8" ry="8" class="x"/><text x="16.5" y="1011" class="v">Microsoft <tspan x="17.68" dy="1.2em" class="l">Endpoint </tspan><tspan x="25.84" dy="1.2em" class="l">Config </tspan><tspan x="19.21" dy="1.2em" class="l">Manager</tspan></text></g></a><a target="_blank" aria-label="SCEP" href="https://docs.microsoft.com/sccm/protect/deploy-use/endpoint-protection" rel="noopener"><g transform="translate(896,-592)"><rect x="0" y="992" width="96" height="80" rx="8" ry="8" class="x"/><text x="23.1" y="1011" class="v">System <tspan x="25.83" dy="1.2em" class="l">Center </tspan><tspan x="17.68" dy="1.2em" class="l">Endpoint </tspan><tspan x="13.39" dy="1.2em" class="l">Protection</tspan></text></g></a><a target="_blank" aria-label="Azure RMS" href="https://docs.microsoft.com/azure/information-protection/what-is-azure-rms" rel="noopener"><g transform="translate(672,-688)"><rect x="0" y="992" width="96" height="80" rx="8" ry="8" class="x"/><text x="26.99" y="1011" class="v">Active <tspan x="10.27" dy="1.2em" class="l">Directory &amp; </tspan><tspan x="16.5" dy="1.2em" class="l">Azure AD </tspan><tspan x="32.45" dy="1.2em" class="l">RMS</tspan></text></g></a><a target="_blank" aria-label="Endpoint Analytics" href="https://docs.microsoft.com/mem/analytics/overview" rel="noopener"><g transform="translate(896,-688)"><rect x="0" y="992" width="96" height="80" rx="8" ry="8" class="x"/><text x="17.68" y="1027.8" class="v">Endpoint <tspan x="16.88" dy="1.2em" class="l">Analytics</tspan></text></g></a><a target="_blank" aria-label="Microsoft Teams" href="https://products.office.com/microsoft-teams/" rel="noopener"><g transform="translate(256,-688)"><rect x="0" y="992" width="96" height="80" rx="8" ry="8" class="y"/><text x="16.5" y="1027.8" class="v">Microsoft <tspan x="25.82" dy="1.2em" class="l">Teams</tspan></text></g></a><a target="_blank" aria-label="Yammer" href="https://products.office.com/yammer/yammer-overview" rel="noopener"><g transform="translate(256,-496)"><rect x="0" y="992" width="96" height="80" rx="8" ry="8" class="y"/><text x="20.37" y="1027.8" class="v">Yammer <tspan x="13.38" dy="1.2em" class="l">Enterprise</tspan></text></g></a><a target="_blank" aria-label="SharePoint Online" href="https://docs.microsoft.com/sharepoint/introduction" rel="noopener"><g transform="translate(256,-592)"><rect x="0" y="992" width="96" height="80" rx="8" ry="8" class="y"/><text x="11.05" y="1027.8" class="v">SharePoint <tspan x="5.21" dy="1.2em" class="l">Online Kiosk</tspan></text></g></a><a target="_blank" aria-label="Stream" href="https://docs.microsoft.com/stream/" rel="noopener"><g transform="translate(480,-592)"><rect x="0" y="992" width="96" height="80" rx="8" ry="8" class="y"/><text x="24.27" y="1027.8" class="v">Stream <tspan x="14.06" dy="1.292em" class="z">(Consume)</tspan></text></g></a><a target="_blank" aria-label="Planner" href="https://products.office.com/business/task-management-software" rel="noopener"><g transform="translate(144,-592)"><rect x="0" y="992" width="96" height="80" rx="8" ry="8" class="y"/><text x="22.32" y="1036.2" class="v">Planner</text></g></a><a target="_blank" aria-label="Skype for Business Online" href="https://docs.microsoft.com/office365/servicedescriptions/skype-for-business-online-service-description/skype-for-business-online-service-description" rel="noopener"><g transform="translate(368,-592)"><rect x="0" y="992" width="96" height="80" rx="8" ry="8" class="y"/><text x="16.1" y="1011" class="v">Skype for <tspan x="16.88" dy="1.2em" class="l">Business</tspan><tspan x="27.38" dy="1.2em" class="l">Plan 1 </tspan><tspan x="21.28" dy="1.292em" class="z">(retiring)</tspan></text></g></a><a target="_blank" aria-label="Sway" href="https://support.office.com/sway" rel="noopener"><g transform="translate(144,-496)"><rect x="0" y="992" width="96" height="80" rx="8" ry="8" class="y"/><text x="30.1" y="1036.2" class="v">Sway</text></g></a><a target="_blank" aria-label="Microsoft Forms" href="https://support.office.com/forms" rel="noopener"><g transform="translate(144,-688)"><rect x="0" y="992" width="96" height="80" rx="8" ry="8" class="y"/><text x="16.5" y="1019.4" class="v">Microsoft <tspan x="26.61" dy="1.2em" class="l">Forms </tspan><tspan x="14.06" dy="1.292em" class="z">(Consume)</tspan></text></g></a><a target="_blank" aria-label="Office Mobile" href="https://products.office.com/mobile/office" rel="noopener"><g transform="translate(480,-688)"><rect x="0" y="992" width="96" height="80" rx="8" ry="8" class="y"/><text x="28.16" y="1019.4" class="v">Office<tspan x="6.39" dy="1.2em" class="l">Mobile Apps </tspan><tspan x="14.41" dy="1.292em" class="z">(read</tspan><tspan class="z">-</tspan><tspan class="z">only)</tspan></text></g></a><a target="_blank" aria-label="Office Online" href="https://docs.microsoft.com/office365/servicedescriptions/office-online-service-description/office-online-service-description" rel="noopener"><g transform="translate(368,-688)"><rect x="0" y="992" width="96" height="80" rx="8" ry="8" class="y"/><text x="28.16" y="1019.4" class="v">Office<tspan x="9.5" dy="1.2em" class="l">for the Web </tspan><tspan x="14.41" dy="1.292em" class="z">(read</tspan><tspan class="z">-</tspan><tspan class="z">only)</tspan></text></g></a><a target="_blank" aria-label="Advanced Threat Analytics" href="https://docs.microsoft.com/advanced-threat-analytics/" rel="noopener"><g transform="translate(784,-688)"><rect x="0" y="992" width="96" height="80" rx="8" ry="8" class="x"/><text x="14.55" y="1011" class="v">Advanced <tspan x="26.61" dy="1.2em" class="l">Threat </tspan><tspan x="16.88" dy="1.2em" class="l">Analytics </tspan><tspan x="21.28" dy="1.292em" class="z">(retiring)</tspan></text></g></a><a target="_blank" aria-label="m365maps.com" href="https://m365maps.com/" rel="noopener"><g transform="translate(16,-992)"><rect x="0" y="1008" width="1744" height="64" class="ba"/><text x="682.61" y="1054.4" class="bb">Microsoft 365 F1</text></g></a><g transform="translate(16,-960)"><rect x="0" y="1040" width="1744" height="32" class="ba"/><text x="805.28" y="1065" class="bc">May 2021</text></g><a target="_blank" aria-label="m365maps.com" href="https://m365maps.com/" rel="noopener"><g transform="translate(16,-928)"><rect x="0" y="1040" width="1744" height="32" class="ba"/><text x="804.46" y="1061.4" class="bd">m365maps.com</text></g></a><a target="_blank" aria-label="Information Protection" href="https://docs.microsoft.com/azure/information-protection/what-is-information-protection" rel="noopener"><g transform="translate(1008,-688)"><rect x="0" y="992" width="96" height="80" rx="8" ry="8" class="x"/><text x="9.5" y="1027.8" class="v">Information <tspan x="13.39" dy="1.2em" class="l">Protection</tspan></text></g></a></g></svg>