<svg xmlns="http://www.w3.org/2000/svg" width="560" height="736" viewBox="0 0 560 736" class="a"><style>
.b {fill:#a5a5a5;fill-opacity:0.2;stroke:#004400;stroke-linecap:round;stroke-linejoin:round;stroke-width:2.25}
.c {fill:#a5a5a5;fill-opacity:0.2;stroke:#006600;stroke-dasharray:15.75,11.25;stroke-linecap:round;stroke-linejoin:round;stroke-width:2.25}
.d {fill:#a6a6a6;fill-opacity:0.2;stroke:#008800;stroke-dasharray:2.25,4.5;stroke-linecap:round;stroke-linejoin:round;stroke-width:2.25}
.e {fill:#006600;stroke:#006600;stroke-linecap:round;stroke-linejoin:round;stroke-width:2.25}
.f {fill:#ffffff;font-family:Arial;font-size:1.5em;font-weight:bold}
.g {fill:#004400;stroke:#004400;stroke-linecap:round;stroke-linejoin:round;stroke-width:2.25}
.h {fill:#008800;stroke:#008800;stroke-linecap:round;stroke-linejoin:round;stroke-width:2.25}
.i {fill:#008800;stroke:none;stroke-linecap:round;stroke-linejoin:round;stroke-width:2.5}
.j {fill:#ffffff;font-family:Arial;font-size:1.16666em;font-weight:bold}
.k {font-size:1em}
.l {fill:#ffffff;font-family:Arial;font-size:1.00001em;font-weight:bold}
.m {fill:#006600;stroke:none;stroke-linecap:round;stroke-linejoin:round;stroke-width:2.5}
.n {font-size:0.857157em}
.o {fill:#004400;stroke:none;stroke-linecap:round;stroke-linejoin:round;stroke-width:2.5}
.a {fill:none;fill-rule:evenodd;font-size:12px;overflow:visible;stroke-linecap:square;stroke-miterlimit:3}
</style><g><g transform="translate(16,-16)"><rect x="0" y="32" width="528" height="704" rx="8" ry="8" class="b"/></g><g transform="translate(32,-32)"><rect x="0" y="208" width="496" height="528" rx="8" ry="8" class="c"/></g><g transform="translate(48,-48)"><rect x="0" y="384" width="464" height="352" rx="8" ry="8" class="d"/></g><a target="_blank" href="https://docs.microsoft.com/office365/servicedescriptions/project-online-service-description/project-online-service-description#microsoft-project-subscriptions" rel="noopener"><g transform="translate(32,-512)"><rect x="0" y="688" width="496" height="48" rx="8" ry="8" class="e"/><text x="188.48" y="717.4" class="f">Project Plan 3</text></g></a><a target="_blank" href="https://docs.microsoft.com/office365/servicedescriptions/project-online-service-description/project-online-service-description#microsoft-project-subscriptions" rel="noopener"><g transform="translate(16,-672)"><rect x="0" y="688" width="528" height="48" rx="8" ry="8" class="g"/><text x="204.48" y="717.4" class="f">Project Plan 5</text></g></a><a target="_blank" href="https://docs.microsoft.com/office365/servicedescriptions/project-online-service-description/project-online-service-description#microsoft-project-subscriptions" rel="noopener"><g transform="translate(48,-352)"><rect x="0" y="688" width="464" height="48" rx="8" ry="8" class="h"/><text x="172.48" y="717.4" class="f">Project Plan 1</text></g></a><a target="_blank" href="https://support.microsoft.com/office/a44e4d20-a5f0-4f36-94c0-d0abeca8366f" rel="noopener"><g transform="translate(288,-64)"><rect x="0" y="656" width="96" height="80" rx="8" ry="8" class="i"/><text x="13.38" y="691.8" class="j">Timesheet <tspan x="8.33" dy="1.2em" class="k">Submission</tspan></text></g></a><a target="_blank" href="https://support.microsoft.com/office/50bf3e29-0f0d-4b7a-9d2c-7c78389b67ad" rel="noopener"><g transform="translate(64,-160)"><rect x="0" y="656" width="96" height="80" rx="8" ry="8" class="i"/><text x="12.99" y="691.8" class="j">Project for <tspan x="20.78" dy="1.2em" class="k">the Web</tspan></text></g></a><a target="_blank" href="https://support.microsoft.com/office/b9766811-9f5f-4bca-ac9c-202a183a1656#ID0EAABAAA=Scheduling" rel="noopener"><g transform="translate(288,-160)"><rect x="0" y="656" width="96" height="80" rx="8" ry="8" class="i"/><text x="24.27" y="683.4" class="j">Project <tspan x="11.45" dy="1.2em" class="k">Planning &amp; </tspan><tspan x="10.28" dy="1.2em" class="k">Scheduling</tspan></text></g></a><a target="_blank" href="https://support.microsoft.com/office/b01443f4-0e85-4952-b1f2-f4b55e4a90be" rel="noopener"><g transform="translate(400,-256)"><rect x="0" y="656" width="96" height="80" rx="8" ry="8" class="i"/><text x="15.71" y="700.2" class="j">Grid View</text></g></a><a target="_blank" href="https://support.microsoft.com/office/6e74dc79-0e2d-480b-b600-3a466bf289a3" rel="noopener"><g transform="translate(400,-158.173)"><rect x="0" y="656" width="96" height="80" rx="8" ry="8" class="i"/><text x="14.95" y="700.2" class="j">Reporting</text></g></a><a target="_blank" href="https://support.microsoft.com/office/2ce5cddb-87da-42fe-9df3-fbe37c3c7afb" rel="noopener"><g transform="translate(176,-256)"><rect x="0" y="656" width="96" height="80" rx="8" ry="8" class="i"/><text x="4.07" y="700.2" class="j">Co-authoring</text></g></a><a target="_blank" href="https://support.microsoft.com/office/2dc584e6-2f6c-4e2d-9008-0b3f6845eb52" rel="noopener"><g transform="translate(288,-256)"><rect x="0" y="656" width="96" height="80" rx="8" ry="8" class="i"/><text x="9.33" y="692.4" class="l">Collaboration <tspan x="20" dy="1.2em" class="k">&amp; Comms</tspan></text></g></a><a target="_blank" href="https://support.microsoft.com/office/a3b38418-35e7-4df4-8e4a-ba6a4fa0562a" rel="noopener"><g transform="translate(176,-160)"><rect x="0" y="656" width="96" height="80" rx="8" ry="8" class="i"/><text x="24.27" y="691.8" class="j">Project <tspan x="28.55" dy="1.2em" class="k">Home</tspan></text></g></a><a target="_blank" href="https://support.microsoft.com/office/fdca571c-d35b-490b-8560-8b39ae4a6cb4" rel="noopener"><g transform="translate(288,-416)"><rect x="0" y="656" width="96" height="80" rx="8" ry="8" class="m"/><text x="16.1" y="691.8" class="j">Resource <tspan x="5.21" dy="1.2em" class="k">Management</tspan></text></g></a><a target="_blank" href="https://support.microsoft.com/office/57764149-51b8-468f-a50d-9ea6a4fd835a" rel="noopener"><g transform="translate(400,-416)"><rect x="0" y="656" width="96" height="80" rx="8" ry="8" class="m"/><text x="16.11" y="683.4" class="j">Roadmap <tspan x="4.82" dy="1.2em" class="k">Visualisation </tspan><tspan x="33.34" dy="1.4em" class="n">(edit)</tspan></text></g></a><a target="_blank" href="https://support.microsoft.com/office/6569170c-5c8e-474e-a7f0-642872f62f8a" rel="noopener"><g transform="translate(64,-416)"><rect x="0" y="656" width="96" height="80" rx="8" ry="8" class="m"/><text x="24.27" y="691.8" class="j">Project <tspan x="26.22" dy="1.2em" class="k">Online</tspan></text></g></a><a target="_blank" href="https://support.microsoft.com/office/7059249b-d9fe-4d61-ab96-5c5bf435f281" rel="noopener"><g transform="translate(176,-416)"><rect x="0" y="656" width="96" height="80" rx="8" ry="8" class="m"/><text x="24.27" y="675" class="j">Project <tspan x="26.22" dy="1.2em" class="k">Online </tspan><tspan x="20.38" dy="1.2em" class="k">Desktop </tspan><tspan x="27.33" dy="1.4em" class="n">(5 PCs)</tspan></text></g></a><a target="_blank" href="https://support.microsoft.com/office/b01443f4-0e85-4952-b1f2-f4b55e4a90be" rel="noopener"><g transform="translate(176,-64)"><rect x="0" y="656" width="96" height="80" rx="8" ry="8" class="i"/><text x="19.6" y="691.8" class="j">Timeline <tspan x="7.17" dy="1.2em" class="k">(Gantt) View</tspan></text></g></a><a target="_blank" href="https://support.microsoft.com/office/1c318425-81ee-441a-83dd-6fe8606275d6" rel="noopener"><g transform="translate(64,-256)"><rect x="0" y="656" width="96" height="80" rx="8" ry="8" class="i"/><text x="9.88" y="700.2" class="j">Board View</text></g></a><a target="_blank" href="https://support.microsoft.com/office/fdca571c-d35b-490b-8560-8b39ae4a6cb4" rel="noopener"><g transform="translate(176,-576)"><rect x="0" y="656" width="96" height="80" rx="8" ry="8" class="o"/><text x="13.38" y="683.4" class="j">Enterprise <tspan x="16.1" dy="1.2em" class="k">Resource </tspan><tspan x="18.44" dy="1.2em" class="k">Planning</tspan></text></g></a><a target="_blank" href="https://support.microsoft.com/office/6ce59d2e-aff1-49f0-ac61-8952b438e444" rel="noopener"><g transform="translate(64,-576)"><rect x="0" y="656" width="96" height="80" rx="8" ry="8" class="o"/><text x="20.38" y="691.8" class="j">Demand <tspan x="5.21" dy="1.2em" class="k">Management</tspan></text></g></a><a target="_blank" href="https://support.microsoft.com/office/7e5503e2-79ac-425d-b91c-a49c1548d384" rel="noopener"><g transform="translate(288,-576)"><rect x="0" y="656" width="96" height="80" rx="8" ry="8" class="o"/><text x="19.23" y="683.4" class="j">Portfolio <tspan x="9.88" dy="1.2em" class="k">Selection &amp; </tspan><tspan x="5.61" dy="1.2em" class="k">Optimization</tspan></text></g></a><a target="_blank" href="https://support.microsoft.com/office/57764149-51b8-468f-a50d-9ea6a4fd835a" rel="noopener"><g transform="translate(64,-64)"><rect x="0" y="656" width="96" height="80" rx="8" ry="8" class="i"/><text x="16.11" y="683.4" class="j">Roadmap <tspan x="4.82" dy="1.2em" class="k">Visualisation </tspan><tspan x="31" dy="1.4em" class="n">(view)</tspan></text></g></a></g></svg>