<svg xmlns="http://www.w3.org/2000/svg" width="640" height="640" viewBox="0 0 640 640" class="a"><style>
.b {fill:#a5a5a5;fill-opacity:0.2;stroke:#303040;stroke-linecap:round;stroke-linejoin:round;stroke-width:2.25}
.c {fill:#a5a5a5;fill-opacity:0.2;stroke:#403050;stroke-dasharray:15.75,11.25;stroke-linecap:round;stroke-linejoin:round;stroke-width:2.25}
.d {fill:#d8d8d8;fill-opacity:0.6;stroke:#002060;stroke-linecap:round;stroke-linejoin:round;stroke-width:2.25}
.e {fill:#9050d0;stroke:none;stroke-linecap:round;stroke-linejoin:round;stroke-width:0.5}
.f {fill:#ffffff;font-family:Arial;font-size:1.16666em;font-weight:bold}
.g {font-size:1em}
.h {fill:#ffffff;font-family:Arial;font-size:1.08334em;font-weight:bold}
.i {fill:#7030a0;stroke:none;stroke-linecap:round;stroke-linejoin:round;stroke-width:0.5}
.j {fill:#002060;stroke:#002060;stroke-linecap:round;stroke-linejoin:round;stroke-width:2.25}
.k {fill:#ffffff;font-family:Arial;font-size:1.66667em;font-weight:bold}
.l {fill:#ffffff;fill-opacity:0.75;stroke:none;stroke-linecap:round;stroke-linejoin:round;stroke-width:0.5}
.m {fill:#000000;font-family:Arial;font-size:1.16666em}
.n {fill:#e00080;stroke:none;stroke-linecap:round;stroke-linejoin:round;stroke-width:0.5}
.o {fill:#403050;stroke:#403050;stroke-linecap:round;stroke-linejoin:round;stroke-width:2.25}
.p {fill:#303040;stroke:#303040;stroke-linecap:round;stroke-linejoin:round;stroke-width:2.25}
.a {fill:none;fill-rule:evenodd;font-size:12px;overflow:visible;stroke-linecap:square;stroke-miterlimit:3}
</style><g><g transform="translate(16,-192)"><rect x="0" y="208" width="608" height="432" rx="8" ry="8" class="b"/></g><g transform="translate(32,-400)"><rect x="0" y="480" width="576" height="160" rx="8" ry="8" class="c"/></g><g transform="translate(16,-16)"><rect x="0" y="496" width="608" height="144" rx="8" ry="8" class="d"/></g><a target="_blank" href="https://docs.microsoft.com/MicrosoftTeams/what-is-phone-system-in-office-365" rel="noopener"><g transform="translate(384,-416)"><rect x="0" y="560" width="96" height="80" rx="8" ry="8" class="e"/><text x="26.61" y="595.8" class="f">Phone <tspan x="23.1" dy="1.2em" class="g">System</tspan></text></g></a><a target="_blank" href="https://docs.microsoft.com/microsoftteams/audio-conferencing-in-office-365" rel="noopener"><g transform="translate(48,-416)"><rect x="0" y="560" width="96" height="80" rx="8" ry="8" class="e"/><text x="29.59" y="588.3" class="h">Audio <tspan x="6.11" dy="1.2em" class="g">Conferencing </tspan><tspan x="32.12" dy="1.2em" class="g">(Full)</tspan></text></g></a><a target="_blank" href="https://products.office.com/microsoft-teams/" rel="noopener"><g transform="translate(272,-416)"><rect x="0" y="560" width="96" height="80" rx="8" ry="8" class="e"/><text x="16.5" y="595.8" class="f">Microsoft <tspan x="25.82" dy="1.2em" class="g">Teams</tspan></text></g></a><a target="_blank" href="https://docs.microsoft.com/microsoftteams/rooms/microsoft-teams-rooms-premium#service-capabilities" rel="noopener"><g transform="translate(270.296,-208)"><rect x="0" y="560" width="96" height="80" rx="8" ry="8" class="i"/><text x="28.17" y="587.4" class="f">Room <tspan x="11.45" dy="1.2em" class="g">Planning &amp; </tspan><tspan x="23.9" dy="1.2em" class="g">Rollout</tspan></text></g></a><a target="_blank" href="https://docs.microsoft.com/microsoftteams/rooms/microsoft-teams-rooms-premium#service-features" rel="noopener"><g transform="translate(494.296,-304)"><rect x="0" y="560" width="96" height="80" rx="8" ry="8" class="i"/><text x="11.84" y="587.4" class="f">Monitoring <tspan x="5.61" dy="1.2em" class="g">and Trouble</tspan>-<tspan x="18.45" dy="1.2em" class="g">shooting</tspan></text></g></a><a target="_blank" href="https://docs.microsoft.com/microsoftteams/rooms/microsoft-teams-rooms-premium#service-features" rel="noopener"><g transform="translate(382.296,-208)"><rect x="0" y="560" width="96" height="80" rx="8" ry="8" class="i"/><text x="20.38" y="587.4" class="f">Security <tspan x="24.28" dy="1.2em" class="g">Update </tspan><tspan x="5.21" dy="1.2em" class="g">Management</tspan></text></g></a><a target="_blank" href="https://docs.microsoft.com/microsoftteams/rooms/microsoft-teams-rooms-premium#service-features" rel="noopener"><g transform="translate(270.296,-304)"><rect x="0" y="560" width="96" height="80" rx="8" ry="8" class="i"/><text x="6.78" y="595.8" class="f">Insights and <tspan x="6" dy="1.2em" class="g">Suggestions</tspan></text></g></a><a target="_blank" href="https://docs.microsoft.com/microsoftteams/rooms/microsoft-teams-rooms-premium#customer-support" rel="noopener"><g transform="translate(46.2963,-304)"><rect x="0" y="560" width="96" height="80" rx="8" ry="8" class="i"/><text x="15.33" y="595.8" class="f">Customer <tspan x="21.17" dy="1.2em" class="g">Support</tspan></text></g></a><a target="_blank" href="https://docs.microsoft.com/mem/intune/fundamentals/what-is-intune" rel="noopener"><g transform="translate(160,-416)"><rect x="0" y="560" width="96" height="80" rx="8" ry="8" class="e"/><text x="16.5" y="595.8" class="f">Microsoft <tspan x="27" dy="1.2em" class="g">Intune</tspan></text></g></a><a target="_blank" href="https://docs.microsoft.com/microsoftteams/rooms/microsoft-teams-rooms-premium#service-capabilities" rel="noopener"><g transform="translate(494.296,-208)"><rect x="0" y="560" width="96" height="80" rx="8" ry="8" class="i"/><text x="4.41" y="595.8" class="f">Service Desk <tspan x="11.83" dy="1.2em" class="g">Integration</tspan></text></g></a><a target="_blank" href="https://docs.microsoft.com/microsoftteams/rooms/microsoft-teams-rooms-premium#service-features" rel="noopener"><g transform="translate(382.296,-304)"><rect x="0" y="560" width="96" height="80" rx="8" ry="8" class="i"/><text x="16.49" y="595.8" class="f">Inventory <tspan x="5.21" dy="1.2em" class="g">Management</tspan></text></g></a><a target="_blank" href="https://docs.microsoft.com/microsoftteams/rooms/microsoft-teams-rooms-premium#service-features" rel="noopener"><g transform="translate(158.296,-208)"><rect x="0" y="560" width="96" height="80" rx="8" ry="8" class="i"/><text x="28.17" y="595.8" class="f">Room <tspan x="13.39" dy="1.2em" class="g">Enrolment</tspan></text></g></a><a target="_blank" href="https://docs.microsoft.com/microsoftteams/rooms/microsoft-teams-rooms-premium#service-features" rel="noopener"><g transform="translate(46.2963,-208)"><rect x="0" y="560" width="96" height="80" rx="8" ry="8" class="i"/><text x="4.45" y="604.2" class="f">Room Admin</text></g></a><a target="_blank" href="https://docs.microsoft.com/microsoftteams/rooms/microsoft-teams-rooms-premium#service-features" rel="noopener"><g transform="translate(158.296,-304)"><rect x="0" y="560" width="96" height="80" rx="8" ry="8" class="i"/><text x="25.43" y="587.4" class="f">Device <tspan x="24.28" dy="1.2em" class="g">Update </tspan><tspan x="5.21" dy="1.2em" class="g">Management</tspan></text></g></a><g transform="translate(16,-128)"><rect x="0" y="608" width="608" height="32" rx="8" ry="8" class="j"/><text x="223.95" y="630" class="k">Related Services</text></g><g transform="translate(336,-32)"><rect x="0" y="560" width="256" height="80" rx="8" ry="8" class="l"/><text x="117.39" y="595.8" class="m">PSTN telephony <tspan x="117.39" dy="1.2em" class="g">calling plans</tspan></text></g><g transform="translate(48,-32)"><rect x="0" y="560" width="256" height="80" rx="8" ry="8" class="l"/><text x="117.39" y="587.4" class="m">Branding, monitoring, <tspan x="117.39" dy="1.2em" class="g">and meetings </tspan><tspan x="117.39" dy="1.2em" class="g">analysis</tspan></text></g><a target="_blank" href="https://products.office.com/microsoft-teams/voice-calling" rel="noopener"><g transform="translate(336,-32)"><rect x="0" y="560" width="96" height="80" rx="8" ry="8" class="n"/><text x="24.67" y="595.8" class="f">Calling <tspan x="29.32" dy="1.2em" class="g">Plans</tspan></text></g></a><a target="_blank" href="https://docs.microsoft.com/microsoftteams/teams-add-on-licensing/advanced-communications" rel="noopener"><g transform="translate(48,-32)"><rect x="0" y="560" width="96" height="80" rx="8" ry="8" class="n"/><text x="14.55" y="595.8" class="f">Advanced <tspan x="22.33" dy="1.2em" class="g">Comms</tspan></text></g></a><a target="_blank" href="https://docs.microsoft.com/microsoftteams/rooms/" rel="noopener"><g transform="translate(32,-512)"><rect x="0" y="592" width="576" height="48" rx="8" ry="8" class="o"/><text x="125.75" y="622" class="k">Microsoft Teams Rooms Standard</text></g></a><a target="_blank" href="https://docs.microsoft.com/microsoftteams/rooms/" rel="noopener"><g transform="translate(16,-576)"><rect x="0" y="592" width="608" height="48" rx="8" ry="8" class="p"/><text x="142.3" y="622" class="k">Microsoft Teams Rooms Premium</text></g></a></g></svg>