<svg xmlns="http://www.w3.org/2000/svg" width="416" height="592" viewBox="0 0 416 592" class="a"><style>
.b {fill:#a5a5a5;fill-opacity:0.2;stroke:#e82200;stroke-linecap:round;stroke-linejoin:round;stroke-width:2.25}
.c {fill:#e82200;stroke:#e82200;stroke-linecap:round;stroke-linejoin:round;stroke-width:2.25}
.d {fill:#ffffff;font-family:Arial;font-size:1.66667em;font-weight:bold}
.e {fill:#e82200;stroke:none;stroke-linecap:round;stroke-linejoin:round;stroke-width:1}
.f {fill:#ffffff;font-family:Arial;font-size:1.16666em;font-weight:bold}
.g {font-size:1em}
.a {fill:none;fill-rule:evenodd;font-size:12px;overflow:visible;stroke-linecap:square;stroke-miterlimit:3}
</style><g><g transform="translate(16,-16)"><rect x="0" y="32" width="384" height="560" rx="8" ry="8" class="b"/></g><a target="_blank" href="https://www.microsoft.com/microsoft-365/business/microsoft-365-apps-for-enterprise-product" rel="noopener"><g transform="translate(16,-544)"><rect x="0" y="560" width="384" height="32" rx="8" ry="8" class="c"/><text x="31.41" y="582" class="d">Microsoft 365 Apps for Enterprise</text></g></a><a target="_blank" href="https://products.office.com/mobile/office" rel="noopener"><g transform="translate(160,-240)"><rect x="0" y="512" width="96" height="80" rx="8" ry="8" class="e"/><text x="28.16" y="547.8" class="f">Office <tspan x="6.39" dy="1.2em" class="g">Mobile Apps</tspan></text></g></a><a target="_blank" href="https://docs.microsoft.com/office365/servicedescriptions/office-online-service-description/office-online-service-description" rel="noopener"><g transform="translate(48,-240)"><rect x="0" y="512" width="96" height="80" rx="8" ry="8" class="e"/><text x="28.16" y="539.4" class="f">Office<tspan x="9.5" dy="1.2em" class="g">for the Web</tspan><tspan x="12.61" dy="1.2em" class="g">(incl Visio)</tspan></text></g></a><a target="_blank" href="https://www.microsoft.com/microsoft-365/business/microsoft-365-apps-for-business" rel="noopener"><g transform="translate(48,-336)"><rect x="0" y="512" width="96" height="80" rx="8" ry="8" class="e"/><text x="28.16" y="539.4" class="f">Office <tspan x="6" dy="1.2em" class="g">Applications </tspan><tspan x="11.05" dy="1.2em" class="g">(PC &amp; Mac)</tspan></text></g></a><a target="_blank" href="https://support.office.com/sway" rel="noopener"><g transform="translate(160,-48)"><rect x="0" y="512" width="96" height="80" rx="8" ry="8" class="e"/><text x="30.1" y="556.2" class="f">Sway</text></g></a><a target="_blank" href="https://support.office.com/forms" rel="noopener"><g transform="translate(160,-432)"><rect x="0" y="512" width="96" height="80" rx="8" ry="8" class="e"/><text x="16.5" y="547.8" class="f">Microsoft <tspan x="26.61" dy="1.2em" class="g">Forms</tspan></text></g></a><a target="_blank" href="https://docs.microsoft.com/office365/servicedescriptions/onedrive-for-business-service-description" rel="noopener"><g transform="translate(160,-144)"><rect x="0" y="512" width="96" height="80" rx="8" ry="8" class="e"/><text x="5.6" y="539.4" class="f">OneDrive for <tspan x="16.88" dy="1.2em" class="g">Business </tspan><tspan x="27.38" dy="1.2em" class="g">Plan 1</tspan></text></g></a><a target="_blank" href="https://docs.microsoft.com/DeployOffice/overview-shared-computer-activation" rel="noopener"><g transform="translate(48,-48)"><rect x="0" y="512" width="96" height="80" rx="8" ry="8" class="e"/><text x="24.27" y="539.4" class="f">Shared <tspan x="14.95" dy="1.2em" class="g">Computer </tspan><tspan x="14.16" dy="1.2em" class="g">Activation</tspan></text></g></a><a target="_blank" href="https://docs.microsoft.com/office365/servicedescriptions/office-applications-service-description/office-applications-service-description" rel="noopener"><g transform="translate(160,-336)"><rect x="0" y="512" width="96" height="80" rx="8" ry="8" class="e"/><text x="4.06" y="547.8" class="f">Office Add-in <tspan x="21.17" dy="1.2em" class="g">Support</tspan></text></g></a><a target="_blank" href="https://docs.microsoft.com/office365/servicedescriptions/office-applications-service-description/office-applications-service-description" rel="noopener"><g transform="translate(272,-240)"><rect x="0" y="512" width="96" height="80" rx="8" ry="8" class="e"/><text x="5.22" y="539.4" class="f">Office Group <tspan x="27.38" dy="1.2em" class="g">Policy </tspan><tspan x="21.17" dy="1.2em" class="g">Support</tspan></text></g></a><a target="_blank" href="https://docs.microsoft.com/office365/servicedescriptions/office-applications-service-description/office-applications-service-description" rel="noopener"><g transform="translate(272,-144)"><rect x="0" y="512" width="96" height="80" rx="8" ry="8" class="e"/><text x="18.06" y="547.8" class="f">Roaming <tspan x="20.39" dy="1.2em" class="g">Settings</tspan></text></g></a><a target="_blank" href="https://support.microsoft.com/office/1315665a-c6af-4409-a28d-49f8916878ca" rel="noopener"><g transform="translate(48,-432)"><rect x="0" y="512" width="96" height="80" rx="8" ry="8" class="e"/><text x="29.32" y="556.2" class="f">Delve</text></g></a><a target="_blank" href="https://docs.microsoft.com/deployoffice/compat/compatibility-and-telemetry-in-office" rel="noopener"><g transform="translate(48,-144)"><rect x="0" y="512" width="96" height="80" rx="8" ry="8" class="e"/><text x="28.16" y="547.8" class="f">Office <tspan x="14.93" dy="1.2em" class="g">Telemetry</tspan></text></g></a><a target="_blank" href="https://docs.microsoft.com/deployoffice/overview-office-cloud-policy-service" rel="noopener"><g transform="translate(272,-336)"><rect x="0" y="512" width="96" height="80" rx="8" ry="8" class="e"/><text x="6.39" y="539.4" class="f">Office Cloud <tspan x="27.38" dy="1.2em" class="g">Policy </tspan><tspan x="23.09" dy="1.2em" class="g">Service</tspan></text></g></a><a target="_blank" href="https://docs.microsoft.com/office365/servicedescriptions/office-applications-service-description/office-applications-service-description" rel="noopener"><g transform="translate(272,-48)"><rect x="0" y="512" width="96" height="80" rx="8" ry="8" class="e"/><text x="26.22" y="539.4" class="f">Virtual <tspan x="5.6" dy="1.2em" class="g">Desktop Use </tspan><tspan x="26.22" dy="1.2em" class="g">Rights</tspan></text></g></a><a target="_blank" href="https://support.microsoft.com/office/d236aef8-fcdf-4b5e-b5d7-7f157461e920" rel="noopener"><g transform="translate(272,-432)"><rect x="0" y="512" width="96" height="80" rx="8" ry="8" class="e"/><text x="16.5" y="547.8" class="f">Microsoft <tspan x="9.5" dy="1.2em" class="g">Whiteboard</tspan></text></g></a></g></svg>