<svg xmlns="http://www.w3.org/2000/svg" width="944" height="1664" viewBox="0 0 944 1664" class="a"><style>
.b {fill:#a5a5a5;fill-opacity:0.2;stroke:#006600;stroke-dasharray:33.75,20.25;stroke-linecap:round;stroke-linejoin:round;stroke-width:2.25}
.c {fill:#a5a5a5;fill-opacity:0.2;stroke:#2080a0;stroke-dasharray:33.75,20.25;stroke-linecap:round;stroke-linejoin:round;stroke-width:2.25}
.d {fill:#a5a5a5;fill-opacity:0.2;stroke:#e82200;stroke-dasharray:33.75,20.25;stroke-linecap:round;stroke-linejoin:round;stroke-width:2.25}
.e {fill:#a5a5a5;fill-opacity:0.2;stroke:#a058c0;stroke-linecap:round;stroke-linejoin:round;stroke-width:2.25}
.f {fill:#2080a0;stroke:#2080a0;stroke-linecap:round;stroke-linejoin:round;stroke-width:2.25}
.g {fill:#ffffff;font-family:Arial;font-size:1.66667em;font-weight:bold}
.h {fill:#006600;stroke:#006600;stroke-linecap:round;stroke-linejoin:round;stroke-width:2.25}
.i {fill:#e82200;stroke:#e82200;stroke-linecap:round;stroke-linejoin:round;stroke-width:2.25}
.j {fill:#a058c0;stroke:#a058c0;stroke-linecap:round;stroke-linejoin:round;stroke-width:2.25}
.k {fill:#a41500;stroke:none;stroke-linecap:round;stroke-linejoin:round;stroke-width:1}
.l {fill:#ffffff;font-family:Arial;font-size:1.16666em;font-weight:bold}
.m {font-size:1em}
.n {fill:#2080a0;stroke:none;stroke-linecap:round;stroke-linejoin:round;stroke-width:1}
.o {fill:#008800;stroke:none;stroke-linecap:round;stroke-linejoin:round;stroke-width:1}
.p {font-size:0.928588em}
.q {fill:#ffffff;font-family:Arial;font-size:1.00001em;font-weight:bold}
.r {fill:none;stroke:none;stroke-linecap:round;stroke-linejoin:round;stroke-width:0.75}
.s {fill:#0070f7;font-family:Arial;font-size:4.00001em;font-weight:bold}
.t {fill:none;stroke:none;stroke-linecap:round;stroke-linejoin:round;stroke-width:1}
.u {fill:#0070f7;font-family:Arial;font-size:2.50001em;font-weight:bold}
.v {fill:#0070f7;font-family:Arial;font-size:1.5em;font-weight:bold}
.w {fill:#d8d8d8;stroke:none;stroke-linecap:round;stroke-linejoin:round;stroke-width:1}
.x {fill:#694b18;stroke:none;stroke-width:0.75}
.y {fill:#291805;stroke:none;stroke-width:0.75}
.z {fill:#4c2f12;stroke:none;stroke-width:0.75}
.ba {fill:#8b6323;stroke:none;stroke-width:0.75}
.bb {fill:#dedede;stroke:none;stroke-width:0.75}
.bc {fill:#c6c6c6;stroke:none;stroke-width:0.75}
.bd {fill:#424242;stroke:none;stroke-width:0.75}
.be {fill:#ffffff;stroke:none;stroke-width:0.75}
.bf {fill:#907000;stroke:none;stroke-linecap:round;stroke-linejoin:round;stroke-width:1}
.a {fill:none;fill-rule:evenodd;font-size:12px;overflow:visible;stroke-linecap:square;stroke-miterlimit:3}
</style><g><g transform="translate(16,-112)"><rect x="0" y="1296" width="912" height="368" rx="8" ry="8" class="b"/></g><g transform="translate(16,-512)"><rect x="0" y="1488" width="912" height="176" rx="8" ry="8" class="c"/></g><g transform="translate(16,-720)"><rect x="0" y="1104" width="912" height="560" rx="8" ry="8" class="d"/></g><g transform="translate(112,-16)"><rect x="0" y="192" width="720" height="1472" rx="8" ry="8" class="e"/></g><a target="_blank" href="https://www.microsoft.com/cloud-platform/enterprise-mobility-security" rel="noopener"><g transform="translate(-1584,1152) rotate(-90)"><rect x="0" y="1600" width="176" height="64" rx="8" ry="8" class="f"/><text x="66.33" y="1638" class="g">EMS</text></g></a><a target="_blank" href="https://www.microsoft.com/windowsforbusiness" rel="noopener"><g transform="translate(-1584,1552) rotate(-90)"><rect x="0" y="1600" width="368" height="64" rx="8" ry="8" class="h"/><text x="77.33" y="1638" class="g">Windows Pro Upgrade</text></g></a><a target="_blank" href="https://docs.microsoft.com/office365/servicedescriptions/office-365-platform-service-description/office-365-education" rel="noopener"><g transform="translate(-1584,944) rotate(-90)"><rect x="0" y="1600" width="560" height="64" rx="8" ry="8" class="i"/><text x="232.2" y="1638" class="g">Office 365</text></g></a><a target="_blank" href="https://www.microsoft.com/microsoft-365/compare-all-microsoft-365-plans" rel="noopener"><g transform="translate(112,-16)"><rect x="0" y="1600" width="720" height="64" rx="8" ry="8" class="j"/><text x="223.28" y="1638" class="g">Microsoft 365 A1 for Devices</text></g></a><a target="_blank" href="https://www.microsoft.com/microsoft-365/compare-all-microsoft-365-plans" rel="noopener"><g transform="translate(112,-1424)"><rect x="0" y="1600" width="720" height="64" rx="8" ry="8" class="j"/><text x="223.28" y="1638" class="g">Microsoft 365 A1 for Devices</text></g></a><a target="_blank" href="https://products.office.com/yammer/yammer-overview" rel="noopener"><g transform="translate(592,-768)"><rect x="0" y="1584" width="96" height="80" rx="8" ry="8" class="k"/><text x="20.37" y="1619.8" class="l">Yammer <tspan x="14.93" dy="1.2em" class="m">Academic</tspan></text></g></a><a target="_blank" href="https://support.office.com/sway" rel="noopener"><g transform="translate(480,-768)"><rect x="0" y="1584" width="96" height="80" rx="8" ry="8" class="k"/><text x="30.1" y="1628.2" class="l">Sway</text></g></a><a target="_blank" href="https://www.microsoft.com/microsoft-365/exchange/exchange-email-security-spam-protection" rel="noopener"><g transform="translate(256,-1056)"><rect x="0" y="1584" width="96" height="80" rx="8" ry="8" class="k"/><text x="14.93" y="1611.4" class="l">Exchange <tspan x="26.22" dy="1.2em" class="m">Online </tspan><tspan x="13.39" dy="1.2em" class="m">Protection</tspan></text></g></a><a target="_blank" href="https://products.office.com/microsoft-teams/" rel="noopener"><g transform="translate(256,-960)"><rect x="0" y="1584" width="96" height="80" rx="8" ry="8" class="k"/><text x="16.5" y="1619.8" class="l">Microsoft <tspan x="25.82" dy="1.2em" class="m">Teams</tspan></text></g></a><a target="_blank" href="https://docs.microsoft.com/office365/servicedescriptions/exchange-online-service-description/exchange-online-service-description#feature-availability-across-exchange-online-standalone-plans" rel="noopener"><g transform="translate(144,-1056)"><rect x="0" y="1584" width="96" height="80" rx="8" ry="8" class="k"/><text x="14.93" y="1611.4" class="l">Exchange <tspan x="26.22" dy="1.2em" class="m">Online</tspan><tspan x="23.29" dy="1.2em" class="m">Plan 1+</tspan></text></g></a><a target="_blank" href="https://docs.microsoft.com/sharepoint/introduction" rel="noopener"><g transform="translate(256,-768)"><rect x="0" y="1584" width="96" height="80" rx="8" ry="8" class="k"/><text x="11.05" y="1611.4" class="l">SharePoint <tspan x="26.22" dy="1.2em" class="m">Online </tspan><tspan x="23.29" dy="1.2em" class="m">Plan 1+</tspan></text></g></a><a target="_blank" href="https://docs.microsoft.com/office365/servicedescriptions/onedrive-for-business-service-description" rel="noopener"><g transform="translate(704,-960)"><rect x="0" y="1584" width="96" height="80" rx="8" ry="8" class="k"/><text x="5.6" y="1611.4" class="l">OneDrive for <tspan x="16.88" dy="1.2em" class="m">Business </tspan><tspan x="27.38" dy="1.2em" class="m">Plan 1</tspan></text></g></a><a target="_blank" href="https://products.office.com/business/task-management-software" rel="noopener"><g transform="translate(256,-864)"><rect x="0" y="1584" width="96" height="80" rx="8" ry="8" class="k"/><text x="22.32" y="1628.2" class="l">Planner</text></g></a><a target="_blank" href="https://docs.microsoft.com/stream/" rel="noopener"><g transform="translate(368,-768)"><rect x="0" y="1584" width="96" height="80" rx="8" ry="8" class="k"/><text x="12.99" y="1619.8" class="l">Stream for <tspan x="14.54" dy="1.2em" class="m">Office 365</tspan></text></g></a><a target="_blank" href="https://powerapps.microsoft.com/" rel="noopener"><g transform="translate(480,-864)"><rect x="0" y="1584" width="96" height="80" rx="8" ry="8" class="k"/><text x="7.55" y="1611.4" class="l">Power Apps<tspan x="38.67" dy="1.2em" class="m">for</tspan><tspan x="14.54" dy="1.2em" class="m">Office 365</tspan></text></g></a><a target="_blank" href="https://support.microsoft.com/office/1315665a-c6af-4409-a28d-49f8916878ca" rel="noopener"><g transform="translate(592,-1152)"><rect x="0" y="1584" width="96" height="80" rx="8" ry="8" class="k"/><text x="29.32" y="1628.2" class="l">Delve</text></g></a><a target="_blank" href="https://docs.microsoft.com/office365/securitycompliance/data-loss-prevention-policies" rel="noopener"><g transform="translate(480,-1152)"><rect x="0" y="1584" width="96" height="80" rx="8" ry="8" class="k"/><text x="14.55" y="1619.8" class="l">Data Loss <tspan x="11.82" dy="1.2em" class="m">Prevention</tspan></text></g></a><a target="_blank" href="https://sds.microsoft.com/" rel="noopener"><g transform="translate(144,-768)"><rect x="0" y="1584" width="96" height="80" rx="8" ry="8" class="k"/><text x="7.55" y="1619.8" class="l">School Data <tspan x="31.27" dy="1.2em" class="m">Sync</tspan></text></g></a><a target="_blank" href="https://support.office.com/forms" rel="noopener"><g transform="translate(704,-1056)"><rect x="0" y="1584" width="96" height="80" rx="8" ry="8" class="k"/><text x="16.5" y="1619.8" class="l">Microsoft <tspan x="26.61" dy="1.2em" class="m">Forms</tspan></text></g></a><a target="_blank" href="https://www.onenote.com/classnotebook" rel="noopener"><g transform="translate(144,-864)"><rect x="0" y="1584" width="96" height="80" rx="8" ry="8" class="k"/><text x="18.83" y="1611.4" class="l">OneNote <tspan x="29.32" dy="1.2em" class="m">Class </tspan><tspan x="15.72" dy="1.2em" class="m">Notebook</tspan></text></g></a><a target="_blank" href="https://www.microsoft.com/en-us/microsoft-365/blog/2016/06/20/professional-learning-community-groups-in-office-365-education/" rel="noopener"><g transform="translate(368,-864)"><rect x="0" y="1584" width="96" height="80" rx="8" ry="8" class="k"/><text x="34" y="1619.8" class="l">PLC<tspan x="23.11" dy="1.2em" class="m">Groups</tspan></text></g></a><a target="_blank" href="https://powerautomate.microsoft.com/" rel="noopener"><g transform="translate(592,-864)"><rect x="0" y="1584" width="96" height="80" rx="8" ry="8" class="k"/><text x="26.99" y="1611.4" class="l">Power <tspan x="4.45" dy="1.2em" class="m">Automate for</tspan><tspan x="14.54" dy="1.2em" class="m">Office 365</tspan></text></g></a><a target="_blank" href="https://docs.microsoft.com/intune-education/what-is-intune-for-education" rel="noopener"><g transform="translate(144,-560)"><rect x="0" y="1584" width="96" height="80" rx="8" ry="8" class="n"/><text x="15.73" y="1619.8" class="l">Intune for <tspan x="14.17" dy="1.2em" class="m">Education</tspan></text></g></a><a target="_blank" href="https://support.microsoft.com/office/d236aef8-fcdf-4b5e-b5d7-7f157461e920" rel="noopener"><g transform="translate(480,-960)"><rect x="0" y="1584" width="96" height="80" rx="8" ry="8" class="k"/><text x="16.5" y="1619.8" class="l">Microsoft <tspan x="9.5" dy="1.2em" class="m">Whiteboard</tspan></text></g></a><a target="_blank" href="https://www.microsoft.com/microsoft-365/microsoft-to-do-list-app" rel="noopener"><g transform="translate(368,-960)"><rect x="0" y="1584" width="96" height="80" rx="8" ry="8" class="k"/><text x="16.5" y="1619.8" class="l">Microsoft <tspan x="27.79" dy="1.2em" class="m">To</tspan>-Do</text></g></a><a target="_blank" href="https://support.microsoft.com/help/17209/windows-10-use-touch-with-windows" rel="noopener"><g transform="translate(704,-256)"><rect x="0" y="1584" width="96" height="80" rx="8" ry="8" class="o"/><text x="10.65" y="1611.4" class="l">Voice, Pen, <tspan x="11.06" dy="1.2em" class="m">Touch, Ink, </tspan><tspan x="7.16" dy="1.2em" class="m">and Gesture</tspan></text></g></a><a target="_blank" href="https://docs.microsoft.com/microsoft-store/microsoft-store-for-business-overview" rel="noopener"><g transform="translate(368,-256)"><rect x="0" y="1584" width="96" height="80" rx="8" ry="8" class="o"/><text x="16.5" y="1611.4" class="l">Microsoft <tspan x="18.83" dy="1.2em" class="m">Store for </tspan><tspan x="16.88" dy="1.2em" class="m">Business</tspan></text></g></a><a target="_blank" href="https://docs.microsoft.com/windows-server/identity/ad-fs/operations/configure-device-based-conditional-access-on-premises" rel="noopener"><g transform="translate(256,-160)"><rect x="0" y="1584" width="96" height="80" rx="8" ry="8" class="o"/><text x="17.28" y="1611.4" class="l">Windows <tspan x="9.51" dy="1.2em" class="m">Conditional </tspan><tspan x="23.48" dy="1.2em" class="m">Access</tspan></text></g></a><a target="_blank" href="https://docs.microsoft.com/windows/security/information-protection/windows-information-protection/protect-enterprise-data-using-wip" rel="noopener"><g transform="translate(592,-160)"><rect x="0" y="1584" width="96" height="80" rx="8" ry="8" class="o"/><text x="17.28" y="1611.4" class="l">Windows <tspan x="9.5" dy="1.2em" class="m">Information </tspan><tspan x="13.39" dy="1.2em" class="m">Protection</tspan></text></g></a><a target="_blank" href="https://docs.microsoft.com/windows/deployment/update/waas-manage-updates-wufb" rel="noopener"><g transform="translate(704,-160)"><rect x="0" y="1584" width="96" height="80" rx="8" ry="8" class="o"/><text x="17.28" y="1611.4" class="l">Windows <tspan x="13" dy="1.2em" class="m">Update for </tspan><tspan x="16.88" dy="1.2em" class="m">Business</tspan></text></g></a><a target="_blank" href="https://docs.microsoft.com/windows/security/identity-protection/hello-for-business/hello-identity-verification" rel="noopener"><g transform="translate(480,-160)"><rect x="0" y="1584" width="96" height="80" rx="8" ry="8" class="o"/><text x="17.28" y="1611.4" class="l">Windows <tspan x="19.61" dy="1.2em" class="m">Hello for </tspan><tspan x="16.88" dy="1.2em" class="m">Business</tspan></text></g></a><a target="_blank" href="https://www.microsoft.com/edge/business" rel="noopener"><g transform="translate(704,-352)"><rect x="0" y="1584" width="96" height="80" rx="8" ry="8" class="o"/><text x="19.61" y="1619.8" class="l">Edge for <tspan x="16.88" dy="1.2em" class="m">Business</tspan></text></g></a><a target="_blank" href="https://support.microsoft.com/help/17214/windows-10-what-is" rel="noopener"><g transform="translate(592,-352)"><rect x="0" y="1584" width="96" height="80" rx="8" ry="8" class="o"/><text x="21.55" y="1628.2" class="l">Cortana</text></g></a><a target="_blank" href="https://docs.microsoft.com/windows/security/threat-protection/windows-defender-application-guard/wd-app-guard-overview" rel="noopener"><g transform="translate(256,-352)"><rect x="0" y="1584" width="96" height="80" rx="8" ry="8" class="o"/><text x="9.89" y="1619.8" class="l">Application <tspan x="27.39" dy="1.2em" class="m">Guard</tspan></text></g></a><a target="_blank" href="https://docs.microsoft.com/azure/active-directory/devices/concept-azure-ad-join" rel="noopener"><g transform="translate(368,-352)"><rect x="0" y="1584" width="96" height="80" rx="8" ry="8" class="o"/><text x="16.5" y="1611.4" class="l">Azure AD<tspan x="15.33" dy="1.2em" class="m">&amp; Domain </tspan><tspan x="33.61" dy="1.2em" class="m">Join</tspan></text></g></a><a target="_blank" href="https://www.microsoft.com/windows/comprehensive-security" rel="noopener"><g transform="translate(256,-256)"><rect x="0" y="1584" width="96" height="80" rx="8" ry="8" class="o"/><text x="16.5" y="1611.4" class="l">Microsoft <tspan x="17.66" dy="1.2em" class="m">Defender </tspan><tspan x="17.66" dy="1.2em" class="m">Antivirus</tspan></text></g></a><a target="_blank" href="https://docs.microsoft.com/windows/deployment/windows-autopilot/windows-autopilot" rel="noopener"><g transform="translate(144,-160)"><rect x="0" y="1584" width="96" height="80" rx="8" ry="8" class="o"/><text x="17.28" y="1619.8" class="l">Windows <tspan x="17.29" dy="1.2em" class="m">Autopilot</tspan></text></g></a><a target="_blank" href="https://docs.microsoft.com/windows/security/information-protection/bitlocker/bitlocker-overview" rel="noopener"><g transform="translate(480,-352)"><rect x="0" y="1584" width="96" height="80" rx="8" ry="8" class="o"/><text x="8.71" y="1611.4" class="l">BitLocker &amp; <tspan x="7.16" dy="1.2em" class="m">BitLocker to </tspan><tspan x="38.28" dy="1.2em" class="m">Go</tspan></text></g></a><a target="_blank" href="https://docs.microsoft.com/windows/security/threat-protection/windows-firewall/windows-firewall-with-advanced-security" rel="noopener"><g transform="translate(368,-160)"><rect x="0" y="1584" width="96" height="80" rx="8" ry="8" class="o"/><text x="17.28" y="1619.8" class="l">Windows <tspan x="21.93" dy="1.2em" class="m">Firewall</tspan></text></g></a><a target="_blank" href="https://docs.microsoft.com/windows/security/threat-protection/windows-defender-application-control/windows-defender-application-control" rel="noopener"><g transform="translate(144,-352)"><rect x="0" y="1584" width="96" height="80" rx="8" ry="8" class="o"/><text x="9.89" y="1619.8" class="l">Application <tspan x="23.12" dy="1.2em" class="m">Control</tspan></text></g></a><a target="_blank" href="https://docs.microsoft.com/microsoft-365/compliance/retention" rel="noopener"><g transform="translate(704,-864)"><rect x="0" y="1584" width="96" height="80" rx="8" ry="8" class="k"/><text x="15.72" y="1611.4" class="l">Retention <tspan x="18.82" dy="1.2em" class="m">Labels &amp; </tspan><tspan x="21.54" dy="1.2em" class="m">Policies</tspan></text></g></a><a target="_blank" href="https://docs.microsoft.com/office365/securitycompliance/ediscovery-cases" rel="noopener"><g transform="translate(704,-1152)"><rect x="0" y="1584" width="96" height="80" rx="8" ry="8" class="k"/><text x="10.64" y="1628.2" class="l">eDiscovery</text></g></a><a target="_blank" href="https://www.microsoft.com/microsoft-365/microsoft-lists" rel="noopener"><g transform="translate(144,-960)"><rect x="0" y="1584" width="96" height="80" rx="8" ry="8" class="k"/><text x="16.5" y="1619.8" class="l">Microsoft <tspan x="31.66" dy="1.2em" class="m">Lists</tspan></text></g></a><a target="_blank" href="https://products.office.com/en/business/microsoft-kaizala" rel="noopener"><g transform="translate(480,-1056)"><rect x="0" y="1584" width="96" height="80" rx="8" ry="8" class="k"/><text x="10.26" y="1619.8" class="l">Kaizala Pro<tspan x="21.28" dy="1.292em" class="p">(retiring)</tspan></text></g></a><a target="_blank" href="https://docs.microsoft.com/windows/client-management/mdm/" rel="noopener"><g transform="translate(144,-256)"><rect x="0" y="1584" width="96" height="80" rx="8" ry="8" class="o"/><text x="11.82" y="1619.8" class="l">Manage by <tspan x="31.28" dy="1.2em" class="m">MDM</tspan></text></g></a><a target="_blank" href="https://www.microsoft.com/cloud-platform/enterprise-mobility-security" rel="noopener"><g transform="translate(-736,1152) rotate(-90)"><rect x="0" y="1600" width="176" height="64" rx="8" ry="8" class="f"/><text x="66.33" y="1638" class="g">EMS</text></g></a><a target="_blank" href="https://www.microsoft.com/windowsforbusiness" rel="noopener"><g transform="translate(-736,1552) rotate(-90)"><rect x="0" y="1600" width="368" height="64" rx="8" ry="8" class="h"/><text x="77.33" y="1638" class="g">Windows Pro Upgrade</text></g></a><a target="_blank" href="https://docs.microsoft.com/office365/servicedescriptions/office-365-platform-service-description/office-365-education" rel="noopener"><g transform="translate(-736,944) rotate(-90)"><rect x="0" y="1600" width="560" height="64" rx="8" ry="8" class="i"/><text x="232.2" y="1638" class="g">Office 365</text></g></a><a target="_blank" href="https://docs.microsoft.com/office365/securitycompliance/search-the-audit-log-in-security-and-compliance" rel="noopener"><g transform="translate(144,-1152)"><rect x="0" y="1584" width="96" height="80" rx="8" ry="8" class="k"/><text x="30.12" y="1611.4" class="l">Audit <tspan x="13.4" dy="1.2em" class="m">Logging &amp; </tspan><tspan x="21.56" dy="1.2em" class="m">Alerting</tspan></text></g></a><a target="_blank" href="https://products.office.com/mobile/office" rel="noopener"><g transform="translate(592,-960)"><rect x="0" y="1584" width="96" height="80" rx="8" ry="8" class="k"/><text x="4.44" y="1619.8" class="l">Office Web &amp; <tspan x="6.39" dy="1.2em" class="m">Mobile Apps</tspan></text></g></a><a target="_blank" href="https://docs.microsoft.com/microsoft-365/admin/basic-mobility-security/capabilities" rel="noopener"><g transform="translate(368,-1152)"><rect x="0" y="1584" width="96" height="80" rx="8" ry="8" class="k"/><text x="29.32" y="1611.4" class="l">Basic <tspan x="14.56" dy="1.2em" class="m">Mobility &amp; </tspan><tspan x="20.38" dy="1.2em" class="m">Security</tspan></text></g></a><a target="_blank" href="https://azure.microsoft.com/pricing/details/active-directory/" rel="noopener"><g transform="translate(256,-1152)"><rect x="0" y="1584" width="96" height="80" rx="8" ry="8" class="k"/><text x="5.22" y="1619.8" class="l">Azure AD for <tspan x="14.54" dy="1.2em" class="m">Office 365</tspan></text></g></a><a target="_blank" href="https://docs.microsoft.com/universal-print/" rel="noopener"><g transform="translate(592,-256)"><rect x="0" y="1584" width="96" height="80" rx="8" ry="8" class="o"/><text x="16.48" y="1619.8" class="l">Universal <tspan x="32.06" dy="1.2em" class="m">Print</tspan></text></g></a><a target="_blank" href="https://docs.microsoft.com/microsoft-365/compliance/sensitivity-labels" rel="noopener"><g transform="translate(368,-1056)"><rect x="0" y="1584" width="96" height="80" rx="8" ry="8" class="k"/><text x="9.5" y="1611.4" class="l">Information <tspan x="13.39" dy="1.2em" class="m">Protection</tspan><tspan x="19.21" dy="1.2em" class="m">for M365</tspan></text></g></a><a target="_blank" href="https://go.microsoft.com/fwlink/?linkid=2085130" rel="noopener"><g transform="translate(480,-256)"><rect x="0" y="1584" width="96" height="80" rx="8" ry="8" class="o"/><text x="29.99" y="1606" class="q">Power <tspan x="20.33" dy="1.2em" class="m">Automate </tspan><tspan x="22" dy="1.2em" class="m">Attended </tspan><tspan x="5.66" dy="1.2em" class="m">Desktop Flows</tspan></text></g></a><a target="_blank" href="https://m365maps.com/" rel="noopener"><g transform="translate(16,-1584)"><rect x="0" y="1600" width="912" height="64" class="r"/><text x="127.87" y="1646.4" class="s">Microsoft 365 A1 for Devices</text></g></a><g transform="translate(16,-1552)"><rect x="0" y="1632" width="912" height="32" rx="8" ry="8" class="t"/><text x="360.95" y="1657" class="u">October 2021</text></g><a target="_blank" href="https://m365maps.com/" rel="noopener"><g transform="translate(16,-1520)"><rect x="0" y="1632" width="912" height="32" class="r"/><text x="388.47" y="1653.4" class="v">m365maps.com</text></g></a><a target="_blank" href="https://education.minecraft.net/homepage" rel="noopener"><g transform="translate(256,-1312)"><g><rect x="0" y="1584" width="96" height="80" rx="8" ry="8" class="w"/></g><g transform="translate(22,-14)"><rect x="0" y="1660" width="4" height="4" class="x"/></g><g transform="translate(26,-14)"><rect x="0" y="1660" width="4" height="4" class="y"/></g><g transform="translate(22,-18)"><rect x="0" y="1660" width="4" height="4" class="z"/></g><g transform="translate(26,-18)"><rect x="0" y="1660" width="4" height="4" class="ba"/></g><g transform="translate(30,-18)"><rect x="0" y="1660" width="4" height="4" class="y"/></g><g transform="translate(26,-22)"><rect x="0" y="1660" width="4" height="4" class="z"/></g><g transform="translate(30,-22)"><rect x="0" y="1660" width="4" height="4" class="x"/></g><g transform="translate(34,-22)"><rect x="0" y="1660" width="4" height="4" class="y"/></g><g transform="translate(30,-26)"><rect x="0" y="1660" width="4" height="4" class="z"/></g><g transform="translate(34,-26)"><rect x="0" y="1660" width="4" height="4" class="ba"/></g><g transform="translate(38,-26)"><rect x="0" y="1660" width="4" height="4" class="y"/></g><g transform="translate(34,-30)"><rect x="0" y="1660" width="4" height="4" class="z"/></g><g transform="translate(38,-30)"><rect x="0" y="1660" width="4" height="4" class="x"/></g><g transform="translate(42,-30)"><rect x="0" y="1660" width="4" height="4" class="y"/></g><g transform="translate(38,-34)"><rect x="0" y="1660" width="4" height="4" class="z"/></g><g transform="translate(42,-34)"><rect x="0" y="1660" width="4" height="4" class="ba"/></g><g transform="translate(46,-34)"><rect x="0" y="1660" width="4" height="4" class="y"/></g><g transform="translate(42,-38)"><rect x="0" y="1660" width="4" height="4" class="z"/></g><g transform="translate(46,-38)"><rect x="0" y="1660" width="4" height="4" class="x"/></g><g transform="translate(50,-38)"><rect x="0" y="1660" width="4" height="4" class="y"/></g><g transform="translate(46,-42)"><rect x="0" y="1660" width="4" height="4" class="z"/></g><g transform="translate(50,-42)"><rect x="0" y="1660" width="4" height="4" class="ba"/></g><g transform="translate(54,-42)"><rect x="0" y="1660" width="4" height="4" class="y"/></g><g transform="translate(50,-46)"><rect x="0" y="1660" width="4" height="4" class="z"/></g><g transform="translate(54,-46)"><rect x="0" y="1660" width="4" height="4" class="x"/></g><g transform="translate(58,-46)"><rect x="0" y="1660" width="4" height="4" class="y"/></g><g transform="translate(54,-50)"><rect x="0" y="1660" width="4" height="4" class="z"/></g><g transform="translate(58,-50)"><rect x="0" y="1660" width="4" height="4" class="bb"/></g><g transform="translate(62.0001,-50)"><rect x="0" y="1660" width="4" height="4" class="bc"/></g><g transform="translate(62,-46)"><rect x="0" y="1660" width="4" height="4" class="bc"/></g><g transform="translate(66,-46)"><rect x="0" y="1660" width="4" height="4" class="bb"/></g><g transform="translate(70,-46)"><rect x="0" y="1660" width="4" height="4" class="bd"/></g><g transform="translate(66.0001,-50)"><rect x="0" y="1660" width="4" height="4" class="bd"/></g><g transform="translate(62,-42)"><rect x="0" y="1660" width="4" height="4" class="bd"/></g><g transform="translate(66,-42)"><rect x="0" y="1660" width="4" height="4" class="bc"/></g><g transform="translate(70,-42)"><rect x="0" y="1660" width="4" height="4" class="bd"/></g><g transform="translate(62,-38)"><rect x="0" y="1660" width="4" height="4" class="bd"/></g><g transform="translate(66,-38)"><rect x="0" y="1660" width="4" height="4" class="bc"/></g><g transform="translate(70,-38)"><rect x="0" y="1660" width="4" height="4" class="bd"/></g><g transform="translate(62,-34)"><rect x="0" y="1660" width="4" height="4" class="bd"/></g><g transform="translate(66,-34)"><rect x="0" y="1660" width="4" height="4" class="bb"/></g><g transform="translate(70,-34)"><rect x="0" y="1660" width="4" height="4" class="bd"/></g><g transform="translate(62,-30)"><rect x="0" y="1660" width="4" height="4" class="bd"/></g><g transform="translate(66,-30)"><rect x="0" y="1660" width="4" height="4" class="be"/></g><g transform="translate(70,-30)"><rect x="0" y="1660" width="4" height="4" class="bd"/></g><g transform="translate(66,-26)"><rect x="0" y="1660" width="4" height="4" class="bd"/></g><g transform="translate(54,-54)"><rect x="0" y="1660" width="4" height="4" class="bc"/></g><g transform="translate(58,-54)"><rect x="0" y="1660" width="4" height="4" class="bc"/></g><g transform="translate(62,-54)"><rect x="0" y="1660" width="4" height="4" class="ba"/></g><g transform="translate(66,-54)"><rect x="0" y="1660" width="4" height="4" class="y"/></g><g transform="translate(38,-54)"><rect x="0" y="1660" width="4" height="4" class="bd"/></g><g transform="translate(42,-54)"><rect x="0" y="1660" width="4" height="4" class="bd"/></g><g transform="translate(46,-54)"><rect x="0" y="1660" width="4" height="4" class="bd"/></g><g transform="translate(50,-54)"><rect x="0" y="1660" width="4" height="4" class="bd"/></g><g transform="translate(34,-58)"><rect x="0" y="1660" width="4" height="4" class="bd"/></g><g transform="translate(38,-58)"><rect x="0" y="1660" width="4" height="4" class="be"/></g><g transform="translate(42,-58)"><rect x="0" y="1660" width="4" height="4" class="bb"/></g><g transform="translate(46,-58)"><rect x="0" y="1660" width="4" height="4" class="bc"/></g><g transform="translate(38,-62)"><rect x="0" y="1660" width="4" height="4" class="bd"/></g><g transform="translate(42,-62)"><rect x="0" y="1660" width="4" height="4" class="bd"/></g><g transform="translate(46,-62)"><rect x="0" y="1660" width="4" height="4" class="bd"/></g><g transform="translate(50,-62)"><rect x="0" y="1660" width="4" height="4" class="bd"/></g><g transform="translate(54,-62)"><rect x="0" y="1660" width="4" height="4" class="bd"/></g><g transform="translate(50,-58)"><rect x="0" y="1660" width="4" height="4" class="bc"/></g><g transform="translate(54,-58)"><rect x="0" y="1660" width="4" height="4" class="bb"/></g><g transform="translate(58,-58)"><rect x="0" y="1660" width="4" height="4" class="bd"/></g><g transform="translate(62,-58)"><rect x="0" y="1660" width="4" height="4" class="z"/></g><g transform="translate(66,-58)"><rect x="0" y="1660" width="4" height="4" class="x"/></g></g></a><a target="_blank" href="https://www.microsoft.com/microsoft-365/business/microsoft-365-apps-for-enterprise-product" rel="noopener"><g transform="translate(592,-1056)"><rect x="0" y="1584" width="96" height="80" rx="8" ry="8" class="k"/><text x="16.5" y="1611.4" class="l">Microsoft <tspan x="5.6" dy="1.2em" class="m">365 Apps for </tspan><tspan x="14.17" dy="1.2em" class="m">Education</tspan></text></g></a><a target="_blank" href="https://www.microsoft.com/fasttrack" rel="noopener"><g transform="translate(144,-1312)"><rect x="0" y="1584" width="96" height="80" rx="8" ry="8" class="bf"/><text x="14.93" y="1628.2" class="l">FastTrack</text></g></a></g></svg>