<svg xmlns="http://www.w3.org/2000/svg" width="416px" height="928px" viewBox="0 0 416 928" class="a"><style>
.b {fill:#a5a5a5;fill-opacity:0.2;stroke:#d04a00;stroke-linecap:round;stroke-linejoin:round;stroke-width:2.25}
.c {fill:#a5a5a5;fill-opacity:0.2;stroke:#e82200;stroke-dasharray:15.75,11.25;stroke-linecap:round;stroke-linejoin:round;stroke-width:2.25}
.d {fill:#d04a00;stroke:#d04a00;stroke-linecap:round;stroke-linejoin:round;stroke-width:2.25}
.e {fill:#ffffff;font-family:Arial;font-size:1.00001em;font-weight:bold}
.f {fill:#21a366;stroke:none;stroke-linecap:butt;stroke-width:9.5625}
.g {fill:#33c481;stroke:none;stroke-linecap:butt;stroke-width:9.5625}
.h {fill:#185c37;stroke:none;stroke-linecap:butt;stroke-width:9.5625}
.i {fill:#107c41;stroke:none;stroke-linecap:butt;stroke-width:9.5625}
.j {fill:#000000;fill-opacity:0.2;stroke:none;stroke-linecap:butt;stroke-width:9.5625}
.k {fill:#000000;fill-opacity:0.098;stroke:none;stroke-linecap:butt;stroke-width:9.5625}
.l {fill:#ffffff;stroke:none;stroke-linecap:butt;stroke-width:9.5625}
.m {fill:#000000;font-family:Arial;font-size:0.916672em;font-weight:bold}
.n {fill:#41a5ee;stroke:none;stroke-linecap:butt;stroke-width:9.5625}
.o {fill:#2b7cd3;stroke:none;stroke-linecap:butt;stroke-width:9.5625}
.p {fill:#185abd;stroke:none;stroke-linecap:butt;stroke-width:9.5625}
.q {fill:#103f91;stroke:none;stroke-linecap:butt;stroke-width:9.5625}
.r {fill:#d35230;stroke:none;stroke-linecap:butt;stroke-width:9.5625}
.s {fill:#ff8f6b;stroke:none;stroke-linecap:butt;stroke-width:9.5625}
.t {fill:#ed6c47;stroke:none;stroke-linecap:butt;stroke-width:9.5625}
.u {fill:#c43e1c;stroke:none;stroke-linecap:butt;stroke-width:9.5625}
.v {fill:#123b6d;stroke:none;stroke-linecap:butt;stroke-width:9.5625}
.w {fill:#0364b8;stroke:none;stroke-linecap:butt;stroke-width:9.5625}
.x {fill:#0358a7;stroke:none;stroke-linecap:butt;stroke-width:9.5625}
.y {fill:#0078d4;stroke:none;stroke-linecap:butt;stroke-width:9.5625}
.z {fill:#28a8ea;stroke:none;stroke-linecap:butt;stroke-width:9.5625}
.ba {fill:#50d9ff;stroke:none;stroke-linecap:butt;stroke-width:9.5625}
.bb {fill:#14447d;stroke:none;stroke-linecap:butt;stroke-width:9.5625}
.bc {fill:url(#grad0-101);stroke:none;stroke-linecap:butt;stroke-width:9.5625}
.bd {fill:#1490df;stroke:none;stroke-linecap:butt;stroke-width:9.5625}
.be {fill:#0a2767;fill-opacity:0.5;stroke:none;stroke-linecap:butt;stroke-width:9.5625}
.bf {fill:#0f78d4;stroke:none;stroke-linecap:butt;stroke-width:9.5625}
.bg {fill:#000000;fill-opacity:0.047;stroke:none;stroke-linecap:butt;stroke-width:9.5625}
.bh {fill:#ca64ea;stroke:none;stroke-linecap:butt;stroke-width:9.5625}
.bi {fill:#ae4bd5;stroke:none;stroke-linecap:butt;stroke-width:9.5625}
.bj {fill:#9332bf;stroke:none;stroke-linecap:butt;stroke-width:9.5625}
.bk {fill:#7719aa;stroke:none;stroke-linecap:butt;stroke-width:9.5625}
.bl {fill:#881421;stroke:none;stroke-linecap:butt;stroke-width:9.5625}
.bm {fill:#af2031;stroke:none;stroke-linecap:butt;stroke-width:9.5625}
.bn {fill:#c94f60;stroke:none;stroke-linecap:butt;stroke-width:9.5625}
.bo {fill:#e08095;stroke:none;stroke-linecap:butt;stroke-width:9.5625}
.bp {fill:#038387;stroke:none;stroke-linecap:butt;stroke-width:9.5625}
.bq {fill:#37c6d0;stroke:none;stroke-linecap:butt;stroke-width:9.5625}
.br {fill:#1a9ba1;stroke:none;stroke-linecap:butt;stroke-width:9.5625}
.bs {font-size:1em}
.bt {fill:#ffffff}
.bu {stroke:none;stroke-linecap:butt;stroke-width:9.5625}
.bv {fill:none;stroke:none;stroke-linecap:butt;stroke-width:9.5625}
.bw {fill:#e82200;stroke:none;stroke-linecap:round;stroke-linejoin:round;stroke-width:2.25}
.bx {fill:#e82200;stroke:#e82200;stroke-linecap:round;stroke-linejoin:round;stroke-width:2.25}
.by {fill:#d04a00;stroke:none;stroke-linecap:round;stroke-linejoin:round;stroke-width:2.25}
.bz {fill:url(#grad0-301);stroke:none;stroke-linecap:butt;stroke-width:9.5625}
.ca {fill:#000000;fill-opacity:0.4;stroke:none;stroke-linecap:butt;stroke-width:9.5625}
.cb {fill:#000000;fill-opacity:0.3;stroke:none;stroke-linecap:butt;stroke-width:9.5625}
.cc {fill:#000000;fill-opacity:0.24;stroke:none;stroke-linecap:butt;stroke-width:9.5625}
.cd {fill:url(#grad0-315);stroke:none;stroke-linecap:butt;stroke-width:9.5625}
.ce {fill:url(#grad0-325);stroke:none;stroke-linecap:butt;stroke-width:9.5625}
.cf {fill:url(#grad0-329);stroke:none;stroke-linecap:butt;stroke-width:9.5625}
.cg {fill:url(#grad0-333);stroke:none;stroke-linecap:butt;stroke-width:9.5625}
.a {fill:none;fill-rule:evenodd;font-size:12px;overflow:visible;stroke-linecap:square;stroke-miterlimit:3}
</style><defs><linearGradient id="grad0-101" x1="0" y1="0" x2="1" y2="0" gradientTransform="rotate(90 0.5 0.5)"><stop offset="0" stop-color="#35b8f1" stop-opacity="1"/><stop offset="1" stop-color="#28a8ea" stop-opacity="1"/></linearGradient><linearGradient id="grad0-301" x1="0" y1="0" x2="1" y2="0" gradientTransform="rotate(-117.5845109816 0.5 0.5)"><stop offset="0" stop-color="#0c9d8c" stop-opacity="1"/><stop offset="1" stop-color="#047769" stop-opacity="1"/></linearGradient><linearGradient id="grad0-315" x1="0" y1="0" x2="1" y2="0" gradientTransform="rotate(-64.522693169602 0.5 0.5)"><stop offset="0" stop-color="#0e4d44" stop-opacity="1"/><stop offset="1" stop-color="#0b5b50" stop-opacity="1"/></linearGradient><linearGradient id="grad0-325" x1="0" y1="0" x2="1" y2="0" gradientTransform="rotate(-126.44690167942 0.5 0.5)"><stop offset="0" stop-color="#24cdb9" stop-opacity="1"/><stop offset="1" stop-color="#30e5d0" stop-opacity="1"/></linearGradient><linearGradient id="grad0-329" x1="0" y1="0" x2="1" y2="0" gradientTransform="rotate(-122.63935206211 0.5 0.5)"><stop offset="0" stop-color="#0c9d8c" stop-opacity="1"/><stop offset="1" stop-color="#24cdb9" stop-opacity="1"/></linearGradient><linearGradient id="grad0-333" x1="0" y1="0" x2="1" y2="0" gradientTransform="rotate(-122.63962005998 0.5 0.5)"><stop offset="0" stop-color="#047769" stop-opacity="1"/><stop offset="1" stop-color="#0c9d8c" stop-opacity="1"/></linearGradient></defs><g><g transform="translate(16,-16)"><rect x="0" y="32" width="384" height="896" rx="8" ry="8" class="b"/></g><g transform="translate(32,-32)"><rect x="0" y="208" width="352" height="720" rx="8" ry="8" class="c"/></g><a target="_blank" href="https://go.microsoft.com/fwlink/p/?linkid=2013703" rel="noopener"><g transform="translate(16,-880)"><rect x="0" y="896" width="384" height="32" rx="8" ry="8" class="d"/><text x="132.65" y="915.6" class="e">Microsoft 365 Family</text></g></a><a target="_blank" href="https://www.microsoft.com/microsoft-365/excel" rel="noopener"><g transform="translate(288,-632)"><g transform="translate(15.1273,-22.8667)"><path d="M24.44 894.87 L2.68 894.87 C1.28 894.87 0 896.03 0 897.43 L0 908.87 L24.44 928 L48.87 922.87 L48.87  908.87 L24.44 894.87 Z" class="f"/></g><g transform="translate(39.5636,-42)"><path d="M21.76 914 L0 914 L0 928 L24.44 928 L24.44 916.68 C24.44 915.28 23.27 914 21.76 914 Z" class="g"/></g><g transform="translate(15.1273,1.13687E-13)"><path d="M0 886 L0 925.32 C0 926.72 1.16 928 2.56 928 L46.2 928 C47.59 928 48.87 926.83 48.87 925.43 L48.87 914  L0 886 Z" class="h"/></g><g transform="translate(15.1273,-28)"><rect x="0" y="914" width="24.4364" height="14" class="i"/></g><g transform="translate(15.1273,-8.28333)"><path d="M18.62 894.63 L18.62 925.78 C18.39 927.07 17.22 928 15.94 928 L0 928 L0 891.95 L15.94 891.95 C17.34  891.95 18.62 893.12 18.62 894.63 Z" class="j"/></g><g transform="translate(15.1273,-9.45)"><path d="M19.78 895.8 L19.78 924.15 C19.78 926.25 18.04 928 15.94 928 L0 928 L0 891.95 L15.94 891.95 C18.04 891.95  19.78 893.7 19.78 895.8 Z" class="k"/></g><g transform="translate(15.1273,-10.6167)"><path d="M18.62 896.97 L18.62 925.32 C18.62 926.72 17.45 928 16.06 928 L0 928 L0 894.28 L15.94 894.28 C17.34  894.28 18.62 895.45 18.62 896.97 Z" class="j"/></g><g transform="translate(15.1273,-10.6167)"><path d="M17.45 896.97 L17.45 925.32 C17.45 926.72 16.29 928 14.89 928 L0 928 L0 894.28 L14.78 894.28 C16.17  894.28 17.45 895.45 17.45 896.97 Z" class="k"/></g><g transform="translate(-3.15747E-13,-11.6667)"><path d="M2.68 895.33 L29.79 895.33 C31.19 895.33 32.47 896.5 32.47 897.9 L32.47 925.2 C32.47 926.6 31.3 927.88  29.91 927.88 L2.68 927.88 C1.28 928 0.12 926.95 0 925.67 L0 898.02 C0 896.62 1.16 895.33 2.68 895.33  Z" class="i"/></g><g transform="translate(8.37818,-19.1333)"><path d="M0 928 L5.7 919.13 L0.47 910.27 L4.65 910.27 L7.56 915.87 C7.68 916.22 7.91 916.68 8.15 917.03 C8.38  916.57 8.49 916.22 8.73 915.75 L11.75 910.15 L15.59 910.15 L10.24 919.02 L15.71 927.88 L11.64 927.88  L8.38 921.7 C8.26 921.47 8.15 921.12 8.03 920.88 C7.91 921.12 7.8 921.47 7.68 921.7 L4.31 927.88  L0 928 Z" class="l"/></g><g transform="translate(39.5636,-14)"><rect x="0" y="914" width="24.4364" height="14" class="i"/></g><g><text x="17.63" y="947.9" class="m">Excel</text></g></g></a><a target="_blank" href="https://www.microsoft.com/microsoft-365/word" rel="noopener"><g transform="translate(64,-296)"><g transform="translate(15.1273,-36.1667)"><path d="M46.16 908.17 L2.72 908.17 A2.71515 2.72222 -180 0 0 0 910.89 L0 922.17 L25.6 928 L48.87 922.17 L48.87  910.89 A2.71515 2.72222 -180 0 0 46.16 908.17 Z" class="n"/></g><g transform="translate(15.1273,-21)"><path d="M48.87 907 L0 907 L0 921 L25.6 928 L48.87 921 L48.87 907 Z" class="o"/></g><g transform="translate(15.1273,-5.83333)"><path d="M0 905.83 L0 919.83 L25.6 928 L48.87 919.83 L48.87 905.83 L0 905.83 Z" class="p"/></g><g transform="translate(15.1273,1.13687E-13)"><path d="M2.72 928 L46.16 928 A2.71515 2.72222 -180 0 0 48.87 925.28 L48.87 914 L0 914 L0 925.28 A2.71515 2.72222  -180 0 0 2.72 928 Z" class="q"/></g><g transform="translate(15.1273,-8.16667)"><path d="M18.62 894.55 L18.62 925.28 A2.01826 2.02351 0 0 1 18.57 925.75 A2.6924 2.69941 0 0 1 15.91 928 L0 928  L0 891.83 L15.91 891.83 A2.70662 2.71367 0 0 1 18.62 894.55 Z" class="j"/></g><g transform="translate(15.1273,-9.33333)"><path d="M19.78 895.72 L19.78 924.11 A3.91181 3.92199 0 0 1 15.91 928 L0 928 L0 891.83 L15.91 891.83 A3.88861  3.89873 0 0 1 19.78 895.72 Z" class="k"/></g><g transform="translate(15.1273,-10.5)"><path d="M18.62 896.89 L18.62 925.28 A2.70662 2.71367 0 0 1 15.91 928 L0 928 L0 894.17 L15.91 894.17 A2.70662  2.71367 0 0 1 18.62 896.89 Z" class="j"/></g><g transform="translate(15.1273,-10.5)"><path d="M17.45 896.89 L17.45 925.28 A2.70662 2.71367 0 0 1 14.74 928 L0 928 L0 894.17 L14.74 894.17 A2.70662  2.71367 0 0 1 17.45 896.89 Z" class="k"/></g><g transform="translate(-3.25739E-13,-11.6667)"><path d="M0 925.28 A2.71521 2.72228 -180 0 0 2.72 928 L29.87 928 A2.71521 2.72228 -180 0 0 32.58 925.28 L32.58  898.06 A2.71521 2.72228 -180 0 0 29.87 895.33 L2.72 895.33 A2.71521 2.72228 -180 0 0 0 898.06 L0  925.28 Z" class="p"/></g><g transform="translate(4.98088,-19.1528)"><path d="M6.16 923.69 C6.21 924.11 6.25 924.48 6.26 924.79 L6.33 924.79 C6.35 924.5 6.4 924.14 6.47 923.72 C6.54  923.3 6.6 922.95 6.67 922.66 L9.53 910.31 L13.22 910.31 L16.17 922.47 A17.6068 17.6527 0 0 1 16.54  924.77 L16.59 924.77 A17.476 17.5215 0 0 1 16.9 922.55 L19.26 910.31 L22.62 910.31 L18.49 928 L14.56  928 L11.74 916.28 C11.66 915.94 11.57 915.5 11.46 914.96 C11.36 914.41 11.3 914.02 11.27 913.77  L11.22 913.77 C11.19 914.06 11.13 914.49 11.03 915.06 C10.94 915.62 10.86 916.04 10.81 916.31 L8.16  928 L4.17 928 L0 910.31 L3.42 910.31 L5.99 922.68 C6.05 922.94 6.11 923.27 6.16 923.69 Z" class="l"/></g><g><text x="17.95" y="947.9" class="m">Word</text></g></g></a><a target="_blank" href="https://www.microsoft.com/microsoft-365/powerpoint" rel="noopener"><g transform="translate(64,-408)"><g transform="translate(8.14545,1.13687E-13)"><path d="M55.85 899.71 L55.85 900.29 A27.7213 27.7935 0 0 1 28.22 928 L27.64 928 A27.52 27.5917 0 0 1 8.1 919.83  C7.73 919.46 7.35 919.06 7.01 918.67 C6.67 918.29 6.34 917.9 6.03 917.5 A27.4153 27.4867 0 0 1 0  900.29 L0 899.71 A27.3455 27.4167 0 0 1 5.15 883.67 A13.7693 13.8052 0 0 1 6.03 882.5 A27.5828 27.6547  0 0 1 27.64 872 L28.22 872 A27.7213 27.7935 0 0 1 55.85 899.71 Z" class="r"/></g><g transform="translate(36.0727,-28)"><path d="M27.93 928 L27.93 927.73 A27.7434 27.8157 -180 0 0 0.27 900 L0 900 L0 928 L27.93 928 Z" class="s"/></g><g transform="translate(8.14545,-28)"><path d="M0 927.73 L0 928 L27.93 928 L27.93 900 L27.66 900 A27.7434 27.8157 -180 0 0 0 927.73 Z" class="t"/></g><g transform="translate(8.14545,-8.16667)"><path d="M25.6 894.55 L25.6 925.28 A2.01775 2.023 0 0 1 25.55 925.75 A2.69265 2.69967 0 0 1 22.89 928 L8.1 928  C7.73 927.63 7.35 927.23 7.01 926.83 C6.67 926.46 6.34 926.06 6.03 925.67 A27.4153 27.4867 0 0 1  0 908.46 L0 907.88 A27.3455 27.4167 0 0 1 5.15 891.83 L22.89 891.83 A2.70662 2.71367 0 0 1 25.6  894.55 Z" class="j"/></g><g transform="translate(8.14545,-9.33333)"><path d="M26.76 895.72 L26.76 924.12 A3.91215 3.92233 0 0 1 22.89 928 L7.01 928 C6.67 927.63 6.34 927.23 6.03  926.83 A27.4153 27.4867 0 0 1 0 909.63 L0 909.04 A27.3455 27.4167 0 0 1 5.15 893 A13.7693 13.8052  0 0 1 6.03 891.83 L22.89 891.83 A3.88887 3.899 0 0 1 26.76 895.72 Z" class="k"/></g><g transform="translate(8.14545,-10.5)"><path d="M25.6 896.89 L25.6 925.28 A2.70662 2.71367 0 0 1 22.89 928 L6.03 928 A27.4153 27.4867 0 0 1 0 910.79  L0 910.21 A27.3455 27.4167 0 0 1 5.15 894.17 L22.89 894.17 A2.70662 2.71367 0 0 1 25.6 896.89 Z" class="j"/></g><g transform="translate(8.14545,-10.5)"><path d="M24.44 896.89 L24.44 925.28 A2.70662 2.71367 0 0 1 21.73 928 L6.03 928 A27.4153 27.4867 0 0 1 0 910.79  L0 910.21 A27.3455 27.4167 0 0 1 5.15 894.17 L21.73 894.17 A2.70662 2.71367 0 0 1 24.44 896.89 Z" class="k"/></g><g transform="translate(-3.17746E-13,-11.6667)"><path d="M-0 925.28 A2.71599 2.72306 -180 0 0 2.72 928 L29.87 928 A2.71599 2.72306 -180 0 0 32.58 925.28 L32.58  898.06 A2.71599 2.72306 -180 0 0 29.87 895.33 L2.72 895.33 A2.71599 2.72306 -180 0 0 0 898.06 L0  925.28 Z" class="u"/></g><g transform="translate(9.8176,-19.0015)"><path d="M7.01 909.85 A7.17265 7.19133 0 0 1 11.84 911.31 A5.25847 5.27217 0 0 1 13.52 915.52 A5.96945 5.985  0 0 1 12.69 918.67 A5.60058 5.61517 0 0 1 10.33 920.82 A7.82895 7.84933 0 0 1 6.79 921.58 L3.44  921.58 L3.44 928 L0 928 L0 909.85 L7.01 909.85 ZM3.44 918.81 L6.4 918.81 A3.776 3.78583 -180 0 0  9.01 918.01 A2.99985 3.00767 -180 0 0 9.9 915.66 C9.9 913.66 8.77 912.66 6.51 912.66 L3.44 912.66  L3.44 918.81 Z" class="l"/></g><g><text x="1.75" y="947.9" class="m">PowerPoint</text></g></g></a><a target="_blank" href="https://www.microsoft.com/microsoft-365/outlook/email-and-calendar-software-microsoft-outlook" rel="noopener"><g transform="translate(288,-520.4)"><g transform="translate(15.6877,-12.2714)"><path d="M48.27 913.48 A1.38473 1.38833 -180 0 0 47.6 912.28 L47.59 912.28 L47.57 912.26 L25.77 899.46 A2.97891  2.98667 -180 0 0 25.48 899.29 A2.94284 2.9505 -180 0 0 22.79 899.29 A2.97309 2.98083 -180 0 0 22.5  899.46 L0.7 912.26 L0.68 912.28 L0.67 912.28 A1.39869 1.40233 -180 0 0 0.7 914.7 L22.5 927.5 A3.00451  3.01233 -180 0 0 22.79 927.68 L22.79 927.68 A2.94284 2.9505 -180 0 0 25.47 927.68 A3.00567 3.0135  -180 0 0 25.77 927.5 L47.57 914.7 A1.38473 1.38833 -180 0 0 48.27 913.48 Z" class="v"/></g><g transform="translate(18.1015,-21.9508)"><rect x="0" y="914.692" width="14.4803" height="13.3082" class="w"/></g><g transform="translate(17.4545,-47.8333)"><path d="M44.22 928 L44.22 922.56 A2.7392 2.74633 -180 0 0 41.45 919.83 L2.76 919.83 A2.7392 2.74633 -180 0 0  0 922.56 L0 928 L44.22 928 Z" class="x"/></g><g transform="translate(17.4545,-35)"><rect x="0" y="914" width="15.1273" height="14" class="y"/></g><g transform="translate(32.5818,-21)"><path d="M0 900 L15.13 900 L29.09 914 L29.09 928 L15.13 928 L0 914 L0 900 Z" class="z"/></g><g transform="translate(47.7091,-35)"><rect x="0" y="914" width="13.9636" height="14" class="ba"/></g><g transform="translate(32.5818,-21)"><rect x="0" y="914" width="15.1273" height="14" class="y"/></g><g transform="translate(32.5818,-7)"><rect x="0" y="914" width="15.1273" height="14" class="w"/></g><g transform="translate(18.1015,-9.8525)"><rect x="0" y="915.902" width="14.4803" height="12.0983" class="bb"/></g><g transform="translate(47.7091,-8.16667)"><rect x="0" y="915.167" width="13.9636" height="12.8333" class="y"/></g><g transform="translate(15.1273,3.41061E-13)"><path d="M48.19 902.27 L48.19 902.27 L48.17 902.29 L48.16 902.29 L26.09 914.12 A3.1872 3.1955 0 0 1 25.79 914.28  A3.20465 3.213 0 0 1 24.44 914.58 C24.41 914.58 24.39 914.58 24.36 914.58 L23.12 913.89 A3.03825  3.04617 0 0 1 22.82 913.73 L0.71 901.56 L0.71 901.56 L0.7 901.55 L0 901.17 L0 925.13 A2.96611 2.97383  -180 0 0 3.05 928 L45.9 928 A3.12087 3.129 -180 0 0 47.71 927.43 L47.66 927.4 A2.79855 2.80583 -180  0 0 48.87 925.13 L48.87 901.17 A1.26022 1.2635 0 0 1 48.19 902.27 Z" class="bc"/></g><g transform="translate(15.1273,3.41061E-13)"><path d="M48.19 902.27 L48.17 902.29 L48.16 902.29 L26.09 914.12 A3.10691 3.115 0 0 1 25.79 914.28 A3.23375 3.24217  0 0 1 23.08 914.28 A3.10458 3.11267 0 0 1 22.78 914.12 L0.71 902.29 L0.71 902.29 L0.68 902.27 A1.26138  1.26467 0 0 1 0 901.17 L0 925.13 A2.96495 2.97267 -180 0 0 3.05 928 L45.82 928 A2.96495 2.97267  -180 0 0 48.87 925.13 L48.87 901.17 A1.26138 1.26467 0 0 1 48.19 902.27 Z" class="bd"/></g><g transform="translate(15.1273,3.41061E-13)"><path d="M3.06 928 L45.9 928 A3.1232 3.13133 -180 0 0 47.71 927.43 L23.12 913.89 A3.08713 3.09517 0 0 1 22.82  913.73 L0.71 901.56 L0.71 901.56 L0.7 901.55 L0 901.17 L0 925.04 A3.00567 3.0135 -180 0 0 3.06 928  Z" class="z"/></g><g transform="translate(17.4545,-13.4167)"><path d="M44.22 915.25 L44.22 916.57 L23.76 927.54 C23.67 927.6 23.56 927.65 23.47 927.7 A3.11622 3.12433 0 0  1 22.11 928 L22.04 928 L20.79 927.31 C20.69 927.26 20.6 927.21 20.49 927.15 L0 915.87 L0 914.54  L21.06 926.12 C21.17 926.19 21.24 926.23 21.29 926.26 L22.32 926.82 A1.93629 1.94133 -180 0 0 22.97  926.65 C23.03 926.61 39.78 917.63 44.22 915.25 Z" class="be"/></g><g transform="translate(15.1273,-8.16667)"><path d="M18.62 894.55 L18.62 925.28 A2.01891 2.02417 0 0 1 18.57 925.75 A2.69265 2.69967 0 0 1 15.91 928 L0  928 L0 909.33 L0.59 909.66 A1.17644 1.1795 0 0 1 0.56 909.38 A1.38822 1.39183 0 0 1 1.23 908.18  C1.25 908.17 1.26 908.17 1.27 908.16 L2.98 907.15 L2.98 901.17 L2.33 901.17 L2.33 891.83 L15.91  891.83 A2.70662 2.71367 0 0 1 18.62 894.54 L18.62 894.55 Z" class="j"/></g><g transform="translate(15.1273,-9.33333)"><path d="M19.78 895.72 L19.78 924.12 A3.91215 3.92233 0 0 1 15.91 928 L0 928 L0 910.5 L0.59 910.83 A1.17644 1.1795  0 0 1 0.56 910.55 A1.38822 1.39183 0 0 1 1.23 909.35 C1.25 909.33 1.26 909.33 1.27 909.32 L2.98  908.32 L2.98 902.33 L2.33 902.33 L2.33 891.83 L15.91 891.83 A3.88887 3.899 0 0 1 19.78 895.72 Z" class="k"/></g><g transform="translate(15.1273,-10.5)"><path d="M18.62 896.89 L18.62 925.28 A2.70662 2.71367 0 0 1 15.92 928 L0 928 L0 911.67 L0.59 911.99 A1.17644  1.1795 0 0 1 0.56 911.71 A1.38822 1.39183 0 0 1 1.23 910.51 C1.25 910.5 1.26 910.5 1.27 910.49 L2.98  909.49 L2.98 903.5 L2.33 903.5 L2.33 894.17 L15.91 894.17 A2.70662 2.71367 0 0 1 18.62 896.88 L18.62  896.89 Z" class="j"/></g><g transform="translate(15.1273,-10.5)"><path d="M17.45 896.89 L17.45 925.28 A2.70662 2.71367 0 0 1 14.75 928 L0 928 L0 911.67 L0.59 911.99 A1.17644  1.1795 0 0 1 0.56 911.71 A1.38822 1.39183 0 0 1 1.23 910.51 C1.25 910.5 1.26 910.5 1.27 910.49 L2.98  909.49 L2.98 903.5 L2.33 903.5 L2.33 894.17 L14.74 894.17 A2.70662 2.71367 0 0 1 17.45 896.88 L17.45  896.89 Z" class="k"/></g><g transform="translate(-3.17746E-13,-11.6667)"><path d="M0 925.28 A2.71483 2.7219 -180 0 0 2.71 928 L29.87 928 A2.71483 2.7219 -180 0 0 32.58 925.28 L32.58  898.06 A2.71483 2.7219 -180 0 0 29.87 895.33 L2.71 895.33 A2.71483 2.7219 -180 0 0 -0 898.06 L0  925.28 Z" class="bf"/></g><g transform="translate(8.01396,-19.0552)"><path d="M0.98 914.67 A7.37978 7.399 0 0 1 3.88 911.46 A8.76218 8.785 0 0 1 8.49 910.31 A8.14778 8.169 0 0 1  12.75 911.4 A7.30531 7.32433 0 0 1 15.57 914.47 A9.87811 9.90383 0 0 1 16.55 918.98 A10.4145 10.4417  0 0 1 15.54 923.7 A7.48218 7.50167 0 0 1 12.63 926.87 A8.47011 8.49217 0 0 1 8.21 928 A8.3456 8.36733  0 0 1 3.86 926.89 A7.41935 7.43867 0 0 1 1 923.82 A9.63491 9.66 0 0 1 -0 919.36 A10.6868 10.7147  0 0 1 0.98 914.67 L0.98 914.67 ZM4.07 922.21 A4.79418 4.80667 -180 0 0 5.7 924.32 A4.25542 4.2665  -180 0 0 8.25 925.09 A4.47069 4.48233 -180 0 0 10.97 924.29 A4.59404 4.606 -180 0 0 12.55 922.18  A8.16407 8.18533 -180 0 0 13.05 919.23 A8.9344 8.95767 -180 0 0 12.58 916.25 A4.7104 4.72267 -180  0 0 11.05 914.05 A4.21236 4.22333 -180 0 0 8.35 913.22 A4.39971 4.41117 -180 0 0 5.75 913.99 A4.83724  4.84983 -180 0 0 4.08 916.12 A8.42822 8.45017 -180 0 0 4.07 922.21 Z" class="l"/></g><g transform="translate(39.4996,-0.593833)"><path d="M2.88 914.1 L1.72 914.72 A3.16625 3.1745 0 0 1 0.06 915.18 L0 915.18 L23.3 928 A2.83695 2.84433 -180  0 0 24.47 925.99 L2.88 914.1 Z" class="bg"/></g><g transform="translate(39.4996,-0.5915)"><path d="M23.3 928 A2.95331 2.961 -180 0 0 24.11 927.12 L1.65 914.75 A3.26982 3.27833 0 0 1 1.42 914.88 A3.20465  3.213 0 0 1 0.06 915.17 L0 915.17 L23.3 928 Z" class="bg"/></g><g><text x="11.22" y="947.9" class="m">Outlook</text></g></g></a><a target="_blank" href="https://www.microsoft.com/microsoft-365/onenote/digital-note-taking-app" rel="noopener"><g transform="translate(176,-520.4)"><g transform="translate(15.1273,1.13687E-13)"><path d="M45.38 928 L2.71 928 A2.7136 2.72067 0 0 1 0 925.28 L0 874.72 A2.7136 2.72067 0 0 1 2.71 872 L46.16  872 A2.70429 2.71133 0 0 1 48.86 874.72 L48.87 924.5 A4.22982 4.24083 0 0 1 45.38 928 Z" class="bh"/></g><g transform="translate(50.0364,-28)"><rect x="0" y="914" width="13.9636" height="14" class="bi"/></g><g transform="translate(50.0364,-14)"><rect x="0" y="914" width="13.9636" height="14" class="bj"/></g><g transform="translate(50.0364,1.13687E-13)"><path d="M0 914 L13.96 914 L13.96 925.28 A2.71127 2.71833 0 0 1 11.25 928 L0 928 L0 914 Z" class="bk"/></g><g transform="translate(15.1273,-8.16667)"><path d="M18.62 894.55 L18.62 925.28 A2.01775 2.023 0 0 1 18.57 925.75 A2.69265 2.69967 0 0 1 15.91 928 L0 928  L0 891.83 L15.91 891.83 A2.70662 2.71367 0 0 1 18.62 894.55 Z" class="j"/></g><g transform="translate(15.1273,-9.33333)"><path d="M19.78 895.72 L19.78 924.12 A3.91215 3.92233 0 0 1 15.91 928 L0 928 L0 891.83 L15.91 891.83 A3.88887  3.899 0 0 1 19.78 895.72 Z" class="k"/></g><g transform="translate(15.1273,-10.5)"><path d="M18.62 896.89 L18.62 925.28 A2.70662 2.71367 0 0 1 15.91 928 L0 928 L0 894.17 L15.91 894.17 A2.70662  2.71367 0 0 1 18.62 896.89 Z" class="j"/></g><g transform="translate(15.1273,-10.5)"><path d="M17.45 896.89 L17.45 925.28 A2.70662 2.71367 0 0 1 14.74 928 L0 928 L0 894.17 L14.74 894.17 A2.70662  2.71367 0 0 1 17.45 896.89 Z" class="k"/></g><g transform="translate(-3.23741E-13,-11.6667)"><path d="M-0 925.28 A2.71483 2.7219 -180 0 0 2.71 928 L29.87 928 A2.71483 2.7219 -180 0 0 32.58 925.28 L32.58  898.06 A2.71483 2.7219 -180 0 0 29.87 895.33 L2.71 895.33 A2.71483 2.7219 -180 0 0 -0 898.06 L0  925.28 Z" class="bk"/></g><g transform="translate(8.92393,-19.1532)"><path d="M0 910.31 L3.68 910.31 L10.91 922.04 C11.24 922.57 11.49 922.99 11.65 923.31 L11.7 923.31 A17.9631 18.0098  0 0 1 11.6 920.91 L11.6 910.31 L14.73 910.31 L14.73 928 L11.29 928 L3.79 915.94 A9.43942 9.464 0  0 1 3.12 914.7 L3.06 914.7 A25.7699 25.837 0 0 1 3.15 917.34 L3.15 928 L0 928 L0 910.31 Z" class="l"/></g><g><text x="9.08" y="947.9" class="m">OneNote</text></g></g></a><a target="_blank" href="https://www.microsoft.com/microsoft-365/access" rel="noopener"><g transform="translate(64,-630.4)"><g transform="translate(15.1269,1.13687E-13)"><path d="M0 906.4 L0 920.8 C0 924.78 10.94 928 24.44 928 C37.93 928 48.87 924.78 48.87 920.8 L48.87 906.4 L0  906.4 Z" class="bl"/></g><g transform="translate(15.1269,-14.4)"><path d="M0 906.4 L0 920.8 C0 924.78 10.94 928 24.44 928 C37.93 928 48.87 924.78 48.87 920.8 L48.87 906.4 L0  906.4 Z" class="bm"/></g><g transform="translate(15.1269,-28.8)"><path d="M0 906.4 L0 920.8 C0 924.78 10.94 928 24.44 928 C37.93 928 48.87 924.78 48.87 920.8 L48.87 906.4 L0  906.4 Z" class="bn"/></g><g transform="translate(15.1269,-43.2)"><ellipse cx="24.4366" cy="920.8" rx="24.4366" ry="7.2" class="bo"/></g><g transform="translate(15.1271,-9.96923)"><path d="M18.62 896.24 L18.62 925.42 A2.01827 1.92123 0 0 1 18.57 925.86 A2.69242 2.56296 0 0 1 15.91 928 L0  928 L0 893.66 L15.91 893.66 A2.70664 2.57649 0 0 1 18.62 896.24 Z" class="j"/></g><g transform="translate(15.1271,-11.0769)"><path d="M19.78 897.35 L19.78 924.31 A3.91184 3.72374 0 0 1 15.91 928 L0 928 L0 893.66 L15.91 893.66 A3.88864  3.70165 0 0 1 19.78 897.35 Z" class="k"/></g><g transform="translate(15.1271,-12.1846)"><path d="M18.62 898.46 L18.62 925.42 A2.70664 2.57649 0 0 1 15.91 928 L0 928 L0 895.88 L15.91 895.88 A2.70664  2.57649 0 0 1 18.62 898.46 Z" class="j"/></g><g transform="translate(15.1271,-12.1846)"><path d="M17.45 898.46 L17.45 925.42 A2.70664 2.57649 0 0 1 14.74 928 L0 928 L0 895.88 L14.74 895.88 A2.70664  2.57649 0 0 1 17.45 898.46 Z" class="k"/></g><g transform="translate(0,-13.2923)"><path d="M0 925.42 A2.71523 2.58467 -180 0 0 2.72 928 L29.87 928 A2.71523 2.58467 -180 0 0 32.58 925.42 L32.58  899.57 A2.71523 2.58467 -180 0 0 29.87 896.98 L2.72 896.98 A2.71523 2.58467 -180 0 0 -0 899.57 L0  925.42 Z" class="bm"/></g><g transform="translate(7.8173,-20.3998)"><path d="M6.52 911.2 L10.52 911.2 L16.95 928 L13.17 928 L11.75 923.99 L5.14 923.99 L3.75 928 L0 928 L6.52 911.2  ZM10.9 921.4 L8.85 915.32 A8.48421 8.07625 0 0 1 8.47 913.95 L8.39 913.95 A8.16422 7.77165 0 0 1  8.02 915.36 L5.94 921.4 L10.9 921.4 Z" class="l"/></g><g><text x="12.73" y="946.3" class="m">Access</text></g></g></a><a target="_blank" href="https://www.microsoft.com/microsoft-365/publisher" rel="noopener"><g transform="translate(176,-408)"><g transform="translate(40.7272,-3.50002)"><path d="M0 925.24 A2.75261 2.75978 -180 0 0 2.75 928 L20.52 928 A2.75261 2.75978 -180 0 0 23.27 925.24 L23.27  881.76 A2.75261 2.75978 -180 0 0 20.52 879 L2.75 879 A2.75261 2.75978 -180 0 0 -0 881.76 L0 925.24  Z" class="bp"/></g><g transform="translate(15.1271,-1.13687E-13)"><path d="M35.74 928 L2.66 928 A2.65879 2.66572 0 0 1 0 925.33 L0 914 L20.95 909.33 L38.4 914 L38.4 925.33 A2.65879  2.66572 0 0 1 35.74 928 Z" class="bp"/></g><g transform="translate(15.1271,-25.6665)"><path d="M35.66 897.67 L2.74 897.67 A2.74674 2.7539 -180 0 0 -0 900.42 L0 925.67 L19.78 928 L38.4 925.67 L38.4  900.42 A2.74669 2.75385 -180 0 0 35.66 897.67 Z" class="bq"/></g><g transform="translate(15.1271,-14.0001)"><rect x="0" y="914" width="38.4001" height="14" class="br"/></g><g transform="translate(15.1271,-8.16671)"><path d="M18.62 894.55 L18.62 925.28 A2.01827 2.02352 0 0 1 18.57 925.75 A2.69241 2.69942 0 0 1 15.91 928 L0  928 L0 891.83 L15.91 891.83 A2.70663 2.71368 0 0 1 18.62 894.55 Z" class="j"/></g><g transform="translate(15.1271,-9.33338)"><path d="M19.78 895.72 L19.78 924.11 A3.91182 3.92201 0 0 1 15.91 928 L0 928 L0 891.83 L15.91 891.83 A3.88862  3.89875 0 0 1 19.78 895.72 Z" class="k"/></g><g transform="translate(15.1271,-10.5001)"><path d="M18.62 896.88 L18.62 925.28 A2.70663 2.71368 0 0 1 15.91 928 L0 928 L0 894.17 L15.91 894.17 A2.70663  2.71368 0 0 1 18.62 896.88 Z" class="j"/></g><g transform="translate(15.1271,-10.5001)"><path d="M17.45 896.88 L17.45 925.28 A2.70663 2.71368 0 0 1 14.74 928 L0 928 L0 894.17 L14.74 894.17 A2.70663  2.71368 0 0 1 17.45 896.88 Z" class="k"/></g><g transform="translate(0,-11.6667)"><path d="M0 925.28 A2.71556 2.72263 -180 0 0 2.72 928 L29.87 928 A2.71556 2.72263 -180 0 0 32.58 925.28 L32.58  898.06 A2.71556 2.72263 -180 0 0 29.87 895.33 L2.72 895.33 A2.71556 2.72263 -180 0 0 0 898.06 L0  925.28 Z" class="bp"/></g><g transform="translate(9.81701,-19.0014)"><path d="M7.01 909.85 A7.17305 7.19174 0 0 1 11.84 911.31 A5.25849 5.27219 0 0 1 13.52 915.52 A5.96976 5.98531  0 0 1 12.69 918.67 A5.60014 5.61473 0 0 1 10.33 920.82 A7.82882 7.84922 0 0 1 6.79 921.58 L3.44  921.58 L3.44 928 L0 928 L0 909.85 L7.01 909.85 ZM3.44 918.81 L6.4 918.81 A3.77654 3.78638 -180 0  0 9.01 918.01 A2.99959 3.0074 -180 0 0 9.9 915.66 C9.9 913.66 8.77 912.66 6.51 912.66 L3.44 912.66  L3.44 918.81 Z" class="l"/></g><g transform="translate(53.5272,-3.49974)"><rect x="0" y="879" width="1.16364" height="49" class="j"/></g><g transform="translate(54.6909,-3.49974)"><rect x="0" y="879" width="1.16364" height="49" class="k"/></g><g><text x="6.94" y="947.9" class="m">Publisher</text></g></g></a><a target="_blank" href="https://www.microsoft.com/microsoft-365/onedrive-for-business/online-cloud-storage" rel="noopener"><g transform="translate(64,-528)"><g transform="translate(15.8654,-18.5455)"><path d="M22.19 928 C22.19 928 36.03 920.22 36.26 920.34 A20.1634 20.2242 -180 0 0 11.81 905.75 A19.8464 19.9063  -180 0 0 -0 914.24 C0.12 914.24 22.19 928 22.19 928 Z" class="w"/></g><g transform="translate(3.19744E-13,-6.81994)"><path d="M24.57 904.91 A16.2149 16.2638 -180 0 0 16.1 902.51 L15.87 902.51 A16.1159 16.1645 -180 0 0 0 918.91  A16.6325 16.6827 -180 0 0 2.86 928 L25.05 925.73 L38.05 913.16 L24.57 904.91 Z" class="bf"/></g><g transform="translate(38.1723,-6.93959)"><path d="M14.08 908.74 L13.24 908.74 A12.354 12.3912 -180 0 0 8.11 909.81 L0 913.16 L8.83 922.97 L24.81 928 A13.0821  13.1216 -180 0 0 19.44 910.17 A14.3777 14.4211 -180 0 0 14.08 908.74 Z" class="bd"/></g><g transform="translate(2.86292,-1.13687E-13)"><path d="M48.55 914.24 L45.21 912.21 L37.58 907.66 L35.19 906.22 L29.11 908.86 L17.3 913.88 L11.93 916.04 L0  921.06 A16.232 16.281 -180 0 0 13.24 928 L48.43 928 A13.2588 13.2987 -180 0 0 60 921.06 L48.55 914.24  Z" class="z"/></g><g><text x="7.55" y="949.9" class="m">OneDrive <tspan x="16.42" dy="1.2em" class="bs">(1 TB)</tspan></text></g></g></a><a target="_blank" href="https://go.microsoft.com/fwlink/p/?linkid=2116636" rel="noopener"><g transform="translate(288,-400)"><g transform="translate(0,-26.88)"><ellipse cx="18.56" cy="909.44" rx="18.56" ry="18.56" class="z"/></g><g transform="translate(26.88,1.13687E-13)"><ellipse cx="18.56" cy="909.44" rx="18.56" ry="18.56" class="z"/></g><g transform="translate(1.28,-1.28)"><ellipse cx="30.72" cy="897.28" rx="30.72" ry="30.72" class="z"/></g><g transform="translate(20.1024,-14.7008)"><path d="M3.93 910.12 A9.33632 9.33632 0 0 1 1 907.03 A8.54016 8.54016 0 0 1 0 902.76 A7.6736 7.6736 0 0 1 1.81  897.59 A10.8813 10.8813 0 0 1 6.52 894.44 A18.199 18.199 0 0 1 12.69 893.4 A23.9616 23.9616 0 0  1 16.8 893.72 A14.8224 14.8224 0 0 1 19.64 894.45 A5.51936 5.51936 0 0 1 21.87 895.87 A2.88 2.88  0 0 1 22.56 897.79 A2.7712 2.7712 0 0 1 21.84 899.78 A2.40768 2.40768 0 0 1 20.02 900.54 A3.27552  3.27552 0 0 1 18.66 900.24 A24.4915 24.4915 -180 0 0 15.44 899.06 A11.6864 11.6864 -180 0 0 12.34  898.68 A7.08096 7.08096 -180 0 0 8.46 899.67 A3.232 3.232 -180 0 0 6.91 902.57 A2.91968 2.91968  -180 0 0 7.71 904.61 A7.33952 7.33952 -180 0 0 9.88 906.16 C10.79 906.61 12.15 907.21 13.95 907.96  A4.21888 4.21888 0 0 1 14.53 908.19 A28.9139 28.9139 0 0 1 19.57 910.78 A10.1594 10.1594 0 0 1 22.68  913.97 A8.3968 8.3968 0 0 1 23.8 918.39 A8.89344 8.89344 0 0 1 22.24 923.72 A9.22112 9.22112 0 0  1 17.9 926.94 A18.2886 18.2886 0 0 1 11.38 928 A20.544 20.544 0 0 1 2.5 926.32 A4.8384 4.8384 0  0 1 0.67 924.9 A3.2 3.2 0 0 1 0.07 922.96 A2.53056 2.53056 0 0 1 0.85 920.99 A2.88256 2.88256 0  0 1 2.87 920.28 A5.15712 5.15712 0 0 1 5.22 920.88 C6.13 921.34 6.84 921.67 7.36 921.9 A10.729 10.729  -180 0 0 9.2 922.48 A10.5382 10.5382 -180 0 0 11.57 922.73 A6.31936 6.31936 -180 0 0 15.55 921.67  A3.50336 3.50336 -180 0 0 16.89 918.76 A3.08736 3.08736 -180 0 0 16.05 916.64 A8.928 8.928 -180  0 0 13.58 914.84 C12.49 914.27 10.96 913.57 8.98 912.74 A28.4723 28.4723 0 0 1 3.93 910.12 L3.93  910.12 Z" class="bt"/><path d="M3.93 910.12 A9.33632 9.33632 0 0 1 1 907.03 A8.54016 8.54016 0 0 1 0 902.76 A7.6736 7.6736 0 0 1 1.81  897.59 A10.8813 10.8813 0 0 1 6.52 894.44 A18.199 18.199 0 0 1 12.69 893.4 A23.9616 23.9616 0 0  1 16.8 893.72 A14.8224 14.8224 0 0 1 19.64 894.45 A5.51936 5.51936 0 0 1 21.87 895.87 A2.88 2.88  0 0 1 22.56 897.79 A2.7712 2.7712 0 0 1 21.84 899.78 A2.40768 2.40768 0 0 1 20.02 900.54 A3.27552  3.27552 0 0 1 18.66 900.24 A24.4915 24.4915 -180 0 0 15.44 899.06 A11.6864 11.6864 -180 0 0 12.34  898.68 A7.08096 7.08096 -180 0 0 8.46 899.67 A3.232 3.232 -180 0 0 6.91 902.57 A2.91968 2.91968  -180 0 0 7.71 904.61 A7.33952 7.33952 -180 0 0 9.88 906.16 C10.79 906.61 12.15 907.21 13.95 907.96  A4.21888 4.21888 0 0 1 14.53 908.19 A28.9139 28.9139 0 0 1 19.57 910.78 A10.1594 10.1594 0 0 1 22.68  913.97 A8.3968 8.3968 0 0 1 23.8 918.39 A8.89344 8.89344 0 0 1 22.24 923.72 A9.22112 9.22112 0 0  1 17.9 926.94 A18.2886 18.2886 0 0 1 11.38 928 A20.544 20.544 0 0 1 2.5 926.32 A4.8384 4.8384 0  0 1 0.67 924.9 A3.2 3.2 0 0 1 0.07 922.96 A2.53056 2.53056 0 0 1 0.85 920.99 A2.88256 2.88256 0  0 1 2.87 920.28 A5.15712 5.15712 0 0 1 5.22 920.88 C6.13 921.34 6.84 921.67 7.36 921.9 A10.729 10.729  -180 0 0 9.2 922.48 A10.5382 10.5382 -180 0 0 11.57 922.73 A6.31936 6.31936 -180 0 0 15.55 921.67  A3.50336 3.50336 -180 0 0 16.89 918.76 A3.08736 3.08736 -180 0 0 16.05 916.64 A8.928 8.928 -180  0 0 13.58 914.84 C12.49 914.27 10.96 913.57 8.98 912.74 A28.4723 28.4723 0 0 1 3.93 910.12" class="bu"/></g><g transform="translate(0.2944,-37.504)"><path d="M24.06 902.44 A18.1158 18.1158 -180 0 0 21.58 901.8 A33.376 33.376 -180 0 0 -0 923.38 A18.1248 18.1248  -180 0 0 0.64 925.86 A14.057 14.057 -180 0 0 1.5 928 A30.6522 30.6522 0 0 1 26.2 903.3 A14.0672  14.0672 -180 0 0 24.06 902.44 Z" class="k"/></g><g transform="translate(0.9344,-0.2944)"><path d="M23.42 865.23 A32.0256 32.0256 -180 0 0 -0 888.65 A14.057 14.057 -180 0 0 0.86 890.79 A30.6522 30.6522  0 0 1 25.56 866.09 A14.0672 14.0672 -180 0 0 23.42 865.23 ZM62.13 903.94 A14.057 14.057 -180 0 0  61.27 901.8 A30.6522 30.6522 0 0 1 36.57 926.5 A14.0595 14.0595 -180 0 0 38.71 927.36 A18.1158 18.1158  -180 0 0 41.19 928 A33.376 33.376 -180 0 0 62.77 906.42 A18.1261 18.1261 -180 0 0 62.13 903.94 Z" class="k"/></g><g transform="translate(37.504,-0.9344)"><path d="M24.7 902.44 A30.6522 30.6522 0 0 1 -0 927.14 A14.0595 14.0595 -180 0 0 2.14 928 A32.0256 32.0256 -180  0 0 25.56 904.58 A14.057 14.057 -180 0 0 24.7 902.44 Z" class="k"/></g><g><text x="15.8" y="939.9" class="m">Skype</text></g></g></a><a target="_blank" href="https://www.microsoft.com/microsoft-365/microsoft-editor" rel="noopener"><g transform="translate(176,-624)"><g><g transform="translate(12,-7)"><path d="M23.5 917 L9.88 917 L4.54 924.36 L0 927.59 L0 928 L23.5 928 A5.5 5.5 -180 0 0 23.5 917 Z" class="q"/></g><g transform="translate(24.7886,-22)"><path d="M20.71 917 L7.99 917 L0 928 L20.71 928 A5.5 5.5 -180 0 0 20.71 917 Z" class="p"/></g><g transform="translate(35.6836,-37)"><path d="M19.82 917 L7.99 917 L0 928 L19.82 928 A5.5 5.5 -180 0 0 19.82 917 Z" class="p"/></g><g transform="translate(12,-7)"><path d="M4.54 924.35 L0 927.59 L0 928 L5.46 928 L7.04 926.87 L14.21 917 L9.88 917 L4.54 924.35 Z" class="k"/></g><g transform="translate(35.684,-37)"><path d="M7.99 917 L0 928 L4.33 928 L12.32 917 L7.99 917 Z" class="k"/></g><g transform="translate(24.789,-22)"><path d="M0 928 L4.32 928 L12.32 917 L7.99 917 L0 928 Z" class="k"/></g><g transform="translate(12,-7)"><path d="M4.54 924.35 L0 927.59 L0 928 L3.74 928 L6.32 926.15 L12.97 917 L9.88 917 L4.54 924.35 Z" class="k"/></g><g transform="translate(24.789,-22)"><path d="M0 928 L3.09 928 L11.08 917 L7.99 917 L0 928 Z" class="k"/></g><g transform="translate(35.684,-37)"><path d="M7.99 917 L0 928 L3.09 928 L11.08 917 L7.99 917 Z" class="k"/></g><g><rect x="0" y="864" width="64" height="64" class="bv"/></g><g transform="translate(12,-7)"><path d="M4.54 924.35 L0 927.59 L0 928 L2.01 928 L5.61 925.43 L11.74 917 L9.88 917 L4.54 924.35 Z" class="k"/></g><g transform="translate(35.684,-37)"><path d="M7.99 917 L0 928 L1.85 928 L9.84 917 L7.99 917 Z" class="k"/></g><g transform="translate(24.789,-22)"><path d="M0 928 L1.85 928 L9.84 917 L7.99 917 L0 928 Z" class="k"/></g><g transform="translate(2.30038,-5.86894)"><path d="M3.18 928 L25.16 902.89 L42.43 881.09 L33.04 875.22 L31.86 875.9 L3.04 915.41 L0 925.53 a0.96939  0.96939 -180 0 0 0.35115 1.04628 L0.35 926.58 L3.18 928 Z" class="n"/></g><g transform="translate(4.8157,-3.9329)"><path d="M2.37 927.86 a0.959 0.959 -180 0 0 1.04118 -0.03193 L12.08 921.65 L40.77 882.15 L35.69 876.47 L0  925.9 L2.37 927.86 Z" class="o"/></g><g transform="translate(34.1142,-49.7848)"><path d="M11.47 928 L14.64 923.62 C14.9 923.24 14.77 922.91 14.44 922.46 C12.07 919.2 5.01 915.07 4.08 915.15  A1.186 1.186 -180 0 0 3.17 915.51 L0 919.88 L11.47 928 Z" class="q"/></g><g transform="translate(1.27667,-1.1769)"><path d="M5.21 920.83 L1.38 921.89 L0.06 926.24 C0 926.61 0.4 927.14 0.69 927.38 C0.99 927.63 1.94 928 2.32  927.77 L5.91 925.11 C5.93 925.12 5.21 920.83 5.21 920.83 Z" class="q"/></g></g><g><text x="16.11" y="939.9" class="m">Editor</text></g></g></a><g transform="translate(64,-192)"><rect x="0" y="880" width="128" height="48" rx="8" ry="8" class="bw"/><text x="30.32" y="900.4" class="e">One Person<tspan x="27.64" dy="1.2em" class="bs">Five Devices</tspan></text></g><g transform="translate(224,-192)"><rect x="0" y="880" width="128" height="48" rx="8" ry="8" class="bw"/><text x="14.32" y="900.4" class="e">PC, Mac, iPadOS, <tspan x="15" dy="1.2em" class="bs">iOS, and Android</tspan></text></g><g transform="translate(224,-256)"><rect x="0" y="880" width="128" height="48" rx="8" ry="8" class="bw"/><text x="13.66" y="900.4" class="e">Monthly or Yearly <tspan x="27.33" dy="1.2em" class="bs">Subscription</tspan></text></g><a target="_blank" href="https://go.microsoft.com/fwlink/p/?linkid=2013818" rel="noopener"><g transform="translate(32,-720)"><rect x="0" y="896" width="352" height="32" rx="8" ry="8" class="bx"/><text x="110.31" y="915.6" class="e">Microsoft 365 Personal</text></g></a><g transform="translate(208,-784)"><rect x="0" y="864" width="128" height="64" rx="8" ry="8" class="by"/><text x="33.65" y="892.4" class="e">Six People <tspan x="11.63" dy="1.2em" class="bs">Five Devices Each</tspan></text></g><a target="_blank" href="https://www.microsoft.com/partner-benefits" rel="noopener"><g transform="translate(64,-128)"><rect x="0" y="880" width="128" height="48" rx="8" ry="8" class="bw"/><text x="23.65" y="900.4" class="e">Partner Offers<tspan x="15.67" dy="1.2em" class="bs">(US, UK, AU, CA)</tspan></text></g></a><g transform="translate(224,-128)"><rect x="0" y="880" width="128" height="48" rx="8" ry="8" class="bw"/><text x="27.33" y="900.4" class="e">Outlook.com <tspan x="29.65" dy="1.2em" class="bs">50 GB email</tspan></text></g><g transform="translate(224,-64)"><rect x="0" y="880" width="128" height="48" rx="8" ry="8" class="bw"/><text x="14" y="907.6" class="e">Premium Content</text></g><a target="_blank" href="https://www.microsoft.com/microsoft-365/family-safety" rel="noopener"><g transform="translate(64,-803.2)"><g transform="translate(3.15747E-13,-10.735)"><path d="M33.3 919.74 L31.38 911.47 C28.69 908.81 27.15 905.2 27.15 901.4 L21.78 899.5 L18.04 898.17 C0 898.17  6.14 911.66 9.69 915.65 L13.15 919.07 L13.63 919.55 C22.16 928 32.53 925.24 33.3 919.74 Z" class="bz"/></g><g transform="translate(2.5907,-1.995)"><g><g transform="translate(0,-21.28)"><path d="M30.7 903.11 C30.7 908.05 25.52 911.95 19.19 911.95 L15.35 911.95 C9.69 911.95 5.09 916.51 5.09  922.02 C5.09 924.2 5.76 926.29 7.1 928 L4.8 925.81 C1.73 922.4 0 917.93 0 913.28 C0 912.52  0.1 911.66 0.19 910.9 C1.34 901.4 9.5 894.28 19.19 894.28 C25.52 894.28 30.7 898.27 30.7  903.11 Z" class="ca"/></g><g transform="translate(0,-21.28)"><path d="M30.7 903.11 C30.7 908.05 25.52 911.95 19.19 911.95 L15.35 911.95 C9.69 911.95 5.09 916.51 5.09  922.02 C5.09 924.2 5.76 926.29 7.1 928 L4.8 925.81 C1.73 922.4 0 917.93 0 913.28 C0 912.52  0.1 911.66 0.19 910.9 C1.34 901.4 9.5 894.28 19.19 894.28 C25.52 894.28 30.7 898.27 30.7  903.11 Z" class="cb"/></g><g transform="translate(11.0345,-1.13687E-13)"><path d="M44.71 892.19 C43.85 891.33 42.79 890.57 41.64 890.1 C39.53 889.43 37.33 889.05 35.21 888.96  L31.18 890.76 L28.02 893.52 C28.02 897.32 26.48 900.93 23.8 903.59 L19.67 911 C14.1 916.03  5.47 915.94 0 910.71 L15.26 925.62 C17.75 928 21.69 928 24.18 925.62 L43.18 907.01 C44.52  905.3 47.78 901.59 47.78 899.31 C47.78 896.65 46.63 894.09 44.71 892.19 Z" class="cc"/></g><g transform="translate(11.0345,-1.13687E-13)"><path d="M44.71 892.19 C43.85 891.33 42.79 890.57 41.64 890.1 C39.53 889.43 37.33 889.05 35.21 888.96  L31.18 890.76 L28.02 893.52 C28.02 897.32 26.48 900.93 23.8 903.59 L19.67 911 C14.1 916.03  5.47 915.94 0 910.71 L15.26 925.62 C17.75 928 21.69 928 24.18 925.62 L43.18 907.01 C44.52  905.3 47.78 901.59 47.78 899.31 C47.78 896.65 46.63 894.09 44.71 892.19 Z" class="j"/></g></g></g><g transform="translate(13.6252,-1.995)"><path d="M44.71 892.19 C43.85 891.33 42.79 890.57 41.64 890.1 C39.53 889.43 37.33 889.05 35.21 888.96 L31.18  890.76 L28.02 893.52 C28.02 897.32 26.48 900.93 23.8 903.59 L19.67 911 C14.1 916.03 5.47 915.94  0 910.71 L15.26 925.62 C17.75 928 21.69 928 24.18 925.62 L43.18 907.01 C44.52 905.3 47.78 901.59  47.78 899.31 C47.78 896.65 46.63 894.09 44.71 892.19 Z" class="cd"/></g><g transform="translate(33.2954,-23.275)"><g><g><path d="M0 903.11 C0 908.05 5.18 911.95 11.51 911.95 L15.35 911.95 C21.01 911.95 25.62 916.51 25.62  922.02 C25.62 924.2 24.95 926.29 23.6 928 L25.91 925.72 C28.98 922.3 30.7 917.74 30.7 913.18  C30.7 912.42 30.61 911.57 30.51 910.81 C29.36 901.4 21.21 894.28 11.51 894.28 C5.18 894.28  0 898.27 0 903.11 Z" class="ca"/></g><g><path d="M0 903.11 C0 908.05 5.18 911.95 11.51 911.95 L15.35 911.95 C21.01 911.95 25.62 916.51 25.62  922.02 C25.62 924.2 24.95 926.29 23.6 928 L25.91 925.72 C28.98 922.3 30.7 917.74 30.7 913.18  C30.7 912.42 30.61 911.57 30.51 910.81 C29.36 901.4 21.21 894.28 11.51 894.28 C5.18 894.28  0 898.27 0 903.11 Z" class="cb"/></g></g></g><g transform="translate(21.7811,-19)"><path d="M23.03 907.77 L23.03 910.71 C23.03 914.51 21.49 918.12 18.81 920.78 L11.99 927.52 C11.8 927.71 11.71  927.81 11.51 928 L4.22 920.78 C1.54 918.12 0 914.51 0 910.71 L0 898.84 L23.03 898.84 L23.03 907.77  Z" class="ce"/></g><g transform="translate(2.5907,-23.275)"><path d="M30.7 903.11 C30.7 908.05 25.52 911.95 19.19 911.95 L15.35 911.95 C9.69 911.95 5.09 916.51 5.09 922.02  C5.09 924.2 5.76 926.29 7.1 928 L4.8 925.81 C1.73 922.4 0 917.93 0 913.28 C0 912.52 0.1 911.66 0.19  910.9 C1.34 901.4 9.5 894.28 19.19 894.28 C25.52 894.28 30.7 898.27 30.7 903.11 Z" class="cf"/></g><g transform="translate(33.2954,-23.275)"><path d="M0 903.11 C0 908.05 5.18 911.95 11.51 911.95 L15.35 911.95 C21.01 911.95 25.62 916.51 25.62 922.02 C25.62  924.2 24.95 926.29 23.6 928 L25.91 925.72 C28.98 922.3 30.7 917.74 30.7 913.18 C30.7 912.42 30.61  911.57 30.51 910.81 C29.36 901.4 21.21 894.28 11.51 894.28 C5.18 894.28 0 898.27 0 903.11 Z" class="cg"/></g><g transform="translate(2.5907,1.13687E-13)"><rect x="0" y="867.2" width="61.4093" height="60.8" class="bv"/></g><g><text x="14.58" y="943.1" class="m">Family <tspan x="15.49" dy="1.223em" class="bs">Safety</tspan></text></g></g></a><a target="_blank" href="https://support.microsoft.com/office/882d2243-eab9-4545-a58a-b36fee4a46e2" rel="noopener"><g transform="translate(64,-64)"><rect x="0" y="880" width="128" height="48" rx="8" ry="8" class="bw"/><text x="27.33" y="900.4" class="e">Outlook.com <tspan x="25.65" dy="1.2em" class="bs">Adv. Security</tspan></text></g></a></g></svg>