<svg xmlns="http://www.w3.org/2000/svg" width="384" height="528" viewBox="0 0 384 528" class="a"><style>
.b {fill:#a5a5a5;fill-opacity:0.2;stroke:#d04a00;stroke-linecap:round;stroke-linejoin:round;stroke-width:2.25}
.c {fill:#d04a00;stroke:#d04a00;stroke-linecap:round;stroke-linejoin:round;stroke-width:2.25}
.d {fill:#ffffff;font-family:Arial;font-size:1.16666em;font-weight:bold}
.e {fill:#d04a00;stroke:none;stroke-linecap:round;stroke-linejoin:round;stroke-width:1}
.f {font-size:1em}
.g {fill:#ffffff;font-family:Arial;font-size:1.08334em;font-weight:bold}
.a {fill:none;fill-rule:evenodd;font-size:12px;overflow:visible;stroke-linecap:square;stroke-miterlimit:3}
</style><g><g transform="translate(16,-16)"><rect x="0" y="32" width="352" height="496" rx="8" ry="8" class="b"/></g><g transform="translate(32,-224)"><rect x="0" y="288" width="320" height="240" rx="8" ry="8" class="b"/></g><a target="_blank" href="https://docs.microsoft.com/office365/servicedescriptions/office-365-advanced-threat-protection-service-description#feature-availability-across-advanced-threat-protection-atp-plans" rel="noopener"><g transform="translate(16,-480)"><rect x="0" y="496" width="352" height="32" rx="8" ry="8" class="c"/><text x="42.97" y="516.2" class="d">Microsoft Defender for Office 365 Plan 2</text></g></a><a target="_blank" href="https://docs.microsoft.com/office365/securitycompliance/threat-trackers" rel="noopener"><g transform="translate(256,-32)"><rect x="0" y="448" width="96" height="80" rx="8" ry="8" class="e"/><text x="26.61" y="483.8" class="d">Threat <tspan x="18.81" dy="1.2em" class="f">Trackers</tspan></text></g></a><a target="_blank" href="https://docs.microsoft.com/microsoft-365/security/office-365-security/attack-simulation-training-get-started" rel="noopener"><g transform="translate(32,-128)"><rect x="0" y="448" width="96" height="80" rx="8" ry="8" class="e"/><text x="26.6" y="475.4" class="d">Attack <tspan x="12.22" dy="1.2em" class="f">Simulation </tspan><tspan x="20.39" dy="1.2em" class="f">Training</tspan></text></g></a><a target="_blank" href="https://docs.microsoft.com/microsoft-365/security/office-365-security/threat-explorer" rel="noopener"><g transform="translate(144,-32)"><rect x="0" y="448" width="96" height="80" rx="8" ry="8" class="e"/><text x="26.61" y="483.8" class="d">Threat <tspan x="19.6" dy="1.2em" class="f">Explorer</tspan></text></g></a><a target="_blank" href="https://docs.microsoft.com/microsoft-365/security/office-365-security/automated-investigation-response-office" rel="noopener"><g transform="translate(144,-128)"><rect x="0" y="448" width="96" height="80" rx="8" ry="8" class="e"/><text x="11.45" y="475.4" class="d">Automated <tspan x="4.83" dy="1.2em" class="f">Investigation </tspan><tspan x="7.55" dy="1.2em" class="f">&amp; Response</tspan></text></g></a><a target="_blank" href="https://docs.microsoft.com/microsoft-365/security/office-365-security/atp-safe-links" rel="noopener"><g transform="translate(48,-240)"><rect x="0" y="496" width="288" height="32" rx="8" ry="8" class="e"/><text x="108.99" y="516.2" class="d">Safe Links</text></g></a><a target="_blank" href="https://docs.microsoft.com/microsoft-365/security/office-365-security/atp-safe-attachments" rel="noopener"><g transform="translate(48,-288)"><rect x="0" y="496" width="288" height="32" rx="8" ry="8" class="e"/><text x="84.87" y="516.2" class="d">Safe Attachments</text></g></a><a target="_blank" href="https://docs.microsoft.com/microsoft-365/security/office-365-security/atp-anti-phishing" rel="noopener"><g transform="translate(48,-384)"><rect x="0" y="496" width="288" height="32" rx="8" ry="8" class="e"/><text x="98.51" y="516.2" class="d">Anti-Phishing</text></g></a><a target="_blank" href="https://docs.microsoft.com/office365/servicedescriptions/office-365-advanced-threat-protection-service-description#feature-availability-across-advanced-threat-protection-atp-plans" rel="noopener"><g transform="translate(32,-432)"><rect x="0" y="496" width="320" height="32" rx="8" ry="8" class="c"/><text x="26.97" y="516.2" class="d">Microsoft Defender for Office 365 Plan 1</text></g></a><a target="_blank" href="https://docs.microsoft.com/microsoft-365/security/office-365-security/address-compromised-users-quickly" rel="noopener"><g transform="translate(32,-32)"><rect x="0" y="448" width="96" height="80" rx="8" ry="8" class="e"/><text x="4.3" y="476.3" class="g">Compromised <tspan x="33.55" dy="1.2em" class="f">User </tspan><tspan x="18.38" dy="1.2em" class="f">Detection</tspan></text></g></a><a target="_blank" href="https://docs.microsoft.com/microsoft-365/security/office-365-security/campaigns" rel="noopener"><g transform="translate(256,-128)"><rect x="0" y="448" width="96" height="80" rx="8" ry="8" class="e"/><text x="14.16" y="483.8" class="d">Campaign <tspan x="28.16" dy="1.2em" class="f">Views</tspan></text></g></a><a target="_blank" href="https://docs.microsoft.com/office365/servicedescriptions/office-365-advanced-threat-protection-service-description#real-time-reports" rel="noopener"><g transform="translate(48,-336)"><rect x="0" y="496" width="288" height="32" rx="8" ry="8" class="e"/><text x="82.15" y="516.2" class="d">Real-Time Reports</text></g></a></g></svg>