<?xml version="1.0" encoding="utf-8" standalone="no"?><!DOCTYPE svg PUBLIC "-//W3C//DTD SVG 1.1//EN" "http://www.w3.org/Graphics/SVG/1.1/DTD/svg11.dtd"[]><svg xmlns="http://www.w3.org/2000/svg" xmlns:xlink="http://www.w3.org/1999/xlink" xmlns:ev="http://www.w3.org/2001/xml-events" width="29.5276in" height="18.3071in" viewBox="0 0 2125.98 1318.11" xml:space="default" color-interpolation-filters="sRGB" class="st35">
	<style type="text/css">
	<![CDATA[
		.st1 {fill:#a5a5a5;fill-opacity:0.2;stroke:#d04a00;stroke-dasharray:33.75,20.25;stroke-linecap:round;stroke-linejoin:round;stroke-width:2.25}
		.st2 {fill:#d04a00;stroke:#d04a00;stroke-linecap:round;stroke-linejoin:round;stroke-width:2.25}
		.st3 {fill:#ffffff;font-family:Arial;font-size:1.5em;font-weight:bold}
		.st4 {fill:#a5a5a5;fill-opacity:0.2;stroke:#004400;stroke-dasharray:33.75,20.25;stroke-linecap:round;stroke-linejoin:round;stroke-width:2.25}
		.st5 {fill:#004400;stroke:#004400;stroke-linecap:round;stroke-linejoin:round;stroke-width:2.25}
		.st6 {fill:#a5a5a5;fill-opacity:0.2;stroke:#105868;stroke-dasharray:33.75,20.25;stroke-linecap:round;stroke-linejoin:round;stroke-width:2.25}
		.st7 {fill:#105868;stroke:#105868;stroke-linecap:round;stroke-linejoin:round;stroke-width:2.25}
		.st8 {font-size:1em}
		.st9 {fill:#a5a5a5;fill-opacity:0.2;stroke:#442060;stroke-linecap:round;stroke-linejoin:round;stroke-width:2.25}
		.st10 {fill:#442060;stroke:#442060;stroke-linecap:round;stroke-linejoin:round;stroke-width:2.25}
		.st11 {fill:#a5a5a5;fill-opacity:0.2;stroke:#303040;stroke-linecap:round;stroke-linejoin:round;stroke-width:2.25}
		.st12 {fill:#d8d8d8;fill-opacity:0.5;stroke:#d04a00;stroke-dasharray:2.25,4.5;stroke-linecap:round;stroke-linejoin:round;stroke-width:2.25}
		.st13 {fill:#d8d8d8;fill-opacity:0.5;stroke:#004400;stroke-dasharray:2.25,4.5;stroke-linecap:round;stroke-linejoin:round;stroke-width:2.25}
		.st14 {fill:#d8d8d8;fill-opacity:0.5;stroke:#0050c0;stroke-dasharray:2.25,4.5;stroke-linecap:round;stroke-linejoin:round;stroke-width:2.25}
		.st15 {fill:none;stroke:none;stroke-linecap:round;stroke-linejoin:round;stroke-width:0.75}
		.st16 {fill:#000000;font-family:Arial;font-size:1.00001em;font-weight:bold}
		.st17 {fill:#a5a5a5;fill-opacity:0.2;stroke:#403050;stroke-dasharray:2.25,4.5;stroke-linecap:round;stroke-linejoin:round;stroke-width:2.25}
		.st18 {fill:#403050;stroke:#403050;stroke-linecap:round;stroke-linejoin:round;stroke-width:2.25}
		.st19 {fill:#ffffff;font-family:Arial;font-size:1.00001em;font-weight:bold}
		.st20 {fill:#a5a5a5;fill-opacity:0.2;stroke:#d04a00;stroke-dasharray:15.75,11.25;stroke-linecap:round;stroke-linejoin:round;stroke-width:2.25}
		.st21 {fill:#d04a00;stroke:none;stroke-linecap:round;stroke-linejoin:round;stroke-width:0.24}
		.st22 {fill:#ffffff;font-family:Arial;font-size:0.916672em;font-weight:bold}
		.st23 {fill:#0050c0;stroke:none;stroke-linecap:round;stroke-linejoin:round;stroke-width:0.24}
		.st24 {fill:#105868;stroke:none;stroke-linecap:round;stroke-linejoin:round;stroke-width:0.24}
		.st25 {marker-end:url(#mrkr5-155);marker-start:url(#mrkr5-153);stroke:#0d5071;stroke-dasharray:2.25,4.5;stroke-linecap:round;stroke-linejoin:round;stroke-width:2.25}
		.st26 {fill:#0d5071;fill-opacity:1;stroke:#0d5071;stroke-opacity:1;stroke-width:0.47169811320755}
		.st27 {fill:#504060;stroke:none;stroke-linecap:round;stroke-linejoin:round;stroke-width:0.24}
		.st28 {fill:#504060;stroke:none;stroke-linecap:round;stroke-linejoin:round;stroke-width:4.5}
		.st29 {fill:#000000;font-family:Arial;font-size:4.00001em;font-weight:bold}
		.st30 {fill:#000000;font-family:Arial;font-size:1.99999em;font-weight:bold}
		.st31 {fill:#0070c0;font-family:Arial;font-size:1.16666em;font-weight:bold}
		.st32 {fill:#303040;stroke:#303040;stroke-linecap:round;stroke-linejoin:round;stroke-width:2.25}
		.st33 {fill:#ffffff;font-family:Arial;font-size:1.16666em;font-weight:bold}
		.st34 {fill:#004400;stroke:none;stroke-linecap:round;stroke-linejoin:round;stroke-width:0.24}
		.st35 {fill:none;fill-rule:evenodd;font-size:12px;overflow:visible;stroke-linecap:square;stroke-miterlimit:3}
	]]>
	</style>

	<defs id="Markers">
		<g id="lend5">
			<path d="M 2 1 L 0 0 L 1.98117 -0.993387 C 1.67173 -0.364515 1.67301 0.372641 1.98465 1.00043 " style="stroke:none" />
		</g>
		<marker id="mrkr5-153" class="st26" refX="3.55" orient="auto" markerUnits="strokeWidth" overflow="visible">
			<use xlink:href="#lend5" transform="scale(2.12) " />
		</marker>
		<marker id="mrkr5-155" class="st26" refX="-3.71" orient="auto" markerUnits="strokeWidth" overflow="visible">
			<use xlink:href="#lend5" transform="scale(-2.12,-2.12) " />
		</marker>
	</defs>
	<g>
		
		<g id="shape1009-1" transform="translate(368.504,-28.3465)">
			
			<rect x="0" y="198.425" width="538.583" height="1119.69" rx="8.50394" ry="8.50394" class="st1" />
		</g>
		<a xlink:href="https://docs.microsoft.com/office365/enterprise/" xlink:show="new" target="_blank" xlink:title="Office 365 Enterprise">
			<g id="shape1010-3" transform="translate(368.504,-28.3465)">
				
				
				<rect x="0" y="1261.42" width="538.583" height="56.6929" rx="8.50394" ry="8.50394" class="st2" />
				<text x="176.76" y="1295.16" class="st3">Office 365 E5 Step-up</text>			</g>
		</a>
		<g id="shape1011-6" transform="translate(1403.15,-28.3465)">
			
			<rect x="0" y="198.425" width="538.583" height="1119.69" rx="8.50394" ry="8.50394" class="st4" />
		</g>
		<a xlink:href="https://www.microsoft.com/windowsforbusiness" xlink:show="new" target="_blank" xlink:title="Windows 10">
			<g id="shape1012-8" transform="translate(1403.15,-28.3465)">
				
				
				<rect x="0" y="1261.42" width="538.583" height="56.6929" rx="8.50394" ry="8.50394" class="st5" />
				<text x="167.78" y="1295.16" class="st3">Windows 10 E5 Step-up</text>			</g>
		</a>
		<g id="shape1013-11" transform="translate(935.433,-28.3465)">
			
			<rect x="0" y="198.425" width="439.37" height="1119.69" rx="8.50394" ry="8.50394" class="st6" />
		</g>
		<a xlink:href="https://www.microsoft.com/cloud-platform/enterprise-mobility-security" xlink:show="new" target="_blank" xlink:title="Enterprise Mobility + Security">
			<g id="shape1014-13" transform="translate(935.433,-28.3465)">
				
				
				<rect x="0" y="1261.42" width="439.37" height="56.6929" rx="8.50394" ry="8.50394" class="st7" />
				<text x="43.39" y="1284.36" class="st3">Enterprise Mobility + Security E5 Step-up<tspan x="180.68" dy="1.2em" class="st8">(EMS E5)</tspan></text>			</g>
		</a>
		<a xlink:href="https://docs.microsoft.com/office365/enterprise/" xlink:show="new" target="_blank" xlink:title="Office 365 Enterprise">
			<g id="shape1058-17" transform="translate(368.504,-1091.34)">
				
				
				<rect x="0" y="1261.42" width="538.583" height="56.6929" rx="8.50394" ry="8.50394" class="st2" />
				<text x="176.76" y="1295.16" class="st3">Office 365 E5 Step-up</text>			</g>
		</a>
		<a xlink:href="https://www.microsoft.com/windowsforbusiness" xlink:show="new" target="_blank" xlink:title="Windows 10">
			<g id="shape1059-20" transform="translate(1403.15,-1091.34)">
				
				
				<rect x="0" y="1261.42" width="538.583" height="56.6929" rx="8.50394" ry="8.50394" class="st5" />
				<text x="167.78" y="1295.16" class="st3">Windows 10 E5 Step-up</text>			</g>
		</a>
		<a xlink:href="https://www.microsoft.com/cloud-platform/enterprise-mobility-security" xlink:show="new" target="_blank" xlink:title="Enterprise Mobility + Security">
			<g id="shape1060-23" transform="translate(935.433,-1091.34)">
				
				
				<rect x="0" y="1261.42" width="439.37" height="56.6929" rx="8.50394" ry="8.50394" class="st7" />
				<text x="43.39" y="1284.36" class="st3">Enterprise Mobility + Security E5 Step-up<tspan x="180.68" dy="1.2em" class="st8">(EMS E5)</tspan></text>			</g>
		</a>
		<g id="shape1061-27" transform="translate(779.528,1204.72) rotate(-90)">
			
			<rect x="0" y="-751.181" width="949.606" height="2069.29" rx="8.50394" ry="8.50394" class="st9" />
		</g>
		<a xlink:href="https://www.microsoft.com/microsoft-365/compare-all-microsoft-365-plans" xlink:show="new" target="_blank" xlink:title="Microsoft 365 Plans">
			<g id="shape1062-29" transform="translate(779.528,1204.72) rotate(-90)">
				
				
				<rect x="0" y="1261.42" width="949.606" height="56.6929" rx="8.50394" ry="8.50394" class="st10" />
				<text x="367.28" y="1295.16" class="st3">Microsoft 365 E5 Step-up</text>			</g>
		</a>
		<g id="shape1063-32" transform="translate(694.488,1176.38) rotate(-90)">
			
			<path d="M13.58 1318.11 L312.4 1318.11 A13.5825 13.5825 -180 0 0 325.98 1304.53 L325.98 -567.52 A13.5825 13.5825 -180        0 0 312.4 -581.1 L13.58 -581.1 A13.5825 13.5825 -180 0 0 -0 -567.52 L0 1304.53 A13.5825 13.5825 -180 0 0        13.58 1318.11 Z" class="st11" />
		</g>
		<g id="shape1064-34" transform="translate(694.488,822.047) rotate(-90)">
			
			<path d="M14.17 1318.11 L425.2 1318.11 A14.173 14.173 -180 0 0 439.37 1303.94 L439.37 -566.93 A14.173 14.173 -180 0 0        425.2 -581.1 L14.17 -581.1 A14.173 14.173 -180 0 0 0 -566.93 L0 1303.94 A14.173 14.173 -180 0 0 14.17 1318.11        Z" class="st11" />
		</g>
		<a xlink:href="https://www.microsoft.com/microsoft-365/compare-all-microsoft-365-plans" xlink:show="new" target="_blank" xlink:title="Microsoft 365 Plans">
			<g id="shape1069-36" transform="translate(-1233.07,1204.72) rotate(-90)">
				
				
				<rect x="0" y="1261.42" width="949.606" height="56.6929" rx="8.50394" ry="8.50394" class="st10" />
				<text x="367.28" y="1295.16" class="st3">Microsoft 365 E5 Step-up</text>			</g>
		</a>
		<g id="shape1070-39" transform="translate(382.677,-155.906)">
			
			<path d="M14.17 1318.11 L496.06 1318.11 A14.173 14.173 -180 0 0 510.24 1303.94 L510.24 1034.65 A14.173 14.173 -180 0        0 496.06 1020.47 L14.17 1020.47 A14.173 14.173 -180 0 0 -0 1034.65 L0 1303.94 A14.173 14.173 -180 0 0 14.17        1318.11 Z" class="st12" />
		</g>
		<g id="shape1071-41" transform="translate(1417.32,-155.906)">
			
			<path d="M14.17 1318.11 L496.06 1318.11 A14.173 14.173 -180 0 0 510.24 1303.94 L510.24 1034.65 A14.173 14.173 -180 0        0 496.06 1020.47 L14.17 1020.47 A14.173 14.173 -180 0 0 0 1034.65 L0 1303.94 A14.173 14.173 -180 0 0 14.17        1318.11 Z" class="st13" />
		</g>
		<g id="shape1072-43" transform="translate(1048.82,-240.945)">
			
			<path d="M14.17 1318.11 L297.64 1318.11 A14.173 14.173 -180 0 0 311.81 1303.94 L311.81 1119.69 A14.173 14.173 -180 0        0 297.64 1105.51 L14.17 1105.51 A14.173 14.173 -180 0 0 0 1119.69 L0 1303.94 A14.173 14.173 -180 0 0 14.17        1318.11 Z" class="st14" />
		</g>
		<a xlink:href="https://azure.microsoft.com/services/active-directory/" xlink:show="new" target="_blank" xlink:title="Azure Active Directory Premium Plan 2">
			<g id="shape1073-45" transform="translate(1048.82,-240.945)">
				
				
				<rect x="0" y="1275.59" width="311.167" height="42.5197" class="st15" />
				<text x="57.9" y="1300.45" class="st16">Azure AD Premium Plan 2 Step-up</text>			</g>
		</a>
		<g id="shape1074-48" transform="translate(70.8661,807.874) rotate(-90)">
			
			<path d="M12.28 1318.11 L171.97 1318.11 A12.2832 12.2832 -180 0 0 184.25 1305.83 L184.25 125.67 A12.2832 12.2832 -180        0 0 171.97 113.39 L12.28 113.39 A12.2832 12.2832 -180 0 0 0 125.67 L0 1305.83 A12.2832 12.2832 -180 0 0        12.28 1318.11 Z" class="st17" />
		</g>
		<a xlink:href="https://docs.microsoft.com/microsoft-365/compliance/microsoft-365-solution-catalog#information-protection--governance-section" xlink:show="new" target="_blank" xlink:title="Information Protection &amp; Governance">
			<g id="shape1075-50" transform="translate(-1091.34,807.874) rotate(-90)">
				
				
				<rect x="0" y="1275.59" width="184.252" height="42.5197" rx="8.50394" ry="8.50394" class="st18" />
				<text x="21.79" y="1293.25" class="st19">Information Protection &amp; <tspan x="57.44" dy="1.2em" class="st8">Governance</tspan></text>			</g>
		</a>
		<g id="shape1076-54" transform="translate(-396.85,609.449) rotate(-90)">
			
			<path d="M12.4 1318.11 L86.81 1318.11 A12.4014 12.4014 -180 0 0 99.21 1305.71 L99.21 593.5 A12.4014 12.4014 -180 0 0        86.81 581.1 L12.4 581.1 A12.4014 12.4014 -180 0 0 -0 593.5 L0 1305.71 A12.4014 12.4014 -180 0 0 12.4 1318.11        Z" class="st17" />
		</g>
		<a xlink:href="https://docs.microsoft.com/office365/servicedescriptions/microsoft-365-service-descriptions/microsoft-365-tenantlevel-services-licensing-guidance/microsoft-365-security-compliance-licensing-guidance#insider-risk-management" xlink:show="new" target="_blank" xlink:title="Insider Risk Management Licensing">
			<g id="shape1077-56" transform="translate(-1091.34,609.449) rotate(-90)">
				
				
				<rect x="0" y="1275.59" width="99.2126" height="42.5197" rx="8.50394" ry="8.50394" class="st18" />
				<text x="15.59" y="1293.25" class="st19">Insider Risk <tspan x="12.93" dy="1.2em" class="st8">Management</tspan></text>			</g>
		</a>
		<g id="shape1078-60" transform="translate(-396.85,496.063) rotate(-90)">
			
			<path d="M12.4 1318.11 L86.81 1318.11 A12.4014 12.4014 -180 0 0 99.21 1305.71 L99.21 593.5 A12.4014 12.4014 -180 0 0        86.81 581.1 L12.4 581.1 A12.4014 12.4014 -180 0 0 -0 593.5 L0 1305.71 A12.4014 12.4014 -180 0 0 12.4 1318.11        Z" class="st17" />
		</g>
		<a xlink:href="https://docs.microsoft.com/microsoft-365/compliance/microsoft-365-solution-catalog#discovery--response-section" xlink:show="new" target="_blank" xlink:title="eDiscovery &amp; Audit">
			<g id="shape1079-62" transform="translate(-1091.34,496.063) rotate(-90)">
				
				
				<rect x="0" y="1275.59" width="99.2126" height="42.5197" rx="8.50394" ry="8.50394" class="st18" />
				<text x="11.58" y="1293.25" class="st19">eDiscovery &amp; <tspan x="34.28" dy="1.2em" class="st8">Audit</tspan></text>			</g>
		</a>
		<g id="shape1080-66" transform="translate(595.276,-226.772)">
			
			<path d="M14.17 1318.11 L269.29 1318.11 A14.173 14.173 -180 0 0 283.46 1303.94 L283.46 1119.69 A14.173 14.173 -180 0        0 269.29 1105.51 L14.17 1105.51 A14.173 14.173 -180 0 0 -0 1119.69 L0 1303.94 A14.173 14.173 -180 0 0 14.17        1318.11 Z" class="st20" />
		</g>
		<a xlink:href="https://docs.microsoft.com/microsoft-365/security/office-365-security/atp-safe-links" xlink:show="new" target="_blank" xlink:title="Safe Links">
			<g id="shape1081-68" transform="translate(609.449,-269.291)">
				
				
				<rect x="0" y="1289.76" width="255.118" height="28.3464" rx="8.50394" ry="8.50394" class="st21" />
				<text x="97.55" y="1307.54" class="st19">Safe Links</text>			</g>
		</a>
		<a xlink:href="https://docs.microsoft.com/microsoft-365/security/office-365-security/atp-safe-attachments" xlink:show="new" target="_blank" xlink:title="Safe Attachments">
			<g id="shape1082-71" transform="translate(609.449,-311.811)">
				
				
				<rect x="0" y="1289.76" width="255.118" height="28.3464" rx="8.50394" ry="8.50394" class="st21" />
				<text x="76.88" y="1307.54" class="st19">Safe Attachments</text>			</g>
		</a>
		<a xlink:href="https://docs.microsoft.com/microsoft-365/security/office-365-security/atp-anti-phishing" xlink:show="new" target="_blank" xlink:title="Anti-Phishing">
			<g id="shape1083-74" transform="translate(609.449,-396.85)">
				
				
				<rect x="0" y="1289.76" width="255.118" height="28.3465" rx="8.50394" ry="8.50394" class="st21" />
				<text x="88.56" y="1307.54" class="st19">Anti-Phishing</text>			</g>
		</a>
		<a xlink:href="https://docs.microsoft.com/office365/securitycompliance/attack-simulator" xlink:show="new" target="_blank" xlink:title="Attack Simulator">
			<g id="shape1084-77" transform="translate(396.85,-368.504)">
				
				
				<rect x="0" y="1247.24" width="85.0394" height="70.8661" rx="8.50394" ry="8.50394" class="st21" />
				<text x="24.18" y="1279.08" class="st19">Attack <tspan x="14.85" dy="1.2em" class="st8">Simulator</tspan></text>			</g>
		</a>
		<a xlink:href="https://docs.microsoft.com/microsoft-365/security/office-365-security/automated-investigation-response-office" xlink:show="new" target="_blank" xlink:title="Automated Investigation and Response">
			<g id="shape1085-81" transform="translate(496.063,-368.504)">
				
				
				<rect x="0" y="1247.24" width="85.0394" height="70.8661" rx="8.50394" ry="8.50394" class="st21" />
				<text x="11.19" y="1271.88" class="st19">Automated <tspan x="5.51" dy="1.2em" class="st8">Investigation </tspan><tspan x="7.84" dy="1.2em" class="st8">&amp; Response</tspan></text>			</g>
		</a>
		<a xlink:href="https://docs.microsoft.com/microsoft-365/security/office-365-security/campaigns" xlink:show="new" target="_blank" xlink:title="Campaign Views">
			<g id="shape1086-86" transform="translate(396.85,-283.465)">
				
				
				<rect x="0" y="1247.24" width="85.0394" height="70.8661" rx="8.50394" ry="8.50394" class="st21" />
				<text x="13.52" y="1279.08" class="st19">Campaign <tspan x="25.51" dy="1.2em" class="st8">Views</tspan></text>			</g>
		</a>
		<a xlink:href="https://docs.microsoft.com/microsoft-365/security/office-365-security/threat-explorer" xlink:show="new" target="_blank" xlink:title="Threat Explorer">
			<g id="shape1087-90" transform="translate(396.85,-198.425)">
				
				
				<rect x="0" y="1247.24" width="85.0394" height="70.8661" rx="8.50394" ry="8.50394" class="st21" />
				<text x="24.18" y="1279.08" class="st19">Threat <tspan x="18.18" dy="1.2em" class="st8">Explorer</tspan></text>			</g>
		</a>
		<a xlink:href="https://docs.microsoft.com/office365/securitycompliance/threat-trackers" xlink:show="new" target="_blank" xlink:title="Threat Trackers">
			<g id="shape1088-94" transform="translate(496.063,-198.425)">
				
				
				<rect x="0" y="1247.24" width="85.0394" height="70.8661" rx="8.50394" ry="8.50394" class="st21" />
				<text x="24.18" y="1279.08" class="st19">Threat <tspan x="17.5" dy="1.2em" class="st8">Trackers</tspan></text>			</g>
		</a>
		<a xlink:href="https://docs.microsoft.com/microsoft-365/security/office-365-security/address-compromised-users-quickly" xlink:show="new" target="_blank" xlink:title="Compromised User Detection">
			<g id="shape1089-98" transform="translate(496.063,-283.465)">
				
				
				<rect x="0" y="1247.24" width="85.0394" height="70.8661" rx="8.50394" ry="8.50394" class="st21" />
				<text x="5.54" y="1272.78" class="st22">Compromised <tspan x="30.29" dy="1.2em" class="st8">User </tspan><tspan x="17.46" dy="1.2em" class="st8">Detection</tspan></text>			</g>
		</a>
		<a xlink:href="https://docs.microsoft.com/office365/servicedescriptions/office-365-advanced-threat-protection-service-description#feature-availability-across-advanced-threat-protection-atp-plans" xlink:show="new" target="_blank" xlink:title="Microsoft Defender for Office 365 Plan 1">
			<g id="shape1090-103" transform="translate(595.276,-226.772)">
				
				
				<rect x="0" y="1275.59" width="283.465" height="42.5196" class="st15" />
				<text x="27.7" y="1300.45" class="st16">Microsoft Defender for Office 365 Plan 1</text>			</g>
		</a>
		<a xlink:href="https://docs.microsoft.com/office365/servicedescriptions/office-365-advanced-threat-protection-service-description#feature-availability-across-advanced-threat-protection-atp-plans" xlink:show="new" target="_blank" xlink:title="Microsoft Defender for Office 365 Plan 2">
			<g id="shape1091-106" transform="translate(382.677,-155.906)">
				
				
				<rect x="0" y="1275.59" width="510.236" height="42.5196" class="st15" />
				<text x="141.09" y="1300.45" class="st16">Microsoft Defender for Office 365 Plan 2</text>			</g>
		</a>
		<a xlink:href="https://docs.microsoft.com/azure/active-directory/identity-protection/overview" xlink:show="new" target="_blank" xlink:title="Azure Identity Protection">
			<g id="shape1092-109" transform="translate(1162.2,-368.504)">
				
				
				<rect x="0" y="1247.24" width="85.0394" height="70.8661" rx="8.50394" ry="8.50394" class="st23" />
				<text x="25.85" y="1271.88" class="st19">Azure <tspan x="21.19" dy="1.2em" class="st8">Identity </tspan><tspan x="12.85" dy="1.2em" class="st8">Protection</tspan></text>			</g>
		</a>
		<a xlink:href="https://docs.microsoft.com/azure/active-directory/active-directory-privileged-identity-management-configure" xlink:show="new" target="_blank" xlink:title="Privileged Identity Management">
			<g id="shape1093-114" transform="translate(1062.99,-283.465)">
				
				
				<rect x="0" y="1247.24" width="85.0394" height="70.8661" rx="8.50394" ry="8.50394" class="st23" />
				<text x="13.84" y="1271.88" class="st19">Privileged <tspan x="21.19" dy="1.2em" class="st8">Identity </tspan><tspan x="5.85" dy="1.2em" class="st8">Management</tspan></text>			</g>
		</a>
		<a xlink:href="https://docs.microsoft.com/en-us/azure/active-directory/active-directory-azure-ad-controls-access-reviews-overview" xlink:show="new" target="_blank" xlink:title="Access Reviews">
			<g id="shape1094-119" transform="translate(1062.99,-368.504)">
				
				
				<rect x="0" y="1247.24" width="85.0394" height="70.8661" rx="8.50394" ry="8.50394" class="st23" />
				<text x="21.5" y="1279.08" class="st19">Access <tspan x="18.5" dy="1.2em" class="st8">Reviews</tspan></text>			</g>
		</a>
		<a xlink:href="https://docs.microsoft.com/azure/active-directory/active-directory-conditional-access-conditions#sign-in-risk" xlink:show="new" target="_blank" xlink:title="Risk-Based Conditional Access">
			<g id="shape1095-123" transform="translate(1162.2,-283.465)">
				
				
				<rect x="0" y="1247.24" width="85.0394" height="70.8661" rx="8.50394" ry="8.50394" class="st23" />
				<text x="9.84" y="1271.88" class="st19">Risk-Based <tspan x="9.53" dy="1.2em" class="st8">Conditional </tspan><tspan x="21.5" dy="1.2em" class="st8">Access</tspan></text>			</g>
		</a>
		<a xlink:href="https://docs.microsoft.com/azure/active-directory/governance/entitlement-management-overview" xlink:show="new" target="_blank" xlink:title="Entitlement Management">
			<g id="shape1096-128" transform="translate(1261.42,-368.504)">
				
				
				<rect x="0" y="1247.24" width="85.0394" height="70.8661" rx="8.50394" ry="8.50394" class="st23" />
				<text x="9.85" y="1279.08" class="st19">Entitlement <tspan x="5.85" dy="1.2em" class="st8">Management</tspan></text>			</g>
		</a>
		<a xlink:href="https://www.microsoft.com/cloud-platform/cloud-app-security" xlink:show="new" target="_blank" xlink:title="Microsoft Cloud App Security">
			<g id="shape1097-132" transform="translate(949.606,-368.504)">
				
				
				<rect x="0" y="1247.24" width="85.0394" height="70.8661" rx="8.50394" ry="8.50394" class="st24" />
				<text x="15.52" y="1271.88" class="st19">Microsoft <tspan x="12.19" dy="1.2em" class="st8">Cloud App </tspan><tspan x="18.84" dy="1.2em" class="st8">Security</tspan></text>			</g>
		</a>
		<a xlink:href="https://www.microsoft.com/microsoft-365/security/identity-defender" xlink:show="new" target="_blank" xlink:title="Microsoft Defender for Identity">
			<g id="shape1098-137" transform="translate(949.606,-283.465)">
				
				
				<rect x="0" y="1247.24" width="85.0394" height="70.8661" rx="8.50394" ry="8.50394" class="st24" />
				<text x="15.52" y="1271.88" class="st19">Microsoft <tspan x="6.85" dy="1.2em" class="st8">Defender for </tspan><tspan x="21.19" dy="1.2em" class="st8">Identity</tspan></text>			</g>
		</a>
		<a xlink:href="https://www.microsoft.com/cloud-platform/cloud-app-security" xlink:show="new" target="_blank" xlink:title="Microsoft Cloud App Security">
			<g id="shape1099-142" transform="translate(949.606,-524.409)">
				
				
				<rect x="0" y="1247.24" width="85.0394" height="70.8661" rx="8.50394" ry="8.50394" class="st24" />
				<text x="15.52" y="1271.88" class="st19">Microsoft <tspan x="12.19" dy="1.2em" class="st8">Cloud App </tspan><tspan x="18.84" dy="1.2em" class="st8">Security</tspan></text>			</g>
		</a>
		<g id="shape1100-147" transform="translate(999.213,-439.37)">
			
			<path d="M-7.09 1310.12 L-7.09 1309.76 L-7.09 1241.42" class="st25" />
		</g>
		<a xlink:href="https://docs.microsoft.com/windows/security/threat-protection/windows-defender-atp/windows-defender-advanced-threat-protection" xlink:show="new" target="_blank" xlink:title="Microsoft Defender for Endpoint">
			<g id="shape1113-156" transform="translate(1417.32,-155.906)">
				
				
				<rect x="0" y="1275.59" width="510.236" height="42.5197" class="st15" />
				<text x="163.12" y="1300.45" class="st16">Microsoft Defender for Endpoint</text>			</g>
		</a>
		<a xlink:href="https://docs.microsoft.com/microsoft-365/compliance/classifier-learn-about" xlink:show="new" target="_blank" xlink:title="Trainable Classifiers">
			<g id="shape1114-159" transform="translate(255.118,-524.409)">
				
				
				<rect x="0" y="1247.24" width="85.0394" height="70.8661" rx="8.50394" ry="8.50394" class="st27" />
				<text x="15.84" y="1279.08" class="st19">Trainable <tspan x="12.17" dy="1.2em" class="st8">Classifiers</tspan></text>			</g>
		</a>
		<a xlink:href="https://docs.microsoft.com/microsoft-365/compliance/endpoint-dlp-learn-about" xlink:show="new" target="_blank" xlink:title="Endpoint DLP">
			<g id="shape1115-163" transform="translate(255.118,-609.449)">
				
				
				<rect x="0" y="1247.24" width="85.0394" height="70.8661" rx="8.50394" ry="8.50394" class="st28" />
				<text x="16.53" y="1279.08" class="st19">Endpoint <tspan x="30.52" dy="1.2em" class="st8">DLP</tspan></text>			</g>
		</a>
		<a xlink:href="https://docs.microsoft.com/microsoft-365/security/office-365-security/install-app-guard" xlink:show="new" target="_blank" xlink:title="Application Guard for Office">
			<g id="shape1116-167" transform="translate(255.118,-368.504)">
				
				
				<rect x="0" y="1247.24" width="85.0394" height="70.8661" rx="8.50394" ry="8.50394" class="st27" />
				<text x="9.85" y="1271.88" class="st19">Application <tspan x="15.19" dy="1.2em" class="st8">Guard for </tspan><tspan x="25.52" dy="1.2em" class="st8">Office</tspan></text>			</g>
		</a>
		<a xlink:href="https://docs.microsoft.com/microsoft-365/security/office-365-security/safe-docs" xlink:show="new" target="_blank" xlink:title="Safe Documents">
			<g id="shape1117-172" transform="translate(255.118,-198.425)">
				
				
				<rect x="0" y="1247.24" width="85.0394" height="70.8661" rx="8.50394" ry="8.50394" class="st27" />
				<text x="29.85" y="1279.08" class="st19">Safe <tspan x="9.85" dy="1.2em" class="st8">Documents</tspan></text>			</g>
		</a>
		<a xlink:href="https://docs.microsoft.com/windows/security/threat-protection/microsoft-defender-atp/microsoft-defender-atp-mac" xlink:show="new" target="_blank" xlink:title="Microsoft Defender for Endpoint for Mac">
			<g id="shape1118-176" transform="translate(255.118,-283.465)">
				
				
				<rect x="0" y="1247.24" width="85.0394" height="70.8661" rx="8.50394" ry="8.50394" class="st27" />
				<text x="6.85" y="1271.88" class="st19">Defender for <tspan x="16.53" dy="1.2em" class="st8">Endpoint </tspan><tspan x="26.85" dy="1.2em" class="st8">(Mac)</tspan></text>			</g>
		</a>
		<a xlink:href="https://support.office.com/article/f2cd475a-e592-46cf-80a3-1bfb0fa17697" xlink:show="new" target="_blank" xlink:title="Customer Key">
			<g id="shape1119-181" transform="translate(496.063,-609.449)">
				
				
				<rect x="0" y="1247.24" width="85.0394" height="70.8661" rx="8.50394" ry="8.50394" class="st21" />
				<text x="14.51" y="1279.08" class="st19">Customer <tspan x="31.51" dy="1.2em" class="st8">Key</tspan></text>			</g>
		</a>
		<a xlink:href="https://docs.microsoft.com/office365/securitycompliance/data-loss-prevention-policies#policy-evaluation-in-microsoft-teams" xlink:show="new" target="_blank" xlink:title="Teams DLP">
			<g id="shape1120-185" transform="translate(496.063,-524.409)">
				
				
				<rect x="0" y="1247.24" width="85.0394" height="70.8661" rx="8.50394" ry="8.50394" class="st21" />
				<text x="23.51" y="1271.88" class="st19">Teams<tspan x="13.84" dy="1.2em" class="st8">Data Loss </tspan><tspan x="11.51" dy="1.2em" class="st8">Prevention</tspan></text>			</g>
		</a>
		<a xlink:href="https://docs.microsoft.com/microsoft-365/compliance/ome-advanced-message-encryption" xlink:show="new" target="_blank" xlink:title="Advanced Message Encryption">
			<g id="shape1121-190" transform="translate(396.85,-609.449)">
				
				
				<rect x="0" y="1247.24" width="85.0394" height="70.8661" rx="8.50394" ry="8.50394" class="st21" />
				<text x="13.84" y="1271.88" class="st19">Advanced <tspan x="17.17" dy="1.2em" class="st8">Message </tspan><tspan x="11.18" dy="1.2em" class="st8">Encryption</tspan></text>			</g>
		</a>
		<a xlink:href="https://docs.microsoft.com/microsoft-365/compliance/records-management" xlink:show="new" target="_blank" xlink:title="Records Management">
			<g id="shape1123-195" transform="translate(793.701,-609.449)">
				
				
				<rect x="0" y="1247.24" width="85.0394" height="70.8661" rx="8.50394" ry="8.50394" class="st21" />
				<text x="18.51" y="1279.08" class="st19">Records <tspan x="5.85" dy="1.2em" class="st8">Management</tspan></text>			</g>
		</a>
		<a xlink:href="https://docs.microsoft.com/microsoft-365/compliance/double-key-encryption" xlink:show="new" target="_blank" xlink:title="Double Key Encryption">
			<g id="shape1125-199" transform="translate(595.276,-609.449)">
				
				
				<rect x="0" y="1247.24" width="85.0394" height="70.8661" rx="8.50394" ry="8.50394" class="st21" />
				<text x="9.51" y="1279.08" class="st19">Double Key <tspan x="11.18" dy="1.2em" class="st8">Encryption</tspan></text>			</g>
		</a>
		<a xlink:href="https://docs.microsoft.com/microsoft-365/compliance/insider-risk-management" xlink:show="new" target="_blank" xlink:title="Insider Risk Management">
			<g id="shape1127-203" transform="translate(255.118,-722.835)">
				
				
				<rect x="0" y="1247.24" width="85.0394" height="70.8661" rx="8.50394" ry="8.50394" class="st27" />
				<text x="8.51" y="1279.08" class="st19">Insider Risk <tspan x="5.85" dy="1.2em" class="st8">Management</tspan></text>			</g>
		</a>
		<a xlink:href="https://support.office.com/article/36f9cdd1-e64c-421b-a7e4-4a54d16440a2" xlink:show="new" target="_blank" xlink:title="Customer Lockbox">
			<g id="shape1128-207" transform="translate(496.063,-722.835)">
				
				
				<rect x="0" y="1247.24" width="85.0394" height="70.8662" rx="8.50394" ry="8.50394" class="st21" />
				<text x="14.51" y="1279.08" class="st19">Customer <tspan x="17.85" dy="1.2em" class="st8">Lockbox</tspan></text>			</g>
		</a>
		<a xlink:href="https://docs.microsoft.com/microsoft-365/compliance/information-barriers" xlink:show="new" target="_blank" xlink:title="Information Barriers">
			<g id="shape1130-211" transform="translate(595.276,-722.835)">
				
				
				<rect x="0" y="1247.24" width="85.0394" height="70.8661" rx="8.50394" ry="8.50394" class="st21" />
				<text x="9.52" y="1279.08" class="st19">Information <tspan x="19.5" dy="1.2em" class="st8">Barriers</tspan></text>			</g>
		</a>
		<a xlink:href="https://docs.microsoft.com/microsoft-365/compliance/communication-compliance" xlink:show="new" target="_blank" xlink:title="Communication Compliance">
			<g id="shape1131-215" transform="translate(396.85,-722.835)">
				
				
				<rect x="0" y="1247.24" width="85.0394" height="70.8661" rx="8.50394" ry="8.50394" class="st21" />
				<text x="23.85" y="1279.08" class="st19">Comm <tspan x="8.51" dy="1.2em" class="st8">Compliance</tspan></text>			</g>
		</a>
		<a xlink:href="https://support.office.com/article/2e5fbe9f-ee4d-4178-8ff8-4356bc1b168e" xlink:show="new" target="_blank" xlink:title="Advanced eDiscovery">
			<g id="shape1132-219" transform="translate(496.063,-836.221)">
				
				
				<rect x="0" y="1247.24" width="85.0394" height="70.8661" rx="8.50394" ry="8.50394" class="st21" />
				<text x="13.84" y="1279.08" class="st19">Advanced <tspan x="10.5" dy="1.2em" class="st8">eDiscovery</tspan></text>			</g>
		</a>
		<a xlink:href="https://docs.microsoft.com/microsoft-365/compliance/advanced-audit" xlink:show="new" target="_blank" xlink:title="Advanced Audit">
			<g id="shape1133-223" transform="translate(396.85,-836.221)">
				
				
				<rect x="0" y="1247.24" width="85.0394" height="70.8661" rx="8.50394" ry="8.50394" class="st21" />
				<text x="13.84" y="1279.08" class="st19">Advanced <tspan x="27.19" dy="1.2em" class="st8">Audit</tspan></text>			</g>
		</a>
		<a xlink:href="https://docs.microsoft.com/MicrosoftTeams/what-is-phone-system-in-office-365" xlink:show="new" target="_blank" xlink:title="Phone System">
			<g id="shape1134-227" transform="translate(793.701,-963.78)">
				
				
				<rect x="0" y="1247.24" width="85.0394" height="70.8661" rx="8.50394" ry="8.50394" class="st21" />
				<text x="24.19" y="1279.08" class="st19">Phone <tspan x="21.17" dy="1.2em" class="st8">System</tspan></text>			</g>
		</a>
		<a xlink:href="https://docs.microsoft.com/microsoftteams/audio-conferencing-in-office-365" xlink:show="new" target="_blank" xlink:title="Audio Conferencing">
			<g id="shape1135-231" transform="translate(396.85,-963.78)">
				
				
				<rect x="0" y="1247.24" width="85.0394" height="70.8661" rx="8.50394" ry="8.50394" class="st21" />
				<text x="26.94" y="1279.38" class="st22">Audio <tspan x="7.07" dy="1.2em" class="st8">Conferencing</tspan></text>			</g>
		</a>
		<a xlink:href="https://docs.microsoft.com/power-bi/service-get-started" xlink:show="new" target="_blank" xlink:title="Power BI Pro">
			<g id="shape1136-235" transform="translate(694.488,-963.78)">
				
				
				<rect x="0" y="1247.24" width="85.0394" height="70.8661" rx="8.50394" ry="8.50394" class="st21" />
				<text x="5.18" y="1286.28" class="st19">Power BI Pro</text>			</g>
		</a>
		<a xlink:href="https://docs.microsoft.com/office365/servicedescriptions/mya-service-description" xlink:show="new" target="_blank" xlink:title="MyAnalytics (Full)">
			<g id="shape1137-238" transform="translate(496.063,-963.78)">
				
				
				<rect x="0" y="1247.24" width="85.0394" height="70.8661" rx="8.50394" ry="8.50394" class="st21" />
				<text x="7.51" y="1279.08" class="st19">MyAnalytics <tspan x="27.86" dy="1.2em" class="st8">(Full)</tspan></text>			</g>
		</a>
		<a xlink:href="https://docs.microsoft.com/cloud-app-security/editions-cloud-app-security-o365" xlink:show="new" target="_blank" xlink:title="Office 365 Cloud App Security">
			<g id="shape1138-242" transform="translate(595.276,-963.78)">
				
				
				<rect x="0" y="1247.24" width="85.0394" height="70.8661" rx="8.50394" ry="8.50394" class="st21" />
				<text x="13.84" y="1271.88" class="st19">Office 365 <tspan x="12.19" dy="1.2em" class="st8">Cloud App </tspan><tspan x="18.84" dy="1.2em" class="st8">Security</tspan></text>			</g>
		</a>
		<a xlink:href="https://m365maps.com/" xlink:show="new" target="_blank" xlink:title="Web Link">
			<g id="shape1153-247" transform="translate(28.3465,-1233.07)">
				
				
				<rect x="0" y="1261.42" width="2069.29" height="56.6929" class="st15" />
				<text x="747.92" y="1304.16" class="st29">Microsoft 365 E5 Step-up</text>			</g>
		</a>
		<g id="shape1154-250" transform="translate(28.3465,-1204.72)">
			
			
			<rect x="0" y="1289.76" width="2069.29" height="28.3465" class="st15" />
			<text x="953.27" y="1311.14" class="st30">February 2021</text>		</g>
		<a xlink:href="https://twitter.com/AaronDinnage" xlink:show="new" target="_blank" xlink:title="Twitter">
			<g id="shape1155-253" transform="translate(28.3465,-1176.38)">
				
				
				<rect x="0" y="1289.76" width="2069.29" height="28.3465" class="st15" />
				<text x="979.98" y="1308.14" class="st31">@AaronDinnage</text>			</g>
		</a>
		<a xlink:href="https://docs.microsoft.com/office365/servicedescriptions/office-365-advanced-threat-protection-service-description#real-time-reports" xlink:show="new" target="_blank" xlink:title="Real-Time Reports">
			<g id="shape1157-256" transform="translate(609.449,-354.331)">
				
				
				<rect x="0" y="1289.76" width="255.118" height="28.3465" rx="8.50394" ry="8.50394" class="st21" />
				<text x="74.55" y="1307.54" class="st19">Real-Time Reports</text>			</g>
		</a>
		<a xlink:href="https://docs.microsoft.com/microsoft-365/compliance/manage-information-governance" xlink:show="new" target="_blank" xlink:title="Information Governance">
			<g id="shape1158-259" transform="translate(694.488,-609.449)">
				
				
				<rect x="0" y="1247.24" width="85.0394" height="70.8661" rx="8.50394" ry="8.50394" class="st21" />
				<text x="9.52" y="1279.08" class="st19">Information <tspan x="7.84" dy="1.2em" class="st8">Governance</tspan></text>			</g>
		</a>
		<a xlink:href="https://docs.microsoft.com/microsoft-365/security/" xlink:show="new" target="_blank" xlink:title="Microsoft 365 Security">
			<g id="shape1159-263" transform="translate(694.488,1176.38) rotate(-90)">
				
				
				<rect x="0" y="1275.59" width="325.984" height="42.5197" rx="8.50394" ry="8.50394" class="st32" />
				<text x="77.79" y="1301.05" class="st33">Microsoft 365 E5 Security</text>			</g>
		</a>
		<a xlink:href="https://docs.microsoft.com/microsoft-365/security/" xlink:show="new" target="_blank" xlink:title="Microsoft 365 Security">
			<g id="shape1160-266" transform="translate(-1162.2,1176.38) rotate(-90)">
				
				
				<rect x="0" y="1275.59" width="325.984" height="42.5197" rx="8.50394" ry="8.50394" class="st32" />
				<text x="77.79" y="1301.05" class="st33">Microsoft 365 E5 Security</text>			</g>
		</a>
		<a xlink:href="https://docs.microsoft.com/microsoft-365/compliance/privileged-access-management-solution-overview" xlink:show="new" target="_blank" xlink:title="Privileged Access Management">
			<g id="shape1161-269" transform="translate(694.488,-722.835)">
				
				
				<rect x="0" y="1247.24" width="85.0394" height="70.8661" rx="8.50394" ry="8.50394" class="st21" />
				<text x="13.84" y="1271.88" class="st19">Privileged <tspan x="21.5" dy="1.2em" class="st8">Access </tspan><tspan x="5.85" dy="1.2em" class="st8">Management</tspan></text>			</g>
		</a>
		<a xlink:href="https://docs.microsoft.com/microsoft-365/compliance/" xlink:show="new" target="_blank" xlink:title="Microsoft 365 Compliance">
			<g id="shape1162-274" transform="translate(694.488,822.047) rotate(-90)">
				
				
				<rect x="0" y="1275.59" width="439.37" height="42.5197" rx="8.50394" ry="8.50394" class="st32" />
				<text x="122.43" y="1301.05" class="st33">Microsoft 365 E5 Compliance</text>			</g>
		</a>
		<a xlink:href="https://docs.microsoft.com/microsoft-365/compliance/" xlink:show="new" target="_blank" xlink:title="Microsoft 365 Compliance">
			<g id="shape1163-277" transform="translate(-1162.2,822.047) rotate(-90)">
				
				
				<rect x="0" y="1275.59" width="439.37" height="42.5197" rx="8.50394" ry="8.50394" class="st32" />
				<text x="122.43" y="1301.05" class="st33">Microsoft 365 E5 Compliance</text>			</g>
		</a>
		<a xlink:href="https://docs.microsoft.com/windows/security/threat-protection/windows-defender-atp/automated-investigations-windows-defender-advanced-threat-protection" xlink:show="new" target="_blank" xlink:title="Automated Investigation and Response">
			<g id="shape1164-280" transform="translate(1530.71,-368.504)">
				
				
				<rect x="0" y="1247.24" width="85.0394" height="70.8661" rx="8.50394" ry="8.50394" class="st34" />
				<text x="11.19" y="1271.88" class="st19">Automated <tspan x="5.51" dy="1.2em" class="st8">Investigation </tspan><tspan x="7.84" dy="1.2em" class="st8">&amp; Response</tspan></text>			</g>
		</a>
		<a xlink:href="https://docs.microsoft.com/windows/security/threat-protection/windows-defender-atp/overview-hunting-windows-defender-advanced-threat-protection" xlink:show="new" target="_blank" xlink:title="Advanced Hunting">
			<g id="shape1165-285" transform="translate(1431.5,-368.504)">
				
				
				<rect x="0" y="1247.24" width="85.0394" height="70.8661" rx="8.50394" ry="8.50394" class="st34" />
				<text x="13.84" y="1279.08" class="st19">Advanced <tspan x="19.86" dy="1.2em" class="st8">Hunting</tspan></text>			</g>
		</a>
		<a xlink:href="https://docs.microsoft.com/windows/security/threat-protection/microsoft-defender-atp/microsoft-cloud-app-security-integration" xlink:show="new" target="_blank" xlink:title="Cloud App Security Integration">
			<g id="shape1166-289" transform="translate(1729.13,-368.504)">
				
				
				<rect x="0" y="1247.24" width="85.0394" height="70.8661" rx="8.50394" ry="8.50394" class="st34" />
				<text x="12.19" y="1271.88" class="st19">Cloud App <tspan x="18.84" dy="1.2em" class="st8">Security </tspan><tspan x="11.52" dy="1.2em" class="st8">Integration</tspan></text>			</g>
		</a>
		<a xlink:href="https://docs.microsoft.com/windows/security/threat-protection/microsoft-defender-atp/microsoft-defender-atp-android" xlink:show="new" target="_blank" xlink:title="Microsoft Defender for Endpoint for Android">
			<g id="shape1167-294" transform="translate(1828.35,-368.504)">
				
				
				<rect x="0" y="1247.24" width="85.0394" height="70.8661" rx="8.50394" ry="8.50394" class="st34" />
				<text x="6.85" y="1271.88" class="st19">Defender for <tspan x="16.53" dy="1.2em" class="st8">Endpoint </tspan><tspan x="15.53" dy="1.2em" class="st8">(Android)</tspan></text>			</g>
		</a>
		<a xlink:href="https://docs.microsoft.com/windows/security/threat-protection/windows-defender-atp/overview-endpoint-detection-response" xlink:show="new" target="_blank" xlink:title="Endpoint Detection and Response">
			<g id="shape1168-299" transform="translate(1530.71,-283.465)">
				
				
				<rect x="0" y="1247.24" width="85.0394" height="70.8661" rx="8.50394" ry="8.50394" class="st34" />
				<text x="16.53" y="1271.88" class="st19">Endpoint <tspan x="9.18" dy="1.2em" class="st8">Detection &amp; </tspan><tspan x="13.84" dy="1.2em" class="st8">Response</tspan></text>			</g>
		</a>
		<a xlink:href="https://docs.microsoft.com/windows/security/threat-protection/microsoft-defender-atp/microsoft-defender-atp-ios" xlink:show="new" target="_blank" xlink:title="Microsoft Defender for Endpoint for iOS">
			<g id="shape1169-304" transform="translate(1431.5,-283.465)">
				
				
				<rect x="0" y="1247.24" width="85.0394" height="70.8661" rx="8.50394" ry="8.50394" class="st34" />
				<text x="6.85" y="1271.88" class="st19">Defender for <tspan x="16.53" dy="1.2em" class="st8">Endpoint </tspan><tspan x="28.19" dy="1.2em" class="st8">(iOS)</tspan></text>			</g>
		</a>
		<a xlink:href="https://docs.microsoft.com/windows/security/threat-protection/windows-defender-atp/microsoft-threat-experts" xlink:show="new" target="_blank" xlink:title="Microsoft Threat Experts">
			<g id="shape1170-309" transform="translate(1828.35,-283.465)">
				
				
				<rect x="0" y="1247.24" width="85.0394" height="70.8661" rx="8.50394" ry="8.50394" class="st34" />
				<text x="15.52" y="1271.88" class="st19">Microsoft <tspan x="24.18" dy="1.2em" class="st8">Threat </tspan><tspan x="20.51" dy="1.2em" class="st8">Experts</tspan></text>			</g>
		</a>
		<a xlink:href="https://docs.microsoft.com/windows/security/threat-protection/microsoft-defender-atp/evaluation-lab" xlink:show="new" target="_blank" xlink:title="Evaluation Lab">
			<g id="shape1171-314" transform="translate(1729.13,-283.465)">
				
				
				<rect x="0" y="1247.24" width="85.0394" height="70.8661" rx="8.50394" ry="8.50394" class="st34" />
				<text x="12.18" y="1279.08" class="st19">Evaluation <tspan x="31.85" dy="1.2em" class="st8">Lab</tspan></text>			</g>
		</a>
		<a xlink:href="https://www.microsoft.com/security/blog/2019/01/17/windows-defender-atp-integrates-with-microsoft-information-protection-to-discover-protect-and-monitor-sensitive-data-on-windows-devices/" xlink:show="new" target="_blank" xlink:title="MIP Integration">
			<g id="shape1172-318" transform="translate(1431.5,-198.425)">
				
				
				<rect x="0" y="1247.24" width="85.0394" height="70.8661" rx="8.50394" ry="8.50394" class="st34" />
				<text x="31.85" y="1279.08" class="st19">MIP <tspan x="11.52" dy="1.2em" class="st8">Integration</tspan></text>			</g>
		</a>
		<a xlink:href="https://docs.microsoft.com/windows/security/threat-protection/microsoft-defender-atp/next-gen-threat-and-vuln-mgt" xlink:show="new" target="_blank" xlink:title="Threat and Vulnerability Management">
			<g id="shape1173-322" transform="translate(1729.13,-198.425)">
				
				
				<rect x="0" y="1247.24" width="85.0394" height="70.8661" rx="8.50394" ry="8.50394" class="st34" />
				<text x="18.18" y="1271.88" class="st19">Threat &amp; <tspan x="6.51" dy="1.2em" class="st8">Vulnerability </tspan><tspan x="5.85" dy="1.2em" class="st8">Management</tspan></text>			</g>
		</a>
		<a xlink:href="https://docs.microsoft.com/windows/security/threat-protection/microsoft-defender-atp/web-content-filtering" xlink:show="new" target="_blank" xlink:title="Web Content Filtering">
			<g id="shape1174-327" transform="translate(1828.35,-198.425)">
				
				
				<rect x="0" y="1247.24" width="85.0394" height="70.8661" rx="8.50394" ry="8.50394" class="st34" />
				<text x="5.53" y="1279.08" class="st19">Web Content <tspan x="18.85" dy="1.2em" class="st8">Filtering</tspan></text>			</g>
		</a>
		<a xlink:href="https://docs.microsoft.com/windows/security/threat-protection/windows-defender-atp/threat-analytics" xlink:show="new" target="_blank" xlink:title="Threat Analytics">
			<g id="shape1175-331" transform="translate(1629.92,-198.425)">
				
				
				<rect x="0" y="1247.24" width="85.0394" height="70.8661" rx="8.50394" ry="8.50394" class="st34" />
				<text x="24.18" y="1279.08" class="st19">Threat <tspan x="15.84" dy="1.2em" class="st8">Analytics</tspan></text>			</g>
		</a>
		<a xlink:href="https://docs.microsoft.com/windows/security/threat-protection/microsoft-defender-antivirus/prevent-changes-to-security-settings-with-tamper-protection" xlink:show="new" target="_blank" xlink:title="Tamper Protection">
			<g id="shape1176-335" transform="translate(1530.71,-198.425)">
				
				
				<rect x="0" y="1247.24" width="85.0394" height="70.8661" rx="8.50394" ry="8.50394" class="st34" />
				<text x="20.85" y="1279.08" class="st19">Tamper <tspan x="12.85" dy="1.2em" class="st8">Protection</tspan></text>			</g>
		</a>
		<a xlink:href="https://docs.microsoft.com/windows/security/threat-protection/microsoft-defender-antivirus/configure-block-at-first-sight-microsoft-defender-antivirus" xlink:show="new" target="_blank" xlink:title="Block at First Sight">
			<g id="shape1177-339" transform="translate(1629.92,-368.504)">
				
				
				<rect x="0" y="1247.24" width="85.0394" height="70.8661" rx="8.50394" ry="8.50394" class="st34" />
				<text x="4.51" y="1279.08" class="st19">Block at First <tspan x="27.52" dy="1.2em" class="st8">Sight</tspan></text>			</g>
		</a>
		<a xlink:href="https://docs.microsoft.com/windows/security/threat-protection/microsoft-defender-atp/overview-attack-surface-reduction" xlink:show="new" target="_blank" xlink:title="Enhanced ASR">
			<g id="shape1178-343" transform="translate(1629.92,-283.465)">
				
				
				<rect x="0" y="1247.24" width="85.0394" height="70.8661" rx="8.50394" ry="8.50394" class="st34" />
				<text x="13.85" y="1279.08" class="st19">Enhanced <tspan x="29.85" dy="1.2em" class="st8">ASR</tspan></text>			</g>
		</a>
		<a xlink:href="https://docs.microsoft.com/microsoft-365/compliance/apply-sensitivity-label-automatically" xlink:show="new" target="_blank" xlink:title="Rules-Based Classification for Office 365">
			<g id="shape1179-347" transform="translate(396.85,-524.409)">
				
				
				<rect x="0" y="1247.24" width="85.0394" height="70.8661" rx="8.50394" ry="8.50394" class="st21" />
				<text x="9.2" y="1272.78" class="st22">Rules-Based <tspan x="6.76" dy="1.2em" class="st8">Classification</tspan><tspan x="12.57" dy="1.2em" class="st8">(Office 365)</tspan></text>			</g>
		</a>
		<a xlink:href="https://docs.microsoft.com/azure/information-protection/deploy-aip-scanner" xlink:show="new" target="_blank" xlink:title="Rules-Based Classification for AIP Client and Scanner">
			<g id="shape1180-352" transform="translate(949.606,-609.449)">
				
				
				<rect x="0" y="1247.24" width="85.0394" height="70.8661" rx="8.50394" ry="8.50394" class="st24" />
				<text x="9.2" y="1266.18" class="st22">Rules-Based <tspan x="6.76" dy="1.2em" class="st8">Classification </tspan><tspan x="9.21" dy="1.2em" class="st8">(AIP Client &amp; </tspan><tspan x="18.98" dy="1.2em" class="st8">Scanner)</tspan></text>			</g>
		</a>
	</g>
</svg>