<svg xmlns="http://www.w3.org/2000/svg" width="416" height="304" viewBox="0 0 416 304" class="a"><style>
.b {fill:#a5a5a5;fill-opacity:0.2;stroke:#a41500;stroke-linecap:round;stroke-linejoin:round;stroke-width:2.25}
.c {fill:#a41500;stroke:#a41500;stroke-linecap:round;stroke-linejoin:round;stroke-width:2.25}
.d {fill:#ffffff;font-family:Arial;font-size:1.66667em;font-weight:bold}
.e {fill:#a41500;stroke:none;stroke-linecap:round;stroke-linejoin:round;stroke-width:1}
.f {fill:#ffffff;font-family:Arial;font-size:1.16666em;font-weight:bold}
.g {font-size:1em}
.a {fill:none;fill-rule:evenodd;font-size:12px;overflow:visible;stroke-linecap:square;stroke-miterlimit:3}
</style><g><g transform="translate(16,-16)"><rect x="0" y="32" width="384" height="272" rx="8" ry="8" class="b"/></g><a target="_blank" href="https://www.microsoft.com/microsoft-365/business/microsoft-365-apps-for-business" rel="noopener"><g transform="translate(16,-256)"><rect x="0" y="272" width="384" height="32" rx="8" ry="8" class="c"/><text x="36.41" y="294" class="d">Microsoft 365 Apps for Business</text></g></a><a target="_blank" href="https://products.office.com/mobile/office" rel="noopener"><g transform="translate(48,-48)"><rect x="0" y="224" width="96" height="80" rx="8" ry="8" class="e"/><text x="28.16" y="259.8" class="f">Office <tspan x="6.39" dy="1.2em" class="g">Mobile Apps</tspan></text></g></a><a target="_blank" href="https://docs.microsoft.com/office365/servicedescriptions/office-online-service-description/office-online-service-description" rel="noopener"><g transform="translate(272,-144)"><rect x="0" y="224" width="96" height="80" rx="8" ry="8" class="e"/><text x="28.16" y="251.4" class="f">Office<tspan x="9.5" dy="1.2em" class="g">for the Web</tspan><tspan x="12.61" dy="1.2em" class="g">(incl Visio)</tspan></text></g></a><a target="_blank" href="https://www.microsoft.com/microsoft-365/business/microsoft-365-apps-for-business" rel="noopener"><g transform="translate(160,-144)"><rect x="0" y="224" width="96" height="80" rx="8" ry="8" class="e"/><text x="28.16" y="251.4" class="f">Office <tspan x="6" dy="1.2em" class="g">Applications </tspan><tspan x="11.05" dy="1.2em" class="g">(PC &amp; Mac)</tspan></text></g></a><a target="_blank" href="https://support.office.com/sway" rel="noopener"><g transform="translate(272,-48)"><rect x="0" y="224" width="96" height="80" rx="8" ry="8" class="e"/><text x="30.1" y="268.2" class="f">Sway</text></g></a><a target="_blank" href="https://support.office.com/forms" rel="noopener"><g transform="translate(48,-144)"><rect x="0" y="224" width="96" height="80" rx="8" ry="8" class="e"/><text x="16.5" y="259.8" class="f">Microsoft <tspan x="26.61" dy="1.2em" class="g">Forms</tspan></text></g></a><a target="_blank" href="https://docs.microsoft.com/office365/servicedescriptions/onedrive-for-business-service-description" rel="noopener"><g transform="translate(160,-48)"><rect x="0" y="224" width="96" height="80" rx="8" ry="8" class="e"/><text x="5.6" y="251.4" class="f">OneDrive for <tspan x="16.88" dy="1.2em" class="g">Business </tspan><tspan x="27.38" dy="1.2em" class="g">Plan 1</tspan></text></g></a></g></svg>