<svg xmlns="http://www.w3.org/2000/svg" width="2000px" height="1136px" viewBox="0 0 2000 1136" class="a"><style>
.b {fill:#a5a5a5;fill-opacity:0.2;stroke:#9050d0;stroke-linecap:round;stroke-linejoin:round;stroke-width:2.25}
.c {fill:#a5a5a5;fill-opacity:0.2;stroke:#c42500;stroke-dasharray:33.75,20.25;stroke-linecap:round;stroke-linejoin:round;stroke-width:2.25}
.d {fill:#a5a5a5;fill-opacity:0.2;stroke:#006600;stroke-dasharray:33.75,20.25;stroke-linecap:round;stroke-linejoin:round;stroke-width:2.25}
.e {fill:#a5a5a5;fill-opacity:0.2;stroke:#2080a0;stroke-dasharray:33.75,20.25;stroke-linecap:round;stroke-linejoin:round;stroke-width:2.25}
.f {fill:#a5a5a5;fill-opacity:0.2;stroke:#0070f7;stroke-dasharray:2.25,4.5;stroke-linecap:round;stroke-linejoin:round;stroke-width:2.25}
.g {fill:#9050d0;stroke:#9050d0;stroke-linecap:round;stroke-linejoin:round;stroke-width:2.25}
.h {fill:#ffffff;font-family:Arial;font-size:1.66667em;font-weight:bold}
.i {fill:#c42500;stroke:#c42500;stroke-linecap:round;stroke-linejoin:round;stroke-width:2.25}
.j {fill:#006600;stroke:#006600;stroke-linecap:round;stroke-linejoin:round;stroke-width:2.25}
.k {fill:#2080a0;stroke:#2080a0;stroke-linecap:round;stroke-linejoin:round;stroke-width:2.25}
.l {font-size:1em}
.m {fill:none;stroke:none;stroke-linecap:round;stroke-linejoin:round;stroke-width:0.75}
.n {fill:#000000;font-family:Arial;font-size:1.5em;font-style:italic;font-weight:bold}
.o {font-size:1em;font-style:normal;font-weight:normal}
.p {font-size:1em;font-weight:normal}
.q {fill:none;stroke:none;stroke-linecap:round;stroke-linejoin:round;stroke-width:1}
.r {fill:#000000;font-family:Arial;font-size:1.99999em}
.s {font-family:Symbol;font-size:0.750003em}
.t {font-size:0.750003em}
.u {fill:#000000;font-family:Arial;font-size:1.16666em;font-weight:bold}
.v {fill:#0070f7;stroke:none;stroke-linecap:round;stroke-linejoin:round;stroke-width:1}
.w {fill:#ffffff;font-family:Arial;font-size:1.16666em;font-weight:bold}
.x {baseline-shift:32.4943%;font-size:0.649886em}
.y {fill:#2080a0;stroke:none;stroke-linecap:round;stroke-linejoin:round;stroke-width:1}
.z {fill:#c42500;stroke:none;stroke-linecap:round;stroke-linejoin:round;stroke-width:1}
.ba {font-size:0.928588em}
.bb {font-size:0.857157em}
.bc {fill:#ffffff;font-family:Arial;font-size:1.08334em;font-weight:bold}
.bd {fill:#0070f7;font-family:Arial;font-size:4.00001em;font-weight:bold}
.be {fill:#0070f7;font-family:Arial;font-size:2.50001em;font-weight:bold}
.bf {fill:#0070f7;font-family:Arial;font-size:1.5em;font-weight:bold}
.bg {fill:#006600;stroke:none;stroke-linecap:round;stroke-linejoin:round;stroke-width:1}
.bh {fill:#606060;stroke:none;stroke-linecap:round;stroke-linejoin:round;stroke-width:1}
.a {fill:none;fill-rule:evenodd;font-size:12px;overflow:visible;stroke-linecap:square;stroke-miterlimit:3}
</style><g><g transform="translate(848,1024) rotate(-90)"><rect x="0" y="-832" width="752" height="1968" rx="8" ry="8" class="b"/></g><g transform="translate(112,-16)"><rect x="0" y="192" width="608" height="944" rx="8" ry="8" class="c"/></g><g transform="translate(1280,-16)"><rect x="0" y="192" width="608" height="944" rx="8" ry="8" class="d"/></g><g transform="translate(752,-16)"><rect x="0" y="192" width="496" height="944" rx="8" ry="8" class="e"/></g><g transform="translate(768,-208)"><rect x="0" y="704" width="464" height="432" rx="8" ry="8" class="f"/></g><a target="_blank" aria-label="Microsoft 365 Plans" href="https://www.microsoft.com/microsoft-365/compare-all-microsoft-365-plans" rel="noopener"><g transform="translate(-1056,1024) rotate(-90)"><rect x="0" y="1072" width="752" height="64" rx="8" ry="8" class="g"/><text x="297.09" y="1110" class="h">Microsoft 365 F3</text></g></a><a target="_blank" aria-label="Microsoft 365 Plans" href="https://www.microsoft.com/microsoft-365/compare-all-microsoft-365-plans" rel="noopener"><g transform="translate(848,1024) rotate(-90)"><rect x="0" y="1072" width="752" height="64" rx="8" ry="8" class="g"/><text x="297.09" y="1110" class="h">Microsoft 365 F3</text></g></a><a target="_blank" aria-label="Office 365 Enterprise" href="https://docs.microsoft.com/office365/enterprise/" rel="noopener"><g transform="translate(112,-896)"><rect x="0" y="1072" width="608" height="64" rx="8" ry="8" class="i"/><text x="241.75" y="1110" class="h">Office 365 F3</text></g></a><a target="_blank" aria-label="Windows 10" href="https://www.microsoft.com/windowsforbusiness" rel="noopener"><g transform="translate(1280,-896)"><rect x="0" y="1072" width="608" height="64" rx="8" ry="8" class="j"/><text x="133.41" y="1110" class="h">Windows 10 E3 for Microsoft 365 F3</text></g></a><a target="_blank" aria-label="Office 365 Enterprise" href="https://docs.microsoft.com/office365/enterprise/" rel="noopener"><g transform="translate(112,-16)"><rect x="0" y="1072" width="608" height="64" rx="8" ry="8" class="i"/><text x="241.75" y="1110" class="h">Office 365 F3</text></g></a><a target="_blank" aria-label="Windows 10" href="https://www.microsoft.com/windowsforbusiness" rel="noopener"><g transform="translate(1280,-16)"><rect x="0" y="1072" width="608" height="64" rx="8" ry="8" class="j"/><text x="133.41" y="1110" class="h">Windows 10 E3 for Microsoft 365 F3</text></g></a><a target="_blank" aria-label="Enterprise Mobility + Security" href="https://www.microsoft.com/cloud-platform/enterprise-mobility-security" rel="noopener"><g transform="translate(752,-896)"><rect x="0" y="1072" width="496" height="64" rx="8" ry="8" class="k"/><text x="92.12" y="1098" class="h">Enterprise Mobility + Security E3<tspan x="204.66" dy="1.2em" class="l">(EMS E3)</tspan></text></g></a><a target="_blank" aria-label="Enterprise Mobility + Security" href="https://www.microsoft.com/cloud-platform/enterprise-mobility-security" rel="noopener"><g transform="translate(752,-16)"><rect x="0" y="1072" width="496" height="64" rx="8" ry="8" class="k"/><text x="92.12" y="1098" class="h">Enterprise Mobility + Security E3<tspan x="204.66" dy="1.2em" class="l">(EMS E3)</tspan></text></g></a><g transform="translate(1280,-112)"><rect x="0" y="1072" width="608" height="64" class="m"/><text x="14.89" y="1098.61" class="n">Microsoft 365 F3 <tspan class="o">includes </tspan>Windows 10 E3<tspan class="p"></tspan><tspan class="o">except Long Term Servicing </tspan><tspan x="33.91" dy="1.201em" class="o">Channel (LTSC) and Microsoft Desktop Optimization Pack (MDOP).</tspan></text></g><g transform="translate(144,-144)"><rect x="0" y="848" width="544" height="288" rx="8" ry="8" class="q"/><text x="4" y="873.6" class="r">Limitations: <tspan x="18.17" dy="1.312em" class="s">·</tspan><tspan class="s"></tspan><tspan class="t">Users cannot be administrators. </tspan><tspan x="18.17" dy="1.216em" class="s">·</tspan><tspan class="s"></tspan><tspan class="t">No Skype desktop or app sharing. </tspan><tspan x="18.17" dy="1.216em" class="s">·</tspan><tspan class="s"></tspan><tspan class="t">Cannot schedule Skype meetings. </tspan><tspan x="18.17" dy="1.216em" class="s">·</tspan><tspan class="s"></tspan><tspan class="t">No access to productivity servers. </tspan><tspan x="18.17" dy="1.216em" class="s">·</tspan><tspan class="s"></tspan><tspan class="t">No Outlook Desktop access. </tspan><tspan x="18.17" dy="1.216em" class="s">·</tspan><tspan class="s"></tspan><tspan class="t">No Voicemail. </tspan><tspan x="18.17" dy="1.216em" class="s">·</tspan><tspan class="s"></tspan><tspan class="t">No OneDrive for Business sync.</tspan></text></g><a target="_blank" aria-label="Azure Active Directory Premium Plan 1" href="https://docs.microsoft.com/azure/active-directory/" rel="noopener"><g transform="translate(768,-208)"><rect x="0" y="1088" width="464" height="48" rx="8" ry="8" class="q"/><text x="146.03" y="1116.2" class="u">Azure AD Premium Plan 1</text></g></a><a target="_blank" aria-label="Azure AD Reports" href="https://docs.microsoft.com/azure/active-directory/reports-monitoring/" rel="noopener"><g transform="translate(784,-544)"><rect x="0" y="1056" width="96" height="80" rx="8" ry="8" class="v"/><text x="14.55" y="1075" class="w">Advanced <tspan x="20.38" dy="1.2em" class="l">Security </tspan><tspan x="14.55" dy="1.2em" class="l">Reports &amp; </tspan><tspan x="28.16" dy="1.2em" class="l">Alerts</tspan></text></g></a><a target="_blank" aria-label="Azure AD SSO" href="https://docs.microsoft.com/azure/active-directory/hybrid/how-to-connect-sso" rel="noopener"><g transform="translate(896,-256)"><rect x="0" y="1056" width="96" height="80" rx="8" ry="8" class="v"/><text x="7.17" y="1083.4" class="w">Single-Sign-<tspan x="10.28" dy="1.2em" class="l">On to other </tspan><tspan x="30.88" dy="1.2em" class="l">SaaS</tspan></text></g></a><a target="_blank" aria-label="Application Proxy" href="https://docs.microsoft.com/azure/active-directory/manage-apps/application-proxy" rel="noopener"><g transform="translate(896,-544)"><rect x="0" y="1056" width="96" height="80" rx="8" ry="8" class="v"/><text x="11.05" y="1083.4" class="w">App Proxy, <tspan x="16.89" dy="1.2em" class="l">including </tspan><tspan x="8.31" dy="1.2em" class="l">PingAccess</tspan></text></g></a><a target="_blank" aria-label="Azure Multi-Factor Authentication" href="https://docs.microsoft.com/azure/active-directory/authentication/concept-mfa-howitworks" rel="noopener"><g transform="translate(896,-352)"><rect x="0" y="1056" width="96" height="80" rx="8" ry="8" class="v"/><text x="7.95" y="1091.8" class="w">Multi-Factor <tspan x="10.29" dy="1.2em" class="l">Auth (MFA)</tspan></text></g></a><a target="_blank" aria-label="Azure AD Connect Health" href="https://docs.microsoft.com/azure/active-directory/hybrid/whatis-azure-ad-connect#what-is-azure-ad-connect-health" rel="noopener"><g transform="translate(1008,-544)"><rect x="0" y="1056" width="96" height="80" rx="8" ry="8" class="v"/><text x="16.5" y="1083.4" class="w">Azure AD <tspan x="20" dy="1.2em" class="l">Connect </tspan><tspan x="26.61" dy="1.2em" class="l">Health</tspan></text></g></a><a target="_blank" aria-label="Cloud App Discovery" href="https://docs.microsoft.com/cloud-app-security/set-up-cloud-discovery" rel="noopener"><g transform="translate(896,-448)"><rect x="0" y="1056" width="96" height="80" rx="8" ry="8" class="v"/><text x="12.62" y="1091.8" class="w">Cloud App <tspan x="14.54" dy="1.2em" class="l">Discovery</tspan></text></g></a><a target="_blank" aria-label="Shared Accounts in Azure AD" href="https://docs.microsoft.com/azure/active-directory/users-groups-roles/users-sharing-accounts" rel="noopener"><g transform="translate(784,-256)"><rect x="0" y="1056" width="96" height="80" rx="8" ry="8" class="v"/><text x="24.27" y="1075" class="w">Shared <tspan x="20" dy="1.2em" class="l">Account </tspan><tspan x="14.93" dy="1.2em" class="l">Password </tspan><tspan x="16.49" dy="1.2em" class="l">Roll</tspan>-Over</text></g></a><a target="_blank" aria-label="SSPR" href="https://docs.microsoft.com/azure/active-directory/authentication/concept-sspr-howitworks" rel="noopener"><g transform="translate(1008,-352)"><rect x="0" y="1056" width="96" height="80" rx="8" ry="8" class="v"/><text x="7.92" y="1083.4" class="w">Self-Service <tspan x="14.93" dy="1.2em" class="l">Password </tspan><tspan x="8.71" dy="1.2em" class="l">Reset in AD</tspan></text></g></a><a target="_blank" aria-label="Self-Service Group Management" href="https://docs.microsoft.com/azure/active-directory/users-groups-roles/groups-self-service-management" rel="noopener"><g transform="translate(1120,-352)"><rect x="0" y="1056" width="96" height="80" rx="8" ry="8" class="v"/><text x="7.92" y="1083.4" class="w">Self-Service <tspan x="27" dy="1.2em" class="l">Group </tspan><tspan x="5.21" dy="1.2em" class="l">Management</tspan></text></g></a><a target="_blank" aria-label="Conditional Access" href="https://docs.microsoft.com/azure/active-directory/conditional-access/overview" rel="noopener"><g transform="translate(1008,-448)"><rect x="0" y="1056" width="96" height="80" rx="8" ry="8" class="v"/><text x="9.51" y="1091.8" class="w">Conditional <tspan x="23.48" dy="1.2em" class="l">Access</tspan></text></g></a><a target="_blank" aria-label="Azure AD External Identities" href="https://docs.microsoft.com/azure/active-directory/external-identities/" rel="noopener"><g transform="translate(1120,-544)"><rect x="0" y="1056" width="96" height="80" rx="8" ry="8" class="v"/><text x="16.5" y="1083.4" class="w">Azure AD <tspan x="20.38" dy="1.2em" class="l">External </tspan><tspan x="17.27" dy="1.2em" class="l">Identities</tspan></text></g></a><a target="_blank" aria-label="Enterprise State Roaming" href="https://docs.microsoft.com/azure/active-directory/devices/enterprise-state-roaming-overview" rel="noopener"><g transform="translate(1120,-448)"><rect x="0" y="1056" width="96" height="80" rx="8" ry="8" class="v"/><text x="13.38" y="1083.4" class="w">Enterprise <tspan x="30.88" dy="1.2em" class="l">State </tspan><tspan x="18.06" dy="1.2em" class="l">Roaming</tspan></text></g></a><a target="_blank" aria-label="Terms of Use" href="https://docs.microsoft.com/azure/active-directory/governance/active-directory-tou" rel="noopener"><g transform="translate(1008,-256)"><rect x="0" y="1056" width="96" height="80" rx="8" ry="8" class="v"/><text x="18.44" y="1091.8" class="w">Terms of <tspan x="35.16" dy="1.2em" class="l">Use</tspan></text></g></a><a target="_blank" aria-label="Azure AD Password Protection" href="https://docs.microsoft.com/azure/active-directory/authentication/concept-password-ban-bad" rel="noopener"><g transform="translate(784,-448)"><rect x="0" y="1056" width="96" height="80" rx="8" ry="8" class="v"/><text x="16.5" y="1083.4" class="w">Azure AD <tspan x="14.93" dy="1.2em" class="l">Password </tspan><tspan x="13.39" dy="1.2em" class="l">Protection</tspan></text></g></a><a target="_blank" aria-label="Microsoft Identity Manager" href="https://docs.microsoft.com/microsoft-identity-manager/" rel="noopener"><g transform="translate(784,-352)"><rect x="0" y="1056" width="96" height="80" rx="8" ry="8" class="v"/><text x="16.5" y="1083.4" class="w">Microsoft <tspan x="23.11" dy="1.2em" class="l">Identity </tspan><tspan x="19.21" dy="1.2em" class="l">Manager</tspan></text></g></a><a target="_blank" aria-label="3rd Party MFA Integration" href="https://docs.microsoft.com/azure/active-directory/conditional-access/controls#custom-controls-preview" rel="noopener"><g transform="translate(1120,-256)"><rect x="0" y="1056" width="96" height="80" rx="8" ry="8" class="v"/><text x="20.78" y="1083.4" class="w">3<tspan dy="-0.235em" class="x">rd </tspan><tspan dy="0.153em" class="l">Party  </tspan><tspan x="32.84" dy="1.2em" class="l">MFA </tspan><tspan x="11.83" dy="1.2em" class="l">Integration</tspan></text></g></a><a target="_blank" aria-label="Intune Device Management &amp; Application Management" href="https://docs.microsoft.com/mem/intune/fundamentals/what-is-intune" rel="noopener"><g transform="translate(784,-656)"><rect x="0" y="1056" width="96" height="80" rx="8" ry="8" class="y"/><text x="8.34" y="1091.8" class="w">Intune MDM <tspan x="24.28" dy="1.2em" class="l">&amp; MAM</tspan></text></g></a><a target="_blank" aria-label="CALs" href="https://www.microsoft.com/en-us/licensing/product-licensing/client-access-license" rel="noopener"><g transform="translate(1120,-656)"><rect x="0" y="1056" width="96" height="80" rx="8" ry="8" class="y"/><text x="17.28" y="1083.4" class="w">Windows <tspan x="9.87" dy="1.2em" class="l">Server CAL </tspan><tspan x="26.22" dy="1.2em" class="l">Rights</tspan></text></g></a><a target="_blank" aria-label="Microsoft Endpoint Configuration Manager" href="https://docs.microsoft.com/configmgr/core/understand/introduction" rel="noopener"><g transform="translate(896,-656)"><rect x="0" y="1056" width="96" height="80" rx="8" ry="8" class="y"/><text x="16.5" y="1075" class="w">Microsoft <tspan x="17.68" dy="1.2em" class="l">Endpoint </tspan><tspan x="25.84" dy="1.2em" class="l">Config </tspan><tspan x="19.21" dy="1.2em" class="l">Manager</tspan></text></g></a><a target="_blank" aria-label="SCEP" href="https://docs.microsoft.com/sccm/protect/deploy-use/endpoint-protection" rel="noopener"><g transform="translate(1008,-656)"><rect x="0" y="1056" width="96" height="80" rx="8" ry="8" class="y"/><text x="23.1" y="1075" class="w">System <tspan x="25.83" dy="1.2em" class="l">Center </tspan><tspan x="17.68" dy="1.2em" class="l">Endpoint </tspan><tspan x="13.39" dy="1.2em" class="l">Protection</tspan></text></g></a><a target="_blank" aria-label="Azure RMS" href="https://docs.microsoft.com/azure/information-protection/what-is-azure-rms" rel="noopener"><g transform="translate(784,-752)"><rect x="0" y="1056" width="96" height="80" rx="8" ry="8" class="y"/><text x="26.99" y="1075" class="w">Active <tspan x="10.27" dy="1.2em" class="l">Directory &amp; </tspan><tspan x="16.5" dy="1.2em" class="l">Azure AD </tspan><tspan x="32.45" dy="1.2em" class="l">RMS</tspan></text></g></a><a target="_blank" aria-label="Endpoint Analytics" href="https://docs.microsoft.com/mem/analytics/overview" rel="noopener"><g transform="translate(1008,-752)"><rect x="0" y="1056" width="96" height="80" rx="8" ry="8" class="y"/><text x="17.68" y="1091.8" class="w">Endpoint <tspan x="16.88" dy="1.2em" class="l">Analytics</tspan></text></g></a><a target="_blank" aria-label="Exchange Online Protection" href="https://www.microsoft.com/microsoft-365/exchange/exchange-email-security-spam-protection" rel="noopener"><g transform="translate(368,-752)"><rect x="0" y="1056" width="96" height="80" rx="8" ry="8" class="z"/><text x="14.93" y="1083.4" class="w">Exchange <tspan x="26.22" dy="1.2em" class="l">Online </tspan><tspan x="13.39" dy="1.2em" class="l">Protection</tspan></text></g></a><a target="_blank" aria-label="Microsoft Teams" href="https://products.office.com/microsoft-teams/" rel="noopener"><g transform="translate(256,-656)"><rect x="0" y="1056" width="96" height="80" rx="8" ry="8" class="z"/><text x="16.5" y="1091.8" class="w">Microsoft <tspan x="25.82" dy="1.2em" class="l">Teams</tspan></text></g></a><a target="_blank" aria-label="Exchange Online" href="https://docs.microsoft.com/office365/servicedescriptions/exchange-online-service-description/exchange-online-service-description#feature-availability-across-exchange-online-standalone-plans" rel="noopener"><g transform="translate(256,-752)"><rect x="0" y="1056" width="96" height="80" rx="8" ry="8" class="z"/><text x="14.93" y="1083.4" class="w">Exchange <tspan x="5.21" dy="1.2em" class="l">Online Kiosk</tspan><tspan x="28.5" dy="1.292em" class="ba">(2 GB)</tspan></text></g></a><a target="_blank" aria-label="OneDrive for Business" href="https://docs.microsoft.com/office365/servicedescriptions/onedrive-for-business-service-description" rel="noopener"><g transform="translate(144,-560)"><rect x="0" y="1056" width="96" height="80" rx="8" ry="8" class="z"/><text x="5.6" y="1083.4" class="w">OneDrive for <tspan x="16.88" dy="1.2em" class="l">Business </tspan><tspan x="28.5" dy="1.292em" class="ba">(2 GB)</tspan></text></g></a><a target="_blank" aria-label="Power Automate" href="https://powerautomate.microsoft.com/" rel="noopener"><g transform="translate(480,-560)"><rect x="0" y="1056" width="96" height="80" rx="8" ry="8" class="z"/><text x="26.99" y="1083.4" class="w">Power <tspan x="15.72" dy="1.2em" class="l">Automate </tspan><tspan x="4.65" dy="1.4em" class="bb">(2000 step/day)</tspan></text></g></a><a target="_blank" aria-label="Alert Policies" href="https://docs.microsoft.com/microsoft-365/compliance/alert-policies" rel="noopener"><g transform="translate(144,-752)"><rect x="0" y="1056" width="96" height="80" rx="8" ry="8" class="z"/><text x="32.05" y="1091.8" class="w">Alert <tspan x="21.54" dy="1.2em" class="l">Policies</tspan></text></g></a><a target="_blank" aria-label="Kaizala Pro" href="https://products.office.com/en/business/microsoft-kaizala" rel="noopener"><g transform="translate(480,-752)"><rect x="0" y="1056" width="96" height="80" rx="8" ry="8" class="z"/><text x="10.26" y="1091.8" class="w">Kaizala Pro<tspan x="21.28" dy="1.292em" class="ba">(retiring)</tspan></text></g></a><a target="_blank" aria-label="Power Apps" href="https://powerapps.microsoft.com/" rel="noopener"><g transform="translate(368,-560)"><rect x="0" y="1056" width="96" height="80" rx="8" ry="8" class="z"/><text x="7.55" y="1083.4" class="w">Power Apps<tspan x="38.67" dy="1.2em" class="l">for</tspan><tspan x="14.54" dy="1.2em" class="l">Office 365</tspan></text></g></a><a target="_blank" aria-label="Forms" href="https://support.office.com/forms" rel="noopener"><g transform="translate(144,-656)"><rect x="0" y="1056" width="96" height="80" rx="8" ry="8" class="z"/><text x="16.5" y="1091.8" class="w">Microsoft <tspan x="26.61" dy="1.2em" class="l">Forms</tspan></text></g></a><a target="_blank" aria-label="Yammer" href="https://products.office.com/yammer/yammer-overview" rel="noopener"><g transform="translate(592,-464)"><rect x="0" y="1056" width="96" height="80" rx="8" ry="8" class="z"/><text x="20.37" y="1091.8" class="w">Yammer <tspan x="13.38" dy="1.2em" class="l">Enterprise</tspan></text></g></a><a target="_blank" aria-label="SharePoint Online" href="https://docs.microsoft.com/sharepoint/introduction" rel="noopener"><g transform="translate(144,-464)"><rect x="0" y="1056" width="96" height="80" rx="8" ry="8" class="z"/><text x="11.05" y="1091.8" class="w">SharePoint <tspan x="5.21" dy="1.2em" class="l">Online Kiosk</tspan></text></g></a><a target="_blank" aria-label="Stream" href="https://docs.microsoft.com/stream/" rel="noopener"><g transform="translate(368,-464)"><rect x="0" y="1056" width="96" height="80" rx="8" ry="8" class="z"/><text x="24.27" y="1091.8" class="w">Stream <tspan x="14.06" dy="1.292em" class="ba">(Consume)</tspan></text></g></a><a target="_blank" aria-label="Planner" href="https://products.office.com/business/task-management-software" rel="noopener"><g transform="translate(256,-560)"><rect x="0" y="1056" width="96" height="80" rx="8" ry="8" class="z"/><text x="22.32" y="1100.2" class="w">Planner</text></g></a><a target="_blank" aria-label="Skype for Business Online" href="https://docs.microsoft.com/office365/servicedescriptions/skype-for-business-online-service-description/skype-for-business-online-service-description" rel="noopener"><g transform="translate(256,-464)"><rect x="0" y="1056" width="96" height="80" rx="8" ry="8" class="z"/><text x="16.1" y="1075" class="w">Skype for <tspan x="16.88" dy="1.2em" class="l">Business</tspan><tspan x="27.38" dy="1.2em" class="l">Plan 1 </tspan><tspan x="21.28" dy="1.292em" class="ba">(retiring)</tspan></text></g></a><a target="_blank" aria-label="Sway" href="https://support.office.com/sway" rel="noopener"><g transform="translate(480,-464)"><rect x="0" y="1056" width="96" height="80" rx="8" ry="8" class="z"/><text x="30.1" y="1100.2" class="w">Sway</text></g></a><a target="_blank" aria-label="Advanced Threat Analytics" href="https://docs.microsoft.com/advanced-threat-analytics/" rel="noopener"><g transform="translate(896,-752)"><rect x="0" y="1056" width="96" height="80" rx="8" ry="8" class="y"/><text x="14.55" y="1075" class="w">Advanced <tspan x="26.61" dy="1.2em" class="l">Threat </tspan><tspan x="16.88" dy="1.2em" class="l">Analytics </tspan><tspan x="21.28" dy="1.292em" class="ba">(retiring)</tspan></text></g></a><a target="_blank" aria-label="Microsoft Dataverse for Teams" href="https://docs.microsoft.com/powerapps/teams/overview-data-platform" rel="noopener"><g transform="translate(592,-752)"><rect x="0" y="1056" width="96" height="80" rx="8" ry="8" class="z"/><text x="16.5" y="1083.4" class="w">Microsoft <tspan x="14.53" dy="1.2em" class="l">Dataverse </tspan><tspan x="14.55" dy="1.2em" class="l">for Teams</tspan></text></g></a><a target="_blank" aria-label="Office Mobile" href="https://products.office.com/mobile/office" rel="noopener"><g transform="translate(592,-656)"><rect x="0" y="1056" width="96" height="80" rx="8" ry="8" class="z"/><text x="4.44" y="1091.8" class="w">Office Web &amp; <tspan x="6.39" dy="1.2em" class="l">Mobile Apps</tspan></text></g></a><a target="_blank" aria-label="Microsoft To-Do" href="https://www.microsoft.com/microsoft-365/microsoft-to-do-list-app" rel="noopener"><g transform="translate(368,-656)"><rect x="0" y="1056" width="96" height="80" rx="8" ry="8" class="z"/><text x="16.5" y="1091.8" class="w">Microsoft <tspan x="27.79" dy="1.2em" class="l">To</tspan>-Do</text></g></a><a target="_blank" aria-label="Power Virtual Agents for Teams" href="https://docs.microsoft.com/power-virtual-agents/teams/fundamentals-what-is-power-virtual-agents-teams" rel="noopener"><g transform="translate(592,-560)"><rect x="0" y="1056" width="96" height="80" rx="8" ry="8" class="z"/><text x="6.46" y="1084.3" class="bc">Power Virtual <tspan x="15.5" dy="1.2em" class="l">Agents for </tspan><tspan x="27.4" dy="1.2em" class="l">Teams</tspan></text></g></a><a target="_blank" aria-label="Microsoft Whiteboard" href="https://support.microsoft.com/office/d236aef8-fcdf-4b5e-b5d7-7f157461e920" rel="noopener"><g transform="translate(480,-656)"><rect x="0" y="1056" width="96" height="80" rx="8" ry="8" class="z"/><text x="16.5" y="1091.8" class="w">Microsoft <tspan x="9.5" dy="1.2em" class="l">Whiteboard</tspan></text></g></a><a target="_blank" aria-label="m365maps.com" href="https://m365maps.com/" rel="noopener"><g transform="translate(16,-1056)"><rect x="0" y="1072" width="1968" height="64" class="m"/><text x="794.61" y="1118.4" class="bd">Microsoft 365 F3</text></g></a><g transform="translate(16,-1024)"><rect x="0" y="1104" width="1968" height="32" class="m"/><text x="917.28" y="1129" class="be">May 2021</text></g><a target="_blank" aria-label="m365maps.com" href="https://m365maps.com/" rel="noopener"><g transform="translate(16,-992)"><rect x="0" y="1104" width="1968" height="32" class="m"/><text x="916.46" y="1125.4" class="bf">m365maps.com</text></g></a><a target="_blank" aria-label="Attack Surface Reduction" href="https://docs.microsoft.com/windows/security/threat-protection/microsoft-defender-atp/attack-surface-reduction" rel="noopener"><g transform="translate(1424,-656)"><rect x="0" y="1056" width="96" height="80" rx="8" ry="8" class="bg"/><text x="26.6" y="1083.4" class="w">Attack <tspan x="22.32" dy="1.2em" class="l">Surface </tspan><tspan x="13.78" dy="1.2em" class="l">Reduction</tspan></text></g></a><a target="_blank" aria-label="Microsoft Store for Business" href="https://docs.microsoft.com/microsoft-store/microsoft-store-for-business-overview" rel="noopener"><g transform="translate(1312,-368)"><rect x="0" y="1056" width="96" height="80" rx="8" ry="8" class="bg"/><text x="16.5" y="1083.4" class="w">Microsoft <tspan x="18.83" dy="1.2em" class="l">Store for </tspan><tspan x="16.88" dy="1.2em" class="l">Business</tspan></text></g></a><a target="_blank" aria-label="On-Premises Conditional Access" href="https://docs.microsoft.com/windows-server/identity/ad-fs/operations/configure-device-based-conditional-access-on-premises" rel="noopener"><g transform="translate(1648,-272)"><rect x="0" y="1056" width="96" height="80" rx="8" ry="8" class="bg"/><text x="17.28" y="1083.4" class="w">Windows <tspan x="9.51" dy="1.2em" class="l">Conditional </tspan><tspan x="23.48" dy="1.2em" class="l">Access</tspan></text></g></a><a target="_blank" aria-label="Windows Information Protection" href="https://docs.microsoft.com/windows/security/information-protection/windows-information-protection/protect-enterprise-data-using-wip" rel="noopener"><g transform="translate(1424,-176)"><rect x="0" y="1056" width="96" height="80" rx="8" ry="8" class="bg"/><text x="17.28" y="1083.4" class="w">Windows <tspan x="9.5" dy="1.2em" class="l">Information </tspan><tspan x="13.39" dy="1.2em" class="l">Protection</tspan></text></g></a><a target="_blank" aria-label="Windows Update for Business" href="https://docs.microsoft.com/windows/deployment/update/waas-manage-updates-wufb" rel="noopener"><g transform="translate(1536,-176)"><rect x="0" y="1056" width="96" height="80" rx="8" ry="8" class="bg"/><text x="17.28" y="1083.4" class="w">Windows <tspan x="13" dy="1.2em" class="l">Update for </tspan><tspan x="16.88" dy="1.2em" class="l">Business</tspan></text></g></a><a target="_blank" aria-label="Windows Hello for Business" href="https://docs.microsoft.com/windows/security/identity-protection/hello-for-business/hello-identity-verification" rel="noopener"><g transform="translate(1312,-176)"><rect x="0" y="1056" width="96" height="80" rx="8" ry="8" class="bg"/><text x="17.28" y="1083.4" class="w">Windows <tspan x="19.61" dy="1.2em" class="l">Hello for </tspan><tspan x="16.88" dy="1.2em" class="l">Business</tspan></text></g></a><a target="_blank" aria-label="Edge for Business" href="https://www.microsoft.com/edge/business" rel="noopener"><g transform="translate(1312,-464)"><rect x="0" y="1056" width="96" height="80" rx="8" ry="8" class="bg"/><text x="19.61" y="1091.8" class="w">Edge for <tspan x="16.88" dy="1.2em" class="l">Business</tspan></text></g></a><a target="_blank" aria-label="Cortana" href="https://support.microsoft.com/help/17214/windows-10-what-is" rel="noopener"><g transform="translate(1312,-560)"><rect x="0" y="1056" width="96" height="80" rx="8" ry="8" class="bg"/><text x="21.55" y="1100.2" class="w">Cortana</text></g></a><a target="_blank" aria-label="Application Guard" href="https://docs.microsoft.com/windows/security/threat-protection/windows-defender-application-guard/wd-app-guard-overview" rel="noopener"><g transform="translate(1536,-752)"><rect x="0" y="1056" width="96" height="80" rx="8" ry="8" class="bg"/><text x="9.89" y="1091.8" class="w">Application <tspan x="27.39" dy="1.2em" class="l">Guard</tspan></text></g></a><a target="_blank" aria-label="Azure AD Join" href="https://docs.microsoft.com/azure/active-directory/devices/azuread-joined-devices-frx" rel="noopener"><g transform="translate(1536,-656)"><rect x="0" y="1056" width="96" height="80" rx="8" ry="8" class="bg"/><text x="16.5" y="1083.4" class="w">Azure AD<tspan x="15.33" dy="1.2em" class="l">&amp; Domain </tspan><tspan x="33.61" dy="1.2em" class="l">Join</tspan></text></g></a><a target="_blank" aria-label="Desktop Analytics" href="https://docs.microsoft.com/mem/configmgr/desktop-analytics/overview" rel="noopener"><g transform="translate(1536,-560)"><rect x="0" y="1056" width="96" height="80" rx="8" ry="8" class="bg"/><text x="20.38" y="1091.8" class="w">Desktop <tspan x="16.88" dy="1.2em" class="l">Analytics</tspan></text></g></a><a target="_blank" aria-label="Microsoft Defender Antivirus" href="https://www.microsoft.com/windows/comprehensive-security" rel="noopener"><g transform="translate(1760,-464)"><rect x="0" y="1056" width="96" height="80" rx="8" ry="8" class="bg"/><text x="16.5" y="1083.4" class="w">Microsoft <tspan x="17.66" dy="1.2em" class="l">Defender </tspan><tspan x="17.66" dy="1.2em" class="l">Antivirus</tspan></text></g></a><a target="_blank" aria-label="App-V" href="https://docs.microsoft.com/en-us/microsoft-desktop-optimization-pack/appv-v5/" rel="noopener"><g transform="translate(1312,-656)"><rect x="0" y="1056" width="96" height="80" rx="8" ry="8" class="bg"/><text x="27.39" y="1100.2" class="w">App-V</text></g></a><a target="_blank" aria-label="AppLocker" href="https://docs.microsoft.com/windows/security/threat-protection/windows-defender-application-control/applocker/applocker-overview" rel="noopener"><g transform="translate(1648,-752)"><rect x="0" y="1056" width="96" height="80" rx="8" ry="8" class="bg"/><text x="11.44" y="1100.2" class="w">AppLocker</text></g></a><a target="_blank" aria-label="Windows Virtual Desktop" href="https://www.microsoft.com/cloud-platform/desktop-virtualization" rel="noopener"><g transform="translate(1648,-176)"><rect x="0" y="1056" width="96" height="80" rx="8" ry="8" class="bg"/><text x="17.28" y="1083.4" class="w">Windows <tspan x="26.22" dy="1.2em" class="l">Virtual </tspan><tspan x="20.38" dy="1.2em" class="l">Desktop</tspan></text></g></a><a target="_blank" aria-label="DirectAccess" href="https://docs.microsoft.com/windows-server/remote/remote-access/directaccess/directaccess" rel="noopener"><g transform="translate(1760,-560)"><rect x="0" y="1056" width="96" height="80" rx="8" ry="8" class="bg"/><text x="6.81" y="1099.9" class="bc">DirectAccess</text></g></a><a target="_blank" aria-label="Device Guard" href="https://docs.microsoft.com/windows/security/threat-protection/device-guard/introduction-to-device-guard-virtualization-based-security-and-windows-defender-application-control" rel="noopener"><g transform="translate(1648,-560)"><rect x="0" y="1056" width="96" height="80" rx="8" ry="8" class="bg"/><text x="25.43" y="1091.8" class="w">Device <tspan x="27.39" dy="1.2em" class="l">Guard</tspan></text></g></a><a target="_blank" aria-label="BranchCache" href="https://docs.microsoft.com/windows-server/networking/branchcache/branchcache" rel="noopener"><g transform="translate(1760,-656)"><rect x="0" y="1056" width="96" height="80" rx="8" ry="8" class="bg"/><text x="6.1" y="1099.9" class="bc">BranchCache</text></g></a><a target="_blank" aria-label="Microsoft Desktop Optimization Pack" href="https://docs.microsoft.com/microsoft-desktop-optimization-pack/" rel="noopener"><g transform="translate(1648,-464)"><rect x="0" y="1056" width="96" height="80" rx="8" ry="8" class="bh"/><text x="27" y="1100.2" class="w">MDOP</text></g></a><a target="_blank" aria-label="Credential Guard" href="https://docs.microsoft.com/windows/security/identity-protection/credential-guard/credential-guard" rel="noopener"><g transform="translate(1424,-560)"><rect x="0" y="1056" width="96" height="80" rx="8" ry="8" class="bg"/><text x="13.77" y="1091.8" class="w">Credential <tspan x="27.39" dy="1.2em" class="l">Guard</tspan></text></g></a><a target="_blank" aria-label="User Experience Virtualisation (UE-V)" href="https://docs.microsoft.com/windows/configuration/ue-v/uev-for-windows" rel="noopener"><g transform="translate(1424,-272)"><rect x="0" y="1056" width="96" height="80" rx="8" ry="8" class="bg"/><text x="33.55" y="1084.3" class="bc">User <tspan x="13.31" dy="1.2em" class="l">Experience </tspan><tspan x="6.83" dy="1.2em" class="l">Virtualisation</tspan></text></g></a><a target="_blank" aria-label="Long Term Servicing Channel" href="https://docs.microsoft.com/windows/deployment/update/waas-overview#long-term-servicing-channel" rel="noopener"><g transform="translate(1424,-464)"><rect x="0" y="1056" width="96" height="80" rx="8" ry="8" class="bh"/><text x="11.83" y="1083.4" class="w">Long Term <tspan x="16.49" dy="1.2em" class="l">Servicing </tspan><tspan x="20.39" dy="1.2em" class="l">Channel</tspan></text></g></a><a target="_blank" aria-label="Always On VPN" href="https://docs.microsoft.com/windows-server/remote/remote-access/vpn/always-on-vpn/" rel="noopener"><g transform="translate(1312,-752)"><rect x="0" y="1056" width="96" height="80" rx="8" ry="8" class="bg"/><text x="12.21" y="1091.8" class="w">Always On <tspan x="33.61" dy="1.2em" class="l">VPN</tspan></text></g></a><a target="_blank" aria-label="Universal Print" href="https://docs.microsoft.com/universal-print/" rel="noopener"><g transform="translate(1312,-272)"><rect x="0" y="1056" width="96" height="80" rx="8" ry="8" class="bg"/><text x="16.48" y="1091.8" class="w">Universal <tspan x="32.06" dy="1.2em" class="l">Print</tspan></text></g></a><a target="_blank" aria-label="App Assure" href="https://docs.microsoft.com/fasttrack/products-and-capabilities#app-assure" rel="noopener"><g transform="translate(1760,-752)"><rect x="0" y="1056" width="96" height="80" rx="8" ry="8" class="bg"/><text x="8.71" y="1100.2" class="w">App Assure</text></g></a><a target="_blank" aria-label="Windows Autopilot" href="https://docs.microsoft.com/windows/deployment/windows-autopilot/windows-autopilot" rel="noopener"><g transform="translate(1536,-272)"><rect x="0" y="1056" width="96" height="80" rx="8" ry="8" class="bg"/><text x="17.28" y="1091.8" class="w">Windows <tspan x="17.29" dy="1.2em" class="l">Autopilot</tspan></text></g></a><a target="_blank" aria-label="BitLocker" href="https://docs.microsoft.com/windows/security/information-protection/bitlocker/bitlocker-overview" rel="noopener"><g transform="translate(1648,-656)"><rect x="0" y="1056" width="96" height="80" rx="8" ry="8" class="bg"/><text x="8.71" y="1083.4" class="w">BitLocker &amp; <tspan x="7.16" dy="1.2em" class="l">BitLocker to </tspan><tspan x="38.28" dy="1.2em" class="l">Go</tspan></text></g></a><a target="_blank" aria-label="Windows Firewall" href="https://docs.microsoft.com/windows/security/threat-protection/windows-firewall/windows-firewall-with-advanced-security" rel="noopener"><g transform="translate(1760,-272)"><rect x="0" y="1056" width="96" height="80" rx="8" ry="8" class="bg"/><text x="17.28" y="1091.8" class="w">Windows <tspan x="21.93" dy="1.2em" class="l">Firewall</tspan></text></g></a><a target="_blank" aria-label="Application Control" href="https://docs.microsoft.com/windows/security/threat-protection/windows-defender-application-control/windows-defender-application-control" rel="noopener"><g transform="translate(1424,-752)"><rect x="0" y="1056" width="96" height="80" rx="8" ry="8" class="bg"/><text x="9.89" y="1091.8" class="w">Application <tspan x="23.12" dy="1.2em" class="l">Control</tspan></text></g></a><a target="_blank" aria-label="Resilient File System (ReFS)" href="https://docs.microsoft.com/windows-server/storage/refs/refs-overview" rel="noopener"><g transform="translate(1536,-368)"><rect x="0" y="1056" width="96" height="80" rx="8" ry="8" class="bg"/><text x="4.82" y="1083.4" class="w">Resilient File <tspan x="23.1" dy="1.2em" class="l">System </tspan><tspan x="25.45" dy="1.2em" class="l">(ReFS)</tspan></text></g></a><a target="_blank" aria-label="SMB Direct" href="https://docs.microsoft.com/en-us/windows-server/storage/file-server/smb-direct" rel="noopener"><g transform="translate(1648,-368)"><rect x="0" y="1056" width="96" height="80" rx="8" ry="8" class="bg"/><text x="10.66" y="1100.2" class="w">SMB Direct</text></g></a><a target="_blank" aria-label="Unified Write Filter" href="https://docs.microsoft.com/windows-hardware/customize/enterprise/unified-write-filter" rel="noopener"><g transform="translate(1760,-368)"><rect x="0" y="1056" width="96" height="80" rx="8" ry="8" class="bg"/><text x="4.83" y="1091.8" class="w">Unified Write <tspan x="30.89" dy="1.2em" class="l">Filter</tspan></text></g></a><a target="_blank" aria-label="Persistent Memory" href="https://docs.microsoft.com/windows-server/storage/storage-spaces/deploy-pmem" rel="noopener"><g transform="translate(1424,-368)"><rect x="0" y="1056" width="96" height="80" rx="8" ry="8" class="bg"/><text x="14.15" y="1091.8" class="w">Persistent <tspan x="21.16" dy="1.2em" class="l">Memory</tspan></text></g></a><a target="_blank" aria-label="MDM" href="https://docs.microsoft.com/windows/client-management/mdm/" rel="noopener"><g transform="translate(1536,-464)"><rect x="0" y="1056" width="96" height="80" rx="8" ry="8" class="bg"/><text x="31.28" y="1100.2" class="w">MDM</text></g></a><a target="_blank" aria-label="Information Protection" href="https://docs.microsoft.com/azure/information-protection/what-is-information-protection" rel="noopener"><g transform="translate(1120,-752)"><rect x="0" y="1056" width="96" height="80" rx="8" ry="8" class="y"/><text x="9.5" y="1091.8" class="w">Information <tspan x="13.39" dy="1.2em" class="l">Protection</tspan></text></g></a></g></svg>