<svg xmlns="http://www.w3.org/2000/svg" width="432" height="1200" viewBox="0 0 432 1200" class="a"><style>
.b {fill:#a5a5a5;fill-opacity:0.2;stroke:#d04a00;stroke-linecap:round;stroke-linejoin:round;stroke-width:2.25}
.c {fill:#a5a5a5;fill-opacity:0.2;stroke:#e82200;stroke-dasharray:15.75,11.25;stroke-linecap:round;stroke-linejoin:round;stroke-width:2.25}
.d {fill:#a5a5a5;fill-opacity:0.2;stroke:#c42500;stroke-dasharray:6.75,6.75;stroke-linecap:round;stroke-linejoin:round;stroke-width:2.25}
.e {fill:#a5a5a5;fill-opacity:0.2;stroke:#c42500;stroke-dasharray:2.25,4.5;stroke-linecap:round;stroke-linejoin:round;stroke-width:2.25}
.f {fill:#a5a5a5;fill-opacity:0.2;stroke:#c42500;stroke-dasharray:0,6.75;stroke-linecap:round;stroke-linejoin:round;stroke-width:2.25}
.g {fill:#d04a00;stroke:#d04a00;stroke-linecap:round;stroke-linejoin:round;stroke-width:2.25}
.h {fill:#ffffff;font-family:Arial;font-size:1.16666em;font-weight:bold}
.i {fill:#c42500;stroke:#c42500;stroke-linecap:round;stroke-linejoin:round;stroke-width:2.25}
.j {fill:#ffffff;font-family:Arial;font-size:1.00001em;font-weight:bold}
.k {font-size:1em}
.l {fill:#c42500;stroke:none;stroke-linecap:round;stroke-linejoin:round;stroke-width:0.24}
.m {fill:#21a366;stroke:none;stroke-linecap:butt;stroke-width:9.5625}
.n {fill:#33c481;stroke:none;stroke-linecap:butt;stroke-width:9.5625}
.o {fill:#185c37;stroke:none;stroke-linecap:butt;stroke-width:9.5625}
.p {fill:#107c41;stroke:none;stroke-linecap:butt;stroke-width:9.5625}
.q {fill:#000000;fill-opacity:0.2;stroke:none;stroke-linecap:butt;stroke-width:9.5625}
.r {fill:#000000;fill-opacity:0.098;stroke:none;stroke-linecap:butt;stroke-width:9.5625}
.s {fill:#ffffff;stroke:none;stroke-linecap:butt;stroke-width:9.5625}
.t {fill:#000000;font-family:Arial;font-size:1.00001em;font-weight:bold}
.u {fill:#41a5ee;stroke:none;stroke-linecap:butt;stroke-width:9.5625}
.v {fill:#2b7cd3;stroke:none;stroke-linecap:butt;stroke-width:9.5625}
.w {fill:#185abd;stroke:none;stroke-linecap:butt;stroke-width:9.5625}
.x {fill:#103f91;stroke:none;stroke-linecap:butt;stroke-width:9.5625}
.y {fill:#000000;font-family:Arial;font-size:0.916672em;font-weight:bold}
.z {fill:#d35230;stroke:none;stroke-linecap:butt;stroke-width:9.5625}
.ba {fill:#ff8f6b;stroke:none;stroke-linecap:butt;stroke-width:9.5625}
.bb {fill:#ed6c47;stroke:none;stroke-linecap:butt;stroke-width:9.5625}
.bc {fill:#c43e1c;stroke:none;stroke-linecap:butt;stroke-width:9.5625}
.bd {fill:#123b6d;stroke:none;stroke-linecap:butt;stroke-width:9.5625}
.be {fill:#0364b8;stroke:none;stroke-linecap:butt;stroke-width:9.5625}
.bf {fill:#0358a7;stroke:none;stroke-linecap:butt;stroke-width:9.5625}
.bg {fill:#0078d4;stroke:none;stroke-linecap:butt;stroke-width:9.5625}
.bh {fill:#28a8ea;stroke:none;stroke-linecap:butt;stroke-width:9.5625}
.bi {fill:#50d9ff;stroke:none;stroke-linecap:butt;stroke-width:9.5625}
.bj {fill:#14447d;stroke:none;stroke-linecap:butt;stroke-width:9.5625}
.bk {fill:url(#grad0-115);stroke:none;stroke-linecap:butt;stroke-width:9.5625}
.bl {fill:#1490df;stroke:none;stroke-linecap:butt;stroke-width:9.5625}
.bm {fill:#0a2767;fill-opacity:0.5;stroke:none;stroke-linecap:butt;stroke-width:9.5625}
.bn {fill:#0f78d4;stroke:none;stroke-linecap:butt;stroke-width:9.5625}
.bo {fill:#000000;fill-opacity:0.047;stroke:none;stroke-linecap:butt;stroke-width:9.5625}
.bp {fill:#ca64ea;stroke:none;stroke-linecap:butt;stroke-width:9.5625}
.bq {fill:#ae4bd5;stroke:none;stroke-linecap:butt;stroke-width:9.5625}
.br {fill:#9332bf;stroke:none;stroke-linecap:butt;stroke-width:9.5625}
.bs {fill:#7719aa;stroke:none;stroke-linecap:butt;stroke-width:9.5625}
.bt {fill:#881421;stroke:none;stroke-linecap:butt;stroke-width:9.5625}
.bu {fill:#af2031;stroke:none;stroke-linecap:butt;stroke-width:9.5625}
.bv {fill:#c94f60;stroke:none;stroke-linecap:butt;stroke-width:9.5625}
.bw {fill:#e08095;stroke:none;stroke-linecap:butt;stroke-width:9.5625}
.bx {fill:#038387;stroke:none;stroke-linecap:butt;stroke-width:9.5625}
.by {fill:#37c6d0;stroke:none;stroke-linecap:butt;stroke-width:9.5625}
.bz {fill:#1a9ba1;stroke:none;stroke-linecap:butt;stroke-width:9.5625}
.ca {fill:#ffffff}
.cb {stroke:none;stroke-linecap:butt;stroke-width:9.5625}
.cc {fill:none;stroke:none;stroke-linecap:butt;stroke-width:9.5625}
.cd {fill:#e82200;stroke:none;stroke-linecap:round;stroke-linejoin:round;stroke-width:2.25}
.ce {fill:#e82200;stroke:#e82200;stroke-linecap:round;stroke-linejoin:round;stroke-width:2.25}
.cf {fill:#0b5b50;stroke:none;stroke-linecap:butt;stroke-width:9.5625}
.cg {fill:#047769;stroke:none;stroke-linecap:butt;stroke-width:9.5625}
.ch {fill:#30e5d0;stroke:none;stroke-linecap:butt;stroke-width:9.5625}
.ci {fill:#24cdb9;stroke:none;stroke-linecap:butt;stroke-width:9.5625}
.cj {fill:#0c9d8c;stroke:none;stroke-linecap:butt;stroke-width:9.5625}
.a {fill:none;fill-rule:evenodd;font-size:12px;overflow:visible;stroke-linecap:square;stroke-miterlimit:3}
</style><defs><linearGradient id="grad0-115" x1="0" y1="0" x2="1" y2="0" gradientTransform="rotate(90 0.5 0.5)"><stop offset="0" stop-color="#35b8f1" stop-opacity="1"/><stop offset="1" stop-color="#28a8ea" stop-opacity="1"/></linearGradient></defs><g><g transform="translate(16,-16)"><rect x="0" y="32" width="400" height="1168" rx="8" ry="8" class="b"/></g><g transform="translate(32,-32)"><rect x="0" y="208" width="368" height="992" rx="8" ry="8" class="c"/></g><g transform="translate(48,-48)"><rect x="0" y="272" width="192" height="928" rx="8" ry="8" class="d"/></g><g transform="translate(64,-96)"><rect x="0" y="528" width="160" height="672" rx="8" ry="8" class="e"/></g><g transform="translate(80,-144)"><rect x="0" y="688" width="128" height="512" rx="8" ry="8" class="f"/></g><a target="_blank" href="https://go.microsoft.com/fwlink/p/?linkid=2013703" rel="noopener"><g transform="translate(16,-1152)"><rect x="0" y="1168" width="400" height="32" rx="8" ry="8" class="g"/><text x="130.76" y="1188.2" class="h">Microsoft 365 Family</text></g></a><a target="_blank" href="https://go.microsoft.com/fwlink/?linkid=2098148" rel="noopener"><g transform="translate(64,-96)"><rect x="0" y="1168" width="160" height="32" rx="8" ry="8" class="i"/><text x="38.66" y="1180.4" class="j">Office Home &amp; <tspan x="53.32" dy="1.2em" class="k">Business</tspan></text></g></a><g transform="translate(96,-192)"><rect x="0" y="1152" width="96" height="48" rx="8" ry="8" class="l"/><text x="25" y="1172.4" class="j">For One <tspan x="19.67" dy="1.2em" class="k">Computer</tspan></text></g><a target="_blank" href="https://www.microsoft.com/microsoft-365/excel" rel="noopener"><g transform="translate(112,-584)"><g transform="translate(15.1273,-22.8667)"><path d="M24.44 1166.87 L2.68 1166.87 C1.28 1166.87 0 1168.03 0 1169.43 L0 1180.87 L24.44 1200 L48.87 1194.87  L48.87 1180.87 L24.44 1166.87 Z" class="m"/></g><g transform="translate(39.5636,-42)"><path d="M21.76 1186 L0 1186 L0 1200 L24.44 1200 L24.44 1188.68 C24.44 1187.28 23.27 1186 21.76 1186 Z" class="n"/></g><g transform="translate(15.1273,0)"><path d="M0 1158 L0 1197.32 C0 1198.72 1.16 1200 2.56 1200 L46.2 1200 C47.59 1200 48.87 1198.83 48.87 1197.43  L48.87 1186 L0 1158 Z" class="o"/></g><g transform="translate(15.1273,-28)"><rect x="0" y="1186" width="24.4364" height="14" class="p"/></g><g transform="translate(15.1273,-8.28333)"><path d="M18.62 1166.63 L18.62 1197.78 C18.39 1199.07 17.22 1200 15.94 1200 L0 1200 L0 1163.95 L15.94 1163.95  C17.34 1163.95 18.62 1165.12 18.62 1166.63 Z" class="q"/></g><g transform="translate(15.1273,-9.45)"><path d="M19.78 1167.8 L19.78 1196.15 C19.78 1198.25 18.04 1200 15.94 1200 L0 1200 L0 1163.95 L15.94 1163.95  C18.04 1163.95 19.78 1165.7 19.78 1167.8 Z" class="r"/></g><g transform="translate(15.1273,-10.6167)"><path d="M18.62 1168.97 L18.62 1197.32 C18.62 1198.72 17.45 1200 16.06 1200 L0 1200 L0 1166.28 L15.94 1166.28  C17.34 1166.28 18.62 1167.45 18.62 1168.97 Z" class="q"/></g><g transform="translate(15.1273,-10.6167)"><path d="M17.45 1168.97 L17.45 1197.32 C17.45 1198.72 16.29 1200 14.89 1200 L0 1200 L0 1166.28 L14.78 1166.28  C16.17 1166.28 17.45 1167.45 17.45 1168.97 Z" class="r"/></g><g transform="translate(-3.25739E-13,-11.6667)"><path d="M2.68 1167.33 L29.79 1167.33 C31.19 1167.33 32.47 1168.5 32.47 1169.9 L32.47 1197.2 C32.47 1198.6 31.3  1199.88 29.91 1199.88 L2.68 1199.88 C1.28 1200 0.12 1198.95 0 1197.67 L0 1170.02 C0 1168.62 1.16  1167.33 2.68 1167.33 Z" class="p"/></g><g transform="translate(8.37818,-19.1333)"><path d="M0 1200 L5.7 1191.13 L0.47 1182.27 L4.65 1182.27 L7.56 1187.87 C7.68 1188.22 7.91 1188.68 8.15 1189.03  C8.38 1188.57 8.49 1188.22 8.73 1187.75 L11.75 1182.15 L15.59 1182.15 L10.24 1191.02 L15.71 1199.88  L11.64 1199.88 L8.38 1193.7 C8.26 1193.47 8.15 1193.12 8.03 1192.88 C7.91 1193.12 7.8 1193.47 7.68  1193.7 L4.31 1199.88 L0 1200 Z" class="s"/></g><g transform="translate(39.5636,-14)"><rect x="0" y="1186" width="24.4364" height="14" class="p"/></g><g><text x="16.32" y="1226.8" class="t">Excel</text></g></g></a><a target="_blank" href="https://www.microsoft.com/microsoft-365/word" rel="noopener"><g transform="translate(112,-360)"><g transform="translate(15.1273,-36.1667)"><path d="M46.16 1180.17 L2.72 1180.17 A2.71515 2.72222 -180 0 0 0 1182.89 L0 1194.17 L25.6 1200 L48.87 1194.17  L48.87 1182.89 A2.71515 2.72222 -180 0 0 46.16 1180.17 Z" class="u"/></g><g transform="translate(15.1273,-21)"><path d="M48.87 1179 L0 1179 L0 1193 L25.6 1200 L48.87 1193 L48.87 1179 Z" class="v"/></g><g transform="translate(15.1273,-5.83333)"><path d="M0 1177.83 L0 1191.83 L25.6 1200 L48.87 1191.83 L48.87 1177.83 L0 1177.83 Z" class="w"/></g><g transform="translate(15.1273,0)"><path d="M2.72 1200 L46.16 1200 A2.71515 2.72222 -180 0 0 48.87 1197.28 L48.87 1186 L0 1186 L0 1197.28 A2.71515  2.72222 -180 0 0 2.72 1200 Z" class="x"/></g><g transform="translate(15.1273,-8.16667)"><path d="M18.62 1166.55 L18.62 1197.28 A2.01826 2.02351 0 0 1 18.57 1197.75 A2.6924 2.69941 0 0 1 15.91 1200  L0 1200 L0 1163.83 L15.91 1163.83 A2.70662 2.71367 0 0 1 18.62 1166.55 Z" class="q"/></g><g transform="translate(15.1273,-9.33333)"><path d="M19.78 1167.72 L19.78 1196.11 A3.91181 3.92199 0 0 1 15.91 1200 L0 1200 L0 1163.83 L15.91 1163.83 A3.88861  3.89873 0 0 1 19.78 1167.72 Z" class="r"/></g><g transform="translate(15.1273,-10.5)"><path d="M18.62 1168.89 L18.62 1197.28 A2.70662 2.71367 0 0 1 15.91 1200 L0 1200 L0 1166.17 L15.91 1166.17 A2.70662  2.71367 0 0 1 18.62 1168.89 Z" class="q"/></g><g transform="translate(15.1273,-10.5)"><path d="M17.45 1168.89 L17.45 1197.28 A2.70662 2.71367 0 0 1 14.74 1200 L0 1200 L0 1166.17 L14.74 1166.17 A2.70662  2.71367 0 0 1 17.45 1168.89 Z" class="r"/></g><g transform="translate(-3.17746E-13,-11.6667)"><path d="M0 1197.28 A2.71521 2.72228 -180 0 0 2.72 1200 L29.87 1200 A2.71521 2.72228 -180 0 0 32.58 1197.28 L32.58  1170.06 A2.71521 2.72228 -180 0 0 29.87 1167.33 L2.72 1167.33 A2.71521 2.72228 -180 0 0 0 1170.06  L0 1197.28 Z" class="w"/></g><g transform="translate(4.98088,-19.1528)"><path d="M6.16 1195.69 C6.21 1196.11 6.25 1196.48 6.26 1196.79 L6.33 1196.79 C6.35 1196.5 6.4 1196.14 6.47 1195.72  C6.54 1195.3 6.6 1194.95 6.67 1194.66 L9.53 1182.31 L13.22 1182.31 L16.17 1194.47 A17.6068 17.6527  0 0 1 16.54 1196.77 L16.59 1196.77 A17.476 17.5215 0 0 1 16.9 1194.55 L19.26 1182.31 L22.62 1182.31  L18.49 1200 L14.56 1200 L11.74 1188.28 C11.66 1187.94 11.57 1187.5 11.46 1186.96 C11.36 1186.41  11.3 1186.02 11.27 1185.77 L11.22 1185.77 C11.19 1186.06 11.13 1186.49 11.03 1187.06 C10.94 1187.62  10.86 1188.04 10.81 1188.31 L8.16 1200 L4.17 1200 L0 1182.31 L3.42 1182.31 L5.99 1194.68 C6.05 1194.94  6.11 1195.27 6.16 1195.69 Z" class="s"/></g><g><text x="17.95" y="1219.9" class="y">Word</text></g></g></a><a target="_blank" href="https://www.microsoft.com/microsoft-365/powerpoint" rel="noopener"><g transform="translate(112,-472)"><g transform="translate(8.14545,0)"><path d="M55.85 1171.71 L55.85 1172.29 A27.7213 27.7935 0 0 1 28.22 1200 L27.64 1200 A27.52 27.5917 0 0 1 8.1  1191.83 C7.73 1191.46 7.35 1191.06 7.01 1190.67 C6.67 1190.29 6.34 1189.9 6.03 1189.5 A27.4153 27.4867  0 0 1 0 1172.29 L0 1171.71 A27.3455 27.4167 0 0 1 5.15 1155.67 A13.7693 13.8052 0 0 1 6.03 1154.5  A27.5828 27.6547 0 0 1 27.64 1144 L28.22 1144 A27.7213 27.7935 0 0 1 55.85 1171.71 Z" class="z"/></g><g transform="translate(36.0727,-28)"><path d="M27.93 1200 L27.93 1199.73 A27.7434 27.8157 -180 0 0 0.27 1172 L0 1172 L0 1200 L27.93 1200 Z" class="ba"/></g><g transform="translate(8.14545,-28)"><path d="M0 1199.73 L0 1200 L27.93 1200 L27.93 1172 L27.66 1172 A27.7434 27.8157 -180 0 0 -0 1199.73 Z" class="bb"/></g><g transform="translate(8.14545,-8.16667)"><path d="M25.6 1166.55 L25.6 1197.28 A2.01775 2.023 0 0 1 25.55 1197.75 A2.69265 2.69967 0 0 1 22.89 1200 L8.1  1200 C7.73 1199.63 7.35 1199.23 7.01 1198.83 C6.67 1198.46 6.34 1198.06 6.03 1197.67 A27.4153 27.4867  0 0 1 -0 1180.46 L0 1179.87 A27.3455 27.4167 0 0 1 5.15 1163.83 L22.89 1163.83 A2.70662 2.71367  0 0 1 25.6 1166.55 Z" class="q"/></g><g transform="translate(8.14545,-9.33333)"><path d="M26.76 1167.72 L26.76 1196.11 A3.91215 3.92233 0 0 1 22.89 1200 L7.01 1200 C6.67 1199.63 6.34 1199.23  6.03 1198.83 A27.4153 27.4867 0 0 1 -0 1181.62 L0 1181.04 A27.3455 27.4167 0 0 1 5.15 1165 A13.7693  13.8052 0 0 1 6.03 1163.83 L22.89 1163.83 A3.88887 3.899 0 0 1 26.76 1167.72 Z" class="r"/></g><g transform="translate(8.14545,-10.5)"><path d="M25.6 1168.88 L25.6 1197.28 A2.70662 2.71367 0 0 1 22.89 1200 L6.03 1200 A27.4153 27.4867 0 0 1 -0 1182.79  L0 1182.21 A27.3455 27.4167 0 0 1 5.15 1166.17 L22.89 1166.17 A2.70662 2.71367 0 0 1 25.6 1168.88  Z" class="q"/></g><g transform="translate(8.14545,-10.5)"><path d="M24.44 1168.88 L24.44 1197.28 A2.70662 2.71367 0 0 1 21.73 1200 L6.03 1200 A27.4153 27.4867 0 0 1 0  1182.79 L0 1182.21 A27.3455 27.4167 0 0 1 5.15 1166.17 L21.73 1166.17 A2.70662 2.71367 0 0 1 24.44  1168.88 Z" class="r"/></g><g transform="translate(-3.15747E-13,-11.6667)"><path d="M-0 1197.28 A2.71599 2.72306 -180 0 0 2.72 1200 L29.87 1200 A2.71599 2.72306 -180 0 0 32.58 1197.28  L32.58 1170.06 A2.71599 2.72306 -180 0 0 29.87 1167.33 L2.72 1167.33 A2.71599 2.72306 -180 0 0 -0  1170.06 L0 1197.28 Z" class="bc"/></g><g transform="translate(9.8176,-19.0015)"><path d="M7.01 1181.85 A7.17265 7.19133 0 0 1 11.84 1183.31 A5.25847 5.27217 0 0 1 13.52 1187.52 A5.96945 5.985  0 0 1 12.69 1190.67 A5.60058 5.61517 0 0 1 10.33 1192.82 A7.82895 7.84933 0 0 1 6.79 1193.58 L3.44  1193.58 L3.44 1200 L0 1200 L0 1181.85 L7.01 1181.85 ZM3.44 1190.81 L6.4 1190.81 A3.776 3.78583 -180  0 0 9.01 1190.01 A2.99985 3.00767 -180 0 0 9.9 1187.66 C9.9 1185.66 8.77 1184.66 6.51 1184.66 L3.44  1184.66 L3.44 1190.81 Z" class="s"/></g><g><text x="1.75" y="1219.9" class="y">PowerPoint</text></g></g></a><a target="_blank" href="https://www.microsoft.com/microsoft-365/outlook/email-and-calendar-software-microsoft-outlook" rel="noopener"><g transform="translate(112,-696)"><g transform="translate(15.6877,-12.2714)"><path d="M48.27 1185.48 A1.38473 1.38833 -180 0 0 47.6 1184.28 L47.59 1184.28 L47.57 1184.26 L25.77 1171.46 A2.97891  2.98667 -180 0 0 25.48 1171.29 A2.94284 2.9505 -180 0 0 22.79 1171.29 A2.97309 2.98083 -180 0 0  22.5 1171.46 L0.7 1184.26 L0.68 1184.28 L0.67 1184.28 A1.39869 1.40233 -180 0 0 0.7 1186.7 L22.5  1199.5 A3.00451 3.01233 -180 0 0 22.79 1199.68 L22.79 1199.68 A2.94284 2.9505 -180 0 0 25.47 1199.68  A3.00567 3.0135 -180 0 0 25.77 1199.5 L47.57 1186.7 A1.38473 1.38833 -180 0 0 48.27 1185.48 Z" class="bd"/></g><g transform="translate(18.1015,-21.9508)"><rect x="0" y="1186.69" width="14.4803" height="13.3082" class="be"/></g><g transform="translate(17.4545,-47.8333)"><path d="M44.22 1200 L44.22 1194.56 A2.7392 2.74633 -180 0 0 41.45 1191.83 L2.76 1191.83 A2.7392 2.74633 -180  0 0 -0 1194.56 L0 1200 L44.22 1200 Z" class="bf"/></g><g transform="translate(17.4545,-35)"><rect x="0" y="1186" width="15.1273" height="14" class="bg"/></g><g transform="translate(32.5818,-21)"><path d="M0 1172 L15.13 1172 L29.09 1186 L29.09 1200 L15.13 1200 L0 1186 L0 1172 Z" class="bh"/></g><g transform="translate(47.7091,-35)"><rect x="0" y="1186" width="13.9636" height="14" class="bi"/></g><g transform="translate(32.5818,-21)"><rect x="0" y="1186" width="15.1273" height="14" class="bg"/></g><g transform="translate(32.5818,-7)"><rect x="0" y="1186" width="15.1273" height="14" class="be"/></g><g transform="translate(18.1015,-9.8525)"><rect x="0" y="1187.9" width="14.4803" height="12.0983" class="bj"/></g><g transform="translate(47.7091,-8.16667)"><rect x="0" y="1187.17" width="13.9636" height="12.8333" class="bg"/></g><g transform="translate(15.1273,2.27374E-13)"><path d="M48.19 1174.27 L48.19 1174.27 L48.17 1174.29 L48.16 1174.29 L26.09 1186.12 A3.1872 3.1955 0 0 1 25.79  1186.28 A3.20465 3.213 0 0 1 24.44 1186.58 C24.41 1186.58 24.39 1186.58 24.36 1186.58 L23.12 1185.89  A3.03825 3.04617 0 0 1 22.82 1185.73 L0.71 1173.56 L0.71 1173.56 L0.7 1173.55 L0 1173.17 L0 1197.13  A2.96611 2.97383 -180 0 0 3.05 1200 L45.9 1200 A3.12087 3.129 -180 0 0 47.71 1199.43 L47.66 1199.4  A2.79855 2.80583 -180 0 0 48.87 1197.13 L48.87 1173.17 A1.26022 1.2635 0 0 1 48.19 1174.27 Z" class="bk"/></g><g transform="translate(15.1273,2.27374E-13)"><path d="M48.19 1174.27 L48.17 1174.29 L48.16 1174.29 L26.09 1186.12 A3.10691 3.115 0 0 1 25.79 1186.28 A3.23375  3.24217 0 0 1 23.08 1186.28 A3.10458 3.11267 0 0 1 22.78 1186.12 L0.71 1174.29 L0.71 1174.29 L0.68  1174.27 A1.26138 1.26467 0 0 1 0 1173.17 L0 1197.13 A2.96495 2.97267 -180 0 0 3.05 1200 L45.82 1200  A2.96495 2.97267 -180 0 0 48.87 1197.13 L48.87 1173.17 A1.26138 1.26467 0 0 1 48.19 1174.27 Z" class="bl"/></g><g transform="translate(15.1273,2.27374E-13)"><path d="M3.06 1200 L45.9 1200 A3.1232 3.13133 -180 0 0 47.71 1199.43 L23.12 1185.89 A3.08713 3.09517 0 0 1 22.82  1185.73 L0.71 1173.56 L0.71 1173.56 L0.7 1173.55 L0 1173.17 L0 1197.04 A3.00567 3.0135 -180 0 0  3.06 1200 Z" class="bh"/></g><g transform="translate(17.4545,-13.4167)"><path d="M44.22 1187.25 L44.22 1188.57 L23.76 1199.54 C23.67 1199.6 23.56 1199.65 23.47 1199.7 A3.11622 3.12433  0 0 1 22.11 1200 L22.04 1200 L20.79 1199.31 C20.69 1199.26 20.6 1199.21 20.49 1199.15 L0 1187.87  L0 1186.54 L21.06 1198.12 C21.17 1198.19 21.24 1198.23 21.29 1198.26 L22.32 1198.82 A1.93629 1.94133  -180 0 0 22.97 1198.65 C23.03 1198.61 39.78 1189.63 44.22 1187.25 Z" class="bm"/></g><g transform="translate(15.1273,-8.16667)"><path d="M18.62 1166.55 L18.62 1197.28 A2.01891 2.02417 0 0 1 18.57 1197.75 A2.69265 2.69967 0 0 1 15.91 1200  L0 1200 L0 1181.33 L0.59 1181.66 A1.17644 1.1795 0 0 1 0.56 1181.38 A1.38822 1.39183 0 0 1 1.23  1180.18 C1.25 1180.17 1.26 1180.17 1.27 1180.15 L2.98 1179.15 L2.98 1173.17 L2.33 1173.17 L2.33  1163.83 L15.91 1163.83 A2.70662 2.71367 0 0 1 18.62 1166.54 L18.62 1166.55 Z" class="q"/></g><g transform="translate(15.1273,-9.33333)"><path d="M19.78 1167.72 L19.78 1196.11 A3.91215 3.92233 0 0 1 15.91 1200 L0 1200 L0 1182.5 L0.59 1182.83 A1.17644  1.1795 0 0 1 0.56 1182.55 A1.38822 1.39183 0 0 1 1.23 1181.34 C1.25 1181.33 1.26 1181.33 1.27 1181.32  L2.98 1180.32 L2.98 1174.33 L2.33 1174.33 L2.33 1163.83 L15.91 1163.83 A3.88887 3.899 0 0 1 19.78  1167.72 Z" class="r"/></g><g transform="translate(15.1273,-10.5)"><path d="M18.62 1168.88 L18.62 1197.28 A2.70662 2.71367 0 0 1 15.92 1200 L0 1200 L0 1183.67 L0.59 1183.99 A1.17644  1.1795 0 0 1 0.56 1183.71 A1.38822 1.39183 0 0 1 1.23 1182.51 C1.25 1182.5 1.26 1182.5 1.27 1182.49  L2.98 1181.48 L2.98 1175.5 L2.33 1175.5 L2.33 1166.17 L15.91 1166.17 A2.70662 2.71367 0 0 1 18.62  1168.88 L18.62 1168.88 Z" class="q"/></g><g transform="translate(15.1273,-10.5)"><path d="M17.45 1168.88 L17.45 1197.28 A2.70662 2.71367 0 0 1 14.75 1200 L0 1200 L0 1183.67 L0.59 1183.99 A1.17644  1.1795 0 0 1 0.56 1183.71 A1.38822 1.39183 0 0 1 1.23 1182.51 C1.25 1182.5 1.26 1182.5 1.27 1182.49  L2.98 1181.48 L2.98 1175.5 L2.33 1175.5 L2.33 1166.17 L14.74 1166.17 A2.70662 2.71367 0 0 1 17.45  1168.88 L17.45 1168.88 Z" class="r"/></g><g transform="translate(-3.17746E-13,-11.6667)"><path d="M0 1197.28 A2.71483 2.7219 -180 0 0 2.71 1200 L29.87 1200 A2.71483 2.7219 -180 0 0 32.58 1197.28 L32.58  1170.06 A2.71483 2.7219 -180 0 0 29.87 1167.33 L2.71 1167.33 A2.71483 2.7219 -180 0 0 -0 1170.06  L0 1197.28 Z" class="bn"/></g><g transform="translate(8.01396,-19.0552)"><path d="M0.98 1186.67 A7.37978 7.399 0 0 1 3.88 1183.46 A8.76218 8.785 0 0 1 8.49 1182.31 A8.14778 8.169 0 0  1 12.75 1183.4 A7.30531 7.32433 0 0 1 15.57 1186.47 A9.87811 9.90383 0 0 1 16.55 1190.98 A10.4145  10.4417 0 0 1 15.54 1195.7 A7.48218 7.50167 0 0 1 12.63 1198.87 A8.47011 8.49217 0 0 1 8.21 1200  A8.3456 8.36733 0 0 1 3.86 1198.89 A7.41935 7.43867 0 0 1 1 1195.82 A9.63491 9.66 0 0 1 -0 1191.36  A10.6868 10.7147 0 0 1 0.98 1186.67 L0.98 1186.67 ZM4.07 1194.21 A4.79418 4.80667 -180 0 0 5.7 1196.32  A4.25542 4.2665 -180 0 0 8.25 1197.09 A4.47069 4.48233 -180 0 0 10.97 1196.29 A4.59404 4.606 -180  0 0 12.55 1194.18 A8.16407 8.18533 -180 0 0 13.05 1191.23 A8.9344 8.95767 -180 0 0 12.58 1188.25  A4.7104 4.72267 -180 0 0 11.05 1186.05 A4.21236 4.22333 -180 0 0 8.35 1185.22 A4.39971 4.41117 -180  0 0 5.75 1185.99 A4.83724 4.84983 -180 0 0 4.08 1188.12 A8.42822 8.45017 -180 0 0 4.07 1194.21 Z" class="s"/></g><g transform="translate(39.4996,-0.593833)"><path d="M2.88 1186.1 L1.72 1186.72 A3.16625 3.1745 0 0 1 0.06 1187.18 L0 1187.18 L23.3 1200 A2.83695 2.84433  -180 0 0 24.47 1197.99 L2.88 1186.1 Z" class="bo"/></g><g transform="translate(39.4996,-0.5915)"><path d="M23.3 1200 A2.95331 2.961 -180 0 0 24.11 1199.12 L1.65 1186.75 A3.26982 3.27833 0 0 1 1.42 1186.87 A3.20465  3.213 0 0 1 0.06 1187.17 L0 1187.17 L23.3 1200 Z" class="bo"/></g><g><text x="11.22" y="1219.9" class="y">Outlook</text></g></g></a><g transform="translate(96,-256)"><rect x="0" y="1152" width="96" height="48" rx="8" ry="8" class="l"/><text x="22" y="1172.4" class="j">One-time <tspan x="20.98" dy="1.2em" class="k">Purchase</tspan></text></g><a target="_blank" href="https://www.microsoft.com/microsoft-365/onenote/digital-note-taking-app" rel="noopener"><g transform="translate(288,-696)"><g transform="translate(15.1273,0)"><path d="M45.38 1200 L2.71 1200 A2.7136 2.72067 0 0 1 0 1197.28 L0 1146.72 A2.7136 2.72067 0 0 1 2.71 1144 L46.16  1144 A2.70429 2.71133 0 0 1 48.86 1146.72 L48.87 1196.5 A4.22982 4.24083 0 0 1 45.38 1200 Z" class="bp"/></g><g transform="translate(50.0364,-28)"><rect x="0" y="1186" width="13.9636" height="14" class="bq"/></g><g transform="translate(50.0364,-14)"><rect x="0" y="1186" width="13.9636" height="14" class="br"/></g><g transform="translate(50.0364,0)"><path d="M0 1186 L13.96 1186 L13.96 1197.28 A2.71127 2.71833 0 0 1 11.25 1200 L0 1200 L0 1186 Z" class="bs"/></g><g transform="translate(15.1273,-8.16667)"><path d="M18.62 1166.55 L18.62 1197.28 A2.01775 2.023 0 0 1 18.57 1197.75 A2.69265 2.69967 0 0 1 15.91 1200 L0  1200 L0 1163.83 L15.91 1163.83 A2.70662 2.71367 0 0 1 18.62 1166.55 Z" class="q"/></g><g transform="translate(15.1273,-9.33333)"><path d="M19.78 1167.72 L19.78 1196.11 A3.91215 3.92233 0 0 1 15.91 1200 L0 1200 L0 1163.83 L15.91 1163.83 A3.88887  3.899 0 0 1 19.78 1167.72 Z" class="r"/></g><g transform="translate(15.1273,-10.5)"><path d="M18.62 1168.88 L18.62 1197.28 A2.70662 2.71367 0 0 1 15.91 1200 L0 1200 L0 1166.17 L15.91 1166.17 A2.70662  2.71367 0 0 1 18.62 1168.88 Z" class="q"/></g><g transform="translate(15.1273,-10.5)"><path d="M17.45 1168.88 L17.45 1197.28 A2.70662 2.71367 0 0 1 14.74 1200 L0 1200 L0 1166.17 L14.74 1166.17 A2.70662  2.71367 0 0 1 17.45 1168.88 Z" class="r"/></g><g transform="translate(-3.15747E-13,-11.6667)"><path d="M0 1197.28 A2.71483 2.7219 -180 0 0 2.71 1200 L29.87 1200 A2.71483 2.7219 -180 0 0 32.58 1197.28 L32.58  1170.06 A2.71483 2.7219 -180 0 0 29.87 1167.33 L2.71 1167.33 A2.71483 2.7219 -180 0 0 -0 1170.06  L0 1197.28 Z" class="bs"/></g><g transform="translate(8.92393,-19.1532)"><path d="M0 1182.31 L3.68 1182.31 L10.91 1194.04 C11.24 1194.57 11.49 1194.99 11.65 1195.31 L11.7 1195.31 A17.9631  18.0098 0 0 1 11.6 1192.91 L11.6 1182.31 L14.73 1182.31 L14.73 1200 L11.29 1200 L3.79 1187.94 A9.43942  9.464 0 0 1 3.12 1186.7 L3.06 1186.7 A25.7699 25.837 0 0 1 3.15 1189.34 L3.15 1200 L0 1200 L0 1182.31  Z" class="s"/></g><g><text x="9.08" y="1219.9" class="y">OneNote</text></g></g></a><a target="_blank" href="https://www.microsoft.com/microsoft-365/access" rel="noopener"><g transform="translate(112,-902.4)"><g transform="translate(15.1269,0)"><path d="M0 1178.4 L0 1192.8 C0 1196.78 10.94 1200 24.44 1200 C37.93 1200 48.87 1196.78 48.87 1192.8 L48.87 1178.4  L0 1178.4 Z" class="bt"/></g><g transform="translate(15.1269,-14.4)"><path d="M0 1178.4 L0 1192.8 C0 1196.78 10.94 1200 24.44 1200 C37.93 1200 48.87 1196.78 48.87 1192.8 L48.87 1178.4  L0 1178.4 Z" class="bu"/></g><g transform="translate(15.1269,-28.8)"><path d="M0 1178.4 L0 1192.8 C0 1196.78 10.94 1200 24.44 1200 C37.93 1200 48.87 1196.78 48.87 1192.8 L48.87 1178.4  L0 1178.4 Z" class="bv"/></g><g transform="translate(15.1269,-43.2)"><ellipse cx="24.4366" cy="1192.8" rx="24.4366" ry="7.2" class="bw"/></g><g transform="translate(15.1271,-9.96923)"><path d="M18.62 1168.24 L18.62 1197.42 A2.01827 1.92123 0 0 1 18.57 1197.86 A2.69242 2.56296 0 0 1 15.91 1200  L0 1200 L0 1165.66 L15.91 1165.66 A2.70664 2.57649 0 0 1 18.62 1168.24 Z" class="q"/></g><g transform="translate(15.1271,-11.0769)"><path d="M19.78 1169.35 L19.78 1196.31 A3.91184 3.72374 0 0 1 15.91 1200 L0 1200 L0 1165.66 L15.91 1165.66 A3.88864  3.70165 0 0 1 19.78 1169.35 Z" class="r"/></g><g transform="translate(15.1271,-12.1846)"><path d="M18.62 1170.46 L18.62 1197.42 A2.70664 2.57649 0 0 1 15.91 1200 L0 1200 L0 1167.88 L15.91 1167.88 A2.70664  2.57649 0 0 1 18.62 1170.46 Z" class="q"/></g><g transform="translate(15.1271,-12.1846)"><path d="M17.45 1170.46 L17.45 1197.42 A2.70664 2.57649 0 0 1 14.74 1200 L0 1200 L0 1167.88 L14.74 1167.88 A2.70664  2.57649 0 0 1 17.45 1170.46 Z" class="r"/></g><g transform="translate(0,-13.2923)"><path d="M0 1197.42 A2.71523 2.58467 -180 0 0 2.72 1200 L29.87 1200 A2.71523 2.58467 -180 0 0 32.58 1197.42 L32.58  1171.57 A2.71523 2.58467 -180 0 0 29.87 1168.98 L2.72 1168.98 A2.71523 2.58467 -180 0 0 0 1171.57  L0 1197.42 Z" class="bu"/></g><g transform="translate(7.8173,-20.3998)"><path d="M6.52 1183.2 L10.52 1183.2 L16.95 1200 L13.17 1200 L11.75 1195.99 L5.14 1195.99 L3.75 1200 L0 1200 L6.52  1183.2 ZM10.9 1193.4 L8.85 1187.32 A8.48421 8.07625 0 0 1 8.47 1185.95 L8.39 1185.95 A8.16422 7.77165  0 0 1 8.02 1187.36 L5.94 1193.4 L10.9 1193.4 Z" class="s"/></g><g><text x="12.73" y="1218.3" class="y">Access</text></g></g></a><a target="_blank" href="https://www.microsoft.com/microsoft-365/publisher" rel="noopener"><g transform="translate(112,-808)"><g transform="translate(40.7272,-3.50002)"><path d="M0 1197.24 A2.75261 2.75978 -180 0 0 2.75 1200 L20.52 1200 A2.75261 2.75978 -180 0 0 23.27 1197.24 L23.27  1153.76 A2.75261 2.75978 -180 0 0 20.52 1151 L2.75 1151 A2.75261 2.75978 -180 0 0 0 1153.76 L0 1197.24  Z" class="bx"/></g><g transform="translate(15.1271,-2.27374E-13)"><path d="M35.74 1200 L2.66 1200 A2.65879 2.66572 0 0 1 0 1197.33 L0 1186 L20.95 1181.33 L38.4 1186 L38.4 1197.33  A2.65879 2.66572 0 0 1 35.74 1200 Z" class="bx"/></g><g transform="translate(15.1271,-25.6665)"><path d="M35.66 1169.67 L2.74 1169.67 A2.74674 2.7539 -180 0 0 -0 1172.42 L0 1197.67 L19.78 1200 L38.4 1197.67  L38.4 1172.42 A2.74669 2.75385 -180 0 0 35.66 1169.67 Z" class="by"/></g><g transform="translate(15.1271,-14.0001)"><rect x="0" y="1186" width="38.4001" height="14" class="bz"/></g><g transform="translate(15.1271,-8.16671)"><path d="M18.62 1166.55 L18.62 1197.28 A2.01827 2.02352 0 0 1 18.57 1197.75 A2.69241 2.69942 0 0 1 15.91 1200  L0 1200 L0 1163.83 L15.91 1163.83 A2.70663 2.71368 0 0 1 18.62 1166.55 Z" class="q"/></g><g transform="translate(15.1271,-9.33338)"><path d="M19.78 1167.72 L19.78 1196.11 A3.91182 3.92201 0 0 1 15.91 1200 L0 1200 L0 1163.83 L15.91 1163.83 A3.88862  3.89875 0 0 1 19.78 1167.72 Z" class="r"/></g><g transform="translate(15.1271,-10.5001)"><path d="M18.62 1168.88 L18.62 1197.28 A2.70663 2.71368 0 0 1 15.91 1200 L0 1200 L0 1166.17 L15.91 1166.17 A2.70663  2.71368 0 0 1 18.62 1168.88 Z" class="q"/></g><g transform="translate(15.1271,-10.5001)"><path d="M17.45 1168.88 L17.45 1197.28 A2.70663 2.71368 0 0 1 14.74 1200 L0 1200 L0 1166.17 L14.74 1166.17 A2.70663  2.71368 0 0 1 17.45 1168.88 Z" class="r"/></g><g transform="translate(0,-11.6667)"><path d="M0 1197.28 A2.71556 2.72263 -180 0 0 2.72 1200 L29.87 1200 A2.71556 2.72263 -180 0 0 32.58 1197.28 L32.58  1170.06 A2.71556 2.72263 -180 0 0 29.87 1167.33 L2.72 1167.33 A2.71556 2.72263 -180 0 0 0 1170.06  L0 1197.28 Z" class="bx"/></g><g transform="translate(9.81701,-19.0014)"><path d="M7.01 1181.85 A7.17305 7.19174 0 0 1 11.84 1183.31 A5.25849 5.27219 0 0 1 13.52 1187.52 A5.96976 5.98531  0 0 1 12.69 1190.67 A5.60014 5.61473 0 0 1 10.33 1192.82 A7.82882 7.84922 0 0 1 6.79 1193.58 L3.44  1193.58 L3.44 1200 L0 1200 L0 1181.85 L7.01 1181.85 ZM3.44 1190.81 L6.4 1190.81 A3.77654 3.78638  -180 0 0 9.01 1190.01 A2.99959 3.0074 -180 0 0 9.9 1187.66 C9.9 1185.66 8.77 1184.66 6.51 1184.66  L3.44 1184.66 L3.44 1190.81 Z" class="s"/></g><g transform="translate(53.5272,-3.49974)"><rect x="0" y="1151" width="1.16364" height="49" class="q"/></g><g transform="translate(54.6909,-3.49974)"><rect x="0" y="1151" width="1.16364" height="49" class="r"/></g><g><text x="6.94" y="1219.9" class="y">Publisher</text></g></g></a><a target="_blank" href="https://www.microsoft.com/microsoft-365/onedrive/onedrive-for-business" rel="noopener"><g transform="translate(288,-816)"><g transform="translate(15.8654,-18.5455)"><path d="M22.19 1200 C22.19 1200 36.03 1192.22 36.26 1192.34 A20.1634 20.2242 -180 0 0 11.81 1177.75 A19.8464  19.9063 -180 0 0 0 1186.24 C0.12 1186.24 22.19 1200 22.19 1200 Z" class="be"/></g><g transform="translate(3.23741E-13,-6.81994)"><path d="M24.57 1176.91 A16.2149 16.2638 -180 0 0 16.1 1174.51 L15.87 1174.51 A16.1159 16.1645 -180 0 0 -0 1190.91  A16.6325 16.6827 -180 0 0 2.86 1200 L25.05 1197.73 L38.05 1185.16 L24.57 1176.91 Z" class="bn"/></g><g transform="translate(38.1723,-6.93959)"><path d="M14.08 1180.74 L13.24 1180.74 A12.354 12.3912 -180 0 0 8.11 1181.81 L0 1185.16 L8.83 1194.97 L24.81  1200 A13.0821 13.1216 -180 0 0 19.44 1182.17 A14.3777 14.4211 -180 0 0 14.08 1180.74 Z" class="bl"/></g><g transform="translate(2.86292,-2.27374E-13)"><path d="M48.55 1186.24 L45.21 1184.21 L37.58 1179.66 L35.19 1178.22 L29.11 1180.86 L17.3 1185.88 L11.93 1188.04  L0 1193.06 A16.232 16.281 -180 0 0 13.24 1200 L48.43 1200 A13.2588 13.2987 -180 0 0 60 1193.06 L48.55  1186.24 Z" class="bh"/></g><g><text x="7.55" y="1221.9" class="y">OneDrive <tspan x="16.42" dy="1.2em" class="k">(1 TB)</tspan></text></g></g></a><a target="_blank" href="https://www.skype.com/" rel="noopener"><g transform="translate(288,-576)"><g transform="translate(0,-26.88)"><ellipse cx="18.56" cy="1181.44" rx="18.56" ry="18.56" class="bh"/></g><g transform="translate(26.88,0)"><ellipse cx="18.56" cy="1181.44" rx="18.56" ry="18.56" class="bh"/></g><g transform="translate(1.28,-1.28)"><ellipse cx="30.72" cy="1169.28" rx="30.72" ry="30.72" class="bh"/></g><g transform="translate(20.1024,-14.7008)"><path d="M3.93 1182.12 A9.33632 9.33632 0 0 1 1 1179.03 A8.54016 8.54016 0 0 1 0 1174.76 A7.6736 7.6736 0 0 1  1.81 1169.59 A10.8813 10.8813 0 0 1 6.52 1166.44 A18.199 18.199 0 0 1 12.69 1165.4 A23.9616 23.9616  0 0 1 16.8 1165.72 A14.8224 14.8224 0 0 1 19.64 1166.45 A5.51936 5.51936 0 0 1 21.87 1167.87 A2.88  2.88 0 0 1 22.56 1169.79 A2.7712 2.7712 0 0 1 21.84 1171.78 A2.40768 2.40768 0 0 1 20.02 1172.54  A3.27552 3.27552 0 0 1 18.66 1172.24 A24.4915 24.4915 -180 0 0 15.44 1171.06 A11.6864 11.6864 -180  0 0 12.34 1170.68 A7.08096 7.08096 -180 0 0 8.46 1171.67 A3.232 3.232 -180 0 0 6.91 1174.57 A2.91968  2.91968 -180 0 0 7.71 1176.61 A7.33952 7.33952 -180 0 0 9.88 1178.16 C10.79 1178.61 12.15 1179.21  13.95 1179.96 A4.21888 4.21888 0 0 1 14.53 1180.19 A28.9139 28.9139 0 0 1 19.57 1182.78 A10.1594  10.1594 0 0 1 22.68 1185.97 A8.3968 8.3968 0 0 1 23.8 1190.39 A8.89344 8.89344 0 0 1 22.24 1195.72  A9.22112 9.22112 0 0 1 17.9 1198.94 A18.2886 18.2886 0 0 1 11.38 1200 A20.544 20.544 0 0 1 2.5 1198.32  A4.8384 4.8384 0 0 1 0.67 1196.9 A3.2 3.2 0 0 1 0.07 1194.96 A2.53056 2.53056 0 0 1 0.85 1192.99  A2.88256 2.88256 0 0 1 2.87 1192.28 A5.15712 5.15712 0 0 1 5.22 1192.88 C6.13 1193.34 6.84 1193.67  7.36 1193.9 A10.729 10.729 -180 0 0 9.2 1194.48 A10.5382 10.5382 -180 0 0 11.57 1194.73 A6.31936  6.31936 -180 0 0 15.55 1193.67 A3.50336 3.50336 -180 0 0 16.89 1190.76 A3.08736 3.08736 -180 0 0  16.05 1188.64 A8.928 8.928 -180 0 0 13.58 1186.84 C12.49 1186.27 10.96 1185.57 8.98 1184.74 A28.4723  28.4723 0 0 1 3.93 1182.12 L3.93 1182.12 Z" class="ca"/><path d="M3.93 1182.12 A9.33632 9.33632 0 0 1 1 1179.03 A8.54016 8.54016 0 0 1 0 1174.76 A7.6736 7.6736 0 0 1  1.81 1169.59 A10.8813 10.8813 0 0 1 6.52 1166.44 A18.199 18.199 0 0 1 12.69 1165.4 A23.9616 23.9616  0 0 1 16.8 1165.72 A14.8224 14.8224 0 0 1 19.64 1166.45 A5.51936 5.51936 0 0 1 21.87 1167.87 A2.88  2.88 0 0 1 22.56 1169.79 A2.7712 2.7712 0 0 1 21.84 1171.78 A2.40768 2.40768 0 0 1 20.02 1172.54  A3.27552 3.27552 0 0 1 18.66 1172.24 A24.4915 24.4915 -180 0 0 15.44 1171.06 A11.6864 11.6864 -180  0 0 12.34 1170.68 A7.08096 7.08096 -180 0 0 8.46 1171.67 A3.232 3.232 -180 0 0 6.91 1174.57 A2.91968  2.91968 -180 0 0 7.71 1176.61 A7.33952 7.33952 -180 0 0 9.88 1178.16 C10.79 1178.61 12.15 1179.21  13.95 1179.96 A4.21888 4.21888 0 0 1 14.53 1180.19 A28.9139 28.9139 0 0 1 19.57 1182.78 A10.1594  10.1594 0 0 1 22.68 1185.97 A8.3968 8.3968 0 0 1 23.8 1190.39 A8.89344 8.89344 0 0 1 22.24 1195.72  A9.22112 9.22112 0 0 1 17.9 1198.94 A18.2886 18.2886 0 0 1 11.38 1200 A20.544 20.544 0 0 1 2.5 1198.32  A4.8384 4.8384 0 0 1 0.67 1196.9 A3.2 3.2 0 0 1 0.07 1194.96 A2.53056 2.53056 0 0 1 0.85 1192.99  A2.88256 2.88256 0 0 1 2.87 1192.28 A5.15712 5.15712 0 0 1 5.22 1192.88 C6.13 1193.34 6.84 1193.67  7.36 1193.9 A10.729 10.729 -180 0 0 9.2 1194.48 A10.5382 10.5382 -180 0 0 11.57 1194.73 A6.31936  6.31936 -180 0 0 15.55 1193.67 A3.50336 3.50336 -180 0 0 16.89 1190.76 A3.08736 3.08736 -180 0 0  16.05 1188.64 A8.928 8.928 -180 0 0 13.58 1186.84 C12.49 1186.27 10.96 1185.57 8.98 1184.74 A28.4723  28.4723 0 0 1 3.93 1182.12" class="cb"/></g><g transform="translate(0.2944,-37.504)"><path d="M24.06 1174.44 A18.1158 18.1158 -180 0 0 21.58 1173.8 A33.376 33.376 -180 0 0 -0 1195.38 A18.1248 18.1248  -180 0 0 0.64 1197.86 A14.057 14.057 -180 0 0 1.5 1200 A30.6522 30.6522 0 0 1 26.2 1175.3 A14.0672  14.0672 -180 0 0 24.06 1174.44 Z" class="r"/></g><g transform="translate(0.9344,-0.2944)"><path d="M23.42 1137.23 A32.0256 32.0256 -180 0 0 -0 1160.65 A14.057 14.057 -180 0 0 0.86 1162.79 A30.6522 30.6522  0 0 1 25.56 1138.09 A14.0672 14.0672 -180 0 0 23.42 1137.23 ZM62.13 1175.94 A14.057 14.057 -180  0 0 61.27 1173.8 A30.6522 30.6522 0 0 1 36.57 1198.5 A14.0595 14.0595 -180 0 0 38.71 1199.36 A18.1158  18.1158 -180 0 0 41.19 1200 A33.376 33.376 -180 0 0 62.77 1178.42 A18.1261 18.1261 -180 0 0 62.13  1175.94 Z" class="r"/></g><g transform="translate(37.504,-0.9344)"><path d="M24.7 1174.44 A30.6522 30.6522 0 0 1 -0 1199.14 A14.0595 14.0595 -180 0 0 2.14 1200 A32.0256 32.0256  -180 0 0 25.56 1176.58 A14.057 14.057 -180 0 0 24.7 1174.44 Z" class="r"/></g><g><text x="15.8" y="1211.9" class="y">Skype</text></g></g></a><a target="_blank" href="https://www.microsoft.com/microsoft-365/microsoft-editor" rel="noopener"><g transform="translate(288,-896)"><g><g transform="translate(12,-7)"><path d="M23.5 1189 L9.88 1189 L4.54 1196.36 L0 1199.59 L0 1200 L23.5 1200 A5.5 5.5 -180 0 0 23.5 1189 Z" class="x"/></g><g transform="translate(24.7886,-22)"><path d="M20.71 1189 L7.99 1189 L0 1200 L20.71 1200 A5.5 5.5 -180 0 0 20.71 1189 Z" class="w"/></g><g transform="translate(35.6836,-37)"><path d="M19.82 1189 L7.99 1189 L0 1200 L19.82 1200 A5.5 5.5 -180 0 0 19.82 1189 Z" class="w"/></g><g transform="translate(12,-7)"><path d="M4.54 1196.35 L0 1199.59 L0 1200 L5.46 1200 L7.04 1198.87 L14.21 1189 L9.88 1189 L4.54 1196.35 Z" class="r"/></g><g transform="translate(35.684,-37)"><path d="M7.99 1189 L0 1200 L4.33 1200 L12.32 1189 L7.99 1189 Z" class="r"/></g><g transform="translate(24.789,-22)"><path d="M0 1200 L4.32 1200 L12.32 1189 L7.99 1189 L0 1200 Z" class="r"/></g><g transform="translate(12,-7)"><path d="M4.54 1196.35 L0 1199.59 L0 1200 L3.74 1200 L6.32 1198.15 L12.97 1189 L9.88 1189 L4.54 1196.35 Z" class="r"/></g><g transform="translate(24.789,-22)"><path d="M0 1200 L3.09 1200 L11.08 1189 L7.99 1189 L0 1200 Z" class="r"/></g><g transform="translate(35.684,-37)"><path d="M7.99 1189 L0 1200 L3.09 1200 L11.08 1189 L7.99 1189 Z" class="r"/></g><g><rect x="0" y="1136" width="64" height="64" class="cc"/></g><g transform="translate(12,-7)"><path d="M4.54 1196.35 L0 1199.59 L0 1200 L2.01 1200 L5.61 1197.43 L11.74 1189 L9.88 1189 L4.54 1196.35 Z" class="r"/></g><g transform="translate(35.684,-37)"><path d="M7.99 1189 L0 1200 L1.85 1200 L9.84 1189 L7.99 1189 Z" class="r"/></g><g transform="translate(24.789,-22)"><path d="M0 1200 L1.85 1200 L9.84 1189 L7.99 1189 L0 1200 Z" class="r"/></g><g transform="translate(2.30038,-5.86894)"><path d="M3.18 1200 L25.16 1174.89 L42.43 1153.09 L33.04 1147.22 L31.86 1147.9 L3.04 1187.41 L0 1197.53 a0.96939  0.96939 -180 0 0 0.35115 1.04628 L0.35 1198.58 L3.18 1200 Z" class="u"/></g><g transform="translate(4.8157,-3.9329)"><path d="M2.37 1199.86 a0.959 0.959 -180 0 0 1.04118 -0.03193 L12.08 1193.65 L40.77 1154.15 L35.69 1148.47  L0 1197.9 L2.37 1199.86 Z" class="v"/></g><g transform="translate(34.1142,-49.7848)"><path d="M11.47 1200 L14.64 1195.62 C14.9 1195.24 14.77 1194.91 14.44 1194.46 C12.07 1191.2 5.01 1187.07  4.08 1187.15 A1.186 1.186 -180 0 0 3.17 1187.51 L0 1191.88 L11.47 1200 Z" class="x"/></g><g transform="translate(1.27667,-1.1769)"><path d="M5.21 1192.83 L1.38 1193.89 L0.06 1198.24 C0 1198.61 0.4 1199.14 0.69 1199.38 C0.99 1199.63 1.94  1200 2.32 1199.77 L5.91 1197.11 C5.93 1197.12 5.21 1192.83 5.21 1192.83 Z" class="x"/></g></g><g><text x="16.11" y="1211.9" class="y">Editor</text></g></g></a><g transform="translate(256,-464)"><rect x="0" y="1152" width="128" height="48" rx="8" ry="8" class="cd"/><text x="30.32" y="1172.4" class="j">One Person<tspan x="27.64" dy="1.2em" class="k">Five Devices</tspan></text></g><g transform="translate(256,-400)"><rect x="0" y="1152" width="128" height="48" rx="8" ry="8" class="cd"/><text x="14.32" y="1172.4" class="j">PC, Mac, iPadOS, <tspan x="15" dy="1.2em" class="k">iOS, and Android</tspan></text></g><g transform="translate(256,-336)"><rect x="0" y="1152" width="128" height="48" rx="8" ry="8" class="cd"/><text x="13.66" y="1172.4" class="j">Monthly or Yearly <tspan x="27.33" dy="1.2em" class="k">Subscription</tspan></text></g><a target="_blank" href="https://go.microsoft.com/fwlink/p/?linkid=2013707" rel="noopener"><g transform="translate(80,-144)"><rect x="0" y="1168" width="128" height="32" rx="8" ry="8" class="i"/><text x="22.66" y="1180.4" class="j">Office Home &amp; <tspan x="41.67" dy="1.2em" class="k">Student</tspan></text></g></a><a target="_blank" href="https://go.microsoft.com/fwlink/p/?linkid=2013818" rel="noopener"><g transform="translate(32,-992)"><rect x="0" y="1168" width="368" height="32" rx="8" ry="8" class="ce"/><text x="107.36" y="1188.2" class="h">Microsoft 365 Personal</text></g></a><g transform="translate(256,-1056)"><rect x="0" y="1136" width="128" height="64" rx="8" ry="8" class="cd"/><text x="33.65" y="1164.4" class="j">Six People <tspan x="11.63" dy="1.2em" class="k">Five Devices Each</tspan></text></g><a target="_blank" href="https://go.microsoft.com/fwlink/p/?linkid=2015073" rel="noopener"><g transform="translate(48,-48)"><rect x="0" y="1168" width="192" height="32" rx="8" ry="8" class="i"/><text x="41.32" y="1187.6" class="j">Office Professional</text></g></a><a target="_blank" href="https://www.microsoft.com/partner-benefits" rel="noopener"><g transform="translate(256,-272)"><rect x="0" y="1152" width="128" height="48" rx="8" ry="8" class="cd"/><text x="23.65" y="1172.4" class="j">Partner Offers<tspan x="15.67" dy="1.2em" class="k">(US, UK, AU, CA)</tspan></text></g></a><a target="_blank" href="https://support.microsoft.com/office/78c6089c-7faf-44f5-82e2-efa9ebb921d2" rel="noopener"><g transform="translate(256,-208)"><rect x="0" y="1152" width="128" height="48" rx="8" ry="8" class="cd"/><text x="27.33" y="1172.4" class="j">Outlook.com <tspan x="29.65" dy="1.2em" class="k">50 GB email</tspan></text></g></a><g transform="translate(256,-80)"><rect x="0" y="1152" width="128" height="48" rx="8" ry="8" class="cd"/><text x="14" y="1179.6" class="j">Premium Content</text></g><a target="_blank" href="https://support.microsoft.com/office/882d2243-eab9-4545-a58a-b36fee4a46e2" rel="noopener"><g transform="translate(256,-144)"><rect x="0" y="1152" width="128" height="48" rx="8" ry="8" class="cd"/><text x="27.33" y="1172.4" class="j">Outlook.com <tspan x="25.65" dy="1.2em" class="k">Adv. Security</tspan></text></g></a><a target="_blank" href="https://www.microsoft.com/microsoft-365/family-safety" rel="noopener"><g transform="translate(112,-1072)"><g transform="translate(13.6252,-1.995)"><path d="M44.71 1164.19 C43.85 1163.33 42.79 1162.57 41.64 1162.1 C39.53 1161.43 37.33 1161.05 35.21 1160.96  L31.18 1162.76 L28.02 1165.52 C28.02 1169.31 26.48 1172.93 23.8 1175.58 L19.67 1182.99 C14.1 1188.03  5.47 1187.93 0 1182.71 L15.26 1197.62 C17.75 1200 21.69 1200 24.18 1197.62 L43.18 1179 C44.52 1177.29  47.78 1173.59 47.78 1171.31 C47.78 1168.65 46.63 1166.09 44.71 1164.19 Z" class="cf"/></g><g transform="translate(-7.99361E-15,-10.735)"><path d="M33.3 1191.73 L31.38 1183.47 C28.69 1180.81 27.15 1177.2 27.15 1173.4 L21.78 1171.5 L18.04 1170.17 C0  1170.17 6.14 1183.66 9.69 1187.65 L13.15 1191.07 L13.63 1191.54 C22.16 1200 32.53 1197.24 33.3 1191.73  Z" class="cg"/></g><g transform="translate(21.7811,-19)"><path d="M23.03 1179.76 L23.03 1182.71 C23.03 1186.51 21.49 1190.12 18.81 1192.78 L11.99 1199.52 C11.8 1199.71  11.71 1199.81 11.51 1200 L4.22 1192.78 C1.54 1190.12 0 1186.51 0 1182.71 L0 1170.83 L23.03 1170.83  L23.03 1179.76 Z" class="ch"/></g><g transform="translate(2.5907,-23.275)"><path d="M30.7 1175.11 C30.7 1180.05 25.52 1183.94 19.19 1183.94 L15.35 1183.94 C9.69 1183.94 5.09 1188.5 5.09  1194.01 C5.09 1196.2 5.76 1198.29 7.1 1200 L4.8 1197.81 C1.73 1194.39 0 1189.93 0 1185.27 C0 1184.51  0.1 1183.66 0.19 1182.9 C1.34 1173.4 9.5 1166.28 19.19 1166.28 C25.52 1166.28 30.7 1170.27 30.7  1175.11 Z" class="ci"/></g><g transform="translate(33.2954,-23.275)"><path d="M0 1175.11 C0 1180.05 5.18 1183.94 11.51 1183.94 L15.35 1183.94 C21.01 1183.94 25.62 1188.5 25.62 1194.01  C25.62 1196.2 24.95 1198.29 23.6 1200 L25.91 1197.72 C28.98 1194.3 30.7 1189.74 30.7 1185.18 C30.7  1184.42 30.61 1183.56 30.51 1182.8 C29.36 1173.4 21.21 1166.28 11.51 1166.28 C5.18 1166.28 0 1170.27  0 1175.11 Z" class="cj"/></g><g transform="translate(2.5907,0)"><rect x="0" y="1139.2" width="61.4093" height="60.8" class="cc"/></g><g><text x="14.58" y="1212.5" class="y">Family <tspan x="15.49" dy="1.2em" class="k">Safety</tspan></text></g></g></a></g></svg>