<svg xmlns="http://www.w3.org/2000/svg" width="640" height="560" viewBox="0 0 640 560" class="a"><style>
.b {fill:#a5a5a5;fill-opacity:0.2;stroke:#004400;stroke-linecap:round;stroke-linejoin:round;stroke-width:2.25}
.c {fill:#004400;stroke:#004400;stroke-linecap:round;stroke-linejoin:round;stroke-width:2.25}
.d {fill:#ffffff;font-family:Arial;font-size:1.66667em;font-weight:bold}
.e {fill:#004400;stroke:none;stroke-linecap:round;stroke-linejoin:round;stroke-width:1}
.f {fill:#ffffff;font-family:Arial;font-size:1.16666em;font-weight:bold}
.g {font-size:1em}
.h {fill:#a5a5a5;fill-opacity:0.2;stroke:#006600;stroke-linecap:round;stroke-linejoin:round;stroke-width:2.25}
.i {fill:#006600;stroke:#006600;stroke-linecap:round;stroke-linejoin:round;stroke-width:2.25}
.j {fill:#006600;stroke:none;stroke-linecap:round;stroke-linejoin:round;stroke-width:1}
.a {fill:none;fill-rule:evenodd;font-size:12px;overflow:visible;stroke-linecap:square;stroke-miterlimit:3}
</style><g><g transform="translate(16,-16)"><rect x="0" y="32" width="608" height="528" rx="8" ry="8" class="b"/></g><a target="_blank" href="https://docs.microsoft.com/microsoft-365/security/defender-endpoint/microsoft-defender-endpoint" rel="noopener"><g transform="translate(16,-496)"><rect x="0" y="512" width="608" height="48" rx="8" ry="8" class="c"/><text x="118.43" y="542" class="d">Microsoft Defender for Endpoint Plan 2</text></g></a><a target="_blank" href="https://docs.microsoft.com/windows/security/threat-protection/windows-defender-atp/automated-investigations-windows-defender-advanced-threat-protection" rel="noopener"><g transform="translate(160,-128)"><rect x="0" y="480" width="96" height="80" rx="8" ry="8" class="e"/><text x="11.45" y="507.4" class="f">Automated <tspan x="4.83" dy="1.2em" class="g">Investigation </tspan><tspan x="7.55" dy="1.2em" class="g">&amp; Response</tspan></text></g></a><a target="_blank" href="https://docs.microsoft.com/windows/security/threat-protection/windows-defender-atp/overview-hunting-windows-defender-advanced-threat-protection" rel="noopener"><g transform="translate(48,-128)"><rect x="0" y="480" width="96" height="80" rx="8" ry="8" class="e"/><text x="14.55" y="515.8" class="f">Advanced <tspan x="21.57" dy="1.2em" class="g">Hunting</tspan></text></g></a><a target="_blank" href="https://docs.microsoft.com/windows/security/threat-protection/windows-defender-atp/overview-endpoint-detection-response" rel="noopener"><g transform="translate(272,-128)"><rect x="0" y="480" width="96" height="80" rx="8" ry="8" class="e"/><text x="17.68" y="507.4" class="f">Endpoint <tspan x="9.11" dy="1.2em" class="g">Detection &amp; </tspan><tspan x="14.55" dy="1.2em" class="g">Response</tspan></text></g></a><a target="_blank" href="https://docs.microsoft.com/windows/security/threat-protection/windows-defender-atp/microsoft-threat-experts" rel="noopener"><g transform="translate(496,-128)"><rect x="0" y="480" width="96" height="80" rx="8" ry="8" class="e"/><text x="16.5" y="507.4" class="f">Microsoft <tspan x="26.61" dy="1.2em" class="g">Threat </tspan><tspan x="22.32" dy="1.2em" class="g">Experts</tspan></text></g></a><a target="_blank" href="https://docs.microsoft.com/windows/security/threat-protection/microsoft-defender-atp/evaluation-lab" rel="noopener"><g transform="translate(384,-128)"><rect x="0" y="480" width="96" height="80" rx="8" ry="8" class="e"/><text x="12.6" y="515.8" class="f">Evaluation <tspan x="35.56" dy="1.2em" class="g">Lab</tspan></text></g></a><a target="_blank" href="https://www.microsoft.com/security/blog/2019/01/17/windows-defender-atp-integrates-with-microsoft-information-protection-to-discover-protect-and-monitor-sensitive-data-on-windows-devices/" rel="noopener"><g transform="translate(48,-32)"><rect x="0" y="480" width="96" height="80" rx="8" ry="8" class="e"/><text x="35.56" y="515.8" class="f">MIP <tspan x="11.83" dy="1.2em" class="g">Integration</tspan></text></g></a><a target="_blank" href="https://docs.microsoft.com/windows/security/threat-protection/microsoft-defender-atp/next-gen-threat-and-vuln-mgt" rel="noopener"><g transform="translate(272,-32)"><rect x="0" y="480" width="96" height="80" rx="8" ry="8" class="e"/><text x="19.61" y="507.4" class="f">Threat &amp; <tspan x="5.99" dy="1.2em" class="g">Vulnerability </tspan><tspan x="5.21" dy="1.2em" class="g">Management</tspan></text></g></a><a target="_blank" href="https://docs.microsoft.com/windows/security/threat-protection/windows-defender-atp/threat-analytics" rel="noopener"><g transform="translate(160,-32)"><rect x="0" y="480" width="96" height="80" rx="8" ry="8" class="e"/><text x="26.61" y="515.8" class="f">Threat <tspan x="16.88" dy="1.2em" class="g">Analytics</tspan></text></g></a><a target="_blank" href="https://docs.microsoft.com/microsoft-365/security/defender-endpoint/data-storage-privacy#how-long-will-microsoft-store-my-data-what-is-microsofts-data-retention-policy" rel="noopener"><g transform="translate(384,-32)"><rect x="0" y="480" width="96" height="80" rx="8" ry="8" class="e"/><text x="16.89" y="507.4" class="f">6-Months <tspan x="10.65" dy="1.2em" class="g">Searchable </tspan><tspan x="32.83" dy="1.2em" class="g">Data</tspan></text></g></a><g transform="translate(32,-224)"><rect x="0" y="304" width="576" height="256" rx="8" ry="8" class="h"/></g><a target="_blank" href="https://techcommunity.microsoft.com/t5/microsoft-defender-for-endpoint/introducing-microsoft-defender-for-endpoint-plan-1/ba-p/2636641" rel="noopener"><g transform="translate(32,-432)"><rect x="0" y="512" width="576" height="48" rx="8" ry="8" class="i"/><text x="55.75" y="542" class="d">Microsoft Defender for Endpoint Plan 1 (preview)</text></g></a><a target="_blank" href="https://docs.microsoft.com/windows/security/threat-protection/microsoft-defender-antivirus/configure-block-at-first-sight-microsoft-defender-antivirus" rel="noopener"><g transform="translate(47.9999,-336)"><rect x="0" y="480" width="96" height="80" rx="8" ry="8" class="j"/><text x="20.77" y="515.8" class="f">Block at <tspan x="13.39" dy="1.2em" class="g">First Sight</tspan></text></g></a><a target="_blank" href="https://docs.microsoft.com/windows/security/threat-protection/microsoft-defender-atp/microsoft-cloud-app-security-integration" rel="noopener"><g transform="translate(160,-336)"><rect x="0" y="480" width="96" height="80" rx="8" ry="8" class="j"/><text x="12.62" y="507.4" class="f">Cloud App <tspan x="20.38" dy="1.2em" class="g">Security </tspan><tspan x="11.83" dy="1.2em" class="g">Integration</tspan></text></g></a><a target="_blank" href="https://docs.microsoft.com/windows/security/threat-protection/microsoft-defender-atp/microsoft-defender-atp-mac" rel="noopener"><g transform="translate(272,-336)"><rect x="0" y="480" width="96" height="80" rx="8" ry="8" class="j"/><text x="6.38" y="507.4" class="f">Defender for <tspan x="17.68" dy="1.2em" class="g">Endpoint </tspan><tspan x="29.72" dy="1.2em" class="g">(Mac)</tspan></text></g></a><a target="_blank" href="https://docs.microsoft.com/microsoft-365/security/defender-endpoint/non-windows" rel="noopener"><g transform="translate(384,-336)"><rect x="0" y="480" width="96" height="80" rx="8" ry="8" class="j"/><text x="6.38" y="507.4" class="f">Defender for <tspan x="17.68" dy="1.2em" class="g">Endpoint </tspan><tspan x="21.17" dy="1.2em" class="g">(Mobile)</tspan></text></g></a><a target="_blank" href="https://docs.microsoft.com/windows/security/threat-protection/microsoft-defender-atp/overview-attack-surface-reduction" rel="noopener"><g transform="translate(496,-336)"><rect x="0" y="480" width="96" height="80" rx="8" ry="8" class="j"/><text x="14.55" y="515.8" class="f">Enhanced <tspan x="33.22" dy="1.2em" class="g">ASR</tspan></text></g></a><a target="_blank" href="https://docs.microsoft.com/windows/security/threat-protection/microsoft-defender-antivirus/prevent-changes-to-security-settings-with-tamper-protection" rel="noopener"><g transform="translate(48,-240)"><rect x="0" y="480" width="96" height="80" rx="8" ry="8" class="j"/><text x="22.71" y="515.8" class="f">Tamper <tspan x="13.39" dy="1.2em" class="g">Protection</tspan></text></g></a><a target="_blank" href="https://docs.microsoft.com/windows/security/threat-protection/microsoft-defender-atp/web-content-filtering" rel="noopener"><g transform="translate(160,-240)"><rect x="0" y="480" width="96" height="80" rx="8" ry="8" class="j"/><text x="4.84" y="515.8" class="f">Web Content <tspan x="20.39" dy="1.2em" class="g">Filtering</tspan></text></g></a></g></svg>