<svg xmlns="http://www.w3.org/2000/svg" width="416px" height="640px" viewBox="0 0 416 640" class="a"><style>
.b {fill:#a5a5a5;fill-opacity:0.2;stroke:#e82200;stroke-linecap:round;stroke-linejoin:round;stroke-width:2.25}
.c {fill:#a5a5a5;fill-opacity:0.2;stroke:#a41500;stroke-dasharray:15.75,11.25;stroke-linecap:round;stroke-linejoin:round;stroke-width:2.25}
.d {fill:#a41500;stroke:#a41500;stroke-linecap:round;stroke-linejoin:round;stroke-width:2.25}
.e {fill:#ffffff;font-family:Arial;font-size:1.66667em;font-weight:bold}
.f {fill:#a41500;stroke:none;stroke-linecap:round;stroke-linejoin:round;stroke-width:1}
.g {fill:#ffffff;font-family:Arial;font-size:1.16666em;font-weight:bold}
.h {font-size:1em}
.i {fill:#e82200;stroke:#e82200;stroke-linecap:round;stroke-linejoin:round;stroke-width:2.25}
.j {fill:#e82200;stroke:none;stroke-linecap:round;stroke-linejoin:round;stroke-width:1}
.a {fill:none;fill-rule:evenodd;font-size:12px;overflow:visible;stroke-linecap:square;stroke-miterlimit:3}
</style><g><g transform="translate(16,-16)"><rect x="0" y="32" width="384" height="608" rx="8" ry="8" class="b"/></g><g transform="translate(32,-336)"><rect x="0" y="400" width="352" height="240" rx="8" ry="8" class="c"/></g><a target="_blank" href="https://www.microsoft.com/microsoft-365/business/microsoft-365-apps-for-business" rel="noopener"><g transform="translate(32,-544)"><rect x="0" y="608" width="352" height="32" rx="8" ry="8" class="d"/><text x="20.41" y="630" class="e">Microsoft 365 Apps for Business</text></g></a><a target="_blank" href="https://products.office.com/mobile/office" rel="noopener"><g transform="translate(48,-352)"><rect x="0" y="560" width="96" height="80" rx="8" ry="8" class="f"/><text x="28.16" y="595.8" class="g">Office <tspan x="6.39" dy="1.2em" class="h">Mobile Apps</tspan></text></g></a><a target="_blank" href="https://docs.microsoft.com/office365/servicedescriptions/office-online-service-description/office-online-service-description" rel="noopener"><g transform="translate(272,-448)"><rect x="0" y="560" width="96" height="80" rx="8" ry="8" class="f"/><text x="28.16" y="595.8" class="g">Office <tspan x="9.5" dy="1.2em" class="h">for the Web</tspan></text></g></a><a target="_blank" href="https://www.microsoft.com/microsoft-365/business/microsoft-365-apps-for-business" rel="noopener"><g transform="translate(160,-448)"><rect x="0" y="560" width="96" height="80" rx="8" ry="8" class="f"/><text x="28.16" y="587.4" class="g">Office <tspan x="6" dy="1.2em" class="h">Applications </tspan><tspan x="11.05" dy="1.2em" class="h">(PC &amp; Mac)</tspan></text></g></a><a target="_blank" href="https://support.office.com/sway" rel="noopener"><g transform="translate(272,-352)"><rect x="0" y="560" width="96" height="80" rx="8" ry="8" class="f"/><text x="30.1" y="604.2" class="g">Sway</text></g></a><a target="_blank" href="https://support.office.com/forms" rel="noopener"><g transform="translate(48,-448)"><rect x="0" y="560" width="96" height="80" rx="8" ry="8" class="f"/><text x="16.5" y="595.8" class="g">Microsoft <tspan x="26.61" dy="1.2em" class="h">Forms</tspan></text></g></a><a target="_blank" href="https://docs.microsoft.com/office365/servicedescriptions/onedrive-for-business-service-description" rel="noopener"><g transform="translate(160,-352)"><rect x="0" y="560" width="96" height="80" rx="8" ry="8" class="f"/><text x="5.6" y="587.4" class="g">OneDrive for <tspan x="16.88" dy="1.2em" class="h">Business </tspan><tspan x="27.38" dy="1.2em" class="h">Plan 1</tspan></text></g></a><a target="_blank" href="https://www.microsoft.com/microsoft-365/business/microsoft-365-apps-for-enterprise-product" rel="noopener"><g transform="translate(16,-592)"><rect x="0" y="608" width="384" height="32" rx="8" ry="8" class="i"/><text x="31.41" y="630" class="e">Microsoft 365 Apps for Enterprise</text></g></a><a target="_blank" href="https://docs.microsoft.com/DeployOffice/overview-shared-computer-activation" rel="noopener"><g transform="translate(160,-48)"><rect x="0" y="560" width="96" height="80" rx="8" ry="8" class="j"/><text x="24.27" y="587.4" class="g">Shared <tspan x="14.95" dy="1.2em" class="h">Computer </tspan><tspan x="14.16" dy="1.2em" class="h">Activation</tspan></text></g></a><a target="_blank" href="https://docs.microsoft.com/office365/servicedescriptions/office-applications-service-description/office-applications-service-description" rel="noopener"><g transform="translate(272,-240)"><rect x="0" y="560" width="96" height="80" rx="8" ry="8" class="j"/><text x="4.06" y="595.8" class="g">Office Add-in <tspan x="21.17" dy="1.2em" class="h">Support</tspan></text></g></a><a target="_blank" href="https://docs.microsoft.com/office365/servicedescriptions/office-applications-service-description/office-applications-service-description" rel="noopener"><g transform="translate(160,-144)"><rect x="0" y="560" width="96" height="80" rx="8" ry="8" class="j"/><text x="5.22" y="587.4" class="g">Office Group <tspan x="27.38" dy="1.2em" class="h">Policy </tspan><tspan x="21.17" dy="1.2em" class="h">Support</tspan></text></g></a><a target="_blank" href="https://docs.microsoft.com/office365/servicedescriptions/office-applications-service-description/office-applications-service-description" rel="noopener"><g transform="translate(48,-48)"><rect x="0" y="560" width="96" height="80" rx="8" ry="8" class="j"/><text x="18.06" y="595.8" class="g">Roaming <tspan x="20.39" dy="1.2em" class="h">Settings</tspan></text></g></a><a target="_blank" href="https://support.microsoft.com/office/1315665a-c6af-4409-a28d-49f8916878ca" rel="noopener"><g transform="translate(48,-240)"><rect x="0" y="560" width="96" height="80" rx="8" ry="8" class="j"/><text x="29.32" y="604.2" class="g">Delve</text></g></a><a target="_blank" href="https://docs.microsoft.com/deployoffice/compat/compatibility-and-telemetry-in-office" rel="noopener"><g transform="translate(272,-144)"><rect x="0" y="560" width="96" height="80" rx="8" ry="8" class="j"/><text x="28.16" y="595.8" class="g">Office <tspan x="14.93" dy="1.2em" class="h">Telemetry</tspan></text></g></a><a target="_blank" href="https://docs.microsoft.com/deployoffice/overview-office-cloud-policy-service" rel="noopener"><g transform="translate(48,-144)"><rect x="0" y="560" width="96" height="80" rx="8" ry="8" class="j"/><text x="6.39" y="587.4" class="g">Office Cloud <tspan x="27.38" dy="1.2em" class="h">Policy </tspan><tspan x="23.09" dy="1.2em" class="h">Service</tspan></text></g></a><a target="_blank" href="https://docs.microsoft.com/office365/servicedescriptions/office-applications-service-description/office-applications-service-description" rel="noopener"><g transform="translate(272,-48)"><rect x="0" y="560" width="96" height="80" rx="8" ry="8" class="j"/><text x="26.22" y="587.4" class="g">Virtual <tspan x="5.6" dy="1.2em" class="h">Desktop Use </tspan><tspan x="26.22" dy="1.2em" class="h">Rights</tspan></text></g></a><a target="_blank" href="https://support.microsoft.com/office/d236aef8-fcdf-4b5e-b5d7-7f157461e920" rel="noopener"><g transform="translate(160,-240)"><rect x="0" y="560" width="96" height="80" rx="8" ry="8" class="j"/><text x="16.5" y="595.8" class="g">Microsoft <tspan x="9.5" dy="1.2em" class="h">Whiteboard</tspan></text></g></a></g></svg>