<svg xmlns="http://www.w3.org/2000/svg" xmlns:xlink="http://www.w3.org/1999/xlink" width="1424" height="2176" viewBox="0 0 1424 2176" class="a"><style>
.c {fill:#a5a5a5;fill-opacity:0.2;stroke:#006600;stroke-dasharray:33.75,20.25;stroke-linecap:round;stroke-linejoin:round;stroke-width:2.25}
.d {fill:#a5a5a5;fill-opacity:0.2;stroke:#2080a0;stroke-dasharray:33.75,20.25;stroke-linecap:round;stroke-linejoin:round;stroke-width:2.25}
.e {fill:#a5a5a5;fill-opacity:0.2;stroke:#e82200;stroke-dasharray:33.75,20.25;stroke-linecap:round;stroke-linejoin:round;stroke-width:2.25}
.f {fill:#a5a5a5;fill-opacity:0.2;stroke:#442060;stroke-linecap:round;stroke-linejoin:round;stroke-width:2.25}
.g {fill:#a5a5a5;fill-opacity:0.2;stroke:#303040;stroke-linecap:round;stroke-linejoin:round;stroke-width:2.25}
.h {fill:#a5a5a5;fill-opacity:0.2;stroke:#403050;stroke-dasharray:2.25,4.5;stroke-linecap:round;stroke-linejoin:round;stroke-width:2.25}
.i {fill:#a5a5a5;fill-opacity:0.2;stroke:#d04a00;stroke-dasharray:2.25,4.5;stroke-linecap:round;stroke-linejoin:round;stroke-width:2.25}
.j {fill:#a5a5a5;fill-opacity:0.2;stroke:#d04a00;stroke-dasharray:15.75,11.25;stroke-linecap:round;stroke-linejoin:round;stroke-width:2.25}
.k {fill:#a5a5a5;fill-opacity:0.2;stroke:#0050c0;stroke-dasharray:2.25,4.5;stroke-linecap:round;stroke-linejoin:round;stroke-width:2.25}
.l {fill:#442060;stroke:#442060;stroke-linecap:round;stroke-linejoin:round;stroke-width:2.25}
.m {fill:#ffffff;font-family:Arial;font-size:1.66667em;font-weight:bold}
.n {fill:#2080a0;stroke:#2080a0;stroke-linecap:round;stroke-linejoin:round;stroke-width:2.25}
.o {font-size:1em}
.p {fill:#006600;stroke:#006600;stroke-linecap:round;stroke-linejoin:round;stroke-width:2.25}
.q {fill:#e82200;stroke:#e82200;stroke-linecap:round;stroke-linejoin:round;stroke-width:2.25}
.r {fill:none;stroke:none;stroke-linecap:round;stroke-linejoin:round;stroke-width:1}
.s {fill:#0070f7;font-family:Arial;font-size:4.00001em;font-weight:bold}
.t {fill:none;stroke:none;stroke-linecap:round;stroke-linejoin:round;stroke-width:0.75}
.u {fill:#0070f7;font-family:Arial;font-size:2.50001em;font-weight:bold}
.v {fill:#0070f7;font-family:Arial;font-size:1.5em;font-weight:bold}
.w {fill:#0050c0;stroke:none;stroke-linecap:round;stroke-linejoin:round;stroke-width:1}
.x {fill:#ffffff;font-family:Arial;font-size:1.16666em;font-weight:bold}
.y {fill:#000000;font-family:Arial;font-size:1.16666em;font-weight:bold}
.z {fill:#d04a00;stroke:none;stroke-linecap:round;stroke-linejoin:round;stroke-width:1}
.ba {fill:#105868;stroke:none;stroke-linecap:round;stroke-linejoin:round;stroke-width:1}
.bb {fill:#504060;stroke:none;stroke-linecap:round;stroke-linejoin:round;stroke-width:1}
.bc {fill:#ffffff;font-family:Arial;font-size:1.00001em;font-weight:bold}
.bd {fill:#403050;stroke:#403050;stroke-linecap:round;stroke-linejoin:round;stroke-width:2.25}
.be {fill:#ffffff;font-family:Arial;font-size:1.08334em;font-weight:bold}
.bf {fill:#303040;stroke:#303040;stroke-linecap:round;stroke-linejoin:round;stroke-width:2.25}
.bg {fill:#ffffff;font-family:Arial;font-size:1.5em;font-weight:bold}
.bh {marker-end:url(#mrkr4-277);marker-start:url(#mrkr4-275);stroke:#105868;stroke-dasharray:5,2.5;stroke-linecap:butt;stroke-width:2.5}
.b {fill:#105868;fill-opacity:1;stroke:#105868;stroke-opacity:1;stroke-width:0.43554006968641}
.bi {fill:#a5a5a5;fill-opacity:0.2;stroke:#004400;stroke-dasharray:2.25,4.5;stroke-linecap:round;stroke-linejoin:round;stroke-width:2.25}
.bj {fill:#004400;stroke:none;stroke-linecap:round;stroke-linejoin:round;stroke-width:1}
.a {fill:none;fill-rule:evenodd;font-size:12px;overflow:visible;stroke-linecap:square;stroke-miterlimit:3}
</style><defs><g id="lend4"><path d="M 2 1 L 0 0 L 2 -1 L 2 1 " style="stroke:none"/></g><marker id="mrkr4-275" class="b" refX="4.448" orient="auto" markerUnits="strokeWidth" overflow="visible"><use xlink:href="#lend4" transform="scale(2.296) "/></marker><marker id="mrkr4-277" class="b" refX="-4.592" orient="auto" markerUnits="strokeWidth" overflow="visible"><use xlink:href="#lend4" transform="scale(-2.296,-2.296) "/></marker></defs><g><g transform="translate(16,-192)"><rect x="0" y="1776" width="1392" height="400" rx="8" ry="8" class="c"/></g><g transform="translate(16,-624)"><rect x="0" y="1760" width="1392" height="416" rx="8" ry="8" class="d"/></g><g transform="translate(16,-1072)"><rect x="0" y="1616" width="1392" height="560" rx="8" ry="8" class="e"/></g><g transform="translate(112,-16)"><rect x="0" y="192" width="1200" height="1984" rx="8" ry="8" class="f"/></g><g transform="translate(560,-112)"><rect x="0" y="384" width="592" height="1792" rx="8" ry="8" class="g"/></g><g transform="translate(144,-112)"><rect x="0" y="384" width="384" height="1792" rx="8" ry="8" class="g"/></g><g transform="translate(992,-1056)"><rect x="0" y="1408" width="128" height="768" rx="8" ry="8" class="h"/></g><g transform="translate(848,-1056)"><rect x="0" y="1408" width="128" height="768" rx="8" ry="8" class="h"/></g><g transform="translate(592,-608)"><rect x="0" y="960" width="240" height="1216" rx="8" ry="8" class="h"/></g><g transform="translate(160,-1104)"><rect x="0" y="1680" width="352" height="496" rx="8" ry="8" class="i"/></g><g transform="translate(176,-1344)"><rect x="0" y="1936" width="320" height="240" rx="8" ry="8" class="j"/></g><g transform="translate(160,-656)"><rect x="0" y="1936" width="352" height="240" rx="8" ry="8" class="k"/></g><a target="_blank" href="https://www.microsoft.com/microsoft-365/compare-all-microsoft-365-plans" rel="noopener"><g transform="translate(112,-1936)"><rect x="0" y="2112" width="1200" height="64" rx="8" ry="8" class="l"/><text x="431.08" y="2150" class="m">Microsoft 365 A5 Step-up (per user)</text></g></a><a target="_blank" href="https://www.microsoft.com/microsoft-365/compare-all-microsoft-365-plans" rel="noopener"><g transform="translate(112,-16)"><rect x="0" y="2112" width="1200" height="64" rx="8" ry="8" class="l"/><text x="431.08" y="2150" class="m">Microsoft 365 A5 Step-up (per user)</text></g></a><a target="_blank" href="https://www.microsoft.com/cloud-platform/enterprise-mobility-security" rel="noopener"><g transform="translate(-2096,1552) rotate(-90)"><rect x="0" y="2112" width="416" height="64" rx="8" ry="8" class="n"/><text x="11.57" y="2138" class="m">Enterprise Mobility + Security A5 Step-up <tspan x="124.11" dy="1.2em" class="o">(EMS A5 Step</tspan>-up)</text></g></a><a target="_blank" href="https://www.microsoft.com/windowsforbusiness" rel="noopener"><g transform="translate(-2096,1984) rotate(-90)"><rect x="0" y="2112" width="400" height="64" rx="8" ry="8" class="p"/><text x="100.56" y="2150" class="m">Windows A5 Step-up</text></g></a><a target="_blank" href="https://docs.microsoft.com/office365/servicedescriptions/office-365-platform-service-description/office-365-education" rel="noopener"><g transform="translate(-2096,1104) rotate(-90)"><rect x="0" y="2112" width="560" height="64" rx="8" ry="8" class="q"/><text x="176.64" y="2150" class="m">Office 365 A5 Step-up</text></g></a><a target="_blank" href="https://m365maps.com/" rel="noopener"><g transform="translate(16,-2096)"><rect x="0" y="2112" width="1392" height="64" rx="8" ry="8" class="r"/><text x="407.95" y="2158.4" class="s">Microsoft 365 A5 Step-up</text></g></a><g transform="translate(16,-2064)"><rect x="0" y="2144" width="1392" height="32" class="t"/><text x="600.95" y="2169" class="u">October 2021</text></g><a target="_blank" href="https://m365maps.com/" rel="noopener"><g transform="translate(16,-2032)"><rect x="0" y="2144" width="1392" height="32" rx="8" ry="8" class="r"/><text x="628.46" y="2165.4" class="v">m365maps.com</text></g></a><a target="_blank" href="https://docs.microsoft.com/azure/active-directory/identity-protection/overview" rel="noopener"><g transform="translate(288,-800)"><rect x="0" y="2096" width="96" height="80" rx="8" ry="8" class="w"/><text x="28.55" y="2123.4" class="x">Azure <tspan x="23.11" dy="1.2em" class="o">Identity </tspan><tspan x="13.39" dy="1.2em" class="o">Protection</tspan></text></g></a><a target="_blank" href="https://docs.microsoft.com/azure/active-directory/active-directory-privileged-identity-management-configure" rel="noopener"><g transform="translate(176,-704)"><rect x="0" y="2096" width="96" height="80" rx="8" ry="8" class="w"/><text x="14.54" y="2123.4" class="x">Privileged <tspan x="23.11" dy="1.2em" class="o">Identity </tspan><tspan x="5.21" dy="1.2em" class="o">Management</tspan></text></g></a><a target="_blank" href="https://docs.microsoft.com/azure/active-directory/governance/access-reviews-overview" rel="noopener"><g transform="translate(176,-800)"><rect x="0" y="2096" width="96" height="80" rx="8" ry="8" class="w"/><text x="23.48" y="2131.8" class="x">Access <tspan x="19.98" dy="1.2em" class="o">Reviews</tspan></text></g></a><a target="_blank" href="https://docs.microsoft.com/azure/active-directory/active-directory-conditional-access-conditions#sign-in-risk" rel="noopener"><g transform="translate(288,-704)"><rect x="0" y="2096" width="96" height="80" rx="8" ry="8" class="w"/><text x="9.87" y="2123.4" class="x">Risk-Based <tspan x="9.51" dy="1.2em" class="o">Conditional </tspan><tspan x="23.48" dy="1.2em" class="o">Access</tspan></text></g></a><a target="_blank" href="https://docs.microsoft.com/office365/servicedescriptions/office-365-advanced-threat-protection-service-description#feature-availability-across-advanced-threat-protection-atp-plans" rel="noopener"><g transform="translate(160,-1104)"><rect x="0" y="2128" width="352" height="48" rx="8" ry="8" class="r"/><text x="42.97" y="2156.2" class="y">Microsoft Defender for Office 365 Plan 2</text></g></a><a target="_blank" href="https://docs.microsoft.com/office365/securitycompliance/threat-trackers" rel="noopener"><g transform="translate(400,-1152)"><rect x="0" y="2096" width="96" height="80" rx="8" ry="8" class="z"/><text x="26.61" y="2131.8" class="x">Threat <tspan x="18.81" dy="1.2em" class="o">Trackers</tspan></text></g></a><a target="_blank" href="https://docs.microsoft.com/microsoft-365/security/office-365-security/attack-simulation-training-get-started" rel="noopener"><g transform="translate(176,-1248)"><rect x="0" y="2096" width="96" height="80" rx="8" ry="8" class="z"/><text x="26.6" y="2123.4" class="x">Attack <tspan x="12.22" dy="1.2em" class="o">Simulation </tspan><tspan x="20.39" dy="1.2em" class="o">Training</tspan></text></g></a><a target="_blank" href="https://docs.microsoft.com/azure/active-directory/governance/entitlement-management-overview" rel="noopener"><g transform="translate(400,-800)"><rect x="0" y="2096" width="96" height="80" rx="8" ry="8" class="w"/><text x="9.89" y="2131.8" class="x">Entitlement <tspan x="5.21" dy="1.2em" class="o">Management</tspan></text></g></a><a target="_blank" href="https://docs.microsoft.com/microsoft-365/security/office-365-security/threat-explorer" rel="noopener"><g transform="translate(288,-1152)"><rect x="0" y="2096" width="96" height="80" rx="8" ry="8" class="z"/><text x="26.61" y="2131.8" class="x">Threat <tspan x="19.6" dy="1.2em" class="o">Explorer</tspan></text></g></a><a target="_blank" href="https://docs.microsoft.com/microsoft-365/security/office-365-security/automated-investigation-response-office" rel="noopener"><g transform="translate(288,-1248)"><rect x="0" y="2096" width="96" height="80" rx="8" ry="8" class="z"/><text x="11.45" y="2123.4" class="x">Automated <tspan x="4.83" dy="1.2em" class="o">Investigation </tspan><tspan x="7.55" dy="1.2em" class="o">&amp; Response</tspan></text></g></a><a target="_blank" href="https://docs.microsoft.com/microsoft-365/security/office-365-security/atp-safe-links" rel="noopener"><g transform="translate(192,-1392)"><rect x="0" y="2144" width="288" height="32" rx="8" ry="8" class="z"/><text x="108.99" y="2164.2" class="x">Safe Links</text></g></a><a target="_blank" href="https://docs.microsoft.com/microsoft-365/security/office-365-security/atp-safe-attachments" rel="noopener"><g transform="translate(192,-1440)"><rect x="0" y="2144" width="288" height="32" rx="8" ry="8" class="z"/><text x="84.87" y="2164.2" class="x">Safe Attachments</text></g></a><a target="_blank" href="https://docs.microsoft.com/microsoft-365/security/office-365-security/atp-anti-phishing" rel="noopener"><g transform="translate(192,-1536)"><rect x="0" y="2144" width="288" height="32" rx="8" ry="8" class="z"/><text x="98.51" y="2164.2" class="x">Anti-Phishing</text></g></a><a target="_blank" href="https://docs.microsoft.com/office365/servicedescriptions/office-365-advanced-threat-protection-service-description#feature-availability-across-advanced-threat-protection-atp-plans" rel="noopener"><g transform="translate(176,-1344)"><rect x="0" y="2128" width="320" height="48" rx="8" ry="8" class="r"/><text x="26.97" y="2156.2" class="y">Microsoft Defender for Office 365 Plan 1</text></g></a><a target="_blank" href="https://docs.microsoft.com/cloud-app-security/what-is-cloud-app-security" rel="noopener"><g transform="translate(400,-912)"><rect x="0" y="2096" width="96" height="80" rx="8" ry="8" class="ba"/><text x="16.5" y="2123.4" class="x">Microsoft <tspan x="12.62" dy="1.2em" class="o">Cloud App </tspan><tspan x="20.38" dy="1.2em" class="o">Security</tspan></text></g></a><a target="_blank" href="https://docs.microsoft.com/microsoft-365/security/office-365-security/install-app-guard" rel="noopener"><g transform="translate(176,-1664)"><rect x="0" y="2096" width="96" height="80" rx="8" ry="8" class="bb"/><text x="9.89" y="2123.4" class="x">Application <tspan x="16.11" dy="1.2em" class="o">Guard for </tspan><tspan x="28.16" dy="1.2em" class="o">Office</tspan></text></g></a><a target="_blank" href="https://azure.microsoft.com/pricing/details/active-directory/" rel="noopener"><g transform="translate(160,-656)"><rect x="0" y="2128" width="352" height="48" rx="8" ry="8" class="r"/><text x="62.04" y="2156.2" class="y">Azure AD Premium Plan 2 Step-up</text></g></a><a target="_blank" href="https://docs.microsoft.com/microsoft-365/security/office-365-security/address-compromised-users-quickly" rel="noopener"><g transform="translate(176,-1152)"><rect x="0" y="2096" width="96" height="80" rx="8" ry="8" class="z"/><text x="7.66" y="2125.2" class="bc">Compromised <tspan x="34.66" dy="1.2em" class="o">User </tspan><tspan x="20.66" dy="1.2em" class="o">Detection</tspan></text></g></a><a target="_blank" href="https://docs.microsoft.com/microsoft-365/security/office-365-security/campaigns" rel="noopener"><g transform="translate(400,-1248)"><rect x="0" y="2096" width="96" height="80" rx="8" ry="8" class="z"/><text x="14.16" y="2131.8" class="x">Campaign <tspan x="28.16" dy="1.2em" class="o">Views</tspan></text></g></a><a target="_blank" href="https://docs.microsoft.com/microsoft-365/security/office-365-security/safe-docs" rel="noopener"><g transform="translate(288,-1664)"><rect x="0" y="2096" width="96" height="80" rx="8" ry="8" class="bb"/><text x="33.21" y="2131.8" class="x">Safe <tspan x="9.88" dy="1.2em" class="o">Documents</tspan></text></g></a><a target="_blank" href="https://docs.microsoft.com/defender-for-identity/what-is" rel="noopener"><g transform="translate(288,-912)"><rect x="0" y="2096" width="96" height="80" rx="8" ry="8" class="ba"/><text x="16.5" y="2123.4" class="x">Microsoft <tspan x="6.38" dy="1.2em" class="o">Defender for </tspan><tspan x="23.11" dy="1.2em" class="o">Identity</tspan></text></g></a><a target="_blank" href="https://support.office.com/article/36f9cdd1-e64c-421b-a7e4-4a54d16440a2" rel="noopener"><g transform="translate(864,-1408)"><rect x="0" y="2096" width="96" height="80" rx="8" ry="8" class="z"/><text x="15.33" y="2131.8" class="x">Customer <tspan x="19.22" dy="1.2em" class="o">Lockbox</tspan></text></g></a><a target="_blank" href="https://support.office.com/article/f2cd475a-e592-46cf-80a3-1bfb0fa17697" rel="noopener"><g transform="translate(720,-1504)"><rect x="0" y="2096" width="96" height="80" rx="8" ry="8" class="z"/><text x="15.33" y="2131.8" class="x">Customer <tspan x="35.16" dy="1.2em" class="o">Key</tspan></text></g></a><a target="_blank" href="https://docs.microsoft.com/microsoft-365/compliance/manage-legal-investigations" rel="noopener"><g transform="translate(1008,-1408)"><rect x="0" y="2096" width="96" height="80" rx="8" ry="8" class="z"/><text x="14.55" y="2131.8" class="x">Advanced <tspan x="10.64" dy="1.2em" class="o">eDiscovery</tspan></text></g></a><a target="_blank" href="https://docs.microsoft.com/office365/securitycompliance/data-loss-prevention-policies#policy-evaluation-in-microsoft-teams" rel="noopener"><g transform="translate(608,-1216)"><rect x="0" y="2096" width="96" height="80" rx="8" ry="8" class="z"/><text x="25.82" y="2123.4" class="x">Teams<tspan x="14.55" dy="1.2em" class="o">Data Loss </tspan><tspan x="11.82" dy="1.2em" class="o">Prevention</tspan></text></g></a><a target="_blank" href="https://docs.microsoft.com/microsoft-365/compliance/ome-advanced-message-encryption" rel="noopener"><g transform="translate(608,-1504)"><rect x="0" y="2096" width="96" height="80" rx="8" ry="8" class="z"/><text x="14.55" y="2123.4" class="x">Advanced <tspan x="18.43" dy="1.2em" class="o">Message </tspan><tspan x="11.44" dy="1.2em" class="o">Encryption</tspan></text></g></a><a target="_blank" href="https://docs.microsoft.com/microsoft-365/compliance/information-barriers" rel="noopener"><g transform="translate(864,-1312)"><rect x="0" y="2096" width="96" height="80" rx="8" ry="8" class="z"/><text x="9.5" y="2131.8" class="x">Information <tspan x="21.15" dy="1.2em" class="o">Barriers</tspan></text></g></a><a target="_blank" href="https://docs.microsoft.com/microsoft-365/compliance/communication-compliance" rel="noopener"><g transform="translate(864,-1504)"><rect x="0" y="2096" width="96" height="80" rx="8" ry="8" class="z"/><text x="26.22" y="2131.8" class="x">Comm <tspan x="8.32" dy="1.2em" class="o">Compliance</tspan></text></g></a><a target="_blank" href="https://docs.microsoft.com/microsoft-365/compliance/insider-risk-management" rel="noopener"><g transform="translate(864,-1664)"><rect x="0" y="2096" width="96" height="80" rx="8" ry="8" class="bb"/><text x="8.32" y="2131.8" class="x">Insider Risk <tspan x="5.21" dy="1.2em" class="o">Management</tspan></text></g></a><a target="_blank" href="https://docs.microsoft.com/microsoft-365/compliance/records-management" rel="noopener"><g transform="translate(608,-1312)"><rect x="0" y="2096" width="96" height="80" rx="8" ry="8" class="z"/><text x="19.99" y="2131.8" class="x">Records <tspan x="5.21" dy="1.2em" class="o">Management</tspan></text></g></a><a target="_blank" href="https://docs.microsoft.com/microsoft-365/compliance/advanced-audit" rel="noopener"><g transform="translate(1008,-1504)"><rect x="0" y="2096" width="96" height="80" rx="8" ry="8" class="z"/><text x="14.55" y="2131.8" class="x">Advanced <tspan x="30.12" dy="1.2em" class="o">Audit</tspan></text></g></a><a target="_blank" href="https://docs.microsoft.com/office365/servicedescriptions/microsoft-365-service-descriptions/microsoft-365-tenantlevel-services-licensing-guidance/microsoft-365-security-compliance-licensing-guidance#insider-risk-management" rel="noopener"><g transform="translate(848,-1776)"><rect x="0" y="2128" width="128" height="48" rx="8" ry="8" class="bd"/><text x="24.32" y="2147.8" class="x">Insider Risk <tspan x="21.21" dy="1.2em" class="o">Management</tspan></text></g></a><a target="_blank" href="https://docs.microsoft.com/microsoft-365/compliance/microsoft-365-solution-catalog#information-protection--governance-section" rel="noopener"><g transform="translate(592,-1776)"><rect x="0" y="2128" width="240" height="48" rx="8" ry="8" class="bd"/><text x="37.95" y="2147.8" class="x">Information Protection &amp; <tspan x="79.54" dy="1.2em" class="o">Governance</tspan></text></g></a><a target="_blank" href="https://docs.microsoft.com/microsoft-365/compliance/microsoft-365-solution-catalog#discovery--response-section" rel="noopener"><g transform="translate(992,-1776)"><rect x="0" y="2128" width="128" height="48" rx="8" ry="8" class="bd"/><text x="19.64" y="2147.8" class="x">eDiscovery &amp; <tspan x="46.12" dy="1.2em" class="o">Audit</tspan></text></g></a><a target="_blank" href="https://docs.microsoft.com/microsoft-365/compliance/classifier-learn-about" rel="noopener"><g transform="translate(720,-1664)"><rect x="0" y="2096" width="96" height="80" rx="8" ry="8" class="bb"/><text x="16.88" y="2131.8" class="x">Trainable <tspan x="12.59" dy="1.2em" class="o">Classifiers</tspan></text></g></a><a target="_blank" href="https://docs.microsoft.com/cloud-app-security/what-is-cloud-app-security" rel="noopener"><g transform="translate(608,-912)"><rect x="0" y="2096" width="96" height="80" rx="8" ry="8" class="ba"/><text x="16.5" y="2123.4" class="x">Microsoft <tspan x="12.62" dy="1.2em" class="o">Cloud App </tspan><tspan x="20.38" dy="1.2em" class="o">Security</tspan></text></g></a><a target="_blank" href="https://docs.microsoft.com/microsoft-365/compliance/endpoint-dlp-learn-about" rel="noopener"><g transform="translate(608,-1664)"><rect x="0" y="2096" width="96" height="80" rx="8" ry="8" class="bb"/><text x="17.68" y="2131.8" class="x">Endpoint <tspan x="34" dy="1.2em" class="o">DLP</tspan></text></g></a><a target="_blank" href="https://docs.microsoft.com/microsoft-365/compliance/double-key-encryption" rel="noopener"><g transform="translate(608,-1408)"><rect x="0" y="2096" width="96" height="80" rx="8" ry="8" class="z"/><text x="9.49" y="2131.8" class="x">Double Key <tspan x="11.44" dy="1.2em" class="o">Encryption</tspan></text></g></a><a target="_blank" href="https://docs.microsoft.com/MicrosoftTeams/what-is-phone-system-in-office-365" rel="noopener"><g transform="translate(1184,-1312)"><rect x="0" y="2096" width="96" height="80" rx="8" ry="8" class="z"/><text x="26.61" y="2131.8" class="x">Phone <tspan x="23.1" dy="1.2em" class="o">System</tspan></text></g></a><a target="_blank" href="https://docs.microsoft.com/microsoftteams/audio-conferencing-in-office-365" rel="noopener"><g transform="translate(1184,-1504)"><rect x="0" y="2096" width="96" height="80" rx="8" ry="8" class="z"/><text x="29.59" y="2124.3" class="be">Audio <tspan x="6.11" dy="1.2em" class="o">Conferencing </tspan><tspan x="32.12" dy="1.2em" class="o">(Full)</tspan></text></g></a><a target="_blank" href="https://docs.microsoft.com/power-bi/service-get-started" rel="noopener"><g transform="translate(1184,-1216)"><rect x="0" y="2096" width="96" height="80" rx="8" ry="8" class="z"/><text x="4.43" y="2140.2" class="x">Power BI Pro</text></g></a><a target="_blank" href="https://docs.microsoft.com/office365/servicedescriptions/mya-service-description" rel="noopener"><g transform="translate(1184,-1408)"><rect x="0" y="2096" width="96" height="80" rx="8" ry="8" class="z"/><text x="7.15" y="2131.8" class="x">MyAnalytics <tspan x="30.9" dy="1.2em" class="o">(Full)</tspan></text></g></a><a target="_blank" href="https://docs.microsoft.com/office365/servicedescriptions/office-365-advanced-threat-protection-service-description#real-time-reports" rel="noopener"><g transform="translate(192,-1488)"><rect x="0" y="2144" width="288" height="32" rx="8" ry="8" class="z"/><text x="82.15" y="2164.2" class="x">Real-Time Reports</text></g></a><a target="_blank" href="https://docs.microsoft.com/microsoft-365/compliance/manage-information-governance" rel="noopener"><g transform="translate(720,-1408)"><rect x="0" y="2096" width="96" height="80" rx="8" ry="8" class="z"/><text x="9.5" y="2131.8" class="x">Information <tspan x="7.54" dy="1.2em" class="o">Governance</tspan></text></g></a><a target="_blank" href="https://docs.microsoft.com/microsoft-365/security/" rel="noopener"><g transform="translate(144,-1856)"><rect x="0" y="2128" width="384" height="48" rx="8" ry="8" class="bf"/><text x="81.96" y="2157.4" class="bg">Microsoft 365 A5 Security</text></g></a><a target="_blank" href="https://docs.microsoft.com/microsoft-365/security/" rel="noopener"><g transform="translate(144,-112)"><rect x="0" y="2128" width="384" height="48" rx="8" ry="8" class="bf"/><text x="81.96" y="2157.4" class="bg">Microsoft 365 A5 Security</text></g></a><a target="_blank" href="https://docs.microsoft.com/microsoft-365/compliance/privileged-access-management-solution-overview" rel="noopener"><g transform="translate(864,-1216)"><rect x="0" y="2096" width="96" height="80" rx="8" ry="8" class="z"/><text x="14.54" y="2123.4" class="x">Privileged <tspan x="23.48" dy="1.2em" class="o">Access </tspan><tspan x="5.21" dy="1.2em" class="o">Management</tspan></text></g></a><a target="_blank" href="https://docs.microsoft.com/microsoft-365/compliance/" rel="noopener"><g transform="translate(560,-112)"><rect x="0" y="2128" width="592" height="48" rx="8" ry="8" class="bf"/><text x="170.47" y="2157.4" class="bg">Microsoft 365 A5 Compliance</text></g></a><a target="_blank" href="https://docs.microsoft.com/microsoft-365/compliance/" rel="noopener"><g transform="translate(560,-1856)"><rect x="0" y="2128" width="592" height="48" rx="8" ry="8" class="bf"/><text x="170.47" y="2157.4" class="bg">Microsoft 365 A5 Compliance</text></g></a><a target="_blank" href="https://docs.microsoft.com/microsoft-365/compliance/apply-sensitivity-label-automatically" rel="noopener"><g transform="translate(720,-1312)"><rect x="0" y="2096" width="96" height="80" rx="8" ry="8" class="z"/><text x="8.63" y="2124.3" class="be">Rules-Based <tspan x="5.74" dy="1.2em" class="o">Classification</tspan><tspan x="12.6" dy="1.2em" class="o">(Office 365)</tspan></text></g></a><a target="_blank" href="https://docs.microsoft.com/azure/information-protection/deploy-aip-scanner" rel="noopener"><g transform="translate(720,-912)"><rect x="0" y="2096" width="96" height="80" rx="8" ry="8" class="ba"/><text x="8.63" y="2116.5" class="be">Rules-Based <tspan x="5.74" dy="1.2em" class="o">Classification </tspan><tspan x="8.64" dy="1.2em" class="o">(AIP Client &amp; </tspan><tspan x="20.18" dy="1.2em" class="o">Scanner)</tspan></text></g></a><a target="_blank" href="https://www.microsoft.com/cloud-platform/enterprise-mobility-security" rel="noopener"><g transform="translate(-768,1552) rotate(-90)"><rect x="0" y="2112" width="416" height="64" rx="8" ry="8" class="n"/><text x="11.57" y="2138" class="m">Enterprise Mobility + Security A5 Step-up <tspan x="124.11" dy="1.2em" class="o">(EMS A5 Step</tspan>-up)</text></g></a><a target="_blank" href="https://www.microsoft.com/windowsforbusiness" rel="noopener"><g transform="translate(-768,1984) rotate(-90)"><rect x="0" y="2112" width="400" height="64" rx="8" ry="8" class="p"/><text x="100.56" y="2150" class="m">Windows A5 Step-up</text></g></a><a target="_blank" href="https://docs.microsoft.com/office365/servicedescriptions/office-365-platform-service-description/office-365-education" rel="noopener"><g transform="translate(-768,1104) rotate(-90)"><rect x="0" y="2112" width="560" height="64" rx="8" ry="8" class="q"/><text x="176.64" y="2150" class="m">Office 365 A5 Step-up</text></g></a><g transform="translate(608,3400) rotate(180)"><path d="M11.12 2176 L11.48 2176 L100.52 2176" class="bh"/></g><g transform="translate(160,-224)"><rect x="0" y="1840" width="352" height="336" rx="8" ry="8" class="bi"/></g><a target="_blank" href="https://docs.microsoft.com/microsoft-365/security/defender-endpoint/microsoft-defender-endpoint" rel="noopener"><g transform="translate(160,-224)"><rect x="0" y="2128" width="352" height="48" rx="8" ry="8" class="r"/><text x="18.11" y="2156.2" class="y">Microsoft Defender for Endpoint Plan 2 Step-up</text></g></a><a target="_blank" href="https://docs.microsoft.com/windows/security/threat-protection/windows-defender-atp/automated-investigations-windows-defender-advanced-threat-protection" rel="noopener"><g transform="translate(288,-464)"><rect x="0" y="2096" width="96" height="80" rx="8" ry="8" class="bj"/><text x="11.45" y="2123.4" class="x">Automated <tspan x="4.83" dy="1.2em" class="o">Investigation </tspan><tspan x="7.55" dy="1.2em" class="o">&amp; Response</tspan></text></g></a><a target="_blank" href="https://docs.microsoft.com/windows/security/threat-protection/windows-defender-atp/overview-hunting-windows-defender-advanced-threat-protection" rel="noopener"><g transform="translate(176,-464)"><rect x="0" y="2096" width="96" height="80" rx="8" ry="8" class="bj"/><text x="14.55" y="2131.8" class="x">Advanced <tspan x="21.57" dy="1.2em" class="o">Hunting</tspan></text></g></a><a target="_blank" href="https://docs.microsoft.com/windows/security/threat-protection/windows-defender-atp/overview-endpoint-detection-response" rel="noopener"><g transform="translate(400,-464)"><rect x="0" y="2096" width="96" height="80" rx="8" ry="8" class="bj"/><text x="17.68" y="2123.4" class="x">Endpoint <tspan x="9.11" dy="1.2em" class="o">Detection &amp; </tspan><tspan x="14.55" dy="1.2em" class="o">Response</tspan></text></g></a><a target="_blank" href="https://docs.microsoft.com/windows/security/threat-protection/windows-defender-atp/microsoft-threat-experts" rel="noopener"><g transform="translate(288,-368)"><rect x="0" y="2096" width="96" height="80" rx="8" ry="8" class="bj"/><text x="16.5" y="2123.4" class="x">Microsoft <tspan x="26.61" dy="1.2em" class="o">Threat </tspan><tspan x="22.32" dy="1.2em" class="o">Experts</tspan></text></g></a><a target="_blank" href="https://docs.microsoft.com/windows/security/threat-protection/microsoft-defender-atp/evaluation-lab" rel="noopener"><g transform="translate(176,-368)"><rect x="0" y="2096" width="96" height="80" rx="8" ry="8" class="bj"/><text x="12.6" y="2131.8" class="x">Evaluation <tspan x="35.56" dy="1.2em" class="o">Lab</tspan></text></g></a><a target="_blank" href="https://www.microsoft.com/security/blog/2019/01/17/windows-defender-atp-integrates-with-microsoft-information-protection-to-discover-protect-and-monitor-sensitive-data-on-windows-devices/" rel="noopener"><g transform="translate(400,-368)"><rect x="0" y="2096" width="96" height="80" rx="8" ry="8" class="bj"/><text x="35.56" y="2131.8" class="x">MIP <tspan x="11.83" dy="1.2em" class="o">Integration</tspan></text></g></a><a target="_blank" href="https://docs.microsoft.com/windows/security/threat-protection/microsoft-defender-atp/next-gen-threat-and-vuln-mgt" rel="noopener"><g transform="translate(288,-272)"><rect x="0" y="2096" width="96" height="80" rx="8" ry="8" class="bj"/><text x="19.61" y="2123.4" class="x">Threat &amp; <tspan x="5.99" dy="1.2em" class="o">Vulnerability </tspan><tspan x="5.21" dy="1.2em" class="o">Management</tspan></text></g></a><a target="_blank" href="https://docs.microsoft.com/windows/security/threat-protection/windows-defender-atp/threat-analytics" rel="noopener"><g transform="translate(176,-272)"><rect x="0" y="2096" width="96" height="80" rx="8" ry="8" class="bj"/><text x="26.61" y="2131.8" class="x">Threat <tspan x="16.88" dy="1.2em" class="o">Analytics</tspan></text></g></a><a target="_blank" href="https://docs.microsoft.com/microsoft-365/security/defender-endpoint/data-storage-privacy#how-long-will-microsoft-store-my-data-what-is-microsofts-data-retention-policy" rel="noopener"><g transform="translate(400,-272)"><rect x="0" y="2096" width="96" height="80" rx="8" ry="8" class="bj"/><text x="16.89" y="2123.4" class="x">6-Months <tspan x="10.65" dy="1.2em" class="o">Searchable </tspan><tspan x="32.83" dy="1.2em" class="o">Data</tspan></text></g></a></g></svg>