<?xml version="1.0" encoding="utf-8" standalone="no"?>
<!DOCTYPE svg PUBLIC "-//W3C//DTD SVG 1.1//EN" "http://www.w3.org/Graphics/SVG/1.1/DTD/svg11.dtd"[]>
<!-- Generated by Microsoft Visio, SVG Export Microsoft 365 Enterprise - E5.svg E5 -->
<svg xmlns="http://www.w3.org/2000/svg" xmlns:xlink="http://www.w3.org/1999/xlink" xmlns:ev="http://www.w3.org/2001/xml-events" width="29.5276in" height="18.5039in" viewBox="0 0 2125.98 1332.28" xml:space="preserve" color-interpolation-filters="sRGB" class="st37">
	<title>Microsoft 365 Enterprise</title>

	<style type="text/css">
	<![CDATA[
		.st1 {fill:#a5a5a5;fill-opacity:0.2;stroke:#c00000;stroke-dasharray:33.75,20.25;stroke-linecap:round;stroke-linejoin:round;stroke-width:2.25}
		.st2 {fill:#c00000;stroke:#c00000;stroke-linecap:round;stroke-linejoin:round;stroke-width:2.25}
		.st3 {fill:#ffffff;font-family:Segoe UI;font-size:1.5em;font-weight:bold}
		.st4 {fill:#a5a5a5;fill-opacity:0.2;stroke:#267226;stroke-dasharray:33.75,20.25;stroke-linecap:round;stroke-linejoin:round;stroke-width:2.25}
		.st5 {fill:#267226;stroke:#267226;stroke-linecap:round;stroke-linejoin:round;stroke-width:2.25}
		.st6 {fill:#a5a5a5;fill-opacity:0.2;stroke:#00b0f0;stroke-dasharray:33.75,20.25;stroke-linecap:round;stroke-linejoin:round;stroke-width:2.25}
		.st7 {fill:#00b0f0;stroke:#00b0f0;stroke-linecap:round;stroke-linejoin:round;stroke-width:2.25}
		.st8 {font-size:1em}
		.st9 {fill:#a5a5a5;fill-opacity:0.2;stroke:#431d5f;stroke-linecap:round;stroke-linejoin:round;stroke-width:2.25}
		.st10 {fill:#431d5f;stroke:#431d5f;stroke-linecap:round;stroke-linejoin:round;stroke-width:2.25}
		.st11 {fill:#a5a5a5;fill-opacity:0.2;stroke:#312c43;stroke-linecap:round;stroke-linejoin:round;stroke-width:2.25}
		.st12 {fill:#312c43;stroke:#312c43;stroke-linecap:round;stroke-linejoin:round;stroke-width:2.25}
		.st13 {fill:#ffffff;font-family:Segoe UI;font-size:1.16666em;font-weight:bold}
		.st14 {fill:#d8d8d8;fill-opacity:0.5;stroke:#c00000;stroke-dasharray:2.25,4.5;stroke-linecap:round;stroke-linejoin:round;stroke-width:2.25}
		.st15 {fill:#d8d8d8;fill-opacity:0.5;stroke:#194d19;stroke-dasharray:2.25,4.5;stroke-linecap:round;stroke-linejoin:round;stroke-width:2.25}
		.st16 {fill:#d8d8d8;fill-opacity:0.5;stroke:#0070c0;stroke-dasharray:2.25,4.5;stroke-linecap:round;stroke-linejoin:round;stroke-width:2.25}
		.st17 {fill:none;stroke:none;stroke-linecap:round;stroke-linejoin:round;stroke-width:0.75}
		.st18 {fill:#000000;font-family:Segoe UI;font-size:1.00001em;font-weight:bold}
		.st19 {font-size:0.83333em}
		.st20 {fill:#a5a5a5;fill-opacity:0.2;stroke:#494264;stroke-dasharray:2.25,4.5;stroke-linecap:round;stroke-linejoin:round;stroke-width:2.25}
		.st21 {fill:#494264;stroke:#494264;stroke-linecap:round;stroke-linejoin:round;stroke-width:2.25}
		.st22 {fill:#ffffff;font-family:Segoe UI;font-size:1.00001em;font-weight:bold}
		.st23 {fill:#a5a5a5;fill-opacity:0.2;stroke:#c00000;stroke-dasharray:15.75,11.25;stroke-linecap:round;stroke-linejoin:round;stroke-width:2.25}
		.st24 {fill:#e65802;stroke:none;stroke-linecap:round;stroke-linejoin:round;stroke-width:0.5}
		.st25 {fill:#ffffff;font-family:Segoe UI;font-size:0.958328em;font-weight:bold}
		.st26 {font-size:1.04349em}
		.st27 {fill:#0070c0;stroke:none;stroke-linecap:round;stroke-linejoin:round;stroke-width:0.5}
		.st28 {fill:#0d5071;stroke:none;stroke-linecap:round;stroke-linejoin:round;stroke-width:0.5}
		.st29 {marker-end:url(#mrkr5-168);marker-start:url(#mrkr5-166);stroke:#0d5071;stroke-dasharray:2.25,4.5;stroke-linecap:round;stroke-linejoin:round;stroke-width:2.25}
		.st30 {fill:#0d5071;fill-opacity:1;stroke:#0d5071;stroke-opacity:1;stroke-width:0.47169811320755}
		.st31 {fill:#494264;stroke:none;stroke-linecap:round;stroke-linejoin:round;stroke-width:0.5}
		.st32 {fill:#494264;stroke:none;stroke-linecap:round;stroke-linejoin:round;stroke-width:4.5}
		.st33 {fill:#194c19;stroke:none;stroke-linecap:round;stroke-linejoin:round;stroke-width:0.5}
		.st34 {fill:#000000;font-family:Segoe UI;font-size:4.00001em;font-weight:bold}
		.st35 {fill:#000000;font-family:Segoe UI;font-size:1.99999em;font-weight:bold}
		.st36 {fill:#0070c0;font-family:Segoe UI;font-size:1.16666em;font-weight:bold}
		.st37 {fill:none;fill-rule:evenodd;font-size:12px;overflow:visible;stroke-linecap:square;stroke-miterlimit:3}
	]]>
	</style>

	<defs id="Markers">
		<g id="lend5">
			<path d="M 2 1 L 0 0 L 1.98117 -0.993387 C 1.67173 -0.364515 1.67301 0.372641 1.98465 1.00043 " style="stroke:none" />
		</g>
		<marker id="mrkr5-166" class="st30" refX="3.55" orient="auto" markerUnits="strokeWidth" overflow="visible">
			<use xlink:href="#lend5" transform="scale(2.12) " />
		</marker>
		<marker id="mrkr5-168" class="st30" refX="-3.71" orient="auto" markerUnits="strokeWidth" overflow="visible">
			<use xlink:href="#lend5" transform="scale(-2.12,-2.12) " />
		</marker>
	</defs>
	<g>
		
		<g id="shape1009-1" transform="translate(368.504,-28.3465)">
			
			<rect x="0" y="198.425" width="538.583" height="1133.86" rx="8.50394" ry="8.50394" class="st1" />
		</g>
		<a xlink:href="https://docs.microsoft.com/office365/enterprise/" xlink:title="Office 365 Enterprise">
			<g id="shape1010-3" transform="translate(368.504,-28.3465)">
				<title>Office 365 E5</title>
				
				<rect x="0" y="1275.59" width="538.583" height="56.6929" rx="8.50394" ry="8.50394" class="st2" />
				<text x="213.36" y="1309.34" class="st3">Office 365 E5</text>			</g>
		</a>
		<g id="shape1011-6" transform="translate(1403.15,-28.3465)">
			
			<rect x="0" y="198.425" width="538.583" height="1133.86" rx="8.50394" ry="8.50394" class="st4" />
		</g>
		<a xlink:href="https://www.microsoft.com/windowsforbusiness" xlink:title="Windows 10">
			<g id="shape1012-8" transform="translate(1403.15,-28.3465)">
				<title>Windows 10 E5</title>
				
				<rect x="0" y="1275.59" width="538.583" height="56.6929" rx="8.50394" ry="8.50394" class="st5" />
				<text x="204.75" y="1309.34" class="st3">Windows 10 E5</text>			</g>
		</a>
		<g id="shape1013-11" transform="translate(935.433,-28.3465)">
			
			<rect x="0" y="198.425" width="439.37" height="1133.86" rx="8.50394" ry="8.50394" class="st6" />
		</g>
		<a xlink:href="https://www.microsoft.com/cloud-platform/enterprise-mobility-security" xlink:title="Enterprise Mobility + Security">
			<g id="shape1014-13" transform="translate(935.433,-28.3465)">
				<title>Enterprise Mobility + Security E5 (EMS E5)</title>
				
				<rect x="0" y="1275.59" width="439.37" height="56.6929" rx="8.50394" ry="8.50394" class="st7" />
				<text x="80.81" y="1298.54" class="st3">Enterprise Mobility + Security E5<tspan x="182.14" dy="1.2em" class="st8">(EMS E5)</tspan></text>			</g>
		</a>
		<a xlink:href="https://docs.microsoft.com/office365/enterprise/" xlink:title="Office 365 Enterprise">
			<g id="shape1058-17" transform="translate(368.504,-1105.51)">
				<title>Office 365 E5</title>
				
				<rect x="0" y="1275.59" width="538.583" height="56.6929" rx="8.50394" ry="8.50394" class="st2" />
				<text x="213.36" y="1309.34" class="st3">Office 365 E5</text>			</g>
		</a>
		<a xlink:href="https://www.microsoft.com/windowsforbusiness" xlink:title="Windows 10">
			<g id="shape1059-20" transform="translate(1403.15,-1105.51)">
				<title>Windows 10 E5</title>
				
				<rect x="0" y="1275.59" width="538.583" height="56.6929" rx="8.50394" ry="8.50394" class="st5" />
				<text x="204.75" y="1309.34" class="st3">Windows 10 E5</text>			</g>
		</a>
		<a xlink:href="https://www.microsoft.com/cloud-platform/enterprise-mobility-security" xlink:title="Enterprise Mobility + Security">
			<g id="shape1060-23" transform="translate(935.433,-1105.51)">
				<title>Enterprise Mobility + Security E5 (EMS E5)</title>
				
				<rect x="0" y="1275.59" width="439.37" height="56.6929" rx="8.50394" ry="8.50394" class="st7" />
				<text x="80.81" y="1298.54" class="st3">Enterprise Mobility + Security E5<tspan x="182.14" dy="1.2em" class="st8">(EMS E5)</tspan></text>			</g>
		</a>
		<g id="shape1061-27" transform="translate(765.354,1218.9) rotate(-90)">
			
			<rect x="0" y="-737.008" width="963.78" height="2069.29" rx="8.50394" ry="8.50394" class="st9" />
		</g>
		<a xlink:href="https://www.microsoft.com/microsoft-365/compare-all-microsoft-365-plans" xlink:title="Microsoft 365 Plans">
			<g id="shape1062-29" transform="translate(765.354,1218.9) rotate(-90)">
				<title>Microsoft 365 E5</title>
				
				<rect x="0" y="1275.59" width="963.78" height="56.6929" rx="8.50394" ry="8.50394" class="st10" />
				<text x="410.44" y="1309.34" class="st3">Microsoft 365 E5</text>			</g>
		</a>
		<g id="shape1063-32" transform="translate(680.315,1190.55) rotate(-90)">
			
			<path d="M14.17 1332.28 L325.98 1332.28 A14.173 14.173 -180 0 0 340.16 1318.11 L340.16 -552.76 A14.173 14.173 -180 0        0 325.98 -566.93 L14.17 -566.93 A14.173 14.173 -180 0 0 0 -552.76 L0 1318.11 A14.173 14.173 -180 0 0 14.17        1332.28 Z" class="st11" />
		</g>
		<g id="shape1064-34" transform="translate(680.315,822.047) rotate(-90)">
			
			<path d="M14.17 1332.28 L425.2 1332.28 A14.173 14.173 -180 0 0 439.37 1318.11 L439.37 -552.76 A14.173 14.173 -180 0 0        425.2 -566.93 L14.17 -566.93 A14.173 14.173 -180 0 0 0 -552.76 L0 1318.11 A14.173 14.173 -180 0 0 14.17        1332.28 Z" class="st11" />
		</g>
		<a xlink:href="https://www.microsoft.com/en-us/microsoft-365/blog/2019/01/02/introducing-new-advanced-security-and-compliance-offerings-for-microsoft-365/" xlink:title="New Security and Compliance Suites">
			<g id="shape1065-36" transform="translate(-1176.38,1190.55) rotate(-90)">
				<title>Microsoft 365 E5 Security</title>
				
				<rect x="0" y="1289.76" width="340.157" height="42.5197" rx="8.50394" ry="8.50394" class="st12" />
				<text x="86" y="1315.22" class="st13">Microsoft 365 E5 Security</text>			</g>
		</a>
		<a xlink:href="https://www.microsoft.com/en-us/microsoft-365/blog/2019/01/02/introducing-new-advanced-security-and-compliance-offerings-for-microsoft-365/" xlink:title="New Security and Compliance Suites">
			<g id="shape1066-39" transform="translate(-1176.38,822.047) rotate(-90)">
				<title>Microsoft 365 E5 Compliance</title>
				
				<rect x="0" y="1289.76" width="439.37" height="42.5197" rx="8.50394" ry="8.50394" class="st12" />
				<text x="123.65" y="1315.22" class="st13">Microsoft 365 E5 Compliance</text>			</g>
		</a>
		<a xlink:href="https://www.microsoft.com/en-us/microsoft-365/blog/2019/01/02/introducing-new-advanced-security-and-compliance-offerings-for-microsoft-365/" xlink:title="New Security and Compliance Suites">
			<g id="shape1067-42" transform="translate(680.315,1190.55) rotate(-90)">
				<title>Microsoft 365 E5 Security</title>
				
				<rect x="0" y="1289.76" width="340.157" height="42.5197" rx="8.50394" ry="8.50394" class="st12" />
				<text x="86" y="1315.22" class="st13">Microsoft 365 E5 Security</text>			</g>
		</a>
		<a xlink:href="https://www.microsoft.com/en-us/microsoft-365/blog/2019/01/02/introducing-new-advanced-security-and-compliance-offerings-for-microsoft-365/" xlink:title="New Security and Compliance Suites">
			<g id="shape1068-45" transform="translate(680.315,822.047) rotate(-90)">
				<title>Microsoft 365 E5 Compliance</title>
				
				<rect x="0" y="1289.76" width="439.37" height="42.5197" rx="8.50394" ry="8.50394" class="st12" />
				<text x="123.65" y="1315.22" class="st13">Microsoft 365 E5 Compliance</text>			</g>
		</a>
		<a xlink:href="https://www.microsoft.com/microsoft-365/compare-all-microsoft-365-plans" xlink:title="Microsoft 365 Plans">
			<g id="shape1069-48" transform="translate(-1247.24,1218.9) rotate(-90)">
				<title>Microsoft 365 E5</title>
				
				<rect x="0" y="1275.59" width="963.78" height="56.6929" rx="8.50394" ry="8.50394" class="st10" />
				<text x="410.44" y="1309.34" class="st3">Microsoft 365 E5</text>			</g>
		</a>
		<g id="shape1070-51" transform="translate(382.677,-155.906)">
			
			<path d="M14.17 1332.28 L496.06 1332.28 A14.173 14.173 -180 0 0 510.24 1318.11 L510.24 1034.65 A14.173 14.173 -180 0        0 496.06 1020.47 L14.17 1020.47 A14.173 14.173 -180 0 0 -0 1034.65 L0 1318.11 A14.173 14.173 -180 0 0 14.17        1332.28 Z" class="st14" />
		</g>
		<g id="shape1071-53" transform="translate(1417.32,-155.906)">
			
			<path d="M14.17 1332.28 L496.06 1332.28 A14.173 14.173 -180 0 0 510.24 1318.11 L510.24 1048.82 A14.173 14.173 -180 0        0 496.06 1034.65 L14.17 1034.65 A14.173 14.173 -180 0 0 0 1048.82 L0 1318.11 A14.173 14.173 -180 0 0 14.17        1332.28 Z" class="st15" />
		</g>
		<g id="shape1072-55" transform="translate(1048.82,-240.945)">
			
			<path d="M14.17 1332.28 L297.64 1332.28 A14.173 14.173 -180 0 0 311.81 1318.11 L311.81 1133.86 A14.173 14.173 -180 0        0 297.64 1119.69 L14.17 1119.69 A14.173 14.173 -180 0 0 0 1133.86 L0 1318.11 A14.173 14.173 -180 0 0 14.17        1332.28 Z" class="st16" />
		</g>
		<a xlink:href="https://azure.microsoft.com/services/active-directory/" xlink:title="Azure Active Directory Premium Plan 2">
			<g id="shape1073-57" transform="translate(1048.82,-240.945)">
				<title>Azure AD Premium Plan 2 (includes Plan 1 features)</title>
				
				<rect x="0" y="1289.76" width="311.167" height="42.5197" class="st17" />
				<text x="82.62" y="1307.42" class="st18">Azure AD Premium Plan 2<tspan x="96.2" dy="1.44em" class="st19">(includes Plan 1 features)</tspan></text>			</g>
		</a>
		<g id="shape1074-61" transform="translate(56.6929,807.874) rotate(-90)">
			
			<path d="M12.28 1332.28 L171.97 1332.28 A12.2832 12.2832 -180 0 0 184.25 1320 L184.25 139.84 A12.2832 12.2832 -180 0        0 171.97 127.56 L12.28 127.56 A12.2832 12.2832 -180 0 0 0 139.84 L0 1320 A12.2832 12.2832 -180 0 0 12.28        1332.28 Z" class="st20" />
		</g>
		<a xlink:href="https://docs.microsoft.com/microsoft-365/compliance/microsoft-365-solution-catalog#information-protection--governance-section" xlink:title="Information Protection &amp; Governance">
			<g id="shape1075-63" transform="translate(-1105.51,807.874) rotate(-90)">
				<title>Information Protection &amp; Governance</title>
				
				<rect x="0" y="1289.76" width="184.252" height="42.5197" rx="8.50394" ry="8.50394" class="st21" />
				<text x="20.23" y="1307.42" class="st22">Information Protection &amp; <tspan x="58.69" dy="1.2em" class="st8">Governance</tspan></text>			</g>
		</a>
		<g id="shape1076-67" transform="translate(-411.024,609.449) rotate(-90)">
			
			<path d="M12.4 1332.28 L86.81 1332.28 A12.4014 12.4014 -180 0 0 99.21 1319.88 L99.21 607.68 A12.4014 12.4014 -180 0 0        86.81 595.28 L12.4 595.28 A12.4014 12.4014 -180 0 0 -0 607.68 L0 1319.88 A12.4014 12.4014 -180 0 0 12.4        1332.28 Z" class="st20" />
		</g>
		<a xlink:href="https://docs.microsoft.com/office365/servicedescriptions/microsoft-365-service-descriptions/microsoft-365-tenantlevel-services-licensing-guidance/microsoft-365-security-compliance-licensing-guidance#insider-risk-management" xlink:title="Insider Risk Management Licensing">
			<g id="shape1077-69" transform="translate(-1105.51,609.449) rotate(-90)">
				<title>Insider Risk Management</title>
				
				<rect x="0" y="1289.76" width="99.2126" height="42.5197" rx="8.50394" ry="8.50394" class="st21" />
				<text x="17.11" y="1307.42" class="st22">Insider Risk <tspan x="12.11" dy="1.2em" class="st8">Management</tspan></text>			</g>
		</a>
		<g id="shape1078-73" transform="translate(-411.024,496.063) rotate(-90)">
			
			<path d="M12.4 1332.28 L86.81 1332.28 A12.4014 12.4014 -180 0 0 99.21 1319.88 L99.21 607.68 A12.4014 12.4014 -180 0 0        86.81 595.28 L12.4 595.28 A12.4014 12.4014 -180 0 0 -0 607.68 L0 1319.88 A12.4014 12.4014 -180 0 0 12.4        1332.28 Z" class="st20" />
		</g>
		<a xlink:href="https://docs.microsoft.com/microsoft-365/compliance/microsoft-365-solution-catalog#discovery--response-section" xlink:title="eDiscovery &amp; Audit">
			<g id="shape1079-75" transform="translate(-1105.51,496.063) rotate(-90)">
				<title>eDiscovery &amp; Audit</title>
				
				<rect x="0" y="1289.76" width="99.2126" height="42.5197" rx="8.50394" ry="8.50394" class="st21" />
				<text x="12.18" y="1307.42" class="st22">eDiscovery &amp; <tspan x="34" dy="1.2em" class="st8">Audit</tspan></text>			</g>
		</a>
		<g id="shape1080-79" transform="translate(595.276,-198.425)">
			
			<path d="M15.75 1332.28 L267.72 1332.28 A15.7478 15.7478 -180 0 0 283.46 1316.54 L283.46 1092.91 A15.7478 15.7478 -180        0 0 267.72 1077.17 L15.75 1077.17 A15.7478 15.7478 -180 0 0 -0 1092.91 L0 1316.54 A15.7478 15.7478 -180        0 0 15.75 1332.28 Z" class="st23" />
		</g>
		<a xlink:href="https://docs.microsoft.com/microsoft-365/security/office-365-security/atp-safe-links" xlink:title="Safe Links">
			<g id="shape1081-81" transform="translate(609.449,-382.677)">
				<title>Safe Links</title>
				
				<rect x="0" y="1275.59" width="255.118" height="56.6929" rx="8.50394" ry="8.50394" class="st24" />
				<text x="99.37" y="1307.54" class="st22">Safe Links</text>			</g>
		</a>
		<a xlink:href="https://docs.microsoft.com/microsoft-365/security/office-365-security/atp-safe-attachments" xlink:title="Safe Attachments">
			<g id="shape1082-84" transform="translate(609.449,-311.811)">
				<title>Safe Attachments</title>
				
				<rect x="0" y="1275.59" width="255.118" height="56.6929" rx="8.50394" ry="8.50394" class="st24" />
				<text x="77.81" y="1307.54" class="st22">Safe Attachments</text>			</g>
		</a>
		<a xlink:href="https://docs.microsoft.com/microsoft-365/security/office-365-security/atp-anti-phishing" xlink:title="Anti-Phishing">
			<g id="shape1083-87" transform="translate(609.449,-240.945)">
				<title>Anti-Phishing</title>
				
				<rect x="0" y="1275.59" width="255.118" height="56.6929" rx="8.50394" ry="8.50394" class="st24" />
				<text x="88.94" y="1307.54" class="st22">Anti-Phishing</text>			</g>
		</a>
		<a xlink:href="https://docs.microsoft.com/office365/securitycompliance/attack-simulator" xlink:title="Attack Simulator">
			<g id="shape1084-90" transform="translate(396.85,-368.504)">
				<title>Attack Simulator</title>
				
				<rect x="0" y="1261.42" width="85.0394" height="70.8661" rx="8.50394" ry="8.50394" class="st24" />
				<text x="24.17" y="1293.25" class="st22">Attack <tspan x="15" dy="1.2em" class="st8">Simulator</tspan></text>			</g>
		</a>
		<a xlink:href="https://docs.microsoft.com/microsoft-365/security/office-365-security/automated-investigation-response-office" xlink:title="Automated Investigation and Response">
			<g id="shape1085-94" transform="translate(496.063,-368.504)">
				<title>Automated Investigation &amp; Response</title>
				
				<rect x="0" y="1261.42" width="85.0394" height="70.8661" rx="8.50394" ry="8.50394" class="st24" />
				<text x="10.65" y="1286.05" class="st22">Automated <tspan x="5.53" dy="1.2em" class="st8">Investigation </tspan><tspan x="9.06" dy="1.2em" class="st8">&amp; Response</tspan></text>			</g>
		</a>
		<a xlink:href="https://docs.microsoft.com/microsoft-365/security/office-365-security/campaigns" xlink:title="Campaign Views">
			<g id="shape1086-99" transform="translate(396.85,-283.465)">
				<title>Campaign Views</title>
				
				<rect x="0" y="1261.42" width="85.0394" height="70.8661" rx="8.50394" ry="8.50394" class="st24" />
				<text x="14.05" y="1293.25" class="st22">Campaign <tspan x="26.14" dy="1.2em" class="st8">Views</tspan></text>			</g>
		</a>
		<a xlink:href="https://docs.microsoft.com/microsoft-365/security/office-365-security/threat-explorer" xlink:title="Threat Explorer">
			<g id="shape1087-103" transform="translate(396.85,-198.425)">
				<title>Threat Explorer</title>
				
				<rect x="0" y="1261.42" width="85.0394" height="70.8661" rx="8.50394" ry="8.50394" class="st24" />
				<text x="24.19" y="1293.25" class="st22">Threat <tspan x="18.9" dy="1.2em" class="st8">Explorer</tspan></text>			</g>
		</a>
		<a xlink:href="https://docs.microsoft.com/office365/securitycompliance/threat-trackers" xlink:title="Threat Trackers">
			<g id="shape1088-107" transform="translate(496.063,-198.425)">
				<title>Threat Trackers</title>
				
				<rect x="0" y="1261.42" width="85.0394" height="70.8661" rx="8.50394" ry="8.50394" class="st24" />
				<text x="24.19" y="1293.25" class="st22">Threat <tspan x="18.88" dy="1.2em" class="st8">Trackers</tspan></text>			</g>
		</a>
		<a xlink:href="https://docs.microsoft.com/microsoft-365/security/office-365-security/address-compromised-users-quickly" xlink:title="Compromised User Detection">
			<g id="shape1089-111" transform="translate(496.063,-283.465)">
				<title>Compromised User Detection</title>
				
				<rect x="0" y="1261.42" width="85.0394" height="70.8661" rx="8.50394" ry="8.50394" class="st24" />
				<text x="4.68" y="1285.9" class="st25">Compromised <tspan x="29.91" dy="1.187em" class="st26">User </tspan><tspan x="15.05" dy="1.2em" class="st26">Detection</tspan></text>			</g>
		</a>
		<a xlink:href="https://docs.microsoft.com/office365/servicedescriptions/office-365-advanced-threat-protection-service-description#feature-availability-across-advanced-threat-protection-atp-plans" xlink:title="Microsoft Defender for Office 365 Plan 1">
			<g id="shape1090-116" transform="translate(595.276,-198.425)">
				<title>Microsoft Defender for Office 365 Plan 1</title>
				
				<rect x="0" y="1289.76" width="283.465" height="42.5196" class="st17" />
				<text x="26.89" y="1314.62" class="st18">Microsoft Defender for Office 365 Plan 1</text>			</g>
		</a>
		<a xlink:href="https://docs.microsoft.com/office365/servicedescriptions/office-365-advanced-threat-protection-service-description#feature-availability-across-advanced-threat-protection-atp-plans" xlink:title="Microsoft Defender for Office 365 Plan 2">
			<g id="shape1091-119" transform="translate(382.677,-155.906)">
				<title>Microsoft Defender for Office 365 Plan 2</title>
				
				<rect x="0" y="1289.76" width="481.89" height="42.5196" class="st17" />
				<text x="126.1" y="1314.62" class="st18">Microsoft Defender for Office 365 Plan 2</text>			</g>
		</a>
		<a xlink:href="https://docs.microsoft.com/azure/active-directory/identity-protection/overview" xlink:title="Azure Identity Protection">
			<g id="shape1092-122" transform="translate(1162.2,-368.504)">
				<title>Azure Identity Protection</title>
				
				<rect x="0" y="1261.42" width="85.0394" height="70.8661" rx="8.50394" ry="8.50394" class="st27" />
				<text x="26.16" y="1286.05" class="st22">Azure <tspan x="20.42" dy="1.2em" class="st8">Identity </tspan><tspan x="12.98" dy="1.2em" class="st8">Protection</tspan></text>			</g>
		</a>
		<a xlink:href="https://docs.microsoft.com/azure/active-directory/active-directory-privileged-identity-management-configure" xlink:title="Privileged Identity Management">
			<g id="shape1093-127" transform="translate(1062.99,-283.465)">
				<title>Privileged Identity Management</title>
				
				<rect x="0" y="1261.42" width="85.0394" height="70.8661" rx="8.50394" ry="8.50394" class="st27" />
				<text x="14.16" y="1286.05" class="st22">Privileged <tspan x="20.42" dy="1.2em" class="st8">Identity </tspan><tspan x="5.02" dy="1.2em" class="st8">Management</tspan></text>			</g>
		</a>
		<a xlink:href="https://docs.microsoft.com/en-us/azure/active-directory/active-directory-azure-ad-controls-access-reviews-overview" xlink:title="Access Reviews">
			<g id="shape1094-132" transform="translate(1062.99,-368.504)">
				<title>Access Reviews</title>
				
				<rect x="0" y="1261.42" width="85.0394" height="70.8661" rx="8.50394" ry="8.50394" class="st27" />
				<text x="24.02" y="1293.25" class="st22">Access <tspan x="19.73" dy="1.2em" class="st8">Reviews</tspan></text>			</g>
		</a>
		<a xlink:href="https://docs.microsoft.com/azure/active-directory/active-directory-conditional-access-conditions#sign-in-risk" xlink:title="Risk-Based Conditional Access">
			<g id="shape1095-136" transform="translate(1162.2,-283.465)">
				<title>Risk-Based Conditional Access</title>
				
				<rect x="0" y="1261.42" width="85.0394" height="70.8661" rx="8.50394" ry="8.50394" class="st27" />
				<text x="11.8" y="1286.05" class="st22">Risk-Based <tspan x="9.79" dy="1.2em" class="st8">Conditional </tspan><tspan x="24.02" dy="1.2em" class="st8">Access</tspan></text>			</g>
		</a>
		<a xlink:href="https://docs.microsoft.com/azure/active-directory/governance/entitlement-management-overview" xlink:title="Entitlement Management">
			<g id="shape1096-141" transform="translate(1261.42,-368.504)">
				<title>Entitlement Management</title>
				
				<rect x="0" y="1261.42" width="85.0394" height="70.8661" rx="8.50394" ry="8.50394" class="st27" />
				<text x="9.66" y="1293.25" class="st22">Entitlement <tspan x="5.02" dy="1.2em" class="st8">Management</tspan></text>			</g>
		</a>
		<a xlink:href="https://www.microsoft.com/cloud-platform/cloud-app-security" xlink:title="Microsoft Cloud App Security">
			<g id="shape1097-145" transform="translate(949.606,-368.504)">
				<title>Microsoft Cloud App Security</title>
				
				<rect x="0" y="1261.42" width="85.0394" height="70.8661" rx="8.50394" ry="8.50394" class="st28" />
				<text x="15.19" y="1286.05" class="st22">Microsoft <tspan x="12.74" dy="1.2em" class="st8">Cloud App </tspan><tspan x="19.74" dy="1.2em" class="st8">Security</tspan></text>			</g>
		</a>
		<a xlink:href="https://www.microsoft.com/microsoft-365/security/identity-defender" xlink:title="Microsoft Defender for Identity">
			<g id="shape1098-150" transform="translate(949.606,-283.465)">
				<title>Microsoft Defender for Identity</title>
				
				<rect x="0" y="1261.42" width="85.0394" height="70.8661" rx="8.50394" ry="8.50394" class="st28" />
				<text x="15.19" y="1286.05" class="st22">Microsoft <tspan x="6.31" dy="1.2em" class="st8">Defender for </tspan><tspan x="20.42" dy="1.2em" class="st8">Identity</tspan></text>			</g>
		</a>
		<a xlink:href="https://www.microsoft.com/cloud-platform/cloud-app-security" xlink:title="Microsoft Cloud App Security">
			<g id="shape1099-155" transform="translate(949.606,-538.583)">
				<title>Microsoft Cloud App Security</title>
				
				<rect x="0" y="1261.42" width="85.0394" height="70.8661" rx="8.50394" ry="8.50394" class="st28" />
				<text x="15.19" y="1286.05" class="st22">Microsoft <tspan x="12.74" dy="1.2em" class="st8">Cloud App </tspan><tspan x="19.74" dy="1.2em" class="st8">Security</tspan></text>			</g>
		</a>
		<g id="shape1100-160" transform="translate(999.213,-439.37)">
			
			<path d="M-7.09 1324.3 L-7.09 1323.94 L-7.09 1241.42" class="st29" />
		</g>
		<a xlink:href="https://docs.microsoft.com/windows/security/threat-protection/windows-defender-atp/windows-defender-advanced-threat-protection" xlink:title="Microsoft Defender Advanced Threat Protection">
			<g id="shape1113-169" transform="translate(1417.32,-155.906)">
				<title>Microsoft Defender for Endpoint</title>
				
				<rect x="0" y="1289.76" width="510.236" height="42.5197" class="st17" />
				<text x="162.68" y="1314.62" class="st18">Microsoft Defender for Endpoint</text>			</g>
		</a>
		<a xlink:href="https://docs.microsoft.com/microsoft-365/compliance/classifier-learn-about" xlink:title="Trainable Classifiers">
			<g id="shape1114-172" transform="translate(255.118,-538.583)">
				<title>Trainable Classifiers (preview)</title>
				
				<rect x="0" y="1261.42" width="85.0394" height="70.8661" rx="8.50394" ry="8.50394" class="st31" />
				<text x="16.15" y="1286.05" class="st22">Trainable <tspan x="14.58" dy="1.2em" class="st8">Classifiers </tspan><tspan x="15.75" dy="1.2em" class="st8">(preview)</tspan></text>			</g>
		</a>
		<a xlink:href="https://techcommunity.microsoft.com/t5/microsoft-security-and/announcing-public-preview-of-microsoft-endpoint-data-loss/ba-p/1534085" xlink:title="Endpoint DLP">
			<g id="shape1115-177" transform="translate(255.118,-623.622)">
				<title>Endpoint DLP</title>
				
				<rect x="0" y="1261.42" width="85.0394" height="70.8661" rx="8.50394" ry="8.50394" class="st32" />
				<text x="4.09" y="1300.45" class="st22">Endpoint DLP</text>			</g>
		</a>
		<a xlink:href="https://docs.microsoft.com/microsoft-365/security/office-365-security/install-app-guard" xlink:title="Application Guard for Office">
			<g id="shape1116-180" transform="translate(255.118,-368.504)">
				<title>Application Guard for Office (preview)</title>
				
				<rect x="0" y="1261.42" width="85.0394" height="70.8661" rx="8.50394" ry="8.50394" class="st31" />
				<text x="10" y="1278.85" class="st22">Application <tspan x="15.28" dy="1.2em" class="st8">Guard for </tspan><tspan x="25.54" dy="1.2em" class="st8">Office </tspan><tspan x="15.75" dy="1.2em" class="st8">(preview)</tspan></text>			</g>
		</a>
		<a xlink:href="https://docs.microsoft.com/microsoft-365/security/office-365-security/safe-docs" xlink:title="Safe Documents">
			<g id="shape1117-186" transform="translate(255.118,-198.425)">
				<title>Safe Documents</title>
				
				<rect x="0" y="1261.42" width="85.0394" height="70.8661" rx="8.50394" ry="8.50394" class="st31" />
				<text x="30.38" y="1293.25" class="st22">Safe <tspan x="10.57" dy="1.2em" class="st8">Documents</tspan></text>			</g>
		</a>
		<a xlink:href="https://docs.microsoft.com/windows/security/threat-protection/microsoft-defender-atp/microsoft-defender-atp-mac" xlink:title="Microsoft Defender for Endpoint for Mac">
			<g id="shape1118-190" transform="translate(255.118,-283.465)">
				<title>Defender for Endpoint (Mac)</title>
				
				<rect x="0" y="1261.42" width="85.0394" height="70.8661" rx="8.50394" ry="8.50394" class="st31" />
				<text x="6.31" y="1286.05" class="st22">Defender for <tspan x="16.92" dy="1.2em" class="st8">Endpoint </tspan><tspan x="26.24" dy="1.2em" class="st8">(Mac)</tspan></text>			</g>
		</a>
		<a xlink:href="https://support.office.com/article/f2cd475a-e592-46cf-80a3-1bfb0fa17697" xlink:title="Customer Key">
			<g id="shape1119-195" transform="translate(496.063,-623.622)">
				<title>Customer Key</title>
				
				<rect x="0" y="1261.42" width="85.0394" height="70.8661" rx="8.50394" ry="8.50394" class="st24" />
				<text x="15.37" y="1293.25" class="st22">Customer <tspan x="32.15" dy="1.2em" class="st8">Key</tspan></text>			</g>
		</a>
		<a xlink:href="https://docs.microsoft.com/office365/securitycompliance/data-loss-prevention-policies#policy-evaluation-in-microsoft-teams" xlink:title="Teams DLP">
			<g id="shape1120-199" transform="translate(496.063,-538.583)">
				<title>Teams Data Loss Prevention</title>
				
				<rect x="0" y="1261.42" width="85.0394" height="70.8661" rx="8.50394" ry="8.50394" class="st24" />
				<text x="24.39" y="1286.05" class="st22">Teams<tspan x="15.63" dy="1.2em" class="st8">Data Loss </tspan><tspan x="11.73" dy="1.2em" class="st8">Prevention</tspan></text>			</g>
		</a>
		<a xlink:href="https://techcommunity.microsoft.com/t5/Security-Privacy-and-Compliance/Announcing-Office-365-Advanced-Message-Encryption/ba-p/502440" xlink:title="Advanced Message Encryption">
			<g id="shape1121-204" transform="translate(396.85,-623.622)">
				<title>Advanced Message Encryption</title>
				
				<rect x="0" y="1261.42" width="85.0394" height="70.8661" rx="8.50394" ry="8.50394" class="st24" />
				<text x="14.63" y="1286.05" class="st22">Advanced <tspan x="18.06" dy="1.2em" class="st8">Message </tspan><tspan x="12.14" dy="1.2em" class="st8">Encryption</tspan></text>			</g>
		</a>
		<a xlink:href="https://techcommunity.microsoft.com/t5/security-privacy-and-compliance/integrated-and-intelligent-data-governance-with-microsoft-365/ba-p/969849" xlink:title="Advanced Data Governance">
			<g id="shape1122-209" transform="translate(694.488,-623.622)">
				<title>Information Governance</title>
				
				<rect x="0" y="1261.42" width="85.0394" height="70.8661" rx="8.50394" ry="8.50394" class="st24" />
				<text x="8.57" y="1293.25" class="st22">Information <tspan x="9.09" dy="1.2em" class="st8">Governance</tspan></text>			</g>
		</a>
		<a xlink:href="https://docs.microsoft.com/microsoft-365/compliance/records-management" xlink:title="Records Management">
			<g id="shape1123-213" transform="translate(793.701,-623.622)">
				<title>Records Management</title>
				
				<rect x="0" y="1261.42" width="85.0394" height="70.8661" rx="8.50394" ry="8.50394" class="st24" />
				<text x="20.07" y="1293.25" class="st22">Records <tspan x="5.02" dy="1.2em" class="st8">Management</tspan></text>			</g>
		</a>
		<a xlink:href="https://azure.microsoft.com/pricing/details/information-protection/" xlink:title="Rules-Based Classification for Office 365">
			<g id="shape1124-217" transform="translate(396.85,-538.583)">
				<title>Rules-Based Classification (Office 365)</title>
				
				<rect x="0" y="1261.42" width="85.0394" height="70.8661" rx="8.50394" ry="8.50394" class="st24" />
				<text x="8.28" y="1286.05" class="st22">Rules-Based <tspan x="5.41" dy="1.2em" class="st8">Classification</tspan><tspan x="9.1" dy="1.2em" class="st8">(Office 365)</tspan></text>			</g>
		</a>
		<a xlink:href="https://techcommunity.microsoft.com/t5/microsoft-security-and/announcing-public-preview-of-double-key-encryption-for-microsoft/ba-p/1534451" xlink:title="Double Key Encryption">
			<g id="shape1125-222" transform="translate(595.276,-623.622)">
				<title>Double Key Encryption</title>
				
				<rect x="0" y="1261.42" width="85.0394" height="70.8661" rx="8.50394" ry="8.50394" class="st24" />
				<text x="10.1" y="1293.25" class="st22">Double Key <tspan x="12.14" dy="1.2em" class="st8">Encryption</tspan></text>			</g>
		</a>
		<a xlink:href="https://azure.microsoft.com/services/information-protection/" xlink:title="Azure Information Protection Plan 2">
			<g id="shape1126-226" transform="translate(949.606,-623.622)">
				<title>Rules-Based Classification (AIP Client &amp; Scanner)</title>
				
				<rect x="0" y="1261.42" width="85.0394" height="70.8661" rx="8.50394" ry="8.50394" class="st28" />
				<text x="8.28" y="1278.85" class="st22">Rules-Based <tspan x="5.41" dy="1.2em" class="st8">Classification </tspan><tspan x="5.73" dy="1.2em" class="st8">(AIP Client &amp; </tspan><tspan x="17.94" dy="1.2em" class="st8">Scanner)</tspan></text>			</g>
		</a>
		<a xlink:href="https://docs.microsoft.com/microsoft-365/compliance/insider-risk-management" xlink:title="Insider Risk Management">
			<g id="shape1127-232" transform="translate(255.118,-737.008)">
				<title>Insider Risk Management</title>
				
				<rect x="0" y="1261.42" width="85.0394" height="70.8661" rx="8.50394" ry="8.50394" class="st31" />
				<text x="10.02" y="1293.25" class="st22">Insider Risk <tspan x="5.02" dy="1.2em" class="st8">Management</tspan></text>			</g>
		</a>
		<a xlink:href="https://support.office.com/article/36f9cdd1-e64c-421b-a7e4-4a54d16440a2" xlink:title="Customer Lockbox">
			<g id="shape1128-236" transform="translate(496.063,-737.008)">
				<title>Customer Lockbox</title>
				
				<rect x="0" y="1261.42" width="85.0394" height="70.8662" rx="8.50394" ry="8.50394" class="st24" />
				<text x="15.37" y="1293.25" class="st22">Customer <tspan x="18.85" dy="1.2em" class="st8">Lockbox</tspan></text>			</g>
		</a>
		<a xlink:href="https://techcommunity.microsoft.com/t5/Security-Privacy-and-Compliance/Announcing-preview-of-privileged-access-management-in-Office-365/ba-p/183743" xlink:title="Office 365 Privileged Access Management">
			<g id="shape1129-240" transform="translate(694.488,-737.008)">
				<title>Privileged Access Management</title>
				
				<rect x="0" y="1261.42" width="85.0394" height="70.8661" rx="8.50394" ry="8.50394" class="st24" />
				<text x="14.16" y="1286.05" class="st22">Privileged <tspan x="24.02" dy="1.2em" class="st8">Access </tspan><tspan x="5.02" dy="1.2em" class="st8">Management</tspan></text>			</g>
		</a>
		<a xlink:href="https://techcommunity.microsoft.com/t5/Microsoft-Teams-Blog/Information-Barriers-Preview/ba-p/505536" xlink:title="Information Barriers">
			<g id="shape1130-245" transform="translate(595.276,-737.008)">
				<title>Information Barriers</title>
				
				<rect x="0" y="1261.42" width="85.0394" height="70.8661" rx="8.50394" ry="8.50394" class="st24" />
				<text x="8.57" y="1293.25" class="st22">Information <tspan x="20.69" dy="1.2em" class="st8">Barriers</tspan></text>			</g>
		</a>
		<a xlink:href="https://docs.microsoft.com/microsoft-365/compliance/communication-compliance" xlink:title="Communication Compliance">
			<g id="shape1131-249" transform="translate(396.85,-737.008)">
				<title>Comm Compliance</title>
				
				<rect x="0" y="1261.42" width="85.0394" height="70.8661" rx="8.50394" ry="8.50394" class="st24" />
				<text x="24.12" y="1293.25" class="st22">Comm <tspan x="9.5" dy="1.2em" class="st8">Compliance</tspan></text>			</g>
		</a>
		<a xlink:href="https://support.office.com/article/2e5fbe9f-ee4d-4178-8ff8-4356bc1b168e" xlink:title="Advanced eDiscovery">
			<g id="shape1132-253" transform="translate(496.063,-850.394)">
				<title>Advanced eDiscovery</title>
				
				<rect x="0" y="1261.42" width="85.0394" height="70.8661" rx="8.50394" ry="8.50394" class="st24" />
				<text x="14.63" y="1293.25" class="st22">Advanced <tspan x="11.84" dy="1.2em" class="st8">eDiscovery</tspan></text>			</g>
		</a>
		<a xlink:href="https://docs.microsoft.com/microsoft-365/compliance/advanced-audit" xlink:title="Advanced Audit">
			<g id="shape1133-257" transform="translate(396.85,-850.394)">
				<title>Advanced Audit</title>
				
				<rect x="0" y="1261.42" width="85.0394" height="70.8661" rx="8.50394" ry="8.50394" class="st24" />
				<text x="14.63" y="1293.25" class="st22">Advanced <tspan x="26.92" dy="1.2em" class="st8">Audit</tspan></text>			</g>
		</a>
		<a xlink:href="https://docs.microsoft.com/MicrosoftTeams/what-is-phone-system-in-office-365" xlink:title="Phone System">
			<g id="shape1134-261" transform="translate(793.701,-977.953)">
				<title>Phone System</title>
				
				<rect x="0" y="1261.42" width="85.0394" height="70.8661" rx="8.50394" ry="8.50394" class="st24" />
				<text x="24.68" y="1293.25" class="st22">Phone <tspan x="22.21" dy="1.2em" class="st8">System</tspan></text>			</g>
		</a>
		<a xlink:href="https://docs.microsoft.com/microsoftteams/audio-conferencing-in-office-365" xlink:title="Audio Conferencing">
			<g id="shape1135-265" transform="translate(396.85,-977.953)">
				<title>Audio Conferencing</title>
				
				<rect x="0" y="1261.42" width="85.0394" height="70.8661" rx="8.50394" ry="8.50394" class="st24" />
				<text x="25.58" y="1293.25" class="st22">Audio <tspan x="4.74" dy="1.2em" class="st8">Conferencing</tspan></text>			</g>
		</a>
		<a xlink:href="https://docs.microsoft.com/power-bi/service-get-started" xlink:title="Power BI Pro">
			<g id="shape1136-269" transform="translate(694.488,-977.953)">
				<title>Power BI Pro</title>
				
				<rect x="0" y="1261.42" width="85.0394" height="70.8661" rx="8.50394" ry="8.50394" class="st24" />
				<text x="5.95" y="1300.45" class="st22">Power BI Pro</text>			</g>
		</a>
		<a xlink:href="https://docs.microsoft.com/office365/servicedescriptions/mya-service-description" xlink:title="MyAnalytics (Full)">
			<g id="shape1137-272" transform="translate(496.063,-977.953)">
				<title>MyAnalytics (Full)</title>
				
				<rect x="0" y="1261.42" width="85.0394" height="70.8661" rx="8.50394" ry="8.50394" class="st24" />
				<text x="7.98" y="1293.25" class="st22">MyAnalytics <tspan x="27.93" dy="1.2em" class="st8">(Full)</tspan></text>			</g>
		</a>
		<a xlink:href="https://docs.microsoft.com/cloud-app-security/editions-cloud-app-security-o365" xlink:title="Office 365 Cloud App Security">
			<g id="shape1138-276" transform="translate(595.276,-977.953)">
				<title>Office 365 Cloud App Security</title>
				
				<rect x="0" y="1261.42" width="85.0394" height="70.8661" rx="8.50394" ry="8.50394" class="st24" />
				<text x="13.53" y="1286.05" class="st22">Office 365 <tspan x="12.74" dy="1.2em" class="st8">Cloud App </tspan><tspan x="19.74" dy="1.2em" class="st8">Security</tspan></text>			</g>
		</a>
		<a xlink:href="https://docs.microsoft.com/windows/security/threat-protection/windows-defender-atp/automated-investigations-windows-defender-advanced-threat-protection" xlink:title="Automated Investigation and Response">
			<g id="shape1139-281" transform="translate(1530.71,-368.504)">
				<title>Automated Investigation &amp; Response</title>
				
				<rect x="0" y="1261.42" width="85.0394" height="70.8661" rx="8.50394" ry="8.50394" class="st33" />
				<text x="10.65" y="1286.05" class="st22">Automated <tspan x="5.53" dy="1.2em" class="st8">Investigation </tspan><tspan x="9.06" dy="1.2em" class="st8">&amp; Response</tspan></text>			</g>
		</a>
		<a xlink:href="https://docs.microsoft.com/windows/security/threat-protection/windows-defender-atp/overview-hunting-windows-defender-advanced-threat-protection" xlink:title="Advanced Hunting">
			<g id="shape1140-286" transform="translate(1431.5,-368.504)">
				<title>Advanced Hunting</title>
				
				<rect x="0" y="1261.42" width="85.0394" height="70.8661" rx="8.50394" ry="8.50394" class="st33" />
				<text x="14.63" y="1293.25" class="st22">Advanced <tspan x="19.28" dy="1.2em" class="st8">Hunting</tspan></text>			</g>
		</a>
		<a xlink:href="https://docs.microsoft.com/cloud-app-security/wdatp-integration" xlink:title="Cloud App Security Integration">
			<g id="shape1141-290" transform="translate(1729.13,-368.504)">
				<title>Cloud App Security Integration</title>
				
				<rect x="0" y="1261.42" width="85.0394" height="70.8661" rx="8.50394" ry="8.50394" class="st33" />
				<text x="12.74" y="1286.05" class="st22">Cloud App <tspan x="19.74" dy="1.2em" class="st8">Security </tspan><tspan x="10.74" dy="1.2em" class="st8">Integration</tspan></text>			</g>
		</a>
		<a xlink:href="https://docs.microsoft.com/windows/security/threat-protection/microsoft-defender-atp/microsoft-defender-atp-android" xlink:title="Microsoft Defender for Endpoint for Android">
			<g id="shape1142-295" transform="translate(1828.35,-368.504)">
				<title>Defender for Endpoint (Android)</title>
				
				<rect x="0" y="1261.42" width="85.0394" height="70.8661" rx="8.50394" ry="8.50394" class="st33" />
				<text x="6.31" y="1286.05" class="st22">Defender for <tspan x="16.92" dy="1.2em" class="st8">Endpoint </tspan><tspan x="15.05" dy="1.2em" class="st8">(Android)</tspan></text>			</g>
		</a>
		<a xlink:href="https://docs.microsoft.com/windows/security/threat-protection/windows-defender-atp/overview-endpoint-detection-response" xlink:title="Endpoint Detection and Response">
			<g id="shape1143-300" transform="translate(1530.71,-283.465)">
				<title>Endpoint Detection &amp; Response</title>
				
				<rect x="0" y="1261.42" width="85.0394" height="70.8661" rx="8.50394" ry="8.50394" class="st33" />
				<text x="16.92" y="1286.05" class="st22">Endpoint <tspan x="8.3" dy="1.2em" class="st8">Detection &amp; </tspan><tspan x="15.81" dy="1.2em" class="st8">Response</tspan></text>			</g>
		</a>
		<a xlink:href="https://docs.microsoft.com/windows/security/threat-protection/microsoft-defender-atp/microsoft-defender-atp-ios" xlink:title="Microsoft Defender for Endpoint for iOS">
			<g id="shape1144-305" transform="translate(1431.5,-283.465)">
				<title>Defender for Endpoint (iOS)</title>
				
				<rect x="0" y="1261.42" width="85.0394" height="70.8661" rx="8.50394" ry="8.50394" class="st33" />
				<text x="6.31" y="1286.05" class="st22">Defender for <tspan x="16.92" dy="1.2em" class="st8">Endpoint </tspan><tspan x="28.47" dy="1.2em" class="st8">(iOS)</tspan></text>			</g>
		</a>
		<a xlink:href="https://docs.microsoft.com/windows/security/threat-protection/windows-defender-atp/microsoft-threat-experts" xlink:title="Microsoft Threat Experts">
			<g id="shape1145-310" transform="translate(1729.13,-283.465)">
				<title>Microsoft Threat Experts</title>
				
				<rect x="0" y="1261.42" width="85.0394" height="70.8661" rx="8.50394" ry="8.50394" class="st33" />
				<text x="15.19" y="1286.05" class="st22">Microsoft <tspan x="24.19" dy="1.2em" class="st8">Threat </tspan><tspan x="21.68" dy="1.2em" class="st8">Experts</tspan></text>			</g>
		</a>
		<a xlink:href="https://docs.microsoft.com/windows/security/threat-protection/microsoft-defender-atp/evaluation-lab" xlink:title="Evaluation Lab">
			<g id="shape1146-315" transform="translate(1629.92,-283.465)">
				<title>Evaluation Lab</title>
				
				<rect x="0" y="1261.42" width="85.0394" height="70.8661" rx="8.50394" ry="8.50394" class="st33" />
				<text x="12.94" y="1293.25" class="st22">Evaluation <tspan x="32.5" dy="1.2em" class="st8">Lab</tspan></text>			</g>
		</a>
		<a xlink:href="https://www.microsoft.com/security/blog/2019/01/17/windows-defender-atp-integrates-with-microsoft-information-protection-to-discover-protect-and-monitor-sensitive-data-on-windows-devices/" xlink:title="MIP Integration">
			<g id="shape1147-319" transform="translate(1828.35,-283.465)">
				<title>MIP Integration</title>
				
				<rect x="0" y="1261.42" width="85.0394" height="70.8661" rx="8.50394" ry="8.50394" class="st33" />
				<text x="31.19" y="1293.25" class="st22">MIP <tspan x="10.74" dy="1.2em" class="st8">Integration</tspan></text>			</g>
		</a>
		<a xlink:href="https://docs.microsoft.com/windows/security/threat-protection/microsoft-defender-atp/next-gen-threat-and-vuln-mgt" xlink:title="Threat and Vulnerability Management">
			<g id="shape1148-323" transform="translate(1629.92,-198.425)">
				<title>Threat &amp; Vulnerability Management</title>
				
				<rect x="0" y="1261.42" width="85.0394" height="70.8661" rx="8.50394" ry="8.50394" class="st33" />
				<text x="17.44" y="1286.05" class="st22">Threat &amp; <tspan x="6.29" dy="1.2em" class="st8">Vulnerability </tspan><tspan x="5.02" dy="1.2em" class="st8">Management</tspan></text>			</g>
		</a>
		<a xlink:href="https://docs.microsoft.com/windows/security/threat-protection/microsoft-defender-atp/web-content-filtering" xlink:title="Web Content Filtering">
			<g id="shape1149-328" transform="translate(1729.13,-198.425)">
				<title>Web Content Filtering</title>
				
				<rect x="0" y="1261.42" width="85.0394" height="70.8661" rx="8.50394" ry="8.50394" class="st33" />
				<text x="5.28" y="1293.25" class="st22">Web Content <tspan x="18.97" dy="1.2em" class="st8">Filtering</tspan></text>			</g>
		</a>
		<a xlink:href="https://docs.microsoft.com/windows/security/threat-protection/windows-defender-atp/threat-analytics" xlink:title="Threat Analytics">
			<g id="shape1150-332" transform="translate(1530.71,-198.425)">
				<title>Threat Analytics</title>
				
				<rect x="0" y="1261.42" width="85.0394" height="70.8661" rx="8.50394" ry="8.50394" class="st33" />
				<text x="24.19" y="1293.25" class="st22">Threat <tspan x="16.95" dy="1.2em" class="st8">Analytics</tspan></text>			</g>
		</a>
		<a xlink:href="https://docs.microsoft.com/windows/security/threat-protection/microsoft-defender-antivirus/prevent-changes-to-security-settings-with-tamper-protection" xlink:title="Tamper Protection">
			<g id="shape1151-336" transform="translate(1431.5,-198.425)">
				<title>Tamper Protection</title>
				
				<rect x="0" y="1261.42" width="85.0394" height="70.8661" rx="8.50394" ry="8.50394" class="st33" />
				<text x="20.92" y="1293.25" class="st22">Tamper <tspan x="12.98" dy="1.2em" class="st8">Protection</tspan></text>			</g>
		</a>
		<a xlink:href="https://docs.microsoft.com/windows/security/threat-protection/microsoft-defender-antivirus/configure-block-at-first-sight-microsoft-defender-antivirus" xlink:title="Block at First Sight">
			<g id="shape1152-340" transform="translate(1629.92,-368.504)">
				<title>Block at First Sight</title>
				
				<rect x="0" y="1261.42" width="85.0394" height="70.8661" rx="8.50394" ry="8.50394" class="st33" />
				<text x="6" y="1293.25" class="st22">Block at First <tspan x="27.79" dy="1.2em" class="st8">Sight</tspan></text>			</g>
		</a>
		<g id="shape1153-344" transform="translate(28.3465,-1247.24)">
			
			<desc>Microsoft 365 E5</desc>
			<rect x="0" y="1275.59" width="2069.29" height="56.6929" class="st17" />
			<text x="844.11" y="1318.34" class="st34">Microsoft 365 E5</text>		</g>
		<g id="shape1154-347" transform="translate(28.3465,-1218.9)">
			
			<desc>December 2020</desc>
			<rect x="0" y="1303.94" width="2069.29" height="28.3465" class="st17" />
			<text x="946.43" y="1325.31" class="st35">December 2020</text>		</g>
		<a xlink:href="https://twitter.com/AaronDinnage" xlink:title="Twitter">
			<g id="shape1155-350" transform="translate(28.3465,-1190.55)">
				<title>@AaronDinnage</title>
				
				<rect x="0" y="1303.94" width="2069.29" height="28.3465" class="st17" />
				<text x="980.47" y="1322.31" class="st36">@AaronDinnage</text>			</g>
		</a>
	</g>
</svg>