<svg xmlns="http://www.w3.org/2000/svg" xmlns:xlink="http://www.w3.org/1999/xlink" width="2288" height="1280" viewBox="0 0 2288 1280" class="a"><style>
.c {fill:#a5a5a5;fill-opacity:0.2;stroke:#442060;stroke-linecap:round;stroke-linejoin:round;stroke-width:2.25}
.d {fill:#a5a5a5;fill-opacity:0.2;stroke:#303040;stroke-linecap:round;stroke-linejoin:round;stroke-width:2.25}
.e {fill:#a5a5a5;fill-opacity:0.2;stroke:#006600;stroke-dasharray:33.75,20.25;stroke-linecap:round;stroke-linejoin:round;stroke-width:2.25}
.f {fill:#a5a5a5;fill-opacity:0.2;stroke:#2080a0;stroke-dasharray:33.75,20.25;stroke-linecap:round;stroke-linejoin:round;stroke-width:2.25}
.g {fill:#a5a5a5;fill-opacity:0.2;stroke:#e82200;stroke-dasharray:33.75,20.25;stroke-linecap:round;stroke-linejoin:round;stroke-width:2.25}
.h {fill:#a5a5a5;fill-opacity:0.2;stroke:#d04a00;stroke-dasharray:2.25,4.5;stroke-linecap:round;stroke-linejoin:round;stroke-width:2.25}
.i {fill:#a5a5a5;fill-opacity:0.2;stroke:#d04a00;stroke-dasharray:15.75,11.25;stroke-linecap:round;stroke-linejoin:round;stroke-width:2.25}
.j {fill:#a5a5a5;fill-opacity:0.2;stroke:#0050c0;stroke-dasharray:2.25,4.5;stroke-linecap:round;stroke-linejoin:round;stroke-width:2.25}
.k {fill:#442060;stroke:#442060;stroke-linecap:round;stroke-linejoin:round;stroke-width:2.25}
.l {fill:#ffffff;font-family:Arial;font-size:1.66667em;font-weight:bold}
.m {fill:#e82200;stroke:#e82200;stroke-linecap:round;stroke-linejoin:round;stroke-width:2.25}
.n {fill:#006600;stroke:#006600;stroke-linecap:round;stroke-linejoin:round;stroke-width:2.25}
.o {fill:#2080a0;stroke:#2080a0;stroke-linecap:round;stroke-linejoin:round;stroke-width:2.25}
.p {font-size:1em}
.q {fill:none;stroke:none;stroke-linecap:round;stroke-linejoin:round;stroke-width:1}
.r {fill:#0070f7;font-family:Arial;font-size:4.00001em;font-weight:bold}
.s {fill:none;stroke:none;stroke-linecap:round;stroke-linejoin:round;stroke-width:0.75}
.t {fill:#0070f7;font-family:Arial;font-size:2.50001em;font-weight:bold}
.u {fill:#0070f7;font-family:Arial;font-size:1.5em;font-weight:bold}
.v {fill:#d04a00;stroke:none;stroke-linecap:round;stroke-linejoin:round;stroke-width:1}
.w {fill:#ffffff;font-family:Arial;font-size:1.16666em;font-weight:bold}
.x {fill:#ffffff;font-family:Arial;font-size:1.08334em;font-weight:bold}
.y {fill:#000000;font-family:Arial;font-size:1.16666em;font-weight:bold}
.z {fill:#0050c0;stroke:none;stroke-linecap:round;stroke-linejoin:round;stroke-width:1}
.ba {fill:#105868;stroke:none;stroke-linecap:round;stroke-linejoin:round;stroke-width:1}
.bb {fill:#504060;stroke:none;stroke-linecap:round;stroke-linejoin:round;stroke-width:1}
.bc {fill:#303040;stroke:#303040;stroke-linecap:round;stroke-linejoin:round;stroke-width:2.25}
.bd {fill:#ffffff;font-family:Arial;font-size:1.5em;font-weight:bold}
.be {marker-end:url(#mrkr4-243);marker-start:url(#mrkr4-241);stroke:#105868;stroke-dasharray:5,2.5;stroke-linecap:butt;stroke-width:2.5}
.b {fill:#105868;fill-opacity:1;stroke:#105868;stroke-opacity:1;stroke-width:0.43554006968641}
.bf {fill:#e82200;stroke:none;stroke-linecap:round;stroke-linejoin:round;stroke-width:1}
.bg {fill:#a5a5a5;fill-opacity:0.2;stroke:#004400;stroke-dasharray:2.25,4.5;stroke-linecap:round;stroke-linejoin:round;stroke-width:2.25}
.bh {fill:#004400;stroke:none;stroke-linecap:round;stroke-linejoin:round;stroke-width:1}
.a {fill:none;fill-rule:evenodd;font-size:12px;overflow:visible;stroke-linecap:square;stroke-miterlimit:3}
</style><defs><g id="lend4"><path d="M 2 1 L 0 0 L 2 -1 L 2 1 " style="stroke:none"/></g><marker id="mrkr4-241" class="b" refX="4.448" orient="auto" markerUnits="strokeWidth" overflow="visible"><use xlink:href="#lend4" transform="scale(2.296) "/></marker><marker id="mrkr4-243" class="b" refX="-4.592" orient="auto" markerUnits="strokeWidth" overflow="visible"><use xlink:href="#lend4" transform="scale(-2.296,-2.296) "/></marker></defs><g><g transform="translate(992,1168) rotate(-90)"><rect x="0" y="-976" width="896" height="2256" rx="8" ry="8" class="c"/></g><g transform="translate(112,-144)"><rect x="0" y="912" width="2064" height="368" rx="8" ry="8" class="d"/></g><g transform="translate(112,-544)"><rect x="0" y="848" width="2064" height="432" rx="8" ry="8" class="d"/></g><g transform="translate(1488,-16)"><rect x="0" y="192" width="608" height="1088" rx="8" ry="8" class="e"/></g><g transform="translate(960,-16)"><rect x="0" y="192" width="496" height="1088" rx="8" ry="8" class="f"/></g><g transform="translate(320,-16)"><rect x="0" y="192" width="608" height="1088" rx="8" ry="8" class="g"/></g><g transform="translate(336,-160)"><rect x="0" y="944" width="576" height="336" rx="8" ry="8" class="h"/></g><g transform="translate(576,-240)"><rect x="0" y="1040" width="320" height="240" rx="8" ry="8" class="i"/></g><g transform="translate(1088,-256)"><rect x="0" y="1040" width="352" height="240" rx="8" ry="8" class="j"/></g><a target="_blank" href="https://www.microsoft.com/microsoft-365/compare-all-microsoft-365-plans" rel="noopener"><g transform="translate(-1200,1168) rotate(-90)"><rect x="0" y="1216" width="896" height="64" rx="8" ry="8" class="k"/><text x="258.77" y="1254" class="l">Microsoft 365 F5 Security + Compliance</text></g></a><a target="_blank" href="https://www.microsoft.com/microsoft-365/compare-all-microsoft-365-plans" rel="noopener"><g transform="translate(992,1168) rotate(-90)"><rect x="0" y="1216" width="896" height="64" rx="8" ry="8" class="k"/><text x="258.77" y="1254" class="l">Microsoft 365 F5 Security + Compliance</text></g></a><a target="_blank" href="https://docs.microsoft.com/office365/enterprise/" rel="noopener"><g transform="translate(320,-1040)"><rect x="0" y="1216" width="608" height="64" rx="8" ry="8" class="m"/><text x="256.2" y="1254" class="l">Office 365</text></g></a><a target="_blank" href="https://www.microsoft.com/windowsforbusiness" rel="noopener"><g transform="translate(1488,-1040)"><rect x="0" y="1216" width="608" height="64" rx="8" ry="8" class="n"/><text x="260.12" y="1254" class="l">Windows</text></g></a><a target="_blank" href="https://docs.microsoft.com/office365/enterprise/" rel="noopener"><g transform="translate(320,-16)"><rect x="0" y="1216" width="608" height="64" rx="8" ry="8" class="m"/><text x="256.2" y="1254" class="l">Office 365</text></g></a><a target="_blank" href="https://www.microsoft.com/windowsforbusiness" rel="noopener"><g transform="translate(1488,-16)"><rect x="0" y="1216" width="608" height="64" rx="8" ry="8" class="n"/><text x="260.12" y="1254" class="l">Windows</text></g></a><a target="_blank" href="https://www.microsoft.com/cloud-platform/enterprise-mobility-security" rel="noopener"><g transform="translate(960,-1040)"><rect x="0" y="1216" width="496" height="64" rx="8" ry="8" class="o"/><text x="107.13" y="1242" class="l">Enterprise Mobility + Security <tspan x="219.67" dy="1.2em" class="p">(EMS)</tspan></text></g></a><a target="_blank" href="https://www.microsoft.com/cloud-platform/enterprise-mobility-security" rel="noopener"><g transform="translate(960,-16)"><rect x="0" y="1216" width="496" height="64" rx="8" ry="8" class="o"/><text x="107.13" y="1242" class="l">Enterprise Mobility + Security <tspan x="219.67" dy="1.2em" class="p">(EMS)</tspan></text></g></a><a target="_blank" href="https://m365maps.com/" rel="noopener"><g transform="translate(16,-1200)"><rect x="0" y="1216" width="2256" height="64" rx="8" ry="8" class="q"/><text x="673.85" y="1262.4" class="r">Microsoft 365 F5 Security + Compliance</text></g></a><g transform="translate(16,-1168)"><rect x="0" y="1248" width="2256" height="32" class="s"/><text x="1032.95" y="1273" class="t">October 2021</text></g><a target="_blank" href="https://m365maps.com/" rel="noopener"><g transform="translate(16,-1136)"><rect x="0" y="1248" width="2256" height="32" class="q"/><text x="1060.46" y="1269.4" class="u">m365maps.com</text></g></a><a target="_blank" href="https://docs.microsoft.com/microsoft-365/security/office-365-security/atp-safe-links" rel="noopener"><g transform="translate(592,-288)"><rect x="0" y="1248" width="288" height="32" rx="8" ry="8" class="v"/><text x="108.99" y="1268.2" class="w">Safe Links</text></g></a><a target="_blank" href="https://docs.microsoft.com/microsoft-365/security/office-365-security/atp-safe-attachments" rel="noopener"><g transform="translate(592,-336)"><rect x="0" y="1248" width="288" height="32" rx="8" ry="8" class="v"/><text x="84.87" y="1268.2" class="w">Safe Attachments</text></g></a><a target="_blank" href="https://docs.microsoft.com/microsoft-365/security/office-365-security/atp-anti-phishing" rel="noopener"><g transform="translate(592,-432)"><rect x="0" y="1248" width="288" height="32" rx="8" ry="8" class="v"/><text x="98.51" y="1268.2" class="w">Anti-Phishing</text></g></a><a target="_blank" href="https://docs.microsoft.com/microsoft-365/security/office-365-security/attack-simulation-training-get-started" rel="noopener"><g transform="translate(352,-400)"><rect x="0" y="1200" width="96" height="80" rx="8" ry="8" class="v"/><text x="26.6" y="1227.4" class="w">Attack <tspan x="12.22" dy="1.2em" class="p">Simulation </tspan><tspan x="20.39" dy="1.2em" class="p">Training</tspan></text></g></a><a target="_blank" href="https://docs.microsoft.com/microsoft-365/security/office-365-security/automated-investigation-response-office" rel="noopener"><g transform="translate(464,-400)"><rect x="0" y="1200" width="96" height="80" rx="8" ry="8" class="v"/><text x="11.45" y="1227.4" class="w">Automated <tspan x="4.83" dy="1.2em" class="p">Investigation </tspan><tspan x="7.55" dy="1.2em" class="p">&amp; Response</tspan></text></g></a><a target="_blank" href="https://docs.microsoft.com/microsoft-365/security/office-365-security/campaigns" rel="noopener"><g transform="translate(352,-304)"><rect x="0" y="1200" width="96" height="80" rx="8" ry="8" class="v"/><text x="14.16" y="1235.8" class="w">Campaign <tspan x="28.16" dy="1.2em" class="p">Views</tspan></text></g></a><a target="_blank" href="https://docs.microsoft.com/microsoft-365/security/office-365-security/threat-explorer" rel="noopener"><g transform="translate(352,-208)"><rect x="0" y="1200" width="96" height="80" rx="8" ry="8" class="v"/><text x="26.61" y="1235.8" class="w">Threat <tspan x="19.6" dy="1.2em" class="p">Explorer</tspan></text></g></a><a target="_blank" href="https://docs.microsoft.com/office365/securitycompliance/threat-trackers" rel="noopener"><g transform="translate(464,-208)"><rect x="0" y="1200" width="96" height="80" rx="8" ry="8" class="v"/><text x="26.61" y="1235.8" class="w">Threat <tspan x="18.81" dy="1.2em" class="p">Trackers</tspan></text></g></a><a target="_blank" href="https://docs.microsoft.com/microsoft-365/security/office-365-security/address-compromised-users-quickly" rel="noopener"><g transform="translate(464,-304)"><rect x="0" y="1200" width="96" height="80" rx="8" ry="8" class="v"/><text x="4.3" y="1228.3" class="x">Compromised <tspan x="33.55" dy="1.2em" class="p">User </tspan><tspan x="18.38" dy="1.2em" class="p">Detection</tspan></text></g></a><a target="_blank" href="https://docs.microsoft.com/office365/servicedescriptions/office-365-advanced-threat-protection-service-description#feature-availability-across-advanced-threat-protection-atp-plans" rel="noopener"><g transform="translate(576,-240)"><rect x="0" y="1232" width="320" height="48" rx="8" ry="8" class="q"/><text x="26.97" y="1260.2" class="y">Microsoft Defender for Office 365 Plan 1</text></g></a><a target="_blank" href="https://docs.microsoft.com/office365/servicedescriptions/office-365-advanced-threat-protection-service-description#feature-availability-across-advanced-threat-protection-atp-plans" rel="noopener"><g transform="translate(336,-160)"><rect x="0" y="1232" width="576" height="48" rx="8" ry="8" class="q"/><text x="154.97" y="1260.2" class="y">Microsoft Defender for Office 365 Plan 2</text></g></a><a target="_blank" href="https://azure.microsoft.com/pricing/details/active-directory/" rel="noopener"><g transform="translate(1088,-256)"><rect x="0" y="1232" width="352" height="48" rx="8" ry="8" class="q"/><text x="62.04" y="1260.2" class="y">Azure AD Premium Plan 2 Step-up</text></g></a><a target="_blank" href="https://docs.microsoft.com/azure/active-directory/identity-protection/overview" rel="noopener"><g transform="translate(1216,-400)"><rect x="0" y="1200" width="96" height="80" rx="8" ry="8" class="z"/><text x="28.55" y="1227.4" class="w">Azure <tspan x="23.11" dy="1.2em" class="p">Identity </tspan><tspan x="13.39" dy="1.2em" class="p">Protection</tspan></text></g></a><a target="_blank" href="https://docs.microsoft.com/azure/active-directory/active-directory-privileged-identity-management-configure" rel="noopener"><g transform="translate(1104,-304)"><rect x="0" y="1200" width="96" height="80" rx="8" ry="8" class="z"/><text x="14.54" y="1227.4" class="w">Privileged <tspan x="23.11" dy="1.2em" class="p">Identity </tspan><tspan x="5.21" dy="1.2em" class="p">Management</tspan></text></g></a><a target="_blank" href="https://docs.microsoft.com/azure/active-directory/governance/access-reviews-overview" rel="noopener"><g transform="translate(1104,-400)"><rect x="0" y="1200" width="96" height="80" rx="8" ry="8" class="z"/><text x="23.48" y="1235.8" class="w">Access <tspan x="19.98" dy="1.2em" class="p">Reviews</tspan></text></g></a><a target="_blank" href="https://docs.microsoft.com/azure/active-directory/active-directory-conditional-access-conditions#sign-in-risk" rel="noopener"><g transform="translate(1216,-304)"><rect x="0" y="1200" width="96" height="80" rx="8" ry="8" class="z"/><text x="9.87" y="1227.4" class="w">Risk-Based <tspan x="9.51" dy="1.2em" class="p">Conditional </tspan><tspan x="23.48" dy="1.2em" class="p">Access</tspan></text></g></a><a target="_blank" href="https://docs.microsoft.com/azure/active-directory/governance/entitlement-management-overview" rel="noopener"><g transform="translate(1328,-400)"><rect x="0" y="1200" width="96" height="80" rx="8" ry="8" class="z"/><text x="9.89" y="1235.8" class="w">Entitlement <tspan x="5.21" dy="1.2em" class="p">Management</tspan></text></g></a><a target="_blank" href="https://docs.microsoft.com/cloud-app-security/what-is-cloud-app-security" rel="noopener"><g transform="translate(976,-400)"><rect x="0" y="1200" width="96" height="80" rx="8" ry="8" class="ba"/><text x="16.5" y="1227.4" class="w">Microsoft <tspan x="12.62" dy="1.2em" class="p">Cloud App </tspan><tspan x="20.38" dy="1.2em" class="p">Security</tspan></text></g></a><a target="_blank" href="https://docs.microsoft.com/defender-for-identity/what-is" rel="noopener"><g transform="translate(976,-304)"><rect x="0" y="1200" width="96" height="80" rx="8" ry="8" class="ba"/><text x="16.5" y="1227.4" class="w">Microsoft <tspan x="6.38" dy="1.2em" class="p">Defender for </tspan><tspan x="23.11" dy="1.2em" class="p">Identity</tspan></text></g></a><a target="_blank" href="https://docs.microsoft.com/cloud-app-security/what-is-cloud-app-security" rel="noopener"><g transform="translate(976,-576)"><rect x="0" y="1200" width="96" height="80" rx="8" ry="8" class="ba"/><text x="16.5" y="1227.4" class="w">Microsoft <tspan x="12.62" dy="1.2em" class="p">Cloud App </tspan><tspan x="20.38" dy="1.2em" class="p">Security</tspan></text></g></a><a target="_blank" href="https://docs.microsoft.com/microsoft-365/security/office-365-security/install-app-guard" rel="noopener"><g transform="translate(192,-400)"><rect x="0" y="1200" width="96" height="80" rx="8" ry="8" class="bb"/><text x="9.89" y="1227.4" class="w">Application <tspan x="16.11" dy="1.2em" class="p">Guard for </tspan><tspan x="28.16" dy="1.2em" class="p">Office</tspan></text></g></a><a target="_blank" href="https://docs.microsoft.com/microsoft-365/security/office-365-security/safe-docs" rel="noopener"><g transform="translate(192,-304)"><rect x="0" y="1200" width="96" height="80" rx="8" ry="8" class="bb"/><text x="33.21" y="1235.8" class="w">Safe <tspan x="9.88" dy="1.2em" class="p">Documents</tspan></text></g></a><a target="_blank" href="https://docs.microsoft.com/microsoft-365/compliance/classifier-learn-about" rel="noopener"><g transform="translate(192,-576)"><rect x="0" y="1200" width="96" height="80" rx="8" ry="8" class="bb"/><text x="16.88" y="1235.8" class="w">Trainable <tspan x="12.59" dy="1.2em" class="p">Classifiers</tspan></text></g></a><a target="_blank" href="https://docs.microsoft.com/microsoft-365/compliance/endpoint-dlp-learn-about" rel="noopener"><g transform="translate(192,-768)"><rect x="0" y="1200" width="96" height="80" rx="8" ry="8" class="bb"/><text x="17.68" y="1235.8" class="w">Endpoint <tspan x="34" dy="1.2em" class="p">DLP</tspan></text></g></a><a target="_blank" href="https://docs.microsoft.com/microsoft-365/compliance/insider-risk-management" rel="noopener"><g transform="translate(192,-672)"><rect x="0" y="1200" width="96" height="80" rx="8" ry="8" class="bb"/><text x="8.32" y="1235.8" class="w">Insider Risk <tspan x="5.21" dy="1.2em" class="p">Management</tspan></text></g></a><a target="_blank" href="https://support.office.com/article/f2cd475a-e592-46cf-80a3-1bfb0fa17697" rel="noopener"><g transform="translate(464,-672)"><rect x="0" y="1200" width="96" height="80" rx="8" ry="8" class="v"/><text x="15.33" y="1235.8" class="w">Customer <tspan x="35.16" dy="1.2em" class="p">Key</tspan></text></g></a><a target="_blank" href="https://docs.microsoft.com/office365/securitycompliance/data-loss-prevention-policies#policy-evaluation-in-microsoft-teams" rel="noopener"><g transform="translate(800,-576)"><rect x="0" y="1200" width="96" height="80" rx="8" ry="8" class="v"/><text x="25.82" y="1227.4" class="w">Teams<tspan x="14.55" dy="1.2em" class="p">Data Loss </tspan><tspan x="11.82" dy="1.2em" class="p">Prevention</tspan></text></g></a><a target="_blank" href="https://docs.microsoft.com/microsoft-365/compliance/ome-advanced-message-encryption" rel="noopener"><g transform="translate(576,-768)"><rect x="0" y="1200" width="96" height="80" rx="8" ry="8" class="v"/><text x="14.55" y="1227.4" class="w">Advanced <tspan x="18.43" dy="1.2em" class="p">Message </tspan><tspan x="11.44" dy="1.2em" class="p">Encryption</tspan></text></g></a><a target="_blank" href="https://docs.microsoft.com/microsoft-365/compliance/records-management" rel="noopener"><g transform="translate(576,-576)"><rect x="0" y="1200" width="96" height="80" rx="8" ry="8" class="v"/><text x="19.99" y="1235.8" class="w">Records <tspan x="5.21" dy="1.2em" class="p">Management</tspan></text></g></a><a target="_blank" href="https://docs.microsoft.com/microsoft-365/compliance/double-key-encryption" rel="noopener"><g transform="translate(688,-672)"><rect x="0" y="1200" width="96" height="80" rx="8" ry="8" class="v"/><text x="9.49" y="1235.8" class="w">Double Key <tspan x="11.44" dy="1.2em" class="p">Encryption</tspan></text></g></a><a target="_blank" href="https://support.office.com/article/36f9cdd1-e64c-421b-a7e4-4a54d16440a2" rel="noopener"><g transform="translate(576,-672)"><rect x="0" y="1200" width="96" height="80" rx="8" ry="8" class="v"/><text x="15.33" y="1235.8" class="w">Customer <tspan x="19.22" dy="1.2em" class="p">Lockbox</tspan></text></g></a><a target="_blank" href="https://docs.microsoft.com/microsoft-365/compliance/information-barriers" rel="noopener"><g transform="translate(800,-672)"><rect x="0" y="1200" width="96" height="80" rx="8" ry="8" class="v"/><text x="9.5" y="1235.8" class="w">Information <tspan x="21.15" dy="1.2em" class="p">Barriers</tspan></text></g></a><a target="_blank" href="https://docs.microsoft.com/microsoft-365/compliance/communication-compliance" rel="noopener"><g transform="translate(352,-672)"><rect x="0" y="1200" width="96" height="80" rx="8" ry="8" class="v"/><text x="26.22" y="1235.8" class="w">Comm <tspan x="8.32" dy="1.2em" class="p">Compliance</tspan></text></g></a><a target="_blank" href="https://docs.microsoft.com/microsoft-365/compliance/manage-legal-investigations" rel="noopener"><g transform="translate(464,-768)"><rect x="0" y="1200" width="96" height="80" rx="8" ry="8" class="v"/><text x="14.55" y="1235.8" class="w">Advanced <tspan x="10.64" dy="1.2em" class="p">eDiscovery</tspan></text></g></a><a target="_blank" href="https://docs.microsoft.com/microsoft-365/compliance/advanced-audit" rel="noopener"><g transform="translate(352,-768)"><rect x="0" y="1200" width="96" height="80" rx="8" ry="8" class="v"/><text x="14.55" y="1235.8" class="w">Advanced <tspan x="30.12" dy="1.2em" class="p">Audit</tspan></text></g></a><a target="_blank" href="https://docs.microsoft.com/office365/servicedescriptions/office-365-advanced-threat-protection-service-description#real-time-reports" rel="noopener"><g transform="translate(592,-384)"><rect x="0" y="1248" width="288" height="32" rx="8" ry="8" class="v"/><text x="82.15" y="1268.2" class="w">Real-Time Reports</text></g></a><a target="_blank" href="https://docs.microsoft.com/microsoft-365/compliance/manage-information-governance" rel="noopener"><g transform="translate(352,-576)"><rect x="0" y="1200" width="96" height="80" rx="8" ry="8" class="v"/><text x="9.5" y="1235.8" class="w">Information <tspan x="7.54" dy="1.2em" class="p">Governance</tspan></text></g></a><a target="_blank" href="https://docs.microsoft.com/microsoft-365/security/" rel="noopener"><g transform="translate(-1120,1136) rotate(-90)"><rect x="0" y="1232" width="368" height="48" rx="8" ry="8" class="bc"/><text x="74.96" y="1261.4" class="bd">Microsoft 365 F5 Security</text></g></a><a target="_blank" href="https://docs.microsoft.com/microsoft-365/compliance/privileged-access-management-solution-overview" rel="noopener"><g transform="translate(464,-576)"><rect x="0" y="1200" width="96" height="80" rx="8" ry="8" class="v"/><text x="14.54" y="1227.4" class="w">Privileged <tspan x="23.48" dy="1.2em" class="p">Access </tspan><tspan x="5.21" dy="1.2em" class="p">Management</tspan></text></g></a><a target="_blank" href="https://docs.microsoft.com/microsoft-365/compliance/" rel="noopener"><g transform="translate(-1120,736) rotate(-90)"><rect x="0" y="1232" width="432" height="48" rx="8" ry="8" class="bc"/><text x="91.47" y="1261.4" class="bd">Microsoft 365 F5 Compliance</text></g></a><a target="_blank" href="https://docs.microsoft.com/microsoft-365/compliance/apply-sensitivity-label-automatically" rel="noopener"><g transform="translate(688,-576)"><rect x="0" y="1200" width="96" height="80" rx="8" ry="8" class="v"/><text x="8.63" y="1228.3" class="x">Rules-Based <tspan x="5.74" dy="1.2em" class="p">Classification</tspan><tspan x="12.6" dy="1.2em" class="p">(Office 365)</tspan></text></g></a><a target="_blank" href="https://docs.microsoft.com/azure/information-protection/deploy-aip-scanner" rel="noopener"><g transform="translate(1088,-576)"><rect x="0" y="1200" width="96" height="80" rx="8" ry="8" class="ba"/><text x="8.63" y="1220.5" class="x">Rules-Based <tspan x="5.74" dy="1.2em" class="p">Classification </tspan><tspan x="8.64" dy="1.2em" class="p">(AIP Client &amp; </tspan><tspan x="20.18" dy="1.2em" class="p">Scanner)</tspan></text></g></a><a target="_blank" href="https://docs.microsoft.com/microsoft-365/security/" rel="noopener"><g transform="translate(896,1136) rotate(-90)"><rect x="0" y="1232" width="368" height="48" rx="8" ry="8" class="bc"/><text x="74.96" y="1261.4" class="bd">Microsoft 365 F5 Security</text></g></a><a target="_blank" href="https://docs.microsoft.com/microsoft-365/compliance/" rel="noopener"><g transform="translate(896,736) rotate(-90)"><rect x="0" y="1232" width="432" height="48" rx="8" ry="8" class="bc"/><text x="91.47" y="1261.4" class="bd">Microsoft 365 F5 Compliance</text></g></a><g transform="translate(2304,704) rotate(90)"><path d="M11.12 1280 L11.48 1280 L84.52 1280" class="be"/></g><a target="_blank" href="https://docs.microsoft.com/office365/servicedescriptions/exchange-online-archiving-service-description/exchange-online-archiving-service-description" rel="noopener"><g transform="translate(464,-864)"><rect x="0" y="1200" width="96" height="80" rx="8" ry="8" class="bf"/><text x="14.93" y="1227.4" class="w">Exchange <tspan x="26.22" dy="1.2em" class="p">Online </tspan><tspan x="15.72" dy="1.2em" class="p">Archiving</tspan></text></g></a><a target="_blank" href="https://docs.microsoft.com/office365/securitycompliance/data-loss-prevention-policies" rel="noopener"><g transform="translate(352,-864)"><rect x="0" y="1200" width="96" height="80" rx="8" ry="8" class="bf"/><text x="14.55" y="1235.8" class="w">Data Loss <tspan x="11.82" dy="1.2em" class="p">Prevention</tspan></text></g></a><a target="_blank" href="https://docs.microsoft.com/microsoft-365/compliance/create-retention-policies" rel="noopener"><g transform="translate(576,-864)"><rect x="0" y="1200" width="96" height="80" rx="8" ry="8" class="bf"/><text x="15.72" y="1235.8" class="w">Retention <tspan x="21.54" dy="1.2em" class="p">Policies</tspan></text></g></a><g transform="translate(1504,-256)"><rect x="0" y="1040" width="576" height="240" rx="8" ry="8" class="bg"/></g><a target="_blank" href="https://docs.microsoft.com/microsoft-365/security/defender-endpoint/microsoft-defender-endpoint" rel="noopener"><g transform="translate(1504,-256)"><rect x="0" y="1232" width="576" height="48" rx="8" ry="8" class="q"/><text x="130.11" y="1260.2" class="y">Microsoft Defender for Endpoint Plan 2 Step-up</text></g></a><a target="_blank" href="https://docs.microsoft.com/windows/security/threat-protection/windows-defender-atp/automated-investigations-windows-defender-advanced-threat-protection" rel="noopener"><g transform="translate(1632,-400)"><rect x="0" y="1200" width="96" height="80" rx="8" ry="8" class="bh"/><text x="11.45" y="1227.4" class="w">Automated <tspan x="4.83" dy="1.2em" class="p">Investigation </tspan><tspan x="7.55" dy="1.2em" class="p">&amp; Response</tspan></text></g></a><a target="_blank" href="https://docs.microsoft.com/windows/security/threat-protection/windows-defender-atp/overview-hunting-windows-defender-advanced-threat-protection" rel="noopener"><g transform="translate(1520,-400)"><rect x="0" y="1200" width="96" height="80" rx="8" ry="8" class="bh"/><text x="14.55" y="1235.8" class="w">Advanced <tspan x="21.57" dy="1.2em" class="p">Hunting</tspan></text></g></a><a target="_blank" href="https://docs.microsoft.com/windows/security/threat-protection/windows-defender-atp/overview-endpoint-detection-response" rel="noopener"><g transform="translate(1744,-400)"><rect x="0" y="1200" width="96" height="80" rx="8" ry="8" class="bh"/><text x="17.68" y="1227.4" class="w">Endpoint <tspan x="9.11" dy="1.2em" class="p">Detection &amp; </tspan><tspan x="14.55" dy="1.2em" class="p">Response</tspan></text></g></a><a target="_blank" href="https://docs.microsoft.com/windows/security/threat-protection/windows-defender-atp/microsoft-threat-experts" rel="noopener"><g transform="translate(1968,-400)"><rect x="0" y="1200" width="96" height="80" rx="8" ry="8" class="bh"/><text x="16.5" y="1227.4" class="w">Microsoft <tspan x="26.61" dy="1.2em" class="p">Threat </tspan><tspan x="22.32" dy="1.2em" class="p">Experts</tspan></text></g></a><a target="_blank" href="https://docs.microsoft.com/windows/security/threat-protection/microsoft-defender-atp/evaluation-lab" rel="noopener"><g transform="translate(1856,-400)"><rect x="0" y="1200" width="96" height="80" rx="8" ry="8" class="bh"/><text x="12.6" y="1235.8" class="w">Evaluation <tspan x="35.56" dy="1.2em" class="p">Lab</tspan></text></g></a><a target="_blank" href="https://www.microsoft.com/security/blog/2019/01/17/windows-defender-atp-integrates-with-microsoft-information-protection-to-discover-protect-and-monitor-sensitive-data-on-windows-devices/" rel="noopener"><g transform="translate(1520,-304)"><rect x="0" y="1200" width="96" height="80" rx="8" ry="8" class="bh"/><text x="35.56" y="1235.8" class="w">MIP <tspan x="11.83" dy="1.2em" class="p">Integration</tspan></text></g></a><a target="_blank" href="https://docs.microsoft.com/windows/security/threat-protection/microsoft-defender-atp/next-gen-threat-and-vuln-mgt" rel="noopener"><g transform="translate(1744,-304)"><rect x="0" y="1200" width="96" height="80" rx="8" ry="8" class="bh"/><text x="19.61" y="1227.4" class="w">Threat &amp; <tspan x="5.99" dy="1.2em" class="p">Vulnerability </tspan><tspan x="5.21" dy="1.2em" class="p">Management</tspan></text></g></a><a target="_blank" href="https://docs.microsoft.com/windows/security/threat-protection/windows-defender-atp/threat-analytics" rel="noopener"><g transform="translate(1632,-304)"><rect x="0" y="1200" width="96" height="80" rx="8" ry="8" class="bh"/><text x="26.61" y="1235.8" class="w">Threat <tspan x="16.88" dy="1.2em" class="p">Analytics</tspan></text></g></a><a target="_blank" href="https://docs.microsoft.com/microsoft-365/security/defender-endpoint/data-storage-privacy#how-long-will-microsoft-store-my-data-what-is-microsofts-data-retention-policy" rel="noopener"><g transform="translate(1856,-304)"><rect x="0" y="1200" width="96" height="80" rx="8" ry="8" class="bh"/><text x="16.89" y="1227.4" class="w">6-Months <tspan x="10.65" dy="1.2em" class="p">Searchable </tspan><tspan x="32.83" dy="1.2em" class="p">Data</tspan></text></g></a></g></svg>