<svg xmlns="http://www.w3.org/2000/svg" xmlns:xlink="http://www.w3.org/1999/xlink" width="2368px" height="1456px" viewBox="0 0 2368 1456" class="a"><style>
.c {fill:#a5a5a5;fill-opacity:0.2;stroke:#d04a00;stroke-dasharray:33.75,20.25;stroke-linecap:round;stroke-linejoin:round;stroke-width:2.25}
.d {fill:#a5a5a5;fill-opacity:0.2;stroke:#105868;stroke-dasharray:33.75,20.25;stroke-linecap:round;stroke-linejoin:round;stroke-width:2.25}
.e {fill:#a5a5a5;fill-opacity:0.2;stroke:#004400;stroke-dasharray:33.75,20.25;stroke-linecap:round;stroke-linejoin:round;stroke-width:2.25}
.f {fill:#a5a5a5;fill-opacity:0.2;stroke:#442060;stroke-linecap:round;stroke-linejoin:round;stroke-width:2.25}
.g {fill:#a5a5a5;fill-opacity:0.2;stroke:#303040;stroke-linecap:round;stroke-linejoin:round;stroke-width:2.25}
.h {fill:#a5a5a5;fill-opacity:0.2;stroke:#d04a00;stroke-dasharray:2.25,4.5;stroke-linecap:round;stroke-linejoin:round;stroke-width:2.25}
.i {fill:#a5a5a5;fill-opacity:0.2;stroke:#d04a00;stroke-dasharray:15.75,11.25;stroke-linecap:round;stroke-linejoin:round;stroke-width:2.25}
.j {fill:#a5a5a5;fill-opacity:0.2;stroke:#0050c0;stroke-dasharray:2.25,4.5;stroke-linecap:round;stroke-linejoin:round;stroke-width:2.25}
.k {fill:#a5a5a5;fill-opacity:0.2;stroke:#004400;stroke-dasharray:2.25,4.5;stroke-linecap:round;stroke-linejoin:round;stroke-width:2.25}
.l {fill:#a5a5a5;fill-opacity:0.2;stroke:#403050;stroke-dasharray:2.25,4.5;stroke-linecap:round;stroke-linejoin:round;stroke-width:2.25}
.m {fill:#d04a00;stroke:#d04a00;stroke-linecap:round;stroke-linejoin:round;stroke-width:2.25}
.n {fill:#ffffff;font-family:Arial;font-size:1.66667em;font-weight:bold}
.o {fill:#004400;stroke:#004400;stroke-linecap:round;stroke-linejoin:round;stroke-width:2.25}
.p {fill:#105868;stroke:#105868;stroke-linecap:round;stroke-linejoin:round;stroke-width:2.25}
.q {font-size:1em}
.r {fill:#442060;stroke:#442060;stroke-linecap:round;stroke-linejoin:round;stroke-width:2.25}
.s {fill:none;stroke:none;stroke-linecap:round;stroke-linejoin:round;stroke-width:1}
.t {fill:#000000;font-family:Arial;font-size:1.16666em;font-weight:bold}
.u {fill:#403050;stroke:#403050;stroke-linecap:round;stroke-linejoin:round;stroke-width:2.25}
.v {fill:#ffffff;font-family:Arial;font-size:1.16666em;font-weight:bold}
.w {fill:#0050c0;stroke:none;stroke-linecap:round;stroke-linejoin:round;stroke-width:1}
.x {fill:#105868;stroke:none;stroke-linecap:round;stroke-linejoin:round;stroke-width:1}
.y {fill:#504060;stroke:none;stroke-linecap:round;stroke-linejoin:round;stroke-width:1}
.z {font-size:0.928588em}
.ba {fill:#0070f7;font-family:Arial;font-size:4.00001em;font-weight:bold}
.bb {fill:#0070f7;font-family:Arial;font-size:2.50001em;font-weight:bold}
.bc {fill:#0070f7;font-family:Arial;font-size:1.5em;font-weight:bold}
.bd {fill:#303040;stroke:#303040;stroke-linecap:round;stroke-linejoin:round;stroke-width:2.25}
.be {fill:#ffffff;font-family:Arial;font-size:1.5em;font-weight:bold}
.bf {fill:#004400;stroke:none;stroke-linecap:round;stroke-linejoin:round;stroke-width:1}
.bg {fill:#ffffff;font-family:Arial;font-size:1.08334em;font-weight:bold}
.bh {fill:#d04a00;stroke:none;stroke-linecap:round;stroke-linejoin:round;stroke-width:1}
.bi {marker-end:url(#mrkr4-358);marker-start:url(#mrkr4-356);stroke:#105868;stroke-dasharray:5,2.5;stroke-linecap:butt;stroke-width:2.5}
.b {fill:#105868;fill-opacity:1;stroke:#105868;stroke-opacity:1;stroke-width:0.43554006968641}
.a {fill:none;fill-rule:evenodd;font-size:12px;overflow:visible;stroke-linecap:square;stroke-miterlimit:3}
</style><defs><g id="lend4"><path d="M 2 1 L 0 0 L 2 -1 L 2 1 " style="stroke:none"/></g><marker id="mrkr4-356" class="b" refX="4.448" orient="auto" markerUnits="strokeWidth" overflow="visible"><use xlink:href="#lend4" transform="scale(2.296) "/></marker><marker id="mrkr4-358" class="b" refX="-4.592" orient="auto" markerUnits="strokeWidth" overflow="visible"><use xlink:href="#lend4" transform="scale(-2.296,-2.296) "/></marker></defs><g><g transform="translate(400,-16)"><rect x="0" y="192" width="608" height="1264" rx="8" ry="8" class="c"/></g><g transform="translate(1040,-16)"><rect x="0" y="192" width="496" height="1264" rx="8" ry="8" class="d"/></g><g transform="translate(1568,-16)"><rect x="0" y="192" width="608" height="1264" rx="8" ry="8" class="e"/></g><g transform="translate(896,1344) rotate(-90)"><rect x="0" y="-880" width="1072" height="2336" rx="8" ry="8" class="f"/></g><g transform="translate(112,-144)"><rect x="0" y="1088" width="2144" height="368" rx="8" ry="8" class="g"/></g><g transform="translate(416,-160)"><rect x="0" y="1120" width="576" height="336" rx="8" ry="8" class="h"/></g><g transform="translate(656,-240)"><rect x="0" y="1216" width="320" height="240" rx="8" ry="8" class="i"/></g><g transform="translate(1168,-256)"><rect x="0" y="1216" width="352" height="240" rx="8" ry="8" class="j"/></g><g transform="translate(1584,-160)"><rect x="0" y="1120" width="576" height="336" rx="8" ry="8" class="k"/></g><g transform="translate(112,-544)"><rect x="0" y="960" width="2144" height="496" rx="8" ry="8" class="g"/></g><g transform="translate(192,-560)"><rect x="0" y="1248" width="1360" height="208" rx="8" ry="8" class="l"/></g><g transform="translate(192,-784)"><rect x="0" y="1344" width="832" height="112" rx="8" ry="8" class="l"/></g><g transform="translate(192,-912)"><rect x="0" y="1344" width="832" height="112" rx="8" ry="8" class="l"/></g><a target="_blank" aria-label="Office 365 Enterprise" href="https://docs.microsoft.com/office365/enterprise/" rel="noopener"><g transform="translate(400,-1216)"><rect x="0" y="1392" width="608" height="64" rx="8" ry="8" class="m"/><text x="201.19" y="1430" class="n">Office 365 E5 Step-up</text></g></a><a target="_blank" aria-label="Windows 10" href="https://www.microsoft.com/windowsforbusiness" rel="noopener"><g transform="translate(1568,-1216)"><rect x="0" y="1392" width="608" height="64" rx="8" ry="8" class="o"/><text x="191.21" y="1430" class="n">Windows 10 E5 Step-up</text></g></a><a target="_blank" aria-label="Enterprise Mobility + Security" href="https://www.microsoft.com/cloud-platform/enterprise-mobility-security" rel="noopener"><g transform="translate(1040,-1216)"><rect x="0" y="1392" width="496" height="64" rx="8" ry="8" class="p"/><text x="52.12" y="1418" class="n">Enterprise Mobility + Security E5 Step-up<tspan x="204.66" dy="1.2em" class="q">(EMS E5)</tspan></text></g></a><a target="_blank" aria-label="Microsoft 365 Plans" href="https://www.microsoft.com/microsoft-365/compare-all-microsoft-365-plans" rel="noopener"><g transform="translate(896,1344) rotate(-90)"><rect x="0" y="1392" width="1072" height="64" rx="8" ry="8" class="r"/><text x="416.53" y="1430" class="n">Microsoft 365 E5 Step-up</text></g></a><a target="_blank" aria-label="Microsoft 365 Plans" href="https://www.microsoft.com/microsoft-365/compare-all-microsoft-365-plans" rel="noopener"><g transform="translate(-1376,1344) rotate(-90)"><rect x="0" y="1392" width="1072" height="64" rx="8" ry="8" class="r"/><text x="416.53" y="1430" class="n">Microsoft 365 E5 Step-up</text></g></a><a target="_blank" aria-label="Azure Active Directory Premium Plan 2" href="https://azure.microsoft.com/services/active-directory/" rel="noopener"><g transform="translate(1168,-256)"><rect x="0" y="1408" width="352" height="48" rx="8" ry="8" class="s"/><text x="62.04" y="1436.2" class="t">Azure AD Premium Plan 2 Step-up</text></g></a><a target="_blank" aria-label="Information Protection &amp; Governance" href="https://docs.microsoft.com/microsoft-365/compliance/microsoft-365-solution-catalog#information-protection--governance-section" rel="noopener"><g transform="translate(-1216,896) rotate(-90)"><rect x="0" y="1408" width="208" height="48" rx="8" ry="8" class="u"/><text x="21.95" y="1427.8" class="v">Information Protection &amp; <tspan x="63.54" dy="1.2em" class="q">Governance</tspan></text></g></a><a target="_blank" aria-label="Insider Risk Management Licensing" href="https://docs.microsoft.com/office365/servicedescriptions/microsoft-365-service-descriptions/microsoft-365-tenantlevel-services-licensing-guidance/microsoft-365-security-compliance-licensing-guidance#insider-risk-management" rel="noopener"><g transform="translate(-1216,672) rotate(-90)"><rect x="0" y="1408" width="112" height="48" rx="8" ry="8" class="u"/><text x="16.32" y="1427.8" class="v">Insider Risk <tspan x="13.21" dy="1.2em" class="q">Management</tspan></text></g></a><a target="_blank" aria-label="eDiscovery &amp; Audit" href="https://docs.microsoft.com/microsoft-365/compliance/microsoft-365-solution-catalog#discovery--response-section" rel="noopener"><g transform="translate(-1216,544) rotate(-90)"><rect x="0" y="1408" width="112" height="48" rx="8" ry="8" class="u"/><text x="11.64" y="1427.8" class="v">eDiscovery &amp; <tspan x="38.12" dy="1.2em" class="q">Audit</tspan></text></g></a><a target="_blank" aria-label="Azure Identity Protection" href="https://docs.microsoft.com/azure/active-directory/identity-protection/overview" rel="noopener"><g transform="translate(1296,-400)"><rect x="0" y="1376" width="96" height="80" rx="8" ry="8" class="w"/><text x="28.55" y="1403.4" class="v">Azure <tspan x="23.11" dy="1.2em" class="q">Identity </tspan><tspan x="13.39" dy="1.2em" class="q">Protection</tspan></text></g></a><a target="_blank" aria-label="Privileged Identity Management" href="https://docs.microsoft.com/azure/active-directory/active-directory-privileged-identity-management-configure" rel="noopener"><g transform="translate(1184,-304)"><rect x="0" y="1376" width="96" height="80" rx="8" ry="8" class="w"/><text x="14.54" y="1403.4" class="v">Privileged <tspan x="23.11" dy="1.2em" class="q">Identity </tspan><tspan x="5.21" dy="1.2em" class="q">Management</tspan></text></g></a><a target="_blank" aria-label="Access Reviews" href="https://docs.microsoft.com/en-us/azure/active-directory/active-directory-azure-ad-controls-access-reviews-overview" rel="noopener"><g transform="translate(1184,-400)"><rect x="0" y="1376" width="96" height="80" rx="8" ry="8" class="w"/><text x="23.48" y="1411.8" class="v">Access <tspan x="19.98" dy="1.2em" class="q">Reviews</tspan></text></g></a><a target="_blank" aria-label="Risk-Based Conditional Access" href="https://docs.microsoft.com/azure/active-directory/active-directory-conditional-access-conditions#sign-in-risk" rel="noopener"><g transform="translate(1296,-304)"><rect x="0" y="1376" width="96" height="80" rx="8" ry="8" class="w"/><text x="9.87" y="1403.4" class="v">Risk-Based <tspan x="9.51" dy="1.2em" class="q">Conditional </tspan><tspan x="23.48" dy="1.2em" class="q">Access</tspan></text></g></a><a target="_blank" aria-label="Entitlement Management" href="https://docs.microsoft.com/azure/active-directory/governance/entitlement-management-overview" rel="noopener"><g transform="translate(1408,-400)"><rect x="0" y="1376" width="96" height="80" rx="8" ry="8" class="w"/><text x="9.89" y="1411.8" class="v">Entitlement <tspan x="5.21" dy="1.2em" class="q">Management</tspan></text></g></a><a target="_blank" aria-label="Microsoft Cloud App Security" href="https://docs.microsoft.com/cloud-app-security/what-is-cloud-app-security" rel="noopener"><g transform="translate(1056,-400)"><rect x="0" y="1376" width="96" height="80" rx="8" ry="8" class="x"/><text x="16.5" y="1403.4" class="v">Microsoft <tspan x="12.62" dy="1.2em" class="q">Cloud App </tspan><tspan x="20.38" dy="1.2em" class="q">Security</tspan></text></g></a><a target="_blank" aria-label="Microsoft Defender for Identity" href="https://docs.microsoft.com/defender-for-identity/what-is" rel="noopener"><g transform="translate(1056,-304)"><rect x="0" y="1376" width="96" height="80" rx="8" ry="8" class="x"/><text x="16.5" y="1403.4" class="v">Microsoft <tspan x="6.38" dy="1.2em" class="q">Defender for </tspan><tspan x="23.11" dy="1.2em" class="q">Identity</tspan></text></g></a><a target="_blank" aria-label="Microsoft Cloud App Security" href="https://docs.microsoft.com/cloud-app-security/what-is-cloud-app-security" rel="noopener"><g transform="translate(1056,-576)"><rect x="0" y="1376" width="96" height="80" rx="8" ry="8" class="x"/><text x="16.5" y="1403.4" class="v">Microsoft <tspan x="12.62" dy="1.2em" class="q">Cloud App </tspan><tspan x="20.38" dy="1.2em" class="q">Security</tspan></text></g></a><a target="_blank" aria-label="Microsoft Defender for Endpoint" href="https://docs.microsoft.com/windows/security/threat-protection/windows-defender-atp/windows-defender-advanced-threat-protection" rel="noopener"><g transform="translate(1584,-160)"><rect x="0" y="1408" width="576" height="48" rx="8" ry="8" class="s"/><text x="180.67" y="1436.2" class="t">Microsoft Defender for Endpoint</text></g></a><a target="_blank" aria-label="Trainable Classifiers" href="https://docs.microsoft.com/microsoft-365/compliance/classifier-learn-about" rel="noopener"><g transform="translate(272,-576)"><rect x="0" y="1376" width="96" height="80" rx="8" ry="8" class="y"/><text x="16.88" y="1411.8" class="v">Trainable <tspan x="12.59" dy="1.2em" class="q">Classifiers</tspan></text></g></a><a target="_blank" aria-label="Endpoint DLP" href="https://docs.microsoft.com/microsoft-365/compliance/endpoint-dlp-learn-about" rel="noopener"><g transform="translate(272,-672)"><rect x="0" y="1376" width="96" height="80" rx="8" ry="8" class="y"/><text x="17.68" y="1411.8" class="v">Endpoint <tspan x="34" dy="1.2em" class="q">DLP</tspan></text></g></a><a target="_blank" aria-label="Application Guard for Office" href="https://docs.microsoft.com/microsoft-365/security/office-365-security/install-app-guard" rel="noopener"><g transform="translate(272,-400)"><rect x="0" y="1376" width="96" height="80" rx="8" ry="8" class="y"/><text x="9.89" y="1403.4" class="v">Application <tspan x="16.11" dy="1.2em" class="q">Guard for </tspan><tspan x="28.16" dy="1.2em" class="q">Office</tspan></text></g></a><a target="_blank" aria-label="Safe Documents" href="https://docs.microsoft.com/microsoft-365/security/office-365-security/safe-docs" rel="noopener"><g transform="translate(272,-208)"><rect x="0" y="1376" width="96" height="80" rx="8" ry="8" class="y"/><text x="33.21" y="1411.8" class="v">Safe <tspan x="9.88" dy="1.2em" class="q">Documents</tspan></text></g></a><a target="_blank" aria-label="Microsoft Defender for Endpoint for Mac" href="https://docs.microsoft.com/windows/security/threat-protection/microsoft-defender-atp/microsoft-defender-atp-mac" rel="noopener"><g transform="translate(272,-304)"><rect x="0" y="1376" width="96" height="80" rx="8" ry="8" class="y"/><text x="6.38" y="1403.4" class="v">Defender for <tspan x="17.68" dy="1.2em" class="q">Endpoint </tspan><tspan x="31.03" dy="1.292em" class="z">(Mac)</tspan></text></g></a><a target="_blank" aria-label="Insider Risk Management" href="https://docs.microsoft.com/microsoft-365/compliance/insider-risk-management" rel="noopener"><g transform="translate(272,-800)"><rect x="0" y="1376" width="96" height="80" rx="8" ry="8" class="y"/><text x="8.32" y="1411.8" class="v">Insider Risk <tspan x="5.21" dy="1.2em" class="q">Management</tspan></text></g></a><a target="_blank" aria-label="m365maps.com" href="https://m365maps.com/" rel="noopener"><g transform="translate(16,-1376)"><rect x="0" y="1392" width="2336" height="64" rx="8" ry="8" class="s"/><text x="881.28" y="1438.4" class="ba">Microsoft 365 E5 Step-up</text></g></a><g transform="translate(16,-1344)"><rect x="0" y="1424" width="2336" height="32" rx="8" ry="8" class="s"/><text x="1086.28" y="1449" class="bb">March 2021</text></g><a target="_blank" aria-label="m365maps.com" href="https://m365maps.com/" rel="noopener"><g transform="translate(16,-1312)"><rect x="0" y="1424" width="2336" height="32" rx="8" ry="8" class="s"/><text x="1100.46" y="1445.4" class="bc">m365maps.com</text></g></a><a target="_blank" aria-label="Microsoft 365 Security" href="https://docs.microsoft.com/microsoft-365/security/" rel="noopener"><g transform="translate(-1296,1312) rotate(-90)"><rect x="0" y="1408" width="368" height="48" rx="8" ry="8" class="bd"/><text x="74.46" y="1437.4" class="be">Microsoft 365 E5 Security</text></g></a><a target="_blank" aria-label="Microsoft 365 Compliance" href="https://docs.microsoft.com/microsoft-365/compliance/" rel="noopener"><g transform="translate(-1296,912) rotate(-90)"><rect x="0" y="1408" width="496" height="48" rx="8" ry="8" class="bd"/><text x="122.96" y="1437.4" class="be">Microsoft 365 E5 Compliance</text></g></a><a target="_blank" aria-label="Automated Investigation and Response" href="https://docs.microsoft.com/windows/security/threat-protection/windows-defender-atp/automated-investigations-windows-defender-advanced-threat-protection" rel="noopener"><g transform="translate(1712,-400)"><rect x="0" y="1376" width="96" height="80" rx="8" ry="8" class="bf"/><text x="11.45" y="1403.4" class="v">Automated <tspan x="4.83" dy="1.2em" class="q">Investigation </tspan><tspan x="7.55" dy="1.2em" class="q">&amp; Response</tspan></text></g></a><a target="_blank" aria-label="Advanced Hunting" href="https://docs.microsoft.com/windows/security/threat-protection/windows-defender-atp/overview-hunting-windows-defender-advanced-threat-protection" rel="noopener"><g transform="translate(1600,-400)"><rect x="0" y="1376" width="96" height="80" rx="8" ry="8" class="bf"/><text x="14.55" y="1411.8" class="v">Advanced <tspan x="21.57" dy="1.2em" class="q">Hunting</tspan></text></g></a><a target="_blank" aria-label="Cloud App Security Integration" href="https://docs.microsoft.com/windows/security/threat-protection/microsoft-defender-atp/microsoft-cloud-app-security-integration" rel="noopener"><g transform="translate(1936,-400)"><rect x="0" y="1376" width="96" height="80" rx="8" ry="8" class="bf"/><text x="12.62" y="1403.4" class="v">Cloud App <tspan x="20.38" dy="1.2em" class="q">Security </tspan><tspan x="11.83" dy="1.2em" class="q">Integration</tspan></text></g></a><a target="_blank" aria-label="Microsoft Defender for Endpoint for Android" href="https://docs.microsoft.com/windows/security/threat-protection/microsoft-defender-atp/microsoft-defender-atp-android" rel="noopener"><g transform="translate(2048,-400)"><rect x="0" y="1376" width="96" height="80" rx="8" ry="8" class="bf"/><text x="6.38" y="1403.4" class="v">Defender for <tspan x="17.68" dy="1.2em" class="q">Endpoint </tspan><tspan x="16.51" dy="1.2em" class="q">(Android)</tspan></text></g></a><a target="_blank" aria-label="Endpoint Detection and Response" href="https://docs.microsoft.com/windows/security/threat-protection/windows-defender-atp/overview-endpoint-detection-response" rel="noopener"><g transform="translate(1712,-304)"><rect x="0" y="1376" width="96" height="80" rx="8" ry="8" class="bf"/><text x="17.68" y="1403.4" class="v">Endpoint <tspan x="9.11" dy="1.2em" class="q">Detection &amp; </tspan><tspan x="14.55" dy="1.2em" class="q">Response</tspan></text></g></a><a target="_blank" aria-label="Microsoft Defender for Endpoint for iOS" href="https://docs.microsoft.com/windows/security/threat-protection/microsoft-defender-atp/microsoft-defender-atp-ios" rel="noopener"><g transform="translate(1600,-304)"><rect x="0" y="1376" width="96" height="80" rx="8" ry="8" class="bf"/><text x="6.38" y="1403.4" class="v">Defender for <tspan x="17.68" dy="1.2em" class="q">Endpoint </tspan><tspan x="31.28" dy="1.2em" class="q">(iOS)</tspan></text></g></a><a target="_blank" aria-label="Microsoft Threat Experts" href="https://docs.microsoft.com/windows/security/threat-protection/windows-defender-atp/microsoft-threat-experts" rel="noopener"><g transform="translate(2048,-304)"><rect x="0" y="1376" width="96" height="80" rx="8" ry="8" class="bf"/><text x="16.5" y="1403.4" class="v">Microsoft <tspan x="26.61" dy="1.2em" class="q">Threat </tspan><tspan x="22.32" dy="1.2em" class="q">Experts</tspan></text></g></a><a target="_blank" aria-label="Evaluation Lab" href="https://docs.microsoft.com/windows/security/threat-protection/microsoft-defender-atp/evaluation-lab" rel="noopener"><g transform="translate(1936,-304)"><rect x="0" y="1376" width="96" height="80" rx="8" ry="8" class="bf"/><text x="12.6" y="1411.8" class="v">Evaluation <tspan x="35.56" dy="1.2em" class="q">Lab</tspan></text></g></a><a target="_blank" aria-label="MIP Integration" href="https://www.microsoft.com/security/blog/2019/01/17/windows-defender-atp-integrates-with-microsoft-information-protection-to-discover-protect-and-monitor-sensitive-data-on-windows-devices/" rel="noopener"><g transform="translate(1600,-208)"><rect x="0" y="1376" width="96" height="80" rx="8" ry="8" class="bf"/><text x="35.56" y="1411.8" class="v">MIP <tspan x="11.83" dy="1.2em" class="q">Integration</tspan></text></g></a><a target="_blank" aria-label="Threat and Vulnerability Management" href="https://docs.microsoft.com/windows/security/threat-protection/microsoft-defender-atp/next-gen-threat-and-vuln-mgt" rel="noopener"><g transform="translate(1936,-208)"><rect x="0" y="1376" width="96" height="80" rx="8" ry="8" class="bf"/><text x="19.61" y="1403.4" class="v">Threat &amp; <tspan x="5.99" dy="1.2em" class="q">Vulnerability </tspan><tspan x="5.21" dy="1.2em" class="q">Management</tspan></text></g></a><a target="_blank" aria-label="Web Content Filtering" href="https://docs.microsoft.com/windows/security/threat-protection/microsoft-defender-atp/web-content-filtering" rel="noopener"><g transform="translate(2048,-208)"><rect x="0" y="1376" width="96" height="80" rx="8" ry="8" class="bf"/><text x="4.84" y="1411.8" class="v">Web Content <tspan x="20.39" dy="1.2em" class="q">Filtering</tspan></text></g></a><a target="_blank" aria-label="Threat Analytics" href="https://docs.microsoft.com/windows/security/threat-protection/windows-defender-atp/threat-analytics" rel="noopener"><g transform="translate(1824,-208)"><rect x="0" y="1376" width="96" height="80" rx="8" ry="8" class="bf"/><text x="26.61" y="1411.8" class="v">Threat <tspan x="16.88" dy="1.2em" class="q">Analytics</tspan></text></g></a><a target="_blank" aria-label="Tamper Protection" href="https://docs.microsoft.com/windows/security/threat-protection/microsoft-defender-antivirus/prevent-changes-to-security-settings-with-tamper-protection" rel="noopener"><g transform="translate(1712,-208)"><rect x="0" y="1376" width="96" height="80" rx="8" ry="8" class="bf"/><text x="22.71" y="1411.8" class="v">Tamper <tspan x="13.39" dy="1.2em" class="q">Protection</tspan></text></g></a><a target="_blank" aria-label="Block at First Sight" href="https://docs.microsoft.com/windows/security/threat-protection/microsoft-defender-antivirus/configure-block-at-first-sight-microsoft-defender-antivirus" rel="noopener"><g transform="translate(1824,-400)"><rect x="0" y="1376" width="96" height="80" rx="8" ry="8" class="bf"/><text x="20.77" y="1411.8" class="v">Block at <tspan x="13.39" dy="1.2em" class="q">First Sight</tspan></text></g></a><a target="_blank" aria-label="Enhanced ASR" href="https://docs.microsoft.com/windows/security/threat-protection/microsoft-defender-atp/overview-attack-surface-reduction" rel="noopener"><g transform="translate(1824,-304)"><rect x="0" y="1376" width="96" height="80" rx="8" ry="8" class="bf"/><text x="14.55" y="1411.8" class="v">Enhanced <tspan x="33.22" dy="1.2em" class="q">ASR</tspan></text></g></a><a target="_blank" aria-label="Rules-Based Classification for AIP Client and Scanner" href="https://docs.microsoft.com/azure/information-protection/deploy-aip-scanner" rel="noopener"><g transform="translate(1056,-672)"><rect x="0" y="1376" width="96" height="80" rx="8" ry="8" class="x"/><text x="8.63" y="1396.5" class="bg">Rules-Based <tspan x="5.74" dy="1.2em" class="q">Classification </tspan><tspan x="8.64" dy="1.2em" class="q">(AIP Client &amp; </tspan><tspan x="20.18" dy="1.2em" class="q">Scanner)</tspan></text></g></a><a target="_blank" aria-label="Safe Links" href="https://docs.microsoft.com/microsoft-365/security/office-365-security/atp-safe-links" rel="noopener"><g transform="translate(672,-288)"><rect x="0" y="1424" width="288" height="32" rx="8" ry="8" class="bh"/><text x="108.99" y="1444.2" class="v">Safe Links</text></g></a><a target="_blank" aria-label="Safe Attachments" href="https://docs.microsoft.com/microsoft-365/security/office-365-security/atp-safe-attachments" rel="noopener"><g transform="translate(672,-336)"><rect x="0" y="1424" width="288" height="32" rx="8" ry="8" class="bh"/><text x="84.87" y="1444.2" class="v">Safe Attachments</text></g></a><a target="_blank" aria-label="Anti-Phishing" href="https://docs.microsoft.com/microsoft-365/security/office-365-security/atp-anti-phishing" rel="noopener"><g transform="translate(672,-432)"><rect x="0" y="1424" width="288" height="32" rx="8" ry="8" class="bh"/><text x="98.51" y="1444.2" class="v">Anti-Phishing</text></g></a><a target="_blank" aria-label="Attack Simulation Training" href="https://docs.microsoft.com/microsoft-365/security/office-365-security/attack-simulation-training-get-started" rel="noopener"><g transform="translate(432,-400)"><rect x="0" y="1376" width="96" height="80" rx="8" ry="8" class="bh"/><text x="26.6" y="1403.4" class="v">Attack <tspan x="12.22" dy="1.2em" class="q">Simulation </tspan><tspan x="20.39" dy="1.2em" class="q">Training</tspan></text></g></a><a target="_blank" aria-label="Automated Investigation and Response" href="https://docs.microsoft.com/microsoft-365/security/office-365-security/automated-investigation-response-office" rel="noopener"><g transform="translate(544,-400)"><rect x="0" y="1376" width="96" height="80" rx="8" ry="8" class="bh"/><text x="11.45" y="1403.4" class="v">Automated <tspan x="4.83" dy="1.2em" class="q">Investigation </tspan><tspan x="7.55" dy="1.2em" class="q">&amp; Response</tspan></text></g></a><a target="_blank" aria-label="Campaign Views" href="https://docs.microsoft.com/microsoft-365/security/office-365-security/campaigns" rel="noopener"><g transform="translate(432,-304)"><rect x="0" y="1376" width="96" height="80" rx="8" ry="8" class="bh"/><text x="14.16" y="1411.8" class="v">Campaign <tspan x="28.16" dy="1.2em" class="q">Views</tspan></text></g></a><a target="_blank" aria-label="Threat Explorer" href="https://docs.microsoft.com/microsoft-365/security/office-365-security/threat-explorer" rel="noopener"><g transform="translate(432,-208)"><rect x="0" y="1376" width="96" height="80" rx="8" ry="8" class="bh"/><text x="26.61" y="1411.8" class="v">Threat <tspan x="19.6" dy="1.2em" class="q">Explorer</tspan></text></g></a><a target="_blank" aria-label="Threat Trackers" href="https://docs.microsoft.com/office365/securitycompliance/threat-trackers" rel="noopener"><g transform="translate(544,-208)"><rect x="0" y="1376" width="96" height="80" rx="8" ry="8" class="bh"/><text x="26.61" y="1411.8" class="v">Threat <tspan x="18.81" dy="1.2em" class="q">Trackers</tspan></text></g></a><a target="_blank" aria-label="Compromised User Detection" href="https://docs.microsoft.com/microsoft-365/security/office-365-security/address-compromised-users-quickly" rel="noopener"><g transform="translate(544,-304)"><rect x="0" y="1376" width="96" height="80" rx="8" ry="8" class="bh"/><text x="4.3" y="1404.3" class="bg">Compromised <tspan x="33.55" dy="1.2em" class="q">User </tspan><tspan x="18.38" dy="1.2em" class="q">Detection</tspan></text></g></a><a target="_blank" aria-label="Microsoft Defender for Office 365 Plan 1" href="https://docs.microsoft.com/office365/servicedescriptions/office-365-advanced-threat-protection-service-description#feature-availability-across-advanced-threat-protection-atp-plans" rel="noopener"><g transform="translate(656,-240)"><rect x="0" y="1408" width="320" height="48" rx="8" ry="8" class="s"/><text x="26.97" y="1436.2" class="t">Microsoft Defender for Office 365 Plan 1</text></g></a><a target="_blank" aria-label="Microsoft Defender for Office 365 Plan 2" href="https://docs.microsoft.com/office365/servicedescriptions/office-365-advanced-threat-protection-service-description#feature-availability-across-advanced-threat-protection-atp-plans" rel="noopener"><g transform="translate(416,-160)"><rect x="0" y="1408" width="576" height="48" rx="8" ry="8" class="s"/><text x="154.97" y="1436.2" class="t">Microsoft Defender for Office 365 Plan 2</text></g></a><a target="_blank" aria-label="Customer Key" href="https://support.office.com/article/f2cd475a-e592-46cf-80a3-1bfb0fa17697" rel="noopener"><g transform="translate(544,-672)"><rect x="0" y="1376" width="96" height="80" rx="8" ry="8" class="bh"/><text x="15.33" y="1411.8" class="v">Customer <tspan x="35.16" dy="1.2em" class="q">Key</tspan></text></g></a><a target="_blank" aria-label="Teams DLP" href="https://docs.microsoft.com/office365/securitycompliance/data-loss-prevention-policies#policy-evaluation-in-microsoft-teams" rel="noopener"><g transform="translate(544,-576)"><rect x="0" y="1376" width="96" height="80" rx="8" ry="8" class="bh"/><text x="25.82" y="1403.4" class="v">Teams<tspan x="14.55" dy="1.2em" class="q">Data Loss </tspan><tspan x="11.82" dy="1.2em" class="q">Prevention</tspan></text></g></a><a target="_blank" aria-label="Advanced Message Encryption" href="https://docs.microsoft.com/microsoft-365/compliance/ome-advanced-message-encryption" rel="noopener"><g transform="translate(432,-672)"><rect x="0" y="1376" width="96" height="80" rx="8" ry="8" class="bh"/><text x="14.55" y="1403.4" class="v">Advanced <tspan x="18.43" dy="1.2em" class="q">Message </tspan><tspan x="11.44" dy="1.2em" class="q">Encryption</tspan></text></g></a><a target="_blank" aria-label="Records Management" href="https://docs.microsoft.com/microsoft-365/compliance/records-management" rel="noopener"><g transform="translate(880,-672)"><rect x="0" y="1376" width="96" height="80" rx="8" ry="8" class="bh"/><text x="19.99" y="1411.8" class="v">Records <tspan x="5.21" dy="1.2em" class="q">Management</tspan></text></g></a><a target="_blank" aria-label="Double Key Encryption" href="https://docs.microsoft.com/microsoft-365/compliance/double-key-encryption" rel="noopener"><g transform="translate(656,-672)"><rect x="0" y="1376" width="96" height="80" rx="8" ry="8" class="bh"/><text x="9.49" y="1411.8" class="v">Double Key <tspan x="11.44" dy="1.2em" class="q">Encryption</tspan></text></g></a><a target="_blank" aria-label="Customer Lockbox" href="https://support.office.com/article/36f9cdd1-e64c-421b-a7e4-4a54d16440a2" rel="noopener"><g transform="translate(544,-800)"><rect x="0" y="1376" width="96" height="80" rx="8" ry="8" class="bh"/><text x="15.33" y="1411.8" class="v">Customer <tspan x="19.22" dy="1.2em" class="q">Lockbox</tspan></text></g></a><a target="_blank" aria-label="Information Barriers" href="https://docs.microsoft.com/microsoft-365/compliance/information-barriers" rel="noopener"><g transform="translate(656,-800)"><rect x="0" y="1376" width="96" height="80" rx="8" ry="8" class="bh"/><text x="9.5" y="1411.8" class="v">Information <tspan x="21.15" dy="1.2em" class="q">Barriers</tspan></text></g></a><a target="_blank" aria-label="Communication Compliance" href="https://docs.microsoft.com/microsoft-365/compliance/communication-compliance" rel="noopener"><g transform="translate(432,-800)"><rect x="0" y="1376" width="96" height="80" rx="8" ry="8" class="bh"/><text x="26.22" y="1411.8" class="v">Comm <tspan x="8.32" dy="1.2em" class="q">Compliance</tspan></text></g></a><a target="_blank" aria-label="Advanced eDiscovery" href="https://docs.microsoft.com/microsoft-365/compliance/manage-legal-investigations" rel="noopener"><g transform="translate(544,-928)"><rect x="0" y="1376" width="96" height="80" rx="8" ry="8" class="bh"/><text x="14.55" y="1411.8" class="v">Advanced <tspan x="10.64" dy="1.2em" class="q">eDiscovery</tspan></text></g></a><a target="_blank" aria-label="Advanced Audit" href="https://docs.microsoft.com/microsoft-365/compliance/advanced-audit" rel="noopener"><g transform="translate(432,-928)"><rect x="0" y="1376" width="96" height="80" rx="8" ry="8" class="bh"/><text x="14.55" y="1411.8" class="v">Advanced <tspan x="30.12" dy="1.2em" class="q">Audit</tspan></text></g></a><a target="_blank" aria-label="Phone System" href="https://docs.microsoft.com/MicrosoftTeams/what-is-phone-system-in-office-365" rel="noopener"><g transform="translate(768,-1072)"><rect x="0" y="1376" width="96" height="80" rx="8" ry="8" class="bh"/><text x="26.61" y="1411.8" class="v">Phone <tspan x="23.1" dy="1.2em" class="q">System</tspan></text></g></a><a target="_blank" aria-label="Audio Conferencing" href="https://docs.microsoft.com/microsoftteams/audio-conferencing-in-office-365" rel="noopener"><g transform="translate(432,-1072)"><rect x="0" y="1376" width="96" height="80" rx="8" ry="8" class="bh"/><text x="29.59" y="1412.1" class="bg">Audio <tspan x="6.11" dy="1.2em" class="q">Conferencing</tspan></text></g></a><a target="_blank" aria-label="Power BI Pro" href="https://docs.microsoft.com/power-bi/service-get-started" rel="noopener"><g transform="translate(880,-1072)"><rect x="0" y="1376" width="96" height="80" rx="8" ry="8" class="bh"/><text x="4.43" y="1420.2" class="v">Power BI Pro</text></g></a><a target="_blank" aria-label="MyAnalytics (Full)" href="https://docs.microsoft.com/office365/servicedescriptions/mya-service-description" rel="noopener"><g transform="translate(544,-1072)"><rect x="0" y="1376" width="96" height="80" rx="8" ry="8" class="bh"/><text x="7.15" y="1411.8" class="v">MyAnalytics <tspan x="32.12" dy="1.292em" class="z">(Full)</tspan></text></g></a><a target="_blank" aria-label="Office 365 Cloud App Security" href="https://docs.microsoft.com/cloud-app-security/editions-cloud-app-security-o365" rel="noopener"><g transform="translate(656,-1072)"><rect x="0" y="1376" width="96" height="80" rx="8" ry="8" class="bh"/><text x="14.54" y="1403.4" class="v">Office 365 <tspan x="12.62" dy="1.2em" class="q">Cloud App </tspan><tspan x="20.38" dy="1.2em" class="q">Security</tspan></text></g></a><a target="_blank" aria-label="Real-Time Reports" href="https://docs.microsoft.com/office365/servicedescriptions/office-365-advanced-threat-protection-service-description#real-time-reports" rel="noopener"><g transform="translate(672,-384)"><rect x="0" y="1424" width="288" height="32" rx="8" ry="8" class="bh"/><text x="82.15" y="1444.2" class="v">Real-Time Reports</text></g></a><a target="_blank" aria-label="Information Governance" href="https://docs.microsoft.com/microsoft-365/compliance/manage-information-governance" rel="noopener"><g transform="translate(768,-672)"><rect x="0" y="1376" width="96" height="80" rx="8" ry="8" class="bh"/><text x="9.5" y="1411.8" class="v">Information <tspan x="7.54" dy="1.2em" class="q">Governance</tspan></text></g></a><a target="_blank" aria-label="Privileged Access Management" href="https://docs.microsoft.com/microsoft-365/compliance/privileged-access-management-solution-overview" rel="noopener"><g transform="translate(768,-800)"><rect x="0" y="1376" width="96" height="80" rx="8" ry="8" class="bh"/><text x="14.54" y="1403.4" class="v">Privileged <tspan x="23.48" dy="1.2em" class="q">Access </tspan><tspan x="5.21" dy="1.2em" class="q">Management</tspan></text></g></a><a target="_blank" aria-label="Rules-Based Classification for Office 365" href="https://docs.microsoft.com/microsoft-365/compliance/apply-sensitivity-label-automatically" rel="noopener"><g transform="translate(432,-576)"><rect x="0" y="1376" width="96" height="80" rx="8" ry="8" class="bh"/><text x="8.63" y="1404.3" class="bg">Rules-Based <tspan x="5.74" dy="1.2em" class="q">Classification</tspan><tspan x="12.6" dy="1.2em" class="q">(Office 365)</tspan></text></g></a><a target="_blank" aria-label="Office 365 Enterprise" href="https://docs.microsoft.com/office365/enterprise/" rel="noopener"><g transform="translate(400,-16)"><rect x="0" y="1392" width="608" height="64" rx="8" ry="8" class="m"/><text x="201.19" y="1430" class="n">Office 365 E5 Step-up</text></g></a><a target="_blank" aria-label="Windows 10" href="https://www.microsoft.com/windowsforbusiness" rel="noopener"><g transform="translate(1568,-16)"><rect x="0" y="1392" width="608" height="64" rx="8" ry="8" class="o"/><text x="191.21" y="1430" class="n">Windows 10 E5 Step-up</text></g></a><a target="_blank" aria-label="Enterprise Mobility + Security" href="https://www.microsoft.com/cloud-platform/enterprise-mobility-security" rel="noopener"><g transform="translate(1040,-16)"><rect x="0" y="1392" width="496" height="64" rx="8" ry="8" class="p"/><text x="52.12" y="1418" class="n">Enterprise Mobility + Security E5 Step-up<tspan x="204.66" dy="1.2em" class="q">(EMS E5)</tspan></text></g></a><a target="_blank" aria-label="Microsoft 365 Security" href="https://docs.microsoft.com/microsoft-365/security/" rel="noopener"><g transform="translate(800,1312) rotate(-90)"><rect x="0" y="1408" width="368" height="48" rx="8" ry="8" class="bd"/><text x="74.46" y="1437.4" class="be">Microsoft 365 E5 Security</text></g></a><a target="_blank" aria-label="Microsoft 365 Compliance" href="https://docs.microsoft.com/microsoft-365/compliance/" rel="noopener"><g transform="translate(800,912) rotate(-90)"><rect x="0" y="1408" width="496" height="48" rx="8" ry="8" class="bd"/><text x="122.96" y="1437.4" class="be">Microsoft 365 E5 Compliance</text></g></a><g transform="translate(2560,880) rotate(90)"><path d="M11.12 1456 L11.48 1456 L84.52 1456" class="bi"/></g></g></svg>