<svg xmlns="http://www.w3.org/2000/svg" width="768px" height="992px" viewBox="0 0 768 992" class="a"><style>
.b {fill:#a5a5a5;fill-opacity:0.2;stroke:#7030a0;stroke-linecap:round;stroke-linejoin:round;stroke-width:2.25}
.c {fill:#a5a5a5;fill-opacity:0.2;stroke:#a41500;stroke-dasharray:33.75,20.25;stroke-linecap:round;stroke-linejoin:round;stroke-width:2.25}
.d {fill:#a5a5a5;fill-opacity:0.2;stroke:#2080a0;stroke-dasharray:33.75,20.25;stroke-linecap:round;stroke-linejoin:round;stroke-width:2.25}
.e {fill:#2080a0;stroke:#2080a0;stroke-linecap:round;stroke-linejoin:round;stroke-width:2.25}
.f {fill:#ffffff;font-family:Arial;font-size:1.66667em;font-weight:bold}
.g {fill:#a41500;stroke:#a41500;stroke-linecap:round;stroke-linejoin:round;stroke-width:2.25}
.h {fill:#7030a0;stroke:#7030a0;stroke-linecap:round;stroke-linejoin:round;stroke-width:2.25}
.i {fill:none;stroke:none;stroke-linecap:round;stroke-linejoin:round;stroke-width:0.75}
.j {fill:#0070f7;font-family:Arial;font-size:3em;font-weight:bold}
.k {fill:#0070f7;font-family:Arial;font-size:2.50001em;font-weight:bold}
.l {fill:#0070f7;font-family:Arial;font-size:1.5em;font-weight:bold}
.m {fill:#2080a0;stroke:none;stroke-linecap:round;stroke-linejoin:round;stroke-width:1}
.n {fill:#ffffff;font-family:Arial;font-size:1.16666em;font-weight:bold}
.o {font-size:0.785725em}
.p {fill:#a41500;stroke:none;stroke-linecap:round;stroke-linejoin:round;stroke-width:1}
.q {font-size:1em}
.r {fill:#ffffff;font-family:Arial;font-size:1.08334em;font-weight:bold}
.a {fill:none;fill-rule:evenodd;font-size:12px;overflow:visible;stroke-linecap:square;stroke-miterlimit:3}
</style><g><g transform="translate(80,-16)"><rect x="0" y="160" width="608" height="832" rx="8" ry="8" class="b"/></g><g transform="translate(16,-256)"><rect x="0" y="464" width="736" height="528" rx="8" ry="8" class="c"/></g><g transform="translate(16,-80)"><rect x="0" y="848" width="736" height="144" rx="8" ry="8" class="d"/></g><a target="_blank" aria-label="Enterprise Mobility + Security" href="https://www.microsoft.com/cloud-platform/enterprise-mobility-security" rel="noopener"><g transform="translate(-944,912) rotate(-90)"><rect x="0" y="960" width="144" height="32" rx="8" ry="8" class="e"/><text x="50.33" y="982" class="f">EMS</text></g></a><a target="_blank" aria-label="Office 365 Business" href="https://products.office.com/business/" rel="noopener"><g transform="translate(-240,736) rotate(-90)"><rect x="0" y="960" width="528" height="32" rx="8" ry="8" class="g"/><text x="216.2" y="982" class="f">Office 365</text></g></a><a target="_blank" aria-label="Enterprise Mobility + Security" href="https://www.microsoft.com/cloud-platform/enterprise-mobility-security" rel="noopener"><g transform="translate(-240,912) rotate(-90)"><rect x="0" y="960" width="144" height="32" rx="8" ry="8" class="e"/><text x="50.33" y="982" class="f">EMS</text></g></a><a target="_blank" aria-label="Office 365 Business" href="https://products.office.com/business/" rel="noopener"><g transform="translate(-944,736) rotate(-90)"><rect x="0" y="960" width="528" height="32" rx="8" ry="8" class="g"/><text x="216.2" y="982" class="f">Office 365</text></g></a><a target="_blank" aria-label="Microsoft 365 Business Standard" href="https://www.microsoft.com/microsoft-365/business/microsoft-365-business-standard" rel="noopener"><g transform="translate(80,-816)"><rect x="0" y="960" width="608" height="32" rx="8" ry="8" class="h"/><text x="146.18" y="982" class="f">Microsoft 365 Business Standard</text></g></a><a target="_blank" aria-label="m365maps.com" href="https://m365maps.com/" rel="noopener"><g transform="translate(16,-928)"><rect x="0" y="944" width="736" height="48" class="i"/><text x="83.92" y="978.8" class="j">Microsoft 365 Business Standard</text></g></a><g transform="translate(16,-896)"><rect x="0" y="960" width="736" height="32" class="i"/><text x="286.28" y="985" class="k">March 2021</text></g><a target="_blank" aria-label="m365maps.com" href="https://m365maps.com/" rel="noopener"><g transform="translate(16,-864)"><rect x="0" y="960" width="736" height="32" class="i"/><text x="300.46" y="981.4" class="l">m365maps.com</text></g></a><a target="_blank" aria-label="Intune Device Management" href="https://docs.microsoft.com/mem/intune/fundamentals/what-is-intune" rel="noopener"><g transform="translate(112,-112)"><rect x="0" y="912" width="96" height="80" rx="8" ry="8" class="m"/><text x="10.66" y="947.8" class="n">Basic MDM <tspan x="7.34" dy="1.527em" class="o">(selective wipe)</tspan></text></g></a><a target="_blank" aria-label="Exchange Online" href="https://docs.microsoft.com/office365/servicedescriptions/exchange-online-service-description/exchange-online-service-description#feature-availability-across-exchange-online-standalone-plans" rel="noopener"><g transform="translate(224,-672)"><rect x="0" y="912" width="96" height="80" rx="8" ry="8" class="p"/><text x="14.93" y="939.4" class="n">Exchange <tspan x="26.22" dy="1.2em" class="q">Online </tspan><tspan x="27.38" dy="1.2em" class="q">Plan 1</tspan></text></g></a><a target="_blank" aria-label="SharePoint Online" href="https://docs.microsoft.com/sharepoint/introduction" rel="noopener"><g transform="translate(448,-384)"><rect x="0" y="912" width="96" height="80" rx="8" ry="8" class="p"/><text x="11.05" y="947.8" class="n">SharePoint <tspan x="26.22" dy="1.2em" class="q">Online</tspan></text></g></a><a target="_blank" aria-label="OneDrive for Business" href="https://docs.microsoft.com/office365/servicedescriptions/onedrive-for-business-service-description" rel="noopener"><g transform="translate(448,-480.032)"><rect x="0" y="912" width="96" height="80" rx="8" ry="8" class="p"/><text x="5.6" y="939.4" class="n">OneDrive for <tspan x="16.88" dy="1.2em" class="q">Business </tspan><tspan x="27.38" dy="1.2em" class="q">Plan 1</tspan></text></g></a><a target="_blank" aria-label="Yammer" href="https://products.office.com/yammer/yammer-overview" rel="noopener"><g transform="translate(224,-288)"><rect x="0" y="912" width="96" height="80" rx="8" ry="8" class="p"/><text x="20.37" y="947.8" class="n">Yammer <tspan x="13.38" dy="1.2em" class="q">Enterprise</tspan></text></g></a><a target="_blank" aria-label="Planner" href="https://products.office.com/business/task-management-software" rel="noopener"><g transform="translate(560,-480.032)"><rect x="0" y="912" width="96" height="80" rx="8" ry="8" class="p"/><text x="22.32" y="956.2" class="n">Planner</text></g></a><a target="_blank" aria-label="Microsoft Teams" href="https://products.office.com/microsoft-teams/" rel="noopener"><g transform="translate(336,-576)"><rect x="0" y="912" width="96" height="80" rx="8" ry="8" class="p"/><text x="16.5" y="947.8" class="n">Microsoft <tspan x="25.82" dy="1.2em" class="q">Teams</tspan></text></g></a><a target="_blank" aria-label="Stream" href="https://docs.microsoft.com/stream/" rel="noopener"><g transform="translate(560,-384)"><rect x="0" y="912" width="96" height="80" rx="8" ry="8" class="p"/><text x="12.99" y="947.8" class="n">Stream for <tspan x="14.54" dy="1.2em" class="q">Office 365</tspan></text></g></a><a target="_blank" aria-label="MyAnalytics" href="https://products.office.com/business/myanalytics-personal-analytics" rel="noopener"><g transform="translate(336,-672)"><rect x="0" y="912" width="96" height="80" rx="8" ry="8" class="p"/><text x="11.05" y="947.8" class="n">Insights by <tspan x="7.15" dy="1.2em" class="q">MyAnalytics</tspan></text></g></a><a target="_blank" aria-label="Power Apps" href="https://powerapps.microsoft.com/" rel="noopener"><g transform="translate(112,-384)"><rect x="0" y="912" width="96" height="80" rx="8" ry="8" class="p"/><text x="7.55" y="939.4" class="n">Power Apps<tspan x="38.67" dy="1.2em" class="q">for </tspan><tspan x="14.54" dy="1.2em" class="q">Office 365</tspan></text></g></a><a target="_blank" aria-label="Power Automate" href="https://powerautomate.microsoft.com/" rel="noopener"><g transform="translate(224,-384)"><rect x="0" y="912" width="96" height="80" rx="8" ry="8" class="p"/><text x="26.99" y="939.4" class="n">Power <tspan x="4.45" dy="1.2em" class="q">Automate for</tspan><tspan x="14.54" dy="1.2em" class="q">Office 365</tspan></text></g></a><a target="_blank" aria-label="Sway" href="https://support.office.com/sway" rel="noopener"><g transform="translate(112,-288)"><rect x="0" y="912" width="96" height="80" rx="8" ry="8" class="p"/><text x="30.1" y="956.2" class="n">Sway</text></g></a><a target="_blank" aria-label="Microsoft Forms" href="https://support.office.com/forms" rel="noopener"><g transform="translate(112,-576)"><rect x="0" y="912" width="96" height="80" rx="8" ry="8" class="p"/><text x="16.5" y="947.8" class="n">Microsoft <tspan x="26.61" dy="1.2em" class="q">Forms</tspan></text></g></a><a target="_blank" aria-label="MileIQ" href="https://www.mileiq.com/office365/" rel="noopener"><g transform="translate(112,-480)"><rect x="0" y="912" width="96" height="80" rx="8" ry="8" class="p"/><text x="27" y="947.8" class="n">MileIQ <tspan x="5.83" dy="1.527em" class="o">(US/UK/Canada)</tspan></text></g></a><a target="_blank" aria-label="Bookings" href="https://products.office.com/business/scheduling-and-booking-app" rel="noopener"><g transform="translate(112,-672)"><rect x="0" y="912" width="96" height="80" rx="8" ry="8" class="p"/><text x="16.11" y="956.2" class="n">Bookings</text></g></a><a target="_blank" aria-label="Microsoft 365 Apps for Business" href="https://www.microsoft.com/microsoft-365/business/microsoft-365-apps-for-business" rel="noopener"><g transform="translate(448,-672)"><rect x="0" y="912" width="96" height="80" rx="8" ry="8" class="p"/><text x="16.5" y="931" class="n">Microsoft <tspan x="5.6" dy="1.2em" class="q">365 Apps for </tspan><tspan x="16.88" dy="1.2em" class="q">Business </tspan><tspan x="24.48" dy="1.527em" class="o">(no SCA)</tspan></text></g></a><a target="_blank" aria-label="Microsoft Dataverse for Teams" href="https://docs.microsoft.com/powerapps/teams/overview-data-platform" rel="noopener"><g transform="translate(560,-672)"><rect x="0" y="912" width="96" height="80" rx="8" ry="8" class="p"/><text x="16.5" y="939.4" class="n">Microsoft <tspan x="14.53" dy="1.2em" class="q">Dataverse </tspan><tspan x="14.55" dy="1.2em" class="q">for Teams</tspan></text></g></a><a target="_blank" aria-label="Office Mobile" href="https://products.office.com/mobile/office" rel="noopener"><g transform="translate(336,-480)"><rect x="0" y="912" width="96" height="80" rx="8" ry="8" class="p"/><text x="28.16" y="947.8" class="n">Office <tspan x="6.39" dy="1.2em" class="q">Mobile Apps</tspan></text></g></a><a target="_blank" aria-label="Office Online" href="https://docs.microsoft.com/office365/servicedescriptions/office-online-service-description/office-online-service-description" rel="noopener"><g transform="translate(224,-480)"><rect x="0" y="912" width="96" height="80" rx="8" ry="8" class="p"/><text x="28.16" y="947.8" class="n">Office <tspan x="9.5" dy="1.2em" class="q">for the Web</tspan></text></g></a><a target="_blank" aria-label="Microsoft Lists" href="https://www.microsoft.com/microsoft-365/microsoft-lists" rel="noopener"><g transform="translate(224,-576)"><rect x="0" y="912" width="96" height="80" rx="8" ry="8" class="p"/><text x="16.5" y="947.8" class="n">Microsoft <tspan x="31.66" dy="1.2em" class="q">Lists</tspan></text></g></a><a target="_blank" aria-label="Microsoft Whiteboard" href="https://support.microsoft.com/office/d236aef8-fcdf-4b5e-b5d7-7f157461e920" rel="noopener"><g transform="translate(560,-576)"><rect x="0" y="912" width="96" height="80" rx="8" ry="8" class="p"/><text x="16.5" y="947.8" class="n">Microsoft <tspan x="9.5" dy="1.2em" class="q">Whiteboard</tspan></text></g></a><a target="_blank" aria-label="Microsoft To-Do" href="https://www.microsoft.com/microsoft-365/microsoft-to-do-list-app" rel="noopener"><g transform="translate(448,-576)"><rect x="0" y="912" width="96" height="80" rx="8" ry="8" class="p"/><text x="16.5" y="947.8" class="n">Microsoft <tspan x="27.79" dy="1.2em" class="q">To</tspan>-Do</text></g></a><a target="_blank" aria-label="Power Virtual Agents for Teams" href="https://docs.microsoft.com/power-virtual-agents/teams/fundamentals-what-is-power-virtual-agents-teams" rel="noopener"><g transform="translate(336,-384)"><rect x="0" y="912" width="96" height="80" rx="8" ry="8" class="p"/><text x="6.46" y="940.3" class="r">Power Virtual <tspan x="15.5" dy="1.2em" class="q">Agents for </tspan><tspan x="27.4" dy="1.2em" class="q">Teams</tspan></text></g></a><a target="_blank" aria-label="Microsoft 365 Business Standard" href="https://www.microsoft.com/microsoft-365/business/microsoft-365-business-standard" rel="noopener"><g transform="translate(80,-16)"><rect x="0" y="960" width="608" height="32" rx="8" ry="8" class="h"/><text x="146.18" y="982" class="f">Microsoft 365 Business Standard</text></g></a></g></svg>