<svg xmlns="http://www.w3.org/2000/svg" width="640px" height="752px" viewBox="0 0 640 752" class="a"><style>
.b {fill:#a5a5a5;fill-opacity:0.2;stroke:#7030a0;stroke-linecap:round;stroke-linejoin:round;stroke-width:2.25}
.c {fill:#7030a0;stroke:#7030a0;stroke-linecap:round;stroke-linejoin:round;stroke-width:2.25}
.d {fill:#ffffff;font-family:Arial;font-size:1.66667em;font-weight:bold}
.e {fill:none;stroke:none;stroke-linecap:round;stroke-linejoin:round;stroke-width:0.75}
.f {fill:#0070f7;font-family:Arial;font-size:3em;font-weight:bold}
.g {fill:#0070f7;font-family:Arial;font-size:2.50001em;font-weight:bold}
.h {fill:#0070f7;font-family:Arial;font-size:1.5em;font-weight:bold}
.i {fill:#a41500;stroke:none;stroke-linecap:round;stroke-linejoin:round;stroke-width:1}
.j {fill:#ffffff;font-family:Arial;font-size:1.16666em;font-weight:bold}
.k {font-size:1em}
.l {fill:#ffffff;font-family:Arial;font-size:1.08334em;font-weight:bold}
.a {fill:none;fill-rule:evenodd;font-size:12px;overflow:visible;stroke-linecap:square;stroke-miterlimit:3}
</style><g><g transform="translate(16,-16)"><rect x="0" y="160" width="608" height="592" rx="8" ry="8" class="b"/></g><a target="_blank" href="https://www.microsoft.com/microsoft-365/business/microsoft-365-business-basic" rel="noopener"><g transform="translate(16,-16)"><rect x="0" y="720" width="608" height="32" rx="8" ry="8" class="c"/><text x="162.83" y="742" class="d">Microsoft 365 Business Basic</text></g></a><a target="_blank" href="https://www.microsoft.com/microsoft-365/business/microsoft-365-business-basic" rel="noopener"><g transform="translate(16,-576)"><rect x="0" y="720" width="608" height="32" rx="8" ry="8" class="c"/><text x="162.83" y="742" class="d">Microsoft 365 Business Basic</text></g></a><a target="_blank" href="https://m365maps.com/" rel="noopener"><g transform="translate(16,-688)"><rect x="0" y="704" width="608" height="48" class="e"/><text x="49.9" y="738.8" class="f">Microsoft 365 Business Basic</text></g></a><g transform="translate(16,-656)"><rect x="0" y="720" width="608" height="32" class="e"/><text x="231.45" y="745" class="g">June 2021</text></g><a target="_blank" href="https://m365maps.com/" rel="noopener"><g transform="translate(16,-624)"><rect x="0" y="720" width="608" height="32" class="e"/><text x="236.46" y="741.4" class="h">m365maps.com</text></g></a><a target="_blank" href="https://docs.microsoft.com/microsoft-365/admin/basic-mobility-security/capabilities" rel="noopener"><g transform="translate(384,-464)"><rect x="0" y="672" width="96" height="80" rx="8" ry="8" class="i"/><text x="29.32" y="699.4" class="j">Basic <tspan x="14.56" dy="1.2em" class="k">Mobility &amp; </tspan><tspan x="20.38" dy="1.2em" class="k">Security</tspan></text></g></a><a target="_blank" href="https://docs.microsoft.com/office365/servicedescriptions/exchange-online-service-description/exchange-online-service-description#feature-availability-across-exchange-online-standalone-plans" rel="noopener"><g transform="translate(496,-464)"><rect x="0" y="672" width="96" height="80" rx="8" ry="8" class="i"/><text x="14.93" y="699.4" class="j">Exchange <tspan x="26.22" dy="1.2em" class="k">Online </tspan><tspan x="27.38" dy="1.2em" class="k">Plan 1</tspan></text></g></a><a target="_blank" href="https://docs.microsoft.com/sharepoint/introduction" rel="noopener"><g transform="translate(496,-176)"><rect x="0" y="672" width="96" height="80" rx="8" ry="8" class="i"/><text x="11.05" y="707.8" class="j">SharePoint <tspan x="26.22" dy="1.2em" class="k">Online</tspan></text></g></a><a target="_blank" href="https://docs.microsoft.com/office365/servicedescriptions/onedrive-for-business-service-description" rel="noopener"><g transform="translate(496,-272)"><rect x="0" y="672" width="96" height="80" rx="8" ry="8" class="i"/><text x="5.6" y="699.4" class="j">OneDrive for <tspan x="16.88" dy="1.2em" class="k">Business </tspan><tspan x="27.38" dy="1.2em" class="k">Plan 1</tspan></text></g></a><a target="_blank" href="https://products.office.com/yammer/yammer-overview" rel="noopener"><g transform="translate(272,-80)"><rect x="0" y="672" width="96" height="80" rx="8" ry="8" class="i"/><text x="20.37" y="707.8" class="j">Yammer <tspan x="13.38" dy="1.2em" class="k">Enterprise</tspan></text></g></a><a target="_blank" href="https://products.office.com/business/task-management-software" rel="noopener"><g transform="translate(48,-176)"><rect x="0" y="672" width="96" height="80" rx="8" ry="8" class="i"/><text x="22.32" y="716.2" class="j">Planner</text></g></a><a target="_blank" href="https://products.office.com/microsoft-teams/" rel="noopener"><g transform="translate(496,-368)"><rect x="0" y="672" width="96" height="80" rx="8" ry="8" class="i"/><text x="16.5" y="707.8" class="j">Microsoft <tspan x="25.82" dy="1.2em" class="k">Teams</tspan></text></g></a><a target="_blank" href="https://docs.microsoft.com/stream/" rel="noopener"><g transform="translate(48,-80)"><rect x="0" y="672" width="96" height="80" rx="8" ry="8" class="i"/><text x="12.99" y="707.8" class="j">Stream for <tspan x="14.54" dy="1.2em" class="k">Office 365</tspan></text></g></a><a target="_blank" href="https://products.office.com/business/myanalytics-personal-analytics" rel="noopener"><g transform="translate(48,-368)"><rect x="0" y="672" width="96" height="80" rx="8" ry="8" class="i"/><text x="11.05" y="707.8" class="j">Insights by <tspan x="7.15" dy="1.2em" class="k">MyAnalytics</tspan></text></g></a><a target="_blank" href="https://powerapps.microsoft.com/" rel="noopener"><g transform="translate(160,-176)"><rect x="0" y="672" width="96" height="80" rx="8" ry="8" class="i"/><text x="7.55" y="699.4" class="j">Power Apps<tspan x="38.67" dy="1.2em" class="k">for</tspan><tspan x="14.54" dy="1.2em" class="k">Office 365</tspan></text></g></a><a target="_blank" href="https://powerautomate.microsoft.com/" rel="noopener"><g transform="translate(272,-176)"><rect x="0" y="672" width="96" height="80" rx="8" ry="8" class="i"/><text x="26.99" y="699.4" class="j">Power <tspan x="4.45" dy="1.2em" class="k">Automate for</tspan><tspan x="14.54" dy="1.2em" class="k">Office 365</tspan></text></g></a><a target="_blank" href="https://support.office.com/sway" rel="noopener"><g transform="translate(160,-80)"><rect x="0" y="672" width="96" height="80" rx="8" ry="8" class="i"/><text x="30.1" y="716.2" class="j">Sway</text></g></a><a target="_blank" href="https://support.office.com/forms" rel="noopener"><g transform="translate(272,-368)"><rect x="0" y="672" width="96" height="80" rx="8" ry="8" class="i"/><text x="16.5" y="707.8" class="j">Microsoft <tspan x="26.61" dy="1.2em" class="k">Forms</tspan></text></g></a><a target="_blank" href="https://docs.microsoft.com/powerapps/teams/overview-data-platform" rel="noopener"><g transform="translate(160,-368)"><rect x="0" y="672" width="96" height="80" rx="8" ry="8" class="i"/><text x="16.5" y="699.4" class="j">Microsoft <tspan x="14.53" dy="1.2em" class="k">Dataverse </tspan><tspan x="14.55" dy="1.2em" class="k">for Teams</tspan></text></g></a><a target="_blank" href="https://products.office.com/mobile/office" rel="noopener"><g transform="translate(384,-272)"><rect x="0" y="672" width="96" height="80" rx="8" ry="8" class="i"/><text x="28.16" y="707.8" class="j">Office<tspan x="6.39" dy="1.2em" class="k">Mobile Apps</tspan></text></g></a><a target="_blank" href="https://docs.microsoft.com/office365/servicedescriptions/office-online-service-description/office-online-service-description" rel="noopener"><g transform="translate(272,-272)"><rect x="0" y="672" width="96" height="80" rx="8" ry="8" class="i"/><text x="28.16" y="707.8" class="j">Office<tspan x="9.5" dy="1.2em" class="k">for the Web</tspan></text></g></a><a target="_blank" href="https://www.microsoft.com/microsoft-365/microsoft-lists" rel="noopener"><g transform="translate(384,-368)"><rect x="0" y="672" width="96" height="80" rx="8" ry="8" class="i"/><text x="16.5" y="707.8" class="j">Microsoft <tspan x="31.66" dy="1.2em" class="k">Lists</tspan></text></g></a><a target="_blank" href="https://support.microsoft.com/office/d236aef8-fcdf-4b5e-b5d7-7f157461e920" rel="noopener"><g transform="translate(160,-272)"><rect x="0" y="672" width="96" height="80" rx="8" ry="8" class="i"/><text x="16.5" y="707.8" class="j">Microsoft <tspan x="9.5" dy="1.2em" class="k">Whiteboard</tspan></text></g></a><a target="_blank" href="https://www.microsoft.com/microsoft-365/microsoft-to-do-list-app" rel="noopener"><g transform="translate(48,-272)"><rect x="0" y="672" width="96" height="80" rx="8" ry="8" class="i"/><text x="16.5" y="707.8" class="j">Microsoft <tspan x="27.79" dy="1.2em" class="k">To</tspan>-Do</text></g></a><a target="_blank" href="https://docs.microsoft.com/power-virtual-agents/teams/fundamentals-what-is-power-virtual-agents-teams" rel="noopener"><g transform="translate(384,-176)"><rect x="0" y="672" width="96" height="80" rx="8" ry="8" class="i"/><text x="6.46" y="700.3" class="l">Power Virtual <tspan x="15.5" dy="1.2em" class="k">Agents for </tspan><tspan x="27.4" dy="1.2em" class="k">Teams</tspan></text></g></a><a target="_blank" href="https://azure.microsoft.com/pricing/details/active-directory/" rel="noopener"><g transform="translate(272,-464)"><rect x="0" y="672" width="96" height="80" rx="8" ry="8" class="i"/><text x="5.22" y="707.8" class="j">Azure AD for <tspan x="14.54" dy="1.2em" class="k">Office 365</tspan></text></g></a><a target="_blank" href="https://docs.microsoft.com/office365/securitycompliance/search-the-audit-log-in-security-and-compliance" rel="noopener"><g transform="translate(160,-464)"><rect x="0" y="672" width="96" height="80" rx="8" ry="8" class="i"/><text x="30.12" y="707.8" class="j">Audit <tspan x="20.4" dy="1.2em" class="k">Logging</tspan></text></g></a><a target="_blank" href="https://docs.microsoft.com/microsoft-365/compliance/alert-policies" rel="noopener"><g transform="translate(48,-464)"><rect x="0" y="672" width="96" height="80" rx="8" ry="8" class="i"/><text x="32.05" y="707.8" class="j">Alert <tspan x="21.54" dy="1.2em" class="k">Policies</tspan></text></g></a></g></svg>