<svg xmlns="http://www.w3.org/2000/svg" width="608px" height="560px" viewBox="0 0 608 560" class="a"><style>
.b {fill:#d8d8d8;fill-opacity:0.6;stroke:#002060;stroke-linecap:round;stroke-linejoin:round;stroke-width:2.25}
.c {fill:#a5a5a5;fill-opacity:0.2;stroke:#303040;stroke-linecap:round;stroke-linejoin:round;stroke-width:2.25}
.d {fill:#7030a0;stroke:none;stroke-linecap:round;stroke-linejoin:round;stroke-width:0.5}
.e {fill:#ffffff;font-family:Arial;font-size:1.16666em;font-weight:bold}
.f {font-size:1em}
.g {fill:#ffffff;font-family:Arial;font-size:1.08334em;font-weight:bold}
.h {font-size:0.928588em}
.i {fill:#002060;stroke:#002060;stroke-linecap:round;stroke-linejoin:round;stroke-width:2.25}
.j {fill:#ffffff;font-family:Arial;font-size:1.66667em;font-weight:bold}
.k {fill:#ffffff;fill-opacity:0.75;stroke:none;stroke-linecap:round;stroke-linejoin:round;stroke-width:0.5}
.l {fill:#000000;font-family:Arial;font-size:1.16666em}
.m {fill:#e00080;stroke:none;stroke-linecap:round;stroke-linejoin:round;stroke-width:0.5}
.n {fill:#303040;stroke:#303040;stroke-linecap:round;stroke-linejoin:round;stroke-width:2.25}
.a {fill:none;fill-rule:evenodd;font-size:12px;overflow:visible;stroke-linecap:square;stroke-miterlimit:3}
</style><g><g transform="translate(16,-16)"><rect x="0" y="416" width="576" height="144" rx="8" ry="8" class="b"/></g><g transform="translate(16,-192)"><rect x="0" y="208" width="576" height="352" rx="8" ry="8" class="c"/></g><a target="_blank" href="https://docs.microsoft.com/MicrosoftTeams/what-is-phone-system-in-office-365" rel="noopener"><g transform="translate(368,-352)"><rect x="0" y="480" width="96" height="80" rx="8" ry="8" class="d"/><text x="26.61" y="515.8" class="e">Phone <tspan x="23.1" dy="1.2em" class="f">System</tspan></text></g></a><a target="_blank" href="https://docs.microsoft.com/microsoftteams/audio-conferencing-in-office-365" rel="noopener"><g transform="translate(32,-448)"><rect x="0" y="480" width="96" height="80" rx="8" ry="8" class="d"/><text x="29.59" y="516.1" class="g">Audio <tspan x="6.11" dy="1.2em" class="f">Conferencing</tspan></text></g></a><a target="_blank" href="https://products.office.com/microsoft-teams/" rel="noopener"><g transform="translate(144,-352)"><rect x="0" y="480" width="96" height="80" rx="8" ry="8" class="d"/><text x="16.5" y="515.8" class="e">Microsoft <tspan x="25.82" dy="1.2em" class="f">Teams</tspan></text></g></a><a target="_blank" href="https://docs.microsoft.com/office365/servicedescriptions/skype-for-business-online-service-description/skype-for-business-online-service-description" rel="noopener"><g transform="translate(480,-256)"><rect x="0" y="480" width="96" height="80" rx="8" ry="8" class="d"/><text x="16.1" y="499" class="e">Skype for <tspan x="16.88" dy="1.2em" class="f">Business </tspan><tspan x="27.38" dy="1.2em" class="f">Plan 2</tspan><tspan x="21.28" dy="1.292em" class="h">(retiring)</tspan></text></g></a><a target="_blank" href="https://docs.microsoft.com/microsoftteams/rooms/microsoft-teams-rooms-premium#service-capabilities" rel="noopener"><g transform="translate(144,-256)"><rect x="0" y="480" width="96" height="80" rx="8" ry="8" class="d"/><text x="28.17" y="507.4" class="e">Room <tspan x="11.45" dy="1.2em" class="f">Planning &amp; </tspan><tspan x="23.9" dy="1.2em" class="f">Rollout</tspan></text></g></a><a target="_blank" href="https://docs.microsoft.com/microsoftteams/rooms/microsoft-teams-rooms-premium#service-features" rel="noopener"><g transform="translate(256,-352)"><rect x="0" y="480" width="96" height="80" rx="8" ry="8" class="d"/><text x="11.84" y="507.4" class="e">Monitoring <tspan x="5.61" dy="1.2em" class="f">and Trouble</tspan>-<tspan x="18.45" dy="1.2em" class="f">shooting</tspan></text></g></a><a target="_blank" href="https://docs.microsoft.com/microsoftteams/rooms/microsoft-teams-rooms-premium#service-features" rel="noopener"><g transform="translate(256,-256)"><rect x="0" y="480" width="96" height="80" rx="8" ry="8" class="d"/><text x="20.38" y="507.4" class="e">Security <tspan x="24.28" dy="1.2em" class="f">Update </tspan><tspan x="5.21" dy="1.2em" class="f">Management</tspan></text></g></a><a target="_blank" href="https://docs.microsoft.com/microsoftteams/rooms/microsoft-teams-rooms-premium#service-features" rel="noopener"><g transform="translate(368,-448)"><rect x="0" y="480" width="96" height="80" rx="8" ry="8" class="d"/><text x="6.78" y="515.8" class="e">Insights and <tspan x="6" dy="1.2em" class="f">Suggestions</tspan></text></g></a><a target="_blank" href="https://docs.microsoft.com/microsoftteams/rooms/microsoft-teams-rooms-premium#customer-support" rel="noopener"><g transform="translate(144,-448)"><rect x="0" y="480" width="96" height="80" rx="8" ry="8" class="d"/><text x="15.33" y="515.8" class="e">Customer <tspan x="21.17" dy="1.2em" class="f">Support</tspan></text></g></a><a target="_blank" href="https://docs.microsoft.com/mem/intune/fundamentals/what-is-intune" rel="noopener"><g transform="translate(32,-352)"><rect x="0" y="480" width="96" height="80" rx="8" ry="8" class="d"/><text x="16.5" y="515.8" class="e">Microsoft <tspan x="27" dy="1.2em" class="f">Intune</tspan></text></g></a><a target="_blank" href="https://docs.microsoft.com/microsoftteams/rooms/microsoft-teams-rooms-premium#service-capabilities" rel="noopener"><g transform="translate(368,-256)"><rect x="0" y="480" width="96" height="80" rx="8" ry="8" class="d"/><text x="4.41" y="515.8" class="e">Service Desk <tspan x="11.83" dy="1.2em" class="f">Integration</tspan></text></g></a><a target="_blank" href="https://docs.microsoft.com/microsoftteams/rooms/microsoft-teams-rooms-premium#service-features" rel="noopener"><g transform="translate(480,-448)"><rect x="0" y="480" width="96" height="80" rx="8" ry="8" class="d"/><text x="16.49" y="515.8" class="e">Inventory <tspan x="5.21" dy="1.2em" class="f">Management</tspan></text></g></a><a target="_blank" href="https://docs.microsoft.com/microsoftteams/rooms/microsoft-teams-rooms-premium#service-features" rel="noopener"><g transform="translate(32,-256)"><rect x="0" y="480" width="96" height="80" rx="8" ry="8" class="d"/><text x="28.17" y="515.8" class="e">Room <tspan x="13.39" dy="1.2em" class="f">Enrolment</tspan></text></g></a><a target="_blank" href="https://docs.microsoft.com/microsoftteams/rooms/microsoft-teams-rooms-premium#service-features" rel="noopener"><g transform="translate(480,-352)"><rect x="0" y="480" width="96" height="80" rx="8" ry="8" class="d"/><text x="4.45" y="524.2" class="e">Room Admin</text></g></a><a target="_blank" href="https://docs.microsoft.com/microsoftteams/rooms/microsoft-teams-rooms-premium#service-features" rel="noopener"><g transform="translate(256,-448)"><rect x="0" y="480" width="96" height="80" rx="8" ry="8" class="d"/><text x="25.43" y="507.4" class="e">Device <tspan x="24.28" dy="1.2em" class="f">Update </tspan><tspan x="5.21" dy="1.2em" class="f">Management</tspan></text></g></a><g transform="translate(16,-128)"><rect x="0" y="528" width="576" height="32" rx="8" ry="8" class="i"/><text x="207.95" y="550" class="j">Related Services</text></g><g transform="translate(320,-32)"><rect x="0" y="480" width="256" height="80" rx="8" ry="8" class="k"/><text x="117.39" y="515.8" class="l">PSTN telephony <tspan x="117.39" dy="1.2em" class="f">calling plans</tspan></text></g><g transform="translate(32,-32)"><rect x="0" y="480" width="256" height="80" rx="8" ry="8" class="k"/><text x="117.39" y="507.4" class="l">Branding, monitoring, <tspan x="117.39" dy="1.2em" class="f">and meetings </tspan><tspan x="117.39" dy="1.2em" class="f">analysis</tspan></text></g><a target="_blank" href="https://products.office.com/microsoft-teams/voice-calling" rel="noopener"><g transform="translate(320,-32)"><rect x="0" y="480" width="96" height="80" rx="8" ry="8" class="m"/><text x="24.67" y="515.8" class="e">Calling <tspan x="29.32" dy="1.2em" class="f">Plans</tspan></text></g></a><a target="_blank" href="https://docs.microsoft.com/microsoftteams/teams-add-on-licensing/advanced-communications" rel="noopener"><g transform="translate(32,-32)"><rect x="0" y="480" width="96" height="80" rx="8" ry="8" class="m"/><text x="14.55" y="515.8" class="e">Advanced <tspan x="22.33" dy="1.2em" class="f">Comms</tspan></text></g></a><a target="_blank" href="https://docs.microsoft.com/microsoftteams/rooms/" rel="noopener"><g transform="translate(16,-192)"><rect x="0" y="512" width="576" height="48" rx="8" ry="8" class="n"/><text x="126.3" y="542" class="j">Microsoft Teams Rooms Premium</text></g></a></g></svg>