<svg xmlns="http://www.w3.org/2000/svg" width="1054px" height="1152px" viewBox="0 0 1054 1152" class="a"><style>
.b {fill:#a5a5a5;fill-opacity:0.2;stroke:#d04a00;stroke-linecap:round;stroke-linejoin:round;stroke-width:2.25}
.c {fill:#a5a5a5;fill-opacity:0.2;stroke:#d04a00;stroke-dasharray:2.25,4.5;stroke-linecap:round;stroke-linejoin:round;stroke-width:2.25}
.d {fill:#a5a5a5;fill-opacity:0.2;stroke:#d04a00;stroke-dasharray:15.75,11.25;stroke-linecap:round;stroke-linejoin:round;stroke-width:2.25}
.e {fill:#a5a5a5;fill-opacity:0.2;stroke:#e82200;stroke-dasharray:15.75,11.25;stroke-linecap:round;stroke-linejoin:round;stroke-width:2.25}
.f {fill:#d04a00;stroke:#d04a00;stroke-linecap:round;stroke-linejoin:round;stroke-width:2.25}
.g {fill:#ffffff;font-family:Arial;font-size:1.5em;font-weight:bold}
.h {fill:#e82200;stroke:#e82200;stroke-linecap:round;stroke-linejoin:round;stroke-width:2.25}
.i {fill:none;stroke:none;stroke-linecap:round;stroke-linejoin:round;stroke-width:0.75}
.j {fill:#000000;font-family:Arial;font-size:1.16666em;font-weight:bold}
.k {fill:#d04a00;stroke:none;stroke-linecap:round;stroke-linejoin:round;stroke-width:1}
.l {fill:#ffffff;font-family:Arial;font-size:1.16666em;font-weight:bold}
.m {font-size:1em}
.n {fill:#ffffff;font-family:Arial;font-size:1.08334em;font-weight:bold}
.o {font-size:0.928588em}
.p {fill:#e82200;stroke:none;stroke-linecap:round;stroke-linejoin:round;stroke-width:1}
.q {fill:none;stroke:none;stroke-linecap:round;stroke-linejoin:round;stroke-width:1}
.a {fill:none;fill-rule:evenodd;font-size:12px;overflow:visible;stroke-linecap:square;stroke-miterlimit:3}
</style><g><g transform="translate(16,-16)"><rect x="0" y="32" width="1024" height="1120" rx="8" ry="8" class="b"/></g><g transform="translate(96,-608)"><rect x="0" y="656" width="352" height="496" rx="8" ry="8" class="c"/></g><g transform="translate(112,-848)"><rect x="0" y="912" width="320" height="240" rx="8" ry="8" class="d"/></g><g transform="translate(48,-48)"><rect x="0" y="624" width="896" height="528" rx="8" ry="8" class="e"/></g><a target="_blank" aria-label="Office 365 Enterprise" href="https://docs.microsoft.com/office365/enterprise/" rel="noopener"><g transform="translate(-112,1136) rotate(-90)"><rect x="0" y="1088" width="1120" height="64" rx="8" ry="8" class="f"/><text x="503.47" y="1125.4" class="g">Office 365 E5</text></g></a><a target="_blank" aria-label="Office 365 Enterprise" href="https://docs.microsoft.com/office365/enterprise/" rel="noopener"><g transform="translate(-1040,1104) rotate(-90)"><rect x="0" y="1088" width="528" height="64" rx="8" ry="8" class="h"/><text x="207.47" y="1125.4" class="g">Office 365 E3</text></g></a><a target="_blank" aria-label="Microsoft Defender for Office 365 Plan 2" href="https://docs.microsoft.com/office365/servicedescriptions/office-365-advanced-threat-protection-service-description#feature-availability-across-advanced-threat-protection-atp-plans" rel="noopener"><g transform="translate(96,-608)"><rect x="0" y="1104" width="352" height="48" rx="8" ry="8" class="i"/><text x="42.97" y="1132.2" class="j">Microsoft Defender for Office 365 Plan 2</text></g></a><a target="_blank" aria-label="Threat Trackers" href="https://docs.microsoft.com/office365/securitycompliance/threat-trackers" rel="noopener"><g transform="translate(336,-656)"><rect x="0" y="1072" width="96" height="80" rx="8" ry="8" class="k"/><text x="26.61" y="1107.8" class="l">Threat <tspan x="18.81" dy="1.2em" class="m">Trackers</tspan></text></g></a><a target="_blank" aria-label="Attack Simulation Training" href="https://docs.microsoft.com/microsoft-365/security/office-365-security/attack-simulation-training-get-started" rel="noopener"><g transform="translate(112,-752)"><rect x="0" y="1072" width="96" height="80" rx="8" ry="8" class="k"/><text x="26.6" y="1099.4" class="l">Attack <tspan x="12.22" dy="1.2em" class="m">Simulation </tspan><tspan x="20.39" dy="1.2em" class="m">Training</tspan></text></g></a><a target="_blank" aria-label="Threat Explorer" href="https://docs.microsoft.com/microsoft-365/security/office-365-security/threat-explorer" rel="noopener"><g transform="translate(224,-656)"><rect x="0" y="1072" width="96" height="80" rx="8" ry="8" class="k"/><text x="26.61" y="1107.8" class="l">Threat <tspan x="19.6" dy="1.2em" class="m">Explorer</tspan></text></g></a><a target="_blank" aria-label="Automated Investigation and Response" href="https://docs.microsoft.com/microsoft-365/security/office-365-security/automated-investigation-response-office" rel="noopener"><g transform="translate(224,-752)"><rect x="0" y="1072" width="96" height="80" rx="8" ry="8" class="k"/><text x="11.45" y="1099.4" class="l">Automated <tspan x="4.83" dy="1.2em" class="m">Investigation </tspan><tspan x="7.55" dy="1.2em" class="m">&amp; Response</tspan></text></g></a><a target="_blank" aria-label="Safe Links" href="https://docs.microsoft.com/microsoft-365/security/office-365-security/atp-safe-links" rel="noopener"><g transform="translate(128,-896)"><rect x="0" y="1120" width="288" height="32" rx="8" ry="8" class="k"/><text x="108.99" y="1140.2" class="l">Safe Links</text></g></a><a target="_blank" aria-label="Safe Attachments" href="https://docs.microsoft.com/microsoft-365/security/office-365-security/atp-safe-attachments" rel="noopener"><g transform="translate(128,-944)"><rect x="0" y="1120" width="288" height="32" rx="8" ry="8" class="k"/><text x="84.87" y="1140.2" class="l">Safe Attachments</text></g></a><a target="_blank" aria-label="Anti-Phishing" href="https://docs.microsoft.com/microsoft-365/security/office-365-security/atp-anti-phishing" rel="noopener"><g transform="translate(128,-1040)"><rect x="0" y="1120" width="288" height="32" rx="8" ry="8" class="k"/><text x="98.51" y="1140.2" class="l">Anti-Phishing</text></g></a><a target="_blank" aria-label="Microsoft Defender for Office 365 Plan 1" href="https://docs.microsoft.com/office365/servicedescriptions/office-365-advanced-threat-protection-service-description#feature-availability-across-advanced-threat-protection-atp-plans" rel="noopener"><g transform="translate(112,-848)"><rect x="0" y="1104" width="320" height="48" rx="8" ry="8" class="i"/><text x="26.97" y="1132.2" class="j">Microsoft Defender for Office 365 Plan 1</text></g></a><a target="_blank" aria-label="Compromised User Detection" href="https://docs.microsoft.com/microsoft-365/security/office-365-security/address-compromised-users-quickly" rel="noopener"><g transform="translate(112,-656)"><rect x="0" y="1072" width="96" height="80" rx="8" ry="8" class="k"/><text x="4.3" y="1100.3" class="n">Compromised <tspan x="33.55" dy="1.2em" class="m">User </tspan><tspan x="18.38" dy="1.2em" class="m">Detection</tspan></text></g></a><a target="_blank" aria-label="Campaign Views" href="https://docs.microsoft.com/microsoft-365/security/office-365-security/campaigns" rel="noopener"><g transform="translate(336,-752)"><rect x="0" y="1072" width="96" height="80" rx="8" ry="8" class="k"/><text x="14.16" y="1107.8" class="l">Campaign <tspan x="28.16" dy="1.2em" class="m">Views</tspan></text></g></a><a target="_blank" aria-label="Phone System" href="https://docs.microsoft.com/MicrosoftTeams/what-is-phone-system-in-office-365" rel="noopener"><g transform="translate(480,-720)"><rect x="0" y="1072" width="96" height="80" rx="8" ry="8" class="k"/><text x="26.61" y="1107.8" class="l">Phone <tspan x="23.1" dy="1.2em" class="m">System</tspan></text></g></a><a target="_blank" aria-label="Audio Conferencing" href="https://docs.microsoft.com/microsoftteams/audio-conferencing-in-office-365" rel="noopener"><g transform="translate(816,-1008)"><rect x="0" y="1072" width="96" height="80" rx="8" ry="8" class="k"/><text x="29.59" y="1108.1" class="n">Audio <tspan x="6.11" dy="1.2em" class="m">Conferencing</tspan></text></g></a><a target="_blank" aria-label="Power BI Pro" href="https://docs.microsoft.com/power-bi/service-get-started" rel="noopener"><g transform="translate(592,-720)"><rect x="0" y="1072" width="96" height="80" rx="8" ry="8" class="k"/><text x="4.43" y="1116.2" class="l">Power BI Pro</text></g></a><a target="_blank" aria-label="Customer Lockbox" href="https://support.office.com/article/36f9cdd1-e64c-421b-a7e4-4a54d16440a2" rel="noopener"><g transform="translate(704,-912)"><rect x="0" y="1072" width="96" height="80" rx="8" ry="8" class="k"/><text x="15.33" y="1107.8" class="l">Customer <tspan x="19.22" dy="1.2em" class="m">Lockbox</tspan></text></g></a><a target="_blank" aria-label="Customer Key" href="https://support.office.com/article/f2cd475a-e592-46cf-80a3-1bfb0fa17697" rel="noopener"><g transform="translate(592,-912)"><rect x="0" y="1072" width="96" height="80" rx="8" ry="8" class="k"/><text x="15.33" y="1107.8" class="l">Customer <tspan x="35.16" dy="1.2em" class="m">Key</tspan></text></g></a><a target="_blank" aria-label="Advanced eDiscovery" href="https://docs.microsoft.com/microsoft-365/compliance/manage-legal-investigations" rel="noopener"><g transform="translate(592,-1008)"><rect x="0" y="1072" width="96" height="80" rx="8" ry="8" class="k"/><text x="14.55" y="1107.8" class="l">Advanced <tspan x="10.64" dy="1.2em" class="m">eDiscovery</tspan></text></g></a><a target="_blank" aria-label="Office 365 Privileged Access Management" href="https://docs.microsoft.com/microsoft-365/compliance/privileged-access-management-solution-overview" rel="noopener"><g transform="translate(704,-720)"><rect x="0" y="1072" width="96" height="80" rx="8" ry="8" class="k"/><text x="14.54" y="1099.4" class="l">Privileged <tspan x="23.48" dy="1.2em" class="m">Access </tspan><tspan x="5.21" dy="1.2em" class="m">Management</tspan></text></g></a><a target="_blank" aria-label="Teams DLP" href="https://docs.microsoft.com/office365/securitycompliance/data-loss-prevention-policies#policy-evaluation-in-microsoft-teams" rel="noopener"><g transform="translate(592,-624)"><rect x="0" y="1072" width="96" height="80" rx="8" ry="8" class="k"/><text x="25.82" y="1099.4" class="l">Teams <tspan x="14.55" dy="1.2em" class="m">Data Loss </tspan><tspan x="11.82" dy="1.2em" class="m">Prevention</tspan></text></g></a><a target="_blank" aria-label="Advanced Message Encryption" href="https://docs.microsoft.com/microsoft-365/compliance/ome-advanced-message-encryption" rel="noopener"><g transform="translate(704,-1008)"><rect x="0" y="1072" width="96" height="80" rx="8" ry="8" class="k"/><text x="14.55" y="1099.4" class="l">Advanced <tspan x="18.43" dy="1.2em" class="m">Message </tspan><tspan x="11.44" dy="1.2em" class="m">Encryption</tspan></text></g></a><a target="_blank" aria-label="Information Barriers" href="https://docs.microsoft.com/microsoft-365/compliance/information-barriers" rel="noopener"><g transform="translate(480,-816)"><rect x="0" y="1072" width="96" height="80" rx="8" ry="8" class="k"/><text x="9.5" y="1107.8" class="l">Information <tspan x="21.15" dy="1.2em" class="m">Barriers</tspan></text></g></a><a target="_blank" aria-label="MyAnalytics (Full)" href="https://docs.microsoft.com/office365/servicedescriptions/mya-service-description" rel="noopener"><g transform="translate(704,-816)"><rect x="0" y="1072" width="96" height="80" rx="8" ry="8" class="k"/><text x="7.15" y="1107.8" class="l">MyAnalytics <tspan x="32.12" dy="1.292em" class="o">(Full)</tspan></text></g></a><a target="_blank" aria-label="Communication Compliance" href="https://docs.microsoft.com/microsoft-365/compliance/communication-compliance" rel="noopener"><g transform="translate(480,-912)"><rect x="0" y="1072" width="96" height="80" rx="8" ry="8" class="k"/><text x="26.22" y="1107.8" class="l">Comm <tspan x="8.32" dy="1.2em" class="m">Compliance</tspan></text></g></a><a target="_blank" aria-label="Office 365 Cloud App Security" href="https://docs.microsoft.com/cloud-app-security/editions-cloud-app-security-o365" rel="noopener"><g transform="translate(816,-816)"><rect x="0" y="1072" width="96" height="80" rx="8" ry="8" class="k"/><text x="14.54" y="1099.4" class="l">Office 365 <tspan x="12.62" dy="1.2em" class="m">Cloud App </tspan><tspan x="20.38" dy="1.2em" class="m">Security</tspan></text></g></a><a target="_blank" aria-label="Information Governance" href="https://docs.microsoft.com/microsoft-365/compliance/manage-information-governance" rel="noopener"><g transform="translate(592,-816)"><rect x="0" y="1072" width="96" height="80" rx="8" ry="8" class="k"/><text x="9.5" y="1107.8" class="l">Information <tspan x="7.54" dy="1.2em" class="m">Governance</tspan></text></g></a><a target="_blank" aria-label="Records Management" href="https://docs.microsoft.com/microsoft-365/compliance/records-management" rel="noopener"><g transform="translate(816,-720)"><rect x="0" y="1072" width="96" height="80" rx="8" ry="8" class="k"/><text x="19.99" y="1107.8" class="l">Records <tspan x="5.21" dy="1.2em" class="m">Management</tspan></text></g></a><a target="_blank" aria-label="Advanced Audit" href="https://docs.microsoft.com/microsoft-365/compliance/advanced-audit" rel="noopener"><g transform="translate(480,-1008)"><rect x="0" y="1072" width="96" height="80" rx="8" ry="8" class="k"/><text x="14.55" y="1107.8" class="l">Advanced <tspan x="30.12" dy="1.2em" class="m">Audit</tspan></text></g></a><a target="_blank" aria-label="Double Key Encryption" href="https://docs.microsoft.com/microsoft-365/compliance/double-key-encryption" rel="noopener"><g transform="translate(816,-912)"><rect x="0" y="1072" width="96" height="80" rx="8" ry="8" class="k"/><text x="9.49" y="1107.8" class="l">Double Key <tspan x="11.44" dy="1.2em" class="m">Encryption</tspan></text></g></a><a target="_blank" aria-label="Microsoft 365 Apps for Enterprise" href="https://www.microsoft.com/microsoft-365/business/microsoft-365-apps-for-enterprise-product" rel="noopener"><g transform="translate(816,-368)"><rect x="0" y="1072" width="96" height="80" rx="8" ry="8" class="p"/><text x="16.5" y="1099.4" class="l">Microsoft <tspan x="5.6" dy="1.2em" class="m">365 Apps for </tspan><tspan x="13.38" dy="1.2em" class="m">Enterprise</tspan></text></g></a><a target="_blank" aria-label="Planner" href="https://products.office.com/business/task-management-software" rel="noopener"><g transform="translate(368,-176)"><rect x="0" y="1072" width="96" height="80" rx="8" ry="8" class="p"/><text x="22.32" y="1116.2" class="l">Planner</text></g></a><a target="_blank" aria-label="Live Events" href="https://docs.microsoft.com/stream/live-event-m365" rel="noopener"><g transform="translate(704,-368)"><rect x="0" y="1072" width="96" height="80" rx="8" ry="8" class="p"/><text x="9.09" y="1116.2" class="l">Live Events</text></g></a><a target="_blank" aria-label="MyAnalytics" href="https://products.office.com/business/myanalytics-personal-analytics" rel="noopener"><g transform="translate(480,-368)"><rect x="0" y="1072" width="96" height="80" rx="8" ry="8" class="p"/><text x="11.05" y="1107.8" class="l">Insights by <tspan x="7.15" dy="1.2em" class="m">MyAnalytics</tspan></text></g></a><a target="_blank" aria-label="Yammer" href="https://products.office.com/yammer/yammer-overview" rel="noopener"><g transform="translate(592,-80)"><rect x="0" y="1072" width="96" height="80" rx="8" ry="8" class="p"/><text x="20.37" y="1107.8" class="l">Yammer <tspan x="13.38" dy="1.2em" class="m">Enterprise</tspan></text></g></a><a target="_blank" aria-label="Microsoft Teams" href="https://products.office.com/microsoft-teams/" rel="noopener"><g transform="translate(480,-272)"><rect x="0" y="1072" width="96" height="80" rx="8" ry="8" class="p"/><text x="16.5" y="1107.8" class="l">Microsoft <tspan x="25.82" dy="1.2em" class="m">Teams</tspan></text></g></a><a target="_blank" aria-label="Stream" href="https://docs.microsoft.com/stream/" rel="noopener"><g transform="translate(368,-80)"><rect x="0" y="1072" width="96" height="80" rx="8" ry="8" class="p"/><text x="12.99" y="1107.8" class="l">Stream for <tspan x="14.54" dy="1.2em" class="m">Office 365</tspan></text></g></a><a target="_blank" aria-label="SharePoint Online" href="https://docs.microsoft.com/sharepoint/introduction" rel="noopener"><g transform="translate(144,-80)"><rect x="0" y="1072" width="96" height="80" rx="8" ry="8" class="p"/><text x="11.05" y="1099.4" class="l">SharePoint <tspan x="26.22" dy="1.2em" class="m">Online </tspan><tspan x="27.38" dy="1.2em" class="m">Plan 2</tspan></text></g></a><a target="_blank" aria-label="Skype for Business Online" href="https://docs.microsoft.com/office365/servicedescriptions/skype-for-business-online-service-description/skype-for-business-online-service-description" rel="noopener"><g transform="translate(256,-80)"><rect x="0" y="1072" width="96" height="80" rx="8" ry="8" class="p"/><text x="16.1" y="1091" class="l">Skype for <tspan x="16.88" dy="1.2em" class="m">Business </tspan><tspan x="27.38" dy="1.2em" class="m">Plan 2</tspan><tspan x="21.28" dy="1.292em" class="o">(retiring)</tspan></text></g></a><a target="_blank" aria-label="OneDrive for Business" href="https://docs.microsoft.com/office365/servicedescriptions/onedrive-for-business-service-description" rel="noopener"><g transform="translate(256,-176)"><rect x="0" y="1072" width="96" height="80" rx="8" ry="8" class="p"/><text x="5.6" y="1099.4" class="l">OneDrive for <tspan x="16.88" dy="1.2em" class="m">Business </tspan><tspan x="27.38" dy="1.2em" class="m">Plan 2</tspan></text></g></a><a target="_blank" aria-label="Power Apps" href="https://powerapps.microsoft.com/" rel="noopener"><g transform="translate(480,-176)"><rect x="0" y="1072" width="96" height="80" rx="8" ry="8" class="p"/><text x="7.55" y="1099.4" class="l">Power Apps<tspan x="38.67" dy="1.2em" class="m">for </tspan><tspan x="14.54" dy="1.2em" class="m">Office 365</tspan></text></g></a><a target="_blank" aria-label="Sway" href="https://support.office.com/sway" rel="noopener"><g transform="translate(480,-80)"><rect x="0" y="1072" width="96" height="80" rx="8" ry="8" class="p"/><text x="30.1" y="1116.2" class="l">Sway</text></g></a><a target="_blank" aria-label="Microsoft Forms" href="https://support.office.com/forms" rel="noopener"><g transform="translate(256,-272)"><rect x="0" y="1072" width="96" height="80" rx="8" ry="8" class="p"/><text x="16.5" y="1107.8" class="l">Microsoft <tspan x="26.61" dy="1.2em" class="m">Forms</tspan></text></g></a><a target="_blank" aria-label="Delve" href="https://support.microsoft.com/office/1315665a-c6af-4409-a28d-49f8916878ca" rel="noopener"><g transform="translate(592,-464)"><rect x="0" y="1072" width="96" height="80" rx="8" ry="8" class="p"/><text x="29.32" y="1116.2" class="l">Delve</text></g></a><a target="_blank" aria-label="Power Automate" href="https://powerautomate.microsoft.com/" rel="noopener"><g transform="translate(592,-176)"><rect x="0" y="1072" width="96" height="80" rx="8" ry="8" class="p"/><text x="26.99" y="1099.4" class="l">Power <tspan x="4.45" dy="1.2em" class="m">Automate for</tspan><tspan x="14.54" dy="1.2em" class="m">Office 365</tspan></text></g></a><a target="_blank" aria-label="Data Loss Prevention" href="https://docs.microsoft.com/office365/securitycompliance/data-loss-prevention-policies" rel="noopener"><g transform="translate(480,-464)"><rect x="0" y="1072" width="96" height="80" rx="8" ry="8" class="p"/><text x="14.55" y="1107.8" class="l">Data Loss <tspan x="11.82" dy="1.2em" class="m">Prevention</tspan></text></g></a><a target="_blank" aria-label="Retention Policy" href="https://docs.microsoft.com/office365/securitycompliance/retention-policies" rel="noopener"><g transform="translate(816,-176)"><rect x="0" y="1072" width="96" height="80" rx="8" ry="8" class="p"/><text x="15.72" y="1107.8" class="l">Retention <tspan x="27.38" dy="1.2em" class="m">Policy</tspan></text></g></a><a target="_blank" aria-label="Exchange Online Protection" href="https://www.microsoft.com/microsoft-365/exchange/exchange-email-security-spam-protection" rel="noopener"><g transform="translate(144,-368)"><rect x="0" y="1072" width="96" height="80" rx="8" ry="8" class="p"/><text x="14.93" y="1099.4" class="l">Exchange <tspan x="26.22" dy="1.2em" class="m">Online </tspan><tspan x="13.39" dy="1.2em" class="m">Protection</tspan></text></g></a><a target="_blank" aria-label="eDiscovery" href="https://docs.microsoft.com/office365/securitycompliance/ediscovery-cases" rel="noopener"><g transform="translate(704,-464)"><rect x="0" y="1072" width="96" height="80" rx="8" ry="8" class="p"/><text x="10.64" y="1116.2" class="l">eDiscovery</text></g></a><a target="_blank" aria-label="Kaizala Pro" href="https://products.office.com/en/business/microsoft-kaizala" rel="noopener"><g transform="translate(592,-368)"><rect x="0" y="1072" width="96" height="80" rx="8" ry="8" class="p"/><text x="10.26" y="1107.8" class="l">Kaizala Pro <tspan x="21.28" dy="1.292em" class="o">(retiring)</tspan></text></g></a><a target="_blank" aria-label="Exchange Online" href="https://docs.microsoft.com/office365/servicedescriptions/exchange-online-service-description/exchange-online-service-description#feature-availability-across-exchange-online-standalone-plans" rel="noopener"><g transform="translate(816,-464)"><rect x="0" y="1072" width="96" height="80" rx="8" ry="8" class="p"/><text x="14.93" y="1099.4" class="l">Exchange <tspan x="26.22" dy="1.2em" class="m">Online </tspan><tspan x="27.38" dy="1.2em" class="m">Plan 2</tspan></text></g></a><a target="_blank" aria-label="Microsoft Dataverse for Teams" href="https://docs.microsoft.com/powerapps/teams/overview-data-platform" rel="noopener"><g transform="translate(144,-272)"><rect x="0" y="1072" width="96" height="80" rx="8" ry="8" class="p"/><text x="16.5" y="1099.4" class="l">Microsoft <tspan x="14.53" dy="1.2em" class="m">Dataverse </tspan><tspan x="14.55" dy="1.2em" class="m">for Teams</tspan></text></g></a><a target="_blank" aria-label="Microsoft Lists" href="https://www.microsoft.com/microsoft-365/microsoft-lists" rel="noopener"><g transform="translate(368,-272)"><rect x="0" y="1072" width="96" height="80" rx="8" ry="8" class="p"/><text x="16.5" y="1107.8" class="l">Microsoft <tspan x="31.66" dy="1.2em" class="m">Lists</tspan></text></g></a><a target="_blank" aria-label="Bookings" href="https://docs.microsoft.com/microsoft-365/bookings/bookings-overview" rel="noopener"><g transform="translate(368,-464)"><rect x="0" y="1072" width="96" height="80" rx="8" ry="8" class="p"/><text x="16.11" y="1116.2" class="l">Bookings</text></g></a><a target="_blank" aria-label="InfoPath App" href="https://www.microsoft.com/download/details.aspx?id=48734" rel="noopener"><g transform="translate(256,-368)"><rect x="0" y="1072" width="96" height="80" rx="8" ry="8" class="p"/><text x="20" y="1107.8" class="l">InfoPath <tspan x="34.39" dy="1.2em" class="m">App</tspan></text></g></a><a target="_blank" aria-label="Audit Logging" href="https://docs.microsoft.com/office365/securitycompliance/search-the-audit-log-in-security-and-compliance" rel="noopener"><g transform="translate(256,-464)"><rect x="0" y="1072" width="96" height="80" rx="8" ry="8" class="p"/><text x="30.12" y="1107.8" class="l">Audit <tspan x="20.4" dy="1.2em" class="m">Logging</tspan></text></g></a><a target="_blank" aria-label="Alert Policies" href="https://docs.microsoft.com/microsoft-365/compliance/alert-policies" rel="noopener"><g transform="translate(144,-464)"><rect x="0" y="1072" width="96" height="80" rx="8" ry="8" class="p"/><text x="32.05" y="1107.8" class="l">Alert <tspan x="21.54" dy="1.2em" class="m">Policies</tspan></text></g></a><a target="_blank" aria-label="Microsoft Whiteboard" href="https://support.microsoft.com/office/d236aef8-fcdf-4b5e-b5d7-7f157461e920" rel="noopener"><g transform="translate(704,-272)"><rect x="0" y="1072" width="96" height="80" rx="8" ry="8" class="p"/><text x="16.5" y="1107.8" class="l">Microsoft <tspan x="9.5" dy="1.2em" class="m">Whiteboard</tspan></text></g></a><a target="_blank" aria-label="Microsoft To-Do" href="https://www.microsoft.com/microsoft-365/microsoft-to-do-list-app" rel="noopener"><g transform="translate(592,-272)"><rect x="0" y="1072" width="96" height="80" rx="8" ry="8" class="p"/><text x="16.5" y="1107.8" class="l">Microsoft <tspan x="27.79" dy="1.2em" class="m">To</tspan>-Do</text></g></a><a target="_blank" aria-label="Power Virtual Agents for Teams" href="https://docs.microsoft.com/power-virtual-agents/teams/fundamentals-what-is-power-virtual-agents-teams" rel="noopener"><g transform="translate(704,-176)"><rect x="0" y="1072" width="96" height="80" rx="8" ry="8" class="p"/><text x="6.46" y="1100.3" class="n">Power Virtual <tspan x="15.5" dy="1.2em" class="m">Agents for </tspan><tspan x="27.4" dy="1.2em" class="m">Teams</tspan></text></g></a><a target="_blank" aria-label="Office Mobile" href="https://products.office.com/mobile/office" rel="noopener"><g transform="translate(144,-176)"><rect x="0" y="1072" width="96" height="80" rx="8" ry="8" class="p"/><text x="28.16" y="1107.8" class="l">Office <tspan x="6.39" dy="1.2em" class="m">Mobile Apps</tspan></text></g></a><a target="_blank" aria-label="Office Online" href="https://docs.microsoft.com/office365/servicedescriptions/office-online-service-description/office-online-service-description" rel="noopener"><g transform="translate(816,-272)"><rect x="0" y="1072" width="96" height="80" rx="8" ry="8" class="p"/><text x="28.16" y="1107.8" class="l">Office <tspan x="9.5" dy="1.2em" class="m">for the Web</tspan></text></g></a><a target="_blank" aria-label="Real-Time Reports" href="https://docs.microsoft.com/office365/servicedescriptions/office-365-advanced-threat-protection-service-description#real-time-reports" rel="noopener"><g transform="translate(128,-992)"><rect x="0" y="1120" width="288" height="32" rx="8" ry="8" class="k"/><text x="82.15" y="1140.2" class="l">Real-Time Reports</text></g></a><a target="_blank" aria-label="Rules-Based Classification for Office 365" href="https://docs.microsoft.com/microsoft-365/compliance/apply-sensitivity-label-automatically" rel="noopener"><g transform="translate(480,-624)"><rect x="0" y="1072" width="96" height="80" rx="8" ry="8" class="k"/><text x="8.63" y="1100.3" class="n">Rules-Based <tspan x="5.74" dy="1.2em" class="m">Classification</tspan><tspan x="12.6" dy="1.2em" class="m">(Office 365)</tspan></text></g></a><a target="_blank" aria-label="Information Protection for Microsoft 365" href="https://docs.microsoft.com/microsoft-365/compliance/sensitivity-labels" rel="noopener"><g transform="translate(368,-368)"><rect x="0" y="1072" width="96" height="80" rx="8" ry="8" class="p"/><text x="9.5" y="1099.4" class="l">Information <tspan x="13.39" dy="1.2em" class="m">Protection</tspan><tspan x="12.6" dy="1.292em" class="o">(Office 365)</tspan></text></g></a><g transform="translate(16,-1104)"><rect x="0" y="1120" width="960" height="32" rx="8" ry="8" class="q"/><text x="18.17" y="1140.2" class="j">Enterprise</text></g></g></svg>