<svg xmlns="http://www.w3.org/2000/svg" width="1056" height="1104" viewBox="0 0 1056 1104" class="a"><style>
.b {fill:#a5a5a5;fill-opacity:0.2;stroke:#d04a00;stroke-linecap:round;stroke-linejoin:round;stroke-width:2.25}
.c {fill:#a5a5a5;fill-opacity:0.2;stroke:#e82200;stroke-dasharray:15.75,11.25;stroke-linecap:round;stroke-linejoin:round;stroke-width:2.25}
.d {fill:#a5a5a5;fill-opacity:0.2;stroke:#a41500;stroke-dasharray:2.25,4.5;stroke-linecap:round;stroke-linejoin:round;stroke-width:2.25}
.e {fill:#d04a00;stroke:#d04a00;stroke-linecap:round;stroke-linejoin:round;stroke-width:2.25}
.f {fill:#ffffff;font-family:Arial;font-size:1.66667em;font-weight:bold}
.g {fill:#d04a00;stroke:none;stroke-linecap:round;stroke-linejoin:round;stroke-width:1}
.h {fill:#ffffff;font-family:Arial;font-size:1.16666em;font-weight:bold}
.i {font-size:1em}
.j {fill:#ffffff;font-family:Arial;font-size:1.08334em;font-weight:bold}
.k {font-size:0.928588em}
.l {fill:#e82200;stroke:#e82200;stroke-linecap:round;stroke-linejoin:round;stroke-width:2.25}
.m {fill:#e82200;stroke:none;stroke-linecap:round;stroke-linejoin:round;stroke-width:1}
.n {fill:#a41500;stroke:none;stroke-linecap:round;stroke-linejoin:round;stroke-width:1}
.o {fill:#a41500;stroke:#a41500;stroke-linecap:round;stroke-linejoin:round;stroke-width:2.25}
.p {fill:none;stroke:none;stroke-linecap:round;stroke-linejoin:round;stroke-width:0.75}
.q {fill:#000000;font-family:Arial;font-size:1.16666em;font-weight:bold}
.a {fill:none;fill-rule:evenodd;font-size:12px;overflow:visible;stroke-linecap:square;stroke-miterlimit:3}
</style><g><g transform="translate(16,-16)"><rect x="0" y="32" width="1024" height="1072" rx="8" ry="8" class="b"/></g><g transform="translate(48,-48)"><rect x="0" y="400" width="896" height="704" rx="8" ry="8" class="c"/></g><g transform="translate(128,-64)"><rect x="0" y="656" width="800" height="448" rx="8" ry="8" class="d"/></g><a target="_blank" href="https://docs.microsoft.com/office365/enterprise/" rel="noopener"><g transform="translate(-64,1088) rotate(-90)"><rect x="0" y="1040" width="1072" height="64" rx="8" ry="8" class="e"/><text x="473.19" y="1078" class="f">Office 365 E5</text></g></a><a target="_blank" href="https://docs.microsoft.com/MicrosoftTeams/what-is-phone-system-in-office-365" rel="noopener"><g transform="translate(816,-880)"><rect x="0" y="1024" width="96" height="80" rx="8" ry="8" class="g"/><text x="26.61" y="1059.8" class="h">Phone <tspan x="23.1" dy="1.2em" class="i">System</tspan></text></g></a><a target="_blank" href="https://docs.microsoft.com/microsoftteams/audio-conferencing-in-office-365" rel="noopener"><g transform="translate(480,-976)"><rect x="0" y="1024" width="96" height="80" rx="8" ry="8" class="g"/><text x="29.59" y="1052.3" class="j">Audio <tspan x="6.11" dy="1.2em" class="i">Conferencing </tspan><tspan x="32.12" dy="1.2em" class="i">(Full)</tspan></text></g></a><a target="_blank" href="https://docs.microsoft.com/power-bi/service-get-started" rel="noopener"><g transform="translate(144,-784)"><rect x="0" y="1024" width="96" height="80" rx="8" ry="8" class="g"/><text x="4.43" y="1068.2" class="h">Power BI Pro</text></g></a><a target="_blank" href="https://support.office.com/article/36f9cdd1-e64c-421b-a7e4-4a54d16440a2" rel="noopener"><g transform="translate(816,-976)"><rect x="0" y="1024" width="96" height="80" rx="8" ry="8" class="g"/><text x="15.33" y="1059.8" class="h">Customer <tspan x="19.22" dy="1.2em" class="i">Lockbox</tspan></text></g></a><a target="_blank" href="https://support.office.com/article/f2cd475a-e592-46cf-80a3-1bfb0fa17697" rel="noopener"><g transform="translate(704,-976)"><rect x="0" y="1024" width="96" height="80" rx="8" ry="8" class="g"/><text x="15.33" y="1059.8" class="h">Customer <tspan x="35.16" dy="1.2em" class="i">Key</tspan></text></g></a><a target="_blank" href="https://docs.microsoft.com/microsoft-365/compliance/manage-legal-investigations" rel="noopener"><g transform="translate(256,-976)"><rect x="0" y="1024" width="96" height="80" rx="8" ry="8" class="g"/><text x="14.55" y="1059.8" class="h">Advanced <tspan x="10.64" dy="1.2em" class="i">eDiscovery</tspan></text></g></a><a target="_blank" href="https://docs.microsoft.com/microsoft-365/compliance/privileged-access-management-solution-overview" rel="noopener"><g transform="translate(256,-784)"><rect x="0" y="1024" width="96" height="80" rx="8" ry="8" class="g"/><text x="14.54" y="1051.4" class="h">Privileged <tspan x="23.48" dy="1.2em" class="i">Access </tspan><tspan x="5.21" dy="1.2em" class="i">Management</tspan></text></g></a><a target="_blank" href="https://docs.microsoft.com/office365/securitycompliance/data-loss-prevention-policies#policy-evaluation-in-microsoft-teams" rel="noopener"><g transform="translate(592,-784)"><rect x="0" y="1024" width="96" height="80" rx="8" ry="8" class="g"/><text x="25.82" y="1051.4" class="h">Teams<tspan x="14.55" dy="1.2em" class="i">Data Loss </tspan><tspan x="11.82" dy="1.2em" class="i">Prevention</tspan></text></g></a><a target="_blank" href="https://docs.microsoft.com/microsoft-365/compliance/ome-advanced-message-encryption" rel="noopener"><g transform="translate(368,-976)"><rect x="0" y="1024" width="96" height="80" rx="8" ry="8" class="g"/><text x="14.55" y="1051.4" class="h">Advanced <tspan x="18.43" dy="1.2em" class="i">Message </tspan><tspan x="11.44" dy="1.2em" class="i">Encryption</tspan></text></g></a><a target="_blank" href="https://docs.microsoft.com/microsoft-365/compliance/information-barriers" rel="noopener"><g transform="translate(256,-880)"><rect x="0" y="1024" width="96" height="80" rx="8" ry="8" class="g"/><text x="9.5" y="1059.8" class="h">Information <tspan x="21.15" dy="1.2em" class="i">Barriers</tspan></text></g></a><a target="_blank" href="https://docs.microsoft.com/office365/servicedescriptions/mya-service-description" rel="noopener"><g transform="translate(592,-880)"><rect x="0" y="1024" width="96" height="80" rx="8" ry="8" class="g"/><text x="7.15" y="1059.8" class="h">MyAnalytics <tspan x="32.12" dy="1.292em" class="k">(Full)</tspan></text></g></a><a target="_blank" href="https://docs.microsoft.com/microsoft-365/compliance/communication-compliance" rel="noopener"><g transform="translate(592,-976)"><rect x="0" y="1024" width="96" height="80" rx="8" ry="8" class="g"/><text x="26.22" y="1059.8" class="h">Comm <tspan x="8.32" dy="1.2em" class="i">Compliance</tspan></text></g></a><a target="_blank" href="https://docs.microsoft.com/cloud-app-security/editions-cloud-app-security-o365" rel="noopener"><g transform="translate(704,-880)"><rect x="0" y="1024" width="96" height="80" rx="8" ry="8" class="g"/><text x="14.54" y="1051.4" class="h">Office 365 <tspan x="12.62" dy="1.2em" class="i">Cloud App </tspan><tspan x="20.38" dy="1.2em" class="i">Security</tspan></text></g></a><a target="_blank" href="https://docs.microsoft.com/microsoft-365/compliance/manage-information-governance" rel="noopener"><g transform="translate(368,-880)"><rect x="0" y="1024" width="96" height="80" rx="8" ry="8" class="g"/><text x="9.5" y="1059.8" class="h">Information <tspan x="7.54" dy="1.2em" class="i">Governance</tspan></text></g></a><a target="_blank" href="https://docs.microsoft.com/microsoft-365/compliance/records-management" rel="noopener"><g transform="translate(368,-784)"><rect x="0" y="1024" width="96" height="80" rx="8" ry="8" class="g"/><text x="19.99" y="1059.8" class="h">Records <tspan x="5.21" dy="1.2em" class="i">Management</tspan></text></g></a><a target="_blank" href="https://docs.microsoft.com/microsoft-365/compliance/advanced-audit" rel="noopener"><g transform="translate(144,-976)"><rect x="0" y="1024" width="96" height="80" rx="8" ry="8" class="g"/><text x="14.55" y="1059.8" class="h">Advanced <tspan x="30.12" dy="1.2em" class="i">Audit</tspan></text></g></a><a target="_blank" href="https://docs.microsoft.com/microsoft-365/compliance/double-key-encryption" rel="noopener"><g transform="translate(144,-880)"><rect x="0" y="1024" width="96" height="80" rx="8" ry="8" class="g"/><text x="9.49" y="1059.8" class="h">Double Key <tspan x="11.44" dy="1.2em" class="i">Encryption</tspan></text></g></a><a target="_blank" href="https://docs.microsoft.com/office365/servicedescriptions/office-365-advanced-threat-protection-service-description#feature-availability-across-advanced-threat-protection-atp-plans" rel="noopener"><g transform="translate(480,-880)"><rect x="0" y="1024" width="96" height="80" rx="8" ry="8" class="g"/><text x="16.5" y="1043" class="h">Microsoft <tspan x="6.38" dy="1.2em" class="i">Defender for </tspan><tspan x="14.54" dy="1.2em" class="i">Office 365 </tspan><tspan x="27.38" dy="1.2em" class="i">Plan 2</tspan></text></g></a><a target="_blank" href="https://docs.microsoft.com/office365/enterprise/" rel="noopener"><g transform="translate(-992,1056) rotate(-90)"><rect x="0" y="1040" width="704" height="64" rx="8" ry="8" class="l"/><text x="289.19" y="1078" class="f">Office 365 E3</text></g></a><a target="_blank" href="https://docs.microsoft.com/office365/servicedescriptions/exchange-online-service-description/exchange-online-service-description#feature-availability-across-exchange-online-standalone-plans" rel="noopener"><g transform="translate(480,-640)"><rect x="0" y="1024" width="96" height="80" rx="8" ry="8" class="m"/><text x="14.93" y="1051.4" class="h">Exchange <tspan x="26.22" dy="1.2em" class="i">Online </tspan><tspan x="27.38" dy="1.2em" class="i">Plan 2</tspan></text></g></a><a target="_blank" href="https://docs.microsoft.com/sharepoint/introduction" rel="noopener"><g transform="translate(368,-544)"><rect x="0" y="1024" width="96" height="80" rx="8" ry="8" class="m"/><text x="11.05" y="1051.4" class="h">SharePoint <tspan x="26.22" dy="1.2em" class="i">Online </tspan><tspan x="27.38" dy="1.2em" class="i">Plan 2</tspan></text></g></a><a target="_blank" href="https://docs.microsoft.com/office365/servicedescriptions/onedrive-for-business-service-description" rel="noopener"><g transform="translate(144,-544)"><rect x="0" y="1024" width="96" height="80" rx="8" ry="8" class="m"/><text x="5.6" y="1051.4" class="h">OneDrive for <tspan x="16.88" dy="1.2em" class="i">Business </tspan><tspan x="27.38" dy="1.2em" class="i">Plan 2</tspan></text></g></a><a target="_blank" href="https://docs.microsoft.com/office365/securitycompliance/data-loss-prevention-policies" rel="noopener"><g transform="translate(256,-640)"><rect x="0" y="1024" width="96" height="80" rx="8" ry="8" class="m"/><text x="14.55" y="1059.8" class="h">Data Loss <tspan x="11.82" dy="1.2em" class="i">Prevention</tspan></text></g></a><a target="_blank" href="https://docs.microsoft.com/microsoft-365/compliance/retention" rel="noopener"><g transform="translate(256,-544)"><rect x="0" y="1024" width="96" height="80" rx="8" ry="8" class="m"/><text x="15.72" y="1051.4" class="h">Retention <tspan x="18.82" dy="1.2em" class="i">Labels &amp; </tspan><tspan x="21.54" dy="1.2em" class="i">Policies</tspan></text></g></a><a target="_blank" href="https://www.microsoft.com/microsoft-365/business/microsoft-365-apps-for-enterprise-product" rel="noopener"><g transform="translate(816,-640)"><rect x="0" y="1024" width="96" height="80" rx="8" ry="8" class="m"/><text x="16.5" y="1051.4" class="h">Microsoft <tspan x="5.6" dy="1.2em" class="i">365 Apps for </tspan><tspan x="13.38" dy="1.2em" class="i">Enterprise</tspan></text></g></a><a target="_blank" href="https://docs.microsoft.com/microsoft-365/bookings/bookings-overview" rel="noopener"><g transform="translate(144,-640)"><rect x="0" y="1024" width="96" height="80" rx="8" ry="8" class="m"/><text x="16.11" y="1068.2" class="h">Bookings</text></g></a><a target="_blank" href="https://docs.microsoft.com/office365/securitycompliance/ediscovery-cases" rel="noopener"><g transform="translate(368,-640)"><rect x="0" y="1024" width="96" height="80" rx="8" ry="8" class="m"/><text x="10.64" y="1068.2" class="h">eDiscovery</text></g></a><a target="_blank" href="https://www.microsoft.com/download/details.aspx?id=48734" rel="noopener"><g transform="translate(592,-640)"><rect x="0" y="1024" width="96" height="80" rx="8" ry="8" class="m"/><text x="20" y="1059.8" class="h">InfoPath<tspan x="34.39" dy="1.2em" class="i">App</tspan></text></g></a><a target="_blank" href="https://products.office.com/yammer/yammer-overview" rel="noopener"><g transform="translate(816,-128)"><rect x="0" y="1024" width="96" height="80" rx="8" ry="8" class="n"/><text x="20.37" y="1059.8" class="h">Yammer <tspan x="13.38" dy="1.2em" class="i">Enterprise</tspan></text></g></a><a target="_blank" href="https://www.microsoft.com/microsoft-365/exchange/exchange-email-security-spam-protection" rel="noopener"><g transform="translate(144,-320)"><rect x="0" y="1024" width="96" height="80" rx="8" ry="8" class="n"/><text x="14.93" y="1051.4" class="h">Exchange <tspan x="26.22" dy="1.2em" class="i">Online </tspan><tspan x="13.39" dy="1.2em" class="i">Protection</tspan></text></g></a><a target="_blank" href="https://products.office.com/en/business/microsoft-kaizala" rel="noopener"><g transform="translate(368,-320)"><rect x="0" y="1024" width="96" height="80" rx="8" ry="8" class="n"/><text x="10.26" y="1059.8" class="h">Kaizala Pro<tspan x="21.28" dy="1.292em" class="k">(retiring)</tspan></text></g></a><a target="_blank" href="https://products.office.com/microsoft-teams/" rel="noopener"><g transform="translate(144,-224)"><rect x="0" y="1024" width="96" height="80" rx="8" ry="8" class="n"/><text x="16.5" y="1059.8" class="h">Microsoft <tspan x="25.82" dy="1.2em" class="i">Teams</tspan></text></g></a><a target="_blank" href="https://docs.microsoft.com/office365/servicedescriptions/exchange-online-service-description/exchange-online-service-description#feature-availability-across-exchange-online-standalone-plans" rel="noopener"><g transform="translate(816,-416)"><rect x="0" y="1024" width="96" height="80" rx="8" ry="8" class="n"/><text x="14.93" y="1051.4" class="h">Exchange <tspan x="26.22" dy="1.2em" class="i">Online</tspan><tspan x="27.38" dy="1.2em" class="i">Plan 1</tspan></text></g></a><a target="_blank" href="https://docs.microsoft.com/sharepoint/introduction" rel="noopener"><g transform="translate(480,-128)"><rect x="0" y="1024" width="96" height="80" rx="8" ry="8" class="n"/><text x="11.05" y="1051.4" class="h">SharePoint <tspan x="26.22" dy="1.2em" class="i">Online</tspan><tspan x="27.38" dy="1.2em" class="i">Plan 1</tspan></text></g></a><a target="_blank" href="https://docs.microsoft.com/office365/servicedescriptions/onedrive-for-business-service-description" rel="noopener"><g transform="translate(704,-224)"><rect x="0" y="1024" width="96" height="80" rx="8" ry="8" class="n"/><text x="5.6" y="1051.4" class="h">OneDrive for <tspan x="16.88" dy="1.2em" class="i">Business </tspan><tspan x="27.38" dy="1.2em" class="i">Plan 1</tspan></text></g></a><a target="_blank" href="https://docs.microsoft.com/office365/enterprise/" rel="noopener"><g transform="translate(128,-64)"><rect x="0" y="1056" width="800" height="48" rx="8" ry="8" class="o"/><text x="337.19" y="1086" class="f">Office 365 E1</text></g></a><a target="_blank" href="https://docs.microsoft.com/stream/" rel="noopener"><g transform="translate(592,-128)"><rect x="0" y="1024" width="96" height="80" rx="8" ry="8" class="n"/><text x="12.99" y="1059.8" class="h">Stream for <tspan x="14.54" dy="1.2em" class="i">Office 365</tspan></text></g></a><a target="_blank" href="https://powerapps.microsoft.com/" rel="noopener"><g transform="translate(144,-128)"><rect x="0" y="1024" width="96" height="80" rx="8" ry="8" class="n"/><text x="7.55" y="1051.4" class="h">Power Apps<tspan x="38.67" dy="1.2em" class="i">for</tspan><tspan x="14.54" dy="1.2em" class="i">Office 365</tspan></text></g></a><a target="_blank" href="https://support.office.com/forms" rel="noopener"><g transform="translate(704,-320)"><rect x="0" y="1024" width="96" height="80" rx="8" ry="8" class="n"/><text x="16.5" y="1059.8" class="h">Microsoft <tspan x="26.61" dy="1.2em" class="i">Forms</tspan></text></g></a><a target="_blank" href="https://products.office.com/business/task-management-software" rel="noopener"><g transform="translate(816,-224)"><rect x="0" y="1024" width="96" height="80" rx="8" ry="8" class="n"/><text x="22.32" y="1068.2" class="h">Planner</text></g></a><a target="_blank" href="https://support.microsoft.com/office/1315665a-c6af-4409-a28d-49f8916878ca" rel="noopener"><g transform="translate(704,-416)"><rect x="0" y="1024" width="96" height="80" rx="8" ry="8" class="n"/><text x="29.32" y="1068.2" class="h">Delve</text></g></a><a target="_blank" href="https://products.office.com/business/myanalytics-personal-analytics" rel="noopener"><g transform="translate(256,-320)"><rect x="0" y="1024" width="96" height="80" rx="8" ry="8" class="n"/><text x="11.05" y="1059.8" class="h">Insights by <tspan x="7.15" dy="1.2em" class="i">MyAnalytics</tspan></text></g></a><a target="_blank" href="https://powerautomate.microsoft.com/" rel="noopener"><g transform="translate(256,-128)"><rect x="0" y="1024" width="96" height="80" rx="8" ry="8" class="n"/><text x="26.99" y="1051.4" class="h">Power <tspan x="4.45" dy="1.2em" class="i">Automate for</tspan><tspan x="14.54" dy="1.2em" class="i">Office 365</tspan></text></g></a><a target="_blank" href="https://docs.microsoft.com/microsoftteams/teams-live-events/what-are-teams-live-events" rel="noopener"><g transform="translate(480,-320)"><rect x="0" y="1024" width="96" height="80" rx="8" ry="8" class="n"/><text x="9.09" y="1059.8" class="h">Live Events <tspan x="9.49" dy="1.2em" class="i">&amp; Webinars</tspan></text></g></a><a target="_blank" href="https://support.office.com/sway" rel="noopener"><g transform="translate(704,-128)"><rect x="0" y="1024" width="96" height="80" rx="8" ry="8" class="n"/><text x="30.1" y="1068.2" class="h">Sway</text></g></a><a target="_blank" href="https://docs.microsoft.com/powerapps/teams/overview-data-platform" rel="noopener"><g transform="translate(592,-320)"><rect x="0" y="1024" width="96" height="80" rx="8" ry="8" class="n"/><text x="16.5" y="1051.4" class="h">Microsoft <tspan x="14.53" dy="1.2em" class="i">Dataverse </tspan><tspan x="14.55" dy="1.2em" class="i">for Teams</tspan></text></g></a><a target="_blank" href="https://www.microsoft.com/microsoft-365/microsoft-lists" rel="noopener"><g transform="translate(816,-320)"><rect x="0" y="1024" width="96" height="80" rx="8" ry="8" class="n"/><text x="16.5" y="1059.8" class="h">Microsoft <tspan x="31.66" dy="1.2em" class="i">Lists</tspan></text></g></a><a target="_blank" href="https://support.microsoft.com/office/d236aef8-fcdf-4b5e-b5d7-7f157461e920" rel="noopener"><g transform="translate(368,-224)"><rect x="0" y="1024" width="96" height="80" rx="8" ry="8" class="n"/><text x="16.5" y="1059.8" class="h">Microsoft <tspan x="9.5" dy="1.2em" class="i">Whiteboard</tspan></text></g></a><a target="_blank" href="https://www.microsoft.com/microsoft-365/microsoft-to-do-list-app" rel="noopener"><g transform="translate(256,-224)"><rect x="0" y="1024" width="96" height="80" rx="8" ry="8" class="n"/><text x="16.5" y="1059.8" class="h">Microsoft <tspan x="27.79" dy="1.2em" class="i">To</tspan>-Do</text></g></a><a target="_blank" href="https://products.office.com/mobile/office" rel="noopener"><g transform="translate(592,-224)"><rect x="0" y="1024" width="96" height="80" rx="8" ry="8" class="n"/><text x="28.16" y="1059.8" class="h">Office<tspan x="6.39" dy="1.2em" class="i">Mobile Apps</tspan></text></g></a><a target="_blank" href="https://docs.microsoft.com/office365/servicedescriptions/office-online-service-description/office-online-service-description" rel="noopener"><g transform="translate(480,-224)"><rect x="0" y="1024" width="96" height="80" rx="8" ry="8" class="n"/><text x="28.16" y="1051.4" class="h">Office<tspan x="9.5" dy="1.2em" class="i">for the Web</tspan><tspan x="12.61" dy="1.2em" class="i">(incl Visio)</tspan></text></g></a><a target="_blank" href="https://docs.microsoft.com/power-virtual-agents/teams/fundamentals-what-is-power-virtual-agents-teams" rel="noopener"><g transform="translate(368,-128)"><rect x="0" y="1024" width="96" height="80" rx="8" ry="8" class="n"/><text x="6.46" y="1052.3" class="j">Power Virtual <tspan x="15.5" dy="1.2em" class="i">Agents for </tspan><tspan x="27.4" dy="1.2em" class="i">Teams</tspan></text></g></a><a target="_blank" href="https://docs.microsoft.com/microsoft-365/compliance/apply-sensitivity-label-automatically" rel="noopener"><g transform="translate(480,-784)"><rect x="0" y="1024" width="96" height="80" rx="8" ry="8" class="g"/><text x="8.63" y="1052.3" class="j">Rules-Based <tspan x="5.74" dy="1.2em" class="i">Classification</tspan><tspan x="12.6" dy="1.2em" class="i">(Office 365)</tspan></text></g></a><g transform="translate(16,-1056)"><rect x="0" y="1072" width="960" height="32" class="p"/><text x="18.17" y="1092.2" class="q">Enterprise</text></g><a target="_blank" href="https://docs.microsoft.com/microsoft-365/admin/basic-mobility-security/capabilities" rel="noopener"><g transform="translate(592,-416)"><rect x="0" y="1024" width="96" height="80" rx="8" ry="8" class="n"/><text x="29.32" y="1051.4" class="h">Basic <tspan x="14.56" dy="1.2em" class="i">Mobility &amp; </tspan><tspan x="20.38" dy="1.2em" class="i">Security</tspan></text></g></a><a target="_blank" href="https://azure.microsoft.com/pricing/details/active-directory/" rel="noopener"><g transform="translate(480,-416)"><rect x="0" y="1024" width="96" height="80" rx="8" ry="8" class="n"/><text x="5.22" y="1059.8" class="h">Azure AD for <tspan x="14.54" dy="1.2em" class="i">Office 365</tspan></text></g></a><a target="_blank" href="https://docs.microsoft.com/office365/securitycompliance/search-the-audit-log-in-security-and-compliance" rel="noopener"><g transform="translate(368,-416)"><rect x="0" y="1024" width="96" height="80" rx="8" ry="8" class="n"/><text x="30.12" y="1059.8" class="h">Audit <tspan x="20.4" dy="1.2em" class="i">Logging</tspan></text></g></a><a target="_blank" href="https://docs.microsoft.com/microsoft-365/compliance/alert-policies" rel="noopener"><g transform="translate(144,-416)"><rect x="0" y="1024" width="96" height="80" rx="8" ry="8" class="n"/><text x="32.05" y="1059.8" class="h">Alert <tspan x="21.54" dy="1.2em" class="i">Policies</tspan></text></g></a><a target="_blank" href="https://docs.microsoft.com/microsoft-365/compliance/sensitivity-labels" rel="noopener"><g transform="translate(704,-640)"><rect x="0" y="1024" width="96" height="80" rx="8" ry="8" class="m"/><text x="9.5" y="1051.4" class="h">Information <tspan x="13.39" dy="1.2em" class="i">Protection</tspan><tspan x="19.21" dy="1.2em" class="i">for M365</tspan></text></g></a><a target="_blank" href="https://docs.microsoft.com/microsoftteams/audio-conferencing-in-office-365" rel="noopener"><g transform="translate(256,-416)"><rect x="0" y="1024" width="96" height="80" rx="8" ry="8" class="n"/><text x="28.17" y="1052.6" class="h">Audio <tspan x="6.11" dy="1.223em" class="k">Conferencing </tspan><tspan x="7.91" dy="1.2em" class="k">(Dial In Only)</tspan></text></g></a></g></svg>