<svg xmlns="http://www.w3.org/2000/svg" width="1056" height="1234" viewBox="0 0 1056 1234" class="a"><style>
.b {fill:none;stroke:none;stroke-linecap:round;stroke-linejoin:round;stroke-width:1}
.c {fill:#0070c0;font-family:Arial;font-size:1.16666em;font-weight:bold}
.d {fill:#a5a5a5;fill-opacity:0.2;stroke:#d04a00;stroke-linecap:round;stroke-linejoin:round;stroke-width:2.25}
.e {fill:#a5a5a5;fill-opacity:0.2;stroke:#e82200;stroke-dasharray:15.75,11.25;stroke-linecap:round;stroke-linejoin:round;stroke-width:2.25}
.f {fill:#a5a5a5;fill-opacity:0.2;stroke:#c42500;stroke-dasharray:2.25,4.5;stroke-linecap:round;stroke-linejoin:round;stroke-width:2.25}
.g {fill:#d04a00;stroke:#d04a00;stroke-linecap:round;stroke-linejoin:round;stroke-width:2.25}
.h {fill:#ffffff;font-family:Arial;font-size:1.66667em;font-weight:bold}
.i {fill:#e82200;stroke:#e82200;stroke-linecap:round;stroke-linejoin:round;stroke-width:2.25}
.j {fill:#c42500;stroke:#c42500;stroke-linecap:round;stroke-linejoin:round;stroke-width:2.25}
.k {fill:#d04a00;stroke:none;stroke-linecap:round;stroke-linejoin:round;stroke-width:1}
.l {fill:#ffffff;font-family:Arial;font-size:1.16666em;font-weight:bold}
.m {font-size:1em}
.n {fill:#ffffff;font-family:Arial;font-size:1.08334em;font-weight:bold}
.o {font-size:0.928588em}
.p {fill:#c42500;stroke:none;stroke-linecap:round;stroke-linejoin:round;stroke-width:1}
.q {font-size:0.857157em}
.r {fill:#e82200;stroke:none;stroke-linecap:round;stroke-linejoin:round;stroke-width:1}
.s {fill:#606060;stroke:none;stroke-linecap:round;stroke-linejoin:round;stroke-width:1}
.t {fill:#000000;font-family:Arial;font-size:1.16666em;font-weight:bold}
.u {fill:#7f7f7f;font-family:Arial;font-size:4.00001em}
.v {fill:#cbcbcb;font-family:Arial;font-size:4.00001em}
.a {fill:none;fill-rule:evenodd;font-size:12px;overflow:visible;stroke-linecap:square;stroke-miterlimit:3}
</style><g><a target="_blank" href="https://docs.microsoft.com/office365/servicedescriptions/office-365-platform-service-description/office-365-us-government/office-365-us-government" rel="noopener"><g transform="translate(16,-16)"><rect x="0" y="1202" width="1024" height="32" rx="8" ry="8" class="b"/><text x="103.15" y="1222.2" class="c">Not all features are available in GCC, GCC High, and DoD services. Refer to the service description for specific differences.</text></g></a><g transform="translate(16,-48)"><rect x="0" y="66" width="1024" height="1168" rx="8" ry="8" class="d"/></g><g transform="translate(48,-80)"><rect x="0" y="434" width="896" height="800" rx="8" ry="8" class="e"/></g><g transform="translate(128,-96)"><rect x="0" y="786" width="800" height="448" rx="8" ry="8" class="f"/></g><a target="_blank" href="https://docs.microsoft.com/office365/enterprise/" rel="noopener"><g transform="translate(-194,1186) rotate(-90)"><rect x="0" y="1170" width="1168" height="64" rx="8" ry="8" class="g"/><text x="520.08" y="1208" class="h">Office 365 G5</text></g></a><a target="_blank" href="https://docs.microsoft.com/office365/enterprise/" rel="noopener"><g transform="translate(-1122,1154) rotate(-90)"><rect x="0" y="1170" width="800" height="64" rx="8" ry="8" class="i"/><text x="336.08" y="1208" class="h">Office 365 G3</text></g></a><a target="_blank" href="https://docs.microsoft.com/office365/enterprise/" rel="noopener"><g transform="translate(128,-96)"><rect x="0" y="1186" width="800" height="48" rx="8" ry="8" class="j"/><text x="315.52" y="1216" class="h">Office 365 Gov F3</text></g></a><a target="_blank" href="https://docs.microsoft.com/MicrosoftTeams/what-is-phone-system-in-office-365" rel="noopener"><g transform="translate(816,-1008)"><rect x="0" y="1154" width="96" height="80" rx="8" ry="8" class="k"/><text x="26.61" y="1189.8" class="l">Phone <tspan x="23.1" dy="1.2em" class="m">System</tspan></text></g></a><a target="_blank" href="https://docs.microsoft.com/microsoftteams/audio-conferencing-in-office-365" rel="noopener"><g transform="translate(480,-1104)"><rect x="0" y="1154" width="96" height="80" rx="8" ry="8" class="k"/><text x="29.59" y="1182.3" class="n">Audio <tspan x="6.11" dy="1.2em" class="m">Conferencing </tspan><tspan x="32.12" dy="1.2em" class="m">(Full)</tspan></text></g></a><a target="_blank" href="https://docs.microsoft.com/power-bi/service-get-started" rel="noopener"><g transform="translate(144,-912)"><rect x="0" y="1154" width="96" height="80" rx="8" ry="8" class="k"/><text x="4.43" y="1198.2" class="l">Power BI Pro</text></g></a><a target="_blank" href="https://support.office.com/article/36f9cdd1-e64c-421b-a7e4-4a54d16440a2" rel="noopener"><g transform="translate(816,-1104)"><rect x="0" y="1154" width="96" height="80" rx="8" ry="8" class="k"/><text x="15.33" y="1189.8" class="l">Customer <tspan x="19.22" dy="1.2em" class="m">Lockbox</tspan></text></g></a><a target="_blank" href="https://support.office.com/article/f2cd475a-e592-46cf-80a3-1bfb0fa17697" rel="noopener"><g transform="translate(704,-1104)"><rect x="0" y="1154" width="96" height="80" rx="8" ry="8" class="k"/><text x="15.33" y="1189.8" class="l">Customer <tspan x="35.16" dy="1.2em" class="m">Key</tspan></text></g></a><a target="_blank" href="https://docs.microsoft.com/microsoft-365/compliance/manage-legal-investigations" rel="noopener"><g transform="translate(256,-1104)"><rect x="0" y="1154" width="96" height="80" rx="8" ry="8" class="k"/><text x="14.55" y="1189.8" class="l">Advanced <tspan x="10.64" dy="1.2em" class="m">eDiscovery</tspan></text></g></a><a target="_blank" href="https://docs.microsoft.com/microsoft-365/compliance/privileged-access-management-solution-overview" rel="noopener"><g transform="translate(256,-912)"><rect x="0" y="1154" width="96" height="80" rx="8" ry="8" class="k"/><text x="14.54" y="1181.4" class="l">Privileged <tspan x="23.48" dy="1.2em" class="m">Access </tspan><tspan x="5.21" dy="1.2em" class="m">Management</tspan></text></g></a><a target="_blank" href="https://docs.microsoft.com/office365/securitycompliance/data-loss-prevention-policies#policy-evaluation-in-microsoft-teams" rel="noopener"><g transform="translate(592,-912)"><rect x="0" y="1154" width="96" height="80" rx="8" ry="8" class="k"/><text x="25.82" y="1181.4" class="l">Teams<tspan x="14.55" dy="1.2em" class="m">Data Loss </tspan><tspan x="11.82" dy="1.2em" class="m">Prevention</tspan></text></g></a><a target="_blank" href="https://docs.microsoft.com/microsoft-365/compliance/ome-advanced-message-encryption" rel="noopener"><g transform="translate(368,-1104)"><rect x="0" y="1154" width="96" height="80" rx="8" ry="8" class="k"/><text x="14.55" y="1181.4" class="l">Advanced <tspan x="18.43" dy="1.2em" class="m">Message </tspan><tspan x="11.44" dy="1.2em" class="m">Encryption</tspan></text></g></a><a target="_blank" href="https://docs.microsoft.com/microsoft-365/compliance/information-barriers" rel="noopener"><g transform="translate(256,-1008)"><rect x="0" y="1154" width="96" height="80" rx="8" ry="8" class="k"/><text x="9.5" y="1189.8" class="l">Information <tspan x="21.15" dy="1.2em" class="m">Barriers</tspan></text></g></a><a target="_blank" href="https://docs.microsoft.com/office365/servicedescriptions/mya-service-description" rel="noopener"><g transform="translate(592,-1008)"><rect x="0" y="1154" width="96" height="80" rx="8" ry="8" class="k"/><text x="7.15" y="1189.8" class="l">MyAnalytics <tspan x="32.12" dy="1.292em" class="o">(Full)</tspan></text></g></a><a target="_blank" href="https://docs.microsoft.com/microsoft-365/compliance/communication-compliance" rel="noopener"><g transform="translate(592,-1104)"><rect x="0" y="1154" width="96" height="80" rx="8" ry="8" class="k"/><text x="26.22" y="1189.8" class="l">Comm <tspan x="8.32" dy="1.2em" class="m">Compliance</tspan></text></g></a><a target="_blank" href="https://docs.microsoft.com/cloud-app-security/editions-cloud-app-security-o365" rel="noopener"><g transform="translate(704,-1008)"><rect x="0" y="1154" width="96" height="80" rx="8" ry="8" class="k"/><text x="14.54" y="1181.4" class="l">Office 365 <tspan x="12.62" dy="1.2em" class="m">Cloud App </tspan><tspan x="20.38" dy="1.2em" class="m">Security</tspan></text></g></a><a target="_blank" href="https://docs.microsoft.com/microsoft-365/compliance/manage-information-governance" rel="noopener"><g transform="translate(368,-1008)"><rect x="0" y="1154" width="96" height="80" rx="8" ry="8" class="k"/><text x="9.5" y="1189.8" class="l">Information <tspan x="7.54" dy="1.2em" class="m">Governance</tspan></text></g></a><a target="_blank" href="https://docs.microsoft.com/microsoft-365/compliance/records-management" rel="noopener"><g transform="translate(368,-912)"><rect x="0" y="1154" width="96" height="80" rx="8" ry="8" class="k"/><text x="19.99" y="1189.8" class="l">Records <tspan x="5.21" dy="1.2em" class="m">Management</tspan></text></g></a><a target="_blank" href="https://docs.microsoft.com/microsoft-365/compliance/advanced-audit" rel="noopener"><g transform="translate(144,-1104)"><rect x="0" y="1154" width="96" height="80" rx="8" ry="8" class="k"/><text x="14.55" y="1189.8" class="l">Advanced <tspan x="30.12" dy="1.2em" class="m">Audit</tspan></text></g></a><a target="_blank" href="https://docs.microsoft.com/microsoft-365/compliance/double-key-encryption" rel="noopener"><g transform="translate(144,-1008)"><rect x="0" y="1154" width="96" height="80" rx="8" ry="8" class="k"/><text x="9.49" y="1189.8" class="l">Double Key <tspan x="11.44" dy="1.2em" class="m">Encryption</tspan></text></g></a><a target="_blank" href="https://docs.microsoft.com/office365/servicedescriptions/office-365-advanced-threat-protection-service-description#feature-availability-across-advanced-threat-protection-atp-plans" rel="noopener"><g transform="translate(480,-1008)"><rect x="0" y="1154" width="96" height="80" rx="8" ry="8" class="k"/><text x="16.5" y="1173" class="l">Microsoft <tspan x="6.38" dy="1.2em" class="m">Defender for </tspan><tspan x="14.54" dy="1.2em" class="m">Office 365 </tspan><tspan x="27.38" dy="1.2em" class="m">Plan 2</tspan></text></g></a><a target="_blank" href="https://www.microsoft.com/microsoft-365/exchange/exchange-email-security-spam-protection" rel="noopener"><g transform="translate(816,-448)"><rect x="0" y="1154" width="96" height="80" rx="8" ry="8" class="p"/><text x="14.93" y="1181.4" class="l">Exchange <tspan x="26.22" dy="1.2em" class="m">Online </tspan><tspan x="13.39" dy="1.2em" class="m">Protection</tspan></text></g></a><a target="_blank" href="https://products.office.com/microsoft-teams/" rel="noopener"><g transform="translate(592,-352)"><rect x="0" y="1154" width="96" height="80" rx="8" ry="8" class="p"/><text x="16.5" y="1189.8" class="l">Microsoft <tspan x="25.82" dy="1.2em" class="m">Teams</tspan></text></g></a><a target="_blank" href="https://docs.microsoft.com/office365/servicedescriptions/exchange-online-service-description/exchange-online-service-description#feature-availability-across-exchange-online-standalone-plans" rel="noopener"><g transform="translate(704,-448)"><rect x="0" y="1154" width="96" height="80" rx="8" ry="8" class="p"/><text x="14.93" y="1181.4" class="l">Exchange <tspan x="5.21" dy="1.2em" class="m">Online Kiosk</tspan><tspan x="28.5" dy="1.292em" class="o">(2 GB)</tspan></text></g></a><a target="_blank" href="https://docs.microsoft.com/office365/servicedescriptions/onedrive-for-business-service-description" rel="noopener"><g transform="translate(256,-256)"><rect x="0" y="1154" width="96" height="80" rx="8" ry="8" class="p"/><text x="5.6" y="1181.4" class="l">OneDrive for <tspan x="16.88" dy="1.2em" class="m">Business </tspan><tspan x="28.5" dy="1.292em" class="o">(2 GB)</tspan></text></g></a><a target="_blank" href="https://powerautomate.microsoft.com/" rel="noopener"><g transform="translate(592,-256)"><rect x="0" y="1154" width="96" height="80" rx="8" ry="8" class="p"/><text x="26.99" y="1181.4" class="l">Power <tspan x="15.72" dy="1.2em" class="m">Automate </tspan><tspan x="4.65" dy="1.4em" class="q">(2000 step/day)</tspan></text></g></a><a target="_blank" href="https://products.office.com/en/business/microsoft-kaizala" rel="noopener"><g transform="translate(144,-352)"><rect x="0" y="1154" width="96" height="80" rx="8" ry="8" class="p"/><text x="10.26" y="1189.8" class="l">Kaizala Pro<tspan x="21.28" dy="1.292em" class="o">(retiring)</tspan></text></g></a><a target="_blank" href="https://powerapps.microsoft.com/" rel="noopener"><g transform="translate(480,-256)"><rect x="0" y="1154" width="96" height="80" rx="8" ry="8" class="p"/><text x="7.55" y="1181.4" class="l">Power Apps<tspan x="38.67" dy="1.2em" class="m">for</tspan><tspan x="14.54" dy="1.2em" class="m">Office 365</tspan></text></g></a><a target="_blank" href="https://support.office.com/forms" rel="noopener"><g transform="translate(368,-352)"><rect x="0" y="1154" width="96" height="80" rx="8" ry="8" class="p"/><text x="16.5" y="1189.8" class="l">Microsoft <tspan x="26.61" dy="1.2em" class="m">Forms</tspan></text></g></a><a target="_blank" href="https://products.office.com/yammer/yammer-overview" rel="noopener"><g transform="translate(368,-160)"><rect x="0" y="1154" width="96" height="80" rx="8" ry="8" class="p"/><text x="20.37" y="1181.4" class="l">Yammer <tspan x="13.38" dy="1.2em" class="m">Enterprise </tspan><tspan x="7.57" dy="1.292em" class="o">(GCC option)</tspan></text></g></a><a target="_blank" href="https://docs.microsoft.com/sharepoint/introduction" rel="noopener"><g transform="translate(816,-256)"><rect x="0" y="1154" width="96" height="80" rx="8" ry="8" class="p"/><text x="11.05" y="1189.8" class="l">SharePoint <tspan x="5.21" dy="1.2em" class="m">Online Kiosk</tspan></text></g></a><a target="_blank" href="https://docs.microsoft.com/stream/" rel="noopener"><g transform="translate(144,-160)"><rect x="0" y="1154" width="96" height="80" rx="8" ry="8" class="p"/><text x="24.27" y="1189.8" class="l">Stream <tspan x="14.06" dy="1.292em" class="o">(Consume)</tspan></text></g></a><a target="_blank" href="https://products.office.com/business/task-management-software" rel="noopener"><g transform="translate(368,-256)"><rect x="0" y="1154" width="96" height="80" rx="8" ry="8" class="p"/><text x="22.32" y="1198.2" class="l">Planner</text></g></a><a target="_blank" href="https://docs.microsoft.com/powerapps/teams/overview-data-platform" rel="noopener"><g transform="translate(256,-352)"><rect x="0" y="1154" width="96" height="80" rx="8" ry="8" class="p"/><text x="16.5" y="1181.4" class="l">Microsoft <tspan x="14.53" dy="1.2em" class="m">Dataverse </tspan><tspan x="14.55" dy="1.2em" class="m">for Teams</tspan></text></g></a><a target="_blank" href="https://www.microsoft.com/microsoft-365/business/microsoft-365-apps-for-enterprise-product" rel="noopener"><g transform="translate(368,-672)"><rect x="0" y="1154" width="96" height="80" rx="8" ry="8" class="r"/><text x="16.5" y="1181.4" class="l">Microsoft <tspan x="5.6" dy="1.2em" class="m">365 Apps for </tspan><tspan x="13.38" dy="1.2em" class="m">Enterprise</tspan></text></g></a><a target="_blank" href="https://docs.microsoft.com/microsoftteams/teams-live-events/what-are-teams-live-events" rel="noopener"><g transform="translate(256,-672)"><rect x="0" y="1154" width="96" height="80" rx="8" ry="8" class="r"/><text x="9.09" y="1189.8" class="l">Live Events <tspan x="9.49" dy="1.2em" class="m">&amp; Webinars</tspan></text></g></a><a target="_blank" href="https://products.office.com/business/myanalytics-personal-analytics" rel="noopener"><g transform="translate(144,-672)"><rect x="0" y="1154" width="96" height="80" rx="8" ry="8" class="r"/><text x="11.05" y="1189.8" class="l">Insights by <tspan x="7.15" dy="1.2em" class="m">MyAnalytics</tspan></text></g></a><a target="_blank" href="https://docs.microsoft.com/stream/" rel="noopener"><g transform="translate(144,-576)"><rect x="0" y="1154" width="96" height="80" rx="8" ry="8" class="r"/><text x="12.99" y="1189.8" class="l">Stream for <tspan x="14.54" dy="1.2em" class="m">Office 365</tspan></text></g></a><a target="_blank" href="https://docs.microsoft.com/sharepoint/introduction" rel="noopener"><g transform="translate(816,-672)"><rect x="0" y="1154" width="96" height="80" rx="8" ry="8" class="r"/><text x="11.05" y="1181.4" class="l">SharePoint <tspan x="26.22" dy="1.2em" class="m">Online </tspan><tspan x="27.38" dy="1.2em" class="m">Plan 2</tspan></text></g></a><a target="_blank" href="https://docs.microsoft.com/office365/servicedescriptions/onedrive-for-business-service-description" rel="noopener"><g transform="translate(480,-672)"><rect x="0" y="1154" width="96" height="80" rx="8" ry="8" class="r"/><text x="5.6" y="1181.4" class="l">OneDrive for <tspan x="16.88" dy="1.2em" class="m">Business </tspan><tspan x="27.38" dy="1.2em" class="m">Plan 2</tspan></text></g></a><a target="_blank" href="https://support.microsoft.com/office/1315665a-c6af-4409-a28d-49f8916878ca" rel="noopener"><g transform="translate(368,-768)"><rect x="0" y="1154" width="96" height="80" rx="8" ry="8" class="r"/><text x="29.32" y="1198.2" class="l">Delve</text></g></a><a target="_blank" href="https://powerautomate.microsoft.com/" rel="noopener"><g transform="translate(592,-672)"><rect x="0" y="1154" width="96" height="80" rx="8" ry="8" class="r"/><text x="26.99" y="1181.4" class="l">Power <tspan x="4.45" dy="1.2em" class="m">Automate for</tspan><tspan x="14.54" dy="1.2em" class="m">Office 365</tspan></text></g></a><a target="_blank" href="https://docs.microsoft.com/office365/securitycompliance/data-loss-prevention-policies" rel="noopener"><g transform="translate(256,-768)"><rect x="0" y="1154" width="96" height="80" rx="8" ry="8" class="r"/><text x="14.55" y="1189.8" class="l">Data Loss <tspan x="11.82" dy="1.2em" class="m">Prevention</tspan></text></g></a><a target="_blank" href="https://docs.microsoft.com/microsoft-365/compliance/retention" rel="noopener"><g transform="translate(704,-672)"><rect x="0" y="1154" width="96" height="80" rx="8" ry="8" class="r"/><text x="15.72" y="1181.4" class="l">Retention <tspan x="18.82" dy="1.2em" class="m">Labels &amp; </tspan><tspan x="21.54" dy="1.2em" class="m">Policies</tspan></text></g></a><a target="_blank" href="https://docs.microsoft.com/office365/securitycompliance/ediscovery-cases" rel="noopener"><g transform="translate(480,-768)"><rect x="0" y="1154" width="96" height="80" rx="8" ry="8" class="r"/><text x="10.64" y="1198.2" class="l">eDiscovery</text></g></a><a target="_blank" href="https://docs.microsoft.com/office365/servicedescriptions/exchange-online-service-description/exchange-online-service-description#feature-availability-across-exchange-online-standalone-plans" rel="noopener"><g transform="translate(592,-768)"><rect x="0" y="1154" width="96" height="80" rx="8" ry="8" class="r"/><text x="14.93" y="1181.4" class="l">Exchange <tspan x="26.22" dy="1.2em" class="m">Online </tspan><tspan x="27.38" dy="1.2em" class="m">Plan 2</tspan></text></g></a><a target="_blank" href="https://www.microsoft.com/microsoft-365/microsoft-lists" rel="noopener"><g transform="translate(480,-352)"><rect x="0" y="1154" width="96" height="80" rx="8" ry="8" class="p"/><text x="16.5" y="1189.8" class="l">Microsoft <tspan x="31.66" dy="1.2em" class="m">Lists</tspan></text></g></a><a target="_blank" href="https://docs.microsoft.com/microsoft-365/bookings/bookings-overview" rel="noopener"><g transform="translate(144,-768)"><rect x="0" y="1154" width="96" height="80" rx="8" ry="8" class="r"/><text x="16.11" y="1198.2" class="l">Bookings</text></g></a><a target="_blank" href="https://www.microsoft.com/download/details.aspx?id=48734" rel="noopener"><g transform="translate(704,-768)"><rect x="0" y="1154" width="96" height="80" rx="8" ry="8" class="r"/><text x="20" y="1189.8" class="l">InfoPath<tspan x="34.39" dy="1.2em" class="m">App</tspan></text></g></a><a target="_blank" href="https://support.microsoft.com/office/d236aef8-fcdf-4b5e-b5d7-7f157461e920" rel="noopener"><g transform="translate(816,-352)"><rect x="0" y="1154" width="96" height="80" rx="8" ry="8" class="s"/><text x="16.5" y="1189.8" class="l">Microsoft <tspan x="9.5" dy="1.2em" class="m">Whiteboard</tspan></text></g></a><a target="_blank" href="https://www.microsoft.com/microsoft-365/microsoft-to-do-list-app" rel="noopener"><g transform="translate(704,-352)"><rect x="0" y="1154" width="96" height="80" rx="8" ry="8" class="p"/><text x="16.5" y="1189.8" class="l">Microsoft <tspan x="27.79" dy="1.2em" class="m">To</tspan>-Do</text></g></a><a target="_blank" href="https://docs.microsoft.com/power-virtual-agents/teams/fundamentals-what-is-power-virtual-agents-teams" rel="noopener"><g transform="translate(704,-256)"><rect x="0" y="1154" width="96" height="80" rx="8" ry="8" class="p"/><text x="6.46" y="1182.3" class="n">Power Virtual <tspan x="15.5" dy="1.2em" class="m">Agents for </tspan><tspan x="27.4" dy="1.2em" class="m">Teams</tspan></text></g></a><a target="_blank" href="https://products.office.com/mobile/office" rel="noopener"><g transform="translate(144,-256)"><rect x="0" y="1154" width="96" height="80" rx="8" ry="8" class="p"/><text x="4.44" y="1189.8" class="l">Office Web &amp; <tspan x="6.39" dy="1.2em" class="m">Mobile Apps</tspan></text></g></a><a target="_blank" href="https://docs.microsoft.com/microsoft-365/compliance/apply-sensitivity-label-automatically" rel="noopener"><g transform="translate(480,-912)"><rect x="0" y="1154" width="96" height="80" rx="8" ry="8" class="k"/><text x="8.63" y="1182.3" class="n">Rules-Based <tspan x="5.74" dy="1.2em" class="m">Classification</tspan><tspan x="12.6" dy="1.2em" class="m">(Office 365)</tspan></text></g></a><g transform="translate(16,-1184)"><rect x="0" y="1202" width="960" height="32" rx="8" ry="8" class="b"/><text x="18.17" y="1222.2" class="t">United States Government</text></g><a target="_blank" href="https://support.office.com/sway" rel="noopener"><g transform="translate(256,-160)"><rect x="0" y="1154" width="96" height="80" rx="8" ry="8" class="s"/><text x="30.1" y="1198.2" class="l">Sway</text></g></a><g transform="translate(-1106,338) rotate(-90)"><rect x="0" y="1138" width="272" height="96" rx="8" ry="8" class="b"/><text x="56.01" y="1200.4" class="u">DRAFT</text></g><g transform="translate(256,-576)"><rect x="0" y="1154" width="656" height="80" rx="8" ry="8" class="b"/><text x="248.01" y="1208.4" class="u">DRAFT</text></g><g transform="translate(704,-912)"><rect x="0" y="1154" width="208" height="80" rx="8" ry="8" class="b"/><text x="24.01" y="1208.4" class="v">DRAFT</text></g><a target="_blank" href="https://docs.microsoft.com/microsoft-365/admin/basic-mobility-security/capabilities" rel="noopener"><g transform="translate(592,-448)"><rect x="0" y="1154" width="96" height="80" rx="8" ry="8" class="p"/><text x="29.32" y="1181.4" class="l">Basic <tspan x="14.56" dy="1.2em" class="m">Mobility &amp; </tspan><tspan x="20.38" dy="1.2em" class="m">Security</tspan></text></g></a><a target="_blank" href="https://azure.microsoft.com/pricing/details/active-directory/" rel="noopener"><g transform="translate(480,-448)"><rect x="0" y="1154" width="96" height="80" rx="8" ry="8" class="p"/><text x="5.22" y="1189.8" class="l">Azure AD for <tspan x="14.54" dy="1.2em" class="m">Office 365</tspan></text></g></a><g transform="translate(480,-160)"><rect x="0" y="1154" width="432" height="80" rx="8" ry="8" class="b"/><text x="136.01" y="1208.4" class="u">DRAFT</text></g><a target="_blank" href="https://docs.microsoft.com/office365/securitycompliance/search-the-audit-log-in-security-and-compliance" rel="noopener"><g transform="translate(368,-448)"><rect x="0" y="1154" width="96" height="80" rx="8" ry="8" class="p"/><text x="30.12" y="1189.8" class="l">Audit <tspan x="20.4" dy="1.2em" class="m">Logging</tspan></text></g></a><a target="_blank" href="https://docs.microsoft.com/microsoft-365/compliance/alert-policies" rel="noopener"><g transform="translate(144,-448)"><rect x="0" y="1154" width="96" height="80" rx="8" ry="8" class="p"/><text x="32.05" y="1189.8" class="l">Alert <tspan x="21.54" dy="1.2em" class="m">Policies</tspan></text></g></a><a target="_blank" href="https://docs.microsoft.com/microsoft-365/compliance/sensitivity-labels" rel="noopener"><g transform="translate(816,-768)"><rect x="0" y="1154" width="96" height="80" rx="8" ry="8" class="r"/><text x="9.5" y="1181.4" class="l">Information <tspan x="13.39" dy="1.2em" class="m">Protection</tspan><tspan x="19.21" dy="1.2em" class="m">for M365</tspan></text></g></a><a target="_blank" href="https://docs.microsoft.com/microsoftteams/audio-conferencing-in-office-365" rel="noopener"><g transform="translate(256,-448)"><rect x="0" y="1154" width="96" height="80" rx="8" ry="8" class="p"/><text x="28.17" y="1182.6" class="l">Audio <tspan x="6.11" dy="1.223em" class="o">Conferencing </tspan><tspan x="7.91" dy="1.2em" class="o">(Dial In Only)</tspan></text></g></a></g></svg>