<svg xmlns="http://www.w3.org/2000/svg" width="1056px" height="1120px" viewBox="0 0 1056 1120" class="a"><style>
.b {fill:#a5a5a5;fill-opacity:0.2;stroke:#d04a00;stroke-linecap:round;stroke-linejoin:round;stroke-width:2.25}
.c {fill:#a5a5a5;fill-opacity:0.2;stroke:#e82200;stroke-dasharray:15.75,11.25;stroke-linecap:round;stroke-linejoin:round;stroke-width:2.25}
.d {fill:#a5a5a5;fill-opacity:0.2;stroke:#a41500;stroke-dasharray:2.25,4.5;stroke-linecap:round;stroke-linejoin:round;stroke-width:2.25}
.e {fill:#d04a00;stroke:#d04a00;stroke-linecap:round;stroke-linejoin:round;stroke-width:2.25}
.f {fill:#ffffff;font-family:Arial;font-size:1.66667em;font-weight:bold}
.g {fill:#d04a00;stroke:none;stroke-linecap:round;stroke-linejoin:round;stroke-width:1}
.h {fill:#ffffff;font-family:Arial;font-size:1.16666em;font-weight:bold}
.i {font-size:1em}
.j {fill:#ffffff;font-family:Arial;font-size:1.08334em;font-weight:bold}
.k {font-size:0.928588em}
.l {fill:#e82200;stroke:#e82200;stroke-linecap:round;stroke-linejoin:round;stroke-width:2.25}
.m {fill:#e82200;stroke:none;stroke-linecap:round;stroke-linejoin:round;stroke-width:1}
.n {fill:#a41500;stroke:none;stroke-linecap:round;stroke-linejoin:round;stroke-width:1}
.o {fill:#a41500;stroke:#a41500;stroke-linecap:round;stroke-linejoin:round;stroke-width:2.25}
.p {fill:#606060;stroke:none;stroke-linecap:round;stroke-linejoin:round;stroke-width:1}
.q {fill:none;stroke:none;stroke-linecap:round;stroke-linejoin:round;stroke-width:1}
.r {fill:#000000;font-family:Arial;font-size:1.16666em;font-weight:bold}
.s {fill:#0070c0;font-family:Arial;font-size:1.16666em;font-weight:bold}
.t {fill:#cbcbcb;font-family:Arial;font-size:4.00001em}
.u {fill:#7f7f7f;font-family:Arial;font-size:4.00001em}
.a {fill:none;fill-rule:evenodd;font-size:12px;overflow:visible;stroke-linecap:square;stroke-miterlimit:3}
</style><g><g transform="translate(16,-48)"><rect x="0" y="64" width="1024" height="1056" rx="8" ry="8" class="b"/></g><g transform="translate(48,-80)"><rect x="0" y="432" width="896" height="688" rx="8" ry="8" class="c"/></g><g transform="translate(128,-96)"><rect x="0" y="672" width="800" height="448" rx="8" ry="8" class="d"/></g><a target="_blank" aria-label="Office 365 Enterprise" href="https://docs.microsoft.com/office365/enterprise/" rel="noopener"><g transform="translate(-80,1072) rotate(-90)"><rect x="0" y="1056" width="1056" height="64" rx="8" ry="8" class="e"/><text x="464.08" y="1094" class="f">Office 365 G5</text></g></a><a target="_blank" aria-label="Phone System" href="https://docs.microsoft.com/MicrosoftTeams/what-is-phone-system-in-office-365" rel="noopener"><g transform="translate(816,-896)"><rect x="0" y="1040" width="96" height="80" rx="8" ry="8" class="g"/><text x="26.61" y="1075.8" class="h">Phone <tspan x="23.1" dy="1.2em" class="i">System</tspan></text></g></a><a target="_blank" aria-label="Audio Conferencing" href="https://docs.microsoft.com/microsoftteams/audio-conferencing-in-office-365" rel="noopener"><g transform="translate(480,-992)"><rect x="0" y="1040" width="96" height="80" rx="8" ry="8" class="g"/><text x="29.59" y="1076.1" class="j">Audio <tspan x="6.11" dy="1.2em" class="i">Conferencing</tspan></text></g></a><a target="_blank" aria-label="Power BI Pro" href="https://docs.microsoft.com/power-bi/service-get-started" rel="noopener"><g transform="translate(144,-800)"><rect x="0" y="1040" width="96" height="80" rx="8" ry="8" class="g"/><text x="4.43" y="1084.2" class="h">Power BI Pro</text></g></a><a target="_blank" aria-label="Customer Lockbox" href="https://support.office.com/article/36f9cdd1-e64c-421b-a7e4-4a54d16440a2" rel="noopener"><g transform="translate(816,-992)"><rect x="0" y="1040" width="96" height="80" rx="8" ry="8" class="g"/><text x="15.33" y="1075.8" class="h">Customer <tspan x="19.22" dy="1.2em" class="i">Lockbox</tspan></text></g></a><a target="_blank" aria-label="Customer Key" href="https://support.office.com/article/f2cd475a-e592-46cf-80a3-1bfb0fa17697" rel="noopener"><g transform="translate(704,-992)"><rect x="0" y="1040" width="96" height="80" rx="8" ry="8" class="g"/><text x="15.33" y="1075.8" class="h">Customer <tspan x="35.16" dy="1.2em" class="i">Key</tspan></text></g></a><a target="_blank" aria-label="Advanced eDiscovery" href="https://docs.microsoft.com/microsoft-365/compliance/manage-legal-investigations" rel="noopener"><g transform="translate(256,-992)"><rect x="0" y="1040" width="96" height="80" rx="8" ry="8" class="g"/><text x="14.55" y="1075.8" class="h">Advanced <tspan x="10.64" dy="1.2em" class="i">eDiscovery</tspan></text></g></a><a target="_blank" aria-label="Office 365 Privileged Access Management" href="https://docs.microsoft.com/microsoft-365/compliance/privileged-access-management-solution-overview" rel="noopener"><g transform="translate(256,-800)"><rect x="0" y="1040" width="96" height="80" rx="8" ry="8" class="g"/><text x="14.54" y="1067.4" class="h">Privileged <tspan x="23.48" dy="1.2em" class="i">Access </tspan><tspan x="5.21" dy="1.2em" class="i">Management</tspan></text></g></a><a target="_blank" aria-label="Teams DLP" href="https://docs.microsoft.com/office365/securitycompliance/data-loss-prevention-policies#policy-evaluation-in-microsoft-teams" rel="noopener"><g transform="translate(592,-800)"><rect x="0" y="1040" width="96" height="80" rx="8" ry="8" class="g"/><text x="25.82" y="1067.4" class="h">Teams<tspan x="14.55" dy="1.2em" class="i">Data Loss </tspan><tspan x="11.82" dy="1.2em" class="i">Prevention</tspan></text></g></a><a target="_blank" aria-label="Advanced Message Encryption" href="https://docs.microsoft.com/microsoft-365/compliance/ome-advanced-message-encryption" rel="noopener"><g transform="translate(368,-992)"><rect x="0" y="1040" width="96" height="80" rx="8" ry="8" class="g"/><text x="14.55" y="1067.4" class="h">Advanced <tspan x="18.43" dy="1.2em" class="i">Message </tspan><tspan x="11.44" dy="1.2em" class="i">Encryption</tspan></text></g></a><a target="_blank" aria-label="Information Barriers" href="https://docs.microsoft.com/microsoft-365/compliance/information-barriers" rel="noopener"><g transform="translate(256,-896)"><rect x="0" y="1040" width="96" height="80" rx="8" ry="8" class="g"/><text x="9.5" y="1075.8" class="h">Information <tspan x="21.15" dy="1.2em" class="i">Barriers</tspan></text></g></a><a target="_blank" aria-label="MyAnalytics (Full)" href="https://docs.microsoft.com/office365/servicedescriptions/mya-service-description" rel="noopener"><g transform="translate(592,-896)"><rect x="0" y="1040" width="96" height="80" rx="8" ry="8" class="g"/><text x="7.15" y="1075.8" class="h">MyAnalytics <tspan x="32.12" dy="1.292em" class="k">(Full)</tspan></text></g></a><a target="_blank" aria-label="Communication Compliance" href="https://docs.microsoft.com/microsoft-365/compliance/communication-compliance" rel="noopener"><g transform="translate(592,-992)"><rect x="0" y="1040" width="96" height="80" rx="8" ry="8" class="g"/><text x="26.22" y="1075.8" class="h">Comm <tspan x="8.32" dy="1.2em" class="i">Compliance</tspan></text></g></a><a target="_blank" aria-label="Office 365 Cloud App Security" href="https://docs.microsoft.com/cloud-app-security/editions-cloud-app-security-o365" rel="noopener"><g transform="translate(704,-896)"><rect x="0" y="1040" width="96" height="80" rx="8" ry="8" class="g"/><text x="14.54" y="1067.4" class="h">Office 365 <tspan x="12.62" dy="1.2em" class="i">Cloud App </tspan><tspan x="20.38" dy="1.2em" class="i">Security</tspan></text></g></a><a target="_blank" aria-label="Information Governance" href="https://docs.microsoft.com/microsoft-365/compliance/manage-information-governance" rel="noopener"><g transform="translate(368,-896)"><rect x="0" y="1040" width="96" height="80" rx="8" ry="8" class="g"/><text x="9.5" y="1075.8" class="h">Information <tspan x="7.54" dy="1.2em" class="i">Governance</tspan></text></g></a><a target="_blank" aria-label="Records Management" href="https://docs.microsoft.com/microsoft-365/compliance/records-management" rel="noopener"><g transform="translate(368,-800)"><rect x="0" y="1040" width="96" height="80" rx="8" ry="8" class="g"/><text x="19.99" y="1075.8" class="h">Records <tspan x="5.21" dy="1.2em" class="i">Management</tspan></text></g></a><a target="_blank" aria-label="Advanced Audit" href="https://docs.microsoft.com/microsoft-365/compliance/advanced-audit" rel="noopener"><g transform="translate(144,-992)"><rect x="0" y="1040" width="96" height="80" rx="8" ry="8" class="g"/><text x="14.55" y="1075.8" class="h">Advanced <tspan x="30.12" dy="1.2em" class="i">Audit</tspan></text></g></a><a target="_blank" aria-label="Double Key Encryption" href="https://docs.microsoft.com/microsoft-365/compliance/double-key-encryption" rel="noopener"><g transform="translate(144,-896)"><rect x="0" y="1040" width="96" height="80" rx="8" ry="8" class="g"/><text x="9.49" y="1075.8" class="h">Double Key <tspan x="11.44" dy="1.2em" class="i">Encryption</tspan></text></g></a><a target="_blank" aria-label="Microsoft Defender for Office 365 Plan 2" href="https://docs.microsoft.com/office365/servicedescriptions/office-365-advanced-threat-protection-service-description#feature-availability-across-advanced-threat-protection-atp-plans" rel="noopener"><g transform="translate(480,-896)"><rect x="0" y="1040" width="96" height="80" rx="8" ry="8" class="g"/><text x="16.5" y="1059" class="h">Microsoft <tspan x="6.38" dy="1.2em" class="i">Defender for </tspan><tspan x="14.54" dy="1.2em" class="i">Office 365 </tspan><tspan x="27.38" dy="1.2em" class="i">Plan 2</tspan></text></g></a><a target="_blank" aria-label="Office 365 Enterprise" href="https://docs.microsoft.com/office365/enterprise/" rel="noopener"><g transform="translate(-1008,1040) rotate(-90)"><rect x="0" y="1056" width="688" height="64" rx="8" ry="8" class="l"/><text x="280.08" y="1094" class="f">Office 365 G3</text></g></a><a target="_blank" aria-label="Exchange Online" href="https://docs.microsoft.com/office365/servicedescriptions/exchange-online-service-description/exchange-online-service-description#feature-availability-across-exchange-online-standalone-plans" rel="noopener"><g transform="translate(592,-656)"><rect x="0" y="1040" width="96" height="80" rx="8" ry="8" class="m"/><text x="14.93" y="1067.4" class="h">Exchange <tspan x="26.22" dy="1.2em" class="i">Online </tspan><tspan x="27.38" dy="1.2em" class="i">Plan 2</tspan></text></g></a><a target="_blank" aria-label="SharePoint Online" href="https://docs.microsoft.com/sharepoint/introduction" rel="noopener"><g transform="translate(480,-560)"><rect x="0" y="1040" width="96" height="80" rx="8" ry="8" class="m"/><text x="11.05" y="1067.4" class="h">SharePoint <tspan x="26.22" dy="1.2em" class="i">Online </tspan><tspan x="27.38" dy="1.2em" class="i">Plan 2</tspan></text></g></a><a target="_blank" aria-label="OneDrive for Business" href="https://docs.microsoft.com/office365/servicedescriptions/onedrive-for-business-service-description" rel="noopener"><g transform="translate(256,-560)"><rect x="0" y="1040" width="96" height="80" rx="8" ry="8" class="m"/><text x="5.6" y="1067.4" class="h">OneDrive for <tspan x="16.88" dy="1.2em" class="i">Business </tspan><tspan x="27.38" dy="1.2em" class="i">Plan 2</tspan></text></g></a><a target="_blank" aria-label="Data Loss Prevention" href="https://docs.microsoft.com/office365/securitycompliance/data-loss-prevention-policies" rel="noopener"><g transform="translate(368,-656)"><rect x="0" y="1040" width="96" height="80" rx="8" ry="8" class="m"/><text x="14.55" y="1075.8" class="h">Data Loss <tspan x="11.82" dy="1.2em" class="i">Prevention</tspan></text></g></a><a target="_blank" aria-label="Retention Policy" href="https://docs.microsoft.com/office365/securitycompliance/retention-policies" rel="noopener"><g transform="translate(368,-560)"><rect x="0" y="1040" width="96" height="80" rx="8" ry="8" class="m"/><text x="15.72" y="1075.8" class="h">Retention <tspan x="27.38" dy="1.2em" class="i">Policy</tspan></text></g></a><a target="_blank" aria-label="Microsoft 365 Apps for Enterprise" href="https://www.microsoft.com/microsoft-365/business/microsoft-365-apps-for-enterprise-product" rel="noopener"><g transform="translate(144,-560)"><rect x="0" y="1040" width="96" height="80" rx="8" ry="8" class="m"/><text x="16.5" y="1067.4" class="h">Microsoft <tspan x="5.6" dy="1.2em" class="i">365 Apps for </tspan><tspan x="13.38" dy="1.2em" class="i">Enterprise</tspan></text></g></a><a target="_blank" aria-label="Bookings" href="https://docs.microsoft.com/microsoft-365/bookings/bookings-overview" rel="noopener"><g transform="translate(256,-656)"><rect x="0" y="1040" width="96" height="80" rx="8" ry="8" class="m"/><text x="16.11" y="1084.2" class="h">Bookings</text></g></a><a target="_blank" aria-label="eDiscovery" href="https://docs.microsoft.com/office365/securitycompliance/ediscovery-cases" rel="noopener"><g transform="translate(480,-656)"><rect x="0" y="1040" width="96" height="80" rx="8" ry="8" class="m"/><text x="10.64" y="1084.2" class="h">eDiscovery</text></g></a><a target="_blank" aria-label="InfoPath App" href="https://www.microsoft.com/download/details.aspx?id=48734" rel="noopener"><g transform="translate(704,-656)"><rect x="0" y="1040" width="96" height="80" rx="8" ry="8" class="m"/><text x="20" y="1075.8" class="h">InfoPath<tspan x="34.39" dy="1.2em" class="i">App</tspan></text></g></a><a target="_blank" aria-label="Audit Logging" href="https://docs.microsoft.com/office365/securitycompliance/search-the-audit-log-in-security-and-compliance" rel="noopener"><g transform="translate(144,-656)"><rect x="0" y="1040" width="96" height="80" rx="8" ry="8" class="m"/><text x="30.12" y="1075.8" class="h">Audit <tspan x="20.4" dy="1.2em" class="i">Logging</tspan></text></g></a><a target="_blank" aria-label="Yammer" href="https://products.office.com/yammer/yammer-overview" rel="noopener"><g transform="translate(480,-160)"><rect x="0" y="1040" width="96" height="80" rx="8" ry="8" class="n"/><text x="20.37" y="1067.4" class="h">Yammer <tspan x="13.38" dy="1.2em" class="i">Enterprise </tspan><tspan x="7.57" dy="1.292em" class="k">(GCC option)</tspan></text></g></a><a target="_blank" aria-label="Exchange Online Protection" href="https://www.microsoft.com/microsoft-365/exchange/exchange-email-security-spam-protection" rel="noopener"><g transform="translate(480,-448)"><rect x="0" y="1040" width="96" height="80" rx="8" ry="8" class="n"/><text x="14.93" y="1067.4" class="h">Exchange <tspan x="26.22" dy="1.2em" class="i">Online </tspan><tspan x="13.39" dy="1.2em" class="i">Protection</tspan></text></g></a><a target="_blank" aria-label="Kaizala Pro" href="https://products.office.com/en/business/microsoft-kaizala" rel="noopener"><g transform="translate(704,-448)"><rect x="0" y="1040" width="96" height="80" rx="8" ry="8" class="n"/><text x="10.26" y="1075.8" class="h">Kaizala Pro<tspan x="21.28" dy="1.292em" class="k">(retiring)</tspan></text></g></a><a target="_blank" aria-label="Microsoft Teams" href="https://products.office.com/microsoft-teams/" rel="noopener"><g transform="translate(480,-352)"><rect x="0" y="1040" width="96" height="80" rx="8" ry="8" class="n"/><text x="16.5" y="1075.8" class="h">Microsoft <tspan x="25.82" dy="1.2em" class="i">Teams</tspan></text></g></a><a target="_blank" aria-label="Exchange Online" href="https://docs.microsoft.com/office365/servicedescriptions/exchange-online-service-description/exchange-online-service-description#feature-availability-across-exchange-online-standalone-plans" rel="noopener"><g transform="translate(368,-448)"><rect x="0" y="1040" width="96" height="80" rx="8" ry="8" class="n"/><text x="14.93" y="1067.4" class="h">Exchange <tspan x="26.22" dy="1.2em" class="i">Online</tspan><tspan x="27.38" dy="1.2em" class="i">Plan 1</tspan></text></g></a><a target="_blank" aria-label="SharePoint Online" href="https://docs.microsoft.com/sharepoint/introduction" rel="noopener"><g transform="translate(816,-256)"><rect x="0" y="1040" width="96" height="80" rx="8" ry="8" class="n"/><text x="11.05" y="1067.4" class="h">SharePoint <tspan x="26.22" dy="1.2em" class="i">Online</tspan><tspan x="27.38" dy="1.2em" class="i">Plan 1</tspan></text></g></a><a target="_blank" aria-label="OneDrive for Business" href="https://docs.microsoft.com/office365/servicedescriptions/onedrive-for-business-service-description" rel="noopener"><g transform="translate(256,-256)"><rect x="0" y="1040" width="96" height="80" rx="8" ry="8" class="n"/><text x="5.6" y="1067.4" class="h">OneDrive for <tspan x="16.88" dy="1.2em" class="i">Business </tspan><tspan x="27.38" dy="1.2em" class="i">Plan 1</tspan></text></g></a><a target="_blank" aria-label="Office 365 Enterprise" href="https://docs.microsoft.com/office365/enterprise/" rel="noopener"><g transform="translate(128,-96)"><rect x="0" y="1072" width="800" height="48" rx="8" ry="8" class="o"/><text x="336.08" y="1102" class="f">Office 365 G1</text></g></a><a target="_blank" aria-label="Stream" href="https://docs.microsoft.com/stream/" rel="noopener"><g transform="translate(256,-160)"><rect x="0" y="1040" width="96" height="80" rx="8" ry="8" class="n"/><text x="12.99" y="1075.8" class="h">Stream for <tspan x="14.54" dy="1.2em" class="i">Office 365</tspan></text></g></a><a target="_blank" aria-label="Power Apps" href="https://powerapps.microsoft.com/" rel="noopener"><g transform="translate(480,-256)"><rect x="0" y="1040" width="96" height="80" rx="8" ry="8" class="n"/><text x="7.55" y="1067.4" class="h">Power Apps<tspan x="38.67" dy="1.2em" class="i">for</tspan><tspan x="14.54" dy="1.2em" class="i">Office 365</tspan></text></g></a><a target="_blank" aria-label="Microsoft Forms" href="https://support.office.com/forms" rel="noopener"><g transform="translate(256,-352)"><rect x="0" y="1040" width="96" height="80" rx="8" ry="8" class="n"/><text x="16.5" y="1075.8" class="h">Microsoft <tspan x="26.61" dy="1.2em" class="i">Forms</tspan></text></g></a><a target="_blank" aria-label="Planner" href="https://products.office.com/business/task-management-software" rel="noopener"><g transform="translate(368,-256)"><rect x="0" y="1040" width="96" height="80" rx="8" ry="8" class="n"/><text x="22.32" y="1084.2" class="h">Planner</text></g></a><a target="_blank" aria-label="Delve" href="https://support.microsoft.com/office/1315665a-c6af-4409-a28d-49f8916878ca" rel="noopener"><g transform="translate(256,-448)"><rect x="0" y="1040" width="96" height="80" rx="8" ry="8" class="n"/><text x="29.32" y="1084.2" class="h">Delve</text></g></a><a target="_blank" aria-label="MyAnalytics" href="https://products.office.com/business/myanalytics-personal-analytics" rel="noopener"><g transform="translate(592,-448)"><rect x="0" y="1040" width="96" height="80" rx="8" ry="8" class="n"/><text x="11.05" y="1075.8" class="h">Insights by <tspan x="7.15" dy="1.2em" class="i">MyAnalytics</tspan></text></g></a><a target="_blank" aria-label="Power Automate" href="https://powerautomate.microsoft.com/" rel="noopener"><g transform="translate(592,-256)"><rect x="0" y="1040" width="96" height="80" rx="8" ry="8" class="n"/><text x="26.99" y="1067.4" class="h">Power <tspan x="4.45" dy="1.2em" class="i">Automate for</tspan><tspan x="14.54" dy="1.2em" class="i">Office 365</tspan></text></g></a><a target="_blank" aria-label="Skype for Business Online" href="https://docs.microsoft.com/office365/servicedescriptions/skype-for-business-online-service-description/skype-for-business-online-service-description" rel="noopener"><g transform="translate(144,-160)"><rect x="0" y="1040" width="96" height="80" rx="8" ry="8" class="n"/><text x="16.1" y="1059" class="h">Skype for <tspan x="16.88" dy="1.2em" class="i">Business </tspan><tspan x="27.38" dy="1.2em" class="i">Plan 2</tspan><tspan x="21.28" dy="1.292em" class="k">(retiring)</tspan></text></g></a><a target="_blank" aria-label="Alert Policies" href="https://docs.microsoft.com/microsoft-365/compliance/alert-policies" rel="noopener"><g transform="translate(144,-448)"><rect x="0" y="1040" width="96" height="80" rx="8" ry="8" class="n"/><text x="32.05" y="1075.8" class="h">Alert <tspan x="21.54" dy="1.2em" class="i">Policies</tspan></text></g></a><a target="_blank" aria-label="Live Events" href="https://docs.microsoft.com/stream/live-event-m365" rel="noopener"><g transform="translate(816,-448)"><rect x="0" y="1040" width="96" height="80" rx="8" ry="8" class="n"/><text x="9.09" y="1084.2" class="h">Live Events</text></g></a><a target="_blank" aria-label="Microsoft Dataverse for Teams" href="https://docs.microsoft.com/powerapps/teams/overview-data-platform" rel="noopener"><g transform="translate(144,-352)"><rect x="0" y="1040" width="96" height="80" rx="8" ry="8" class="n"/><text x="16.5" y="1067.4" class="h">Microsoft <tspan x="14.53" dy="1.2em" class="i">Dataverse </tspan><tspan x="14.55" dy="1.2em" class="i">for Teams</tspan></text></g></a><a target="_blank" aria-label="Microsoft Lists" href="https://www.microsoft.com/microsoft-365/microsoft-lists" rel="noopener"><g transform="translate(368,-352)"><rect x="0" y="1040" width="96" height="80" rx="8" ry="8" class="n"/><text x="16.5" y="1075.8" class="h">Microsoft <tspan x="31.66" dy="1.2em" class="i">Lists</tspan></text></g></a><a target="_blank" aria-label="Microsoft Whiteboard" href="https://support.microsoft.com/office/d236aef8-fcdf-4b5e-b5d7-7f157461e920" rel="noopener"><g transform="translate(704,-352)"><rect x="0" y="1040" width="96" height="80" rx="8" ry="8" class="p"/><text x="16.5" y="1075.8" class="h">Microsoft <tspan x="9.5" dy="1.2em" class="i">Whiteboard</tspan></text></g></a><a target="_blank" aria-label="Microsoft To-Do" href="https://www.microsoft.com/microsoft-365/microsoft-to-do-list-app" rel="noopener"><g transform="translate(592,-352)"><rect x="0" y="1040" width="96" height="80" rx="8" ry="8" class="n"/><text x="16.5" y="1075.8" class="h">Microsoft <tspan x="27.79" dy="1.2em" class="i">To</tspan>-Do</text></g></a><a target="_blank" aria-label="Office Mobile" href="https://products.office.com/mobile/office" rel="noopener"><g transform="translate(144,-256)"><rect x="0" y="1040" width="96" height="80" rx="8" ry="8" class="n"/><text x="28.16" y="1075.8" class="h">Office<tspan x="6.39" dy="1.2em" class="i">Mobile Apps</tspan></text></g></a><a target="_blank" aria-label="Office Online" href="https://docs.microsoft.com/office365/servicedescriptions/office-online-service-description/office-online-service-description" rel="noopener"><g transform="translate(816,-352)"><rect x="0" y="1040" width="96" height="80" rx="8" ry="8" class="n"/><text x="28.16" y="1075.8" class="h">Office<tspan x="9.5" dy="1.2em" class="i">for the Web</tspan></text></g></a><a target="_blank" aria-label="Power Virtual Agents for Teams" href="https://docs.microsoft.com/power-virtual-agents/teams/fundamentals-what-is-power-virtual-agents-teams" rel="noopener"><g transform="translate(704,-256)"><rect x="0" y="1040" width="96" height="80" rx="8" ry="8" class="n"/><text x="6.46" y="1068.3" class="j">Power Virtual <tspan x="15.5" dy="1.2em" class="i">Agents for </tspan><tspan x="27.4" dy="1.2em" class="i">Teams</tspan></text></g></a><a target="_blank" aria-label="Rules-Based Classification for Office 365" href="https://docs.microsoft.com/microsoft-365/compliance/apply-sensitivity-label-automatically" rel="noopener"><g transform="translate(480,-800)"><rect x="0" y="1040" width="96" height="80" rx="8" ry="8" class="g"/><text x="8.63" y="1068.3" class="j">Rules-Based <tspan x="5.74" dy="1.2em" class="i">Classification</tspan><tspan x="12.6" dy="1.2em" class="i">(Office 365)</tspan></text></g></a><a target="_blank" aria-label="Information Protection for Microsoft 365" href="https://docs.microsoft.com/microsoft-365/compliance/sensitivity-labels" rel="noopener"><g transform="translate(816,-656)"><rect x="0" y="1040" width="96" height="80" rx="8" ry="8" class="m"/><text x="9.5" y="1067.4" class="h">Information <tspan x="13.39" dy="1.2em" class="i">Protection</tspan><tspan x="12.6" dy="1.292em" class="k">(Office 365)</tspan></text></g></a><g transform="translate(16,-1072)"><rect x="0" y="1088" width="960" height="32" rx="8" ry="8" class="q"/><text x="18.17" y="1108.2" class="r">United States Government</text></g><a target="_blank" aria-label="Office 365 Government Service Description" href="https://docs.microsoft.com/office365/servicedescriptions/office-365-platform-service-description/office-365-us-government/office-365-us-government" rel="noopener"><g transform="translate(16,-16)"><rect x="0" y="1088" width="1024" height="32" rx="8" ry="8" class="q"/><text x="103.15" y="1108.2" class="s">Not all features are available in GCC, GCC High, and DoD services. Refer to the service description for specific differences.</text></g></a><a target="_blank" aria-label="Sway" href="https://support.office.com/sway" rel="noopener"><g transform="translate(368,-160)"><rect x="0" y="1040" width="96" height="80" rx="8" ry="8" class="p"/><text x="30.1" y="1084.2" class="h">Sway</text></g></a><g transform="translate(704,-800)"><rect x="0" y="1040" width="208" height="80" rx="8" ry="8" class="q"/><text x="24.01" y="1094.4" class="t">DRAFT</text></g><g transform="translate(592,-160)"><rect x="0" y="1040" width="320" height="80" rx="8" ry="8" class="q"/><text x="80.01" y="1094.4" class="t">DRAFT</text></g><g transform="translate(592,-560)"><rect x="0" y="1040" width="320" height="80" rx="8" ry="8" class="q"/><text x="80.01" y="1094.4" class="u">DRAFT</text></g><g transform="translate(-992,320) rotate(-90)"><rect x="0" y="1024" width="256" height="96" rx="8" ry="8" class="q"/><text x="48.01" y="1086.4" class="u">DRAFT</text></g></g></svg>