<svg xmlns="http://www.w3.org/2000/svg" width="1056" height="1088" viewBox="0 0 1056 1088" class="a"><style>
.b {fill:#a5a5a5;fill-opacity:0.2;stroke:#d04a00;stroke-linecap:round;stroke-linejoin:round;stroke-width:2.25}
.c {fill:#a5a5a5;fill-opacity:0.2;stroke:#e82200;stroke-dasharray:15.75,11.25;stroke-linecap:round;stroke-linejoin:round;stroke-width:2.25}
.d {fill:#a5a5a5;fill-opacity:0.2;stroke:#c42500;stroke-dasharray:2.25,4.5;stroke-linecap:round;stroke-linejoin:round;stroke-width:2.25}
.e {fill:#d04a00;stroke:#d04a00;stroke-linecap:round;stroke-linejoin:round;stroke-width:2.25}
.f {fill:#ffffff;font-family:Arial;font-size:1.66667em;font-weight:bold}
.g {fill:#e82200;stroke:#e82200;stroke-linecap:round;stroke-linejoin:round;stroke-width:2.25}
.h {fill:#c42500;stroke:#c42500;stroke-linecap:round;stroke-linejoin:round;stroke-width:2.25}
.i {fill:#d04a00;stroke:none;stroke-linecap:round;stroke-linejoin:round;stroke-width:1}
.j {fill:#ffffff;font-family:Arial;font-size:1.16666em;font-weight:bold}
.k {font-size:1em}
.l {fill:#ffffff;font-family:Arial;font-size:1.08334em;font-weight:bold}
.m {font-size:0.928588em}
.n {fill:#c42500;stroke:none;stroke-linecap:round;stroke-linejoin:round;stroke-width:1}
.o {font-size:0.857157em}
.p {fill:#e82200;stroke:none;stroke-linecap:round;stroke-linejoin:round;stroke-width:1}
.q {fill:none;stroke:none;stroke-linecap:round;stroke-linejoin:round;stroke-width:1}
.r {fill:#000000;font-family:Arial;font-size:1.16666em;font-weight:bold}
.a {fill:none;fill-rule:evenodd;font-size:12px;overflow:visible;stroke-linecap:square;stroke-miterlimit:3}
</style><g><g transform="translate(16,-16)"><rect x="0" y="32" width="1024" height="1056" rx="8" ry="8" class="b"/></g><g transform="translate(48,-48)"><rect x="0" y="400" width="896" height="688" rx="8" ry="8" class="c"/></g><g transform="translate(128,-64)"><rect x="0" y="640" width="800" height="448" rx="8" ry="8" class="d"/></g><a target="_blank" href="https://docs.microsoft.com/office365/enterprise/" rel="noopener"><g transform="translate(-48,1072) rotate(-90)"><rect x="0" y="1024" width="1056" height="64" rx="8" ry="8" class="e"/><text x="465.19" y="1062" class="f">Office 365 E5</text></g></a><a target="_blank" href="https://docs.microsoft.com/office365/enterprise/" rel="noopener"><g transform="translate(-976,1040) rotate(-90)"><rect x="0" y="1024" width="688" height="64" rx="8" ry="8" class="g"/><text x="281.19" y="1062" class="f">Office 365 E3</text></g></a><a target="_blank" href="https://docs.microsoft.com/office365/enterprise/" rel="noopener"><g transform="translate(128,-64)"><rect x="0" y="1040" width="800" height="48" rx="8" ry="8" class="h"/><text x="337.75" y="1070" class="f">Office 365 F3</text></g></a><a target="_blank" href="https://docs.microsoft.com/MicrosoftTeams/what-is-phone-system-in-office-365" rel="noopener"><g transform="translate(816,-864)"><rect x="0" y="1008" width="96" height="80" rx="8" ry="8" class="i"/><text x="26.61" y="1043.8" class="j">Phone <tspan x="23.1" dy="1.2em" class="k">System</tspan></text></g></a><a target="_blank" href="https://docs.microsoft.com/microsoftteams/audio-conferencing-in-office-365" rel="noopener"><g transform="translate(480,-960)"><rect x="0" y="1008" width="96" height="80" rx="8" ry="8" class="i"/><text x="29.59" y="1036.3" class="l">Audio <tspan x="6.11" dy="1.2em" class="k">Conferencing </tspan><tspan x="32.12" dy="1.2em" class="k">(Full)</tspan></text></g></a><a target="_blank" href="https://docs.microsoft.com/power-bi/service-get-started" rel="noopener"><g transform="translate(144,-768)"><rect x="0" y="1008" width="96" height="80" rx="8" ry="8" class="i"/><text x="4.43" y="1052.2" class="j">Power BI Pro</text></g></a><a target="_blank" href="https://support.office.com/article/36f9cdd1-e64c-421b-a7e4-4a54d16440a2" rel="noopener"><g transform="translate(816,-960)"><rect x="0" y="1008" width="96" height="80" rx="8" ry="8" class="i"/><text x="15.33" y="1043.8" class="j">Customer <tspan x="19.22" dy="1.2em" class="k">Lockbox</tspan></text></g></a><a target="_blank" href="https://support.office.com/article/f2cd475a-e592-46cf-80a3-1bfb0fa17697" rel="noopener"><g transform="translate(704,-960)"><rect x="0" y="1008" width="96" height="80" rx="8" ry="8" class="i"/><text x="15.33" y="1043.8" class="j">Customer <tspan x="35.16" dy="1.2em" class="k">Key</tspan></text></g></a><a target="_blank" href="https://docs.microsoft.com/microsoft-365/compliance/manage-legal-investigations" rel="noopener"><g transform="translate(256,-960)"><rect x="0" y="1008" width="96" height="80" rx="8" ry="8" class="i"/><text x="14.55" y="1043.8" class="j">Advanced <tspan x="10.64" dy="1.2em" class="k">eDiscovery</tspan></text></g></a><a target="_blank" href="https://docs.microsoft.com/microsoft-365/compliance/privileged-access-management-solution-overview" rel="noopener"><g transform="translate(256,-768)"><rect x="0" y="1008" width="96" height="80" rx="8" ry="8" class="i"/><text x="14.54" y="1035.4" class="j">Privileged <tspan x="23.48" dy="1.2em" class="k">Access </tspan><tspan x="5.21" dy="1.2em" class="k">Management</tspan></text></g></a><a target="_blank" href="https://docs.microsoft.com/office365/securitycompliance/data-loss-prevention-policies#policy-evaluation-in-microsoft-teams" rel="noopener"><g transform="translate(592,-768)"><rect x="0" y="1008" width="96" height="80" rx="8" ry="8" class="i"/><text x="25.82" y="1035.4" class="j">Teams<tspan x="14.55" dy="1.2em" class="k">Data Loss </tspan><tspan x="11.82" dy="1.2em" class="k">Prevention</tspan></text></g></a><a target="_blank" href="https://docs.microsoft.com/microsoft-365/compliance/ome-advanced-message-encryption" rel="noopener"><g transform="translate(368,-960)"><rect x="0" y="1008" width="96" height="80" rx="8" ry="8" class="i"/><text x="14.55" y="1035.4" class="j">Advanced <tspan x="18.43" dy="1.2em" class="k">Message </tspan><tspan x="11.44" dy="1.2em" class="k">Encryption</tspan></text></g></a><a target="_blank" href="https://docs.microsoft.com/microsoft-365/compliance/information-barriers" rel="noopener"><g transform="translate(256,-864)"><rect x="0" y="1008" width="96" height="80" rx="8" ry="8" class="i"/><text x="9.5" y="1043.8" class="j">Information <tspan x="21.15" dy="1.2em" class="k">Barriers</tspan></text></g></a><a target="_blank" href="https://docs.microsoft.com/office365/servicedescriptions/mya-service-description" rel="noopener"><g transform="translate(592,-864)"><rect x="0" y="1008" width="96" height="80" rx="8" ry="8" class="i"/><text x="7.15" y="1043.8" class="j">MyAnalytics <tspan x="32.12" dy="1.292em" class="m">(Full)</tspan></text></g></a><a target="_blank" href="https://docs.microsoft.com/microsoft-365/compliance/communication-compliance" rel="noopener"><g transform="translate(592,-960)"><rect x="0" y="1008" width="96" height="80" rx="8" ry="8" class="i"/><text x="26.22" y="1043.8" class="j">Comm <tspan x="8.32" dy="1.2em" class="k">Compliance</tspan></text></g></a><a target="_blank" href="https://docs.microsoft.com/cloud-app-security/editions-cloud-app-security-o365" rel="noopener"><g transform="translate(704,-864)"><rect x="0" y="1008" width="96" height="80" rx="8" ry="8" class="i"/><text x="14.54" y="1035.4" class="j">Office 365 <tspan x="12.62" dy="1.2em" class="k">Cloud App </tspan><tspan x="20.38" dy="1.2em" class="k">Security</tspan></text></g></a><a target="_blank" href="https://docs.microsoft.com/microsoft-365/compliance/manage-information-governance" rel="noopener"><g transform="translate(368,-864)"><rect x="0" y="1008" width="96" height="80" rx="8" ry="8" class="i"/><text x="9.5" y="1043.8" class="j">Information <tspan x="7.54" dy="1.2em" class="k">Governance</tspan></text></g></a><a target="_blank" href="https://docs.microsoft.com/microsoft-365/compliance/records-management" rel="noopener"><g transform="translate(368,-768)"><rect x="0" y="1008" width="96" height="80" rx="8" ry="8" class="i"/><text x="19.99" y="1043.8" class="j">Records <tspan x="5.21" dy="1.2em" class="k">Management</tspan></text></g></a><a target="_blank" href="https://docs.microsoft.com/microsoft-365/compliance/advanced-audit" rel="noopener"><g transform="translate(144,-960)"><rect x="0" y="1008" width="96" height="80" rx="8" ry="8" class="i"/><text x="14.55" y="1043.8" class="j">Advanced <tspan x="30.12" dy="1.2em" class="k">Audit</tspan></text></g></a><a target="_blank" href="https://docs.microsoft.com/microsoft-365/compliance/double-key-encryption" rel="noopener"><g transform="translate(144,-864)"><rect x="0" y="1008" width="96" height="80" rx="8" ry="8" class="i"/><text x="9.49" y="1043.8" class="j">Double Key <tspan x="11.44" dy="1.2em" class="k">Encryption</tspan></text></g></a><a target="_blank" href="https://docs.microsoft.com/office365/servicedescriptions/office-365-advanced-threat-protection-service-description#feature-availability-across-advanced-threat-protection-atp-plans" rel="noopener"><g transform="translate(480,-864)"><rect x="0" y="1008" width="96" height="80" rx="8" ry="8" class="i"/><text x="16.5" y="1027" class="j">Microsoft <tspan x="6.38" dy="1.2em" class="k">Defender for </tspan><tspan x="14.54" dy="1.2em" class="k">Office 365 </tspan><tspan x="27.38" dy="1.2em" class="k">Plan 2</tspan></text></g></a><a target="_blank" href="https://www.microsoft.com/microsoft-365/exchange/exchange-email-security-spam-protection" rel="noopener"><g transform="translate(144,-320)"><rect x="0" y="1008" width="96" height="80" rx="8" ry="8" class="n"/><text x="14.93" y="1035.4" class="j">Exchange <tspan x="26.22" dy="1.2em" class="k">Online </tspan><tspan x="13.39" dy="1.2em" class="k">Protection</tspan></text></g></a><a target="_blank" href="https://products.office.com/microsoft-teams/" rel="noopener"><g transform="translate(704,-320)"><rect x="0" y="1008" width="96" height="80" rx="8" ry="8" class="n"/><text x="16.5" y="1043.8" class="j">Microsoft <tspan x="25.82" dy="1.2em" class="k">Teams</tspan></text></g></a><a target="_blank" href="https://docs.microsoft.com/office365/servicedescriptions/exchange-online-service-description/exchange-online-service-description#feature-availability-across-exchange-online-standalone-plans" rel="noopener"><g transform="translate(816,-416)"><rect x="0" y="1008" width="96" height="80" rx="8" ry="8" class="n"/><text x="14.93" y="1035.4" class="j">Exchange <tspan x="5.21" dy="1.2em" class="k">Online Kiosk</tspan><tspan x="28.5" dy="1.292em" class="m">(2 GB)</tspan></text></g></a><a target="_blank" href="https://docs.microsoft.com/office365/servicedescriptions/onedrive-for-business-service-description" rel="noopener"><g transform="translate(480,-224)"><rect x="0" y="1008" width="96" height="80" rx="8" ry="8" class="n"/><text x="5.6" y="1035.4" class="j">OneDrive for <tspan x="16.88" dy="1.2em" class="k">Business </tspan><tspan x="28.5" dy="1.292em" class="m">(2 GB)</tspan></text></g></a><a target="_blank" href="https://powerautomate.microsoft.com/" rel="noopener"><g transform="translate(816,-224)"><rect x="0" y="1008" width="96" height="80" rx="8" ry="8" class="n"/><text x="26.99" y="1035.4" class="j">Power <tspan x="15.72" dy="1.2em" class="k">Automate </tspan><tspan x="4.65" dy="1.4em" class="o">(2000 step/day)</tspan></text></g></a><a target="_blank" href="https://products.office.com/en/business/microsoft-kaizala" rel="noopener"><g transform="translate(256,-320)"><rect x="0" y="1008" width="96" height="80" rx="8" ry="8" class="n"/><text x="10.26" y="1043.8" class="j">Kaizala Pro<tspan x="21.28" dy="1.292em" class="m">(retiring)</tspan></text></g></a><a target="_blank" href="https://powerapps.microsoft.com/" rel="noopener"><g transform="translate(704,-224)"><rect x="0" y="1008" width="96" height="80" rx="8" ry="8" class="n"/><text x="7.55" y="1035.4" class="j">Power Apps<tspan x="38.67" dy="1.2em" class="k">for</tspan><tspan x="14.54" dy="1.2em" class="k">Office 365</tspan></text></g></a><a target="_blank" href="https://support.office.com/forms" rel="noopener"><g transform="translate(480,-320)"><rect x="0" y="1008" width="96" height="80" rx="8" ry="8" class="n"/><text x="16.5" y="1043.8" class="j">Microsoft <tspan x="26.61" dy="1.2em" class="k">Forms</tspan></text></g></a><a target="_blank" href="https://products.office.com/yammer/yammer-overview" rel="noopener"><g transform="translate(704,-128)"><rect x="0" y="1008" width="96" height="80" rx="8" ry="8" class="n"/><text x="20.37" y="1043.8" class="j">Yammer <tspan x="13.38" dy="1.2em" class="k">Enterprise</tspan></text></g></a><a target="_blank" href="https://docs.microsoft.com/sharepoint/introduction" rel="noopener"><g transform="translate(368,-128)"><rect x="0" y="1008" width="96" height="80" rx="8" ry="8" class="n"/><text x="11.05" y="1043.8" class="j">SharePoint <tspan x="5.21" dy="1.2em" class="k">Online Kiosk</tspan></text></g></a><a target="_blank" href="https://docs.microsoft.com/stream/" rel="noopener"><g transform="translate(480,-128)"><rect x="0" y="1008" width="96" height="80" rx="8" ry="8" class="n"/><text x="24.27" y="1043.8" class="j">Stream <tspan x="14.06" dy="1.292em" class="m">(Consume)</tspan></text></g></a><a target="_blank" href="https://products.office.com/business/task-management-software" rel="noopener"><g transform="translate(592,-224)"><rect x="0" y="1008" width="96" height="80" rx="8" ry="8" class="n"/><text x="22.32" y="1052.2" class="j">Planner</text></g></a><a target="_blank" href="https://support.office.com/sway" rel="noopener"><g transform="translate(592,-128)"><rect x="0" y="1008" width="96" height="80" rx="8" ry="8" class="n"/><text x="30.1" y="1052.2" class="j">Sway</text></g></a><a target="_blank" href="https://docs.microsoft.com/powerapps/teams/overview-data-platform" rel="noopener"><g transform="translate(368,-320)"><rect x="0" y="1008" width="96" height="80" rx="8" ry="8" class="n"/><text x="16.5" y="1035.4" class="j">Microsoft <tspan x="14.53" dy="1.2em" class="k">Dataverse </tspan><tspan x="14.55" dy="1.2em" class="k">for Teams</tspan></text></g></a><a target="_blank" href="https://www.microsoft.com/microsoft-365/business/microsoft-365-apps-for-enterprise-product" rel="noopener"><g transform="translate(256,-528)"><rect x="0" y="1008" width="96" height="80" rx="8" ry="8" class="p"/><text x="16.5" y="1035.4" class="j">Microsoft <tspan x="5.6" dy="1.2em" class="k">365 Apps for </tspan><tspan x="13.38" dy="1.2em" class="k">Enterprise</tspan></text></g></a><a target="_blank" href="https://docs.microsoft.com/microsoftteams/teams-live-events/what-are-teams-live-events" rel="noopener"><g transform="translate(144,-528)"><rect x="0" y="1008" width="96" height="80" rx="8" ry="8" class="p"/><text x="9.09" y="1043.8" class="j">Live Events <tspan x="9.49" dy="1.2em" class="k">&amp; Webinars</tspan></text></g></a><a target="_blank" href="https://products.office.com/business/myanalytics-personal-analytics" rel="noopener"><g transform="translate(816,-624)"><rect x="0" y="1008" width="96" height="80" rx="8" ry="8" class="p"/><text x="11.05" y="1043.8" class="j">Insights by <tspan x="7.15" dy="1.2em" class="k">MyAnalytics</tspan></text></g></a><a target="_blank" href="https://docs.microsoft.com/stream/" rel="noopener"><g transform="translate(816,-528)"><rect x="0" y="1008" width="96" height="80" rx="8" ry="8" class="p"/><text x="12.99" y="1043.8" class="j">Stream for <tspan x="14.54" dy="1.2em" class="k">Office 365</tspan></text></g></a><a target="_blank" href="https://docs.microsoft.com/sharepoint/introduction" rel="noopener"><g transform="translate(704,-528)"><rect x="0" y="1008" width="96" height="80" rx="8" ry="8" class="p"/><text x="11.05" y="1035.4" class="j">SharePoint <tspan x="26.22" dy="1.2em" class="k">Online </tspan><tspan x="27.38" dy="1.2em" class="k">Plan 2</tspan></text></g></a><a target="_blank" href="https://docs.microsoft.com/office365/servicedescriptions/onedrive-for-business-service-description" rel="noopener"><g transform="translate(368,-528)"><rect x="0" y="1008" width="96" height="80" rx="8" ry="8" class="p"/><text x="5.6" y="1035.4" class="j">OneDrive for <tspan x="16.88" dy="1.2em" class="k">Business </tspan><tspan x="27.38" dy="1.2em" class="k">Plan 2</tspan></text></g></a><a target="_blank" href="https://support.microsoft.com/office/1315665a-c6af-4409-a28d-49f8916878ca" rel="noopener"><g transform="translate(256,-624)"><rect x="0" y="1008" width="96" height="80" rx="8" ry="8" class="p"/><text x="29.32" y="1052.2" class="j">Delve</text></g></a><a target="_blank" href="https://powerautomate.microsoft.com/" rel="noopener"><g transform="translate(480,-528)"><rect x="0" y="1008" width="96" height="80" rx="8" ry="8" class="p"/><text x="26.99" y="1035.4" class="j">Power <tspan x="4.45" dy="1.2em" class="k">Automate for</tspan><tspan x="14.54" dy="1.2em" class="k">Office 365</tspan></text></g></a><a target="_blank" href="https://docs.microsoft.com/office365/securitycompliance/data-loss-prevention-policies" rel="noopener"><g transform="translate(144,-624)"><rect x="0" y="1008" width="96" height="80" rx="8" ry="8" class="p"/><text x="14.55" y="1043.8" class="j">Data Loss <tspan x="11.82" dy="1.2em" class="k">Prevention</tspan></text></g></a><a target="_blank" href="https://docs.microsoft.com/microsoft-365/compliance/retention" rel="noopener"><g transform="translate(592,-528)"><rect x="0" y="1008" width="96" height="80" rx="8" ry="8" class="p"/><text x="15.72" y="1035.4" class="j">Retention <tspan x="18.82" dy="1.2em" class="k">Labels &amp; </tspan><tspan x="21.54" dy="1.2em" class="k">Policies</tspan></text></g></a><a target="_blank" href="https://docs.microsoft.com/office365/securitycompliance/ediscovery-cases" rel="noopener"><g transform="translate(368,-624)"><rect x="0" y="1008" width="96" height="80" rx="8" ry="8" class="p"/><text x="10.64" y="1052.2" class="j">eDiscovery</text></g></a><a target="_blank" href="https://docs.microsoft.com/office365/servicedescriptions/exchange-online-service-description/exchange-online-service-description#feature-availability-across-exchange-online-standalone-plans" rel="noopener"><g transform="translate(480,-624)"><rect x="0" y="1008" width="96" height="80" rx="8" ry="8" class="p"/><text x="14.93" y="1035.4" class="j">Exchange <tspan x="26.22" dy="1.2em" class="k">Online </tspan><tspan x="27.38" dy="1.2em" class="k">Plan 2</tspan></text></g></a><a target="_blank" href="https://www.microsoft.com/microsoft-365/microsoft-lists" rel="noopener"><g transform="translate(592,-320)"><rect x="0" y="1008" width="96" height="80" rx="8" ry="8" class="n"/><text x="16.5" y="1043.8" class="j">Microsoft <tspan x="31.66" dy="1.2em" class="k">Lists</tspan></text></g></a><a target="_blank" href="https://docs.microsoft.com/microsoft-365/bookings/bookings-overview" rel="noopener"><g transform="translate(704,-416)"><rect x="0" y="1008" width="96" height="80" rx="8" ry="8" class="n"/><text x="16.11" y="1052.2" class="j">Bookings</text></g></a><a target="_blank" href="https://www.microsoft.com/download/details.aspx?id=48734" rel="noopener"><g transform="translate(592,-624)"><rect x="0" y="1008" width="96" height="80" rx="8" ry="8" class="p"/><text x="20" y="1043.8" class="j">InfoPath<tspan x="34.39" dy="1.2em" class="k">App</tspan></text></g></a><a target="_blank" href="https://support.microsoft.com/office/d236aef8-fcdf-4b5e-b5d7-7f157461e920" rel="noopener"><g transform="translate(144,-224)"><rect x="0" y="1008" width="96" height="80" rx="8" ry="8" class="n"/><text x="16.5" y="1043.8" class="j">Microsoft <tspan x="9.5" dy="1.2em" class="k">Whiteboard</tspan></text></g></a><a target="_blank" href="https://www.microsoft.com/microsoft-365/microsoft-to-do-list-app" rel="noopener"><g transform="translate(816,-320)"><rect x="0" y="1008" width="96" height="80" rx="8" ry="8" class="n"/><text x="16.5" y="1043.8" class="j">Microsoft <tspan x="27.79" dy="1.2em" class="k">To</tspan>-Do</text></g></a><a target="_blank" href="https://docs.microsoft.com/power-virtual-agents/teams/fundamentals-what-is-power-virtual-agents-teams" rel="noopener"><g transform="translate(144,-128)"><rect x="0" y="1008" width="96" height="80" rx="8" ry="8" class="n"/><text x="6.46" y="1036.3" class="l">Power Virtual <tspan x="15.5" dy="1.2em" class="k">Agents for </tspan><tspan x="27.4" dy="1.2em" class="k">Teams</tspan></text></g></a><a target="_blank" href="https://docs.microsoft.com/microsoft-365/compliance/apply-sensitivity-label-automatically" rel="noopener"><g transform="translate(480,-768)"><rect x="0" y="1008" width="96" height="80" rx="8" ry="8" class="i"/><text x="8.63" y="1036.3" class="l">Rules-Based <tspan x="5.74" dy="1.2em" class="k">Classification</tspan><tspan x="12.6" dy="1.2em" class="k">(Office 365)</tspan></text></g></a><g transform="translate(16,-1040)"><rect x="0" y="1056" width="960" height="32" rx="8" ry="8" class="q"/><text x="18.17" y="1076.2" class="r">Enterprise</text></g><a target="_blank" href="https://docs.microsoft.com/microsoft-365/admin/basic-mobility-security/capabilities" rel="noopener"><g transform="translate(592,-416)"><rect x="0" y="1008" width="96" height="80" rx="8" ry="8" class="n"/><text x="29.32" y="1035.4" class="j">Basic <tspan x="14.56" dy="1.2em" class="k">Mobility &amp; </tspan><tspan x="20.38" dy="1.2em" class="k">Security</tspan></text></g></a><a target="_blank" href="https://azure.microsoft.com/pricing/details/active-directory/" rel="noopener"><g transform="translate(480,-416)"><rect x="0" y="1008" width="96" height="80" rx="8" ry="8" class="n"/><text x="5.22" y="1043.8" class="j">Azure AD for <tspan x="14.54" dy="1.2em" class="k">Office 365</tspan></text></g></a><a target="_blank" href="https://products.office.com/mobile/office" rel="noopener"><g transform="translate(368,-220.346)"><rect x="0" y="1008" width="96" height="80" rx="8" ry="8" class="n"/><text x="28.16" y="1043.8" class="j">Office <tspan x="6.39" dy="1.2em" class="k">Mobile Apps</tspan></text></g></a><a target="_blank" href="https://docs.microsoft.com/office365/servicedescriptions/office-online-service-description/office-online-service-description" rel="noopener"><g transform="translate(256,-224)"><rect x="0" y="1008" width="96" height="80" rx="8" ry="8" class="n"/><text x="28.16" y="1035.4" class="j">Office<tspan x="9.5" dy="1.2em" class="k">for the Web</tspan><tspan x="12.61" dy="1.2em" class="k">(incl Visio)</tspan></text></g></a><a target="_blank" href="https://docs.microsoft.com/office365/securitycompliance/search-the-audit-log-in-security-and-compliance" rel="noopener"><g transform="translate(368,-416)"><rect x="0" y="1008" width="96" height="80" rx="8" ry="8" class="n"/><text x="30.12" y="1043.8" class="j">Audit <tspan x="20.4" dy="1.2em" class="k">Logging</tspan></text></g></a><a target="_blank" href="https://docs.microsoft.com/microsoft-365/compliance/alert-policies" rel="noopener"><g transform="translate(144,-416)"><rect x="0" y="1008" width="96" height="80" rx="8" ry="8" class="n"/><text x="32.05" y="1043.8" class="j">Alert <tspan x="21.54" dy="1.2em" class="k">Policies</tspan></text></g></a><a target="_blank" href="https://docs.microsoft.com/microsoft-365/compliance/create-apply-retention-labels" rel="noopener"><g transform="translate(256,-128)"><rect x="0" y="1008" width="96" height="80" rx="8" ry="8" class="n"/><text x="15.72" y="1043.8" class="j">Retention <tspan x="25.82" dy="1.2em" class="k">Labels</tspan></text></g></a><a target="_blank" href="https://docs.microsoft.com/microsoft-365/compliance/sensitivity-labels" rel="noopener"><g transform="translate(704,-624)"><rect x="0" y="1008" width="96" height="80" rx="8" ry="8" class="p"/><text x="9.5" y="1035.4" class="j">Information <tspan x="13.39" dy="1.2em" class="k">Protection</tspan><tspan x="19.21" dy="1.2em" class="k">for M365</tspan></text></g></a><a target="_blank" href="https://docs.microsoft.com/microsoftteams/audio-conferencing-in-office-365" rel="noopener"><g transform="translate(256,-416)"><rect x="0" y="1008" width="96" height="80" rx="8" ry="8" class="n"/><text x="28.17" y="1036.6" class="j">Audio <tspan x="6.11" dy="1.223em" class="m">Conferencing </tspan><tspan x="7.91" dy="1.2em" class="m">(Dial In Only)</tspan></text></g></a></g></svg>