<svg xmlns="http://www.w3.org/2000/svg" width="480" height="656" viewBox="0 0 480 656" class="a"><style>
.b {fill:#a5a5a5;fill-opacity:0.2;stroke:#008800;stroke-linecap:round;stroke-linejoin:round;stroke-width:2.25}
.c {fill:#008800;stroke:#008800;stroke-linecap:round;stroke-linejoin:round;stroke-width:2.25}
.d {fill:#ffffff;font-family:Arial;font-size:1.66667em;font-weight:bold}
.e {fill:#008800;stroke:none;stroke-linecap:round;stroke-linejoin:round;stroke-width:2}
.f {fill:#ffffff;font-family:Arial;font-size:1.16666em;font-weight:bold}
.g {font-size:1em}
.h {fill:#ffffff;font-family:Arial;font-size:1.00001em;font-weight:bold}
.a {fill:none;fill-rule:evenodd;font-size:12px;overflow:visible;stroke-linecap:square;stroke-miterlimit:3}
</style><g><g transform="translate(16,-16)"><rect x="0" y="32" width="448" height="624" rx="8" ry="8" class="b"/></g><a target="_blank" href="https://www.microsoft.com/windowsforbusiness" rel="noopener"><g transform="translate(-192,640) rotate(-90)"><rect x="0" y="592" width="624" height="64" rx="8" ry="8" class="c"/><text x="248.67" y="630" class="d">Windows Pro</text></g></a><a target="_blank" href="https://support.microsoft.com/help/17209/windows-10-use-touch-with-windows" rel="noopener"><g transform="translate(160,-240)"><rect x="0" y="576" width="96" height="80" rx="8" ry="8" class="e"/><text x="10.65" y="603.4" class="f">Voice, Pen, <tspan x="11.06" dy="1.2em" class="g">Touch, Ink, </tspan><tspan x="7.16" dy="1.2em" class="g">and Gesture</tspan></text></g></a><a target="_blank" href="https://docs.microsoft.com/windows/client-management/mdm/" rel="noopener"><g transform="translate(48,-336)"><rect x="0" y="576" width="96" height="80" rx="8" ry="8" class="e"/><text x="11.82" y="611.8" class="f">Manage by <tspan x="31.28" dy="1.2em" class="g">MDM</tspan></text></g></a><a target="_blank" href="https://docs.microsoft.com/microsoft-store/microsoft-store-for-business-overview" rel="noopener"><g transform="translate(272,-336)"><rect x="0" y="576" width="96" height="80" rx="8" ry="8" class="e"/><text x="16.5" y="603.4" class="f">Microsoft <tspan x="18.83" dy="1.2em" class="g">Store for </tspan><tspan x="16.88" dy="1.2em" class="g">Business</tspan></text></g></a><a target="_blank" href="https://docs.microsoft.com/windows-server/identity/ad-fs/operations/configure-device-based-conditional-access-on-premises" rel="noopener"><g transform="translate(48,-144)"><rect x="0" y="576" width="96" height="80" rx="8" ry="8" class="e"/><text x="17.28" y="603.4" class="f">Windows <tspan x="9.51" dy="1.2em" class="g">Conditional </tspan><tspan x="23.48" dy="1.2em" class="g">Access</tspan></text></g></a><a target="_blank" href="https://docs.microsoft.com/windows/security/information-protection/windows-information-protection/protect-enterprise-data-using-wip" rel="noopener"><g transform="translate(48,-48)"><rect x="0" y="576" width="96" height="80" rx="8" ry="8" class="e"/><text x="17.28" y="603.4" class="f">Windows <tspan x="9.5" dy="1.2em" class="g">Information </tspan><tspan x="13.39" dy="1.2em" class="g">Protection</tspan></text></g></a><a target="_blank" href="https://docs.microsoft.com/windows/deployment/update/waas-manage-updates-wufb" rel="noopener"><g transform="translate(160,-48)"><rect x="0" y="576" width="96" height="80" rx="8" ry="8" class="e"/><text x="17.28" y="603.4" class="f">Windows <tspan x="13" dy="1.2em" class="g">Update for </tspan><tspan x="16.88" dy="1.2em" class="g">Business</tspan></text></g></a><a target="_blank" href="https://docs.microsoft.com/windows/security/identity-protection/hello-for-business/hello-identity-verification" rel="noopener"><g transform="translate(272,-144)"><rect x="0" y="576" width="96" height="80" rx="8" ry="8" class="e"/><text x="17.28" y="603.4" class="f">Windows <tspan x="19.61" dy="1.2em" class="g">Hello for </tspan><tspan x="16.88" dy="1.2em" class="g">Business</tspan></text></g></a><a target="_blank" href="https://www.microsoft.com/edge/business" rel="noopener"><g transform="translate(272,-432)"><rect x="0" y="576" width="96" height="80" rx="8" ry="8" class="e"/><text x="19.61" y="611.8" class="f">Edge for <tspan x="16.88" dy="1.2em" class="g">Business</tspan></text></g></a><a target="_blank" href="https://support.microsoft.com/help/17214/windows-10-what-is" rel="noopener"><g transform="translate(160,-432)"><rect x="0" y="576" width="96" height="80" rx="8" ry="8" class="e"/><text x="21.55" y="620.2" class="f">Cortana</text></g></a><a target="_blank" href="https://docs.microsoft.com/windows/security/threat-protection/windows-defender-application-guard/wd-app-guard-overview" rel="noopener"><g transform="translate(160,-528)"><rect x="0" y="576" width="96" height="80" rx="8" ry="8" class="e"/><text x="9.89" y="611.8" class="f">Application <tspan x="27.39" dy="1.2em" class="g">Guard</tspan></text></g></a><a target="_blank" href="https://docs.microsoft.com/azure/active-directory/devices/concept-azure-ad-join" rel="noopener"><g transform="translate(272,-528)"><rect x="0" y="576" width="96" height="80" rx="8" ry="8" class="e"/><text x="16.5" y="603.4" class="f">Azure AD<tspan x="15.33" dy="1.2em" class="g">&amp; Domain </tspan><tspan x="33.61" dy="1.2em" class="g">Join</tspan></text></g></a><a target="_blank" href="https://www.microsoft.com/windows/comprehensive-security" rel="noopener"><g transform="translate(160,-336)"><rect x="0" y="576" width="96" height="80" rx="8" ry="8" class="e"/><text x="16.5" y="603.4" class="f">Microsoft <tspan x="17.66" dy="1.2em" class="g">Defender </tspan><tspan x="17.66" dy="1.2em" class="g">Antivirus</tspan></text></g></a><a target="_blank" href="https://docs.microsoft.com/windows/deployment/windows-autopilot/windows-autopilot" rel="noopener"><g transform="translate(272,-240)"><rect x="0" y="576" width="96" height="80" rx="8" ry="8" class="e"/><text x="17.28" y="611.8" class="f">Windows <tspan x="17.29" dy="1.2em" class="g">Autopilot</tspan></text></g></a><a target="_blank" href="https://docs.microsoft.com/windows/security/information-protection/bitlocker/bitlocker-overview" rel="noopener"><g transform="translate(48,-432)"><rect x="0" y="576" width="96" height="80" rx="8" ry="8" class="e"/><text x="8.71" y="603.4" class="f">BitLocker &amp; <tspan x="7.16" dy="1.2em" class="g">BitLocker to </tspan><tspan x="38.28" dy="1.2em" class="g">Go</tspan></text></g></a><a target="_blank" href="https://docs.microsoft.com/windows/security/threat-protection/windows-firewall/windows-firewall-with-advanced-security" rel="noopener"><g transform="translate(160,-144)"><rect x="0" y="576" width="96" height="80" rx="8" ry="8" class="e"/><text x="17.28" y="611.8" class="f">Windows <tspan x="21.93" dy="1.2em" class="g">Firewall</tspan></text></g></a><a target="_blank" href="https://docs.microsoft.com/windows/security/threat-protection/windows-defender-application-control/windows-defender-application-control" rel="noopener"><g transform="translate(48,-528)"><rect x="0" y="576" width="96" height="80" rx="8" ry="8" class="e"/><text x="9.89" y="611.8" class="f">Application <tspan x="23.12" dy="1.2em" class="g">Control</tspan></text></g></a><a target="_blank" href="https://go.microsoft.com/fwlink/?linkid=2085130" rel="noopener"><g transform="translate(48,-240)"><rect x="0" y="576" width="96" height="80" rx="8" ry="8" class="e"/><text x="29.99" y="598" class="h">Power <tspan x="20.33" dy="1.2em" class="g">Automate </tspan><tspan x="22" dy="1.2em" class="g">Attended </tspan><tspan x="5.66" dy="1.2em" class="g">Desktop Flows</tspan></text></g></a></g></svg>