<svg xmlns="http://www.w3.org/2000/svg" width="832px" height="1392px" viewBox="0 0 832 1392" class="a"><style>
.b {fill:#a5a5a5;fill-opacity:0.2;stroke:#004400;stroke-linecap:round;stroke-linejoin:round;stroke-width:2.25}
.c {fill:#a6a6a6;fill-opacity:0.2;stroke:#004400;stroke-dasharray:2.25,4.5;stroke-linecap:round;stroke-linejoin:round;stroke-width:2.25}
.d {fill:#a5a5a5;fill-opacity:0.2;stroke:#006600;stroke-dasharray:15.75,11.25;stroke-linecap:round;stroke-linejoin:round;stroke-width:2.25}
.e {fill:#a6a6a6;fill-opacity:0.2;stroke:#008800;stroke-dasharray:2.25,4.5;stroke-linecap:round;stroke-linejoin:round;stroke-width:2.25}
.f {fill:#006600;stroke:#006600;stroke-linecap:round;stroke-linejoin:round;stroke-width:2.25}
.g {fill:#ffffff;font-family:Arial;font-size:1.99999em;font-weight:bold}
.h {fill:#004400;stroke:#004400;stroke-linecap:round;stroke-linejoin:round;stroke-width:2.25}
.i {fill:#008800;stroke:#008800;stroke-linecap:round;stroke-linejoin:round;stroke-width:2.25}
.j {fill:none;stroke:none;stroke-linecap:round;stroke-linejoin:round;stroke-width:1}
.k {fill:#000000;font-family:Arial;font-size:1.16666em;font-weight:bold}
.l {fill:#008800;stroke:none;stroke-linecap:round;stroke-linejoin:round;stroke-width:2.5}
.m {fill:#ffffff;font-family:Arial;font-size:1.16666em;font-weight:bold}
.n {font-size:1em}
.o {fill:#006600;stroke:none;stroke-linecap:round;stroke-linejoin:round;stroke-width:2.5}
.p {fill:#ffffff;font-family:Arial;font-size:1.08334em;font-weight:bold}
.q {fill:#000000;font-family:Arial;font-size:1.66667em;font-weight:bold}
.r {fill:#004400;stroke:none;stroke-linecap:round;stroke-linejoin:round;stroke-width:2.5}
.a {fill:none;fill-rule:evenodd;font-size:12px;overflow:visible;stroke-linecap:square;stroke-miterlimit:3}
</style><g><g transform="translate(16,-16)"><rect x="0" y="32" width="800" height="1360" rx="8" ry="8" class="b"/></g><g transform="translate(112,-992)"><rect x="0" y="1040" width="608" height="352" rx="8" ry="8" class="c"/></g><g transform="translate(48,-48)"><rect x="0" y="480" width="672" height="912" rx="8" ry="8" class="d"/></g><g transform="translate(128,-64)"><rect x="0" y="928" width="576" height="464" rx="8" ry="8" class="e"/></g><a target="_blank" aria-label="Windows 10" href="https://www.microsoft.com/windowsforbusiness" rel="noopener"><g transform="translate(-1280,1344) rotate(-90)"><rect x="0" y="1328" width="912" height="64" rx="8" ry="8" class="f"/><text x="368.65" y="1367.2" class="g">Windows 10 E3</text></g></a><a target="_blank" aria-label="Windows 10" href="https://www.microsoft.com/windowsforbusiness" rel="noopener"><g transform="translate(-576,1376) rotate(-90)"><rect x="0" y="1328" width="1360" height="64" rx="8" ry="8" class="h"/><text x="592.65" y="1367.2" class="g">Windows 10 E5</text></g></a><a target="_blank" aria-label="Windows 10" href="https://www.microsoft.com/windowsforbusiness" rel="noopener"><g transform="translate(128,-64)"><rect x="0" y="1328" width="576" height="64" rx="8" ry="8" class="i"/><text x="195.32" y="1367.2" class="g">Windows 10 Pro</text></g></a><g transform="translate(16,-1344)"><rect x="0" y="1360" width="736" height="32" rx="8" ry="8" class="j"/><text x="18.17" y="1380.2" class="k">Volume Licensing</text></g><a target="_blank" aria-label="Use Touch with Windows 10" href="https://support.microsoft.com/help/17209/windows-10-use-touch-with-windows" rel="noopener"><g transform="translate(592,-336)"><rect x="0" y="1312" width="96" height="80" rx="8" ry="8" class="l"/><text x="10.65" y="1339.4" class="m">Voice, Pen, <tspan x="11.06" dy="1.2em" class="n">Touch, Ink, </tspan><tspan x="7.16" dy="1.2em" class="n">and Gesture</tspan></text></g></a><a target="_blank" aria-label="MDM" href="https://docs.microsoft.com/windows/client-management/mdm/" rel="noopener"><g transform="translate(256,-336)"><rect x="0" y="1312" width="96" height="80" rx="8" ry="8" class="l"/><text x="31.28" y="1356.2" class="m">MDM</text></g></a><a target="_blank" aria-label="Microsoft Store for Business" href="https://docs.microsoft.com/microsoft-store/microsoft-store-for-business-overview" rel="noopener"><g transform="translate(480,-336)"><rect x="0" y="1312" width="96" height="80" rx="8" ry="8" class="l"/><text x="16.5" y="1339.4" class="m">Microsoft <tspan x="18.83" dy="1.2em" class="n">Store for </tspan><tspan x="16.88" dy="1.2em" class="n">Business</tspan></text></g></a><a target="_blank" aria-label="On-Premises Conditional Access" href="https://docs.microsoft.com/windows-server/identity/ad-fs/operations/configure-device-based-conditional-access-on-premises" rel="noopener"><g transform="translate(256,-240)"><rect x="0" y="1312" width="96" height="80" rx="8" ry="8" class="l"/><text x="17.28" y="1339.4" class="m">Windows <tspan x="9.51" dy="1.2em" class="n">Conditional </tspan><tspan x="23.48" dy="1.2em" class="n">Access</tspan></text></g></a><a target="_blank" aria-label="Windows Information Protection" href="https://docs.microsoft.com/windows/security/information-protection/windows-information-protection/protect-enterprise-data-using-wip" rel="noopener"><g transform="translate(592,-240)"><rect x="0" y="1312" width="96" height="80" rx="8" ry="8" class="l"/><text x="17.28" y="1339.4" class="m">Windows <tspan x="9.5" dy="1.2em" class="n">Information </tspan><tspan x="13.39" dy="1.2em" class="n">Protection</tspan></text></g></a><a target="_blank" aria-label="Windows Update for Business" href="https://docs.microsoft.com/windows/deployment/update/waas-manage-updates-wufb" rel="noopener"><g transform="translate(144,-144)"><rect x="0" y="1312" width="96" height="80" rx="8" ry="8" class="l"/><text x="17.28" y="1339.4" class="m">Windows <tspan x="13" dy="1.2em" class="n">Update for </tspan><tspan x="16.88" dy="1.2em" class="n">Business</tspan></text></g></a><a target="_blank" aria-label="Windows Hello for Business" href="https://docs.microsoft.com/windows/security/identity-protection/hello-for-business/hello-identity-verification" rel="noopener"><g transform="translate(480,-240)"><rect x="0" y="1312" width="96" height="80" rx="8" ry="8" class="l"/><text x="17.28" y="1339.4" class="m">Windows <tspan x="19.61" dy="1.2em" class="n">Hello for </tspan><tspan x="16.88" dy="1.2em" class="n">Business</tspan></text></g></a><a target="_blank" aria-label="Edge for Business" href="https://www.microsoft.com/edge/business" rel="noopener"><g transform="translate(144,-336)"><rect x="0" y="1312" width="96" height="80" rx="8" ry="8" class="l"/><text x="19.61" y="1347.8" class="m">Edge for <tspan x="16.88" dy="1.2em" class="n">Business</tspan></text></g></a><a target="_blank" aria-label="Cortana" href="https://support.microsoft.com/help/17214/windows-10-what-is" rel="noopener"><g transform="translate(592,-432)"><rect x="0" y="1312" width="96" height="80" rx="8" ry="8" class="l"/><text x="21.55" y="1356.2" class="m">Cortana</text></g></a><a target="_blank" aria-label="Application Guard" href="https://docs.microsoft.com/windows/security/threat-protection/windows-defender-application-guard/wd-app-guard-overview" rel="noopener"><g transform="translate(256,-432)"><rect x="0" y="1312" width="96" height="80" rx="8" ry="8" class="l"/><text x="9.89" y="1347.8" class="m">Application <tspan x="27.39" dy="1.2em" class="n">Guard</tspan></text></g></a><a target="_blank" aria-label="Azure AD Join" href="https://docs.microsoft.com/azure/active-directory/devices/azuread-joined-devices-frx" rel="noopener"><g transform="translate(368,-432)"><rect x="0" y="1312" width="96" height="80" rx="8" ry="8" class="l"/><text x="16.5" y="1339.4" class="m">Azure AD<tspan x="15.33" dy="1.2em" class="n">&amp; Domain </tspan><tspan x="33.61" dy="1.2em" class="n">Join</tspan></text></g></a><a target="_blank" aria-label="Desktop Analytics" href="https://docs.microsoft.com/mem/configmgr/desktop-analytics/overview" rel="noopener"><g transform="translate(368,-752)"><rect x="0" y="1312" width="96" height="80" rx="8" ry="8" class="o"/><text x="20.38" y="1347.8" class="m">Desktop <tspan x="16.88" dy="1.2em" class="n">Analytics</tspan></text></g></a><a target="_blank" aria-label="Microsoft Defender Antivirus" href="https://www.microsoft.com/windows/comprehensive-security" rel="noopener"><g transform="translate(368,-336)"><rect x="0" y="1312" width="96" height="80" rx="8" ry="8" class="l"/><text x="16.5" y="1339.4" class="m">Microsoft <tspan x="17.66" dy="1.2em" class="n">Defender </tspan><tspan x="17.66" dy="1.2em" class="n">Antivirus</tspan></text></g></a><a target="_blank" aria-label="App-V" href="https://docs.microsoft.com/en-us/microsoft-desktop-optimization-pack/appv-v5/" rel="noopener"><g transform="translate(480,-848)"><rect x="0" y="1312" width="96" height="80" rx="8" ry="8" class="o"/><text x="27.39" y="1356.2" class="m">App-V</text></g></a><a target="_blank" aria-label="AppLocker" href="https://docs.microsoft.com/windows/security/threat-protection/windows-defender-application-control/applocker/applocker-overview" rel="noopener"><g transform="translate(256,-848)"><rect x="0" y="1312" width="96" height="80" rx="8" ry="8" class="o"/><text x="11.44" y="1356.2" class="m">AppLocker</text></g></a><a target="_blank" aria-label="Windows Virtual Desktop" href="https://www.microsoft.com/cloud-platform/desktop-virtualization" rel="noopener"><g transform="translate(480,-560)"><rect x="0" y="1312" width="96" height="80" rx="8" ry="8" class="o"/><text x="17.28" y="1339.4" class="m">Windows <tspan x="26.22" dy="1.2em" class="n">Virtual </tspan><tspan x="20.38" dy="1.2em" class="n">Desktop</tspan></text></g></a><a target="_blank" aria-label="DirectAccess" href="https://docs.microsoft.com/windows-server/remote/remote-access/directaccess/directaccess" rel="noopener"><g transform="translate(592,-752)"><rect x="0" y="1312" width="96" height="80" rx="8" ry="8" class="o"/><text x="6.81" y="1355.9" class="p">DirectAccess</text></g></a><a target="_blank" aria-label="Device Guard" href="https://docs.microsoft.com/windows/security/threat-protection/device-guard/introduction-to-device-guard-virtualization-based-security-and-windows-defender-application-control" rel="noopener"><g transform="translate(480,-752)"><rect x="0" y="1312" width="96" height="80" rx="8" ry="8" class="o"/><text x="25.43" y="1347.8" class="m">Device <tspan x="27.39" dy="1.2em" class="n">Guard</tspan></text></g></a><a target="_blank" aria-label="BranchCache" href="https://docs.microsoft.com/windows-server/networking/branchcache/branchcache" rel="noopener"><g transform="translate(144,-752)"><rect x="0" y="1312" width="96" height="80" rx="8" ry="8" class="o"/><text x="6.1" y="1355.9" class="p">BranchCache</text></g></a><a target="_blank" aria-label="Microsoft Desktop Optimization Pack" href="https://docs.microsoft.com/microsoft-desktop-optimization-pack/" rel="noopener"><g transform="translate(256,-656)"><rect x="0" y="1312" width="96" height="80" rx="8" ry="8" class="o"/><text x="27" y="1356.2" class="m">MDOP</text></g></a><a target="_blank" aria-label="Credential Guard" href="https://docs.microsoft.com/windows/security/identity-protection/credential-guard/credential-guard" rel="noopener"><g transform="translate(256,-752)"><rect x="0" y="1312" width="96" height="80" rx="8" ry="8" class="o"/><text x="13.77" y="1347.8" class="m">Credential <tspan x="27.39" dy="1.2em" class="n">Guard</tspan></text></g></a><a target="_blank" aria-label="User Experience Virtualisation (UE-V)" href="https://docs.microsoft.com/windows/configuration/ue-v/uev-for-windows" rel="noopener"><g transform="translate(368,-560)"><rect x="0" y="1312" width="96" height="80" rx="8" ry="8" class="o"/><text x="33.55" y="1340.3" class="p">User <tspan x="13.31" dy="1.2em" class="n">Experience </tspan><tspan x="6.83" dy="1.2em" class="n">Virtualisation</tspan></text></g></a><a target="_blank" aria-label="Long Term Servicing Channel" href="https://docs.microsoft.com/windows/deployment/update/waas-overview#long-term-servicing-channel" rel="noopener"><g transform="translate(144,-656)"><rect x="0" y="1312" width="96" height="80" rx="8" ry="8" class="o"/><text x="11.83" y="1339.4" class="m">Long Term <tspan x="16.49" dy="1.2em" class="n">Servicing </tspan><tspan x="20.39" dy="1.2em" class="n">Channel</tspan></text></g></a><a target="_blank" aria-label="Always On VPN" href="https://docs.microsoft.com/windows-server/remote/remote-access/vpn/always-on-vpn/" rel="noopener"><g transform="translate(144,-848)"><rect x="0" y="1312" width="96" height="80" rx="8" ry="8" class="o"/><text x="12.21" y="1347.8" class="m">Always On <tspan x="33.61" dy="1.2em" class="n">VPN</tspan></text></g></a><a target="_blank" aria-label="Universal Print" href="https://docs.microsoft.com/universal-print/" rel="noopener"><g transform="translate(256,-560)"><rect x="0" y="1312" width="96" height="80" rx="8" ry="8" class="o"/><text x="16.48" y="1347.8" class="m">Universal <tspan x="32.06" dy="1.2em" class="n">Print</tspan></text></g></a><a target="_blank" aria-label="App Assure" href="https://docs.microsoft.com/fasttrack/products-and-capabilities#app-assure" rel="noopener"><g transform="translate(368,-848)"><rect x="0" y="1312" width="96" height="80" rx="8" ry="8" class="o"/><text x="8.71" y="1356.2" class="m">App Assure</text></g></a><a target="_blank" aria-label="Windows Autopilot" href="https://docs.microsoft.com/windows/deployment/windows-autopilot/windows-autopilot" rel="noopener"><g transform="translate(144,-240)"><rect x="0" y="1312" width="96" height="80" rx="8" ry="8" class="l"/><text x="17.28" y="1347.8" class="m">Windows <tspan x="17.29" dy="1.2em" class="n">Autopilot</tspan></text></g></a><a target="_blank" aria-label="BitLocker" href="https://docs.microsoft.com/windows/security/information-protection/bitlocker/bitlocker-overview" rel="noopener"><g transform="translate(480,-432)"><rect x="0" y="1312" width="96" height="80" rx="8" ry="8" class="l"/><text x="8.71" y="1339.4" class="m">BitLocker &amp; <tspan x="7.16" dy="1.2em" class="n">BitLocker to </tspan><tspan x="38.28" dy="1.2em" class="n">Go</tspan></text></g></a><a target="_blank" aria-label="Windows Firewall" href="https://docs.microsoft.com/windows/security/threat-protection/windows-firewall/windows-firewall-with-advanced-security" rel="noopener"><g transform="translate(368,-240)"><rect x="0" y="1312" width="96" height="80" rx="8" ry="8" class="l"/><text x="17.28" y="1347.8" class="m">Windows <tspan x="21.93" dy="1.2em" class="n">Firewall</tspan></text></g></a><a target="_blank" aria-label="Application Control" href="https://docs.microsoft.com/windows/security/threat-protection/windows-defender-application-control/windows-defender-application-control" rel="noopener"><g transform="translate(144,-432)"><rect x="0" y="1312" width="96" height="80" rx="8" ry="8" class="l"/><text x="9.89" y="1347.8" class="m">Application <tspan x="23.12" dy="1.2em" class="n">Control</tspan></text></g></a><a target="_blank" aria-label="Microsoft Defender Advanced Threat Protection" href="https://docs.microsoft.com/microsoft-365/security/defender-endpoint/microsoft-defender-endpoint" rel="noopener"><g transform="translate(112,-992)"><rect x="0" y="1344" width="608" height="48" rx="8" ry="8" class="j"/><text x="150.67" y="1374" class="q">Microsoft Defender for Endpoint</text></g></a><a target="_blank" aria-label="Resilient File System (ReFS)" href="https://docs.microsoft.com/windows-server/storage/refs/refs-overview" rel="noopener"><g transform="translate(480,-656)"><rect x="0" y="1312" width="96" height="80" rx="8" ry="8" class="o"/><text x="4.82" y="1339.4" class="m">Resilient File <tspan x="23.1" dy="1.2em" class="n">System </tspan><tspan x="25.45" dy="1.2em" class="n">(ReFS)</tspan></text></g></a><a target="_blank" aria-label="SMB Direct" href="https://docs.microsoft.com/en-us/windows-server/storage/file-server/smb-direct" rel="noopener"><g transform="translate(592,-656)"><rect x="0" y="1312" width="96" height="80" rx="8" ry="8" class="o"/><text x="10.66" y="1356.2" class="m">SMB Direct</text></g></a><a target="_blank" aria-label="Unified Write Filter" href="https://docs.microsoft.com/windows-hardware/customize/enterprise/unified-write-filter" rel="noopener"><g transform="translate(144,-560)"><rect x="0" y="1312" width="96" height="80" rx="8" ry="8" class="o"/><text x="4.83" y="1347.8" class="m">Unified Write <tspan x="30.89" dy="1.2em" class="n">Filter</tspan></text></g></a><a target="_blank" aria-label="Persistent Memory" href="https://docs.microsoft.com/windows-server/storage/storage-spaces/deploy-pmem" rel="noopener"><g transform="translate(368,-656)"><rect x="0" y="1312" width="96" height="80" rx="8" ry="8" class="o"/><text x="14.15" y="1347.8" class="m">Persistent <tspan x="21.16" dy="1.2em" class="n">Memory</tspan></text></g></a><a target="_blank" aria-label="Attack Surface Reduction" href="https://docs.microsoft.com/windows/security/threat-protection/microsoft-defender-atp/attack-surface-reduction" rel="noopener"><g transform="translate(592,-848)"><rect x="0" y="1312" width="96" height="80" rx="8" ry="8" class="o"/><text x="26.6" y="1339.4" class="m">Attack <tspan x="22.32" dy="1.2em" class="n">Surface </tspan><tspan x="13.78" dy="1.2em" class="n">Reduction</tspan></text></g></a><a target="_blank" aria-label="Automated Investigation and Response" href="https://docs.microsoft.com/windows/security/threat-protection/windows-defender-atp/automated-investigations-windows-defender-advanced-threat-protection" rel="noopener"><g transform="translate(256,-1232)"><rect x="0" y="1312" width="96" height="80" rx="8" ry="8" class="r"/><text x="11.45" y="1339.4" class="m">Automated <tspan x="4.83" dy="1.2em" class="n">Investigation </tspan><tspan x="7.55" dy="1.2em" class="n">&amp; Response</tspan></text></g></a><a target="_blank" aria-label="Advanced Hunting" href="https://docs.microsoft.com/windows/security/threat-protection/windows-defender-atp/overview-hunting-windows-defender-advanced-threat-protection" rel="noopener"><g transform="translate(144,-1232)"><rect x="0" y="1312" width="96" height="80" rx="8" ry="8" class="r"/><text x="14.55" y="1347.8" class="m">Advanced <tspan x="21.57" dy="1.2em" class="n">Hunting</tspan></text></g></a><a target="_blank" aria-label="Cloud App Security Integration" href="https://docs.microsoft.com/windows/security/threat-protection/microsoft-defender-atp/microsoft-cloud-app-security-integration" rel="noopener"><g transform="translate(480,-1232)"><rect x="0" y="1312" width="96" height="80" rx="8" ry="8" class="r"/><text x="12.62" y="1339.4" class="m">Cloud App <tspan x="20.38" dy="1.2em" class="n">Security </tspan><tspan x="11.83" dy="1.2em" class="n">Integration</tspan></text></g></a><a target="_blank" aria-label="Microsoft Defender for Endpoint for Android" href="https://docs.microsoft.com/windows/security/threat-protection/microsoft-defender-atp/microsoft-defender-atp-android" rel="noopener"><g transform="translate(592,-1232)"><rect x="0" y="1312" width="96" height="80" rx="8" ry="8" class="r"/><text x="6.38" y="1339.4" class="m">Defender for <tspan x="17.68" dy="1.2em" class="n">Endpoint </tspan><tspan x="16.51" dy="1.2em" class="n">(Android)</tspan></text></g></a><a target="_blank" aria-label="Endpoint Detection and Response" href="https://docs.microsoft.com/windows/security/threat-protection/windows-defender-atp/overview-endpoint-detection-response" rel="noopener"><g transform="translate(256,-1136)"><rect x="0" y="1312" width="96" height="80" rx="8" ry="8" class="r"/><text x="17.68" y="1339.4" class="m">Endpoint <tspan x="9.11" dy="1.2em" class="n">Detection &amp; </tspan><tspan x="14.55" dy="1.2em" class="n">Response</tspan></text></g></a><a target="_blank" aria-label="Microsoft Defender for Endpoint for iOS" href="https://docs.microsoft.com/windows/security/threat-protection/microsoft-defender-atp/microsoft-defender-atp-ios" rel="noopener"><g transform="translate(144,-1136)"><rect x="0" y="1312" width="96" height="80" rx="8" ry="8" class="r"/><text x="6.38" y="1339.4" class="m">Defender for <tspan x="17.68" dy="1.2em" class="n">Endpoint </tspan><tspan x="31.28" dy="1.2em" class="n">(iOS)</tspan></text></g></a><a target="_blank" aria-label="Microsoft Threat Experts" href="https://docs.microsoft.com/windows/security/threat-protection/windows-defender-atp/microsoft-threat-experts" rel="noopener"><g transform="translate(592,-1136)"><rect x="0" y="1312" width="96" height="80" rx="8" ry="8" class="r"/><text x="16.5" y="1339.4" class="m">Microsoft <tspan x="26.61" dy="1.2em" class="n">Threat </tspan><tspan x="22.32" dy="1.2em" class="n">Experts</tspan></text></g></a><a target="_blank" aria-label="Evaluation Lab" href="https://docs.microsoft.com/windows/security/threat-protection/microsoft-defender-atp/evaluation-lab" rel="noopener"><g transform="translate(480,-1136)"><rect x="0" y="1312" width="96" height="80" rx="8" ry="8" class="r"/><text x="12.6" y="1347.8" class="m">Evaluation <tspan x="35.56" dy="1.2em" class="n">Lab</tspan></text></g></a><a target="_blank" aria-label="MIP Integration" href="https://www.microsoft.com/security/blog/2019/01/17/windows-defender-atp-integrates-with-microsoft-information-protection-to-discover-protect-and-monitor-sensitive-data-on-windows-devices/" rel="noopener"><g transform="translate(144,-1040)"><rect x="0" y="1312" width="96" height="80" rx="8" ry="8" class="r"/><text x="35.56" y="1347.8" class="m">MIP <tspan x="11.83" dy="1.2em" class="n">Integration</tspan></text></g></a><a target="_blank" aria-label="Threat and Vulnerability Management" href="https://docs.microsoft.com/windows/security/threat-protection/microsoft-defender-atp/next-gen-threat-and-vuln-mgt" rel="noopener"><g transform="translate(480,-1040)"><rect x="0" y="1312" width="96" height="80" rx="8" ry="8" class="r"/><text x="19.61" y="1339.4" class="m">Threat &amp; <tspan x="5.99" dy="1.2em" class="n">Vulnerability </tspan><tspan x="5.21" dy="1.2em" class="n">Management</tspan></text></g></a><a target="_blank" aria-label="Web Content Filtering" href="https://docs.microsoft.com/windows/security/threat-protection/microsoft-defender-atp/web-content-filtering" rel="noopener"><g transform="translate(592,-1040)"><rect x="0" y="1312" width="96" height="80" rx="8" ry="8" class="r"/><text x="4.84" y="1347.8" class="m">Web Content <tspan x="20.39" dy="1.2em" class="n">Filtering</tspan></text></g></a><a target="_blank" aria-label="Threat Analytics" href="https://docs.microsoft.com/windows/security/threat-protection/windows-defender-atp/threat-analytics" rel="noopener"><g transform="translate(368,-1040)"><rect x="0" y="1312" width="96" height="80" rx="8" ry="8" class="r"/><text x="26.61" y="1347.8" class="m">Threat <tspan x="16.88" dy="1.2em" class="n">Analytics</tspan></text></g></a><a target="_blank" aria-label="Tamper Protection" href="https://docs.microsoft.com/windows/security/threat-protection/microsoft-defender-antivirus/prevent-changes-to-security-settings-with-tamper-protection" rel="noopener"><g transform="translate(256,-1040)"><rect x="0" y="1312" width="96" height="80" rx="8" ry="8" class="r"/><text x="22.71" y="1347.8" class="m">Tamper <tspan x="13.39" dy="1.2em" class="n">Protection</tspan></text></g></a><a target="_blank" aria-label="Block at First Sight" href="https://docs.microsoft.com/windows/security/threat-protection/microsoft-defender-antivirus/configure-block-at-first-sight-microsoft-defender-antivirus" rel="noopener"><g transform="translate(368,-1232)"><rect x="0" y="1312" width="96" height="80" rx="8" ry="8" class="r"/><text x="20.77" y="1347.8" class="m">Block at <tspan x="13.39" dy="1.2em" class="n">First Sight</tspan></text></g></a><a target="_blank" aria-label="Enhanced ASR" href="https://docs.microsoft.com/windows/security/threat-protection/microsoft-defender-atp/overview-attack-surface-reduction" rel="noopener"><g transform="translate(368,-1136)"><rect x="0" y="1312" width="96" height="80" rx="8" ry="8" class="r"/><text x="14.55" y="1347.8" class="m">Enhanced <tspan x="33.22" dy="1.2em" class="n">ASR</tspan></text></g></a></g></svg>