<svg xmlns="http://www.w3.org/2000/svg" width="832" height="1200" viewBox="0 0 832 1200" class="a"><style>
.b {fill:#a5a5a5;fill-opacity:0.2;stroke:#004400;stroke-linecap:round;stroke-linejoin:round;stroke-width:2.25}
.c {fill:#a6a6a6;fill-opacity:0.2;stroke:#004400;stroke-dasharray:2.25,4.5;stroke-linecap:round;stroke-linejoin:round;stroke-width:2.25}
.d {fill:#a5a5a5;fill-opacity:0.2;stroke:#006600;stroke-dasharray:15.75,11.25;stroke-linecap:round;stroke-linejoin:round;stroke-width:2.25}
.e {fill:#006600;stroke:#006600;stroke-linecap:round;stroke-linejoin:round;stroke-width:2.25}
.f {fill:#ffffff;font-family:Arial;font-size:1.66667em;font-weight:bold}
.g {fill:#004400;stroke:#004400;stroke-linecap:round;stroke-linejoin:round;stroke-width:2.25}
.h {fill:none;stroke:none;stroke-linecap:round;stroke-linejoin:round;stroke-width:0.5}
.i {fill:#000000;font-family:Arial;font-size:1.16666em;font-weight:bold}
.j {fill:#004400;stroke:none;stroke-linecap:round;stroke-linejoin:round;stroke-width:2.25}
.k {fill:#ffffff;font-family:Arial;font-size:1.16666em;font-weight:bold}
.l {font-size:1em}
.m {fill:#006600;stroke:none;stroke-linecap:round;stroke-linejoin:round;stroke-width:2.25}
.n {fill:#ffffff;font-family:Arial;font-size:1.08334em;font-weight:bold}
.o {fill:#ffffff;font-family:Arial;font-size:1.00001em;font-weight:bold}
.a {fill:none;fill-rule:evenodd;font-size:12px;overflow:visible;stroke-linecap:square;stroke-miterlimit:3}
</style><g><g transform="translate(16,-16)"><rect x="0" y="32" width="800" height="1168" rx="8" ry="8" class="b"/></g><g transform="translate(112,-800)"><rect x="0" y="848" width="608" height="352" rx="8" ry="8" class="c"/></g><g transform="translate(48,-48)"><rect x="0" y="480" width="672" height="720" rx="8" ry="8" class="d"/></g><a target="_blank" href="https://www.microsoft.com/windowsforbusiness" rel="noopener"><g transform="translate(-1088,1152) rotate(-90)"><rect x="0" y="1136" width="720" height="64" rx="8" ry="8" class="e"/><text x="248.87" y="1174" class="f">Windows Enterprise E3</text></g></a><a target="_blank" href="https://www.microsoft.com/windowsforbusiness" rel="noopener"><g transform="translate(-384,1184) rotate(-90)"><rect x="0" y="1136" width="1168" height="64" rx="8" ry="8" class="g"/><text x="472.87" y="1174" class="f">Windows Enterprise E5</text></g></a><a target="_blank" href="https://docs.microsoft.com/microsoft-365/security/defender-endpoint/microsoft-defender-endpoint" rel="noopener"><g transform="translate(112,-800)"><rect x="0" y="1152" width="608" height="48" rx="8" ry="8" class="h"/><text x="174.1" y="1180.2" class="i">Microsoft Defender for Endpoint Plan 2</text></g></a><a target="_blank" href="https://docs.microsoft.com/windows/security/threat-protection/windows-defender-atp/automated-investigations-windows-defender-advanced-threat-protection" rel="noopener"><g transform="translate(256,-1040)"><rect x="0" y="1120" width="96" height="80" rx="8" ry="8" class="j"/><text x="11.45" y="1147.4" class="k">Automated <tspan x="4.83" dy="1.2em" class="l">Investigation </tspan><tspan x="7.55" dy="1.2em" class="l">&amp; Response</tspan></text></g></a><a target="_blank" href="https://docs.microsoft.com/windows/security/threat-protection/windows-defender-atp/overview-hunting-windows-defender-advanced-threat-protection" rel="noopener"><g transform="translate(144,-1040)"><rect x="0" y="1120" width="96" height="80" rx="8" ry="8" class="j"/><text x="14.55" y="1155.8" class="k">Advanced <tspan x="21.57" dy="1.2em" class="l">Hunting</tspan></text></g></a><a target="_blank" href="https://docs.microsoft.com/windows/security/threat-protection/microsoft-defender-atp/microsoft-cloud-app-security-integration" rel="noopener"><g transform="translate(480,-1040)"><rect x="0" y="1120" width="96" height="80" rx="8" ry="8" class="j"/><text x="12.62" y="1147.4" class="k">Cloud App <tspan x="20.38" dy="1.2em" class="l">Security </tspan><tspan x="11.83" dy="1.2em" class="l">Integration</tspan></text></g></a><a target="_blank" href="https://docs.microsoft.com/windows/security/threat-protection/microsoft-defender-atp/microsoft-defender-atp-android" rel="noopener"><g transform="translate(592,-1040)"><rect x="0" y="1120" width="96" height="80" rx="8" ry="8" class="j"/><text x="6.38" y="1147.4" class="k">Defender for <tspan x="17.68" dy="1.2em" class="l">Endpoint </tspan><tspan x="16.51" dy="1.2em" class="l">(Android)</tspan></text></g></a><a target="_blank" href="https://docs.microsoft.com/windows/security/threat-protection/windows-defender-atp/overview-endpoint-detection-response" rel="noopener"><g transform="translate(256,-944)"><rect x="0" y="1120" width="96" height="80" rx="8" ry="8" class="j"/><text x="17.68" y="1147.4" class="k">Endpoint <tspan x="9.11" dy="1.2em" class="l">Detection &amp; </tspan><tspan x="14.55" dy="1.2em" class="l">Response</tspan></text></g></a><a target="_blank" href="https://docs.microsoft.com/windows/security/threat-protection/microsoft-defender-atp/microsoft-defender-atp-ios" rel="noopener"><g transform="translate(144,-944)"><rect x="0" y="1120" width="96" height="80" rx="8" ry="8" class="j"/><text x="6.38" y="1147.4" class="k">Defender for <tspan x="17.68" dy="1.2em" class="l">Endpoint </tspan><tspan x="31.28" dy="1.2em" class="l">(iOS)</tspan></text></g></a><a target="_blank" href="https://docs.microsoft.com/windows/security/threat-protection/windows-defender-atp/microsoft-threat-experts" rel="noopener"><g transform="translate(592,-944)"><rect x="0" y="1120" width="96" height="80" rx="8" ry="8" class="j"/><text x="16.5" y="1147.4" class="k">Microsoft <tspan x="26.61" dy="1.2em" class="l">Threat </tspan><tspan x="22.32" dy="1.2em" class="l">Experts</tspan></text></g></a><a target="_blank" href="https://docs.microsoft.com/windows/security/threat-protection/microsoft-defender-atp/evaluation-lab" rel="noopener"><g transform="translate(480,-944)"><rect x="0" y="1120" width="96" height="80" rx="8" ry="8" class="j"/><text x="12.6" y="1155.8" class="k">Evaluation <tspan x="35.56" dy="1.2em" class="l">Lab</tspan></text></g></a><a target="_blank" href="https://www.microsoft.com/security/blog/2019/01/17/windows-defender-atp-integrates-with-microsoft-information-protection-to-discover-protect-and-monitor-sensitive-data-on-windows-devices/" rel="noopener"><g transform="translate(144,-848)"><rect x="0" y="1120" width="96" height="80" rx="8" ry="8" class="j"/><text x="35.56" y="1155.8" class="k">MIP <tspan x="11.83" dy="1.2em" class="l">Integration</tspan></text></g></a><a target="_blank" href="https://docs.microsoft.com/windows/security/threat-protection/microsoft-defender-atp/next-gen-threat-and-vuln-mgt" rel="noopener"><g transform="translate(480,-848)"><rect x="0" y="1120" width="96" height="80" rx="8" ry="8" class="j"/><text x="19.61" y="1147.4" class="k">Threat &amp; <tspan x="5.99" dy="1.2em" class="l">Vulnerability </tspan><tspan x="5.21" dy="1.2em" class="l">Management</tspan></text></g></a><a target="_blank" href="https://docs.microsoft.com/windows/security/threat-protection/microsoft-defender-atp/web-content-filtering" rel="noopener"><g transform="translate(592,-848)"><rect x="0" y="1120" width="96" height="80" rx="8" ry="8" class="j"/><text x="4.84" y="1155.8" class="k">Web Content <tspan x="20.39" dy="1.2em" class="l">Filtering</tspan></text></g></a><a target="_blank" href="https://docs.microsoft.com/windows/security/threat-protection/windows-defender-atp/threat-analytics" rel="noopener"><g transform="translate(368,-848)"><rect x="0" y="1120" width="96" height="80" rx="8" ry="8" class="j"/><text x="26.61" y="1155.8" class="k">Threat <tspan x="16.88" dy="1.2em" class="l">Analytics</tspan></text></g></a><a target="_blank" href="https://docs.microsoft.com/windows/security/threat-protection/microsoft-defender-antivirus/prevent-changes-to-security-settings-with-tamper-protection" rel="noopener"><g transform="translate(256,-848)"><rect x="0" y="1120" width="96" height="80" rx="8" ry="8" class="j"/><text x="22.71" y="1155.8" class="k">Tamper <tspan x="13.39" dy="1.2em" class="l">Protection</tspan></text></g></a><a target="_blank" href="https://docs.microsoft.com/windows/security/threat-protection/microsoft-defender-antivirus/configure-block-at-first-sight-microsoft-defender-antivirus" rel="noopener"><g transform="translate(368,-1040)"><rect x="0" y="1120" width="96" height="80" rx="8" ry="8" class="j"/><text x="20.77" y="1155.8" class="k">Block at <tspan x="13.39" dy="1.2em" class="l">First Sight</tspan></text></g></a><a target="_blank" href="https://docs.microsoft.com/windows/security/threat-protection/microsoft-defender-atp/overview-attack-surface-reduction" rel="noopener"><g transform="translate(368,-944)"><rect x="0" y="1120" width="96" height="80" rx="8" ry="8" class="j"/><text x="14.55" y="1155.8" class="k">Enhanced <tspan x="33.22" dy="1.2em" class="l">ASR</tspan></text></g></a><a target="_blank" href="https://docs.microsoft.com/windows/security/threat-protection/microsoft-defender-atp/attack-surface-reduction" rel="noopener"><g transform="translate(256,-560)"><rect x="0" y="1120" width="96" height="80" rx="8" ry="8" class="m"/><text x="26.6" y="1147.4" class="k">Attack <tspan x="22.32" dy="1.2em" class="l">Surface </tspan><tspan x="13.78" dy="1.2em" class="l">Reduction</tspan></text></g></a><a target="_blank" href="https://docs.microsoft.com/microsoft-store/microsoft-store-for-business-overview" rel="noopener"><g transform="translate(256,-272)"><rect x="0" y="1120" width="96" height="80" rx="8" ry="8" class="m"/><text x="16.5" y="1147.4" class="k">Microsoft <tspan x="18.83" dy="1.2em" class="l">Store for </tspan><tspan x="16.88" dy="1.2em" class="l">Business</tspan></text></g></a><a target="_blank" href="https://docs.microsoft.com/windows-server/identity/ad-fs/operations/configure-device-based-conditional-access-on-premises" rel="noopener"><g transform="translate(144,-80)"><rect x="0" y="1120" width="96" height="80" rx="8" ry="8" class="m"/><text x="17.28" y="1147.4" class="k">Windows <tspan x="9.51" dy="1.2em" class="l">Conditional </tspan><tspan x="23.48" dy="1.2em" class="l">Access</tspan></text></g></a><a target="_blank" href="https://docs.microsoft.com/windows/security/information-protection/windows-information-protection/protect-enterprise-data-using-wip" rel="noopener"><g transform="translate(480,-80)"><rect x="0" y="1120" width="96" height="80" rx="8" ry="8" class="m"/><text x="17.28" y="1147.4" class="k">Windows <tspan x="9.5" dy="1.2em" class="l">Information </tspan><tspan x="13.39" dy="1.2em" class="l">Protection</tspan></text></g></a><a target="_blank" href="https://docs.microsoft.com/windows/deployment/update/waas-manage-updates-wufb" rel="noopener"><g transform="translate(592,-80)"><rect x="0" y="1120" width="96" height="80" rx="8" ry="8" class="m"/><text x="17.28" y="1147.4" class="k">Windows <tspan x="13" dy="1.2em" class="l">Update for </tspan><tspan x="16.88" dy="1.2em" class="l">Business</tspan></text></g></a><a target="_blank" href="https://docs.microsoft.com/windows/security/identity-protection/hello-for-business/hello-identity-verification" rel="noopener"><g transform="translate(368,-80)"><rect x="0" y="1120" width="96" height="80" rx="8" ry="8" class="m"/><text x="17.28" y="1147.4" class="k">Windows <tspan x="19.61" dy="1.2em" class="l">Hello for </tspan><tspan x="16.88" dy="1.2em" class="l">Business</tspan></text></g></a><a target="_blank" href="https://www.microsoft.com/edge/business" rel="noopener"><g transform="translate(256,-368)"><rect x="0" y="1120" width="96" height="80" rx="8" ry="8" class="m"/><text x="19.61" y="1155.8" class="k">Edge for <tspan x="16.88" dy="1.2em" class="l">Business</tspan></text></g></a><a target="_blank" href="https://support.microsoft.com/help/17214/windows-10-what-is" rel="noopener"><g transform="translate(256,-464)"><rect x="0" y="1120" width="96" height="80" rx="8" ry="8" class="m"/><text x="21.55" y="1164.2" class="k">Cortana</text></g></a><a target="_blank" href="https://docs.microsoft.com/windows/security/threat-protection/windows-defender-application-guard/wd-app-guard-overview" rel="noopener"><g transform="translate(368,-656)"><rect x="0" y="1120" width="96" height="80" rx="8" ry="8" class="m"/><text x="9.89" y="1155.8" class="k">Application <tspan x="27.39" dy="1.2em" class="l">Guard</tspan></text></g></a><a target="_blank" href="https://docs.microsoft.com/azure/active-directory/devices/concept-azure-ad-join" rel="noopener"><g transform="translate(368,-560)"><rect x="0" y="1120" width="96" height="80" rx="8" ry="8" class="m"/><text x="16.5" y="1147.4" class="k">Azure AD<tspan x="15.33" dy="1.2em" class="l">&amp; Domain </tspan><tspan x="33.61" dy="1.2em" class="l">Join</tspan></text></g></a><a target="_blank" href="https://docs.microsoft.com/mem/configmgr/desktop-analytics/overview" rel="noopener"><g transform="translate(480,-464)"><rect x="0" y="1120" width="96" height="80" rx="8" ry="8" class="m"/><text x="20.38" y="1155.8" class="k">Desktop <tspan x="16.88" dy="1.2em" class="l">Analytics</tspan></text></g></a><a target="_blank" href="https://www.microsoft.com/windows/comprehensive-security" rel="noopener"><g transform="translate(144,-272)"><rect x="0" y="1120" width="96" height="80" rx="8" ry="8" class="m"/><text x="16.5" y="1147.4" class="k">Microsoft <tspan x="17.66" dy="1.2em" class="l">Defender </tspan><tspan x="17.66" dy="1.2em" class="l">Antivirus</tspan></text></g></a><a target="_blank" href="https://docs.microsoft.com/microsoft-desktop-optimization-pack/appv-v5/" rel="noopener"><g transform="translate(144,-560)"><rect x="0" y="1120" width="96" height="80" rx="8" ry="8" class="m"/><text x="27.39" y="1164.2" class="k">App-V</text></g></a><a target="_blank" href="https://docs.microsoft.com/windows/security/threat-protection/windows-defender-application-control/applocker/applocker-overview" rel="noopener"><g transform="translate(480,-656)"><rect x="0" y="1120" width="96" height="80" rx="8" ry="8" class="m"/><text x="11.44" y="1164.2" class="k">AppLocker</text></g></a><a target="_blank" href="https://www.microsoft.com/cloud-platform/desktop-virtualization" rel="noopener"><g transform="translate(480,-560)"><rect x="0" y="1120" width="96" height="80" rx="8" ry="8" class="m"/><text x="4.82" y="1155.8" class="k">Azure Virtual <tspan x="20.38" dy="1.2em" class="l">Desktop</tspan></text></g></a><a target="_blank" href="https://docs.microsoft.com/windows-server/remote/remote-access/directaccess/directaccess" rel="noopener"><g transform="translate(144,-368)"><rect x="0" y="1120" width="96" height="80" rx="8" ry="8" class="m"/><text x="6.81" y="1163.9" class="n">DirectAccess</text></g></a><a target="_blank" href="https://docs.microsoft.com/windows/security/threat-protection/device-guard/introduction-to-device-guard-virtualization-based-security-and-windows-defender-application-control" rel="noopener"><g transform="translate(592,-464)"><rect x="0" y="1120" width="96" height="80" rx="8" ry="8" class="m"/><text x="25.43" y="1155.8" class="k">Device <tspan x="27.39" dy="1.2em" class="l">Guard</tspan></text></g></a><a target="_blank" href="https://docs.microsoft.com/windows-server/networking/branchcache/branchcache" rel="noopener"><g transform="translate(144,-464)"><rect x="0" y="1120" width="96" height="80" rx="8" ry="8" class="m"/><text x="6.1" y="1163.9" class="n">BranchCache</text></g></a><a target="_blank" href="https://docs.microsoft.com/microsoft-desktop-optimization-pack/" rel="noopener"><g transform="translate(592,-368)"><rect x="0" y="1120" width="96" height="80" rx="8" ry="8" class="m"/><text x="27" y="1164.2" class="k">MDOP</text></g></a><a target="_blank" href="https://docs.microsoft.com/windows/security/identity-protection/credential-guard/credential-guard" rel="noopener"><g transform="translate(368,-464)"><rect x="0" y="1120" width="96" height="80" rx="8" ry="8" class="m"/><text x="13.77" y="1155.8" class="k">Credential <tspan x="27.39" dy="1.2em" class="l">Guard</tspan></text></g></a><a target="_blank" href="https://docs.microsoft.com/windows/configuration/ue-v/uev-for-windows" rel="noopener"><g transform="translate(480,-176)"><rect x="0" y="1120" width="96" height="80" rx="8" ry="8" class="m"/><text x="33.55" y="1148.3" class="n">User <tspan x="13.31" dy="1.2em" class="l">Experience </tspan><tspan x="6.83" dy="1.2em" class="l">Virtualisation</tspan></text></g></a><a target="_blank" href="https://docs.microsoft.com/windows/deployment/update/waas-overview#long-term-servicing-channel" rel="noopener"><g transform="translate(368,-368)"><rect x="0" y="1120" width="96" height="80" rx="8" ry="8" class="m"/><text x="11.83" y="1147.4" class="k">Long Term <tspan x="16.49" dy="1.2em" class="l">Servicing </tspan><tspan x="20.39" dy="1.2em" class="l">Channel</tspan></text></g></a><a target="_blank" href="https://docs.microsoft.com/windows-server/remote/remote-access/vpn/always-on-vpn/" rel="noopener"><g transform="translate(144,-656)"><rect x="0" y="1120" width="96" height="80" rx="8" ry="8" class="m"/><text x="12.21" y="1155.8" class="k">Always On <tspan x="33.61" dy="1.2em" class="l">VPN</tspan></text></g></a><a target="_blank" href="https://docs.microsoft.com/universal-print/" rel="noopener"><g transform="translate(368,-176)"><rect x="0" y="1120" width="96" height="80" rx="8" ry="8" class="m"/><text x="16.48" y="1155.8" class="k">Universal <tspan x="32.06" dy="1.2em" class="l">Print</tspan></text></g></a><a target="_blank" href="https://docs.microsoft.com/fasttrack/products-and-capabilities#app-assure" rel="noopener"><g transform="translate(592,-656)"><rect x="0" y="1120" width="96" height="80" rx="8" ry="8" class="m"/><text x="8.71" y="1164.2" class="k">App Assure</text></g></a><a target="_blank" href="https://docs.microsoft.com/windows/deployment/windows-autopilot/windows-autopilot" rel="noopener"><g transform="translate(592,-176)"><rect x="0" y="1120" width="96" height="80" rx="8" ry="8" class="m"/><text x="17.28" y="1155.8" class="k">Windows <tspan x="17.29" dy="1.2em" class="l">Autopilot</tspan></text></g></a><a target="_blank" href="https://docs.microsoft.com/windows/security/information-protection/bitlocker/bitlocker-overview" rel="noopener"><g transform="translate(592,-560)"><rect x="0" y="1120" width="96" height="80" rx="8" ry="8" class="m"/><text x="8.71" y="1147.4" class="k">BitLocker &amp; <tspan x="7.16" dy="1.2em" class="l">BitLocker to </tspan><tspan x="38.28" dy="1.2em" class="l">Go</tspan></text></g></a><a target="_blank" href="https://docs.microsoft.com/windows/security/threat-protection/windows-firewall/windows-firewall-with-advanced-security" rel="noopener"><g transform="translate(256,-80)"><rect x="0" y="1120" width="96" height="80" rx="8" ry="8" class="m"/><text x="17.28" y="1155.8" class="k">Windows <tspan x="21.93" dy="1.2em" class="l">Firewall</tspan></text></g></a><a target="_blank" href="https://docs.microsoft.com/windows/security/threat-protection/windows-defender-application-control/windows-defender-application-control" rel="noopener"><g transform="translate(256,-656)"><rect x="0" y="1120" width="96" height="80" rx="8" ry="8" class="m"/><text x="9.89" y="1155.8" class="k">Application <tspan x="23.12" dy="1.2em" class="l">Control</tspan></text></g></a><a target="_blank" href="https://docs.microsoft.com/windows-server/storage/refs/refs-overview" rel="noopener"><g transform="translate(592,-272)"><rect x="0" y="1120" width="96" height="80" rx="8" ry="8" class="m"/><text x="4.82" y="1147.4" class="k">Resilient File <tspan x="23.1" dy="1.2em" class="l">System </tspan><tspan x="25.45" dy="1.2em" class="l">(ReFS)</tspan></text></g></a><a target="_blank" href="https://docs.microsoft.com/windows-server/storage/file-server/smb-direct" rel="noopener"><g transform="translate(144,-176)"><rect x="0" y="1120" width="96" height="80" rx="8" ry="8" class="m"/><text x="10.66" y="1164.2" class="k">SMB Direct</text></g></a><a target="_blank" href="https://docs.microsoft.com/windows-hardware/customize/enterprise/unified-write-filter" rel="noopener"><g transform="translate(256,-176)"><rect x="0" y="1120" width="96" height="80" rx="8" ry="8" class="m"/><text x="4.83" y="1155.8" class="k">Unified Write <tspan x="30.89" dy="1.2em" class="l">Filter</tspan></text></g></a><a target="_blank" href="https://docs.microsoft.com/windows-server/storage/storage-spaces/deploy-pmem" rel="noopener"><g transform="translate(368,-272)"><rect x="0" y="1120" width="96" height="80" rx="8" ry="8" class="m"/><text x="14.15" y="1155.8" class="k">Persistent <tspan x="21.16" dy="1.2em" class="l">Memory</tspan></text></g></a><a target="_blank" href="https://docs.microsoft.com/windows/client-management/mdm/" rel="noopener"><g transform="translate(480,-368)"><rect x="0" y="1120" width="96" height="80" rx="8" ry="8" class="m"/><text x="11.82" y="1155.8" class="k">Manage by <tspan x="31.28" dy="1.2em" class="l">MDM</tspan></text></g></a><a target="_blank" href="https://go.microsoft.com/fwlink/?linkid=2085130" rel="noopener"><g transform="translate(480,-272)"><rect x="0" y="1120" width="96" height="80" rx="8" ry="8" class="m"/><text x="29.99" y="1142" class="o">Power <tspan x="20.33" dy="1.2em" class="l">Automate </tspan><tspan x="22" dy="1.2em" class="l">Attended </tspan><tspan x="5.66" dy="1.2em" class="l">Desktop Flows</tspan></text></g></a></g></svg>