<svg xmlns="http://www.w3.org/2000/svg" fill="none" viewBox="0 0 128 128" width="128px" height="128px"><style>.a,.b{stroke:#e60000;stroke-linecap:round;stroke-linejoin:round;stroke-width:6}.b{fill:none}</style><path d="M98 64a22.3 28.1-35 0016.4-11.5M100.5 83a32.1 33 10 0121.7 3.8M96 103a34.8 52.7 40 0114.6 12.2M83 22a17.5 17.7 0 1135 0M30 64a22.3 28.1 35 01-16.4-11.5M27.5 83a32.1 33-10 00-21.7 3.8M32 103a34.8 52.7-40 00-14.6 12.2M45 22a17.5 17.7 0 10-35 0M38 50a27 28.4 0 1152 0" class="a"/><ellipse cx="36.5" cy="85" class="b" rx="36.5" ry="43" transform="translate(27.5 -4)"/></svg>