<svg xmlns="http://www.w3.org/2000/svg" xmlns:xlink="http://www.w3.org/1999/xlink" width="128px" height="128px" fill="none" viewBox="0 0 128 128"><style>.b{marker-start:url(#mrkr1-6);stroke-linecap:round;stroke-linejoin:round;stroke-width:6}.a,.b,.c,.d{stroke:#0070f7}.a{fill:#0070f7;fill-opacity:1;stroke-opacity:1;stroke-width:.6}.c,.d{stroke-linecap:round;stroke-linejoin:round;stroke-width:6}.d{fill:none}</style><defs><marker id="mrkr1-6" class="a" markerUnits="strokeWidth" orient="auto" overflow="visible"><use transform="scale(1.66)" xlink:href="#lend1"/></marker><path d="M1-1L0 0l1 1" style="stroke-linecap:round;stroke-linejoin:round;fill:none" id="lend1"/></defs><path d="M56 20A53.3 52 45 004 72" class="b"/><path d="M4 72a53.3 52-45 0052 52" class="c"/><path d="M103 7.6A12.3 12.3 0 11120.4 25L103 7.6z" class="d"/><path d="M28 100l7.2-24A16.4 16.4 0 0152 92.8L28 100z" class="d"/><path d="M102.2 8L35 75.2A17.3 17.3 0 0152.9 93L120 25.8 102.2 8z" class="d"/><path d="M56 124a52 53.3-45 0052-52" class="c"/></svg>