<svg xmlns="http://www.w3.org/2000/svg" fill="none" viewBox="0 0 128 128" width="128px" height="128px"><path stroke="#0070f7" stroke-width="6" d="M74.6 5l23.6 9.4-4.7 11.8 8.3 8.3 11.8-4.7 9.4 22.4-11.8 5.9v11.8l11.8 5.9-9.4 22.4-11.8-4.7-9.5 8.3 6 11.8-23.7 9.4-4.7-11.8H58.1L52.2 123l-22.4-9.4 4.7-11.8-8.3-8.3-11.8 4.7L5 75.8l11.8-5.9V58.1L5 52.2l9.4-22.4 11.8 4.7 8.3-8.3-4.7-11.8L53.4 5 58 16.8h11.8L74.6 5z"/><circle cx="12" cy="116" r="12" stroke="#0070f7" stroke-linecap="round" stroke-linejoin="round" stroke-width="6" transform="translate(52 -52)"/></svg>