<svg xmlns="http://www.w3.org/2000/svg" xmlns:xlink="http://www.w3.org/1999/xlink" width="128px" height="128px" fill="none" viewBox="0 0 128 128"><style>.b{marker-start:url(#mrkr1-6);stroke-linecap:round;stroke-linejoin:round;stroke-width:8}.a,.b,.c,.d{stroke:#0070f7}.a{fill-opacity:1;stroke-opacity:1;fill:#0070f7;stroke-width:.66889632107023}.c,.d{fill:none;stroke-width:5}.d{stroke-linecap:round;stroke-linejoin:round}</style><defs><marker id="mrkr1-6" class="a" markerUnits="strokeWidth" orient="auto" overflow="visible"><use transform="scale(1.495)" xlink:href="#lend1"/></marker><path id="lend1" d="M1-1L0 0l1 1" style="stroke-linecap:round;stroke-linejoin:round;fill:none"/></defs><path d="M12.6 35.7A59.4 61.5-15 0193.7 14" class="b"/><path d="M115.4 92.3A61.5 59.4 75 0134.3 114" class="b"/><path d="M70.5 28l14.4 5.8L82 41l5 5 7.2-2.9 5.8 13.7-7.2 3.6v7.2l7.2 3.6-5.8 13.7L87 82l-5.7 5 3.6 7.2-14.4 5.8-2.9-7.2h-7.2l-3.6 7.2-13.7-5.8L46 87l-5-5-7.2 2.9L28 71.2l7.2-3.6v-7.2L28 56.8l5.8-13.7L41 46l5-5-2.9-7.2L57.5 28l2.9 7.2h7.2l2.9-7.2z" class="c"/><circle cx="8" cy="120" r="8" class="d" transform="translate(56 -56)"/></svg>