<svg xmlns="http://www.w3.org/2000/svg" width="520" height="520" fill="none" viewBox="0 0 520 520"><style>.a,.b,.c,.d,.e,.f,.g{stroke:none;stroke-linecap:butt}.a{fill:silver;fill-opacity:.5;stroke-width:.75}.b,.c,.d,.e,.f,.g{stroke-width:2}.b{fill-opacity:.5;fill:silver}.c{fill:#e82200}.d{fill:#0050c0}.e{fill:#080}.f{fill:#060}.g{fill:#2080a0}.h,.i{stroke-dasharray:4,2}.h{stroke-linecap:butt;stroke-width:2;stroke:#e82200}.i{stroke:#2080a0}.i,.j,.k,.l,.m{stroke-linecap:butt;stroke-width:2}.j{stroke-dasharray:4,2;stroke:#060}.k{fill:#504060}.k,.l,.m{stroke:none}.l{fill:#d04a00}.m{fill:#7030a0}</style><rect width="500" height="130" y="390" class="a" rx="8" ry="8" transform="translate(10 -40)"/><rect width="500" height="130" y="390" class="a" rx="8" ry="8" transform="translate(10 -180)"/><rect width="500" height="130" y="390" class="a" rx="8" ry="8" transform="translate(10 -320)"/><rect width="190" height="500" y="20" class="b" rx="8" ry="8" transform="translate(280 -10)"/><rect width="190" height="500" y="20" class="b" rx="8" ry="8" transform="translate(50 -10)"/><rect width="20" height="20" y="500" class="c" rx="8" ry="8" transform="translate(60 -420)"/><rect width="20" height="20" y="500" class="c" rx="8" ry="8" transform="translate(90 -420)"/><rect width="20" height="20" y="500" class="c" rx="8" ry="8" transform="translate(120 -420)"/><rect width="20" height="20" y="500" class="c" rx="8" ry="8" transform="translate(150 -420)"/><rect width="20" height="20" y="500" class="c" rx="8" ry="8" transform="translate(180 -420)"/><rect width="20" height="20" y="500" class="c" rx="8" ry="8" transform="translate(210 -420)"/><rect width="20" height="20" y="500" class="c" rx="8" ry="8" transform="translate(60 -390)"/><rect width="20" height="20" y="500" class="c" rx="8" ry="8" transform="translate(90 -390)"/><rect width="20" height="20" y="500" class="c" rx="8" ry="8" transform="translate(120 -390)"/><rect width="20" height="20" y="500" class="c" rx="8" ry="8" transform="translate(150 -390)"/><rect width="20" height="20" y="500" class="c" rx="8" ry="8" transform="translate(180 -390)"/><rect width="20" height="20" y="500" class="c" rx="8" ry="8" transform="translate(210 -390)"/><rect width="20" height="20" y="500" class="c" rx="8" ry="8" transform="translate(60 -360)"/><rect width="20" height="20" y="500" class="c" rx="8" ry="8" transform="translate(90 -360)"/><rect width="20" height="20" y="500" class="c" rx="8" ry="8" transform="translate(120 -360)"/><rect width="20" height="20" y="500" class="c" rx="8" ry="8" transform="translate(150 -360)"/><rect width="20" height="20" y="500" class="c" rx="8" ry="8" transform="translate(180 -360)"/><rect width="20" height="20" y="500" class="c" rx="8" ry="8" transform="translate(210 -360)"/><rect width="20" height="20" y="500" class="c" rx="8" ry="8" transform="translate(60 -330)"/><rect width="20" height="20" y="500" class="c" rx="8" ry="8" transform="translate(90 -330)"/><rect width="20" height="20" y="500" class="c" rx="8" ry="8" transform="translate(120 -330)"/><rect width="20" height="20" y="500" class="c" rx="8" ry="8" transform="translate(150 -330)"/><rect width="20" height="20" y="500" class="c" rx="8" ry="8" transform="translate(180 -330)"/><rect width="20" height="20" y="500" class="d" rx="8" ry="8" transform="translate(60 -280)"/><rect width="20" height="20" y="500" class="d" rx="8" ry="8" transform="translate(90 -280)"/><rect width="20" height="20" y="500" class="d" rx="8" ry="8" transform="translate(120 -280)"/><rect width="20" height="20" y="500" class="d" rx="8" ry="8" transform="translate(150 -280)"/><rect width="20" height="20" y="500" class="d" rx="8" ry="8" transform="translate(180 -280)"/><rect width="20" height="20" y="500" class="d" rx="8" ry="8" transform="translate(210 -280)"/><rect width="20" height="20" y="500" class="e" rx="8" ry="8" transform="translate(60 -140)"/><rect width="20" height="20" y="500" class="e" rx="8" ry="8" transform="translate(90 -140)"/><rect width="20" height="20" y="500" class="e" rx="8" ry="8" transform="translate(120 -140)"/><rect width="20" height="20" y="500" class="e" rx="8" ry="8" transform="translate(150 -140)"/><rect width="20" height="20" y="500" class="e" rx="8" ry="8" transform="translate(180 -140)"/><rect width="20" height="20" y="500" class="e" rx="8" ry="8" transform="translate(210 -140)"/><rect width="20" height="20" y="500" class="f" rx="8" ry="8" transform="translate(290 -140)"/><rect width="20" height="20" y="500" class="f" rx="8" ry="8" transform="translate(320 -140)"/><rect width="20" height="20" y="500" class="f" rx="8" ry="8" transform="translate(350 -140)"/><rect width="20" height="20" y="500" class="g" rx="8" ry="8" transform="translate(290 -280)"/><rect width="20" height="20" y="500" class="g" rx="8" ry="8" transform="translate(320 -280)"/><rect width="20" height="20" y="500" class="g" rx="8" ry="8" transform="translate(350 -280)"/><rect width="20" height="20" y="500" class="g" rx="8" ry="8" transform="translate(380 -280)"/><rect width="20" height="20" y="500" class="g" rx="8" ry="8" transform="translate(290 -250)"/><rect width="20" height="20" y="500" class="g" rx="8" ry="8" transform="translate(320 -250)"/><rect width="20" height="20" y="500" class="g" rx="8" ry="8" transform="translate(350 -250)"/><rect width="20" height="20" y="500" class="g" rx="8" ry="8" transform="translate(380 -250)"/><rect width="20" height="20" y="500" class="g" rx="8" ry="8" transform="translate(290 -220)"/><rect width="20" height="20" y="500" class="g" rx="8" ry="8" transform="translate(320 -220)"/><rect width="20" height="20" y="500" class="g" rx="8" ry="8" transform="translate(350 -220)"/><path d="M260 70v130" class="h"/><path d="M260 210v130" class="i"/><path d="M260 350v130" class="j"/><rect width="20" height="20" y="500" class="k" rx="8" ry="8" transform="translate(290 -460)"/><rect width="20" height="20" y="500" class="k" rx="8" ry="8" transform="translate(320 -460)"/><rect width="20" height="20" y="500" class="k" rx="8" ry="8" transform="translate(350 -460)"/><rect width="20" height="20" y="500" class="k" rx="8" ry="8" transform="translate(380 -460)"/><rect width="20" height="20" y="500" class="k" rx="8" ry="8" transform="translate(410 -460)"/><rect width="20" height="20" y="500" class="l" rx="8" ry="8" transform="translate(290 -420)"/><rect width="20" height="20" y="500" class="l" rx="8" ry="8" transform="translate(320 -420)"/><rect width="20" height="20" y="500" class="l" rx="8" ry="8" transform="translate(350 -420)"/><rect width="20" height="20" y="500" class="l" rx="8" ry="8" transform="translate(380 -420)"/><rect width="20" height="20" y="500" class="l" rx="8" ry="8" transform="translate(410 -420)"/><rect width="20" height="20" y="500" class="l" rx="8" ry="8" transform="translate(440 -420)"/><rect width="20" height="20" y="500" class="l" rx="8" ry="8" transform="translate(290 -390)"/><rect width="20" height="20" y="500" class="l" rx="8" ry="8" transform="translate(320 -390)"/><rect width="20" height="20" y="500" class="l" rx="8" ry="8" transform="translate(350 -390)"/><rect width="20" height="20" y="500" class="l" rx="8" ry="8" transform="translate(380 -390)"/><rect width="20" height="20" y="500" class="l" rx="8" ry="8" transform="translate(410 -390)"/><rect width="20" height="20" y="500" class="l" rx="8" ry="8" transform="translate(440 -390)"/><rect width="20" height="20" y="500" class="l" rx="8" ry="8" transform="translate(291 -360)"/><rect width="20" height="20" y="500" class="l" rx="8" ry="8" transform="translate(320 -360)"/><rect width="20" height="20" y="500" class="l" rx="8" ry="8" transform="translate(350 -360)"/><rect width="20" height="20" y="500" class="l" rx="8" ry="8" transform="translate(380 -360)"/><rect width="20" height="20" y="500" class="l" rx="8" ry="8" transform="translate(410 -360)"/><rect width="20" height="20" y="500" class="l" rx="8" ry="8" transform="translate(440 -360)"/><rect width="20" height="20" y="500" class="l" rx="8" ry="8" transform="translate(290 -330)"/><rect width="20" height="20" y="500" class="l" rx="8" ry="8" transform="translate(320 -330)"/><rect width="20" height="20" y="500" class="l" rx="8" ry="8" transform="translate(350 -330)"/><rect width="20" height="20" y="500" class="l" rx="8" ry="8" transform="translate(380 -330)"/><rect width="20" height="20" y="500" class="l" rx="8" ry="8" transform="translate(440 -330)"/><rect width="190" height="20" y="500" class="m" rx="8" ry="8" transform="translate(50 -490)"/><rect width="190" height="20" y="500" class="m" rx="8" ry="8" transform="translate(280 -490)"/><rect width="190" height="20" y="500" class="m" rx="8" ry="8" transform="translate(50 -10)"/><rect width="190" height="20" y="500" class="m" rx="8" ry="8" transform="translate(280 -10)"/><rect width="130" height="20" y="500" class="f" rx="8" ry="8" transform="rotate(-90 -5 485)"/><rect width="130" height="20" y="500" class="f" rx="8" ry="8" transform="rotate(-90 235 245)"/><rect width="130" height="20" y="500" class="g" rx="8" ry="8" transform="rotate(-90 -75 415)"/><rect width="130" height="20" y="500" class="c" rx="8" ry="8" transform="rotate(-90 -145 345)"/><rect width="130" height="20" y="500" class="g" rx="8" ry="8" transform="rotate(-90 165 175)"/><rect width="130" height="20" y="500" class="c" rx="8" ry="8" transform="rotate(-90 95 105)"/><rect width="20" height="20" y="500" class="d" rx="8" ry="8" transform="translate(60 -250)"/><rect width="20" height="20" y="500" class="d" rx="8" ry="8" transform="translate(90 -250)"/><rect width="20" height="20" y="500" class="d" rx="8" ry="8" transform="translate(120 -250)"/><rect width="20" height="20" y="500" class="d" rx="8" ry="8" transform="translate(150 -250)"/><rect width="20" height="20" y="500" class="d" rx="8" ry="8" transform="translate(180 -250)"/><rect width="20" height="20" y="500" class="d" rx="8" ry="8" transform="translate(210 -250)"/><rect width="20" height="20" y="500" class="d" rx="8" ry="8" transform="translate(60 -220)"/><rect width="20" height="20" y="500" class="d" rx="8" ry="8" transform="translate(90 -220)"/><rect width="20" height="20" y="500" class="d" rx="8" ry="8" transform="translate(120 -220)"/><rect width="20" height="20" y="500" class="d" rx="8" ry="8" transform="translate(150 -220)"/><rect width="20" height="20" y="500" class="d" rx="8" ry="8" transform="translate(180 -220)"/><rect width="20" height="20" y="500" class="d" rx="8" ry="8" transform="translate(210 -220)"/><rect width="20" height="20" y="500" class="d" rx="8" ry="8" transform="translate(60 -190)"/><rect width="20" height="20" y="500" class="d" rx="8" ry="8" transform="translate(90 -190)"/><rect width="20" height="20" y="500" class="d" rx="8" ry="8" transform="translate(120 -190)"/><rect width="20" height="20" y="500" class="d" rx="8" ry="8" transform="translate(150 -190)"/><rect width="20" height="20" y="500" class="e" rx="8" ry="8" transform="translate(60 -110)"/><rect width="20" height="20" y="500" class="e" rx="8" ry="8" transform="translate(90 -110)"/><rect width="20" height="20" y="500" class="e" rx="8" ry="8" transform="translate(120 -110)"/><rect width="20" height="20" y="500" class="e" rx="8" ry="8" transform="translate(150 -110)"/><rect width="20" height="20" y="500" class="e" rx="8" ry="8" transform="translate(180 -110)"/><rect width="20" height="20" y="500" class="e" rx="8" ry="8" transform="translate(210 -110)"/><rect width="20" height="20" y="500" class="e" rx="8" ry="8" transform="translate(60 -80)"/><rect width="20" height="20" y="500" class="e" rx="8" ry="8" transform="translate(90 -80)"/><rect width="20" height="20" y="500" class="e" rx="8" ry="8" transform="translate(120 -80)"/><rect width="20" height="20" y="500" class="e" rx="8" ry="8" transform="translate(150 -80)"/><rect width="20" height="20" y="500" class="e" rx="8" ry="8" transform="translate(180 -80)"/><rect width="20" height="20" y="500" class="e" rx="8" ry="8" transform="translate(210 -80)"/><rect width="20" height="20" y="500" class="e" rx="8" ry="8" transform="translate(60 -50)"/><rect width="20" height="20" y="500" class="e" rx="8" ry="8" transform="translate(90 -50)"/><rect width="20" height="20" y="500" class="e" rx="8" ry="8" transform="translate(120 -50)"/><rect width="20" height="20" y="500" class="e" rx="8" ry="8" transform="translate(150 -50)"/><rect width="20" height="20" y="500" class="e" rx="8" ry="8" transform="translate(180 -50)"/><rect width="20" height="20" y="500" class="e" rx="8" ry="8" transform="translate(210 -50)"/><rect width="20" height="20" y="500" class="f" rx="8" ry="8" transform="translate(290 -110)"/><rect width="20" height="20" y="500" class="f" rx="8" ry="8" transform="translate(320 -110)"/><rect width="20" height="20" y="500" class="f" rx="8" ry="8" transform="translate(350 -110)"/><rect width="20" height="20" y="500" class="f" rx="8" ry="8" transform="translate(290 -80)"/><rect width="20" height="20" y="500" class="f" rx="8" ry="8" transform="translate(320 -80)"/><rect width="20" height="20" y="500" class="f" rx="8" ry="8" transform="translate(350 -80)"/><rect width="20" height="20" y="500" class="f" rx="8" ry="8" transform="translate(290 -50)"/><rect width="20" height="20" y="500" class="f" rx="8" ry="8" transform="translate(320 -50)"/><rect width="20" height="20" y="500" class="f" rx="8" ry="8" transform="translate(350 -50)"/></svg>