<svg xmlns="http://www.w3.org/2000/svg" fill="none" viewBox="0 0 128 128" width="128px" height="128px"><style>.a,.b,.c{fill:#012169;stroke:none;stroke-linecap:round;stroke-linejoin:round;stroke-width:.75}.b,.c{fill:#009cde;stroke-width:.25}.c{fill:#003087}</style><path d="M43.5 28.8h62.8v47.4H43.5z" class="a"/><path d="M65.1 71.3a41 41 0 0041.2-37.7 20.9 20.9 0 0110.4 19.8 38.7 38.7 0 01-43.5 38.7 4.5 4.5 0 00-4.4 4l-4.3 26.6a5 5 0 01-4 4H40.2a3.3 3.3 0 01-3.6-4.6l7.5-46.5a5.4 5.4 0 014.8-4.3H65z" class="b"/><path d="M38.4 112.7l12.3-79a4.9 4.9 0 014.5-4H88a42 42 0 0118.3 4A24.2 24.2 0 0084.8 3.3L74.2 2H32.6a5.1 5.1 0 00-5 3.9L11.3 109a3.4 3.4 0 002.9 3.7h24.2z" class="c"/></svg>