<svg xmlns="http://www.w3.org/2000/svg" fill="none" viewBox="0 0 768 768"><view id="back" viewBox="0 0 128 128"/><g stroke="#0070f7" stroke-width="11"><path stroke-linecap="round" stroke-linejoin="round" d="M12 64h108"/><path d="M54 20 10 64l44 44"/><path stroke-linecap="round" stroke-linejoin="round" d="M54 20 10 64l44 44"/></g><view id="bug" viewBox="128 0 128 128"/><g stroke="#e60000" stroke-linecap="round" stroke-linejoin="round" stroke-width="6" transform="translate(128)"><path d="M98 64a22.3 28.1-35 0 0 16.4-11.5M100.5 83a32.1 33 10 0 1 21.7 3.8M96 103a34.8 52.7 40 0 1 14.6 12.2M83 22a17.5 17.7 0 1 1 35 0M30 64a22.3 28.1 35 0 1-16.4-11.5M27.5 83a32.1 33-10 0 0-21.7 3.8M32 103a34.8 52.7-40 0 0-14.6 12.2M45 22a17.5 17.7 0 1 0-35 0"/><path d="M38 50a27 28.4 0 1 1 52 0"/><ellipse cx="36.5" cy="85" rx="36.5" ry="43" transform="translate(27.5 -4)"/></g><view id="changes" viewBox="256 0 128 128"/><g stroke="#0070f7" stroke-linecap="round" stroke-linejoin="round" stroke-width="6" transform="translate(256)"><path d="M56 20A53.3 52 45 0 0 4 72m0 0a53.3 52-45 0 0 52 52M103 7.6A12.3 12.3 0 1 1 120.4 25L103 7.6Z"/><path d="m28 100 7.2-24A16.4 16.4 0 0 1 52 92.8L28 100Z"/><path d="M102.2 8 35 75.2A17.3 17.3 0 0 1 52.9 93L120 25.8 102.2 8ZM56 124a52 53.3-45 0 0 52-52M41 6l16 14-16 14"/></g><view id="close" viewBox="384 0 128 128"/><path stroke="#639" stroke-linecap="round" stroke-linejoin="round" stroke-width="14" d="m416 8 64 56-64 56"/><view id="cog" viewBox="512 0 128 128"/><g stroke="#0070f7" stroke-width="6" transform="translate(512)"><path d="m74.6 5 23.6 9.4-4.7 11.8 8.3 8.3 11.8-4.7 9.4 22.4-11.8 5.9v11.8l11.8 5.9-9.4 22.4-11.8-4.7-9.5 8.3 6 11.8-23.7 9.4-4.7-11.8H58.1L52.2 123l-22.4-9.4 4.7-11.8-8.3-8.3-11.8 4.7L5 75.8l11.8-5.9V58.1L5 52.2l9.4-22.4 11.8 4.7 8.3-8.3-4.7-11.8L53.4 5 58 16.8h11.8L74.6 5Z"/><circle cx="12" cy="116" r="12" stroke-linecap="round" stroke-linejoin="round" transform="translate(52 -52)"/></g><view id="compare" viewBox="640 0 128 128"/><g stroke="#0070f7" stroke-width="8" transform="translate(640)"><rect width="112" height="92" y="36" stroke-linecap="round" stroke-linejoin="round" rx="8" ry="8" transform="translate(8 -18)"/><path d="M64 6v116"/></g><view id="controls" viewBox="0 128 128 128"/><g stroke="#0070f7" stroke-linecap="round" stroke-linejoin="round" stroke-width="8" transform="translate(0 128)"><path d="M116 112H12m104-96H12m104 32H12m104 32H12"/><circle cx="8" cy="120" r="8" transform="translate(80 -72)"/><circle cx="8" cy="120" r="8" transform="translate(24 -104)"/><circle cx="8" cy="120" r="8" transform="translate(50 -40)"/><circle cx="8" cy="120" r="8" transform="translate(74 -8)"/></g><view id="defaults" viewBox="128 128 128 128"/><g stroke="#0070f7" transform="translate(128 128)"><path stroke-linecap="round" stroke-linejoin="round" stroke-width="8" d="M12.6 35.7A59.4 61.5-15 0 1 93.7 14m21.7 78.3A61.5 59.4 75 0 1 34.3 114"/><path stroke-width="5" d="m70.5 28 14.4 5.8L82 41l5 5 7.2-2.9 5.8 13.7-7.2 3.6v7.2l7.2 3.6-5.8 13.7L87 82l-5.7 5 3.6 7.2-14.4 5.8-2.9-7.2h-7.2l-3.6 7.2-13.7-5.8L46 87l-5-5-7.2 2.9L28 71.2l7.2-3.6v-7.2L28 56.8l5.8-13.7L41 46l5-5-2.9-7.2L57.5 28l2.9 7.2h7.2l2.9-7.2Z"/><circle cx="8" cy="120" r="8" stroke-linecap="round" stroke-linejoin="round" stroke-width="5" transform="translate(56 -56)"/><path stroke-linecap="round" stroke-linejoin="round" stroke-width="8" d="M11.4 14.9 12 36l21-3.2m87.1 79.2L116 91l-20.1 7"/></g><view id="delete" viewBox="256 128 128 128"/><path stroke="#0070f7" stroke-width="10" d="M376 248 264 136m112 0L264 248"/><view id="download" viewBox="384 128 128 128"/><path stroke="#0070f7" stroke-width="6" d="M448 232v-40m-18 12h-18a25 25.4 0 1 1 14.4-47.2 29 28 0 0 1 57.6 4.1 22.4 21.6 0 1 1 0 43.1h-18m-30 20 12 12 12-12"/><view id="edit-off" viewBox="512 128 128 128"/><g stroke="#0070f7" stroke-linecap="round" stroke-linejoin="round" stroke-width="6" transform="translate(512 128)"><path d="M97.2 8.6a15.7 15.7 0 1 1 22.2 22.2L97.2 8.6ZM4 124l9.2-30.8a21 21 0 0 1 21.6 21.6L4 124Z"/><path d="M97 8.9 13.7 92A21.5 21.5 0 0 1 36 114.3L119 31 97 8.9Z"/></g><view id="edit-on" viewBox="640 128 128 128"/><g stroke="#0070f7" stroke-linecap="round" stroke-linejoin="round" stroke-width="6" transform="translate(640 128)"><path fill="#222d65" d="M97.2 8.6a15.7 15.7 0 1 1 22.2 22.2L97.2 8.6Z"/><path fill="#ff0" d="m4 124 9.2-30.8a21 21 0 0 1 21.6 21.6L4 124Z"/><path fill="#e60000" d="M97 8.9 13.7 92A21.5 21.5 0 0 1 36 114.3L119 31 97 8.9Z"/></g><view id="export" viewBox="0 256 128 128"/><g stroke="#0070f7" stroke-width="6" transform="translate(0 256)"><path stroke-linecap="round" stroke-linejoin="round" d="M82 4v29h28"/><path stroke-linecap="round" stroke-linejoin="round" d="M18 4v120h92V32.8L82.4 4H18Z"/><path d="M64 104V64M52 96l12 12 12-12"/></g><view id="feedback" viewBox="128 256 128 128"/><path stroke="#0070f7" stroke-linecap="round" stroke-linejoin="round" stroke-width="6" d="M165.8 346.3H132V260h120v86.3h-52.5L165.7 380v-33.8ZM144 308h76m-76-24h96"/><view id="flagged" viewBox="256 256 128 128"/><path fill="#e60000" stroke="#0070f7" stroke-linecap="round" stroke-linejoin="round" stroke-width="8" d="M320.9 278.3a33.4 33.4 0 0 1 19-17 1 1 0 0 1 .1-.1 43.4 43.4 0 0 1 18.3 1.2 1 1 0 0 1 .2 0 36.3 36.3 0 0 1 20.3 30.6 1 1 0 0 1 0 0 55.5 55.5 0 0 1-13.8 39 1 1 0 0 1 0 0l-44.3 47.2a1 1 0 0 1-1.4 0L275 332a1 1 0 0 1 0 0 55.5 55.5 0 0 1-13.8-39 1 1 0 0 1 0 0 36.3 36.3 0 0 1 20.3-30.6 1 1 0 0 1 .2 0 42.8 42.8 0 0 1 18.2-1.2 1 1 0 0 1 .2 0 33.6 33.6 0 0 1 19 17.1 1 1 0 0 0 1.8 0Z"/><view id="github" viewBox="384 256 128 128"/><path fill="#24292e" d="M448 259a63.2 64.2-90 0 0-21 122c3.6 0 4.9-2.4 4.9-3.7v-11c-14.9 2.5-19.9-4.8-21.1-7.3 0-2.4-3.7-8.5-6.2-9.7-2.5-1.2-5-4.9 0-3.7 5 0 8.7 4.9 10 6.1 4.9 9.8 13.6 7.3 17.3 4.9 1.2-3.7 2.5-6.1 5-7.3-15-2.5-28.6-7.3-28.6-31.7a23 23 0 0 1 6.2-15.9 19.3 19.3 0 0 1 0-17s6.2-1.3 17.4 6a49.6 48.8 0 0 1 31 0c12.4-7.3 17.3-7.3 17.3-6 3.8 8.5 1.3 14.6 1.3 17a21 21 0 0 1 6.2 15.9c0 24.4-14.9 29.2-28.5 31.7 2.4 1.2 3.7 4.9 3.7 11v17c0 1.3 1.2 3.7 5 3.7A62.8 63.9-90 0 0 448 259Z"/><view id="guide" viewBox="512 256 128 128"/><g transform="translate(512 256)"><circle cx="60" cy="68" r="60" stroke="#0070f7" stroke-linecap="round" stroke-linejoin="round" stroke-width="6" transform="translate(4 -4)"/><path stroke="#0070f7" stroke-linecap="round" stroke-linejoin="round" stroke-width="12" d="M44 43a20.1 22.3 1 1 1 33.7 19.5 9 9 0 0 1-4.2 2.5 13.5 15.2-13.2 0 0-9.2 9.6A9 9 0 0 0 64 77v7"/><circle cx="6" cy="122" r="6" fill="#0070f7" transform="translate(58 -17)"/></g><view id="home" viewBox="640 256 128 128"/><path stroke="#0070f7" stroke-linecap="round" stroke-linejoin="round" stroke-width="6" d="M716 380h36v-60h12l-60-60-60 60h12v60h36v-36h24v36Z"/><view id="import" viewBox="0 384 128 128"/><g stroke="#0070f7" stroke-width="6" transform="translate(0 384)"><path stroke-linecap="round" stroke-linejoin="round" d="M82 4v29h28"/><path stroke-linecap="round" stroke-linejoin="round" d="M18 4v120h92V32.8L82.4 4H18Z"/><path d="M64 104V64m-12 8 12-12 12 12"/></g><view id="link" viewBox="128 384 128 128"/><g stroke="#0070f7" stroke-linecap="round" stroke-linejoin="round" stroke-width="6" transform="translate(132 350)"><path d="M28 108h-8a20 20 0 0 1 0-40h40a20 20 0 0 1 0 40h-8"/><path d="M68 88h-8a20 20 0 0 0 0 40h40a20 20 0 0 0 0-40h-8"/></g><view id="linkedin" viewBox="256 384 128 128"/><path fill="#0a66c2" d="M383 394.3v107.4a9.3 9.3 0 0 1-9.3 9.3H266.3a9.3 9.3 0 0 1-9.3-9.3V394.3a9.3 9.3 0 0 1 9.3-9.3h107.4a9.3 9.3 0 0 1 9.3 9.3Zm-89 38.9h-18.5v59.3h18.6v-59.3Zm2-20.4a10.7 10.7 0 0 0-11.2-10.8 10.7 10.7 0 0 0 0 21.5 10.7 10.7 0 0 0 11.1-10.3v-.4Zm68.5 43.7c0-17.8-11.1-24.8-22.6-24.8a21.1 21.1 0 0 0-18.6 9.6h-.7v-8.1h-17.4v59.3h18.5V461a12.2 12.2 0 0 1 11.1-13.4h.8c5.9 0 10.3 3.7 10.3 13v31.9h18.6v-36Z"/><view id="matrix" viewBox="384 384 128 128"/><g stroke="#0070f7" transform="translate(384 384)"><path stroke-linecap="round" stroke-linejoin="round" stroke-width="6" d="M4 4h120v120H4z"/><path stroke-width="8" d="M6 28h116"/><path stroke-width="4" d="M40 122V6m48 116V6M6 52h116M6 76h116M6 100h116"/></g><view id="new" viewBox="512 384 128 128"/><path stroke="#e60000" stroke-linecap="round" stroke-linejoin="round" stroke-width="6" d="M576 388v120m-60-60h120m-102.4-42.4 84.8 84.8m-84.8 0 84.8-84.8"/><view id="open" viewBox="640 384 128 128"/><path stroke="#639" stroke-linecap="round" stroke-linejoin="round" stroke-width="14" d="m728 392-64 56 64 56"/><view id="paypal" viewBox="0 512 128 128"/><g transform="translate(0 512)"><path fill="#012169" d="M43.5 28.8h62.8v47.4H43.5z"/><path fill="#009cde" d="M65.1 71.3a41 41 0 0 0 41.2-37.7 20.9 20.9 0 0 1 10.4 19.8 38.7 38.7 0 0 1-43.5 38.7 4.5 4.5 0 0 0-4.4 4l-4.3 26.6a5 5 0 0 1-4 4H40.2a3.3 3.3 0 0 1-3.6-4.6l7.5-46.5a5.4 5.4 0 0 1 4.8-4.3H65Z"/><path fill="#003087" d="m38.4 112.7 12.3-79a4.9 4.9 0 0 1 4.5-4H88a42 42 0 0 1 18.3 4A24.2 24.2 0 0 0 84.8 3.3L74.2 2H32.6a5.1 5.1 0 0 0-5 3.9L11.3 109a3.4 3.4 0 0 0 2.9 3.7h24.2Z"/></g><view id="print" viewBox="128 512 128 128"/><g transform="translate(128 512)"><path stroke="#0070f7" stroke-width="6" d="M35.7 46H89a97 102 0 0 1 3.8-40H39.5a95.8 100.6 0 0 0-3.8 40ZM28 96.8H4V61.7A17.1 17.4 0 0 1 22 48h84a17.1 17.4 0 0 1 18 13.7v35.1h-24"/><path stroke="#0070f7" stroke-width="6" d="M32 84h64v40H32z"/><circle cx="4.8" cy="123.2" r="4.8" fill="#0070f7" transform="translate(16 -62)"/></g><view id="save" viewBox="256 512 128 128"/><g stroke="#0070f7" stroke-linecap="round" stroke-linejoin="round" stroke-width="6" transform="translate(256 512)"><path d="M4 4v102l18 18h102V4H4Z"/><path d="M16 4h96v56H16zm12 84h72v36H28z"/></g><view id="search" viewBox="384 512 128 128"/><g transform="translate(384 512)"><path stroke="#0070f7" stroke-linecap="round" stroke-linejoin="round" stroke-width="6" d="m66 66 58 58"/><circle cx="36" cy="92" r="36" stroke="#0070f7" stroke-linecap="round" stroke-linejoin="round" stroke-width="6" transform="translate(4 -52)"/><path stroke="#0070f7" stroke-linecap="round" stroke-linejoin="round" stroke-width="6" d="M30 28.9a10 10.4 3 1 1 19.5 4.7 9 9 0 0 1-5.4 5.7 6.7 7.2-27 0 0-3.9 4.1 4.5 4.5 0 0 0-.2 1.4V48"/><circle cx="3" cy="125" r="3" fill="#0070f7" transform="translate(37 -67)"/></g><view id="section-top" viewBox="512 512 128 128"/><g stroke="#0070f7" stroke-width="6" transform="translate(512 512)"><path d="M98 124V44"/><path stroke-linecap="round" stroke-linejoin="round" d="M4 4h120M72 24h52"/><path d="m74 68 24-28 24 28"/></g><view id="theme" viewBox="640 512 128 128"/><g stroke="#0070f7" stroke-linecap="round" stroke-linejoin="round" stroke-width="6" transform="translate(640 512)"><circle cx="22" cy="106" r="22" fill="#ff0" transform="translate(42 -42)"/><path d="M64 4v24m0 72v24M21.6 21.6l17 17m50.9 50.9 17 17M4 64h24m72 0h24M21.6 106.4l17-17m50.9-50.9 17-17"/></g><view id="top" viewBox="0 640 128 128"/><g stroke="#0070f7" stroke-width="6" transform="translate(0 640)"><path d="M30 124V24"/><path stroke-linecap="round" stroke-linejoin="round" d="M4 4h120M72 64h52"/><path d="m6 48 24-28 24 28"/><path stroke-linecap="round" stroke-linejoin="round" d="M72 124h52M72 94h52"/></g><view id="twitter" viewBox="128 640 128 128"/><path fill="#1da1f2" d="M137.8 657.8a76.2 76.2 0 0 0 53.3 27 25.8 25.8 0 0 1 44-23.5 38.2 38.2 0 0 0 16.4-6.3 21.5 21.5 0 0 1-11.3 14.3 29.7 29.7 0 0 0 14.8-4 41 41 0 0 1-12.6 13A73.9 73.9 0 0 1 129 743.6a51.3 51.3 0 0 0 38.3-10.7A25 25 0 0 1 143 715a17.5 17.5 0 0 0 11.7-.4A25.6 25.6 0 0 1 134 689a19 19 0 0 0 11.7 3.2 25.8 25.8 0 0 1-8-34.4Z"/><view id="unflagged" viewBox="256 640 128 128"/><path stroke="#0070f7" stroke-linecap="round" stroke-linejoin="round" stroke-width="8" d="M320.9 662.3a33.4 33.4 0 0 1 19-17 1 1 0 0 1 .1-.1 43.4 43.4 0 0 1 18.3 1.2 1 1 0 0 1 .2 0 36.3 36.3 0 0 1 20.3 30.6 1 1 0 0 1 0 0 55.5 55.5 0 0 1-13.8 39 1 1 0 0 1 0 0l-44.3 47.2a1 1 0 0 1-1.4 0L275 716a1 1 0 0 1 0 0 55.5 55.5 0 0 1-13.8-39 1 1 0 0 1 0 0 36.3 36.3 0 0 1 20.3-30.6 1 1 0 0 1 .2 0 42.8 42.8 0 0 1 18.2-1.2 1 1 0 0 1 .2 0 33.6 33.6 0 0 1 19 17.1 1 1 0 0 0 1.8 0Z"/><view id="zoom" viewBox="384 640 128 128"/><g stroke="#0070f7" stroke-width="6" transform="translate(384 640)"><path stroke-linecap="round" stroke-linejoin="round" d="m66 66 58 58"/><circle cx="36" cy="92" r="36" stroke-linecap="round" stroke-linejoin="round" transform="translate(4 -52)"/><path d="M20 40h40M40 60V20"/></g></svg>